<?xml version="1.0" encoding="utf-8" standalone="no"?>
<!DOCTYPE svg PUBLIC "-//W3C//DTD SVG 1.1//EN"
  "http://www.w3.org/Graphics/SVG/1.1/DTD/svg11.dtd">
<svg height="426.2pt" version="1.1" viewBox="0 0 884.3275 426.2" width="884.3275pt" xmlns="http://www.w3.org/2000/svg" xmlns:xlink="http://www.w3.org/1999/xlink">
 <metadata>
  <rdf:RDF xmlns:cc="http://creativecommons.org/ns#" xmlns:dc="http://purl.org/dc/elements/1.1/" xmlns:rdf="http://www.w3.org/1999/02/22-rdf-syntax-ns#">
   <cc:Work>
    <dc:type rdf:resource="http://purl.org/dc/dcmitype/StillImage"/>
    <dc:date>2022-06-15T20:38:34.903233</dc:date>
    <dc:format>image/svg+xml</dc:format>
    <dc:creator>
     <cc:Agent>
      <dc:title>Matplotlib v3.4.3, https://matplotlib.org/</dc:title>
     </cc:Agent>
    </dc:creator>
   </cc:Work>
  </rdf:RDF>
 </metadata>
 <defs>
  <style type="text/css">*{stroke-linecap:butt;stroke-linejoin:round;}</style>
 </defs>
 <g id="figure_1">
  <g id="axes_1">
   <g id="patch_1">
    <path d="M 95.9275 339.84 
L 877.1275 339.84 
L 877.1275 7.2 
L 95.9275 7.2 
z
" style="fill:#ffffff;"/>
   </g>
   <g id="matplotlib.axis_1">
    <g id="xtick_1">
     <g id="line2d_1">
      <path clip-path="url(#pa38beba942)" d="M 95.9275 339.84 
L 95.9275 7.2 
" style="fill:none;stroke:#dedede;stroke-linecap:square;"/>
     </g>
     <g id="text_1">
      <!-- 0 -->
      <g transform="translate(93.3825 352.91875)scale(0.08 -0.08)">
       <defs>
        <path d="M 2034 4250 
Q 1547 4250 1301 3770 
Q 1056 3291 1056 2328 
Q 1056 1369 1301 889 
Q 1547 409 2034 409 
Q 2525 409 2770 889 
Q 3016 1369 3016 2328 
Q 3016 3291 2770 3770 
Q 2525 4250 2034 4250 
z
M 2034 4750 
Q 2819 4750 3233 4129 
Q 3647 3509 3647 2328 
Q 3647 1150 3233 529 
Q 2819 -91 2034 -91 
Q 1250 -91 836 529 
Q 422 1150 422 2328 
Q 422 3509 836 4129 
Q 1250 4750 2034 4750 
z
" id="DejaVuSans-30" transform="scale(0.015625)"/>
       </defs>
       <use xlink:href="#DejaVuSans-30"/>
      </g>
     </g>
    </g>
    <g id="xtick_2">
     <g id="line2d_2">
      <path clip-path="url(#pa38beba942)" d="M 222.587357 339.84 
L 222.587357 7.2 
" style="fill:none;stroke:#dedede;stroke-linecap:square;"/>
     </g>
     <g id="text_2">
      <!-- 500 -->
      <g transform="translate(214.952357 352.91875)scale(0.08 -0.08)">
       <defs>
        <path d="M 691 4666 
L 3169 4666 
L 3169 4134 
L 1269 4134 
L 1269 2991 
Q 1406 3038 1543 3061 
Q 1681 3084 1819 3084 
Q 2600 3084 3056 2656 
Q 3513 2228 3513 1497 
Q 3513 744 3044 326 
Q 2575 -91 1722 -91 
Q 1428 -91 1123 -41 
Q 819 9 494 109 
L 494 744 
Q 775 591 1075 516 
Q 1375 441 1709 441 
Q 2250 441 2565 725 
Q 2881 1009 2881 1497 
Q 2881 1984 2565 2268 
Q 2250 2553 1709 2553 
Q 1456 2553 1204 2497 
Q 953 2441 691 2322 
L 691 4666 
z
" id="DejaVuSans-35" transform="scale(0.015625)"/>
       </defs>
       <use xlink:href="#DejaVuSans-35"/>
       <use x="63.623047" xlink:href="#DejaVuSans-30"/>
       <use x="127.246094" xlink:href="#DejaVuSans-30"/>
      </g>
     </g>
    </g>
    <g id="xtick_3">
     <g id="line2d_3">
      <path clip-path="url(#pa38beba942)" d="M 349.247214 339.84 
L 349.247214 7.2 
" style="fill:none;stroke:#dedede;stroke-linecap:square;"/>
     </g>
     <g id="text_3">
      <!-- 1000 -->
      <g transform="translate(339.067214 352.91875)scale(0.08 -0.08)">
       <defs>
        <path d="M 794 531 
L 1825 531 
L 1825 4091 
L 703 3866 
L 703 4441 
L 1819 4666 
L 2450 4666 
L 2450 531 
L 3481 531 
L 3481 0 
L 794 0 
L 794 531 
z
" id="DejaVuSans-31" transform="scale(0.015625)"/>
       </defs>
       <use xlink:href="#DejaVuSans-31"/>
       <use x="63.623047" xlink:href="#DejaVuSans-30"/>
       <use x="127.246094" xlink:href="#DejaVuSans-30"/>
       <use x="190.869141" xlink:href="#DejaVuSans-30"/>
      </g>
     </g>
    </g>
    <g id="xtick_4">
     <g id="line2d_4">
      <path clip-path="url(#pa38beba942)" d="M 475.907071 339.84 
L 475.907071 7.2 
" style="fill:none;stroke:#dedede;stroke-linecap:square;"/>
     </g>
     <g id="text_4">
      <!-- 1500 -->
      <g transform="translate(465.727071 352.91875)scale(0.08 -0.08)">
       <use xlink:href="#DejaVuSans-31"/>
       <use x="63.623047" xlink:href="#DejaVuSans-35"/>
       <use x="127.246094" xlink:href="#DejaVuSans-30"/>
       <use x="190.869141" xlink:href="#DejaVuSans-30"/>
      </g>
     </g>
    </g>
    <g id="xtick_5">
     <g id="line2d_5">
      <path clip-path="url(#pa38beba942)" d="M 602.566928 339.84 
L 602.566928 7.2 
" style="fill:none;stroke:#dedede;stroke-linecap:square;"/>
     </g>
     <g id="text_5">
      <!-- 2000 -->
      <g transform="translate(592.386928 352.91875)scale(0.08 -0.08)">
       <defs>
        <path d="M 1228 531 
L 3431 531 
L 3431 0 
L 469 0 
L 469 531 
Q 828 903 1448 1529 
Q 2069 2156 2228 2338 
Q 2531 2678 2651 2914 
Q 2772 3150 2772 3378 
Q 2772 3750 2511 3984 
Q 2250 4219 1831 4219 
Q 1534 4219 1204 4116 
Q 875 4013 500 3803 
L 500 4441 
Q 881 4594 1212 4672 
Q 1544 4750 1819 4750 
Q 2544 4750 2975 4387 
Q 3406 4025 3406 3419 
Q 3406 3131 3298 2873 
Q 3191 2616 2906 2266 
Q 2828 2175 2409 1742 
Q 1991 1309 1228 531 
z
" id="DejaVuSans-32" transform="scale(0.015625)"/>
       </defs>
       <use xlink:href="#DejaVuSans-32"/>
       <use x="63.623047" xlink:href="#DejaVuSans-30"/>
       <use x="127.246094" xlink:href="#DejaVuSans-30"/>
       <use x="190.869141" xlink:href="#DejaVuSans-30"/>
      </g>
     </g>
    </g>
    <g id="xtick_6">
     <g id="line2d_6">
      <path clip-path="url(#pa38beba942)" d="M 729.226785 339.84 
L 729.226785 7.2 
" style="fill:none;stroke:#dedede;stroke-linecap:square;"/>
     </g>
     <g id="text_6">
      <!-- 2500 -->
      <g transform="translate(719.046785 352.91875)scale(0.08 -0.08)">
       <use xlink:href="#DejaVuSans-32"/>
       <use x="63.623047" xlink:href="#DejaVuSans-35"/>
       <use x="127.246094" xlink:href="#DejaVuSans-30"/>
       <use x="190.869141" xlink:href="#DejaVuSans-30"/>
      </g>
     </g>
    </g>
    <g id="xtick_7">
     <g id="line2d_7">
      <path clip-path="url(#pa38beba942)" d="M 855.886642 339.84 
L 855.886642 7.2 
" style="fill:none;stroke:#dedede;stroke-linecap:square;"/>
     </g>
     <g id="text_7">
      <!-- 3000 -->
      <g transform="translate(845.706642 352.91875)scale(0.08 -0.08)">
       <defs>
        <path d="M 2597 2516 
Q 3050 2419 3304 2112 
Q 3559 1806 3559 1356 
Q 3559 666 3084 287 
Q 2609 -91 1734 -91 
Q 1441 -91 1130 -33 
Q 819 25 488 141 
L 488 750 
Q 750 597 1062 519 
Q 1375 441 1716 441 
Q 2309 441 2620 675 
Q 2931 909 2931 1356 
Q 2931 1769 2642 2001 
Q 2353 2234 1838 2234 
L 1294 2234 
L 1294 2753 
L 1863 2753 
Q 2328 2753 2575 2939 
Q 2822 3125 2822 3475 
Q 2822 3834 2567 4026 
Q 2313 4219 1838 4219 
Q 1578 4219 1281 4162 
Q 984 4106 628 3988 
L 628 4550 
Q 988 4650 1302 4700 
Q 1616 4750 1894 4750 
Q 2613 4750 3031 4423 
Q 3450 4097 3450 3541 
Q 3450 3153 3228 2886 
Q 3006 2619 2597 2516 
z
" id="DejaVuSans-33" transform="scale(0.015625)"/>
       </defs>
       <use xlink:href="#DejaVuSans-33"/>
       <use x="63.623047" xlink:href="#DejaVuSans-30"/>
       <use x="127.246094" xlink:href="#DejaVuSans-30"/>
       <use x="190.869141" xlink:href="#DejaVuSans-30"/>
      </g>
     </g>
    </g>
   </g>
   <g id="matplotlib.axis_2">
    <g id="ytick_1">
     <g id="text_8">
      <!-- identified_spectra -->
      <g transform="translate(17.34 93.399375)scale(0.08 -0.08)">
       <defs>
        <path d="M 603 3500 
L 1178 3500 
L 1178 0 
L 603 0 
L 603 3500 
z
M 603 4863 
L 1178 4863 
L 1178 4134 
L 603 4134 
L 603 4863 
z
" id="DejaVuSans-69" transform="scale(0.015625)"/>
        <path d="M 2906 2969 
L 2906 4863 
L 3481 4863 
L 3481 0 
L 2906 0 
L 2906 525 
Q 2725 213 2448 61 
Q 2172 -91 1784 -91 
Q 1150 -91 751 415 
Q 353 922 353 1747 
Q 353 2572 751 3078 
Q 1150 3584 1784 3584 
Q 2172 3584 2448 3432 
Q 2725 3281 2906 2969 
z
M 947 1747 
Q 947 1113 1208 752 
Q 1469 391 1925 391 
Q 2381 391 2643 752 
Q 2906 1113 2906 1747 
Q 2906 2381 2643 2742 
Q 2381 3103 1925 3103 
Q 1469 3103 1208 2742 
Q 947 2381 947 1747 
z
" id="DejaVuSans-64" transform="scale(0.015625)"/>
        <path d="M 3597 1894 
L 3597 1613 
L 953 1613 
Q 991 1019 1311 708 
Q 1631 397 2203 397 
Q 2534 397 2845 478 
Q 3156 559 3463 722 
L 3463 178 
Q 3153 47 2828 -22 
Q 2503 -91 2169 -91 
Q 1331 -91 842 396 
Q 353 884 353 1716 
Q 353 2575 817 3079 
Q 1281 3584 2069 3584 
Q 2775 3584 3186 3129 
Q 3597 2675 3597 1894 
z
M 3022 2063 
Q 3016 2534 2758 2815 
Q 2500 3097 2075 3097 
Q 1594 3097 1305 2825 
Q 1016 2553 972 2059 
L 3022 2063 
z
" id="DejaVuSans-65" transform="scale(0.015625)"/>
        <path d="M 3513 2113 
L 3513 0 
L 2938 0 
L 2938 2094 
Q 2938 2591 2744 2837 
Q 2550 3084 2163 3084 
Q 1697 3084 1428 2787 
Q 1159 2491 1159 1978 
L 1159 0 
L 581 0 
L 581 3500 
L 1159 3500 
L 1159 2956 
Q 1366 3272 1645 3428 
Q 1925 3584 2291 3584 
Q 2894 3584 3203 3211 
Q 3513 2838 3513 2113 
z
" id="DejaVuSans-6e" transform="scale(0.015625)"/>
        <path d="M 1172 4494 
L 1172 3500 
L 2356 3500 
L 2356 3053 
L 1172 3053 
L 1172 1153 
Q 1172 725 1289 603 
Q 1406 481 1766 481 
L 2356 481 
L 2356 0 
L 1766 0 
Q 1100 0 847 248 
Q 594 497 594 1153 
L 594 3053 
L 172 3053 
L 172 3500 
L 594 3500 
L 594 4494 
L 1172 4494 
z
" id="DejaVuSans-74" transform="scale(0.015625)"/>
        <path d="M 2375 4863 
L 2375 4384 
L 1825 4384 
Q 1516 4384 1395 4259 
Q 1275 4134 1275 3809 
L 1275 3500 
L 2222 3500 
L 2222 3053 
L 1275 3053 
L 1275 0 
L 697 0 
L 697 3053 
L 147 3053 
L 147 3500 
L 697 3500 
L 697 3744 
Q 697 4328 969 4595 
Q 1241 4863 1831 4863 
L 2375 4863 
z
" id="DejaVuSans-66" transform="scale(0.015625)"/>
        <path d="M 3263 -1063 
L 3263 -1509 
L -63 -1509 
L -63 -1063 
L 3263 -1063 
z
" id="DejaVuSans-5f" transform="scale(0.015625)"/>
        <path d="M 2834 3397 
L 2834 2853 
Q 2591 2978 2328 3040 
Q 2066 3103 1784 3103 
Q 1356 3103 1142 2972 
Q 928 2841 928 2578 
Q 928 2378 1081 2264 
Q 1234 2150 1697 2047 
L 1894 2003 
Q 2506 1872 2764 1633 
Q 3022 1394 3022 966 
Q 3022 478 2636 193 
Q 2250 -91 1575 -91 
Q 1294 -91 989 -36 
Q 684 19 347 128 
L 347 722 
Q 666 556 975 473 
Q 1284 391 1588 391 
Q 1994 391 2212 530 
Q 2431 669 2431 922 
Q 2431 1156 2273 1281 
Q 2116 1406 1581 1522 
L 1381 1569 
Q 847 1681 609 1914 
Q 372 2147 372 2553 
Q 372 3047 722 3315 
Q 1072 3584 1716 3584 
Q 2034 3584 2315 3537 
Q 2597 3491 2834 3397 
z
" id="DejaVuSans-73" transform="scale(0.015625)"/>
        <path d="M 1159 525 
L 1159 -1331 
L 581 -1331 
L 581 3500 
L 1159 3500 
L 1159 2969 
Q 1341 3281 1617 3432 
Q 1894 3584 2278 3584 
Q 2916 3584 3314 3078 
Q 3713 2572 3713 1747 
Q 3713 922 3314 415 
Q 2916 -91 2278 -91 
Q 1894 -91 1617 61 
Q 1341 213 1159 525 
z
M 3116 1747 
Q 3116 2381 2855 2742 
Q 2594 3103 2138 3103 
Q 1681 3103 1420 2742 
Q 1159 2381 1159 1747 
Q 1159 1113 1420 752 
Q 1681 391 2138 391 
Q 2594 391 2855 752 
Q 3116 1113 3116 1747 
z
" id="DejaVuSans-70" transform="scale(0.015625)"/>
        <path d="M 3122 3366 
L 3122 2828 
Q 2878 2963 2633 3030 
Q 2388 3097 2138 3097 
Q 1578 3097 1268 2742 
Q 959 2388 959 1747 
Q 959 1106 1268 751 
Q 1578 397 2138 397 
Q 2388 397 2633 464 
Q 2878 531 3122 666 
L 3122 134 
Q 2881 22 2623 -34 
Q 2366 -91 2075 -91 
Q 1284 -91 818 406 
Q 353 903 353 1747 
Q 353 2603 823 3093 
Q 1294 3584 2113 3584 
Q 2378 3584 2631 3529 
Q 2884 3475 3122 3366 
z
" id="DejaVuSans-63" transform="scale(0.015625)"/>
        <path d="M 2631 2963 
Q 2534 3019 2420 3045 
Q 2306 3072 2169 3072 
Q 1681 3072 1420 2755 
Q 1159 2438 1159 1844 
L 1159 0 
L 581 0 
L 581 3500 
L 1159 3500 
L 1159 2956 
Q 1341 3275 1631 3429 
Q 1922 3584 2338 3584 
Q 2397 3584 2469 3576 
Q 2541 3569 2628 3553 
L 2631 2963 
z
" id="DejaVuSans-72" transform="scale(0.015625)"/>
        <path d="M 2194 1759 
Q 1497 1759 1228 1600 
Q 959 1441 959 1056 
Q 959 750 1161 570 
Q 1363 391 1709 391 
Q 2188 391 2477 730 
Q 2766 1069 2766 1631 
L 2766 1759 
L 2194 1759 
z
M 3341 1997 
L 3341 0 
L 2766 0 
L 2766 531 
Q 2569 213 2275 61 
Q 1981 -91 1556 -91 
Q 1019 -91 701 211 
Q 384 513 384 1019 
Q 384 1609 779 1909 
Q 1175 2209 1959 2209 
L 2766 2209 
L 2766 2266 
Q 2766 2663 2505 2880 
Q 2244 3097 1772 3097 
Q 1472 3097 1187 3025 
Q 903 2953 641 2809 
L 641 3341 
Q 956 3463 1253 3523 
Q 1550 3584 1831 3584 
Q 2591 3584 2966 3190 
Q 3341 2797 3341 1997 
z
" id="DejaVuSans-61" transform="scale(0.015625)"/>
       </defs>
       <use xlink:href="#DejaVuSans-69"/>
       <use x="27.783203" xlink:href="#DejaVuSans-64"/>
       <use x="91.259766" xlink:href="#DejaVuSans-65"/>
       <use x="152.783203" xlink:href="#DejaVuSans-6e"/>
       <use x="216.162109" xlink:href="#DejaVuSans-74"/>
       <use x="255.371094" xlink:href="#DejaVuSans-69"/>
       <use x="283.154297" xlink:href="#DejaVuSans-66"/>
       <use x="318.359375" xlink:href="#DejaVuSans-69"/>
       <use x="346.142578" xlink:href="#DejaVuSans-65"/>
       <use x="407.666016" xlink:href="#DejaVuSans-64"/>
       <use x="471.142578" xlink:href="#DejaVuSans-5f"/>
       <use x="521.142578" xlink:href="#DejaVuSans-73"/>
       <use x="573.242188" xlink:href="#DejaVuSans-70"/>
       <use x="636.71875" xlink:href="#DejaVuSans-65"/>
       <use x="698.242188" xlink:href="#DejaVuSans-63"/>
       <use x="753.222656" xlink:href="#DejaVuSans-74"/>
       <use x="792.431641" xlink:href="#DejaVuSans-72"/>
       <use x="833.544922" xlink:href="#DejaVuSans-61"/>
      </g>
     </g>
    </g>
    <g id="ytick_2">
     <g id="text_9">
      <!-- unidentified_spectra -->
      <g transform="translate(7.2 259.719375)scale(0.08 -0.08)">
       <defs>
        <path d="M 544 1381 
L 544 3500 
L 1119 3500 
L 1119 1403 
Q 1119 906 1312 657 
Q 1506 409 1894 409 
Q 2359 409 2629 706 
Q 2900 1003 2900 1516 
L 2900 3500 
L 3475 3500 
L 3475 0 
L 2900 0 
L 2900 538 
Q 2691 219 2414 64 
Q 2138 -91 1772 -91 
Q 1169 -91 856 284 
Q 544 659 544 1381 
z
M 1991 3584 
L 1991 3584 
z
" id="DejaVuSans-75" transform="scale(0.015625)"/>
       </defs>
       <use xlink:href="#DejaVuSans-75"/>
       <use x="63.378906" xlink:href="#DejaVuSans-6e"/>
       <use x="126.757812" xlink:href="#DejaVuSans-69"/>
       <use x="154.541016" xlink:href="#DejaVuSans-64"/>
       <use x="218.017578" xlink:href="#DejaVuSans-65"/>
       <use x="279.541016" xlink:href="#DejaVuSans-6e"/>
       <use x="342.919922" xlink:href="#DejaVuSans-74"/>
       <use x="382.128906" xlink:href="#DejaVuSans-69"/>
       <use x="409.912109" xlink:href="#DejaVuSans-66"/>
       <use x="445.117188" xlink:href="#DejaVuSans-69"/>
       <use x="472.900391" xlink:href="#DejaVuSans-65"/>
       <use x="534.423828" xlink:href="#DejaVuSans-64"/>
       <use x="597.900391" xlink:href="#DejaVuSans-5f"/>
       <use x="647.900391" xlink:href="#DejaVuSans-73"/>
       <use x="700" xlink:href="#DejaVuSans-70"/>
       <use x="763.476562" xlink:href="#DejaVuSans-65"/>
       <use x="825" xlink:href="#DejaVuSans-63"/>
       <use x="879.980469" xlink:href="#DejaVuSans-74"/>
       <use x="919.189453" xlink:href="#DejaVuSans-72"/>
       <use x="960.302734" xlink:href="#DejaVuSans-61"/>
      </g>
     </g>
    </g>
   </g>
   <g id="patch_2">
    <path clip-path="url(#pa38beba942)" d="M 95.9275 23.832 
L 95.9275 23.832 
L 95.9275 156.888 
L 95.9275 156.888 
z
" style="fill:#7cb5ec;"/>
   </g>
   <g id="patch_3">
    <path clip-path="url(#pa38beba942)" d="M 95.9275 190.152 
L 96.18082 190.152 
L 96.18082 323.208 
L 95.9275 323.208 
z
" style="fill:#7cb5ec;"/>
   </g>
   <g id="patch_4">
    <path clip-path="url(#pa38beba942)" d="M 95.9275 23.832 
L 107.833527 23.832 
L 107.833527 156.888 
L 95.9275 156.888 
z
" style="fill:#434348;"/>
   </g>
   <g id="patch_5">
    <path clip-path="url(#pa38beba942)" d="M 96.18082 190.152 
L 556.71606 190.152 
L 556.71606 323.208 
L 96.18082 323.208 
z
" style="fill:#434348;"/>
   </g>
   <g id="patch_6">
    <path clip-path="url(#pa38beba942)" d="M 107.833527 23.832 
L 120.499512 23.832 
L 120.499512 156.888 
L 107.833527 156.888 
z
" style="fill:#90ed7d;"/>
   </g>
   <g id="patch_7">
    <path clip-path="url(#pa38beba942)" d="M 556.71606 190.152 
L 757.598593 190.152 
L 757.598593 323.208 
L 556.71606 323.208 
z
" style="fill:#90ed7d;"/>
   </g>
   <g id="patch_8">
    <path clip-path="url(#pa38beba942)" d="M 120.499512 23.832 
L 126.325866 23.832 
L 126.325866 156.888 
L 120.499512 156.888 
z
" style="fill:#f7a35c;"/>
   </g>
   <g id="patch_9">
    <path clip-path="url(#pa38beba942)" d="M 757.598593 190.152 
L 793.316673 190.152 
L 793.316673 323.208 
L 757.598593 323.208 
z
" style="fill:#f7a35c;"/>
   </g>
   <g id="patch_10">
    <path clip-path="url(#pa38beba942)" d="M 126.325866 23.832 
L 129.112383 23.832 
L 129.112383 156.888 
L 126.325866 156.888 
z
" style="fill:#8085e9;"/>
   </g>
   <g id="patch_11">
    <path clip-path="url(#pa38beba942)" d="M 793.316673 190.152 
L 810.542413 190.152 
L 810.542413 323.208 
L 793.316673 323.208 
z
" style="fill:#8085e9;"/>
   </g>
   <g id="patch_12">
    <path clip-path="url(#pa38beba942)" d="M 129.112383 23.832 
L 131.898899 23.832 
L 131.898899 156.888 
L 129.112383 156.888 
z
" style="fill:#f15c80;"/>
   </g>
   <g id="patch_13">
    <path clip-path="url(#pa38beba942)" d="M 810.542413 190.152 
L 818.901964 190.152 
L 818.901964 323.208 
L 810.542413 323.208 
z
" style="fill:#f15c80;"/>
   </g>
   <g id="patch_14">
    <path clip-path="url(#pa38beba942)" d="M 131.898899 23.832 
L 133.418818 23.832 
L 133.418818 156.888 
L 131.898899 156.888 
z
" style="fill:#e4d354;"/>
   </g>
   <g id="patch_15">
    <path clip-path="url(#pa38beba942)" d="M 818.901964 190.152 
L 820.421882 190.152 
L 820.421882 323.208 
L 818.901964 323.208 
z
" style="fill:#e4d354;"/>
   </g>
   <g id="patch_16">
    <path clip-path="url(#pa38beba942)" d="M 133.418818 23.832 
L 138.485212 23.832 
L 138.485212 156.888 
L 133.418818 156.888 
z
" style="fill:#2b908f;"/>
   </g>
   <g id="patch_17">
    <path clip-path="url(#pa38beba942)" d="M 820.421882 190.152 
L 837.900942 190.152 
L 837.900942 323.208 
L 820.421882 323.208 
z
" style="fill:#2b908f;"/>
   </g>
   <g id="patch_18">
    <path clip-path="url(#pa38beba942)" d="M 138.485212 23.832 
L 140.51177 23.832 
L 140.51177 156.888 
L 138.485212 156.888 
z
" style="fill:#f45b5b;"/>
   </g>
   <g id="patch_19">
    <path clip-path="url(#pa38beba942)" d="M 837.900942 190.152 
L 839.420861 190.152 
L 839.420861 323.208 
L 837.900942 323.208 
z
" style="fill:#f45b5b;"/>
   </g>
   <g id="patch_20">
    <path clip-path="url(#pa38beba942)" d="M 140.51177 23.832 
L 142.538327 23.832 
L 142.538327 156.888 
L 140.51177 156.888 
z
" style="fill:#91e8e1;"/>
   </g>
   <g id="patch_21">
    <path clip-path="url(#pa38beba942)" d="M 839.420861 190.152 
L 839.420861 190.152 
L 839.420861 323.208 
L 839.420861 323.208 
z
" style="fill:#91e8e1;"/>
   </g>
   <g id="patch_22">
    <path clip-path="url(#pa38beba942)" d="M 142.538327 23.832 
L 146.338123 23.832 
L 146.338123 156.888 
L 142.538327 156.888 
z
" style="fill:#7cb5ec;"/>
   </g>
   <g id="patch_23">
    <path clip-path="url(#pa38beba942)" d="M 839.420861 190.152 
L 839.9275 190.152 
L 839.9275 323.208 
L 839.420861 323.208 
z
" style="fill:#7cb5ec;"/>
   </g>
   <g id="text_10">
    <!-- Peak Intensity Distribution -->
    <g transform="translate(380.96125 -20.52)scale(0.16 -0.16)">
     <defs>
      <path d="M 1259 4147 
L 1259 2394 
L 2053 2394 
Q 2494 2394 2734 2622 
Q 2975 2850 2975 3272 
Q 2975 3691 2734 3919 
Q 2494 4147 2053 4147 
L 1259 4147 
z
M 628 4666 
L 2053 4666 
Q 2838 4666 3239 4311 
Q 3641 3956 3641 3272 
Q 3641 2581 3239 2228 
Q 2838 1875 2053 1875 
L 1259 1875 
L 1259 0 
L 628 0 
L 628 4666 
z
" id="DejaVuSans-50" transform="scale(0.015625)"/>
      <path d="M 581 4863 
L 1159 4863 
L 1159 1991 
L 2875 3500 
L 3609 3500 
L 1753 1863 
L 3688 0 
L 2938 0 
L 1159 1709 
L 1159 0 
L 581 0 
L 581 4863 
z
" id="DejaVuSans-6b" transform="scale(0.015625)"/>
      <path id="DejaVuSans-20" transform="scale(0.015625)"/>
      <path d="M 628 4666 
L 1259 4666 
L 1259 0 
L 628 0 
L 628 4666 
z
" id="DejaVuSans-49" transform="scale(0.015625)"/>
      <path d="M 2059 -325 
Q 1816 -950 1584 -1140 
Q 1353 -1331 966 -1331 
L 506 -1331 
L 506 -850 
L 844 -850 
Q 1081 -850 1212 -737 
Q 1344 -625 1503 -206 
L 1606 56 
L 191 3500 
L 800 3500 
L 1894 763 
L 2988 3500 
L 3597 3500 
L 2059 -325 
z
" id="DejaVuSans-79" transform="scale(0.015625)"/>
      <path d="M 1259 4147 
L 1259 519 
L 2022 519 
Q 2988 519 3436 956 
Q 3884 1394 3884 2338 
Q 3884 3275 3436 3711 
Q 2988 4147 2022 4147 
L 1259 4147 
z
M 628 4666 
L 1925 4666 
Q 3281 4666 3915 4102 
Q 4550 3538 4550 2338 
Q 4550 1131 3912 565 
Q 3275 0 1925 0 
L 628 0 
L 628 4666 
z
" id="DejaVuSans-44" transform="scale(0.015625)"/>
      <path d="M 3116 1747 
Q 3116 2381 2855 2742 
Q 2594 3103 2138 3103 
Q 1681 3103 1420 2742 
Q 1159 2381 1159 1747 
Q 1159 1113 1420 752 
Q 1681 391 2138 391 
Q 2594 391 2855 752 
Q 3116 1113 3116 1747 
z
M 1159 2969 
Q 1341 3281 1617 3432 
Q 1894 3584 2278 3584 
Q 2916 3584 3314 3078 
Q 3713 2572 3713 1747 
Q 3713 922 3314 415 
Q 2916 -91 2278 -91 
Q 1894 -91 1617 61 
Q 1341 213 1159 525 
L 1159 0 
L 581 0 
L 581 4863 
L 1159 4863 
L 1159 2969 
z
" id="DejaVuSans-62" transform="scale(0.015625)"/>
      <path d="M 1959 3097 
Q 1497 3097 1228 2736 
Q 959 2375 959 1747 
Q 959 1119 1226 758 
Q 1494 397 1959 397 
Q 2419 397 2687 759 
Q 2956 1122 2956 1747 
Q 2956 2369 2687 2733 
Q 2419 3097 1959 3097 
z
M 1959 3584 
Q 2709 3584 3137 3096 
Q 3566 2609 3566 1747 
Q 3566 888 3137 398 
Q 2709 -91 1959 -91 
Q 1206 -91 779 398 
Q 353 888 353 1747 
Q 353 2609 779 3096 
Q 1206 3584 1959 3584 
z
" id="DejaVuSans-6f" transform="scale(0.015625)"/>
     </defs>
     <use xlink:href="#DejaVuSans-50"/>
     <use x="56.677734" xlink:href="#DejaVuSans-65"/>
     <use x="118.201172" xlink:href="#DejaVuSans-61"/>
     <use x="179.480469" xlink:href="#DejaVuSans-6b"/>
     <use x="237.390625" xlink:href="#DejaVuSans-20"/>
     <use x="269.177734" xlink:href="#DejaVuSans-49"/>
     <use x="298.669922" xlink:href="#DejaVuSans-6e"/>
     <use x="362.048828" xlink:href="#DejaVuSans-74"/>
     <use x="401.257812" xlink:href="#DejaVuSans-65"/>
     <use x="462.78125" xlink:href="#DejaVuSans-6e"/>
     <use x="526.160156" xlink:href="#DejaVuSans-73"/>
     <use x="578.259766" xlink:href="#DejaVuSans-69"/>
     <use x="606.042969" xlink:href="#DejaVuSans-74"/>
     <use x="645.251953" xlink:href="#DejaVuSans-79"/>
     <use x="704.431641" xlink:href="#DejaVuSans-20"/>
     <use x="736.21875" xlink:href="#DejaVuSans-44"/>
     <use x="813.220703" xlink:href="#DejaVuSans-69"/>
     <use x="841.003906" xlink:href="#DejaVuSans-73"/>
     <use x="893.103516" xlink:href="#DejaVuSans-74"/>
     <use x="932.3125" xlink:href="#DejaVuSans-72"/>
     <use x="973.425781" xlink:href="#DejaVuSans-69"/>
     <use x="1001.208984" xlink:href="#DejaVuSans-62"/>
     <use x="1064.685547" xlink:href="#DejaVuSans-75"/>
     <use x="1128.064453" xlink:href="#DejaVuSans-74"/>
     <use x="1167.273438" xlink:href="#DejaVuSans-69"/>
     <use x="1195.056641" xlink:href="#DejaVuSans-6f"/>
     <use x="1256.238281" xlink:href="#DejaVuSans-6e"/>
    </g>
   </g>
   <g id="legend_1">
    <g id="patch_24">
     <path d="M 103.1275 390.65125 
L 119.1275 390.65125 
L 119.1275 385.05125 
L 103.1275 385.05125 
z
" style="fill:#7cb5ec;"/>
    </g>
    <g id="text_11">
     <!-- 0-10 -->
     <g transform="translate(125.5275 390.65125)scale(0.08 -0.08)">
      <defs>
       <path d="M 313 2009 
L 1997 2009 
L 1997 1497 
L 313 1497 
L 313 2009 
z
" id="DejaVuSans-2d" transform="scale(0.015625)"/>
      </defs>
      <use xlink:href="#DejaVuSans-30"/>
      <use x="63.623047" xlink:href="#DejaVuSans-2d"/>
      <use x="99.707031" xlink:href="#DejaVuSans-31"/>
      <use x="163.330078" xlink:href="#DejaVuSans-30"/>
     </g>
    </g>
    <g id="patch_25">
     <path d="M 103.1275 402.39375 
L 119.1275 402.39375 
L 119.1275 396.79375 
L 103.1275 396.79375 
z
" style="fill:#434348;"/>
    </g>
    <g id="text_12">
     <!-- 10-100 -->
     <g transform="translate(125.5275 402.39375)scale(0.08 -0.08)">
      <use xlink:href="#DejaVuSans-31"/>
      <use x="63.623047" xlink:href="#DejaVuSans-30"/>
      <use x="127.246094" xlink:href="#DejaVuSans-2d"/>
      <use x="163.330078" xlink:href="#DejaVuSans-31"/>
      <use x="226.953125" xlink:href="#DejaVuSans-30"/>
      <use x="290.576172" xlink:href="#DejaVuSans-30"/>
     </g>
    </g>
    <g id="patch_26">
     <path d="M 103.1275 414.13625 
L 119.1275 414.13625 
L 119.1275 408.53625 
L 103.1275 408.53625 
z
" style="fill:#90ed7d;"/>
    </g>
    <g id="text_13">
     <!-- 100-300 -->
     <g transform="translate(125.5275 414.13625)scale(0.08 -0.08)">
      <use xlink:href="#DejaVuSans-31"/>
      <use x="63.623047" xlink:href="#DejaVuSans-30"/>
      <use x="127.246094" xlink:href="#DejaVuSans-30"/>
      <use x="190.869141" xlink:href="#DejaVuSans-2d"/>
      <use x="226.953125" xlink:href="#DejaVuSans-33"/>
      <use x="290.576172" xlink:href="#DejaVuSans-30"/>
      <use x="354.199219" xlink:href="#DejaVuSans-30"/>
     </g>
    </g>
    <g id="patch_27">
     <path d="M 273.235938 390.65125 
L 289.235938 390.65125 
L 289.235938 385.05125 
L 273.235938 385.05125 
z
" style="fill:#f7a35c;"/>
    </g>
    <g id="text_14">
     <!-- 300-500 -->
     <g transform="translate(295.635938 390.65125)scale(0.08 -0.08)">
      <use xlink:href="#DejaVuSans-33"/>
      <use x="63.623047" xlink:href="#DejaVuSans-30"/>
      <use x="127.246094" xlink:href="#DejaVuSans-30"/>
      <use x="190.869141" xlink:href="#DejaVuSans-2d"/>
      <use x="226.953125" xlink:href="#DejaVuSans-35"/>
      <use x="290.576172" xlink:href="#DejaVuSans-30"/>
      <use x="354.199219" xlink:href="#DejaVuSans-30"/>
     </g>
    </g>
    <g id="patch_28">
     <path d="M 273.235938 402.39375 
L 289.235938 402.39375 
L 289.235938 396.79375 
L 273.235938 396.79375 
z
" style="fill:#8085e9;"/>
    </g>
    <g id="text_15">
     <!-- 500-700 -->
     <g transform="translate(295.635938 402.39375)scale(0.08 -0.08)">
      <defs>
       <path d="M 525 4666 
L 3525 4666 
L 3525 4397 
L 1831 0 
L 1172 0 
L 2766 4134 
L 525 4134 
L 525 4666 
z
" id="DejaVuSans-37" transform="scale(0.015625)"/>
      </defs>
      <use xlink:href="#DejaVuSans-35"/>
      <use x="63.623047" xlink:href="#DejaVuSans-30"/>
      <use x="127.246094" xlink:href="#DejaVuSans-30"/>
      <use x="190.869141" xlink:href="#DejaVuSans-2d"/>
      <use x="226.953125" xlink:href="#DejaVuSans-37"/>
      <use x="290.576172" xlink:href="#DejaVuSans-30"/>
      <use x="354.199219" xlink:href="#DejaVuSans-30"/>
     </g>
    </g>
    <g id="patch_29">
     <path d="M 443.344375 390.65125 
L 459.344375 390.65125 
L 459.344375 385.05125 
L 443.344375 385.05125 
z
" style="fill:#f15c80;"/>
    </g>
    <g id="text_16">
     <!-- 700-900 -->
     <g transform="translate(465.744375 390.65125)scale(0.08 -0.08)">
      <defs>
       <path d="M 703 97 
L 703 672 
Q 941 559 1184 500 
Q 1428 441 1663 441 
Q 2288 441 2617 861 
Q 2947 1281 2994 2138 
Q 2813 1869 2534 1725 
Q 2256 1581 1919 1581 
Q 1219 1581 811 2004 
Q 403 2428 403 3163 
Q 403 3881 828 4315 
Q 1253 4750 1959 4750 
Q 2769 4750 3195 4129 
Q 3622 3509 3622 2328 
Q 3622 1225 3098 567 
Q 2575 -91 1691 -91 
Q 1453 -91 1209 -44 
Q 966 3 703 97 
z
M 1959 2075 
Q 2384 2075 2632 2365 
Q 2881 2656 2881 3163 
Q 2881 3666 2632 3958 
Q 2384 4250 1959 4250 
Q 1534 4250 1286 3958 
Q 1038 3666 1038 3163 
Q 1038 2656 1286 2365 
Q 1534 2075 1959 2075 
z
" id="DejaVuSans-39" transform="scale(0.015625)"/>
      </defs>
      <use xlink:href="#DejaVuSans-37"/>
      <use x="63.623047" xlink:href="#DejaVuSans-30"/>
      <use x="127.246094" xlink:href="#DejaVuSans-30"/>
      <use x="190.869141" xlink:href="#DejaVuSans-2d"/>
      <use x="226.953125" xlink:href="#DejaVuSans-39"/>
      <use x="290.576172" xlink:href="#DejaVuSans-30"/>
      <use x="354.199219" xlink:href="#DejaVuSans-30"/>
     </g>
    </g>
    <g id="patch_30">
     <path d="M 443.344375 402.39375 
L 459.344375 402.39375 
L 459.344375 396.79375 
L 443.344375 396.79375 
z
" style="fill:#e4d354;"/>
    </g>
    <g id="text_17">
     <!-- 900-1000 -->
     <g transform="translate(465.744375 402.39375)scale(0.08 -0.08)">
      <use xlink:href="#DejaVuSans-39"/>
      <use x="63.623047" xlink:href="#DejaVuSans-30"/>
      <use x="127.246094" xlink:href="#DejaVuSans-30"/>
      <use x="190.869141" xlink:href="#DejaVuSans-2d"/>
      <use x="226.953125" xlink:href="#DejaVuSans-31"/>
      <use x="290.576172" xlink:href="#DejaVuSans-30"/>
      <use x="354.199219" xlink:href="#DejaVuSans-30"/>
      <use x="417.822266" xlink:href="#DejaVuSans-30"/>
     </g>
    </g>
    <g id="patch_31">
     <path d="M 618.542813 390.65125 
L 634.542813 390.65125 
L 634.542813 385.05125 
L 618.542813 385.05125 
z
" style="fill:#2b908f;"/>
    </g>
    <g id="text_18">
     <!-- 1000-3000 -->
     <g transform="translate(640.942813 390.65125)scale(0.08 -0.08)">
      <use xlink:href="#DejaVuSans-31"/>
      <use x="63.623047" xlink:href="#DejaVuSans-30"/>
      <use x="127.246094" xlink:href="#DejaVuSans-30"/>
      <use x="190.869141" xlink:href="#DejaVuSans-30"/>
      <use x="254.492188" xlink:href="#DejaVuSans-2d"/>
      <use x="290.576172" xlink:href="#DejaVuSans-33"/>
      <use x="354.199219" xlink:href="#DejaVuSans-30"/>
      <use x="417.822266" xlink:href="#DejaVuSans-30"/>
      <use x="481.445312" xlink:href="#DejaVuSans-30"/>
     </g>
    </g>
    <g id="patch_32">
     <path d="M 618.542813 402.39375 
L 634.542813 402.39375 
L 634.542813 396.79375 
L 618.542813 396.79375 
z
" style="fill:#f45b5b;"/>
    </g>
    <g id="text_19">
     <!-- 3000-6000 -->
     <g transform="translate(640.942813 402.39375)scale(0.08 -0.08)">
      <defs>
       <path d="M 2113 2584 
Q 1688 2584 1439 2293 
Q 1191 2003 1191 1497 
Q 1191 994 1439 701 
Q 1688 409 2113 409 
Q 2538 409 2786 701 
Q 3034 994 3034 1497 
Q 3034 2003 2786 2293 
Q 2538 2584 2113 2584 
z
M 3366 4563 
L 3366 3988 
Q 3128 4100 2886 4159 
Q 2644 4219 2406 4219 
Q 1781 4219 1451 3797 
Q 1122 3375 1075 2522 
Q 1259 2794 1537 2939 
Q 1816 3084 2150 3084 
Q 2853 3084 3261 2657 
Q 3669 2231 3669 1497 
Q 3669 778 3244 343 
Q 2819 -91 2113 -91 
Q 1303 -91 875 529 
Q 447 1150 447 2328 
Q 447 3434 972 4092 
Q 1497 4750 2381 4750 
Q 2619 4750 2861 4703 
Q 3103 4656 3366 4563 
z
" id="DejaVuSans-36" transform="scale(0.015625)"/>
      </defs>
      <use xlink:href="#DejaVuSans-33"/>
      <use x="63.623047" xlink:href="#DejaVuSans-30"/>
      <use x="127.246094" xlink:href="#DejaVuSans-30"/>
      <use x="190.869141" xlink:href="#DejaVuSans-30"/>
      <use x="254.492188" xlink:href="#DejaVuSans-2d"/>
      <use x="290.576172" xlink:href="#DejaVuSans-36"/>
      <use x="354.199219" xlink:href="#DejaVuSans-30"/>
      <use x="417.822266" xlink:href="#DejaVuSans-30"/>
      <use x="481.445312" xlink:href="#DejaVuSans-30"/>
     </g>
    </g>
    <g id="patch_33">
     <path d="M 798.83125 390.65125 
L 814.83125 390.65125 
L 814.83125 385.05125 
L 798.83125 385.05125 
z
" style="fill:#91e8e1;"/>
    </g>
    <g id="text_20">
     <!-- 6000-10000 -->
     <g transform="translate(821.23125 390.65125)scale(0.08 -0.08)">
      <use xlink:href="#DejaVuSans-36"/>
      <use x="63.623047" xlink:href="#DejaVuSans-30"/>
      <use x="127.246094" xlink:href="#DejaVuSans-30"/>
      <use x="190.869141" xlink:href="#DejaVuSans-30"/>
      <use x="254.492188" xlink:href="#DejaVuSans-2d"/>
      <use x="290.576172" xlink:href="#DejaVuSans-31"/>
      <use x="354.199219" xlink:href="#DejaVuSans-30"/>
      <use x="417.822266" xlink:href="#DejaVuSans-30"/>
      <use x="481.445312" xlink:href="#DejaVuSans-30"/>
      <use x="545.068359" xlink:href="#DejaVuSans-30"/>
     </g>
    </g>
    <g id="patch_34">
     <path d="M 798.83125 402.39375 
L 814.83125 402.39375 
L 814.83125 396.79375 
L 798.83125 396.79375 
z
" style="fill:#7cb5ec;"/>
    </g>
    <g id="text_21">
     <!-- &gt;= 10000 -->
     <g transform="translate(821.23125 402.39375)scale(0.08 -0.08)">
      <defs>
       <path d="M 678 3150 
L 678 3719 
L 4684 2266 
L 4684 1747 
L 678 294 
L 678 863 
L 3897 2003 
L 678 3150 
z
" id="DejaVuSans-3e" transform="scale(0.015625)"/>
       <path d="M 678 2906 
L 4684 2906 
L 4684 2381 
L 678 2381 
L 678 2906 
z
M 678 1631 
L 4684 1631 
L 4684 1100 
L 678 1100 
L 678 1631 
z
" id="DejaVuSans-3d" transform="scale(0.015625)"/>
      </defs>
      <use xlink:href="#DejaVuSans-3e"/>
      <use x="83.789062" xlink:href="#DejaVuSans-3d"/>
      <use x="167.578125" xlink:href="#DejaVuSans-20"/>
      <use x="199.365234" xlink:href="#DejaVuSans-31"/>
      <use x="262.988281" xlink:href="#DejaVuSans-30"/>
      <use x="326.611328" xlink:href="#DejaVuSans-30"/>
      <use x="390.234375" xlink:href="#DejaVuSans-30"/>
      <use x="453.857422" xlink:href="#DejaVuSans-30"/>
     </g>
    </g>
   </g>
  </g>
 </g>
 <defs>
  <clipPath id="pa38beba942">
   <rect height="332.64" width="781.2" x="95.9275" y="7.2"/>
  </clipPath>
 </defs>
</svg>
