<?xml version="1.0" encoding="utf-8" standalone="no"?>
<!DOCTYPE svg PUBLIC "-//W3C//DTD SVG 1.1//EN"
  "http://www.w3.org/Graphics/SVG/1.1/DTD/svg11.dtd">
<svg height="426.2pt" version="1.1" viewBox="0 0 863.325 426.2" width="863.325pt" xmlns="http://www.w3.org/2000/svg" xmlns:xlink="http://www.w3.org/1999/xlink">
 <metadata>
  <rdf:RDF xmlns:cc="http://creativecommons.org/ns#" xmlns:dc="http://purl.org/dc/elements/1.1/" xmlns:rdf="http://www.w3.org/1999/02/22-rdf-syntax-ns#">
   <cc:Work>
    <dc:type rdf:resource="http://purl.org/dc/dcmitype/StillImage"/>
    <dc:date>2022-06-16T11:02:11.354976</dc:date>
    <dc:format>image/svg+xml</dc:format>
    <dc:creator>
     <cc:Agent>
      <dc:title>Matplotlib v3.4.3, https://matplotlib.org/</dc:title>
     </cc:Agent>
    </dc:creator>
   </cc:Work>
  </rdf:RDF>
 </metadata>
 <defs>
  <style type="text/css">*{stroke-linecap:butt;stroke-linejoin:round;}</style>
 </defs>
 <g id="figure_1">
  <g id="axes_1">
   <g id="patch_1">
    <path d="M 74.925 339.84 
L 856.125 339.84 
L 856.125 7.2 
L 74.925 7.2 
z
" style="fill:#ffffff;"/>
   </g>
   <g id="matplotlib.axis_1">
    <g id="xtick_1">
     <g id="line2d_1">
      <path clip-path="url(#pb17d3c9426)" d="M 74.925 339.84 
L 74.925 7.2 
" style="fill:none;stroke:#dedede;stroke-linecap:square;"/>
     </g>
     <g id="text_1">
      <!-- 0 -->
      <g transform="translate(72.38 352.91875)scale(0.08 -0.08)">
       <defs>
        <path d="M 2034 4250 
Q 1547 4250 1301 3770 
Q 1056 3291 1056 2328 
Q 1056 1369 1301 889 
Q 1547 409 2034 409 
Q 2525 409 2770 889 
Q 3016 1369 3016 2328 
Q 3016 3291 2770 3770 
Q 2525 4250 2034 4250 
z
M 2034 4750 
Q 2819 4750 3233 4129 
Q 3647 3509 3647 2328 
Q 3647 1150 3233 529 
Q 2819 -91 2034 -91 
Q 1250 -91 836 529 
Q 422 1150 422 2328 
Q 422 3509 836 4129 
Q 1250 4750 2034 4750 
z
" id="DejaVuSans-30" transform="scale(0.015625)"/>
       </defs>
       <use xlink:href="#DejaVuSans-30"/>
      </g>
     </g>
    </g>
    <g id="xtick_2">
     <g id="line2d_2">
      <path clip-path="url(#pb17d3c9426)" d="M 207.782143 339.84 
L 207.782143 7.2 
" style="fill:none;stroke:#dedede;stroke-linecap:square;"/>
     </g>
     <g id="text_2">
      <!-- 5 -->
      <g transform="translate(205.237143 352.91875)scale(0.08 -0.08)">
       <defs>
        <path d="M 691 4666 
L 3169 4666 
L 3169 4134 
L 1269 4134 
L 1269 2991 
Q 1406 3038 1543 3061 
Q 1681 3084 1819 3084 
Q 2600 3084 3056 2656 
Q 3513 2228 3513 1497 
Q 3513 744 3044 326 
Q 2575 -91 1722 -91 
Q 1428 -91 1123 -41 
Q 819 9 494 109 
L 494 744 
Q 775 591 1075 516 
Q 1375 441 1709 441 
Q 2250 441 2565 725 
Q 2881 1009 2881 1497 
Q 2881 1984 2565 2268 
Q 2250 2553 1709 2553 
Q 1456 2553 1204 2497 
Q 953 2441 691 2322 
L 691 4666 
z
" id="DejaVuSans-35" transform="scale(0.015625)"/>
       </defs>
       <use xlink:href="#DejaVuSans-35"/>
      </g>
     </g>
    </g>
    <g id="xtick_3">
     <g id="line2d_3">
      <path clip-path="url(#pb17d3c9426)" d="M 340.639286 339.84 
L 340.639286 7.2 
" style="fill:none;stroke:#dedede;stroke-linecap:square;"/>
     </g>
     <g id="text_3">
      <!-- 10 -->
      <g transform="translate(335.549286 352.91875)scale(0.08 -0.08)">
       <defs>
        <path d="M 794 531 
L 1825 531 
L 1825 4091 
L 703 3866 
L 703 4441 
L 1819 4666 
L 2450 4666 
L 2450 531 
L 3481 531 
L 3481 0 
L 794 0 
L 794 531 
z
" id="DejaVuSans-31" transform="scale(0.015625)"/>
       </defs>
       <use xlink:href="#DejaVuSans-31"/>
       <use x="63.623047" xlink:href="#DejaVuSans-30"/>
      </g>
     </g>
    </g>
    <g id="xtick_4">
     <g id="line2d_4">
      <path clip-path="url(#pb17d3c9426)" d="M 473.496429 339.84 
L 473.496429 7.2 
" style="fill:none;stroke:#dedede;stroke-linecap:square;"/>
     </g>
     <g id="text_4">
      <!-- 15 -->
      <g transform="translate(468.406429 352.91875)scale(0.08 -0.08)">
       <use xlink:href="#DejaVuSans-31"/>
       <use x="63.623047" xlink:href="#DejaVuSans-35"/>
      </g>
     </g>
    </g>
    <g id="xtick_5">
     <g id="line2d_5">
      <path clip-path="url(#pb17d3c9426)" d="M 606.353571 339.84 
L 606.353571 7.2 
" style="fill:none;stroke:#dedede;stroke-linecap:square;"/>
     </g>
     <g id="text_5">
      <!-- 20 -->
      <g transform="translate(601.263571 352.91875)scale(0.08 -0.08)">
       <defs>
        <path d="M 1228 531 
L 3431 531 
L 3431 0 
L 469 0 
L 469 531 
Q 828 903 1448 1529 
Q 2069 2156 2228 2338 
Q 2531 2678 2651 2914 
Q 2772 3150 2772 3378 
Q 2772 3750 2511 3984 
Q 2250 4219 1831 4219 
Q 1534 4219 1204 4116 
Q 875 4013 500 3803 
L 500 4441 
Q 881 4594 1212 4672 
Q 1544 4750 1819 4750 
Q 2544 4750 2975 4387 
Q 3406 4025 3406 3419 
Q 3406 3131 3298 2873 
Q 3191 2616 2906 2266 
Q 2828 2175 2409 1742 
Q 1991 1309 1228 531 
z
" id="DejaVuSans-32" transform="scale(0.015625)"/>
       </defs>
       <use xlink:href="#DejaVuSans-32"/>
       <use x="63.623047" xlink:href="#DejaVuSans-30"/>
      </g>
     </g>
    </g>
    <g id="xtick_6">
     <g id="line2d_6">
      <path clip-path="url(#pb17d3c9426)" d="M 739.210714 339.84 
L 739.210714 7.2 
" style="fill:none;stroke:#dedede;stroke-linecap:square;"/>
     </g>
     <g id="text_6">
      <!-- 25 -->
      <g transform="translate(734.120714 352.91875)scale(0.08 -0.08)">
       <use xlink:href="#DejaVuSans-32"/>
       <use x="63.623047" xlink:href="#DejaVuSans-35"/>
      </g>
     </g>
    </g>
   </g>
   <g id="matplotlib.axis_2">
    <g id="ytick_1">
     <g id="text_7">
      <!-- BSA1_F1.mzML -->
      <g transform="translate(7.2 37.88875)scale(0.08 -0.08)">
       <defs>
        <path d="M 1259 2228 
L 1259 519 
L 2272 519 
Q 2781 519 3026 730 
Q 3272 941 3272 1375 
Q 3272 1813 3026 2020 
Q 2781 2228 2272 2228 
L 1259 2228 
z
M 1259 4147 
L 1259 2741 
L 2194 2741 
Q 2656 2741 2882 2914 
Q 3109 3088 3109 3444 
Q 3109 3797 2882 3972 
Q 2656 4147 2194 4147 
L 1259 4147 
z
M 628 4666 
L 2241 4666 
Q 2963 4666 3353 4366 
Q 3744 4066 3744 3513 
Q 3744 3084 3544 2831 
Q 3344 2578 2956 2516 
Q 3422 2416 3680 2098 
Q 3938 1781 3938 1306 
Q 3938 681 3513 340 
Q 3088 0 2303 0 
L 628 0 
L 628 4666 
z
" id="DejaVuSans-42" transform="scale(0.015625)"/>
        <path d="M 3425 4513 
L 3425 3897 
Q 3066 4069 2747 4153 
Q 2428 4238 2131 4238 
Q 1616 4238 1336 4038 
Q 1056 3838 1056 3469 
Q 1056 3159 1242 3001 
Q 1428 2844 1947 2747 
L 2328 2669 
Q 3034 2534 3370 2195 
Q 3706 1856 3706 1288 
Q 3706 609 3251 259 
Q 2797 -91 1919 -91 
Q 1588 -91 1214 -16 
Q 841 59 441 206 
L 441 856 
Q 825 641 1194 531 
Q 1563 422 1919 422 
Q 2459 422 2753 634 
Q 3047 847 3047 1241 
Q 3047 1584 2836 1778 
Q 2625 1972 2144 2069 
L 1759 2144 
Q 1053 2284 737 2584 
Q 422 2884 422 3419 
Q 422 4038 858 4394 
Q 1294 4750 2059 4750 
Q 2388 4750 2728 4690 
Q 3069 4631 3425 4513 
z
" id="DejaVuSans-53" transform="scale(0.015625)"/>
        <path d="M 2188 4044 
L 1331 1722 
L 3047 1722 
L 2188 4044 
z
M 1831 4666 
L 2547 4666 
L 4325 0 
L 3669 0 
L 3244 1197 
L 1141 1197 
L 716 0 
L 50 0 
L 1831 4666 
z
" id="DejaVuSans-41" transform="scale(0.015625)"/>
        <path d="M 3263 -1063 
L 3263 -1509 
L -63 -1509 
L -63 -1063 
L 3263 -1063 
z
" id="DejaVuSans-5f" transform="scale(0.015625)"/>
        <path d="M 628 4666 
L 3309 4666 
L 3309 4134 
L 1259 4134 
L 1259 2759 
L 3109 2759 
L 3109 2228 
L 1259 2228 
L 1259 0 
L 628 0 
L 628 4666 
z
" id="DejaVuSans-46" transform="scale(0.015625)"/>
        <path d="M 684 794 
L 1344 794 
L 1344 0 
L 684 0 
L 684 794 
z
" id="DejaVuSans-2e" transform="scale(0.015625)"/>
        <path d="M 3328 2828 
Q 3544 3216 3844 3400 
Q 4144 3584 4550 3584 
Q 5097 3584 5394 3201 
Q 5691 2819 5691 2113 
L 5691 0 
L 5113 0 
L 5113 2094 
Q 5113 2597 4934 2840 
Q 4756 3084 4391 3084 
Q 3944 3084 3684 2787 
Q 3425 2491 3425 1978 
L 3425 0 
L 2847 0 
L 2847 2094 
Q 2847 2600 2669 2842 
Q 2491 3084 2119 3084 
Q 1678 3084 1418 2786 
Q 1159 2488 1159 1978 
L 1159 0 
L 581 0 
L 581 3500 
L 1159 3500 
L 1159 2956 
Q 1356 3278 1631 3431 
Q 1906 3584 2284 3584 
Q 2666 3584 2933 3390 
Q 3200 3197 3328 2828 
z
" id="DejaVuSans-6d" transform="scale(0.015625)"/>
        <path d="M 353 3500 
L 3084 3500 
L 3084 2975 
L 922 459 
L 3084 459 
L 3084 0 
L 275 0 
L 275 525 
L 2438 3041 
L 353 3041 
L 353 3500 
z
" id="DejaVuSans-7a" transform="scale(0.015625)"/>
        <path d="M 628 4666 
L 1569 4666 
L 2759 1491 
L 3956 4666 
L 4897 4666 
L 4897 0 
L 4281 0 
L 4281 4097 
L 3078 897 
L 2444 897 
L 1241 4097 
L 1241 0 
L 628 0 
L 628 4666 
z
" id="DejaVuSans-4d" transform="scale(0.015625)"/>
        <path d="M 628 4666 
L 1259 4666 
L 1259 531 
L 3531 531 
L 3531 0 
L 628 0 
L 628 4666 
z
" id="DejaVuSans-4c" transform="scale(0.015625)"/>
       </defs>
       <use xlink:href="#DejaVuSans-42"/>
       <use x="66.853516" xlink:href="#DejaVuSans-53"/>
       <use x="132.205078" xlink:href="#DejaVuSans-41"/>
       <use x="200.613281" xlink:href="#DejaVuSans-31"/>
       <use x="264.236328" xlink:href="#DejaVuSans-5f"/>
       <use x="314.236328" xlink:href="#DejaVuSans-46"/>
       <use x="371.755859" xlink:href="#DejaVuSans-31"/>
       <use x="435.378906" xlink:href="#DejaVuSans-2e"/>
       <use x="467.166016" xlink:href="#DejaVuSans-6d"/>
       <use x="564.578125" xlink:href="#DejaVuSans-7a"/>
       <use x="617.068359" xlink:href="#DejaVuSans-4d"/>
       <use x="703.347656" xlink:href="#DejaVuSans-4c"/>
      </g>
     </g>
    </g>
    <g id="ytick_2">
     <g id="text_8">
      <!-- BSA1_F2.mzML -->
      <g transform="translate(7.2 93.32875)scale(0.08 -0.08)">
       <use xlink:href="#DejaVuSans-42"/>
       <use x="66.853516" xlink:href="#DejaVuSans-53"/>
       <use x="132.205078" xlink:href="#DejaVuSans-41"/>
       <use x="200.613281" xlink:href="#DejaVuSans-31"/>
       <use x="264.236328" xlink:href="#DejaVuSans-5f"/>
       <use x="314.236328" xlink:href="#DejaVuSans-46"/>
       <use x="371.755859" xlink:href="#DejaVuSans-32"/>
       <use x="435.378906" xlink:href="#DejaVuSans-2e"/>
       <use x="467.166016" xlink:href="#DejaVuSans-6d"/>
       <use x="564.578125" xlink:href="#DejaVuSans-7a"/>
       <use x="617.068359" xlink:href="#DejaVuSans-4d"/>
       <use x="703.347656" xlink:href="#DejaVuSans-4c"/>
      </g>
     </g>
    </g>
    <g id="ytick_3">
     <g id="text_9">
      <!-- BSA2_F1.mzML -->
      <g transform="translate(7.2 148.76875)scale(0.08 -0.08)">
       <use xlink:href="#DejaVuSans-42"/>
       <use x="66.853516" xlink:href="#DejaVuSans-53"/>
       <use x="132.205078" xlink:href="#DejaVuSans-41"/>
       <use x="200.613281" xlink:href="#DejaVuSans-32"/>
       <use x="264.236328" xlink:href="#DejaVuSans-5f"/>
       <use x="314.236328" xlink:href="#DejaVuSans-46"/>
       <use x="371.755859" xlink:href="#DejaVuSans-31"/>
       <use x="435.378906" xlink:href="#DejaVuSans-2e"/>
       <use x="467.166016" xlink:href="#DejaVuSans-6d"/>
       <use x="564.578125" xlink:href="#DejaVuSans-7a"/>
       <use x="617.068359" xlink:href="#DejaVuSans-4d"/>
       <use x="703.347656" xlink:href="#DejaVuSans-4c"/>
      </g>
     </g>
    </g>
    <g id="ytick_4">
     <g id="text_10">
      <!-- BSA2_F2.mzML -->
      <g transform="translate(7.2 204.20875)scale(0.08 -0.08)">
       <use xlink:href="#DejaVuSans-42"/>
       <use x="66.853516" xlink:href="#DejaVuSans-53"/>
       <use x="132.205078" xlink:href="#DejaVuSans-41"/>
       <use x="200.613281" xlink:href="#DejaVuSans-32"/>
       <use x="264.236328" xlink:href="#DejaVuSans-5f"/>
       <use x="314.236328" xlink:href="#DejaVuSans-46"/>
       <use x="371.755859" xlink:href="#DejaVuSans-32"/>
       <use x="435.378906" xlink:href="#DejaVuSans-2e"/>
       <use x="467.166016" xlink:href="#DejaVuSans-6d"/>
       <use x="564.578125" xlink:href="#DejaVuSans-7a"/>
       <use x="617.068359" xlink:href="#DejaVuSans-4d"/>
       <use x="703.347656" xlink:href="#DejaVuSans-4c"/>
      </g>
     </g>
    </g>
    <g id="ytick_5">
     <g id="text_11">
      <!-- BSA3_F1.mzML -->
      <g transform="translate(7.2 259.64875)scale(0.08 -0.08)">
       <defs>
        <path d="M 2597 2516 
Q 3050 2419 3304 2112 
Q 3559 1806 3559 1356 
Q 3559 666 3084 287 
Q 2609 -91 1734 -91 
Q 1441 -91 1130 -33 
Q 819 25 488 141 
L 488 750 
Q 750 597 1062 519 
Q 1375 441 1716 441 
Q 2309 441 2620 675 
Q 2931 909 2931 1356 
Q 2931 1769 2642 2001 
Q 2353 2234 1838 2234 
L 1294 2234 
L 1294 2753 
L 1863 2753 
Q 2328 2753 2575 2939 
Q 2822 3125 2822 3475 
Q 2822 3834 2567 4026 
Q 2313 4219 1838 4219 
Q 1578 4219 1281 4162 
Q 984 4106 628 3988 
L 628 4550 
Q 988 4650 1302 4700 
Q 1616 4750 1894 4750 
Q 2613 4750 3031 4423 
Q 3450 4097 3450 3541 
Q 3450 3153 3228 2886 
Q 3006 2619 2597 2516 
z
" id="DejaVuSans-33" transform="scale(0.015625)"/>
       </defs>
       <use xlink:href="#DejaVuSans-42"/>
       <use x="66.853516" xlink:href="#DejaVuSans-53"/>
       <use x="132.205078" xlink:href="#DejaVuSans-41"/>
       <use x="200.613281" xlink:href="#DejaVuSans-33"/>
       <use x="264.236328" xlink:href="#DejaVuSans-5f"/>
       <use x="314.236328" xlink:href="#DejaVuSans-46"/>
       <use x="371.755859" xlink:href="#DejaVuSans-31"/>
       <use x="435.378906" xlink:href="#DejaVuSans-2e"/>
       <use x="467.166016" xlink:href="#DejaVuSans-6d"/>
       <use x="564.578125" xlink:href="#DejaVuSans-7a"/>
       <use x="617.068359" xlink:href="#DejaVuSans-4d"/>
       <use x="703.347656" xlink:href="#DejaVuSans-4c"/>
      </g>
     </g>
    </g>
    <g id="ytick_6">
     <g id="text_12">
      <!-- BSA3_F2.mzML -->
      <g transform="translate(7.2 315.08875)scale(0.08 -0.08)">
       <use xlink:href="#DejaVuSans-42"/>
       <use x="66.853516" xlink:href="#DejaVuSans-53"/>
       <use x="132.205078" xlink:href="#DejaVuSans-41"/>
       <use x="200.613281" xlink:href="#DejaVuSans-33"/>
       <use x="264.236328" xlink:href="#DejaVuSans-5f"/>
       <use x="314.236328" xlink:href="#DejaVuSans-46"/>
       <use x="371.755859" xlink:href="#DejaVuSans-32"/>
       <use x="435.378906" xlink:href="#DejaVuSans-2e"/>
       <use x="467.166016" xlink:href="#DejaVuSans-6d"/>
       <use x="564.578125" xlink:href="#DejaVuSans-7a"/>
       <use x="617.068359" xlink:href="#DejaVuSans-4d"/>
       <use x="703.347656" xlink:href="#DejaVuSans-4c"/>
      </g>
     </g>
    </g>
   </g>
   <g id="patch_2">
    <path clip-path="url(#pb17d3c9426)" d="M 74.925 12.744 
L 579.782143 12.744 
L 579.782143 57.096 
L 74.925 57.096 
z
" style="fill:#7cb5ec;"/>
   </g>
   <g id="patch_3">
    <path clip-path="url(#pb17d3c9426)" d="M 74.925 68.184 
L 287.496429 68.184 
L 287.496429 112.536 
L 74.925 112.536 
z
" style="fill:#7cb5ec;"/>
   </g>
   <g id="patch_4">
    <path clip-path="url(#pb17d3c9426)" d="M 74.925 123.624 
L 686.067857 123.624 
L 686.067857 167.976 
L 74.925 167.976 
z
" style="fill:#7cb5ec;"/>
   </g>
   <g id="patch_5">
    <path clip-path="url(#pb17d3c9426)" d="M 74.925 179.064 
L 393.782143 179.064 
L 393.782143 223.416 
L 74.925 223.416 
z
" style="fill:#7cb5ec;"/>
   </g>
   <g id="patch_6">
    <path clip-path="url(#pb17d3c9426)" d="M 74.925 234.504 
L 473.496429 234.504 
L 473.496429 278.856 
L 74.925 278.856 
z
" style="fill:#7cb5ec;"/>
   </g>
   <g id="patch_7">
    <path clip-path="url(#pb17d3c9426)" d="M 74.925 289.944 
L 260.925 289.944 
L 260.925 334.296 
L 74.925 334.296 
z
" style="fill:#7cb5ec;"/>
   </g>
   <g id="patch_8">
    <path clip-path="url(#pb17d3c9426)" d="M 579.782143 12.744 
L 632.925 12.744 
L 632.925 57.096 
L 579.782143 57.096 
z
" style="fill:#434348;"/>
   </g>
   <g id="patch_9">
    <path clip-path="url(#pb17d3c9426)" d="M 287.496429 68.184 
L 393.782143 68.184 
L 393.782143 112.536 
L 287.496429 112.536 
z
" style="fill:#434348;"/>
   </g>
   <g id="patch_10">
    <path clip-path="url(#pb17d3c9426)" d="M 686.067857 123.624 
L 792.353571 123.624 
L 792.353571 167.976 
L 686.067857 167.976 
z
" style="fill:#434348;"/>
   </g>
   <g id="patch_11">
    <path clip-path="url(#pb17d3c9426)" d="M 393.782143 179.064 
L 500.067857 179.064 
L 500.067857 223.416 
L 393.782143 223.416 
z
" style="fill:#434348;"/>
   </g>
   <g id="patch_12">
    <path clip-path="url(#pb17d3c9426)" d="M 473.496429 234.504 
L 526.639286 234.504 
L 526.639286 278.856 
L 473.496429 278.856 
z
" style="fill:#434348;"/>
   </g>
   <g id="patch_13">
    <path clip-path="url(#pb17d3c9426)" d="M 260.925 289.944 
L 314.067857 289.944 
L 314.067857 334.296 
L 260.925 334.296 
z
" style="fill:#434348;"/>
   </g>
   <g id="patch_14">
    <path clip-path="url(#pb17d3c9426)" d="M 632.925 12.744 
L 818.925 12.744 
L 818.925 57.096 
L 632.925 57.096 
z
" style="fill:#90ed7d;"/>
   </g>
   <g id="patch_15">
    <path clip-path="url(#pb17d3c9426)" d="M 393.782143 68.184 
L 526.639286 68.184 
L 526.639286 112.536 
L 393.782143 112.536 
z
" style="fill:#90ed7d;"/>
   </g>
   <g id="patch_16">
    <path clip-path="url(#pb17d3c9426)" d="M 792.353571 123.624 
L 818.925 123.624 
L 818.925 167.976 
L 792.353571 167.976 
z
" style="fill:#90ed7d;"/>
   </g>
   <g id="patch_17">
    <path clip-path="url(#pb17d3c9426)" d="M 500.067857 179.064 
L 579.782143 179.064 
L 579.782143 223.416 
L 500.067857 223.416 
z
" style="fill:#90ed7d;"/>
   </g>
   <g id="patch_18">
    <path clip-path="url(#pb17d3c9426)" d="M 526.639286 234.504 
L 579.782143 234.504 
L 579.782143 278.856 
L 526.639286 278.856 
z
" style="fill:#90ed7d;"/>
   </g>
   <g id="patch_19">
    <path clip-path="url(#pb17d3c9426)" d="M 314.067857 289.944 
L 340.639286 289.944 
L 340.639286 334.296 
L 314.067857 334.296 
z
" style="fill:#90ed7d;"/>
   </g>
   <g id="text_13">
    <!-- MS2 counts per 3D-peak -->
    <g transform="translate(367.12625 -20.52)scale(0.16 -0.16)">
     <defs>
      <path id="DejaVuSans-20" transform="scale(0.015625)"/>
      <path d="M 3122 3366 
L 3122 2828 
Q 2878 2963 2633 3030 
Q 2388 3097 2138 3097 
Q 1578 3097 1268 2742 
Q 959 2388 959 1747 
Q 959 1106 1268 751 
Q 1578 397 2138 397 
Q 2388 397 2633 464 
Q 2878 531 3122 666 
L 3122 134 
Q 2881 22 2623 -34 
Q 2366 -91 2075 -91 
Q 1284 -91 818 406 
Q 353 903 353 1747 
Q 353 2603 823 3093 
Q 1294 3584 2113 3584 
Q 2378 3584 2631 3529 
Q 2884 3475 3122 3366 
z
" id="DejaVuSans-63" transform="scale(0.015625)"/>
      <path d="M 1959 3097 
Q 1497 3097 1228 2736 
Q 959 2375 959 1747 
Q 959 1119 1226 758 
Q 1494 397 1959 397 
Q 2419 397 2687 759 
Q 2956 1122 2956 1747 
Q 2956 2369 2687 2733 
Q 2419 3097 1959 3097 
z
M 1959 3584 
Q 2709 3584 3137 3096 
Q 3566 2609 3566 1747 
Q 3566 888 3137 398 
Q 2709 -91 1959 -91 
Q 1206 -91 779 398 
Q 353 888 353 1747 
Q 353 2609 779 3096 
Q 1206 3584 1959 3584 
z
" id="DejaVuSans-6f" transform="scale(0.015625)"/>
      <path d="M 544 1381 
L 544 3500 
L 1119 3500 
L 1119 1403 
Q 1119 906 1312 657 
Q 1506 409 1894 409 
Q 2359 409 2629 706 
Q 2900 1003 2900 1516 
L 2900 3500 
L 3475 3500 
L 3475 0 
L 2900 0 
L 2900 538 
Q 2691 219 2414 64 
Q 2138 -91 1772 -91 
Q 1169 -91 856 284 
Q 544 659 544 1381 
z
M 1991 3584 
L 1991 3584 
z
" id="DejaVuSans-75" transform="scale(0.015625)"/>
      <path d="M 3513 2113 
L 3513 0 
L 2938 0 
L 2938 2094 
Q 2938 2591 2744 2837 
Q 2550 3084 2163 3084 
Q 1697 3084 1428 2787 
Q 1159 2491 1159 1978 
L 1159 0 
L 581 0 
L 581 3500 
L 1159 3500 
L 1159 2956 
Q 1366 3272 1645 3428 
Q 1925 3584 2291 3584 
Q 2894 3584 3203 3211 
Q 3513 2838 3513 2113 
z
" id="DejaVuSans-6e" transform="scale(0.015625)"/>
      <path d="M 1172 4494 
L 1172 3500 
L 2356 3500 
L 2356 3053 
L 1172 3053 
L 1172 1153 
Q 1172 725 1289 603 
Q 1406 481 1766 481 
L 2356 481 
L 2356 0 
L 1766 0 
Q 1100 0 847 248 
Q 594 497 594 1153 
L 594 3053 
L 172 3053 
L 172 3500 
L 594 3500 
L 594 4494 
L 1172 4494 
z
" id="DejaVuSans-74" transform="scale(0.015625)"/>
      <path d="M 2834 3397 
L 2834 2853 
Q 2591 2978 2328 3040 
Q 2066 3103 1784 3103 
Q 1356 3103 1142 2972 
Q 928 2841 928 2578 
Q 928 2378 1081 2264 
Q 1234 2150 1697 2047 
L 1894 2003 
Q 2506 1872 2764 1633 
Q 3022 1394 3022 966 
Q 3022 478 2636 193 
Q 2250 -91 1575 -91 
Q 1294 -91 989 -36 
Q 684 19 347 128 
L 347 722 
Q 666 556 975 473 
Q 1284 391 1588 391 
Q 1994 391 2212 530 
Q 2431 669 2431 922 
Q 2431 1156 2273 1281 
Q 2116 1406 1581 1522 
L 1381 1569 
Q 847 1681 609 1914 
Q 372 2147 372 2553 
Q 372 3047 722 3315 
Q 1072 3584 1716 3584 
Q 2034 3584 2315 3537 
Q 2597 3491 2834 3397 
z
" id="DejaVuSans-73" transform="scale(0.015625)"/>
      <path d="M 1159 525 
L 1159 -1331 
L 581 -1331 
L 581 3500 
L 1159 3500 
L 1159 2969 
Q 1341 3281 1617 3432 
Q 1894 3584 2278 3584 
Q 2916 3584 3314 3078 
Q 3713 2572 3713 1747 
Q 3713 922 3314 415 
Q 2916 -91 2278 -91 
Q 1894 -91 1617 61 
Q 1341 213 1159 525 
z
M 3116 1747 
Q 3116 2381 2855 2742 
Q 2594 3103 2138 3103 
Q 1681 3103 1420 2742 
Q 1159 2381 1159 1747 
Q 1159 1113 1420 752 
Q 1681 391 2138 391 
Q 2594 391 2855 752 
Q 3116 1113 3116 1747 
z
" id="DejaVuSans-70" transform="scale(0.015625)"/>
      <path d="M 3597 1894 
L 3597 1613 
L 953 1613 
Q 991 1019 1311 708 
Q 1631 397 2203 397 
Q 2534 397 2845 478 
Q 3156 559 3463 722 
L 3463 178 
Q 3153 47 2828 -22 
Q 2503 -91 2169 -91 
Q 1331 -91 842 396 
Q 353 884 353 1716 
Q 353 2575 817 3079 
Q 1281 3584 2069 3584 
Q 2775 3584 3186 3129 
Q 3597 2675 3597 1894 
z
M 3022 2063 
Q 3016 2534 2758 2815 
Q 2500 3097 2075 3097 
Q 1594 3097 1305 2825 
Q 1016 2553 972 2059 
L 3022 2063 
z
" id="DejaVuSans-65" transform="scale(0.015625)"/>
      <path d="M 2631 2963 
Q 2534 3019 2420 3045 
Q 2306 3072 2169 3072 
Q 1681 3072 1420 2755 
Q 1159 2438 1159 1844 
L 1159 0 
L 581 0 
L 581 3500 
L 1159 3500 
L 1159 2956 
Q 1341 3275 1631 3429 
Q 1922 3584 2338 3584 
Q 2397 3584 2469 3576 
Q 2541 3569 2628 3553 
L 2631 2963 
z
" id="DejaVuSans-72" transform="scale(0.015625)"/>
      <path d="M 1259 4147 
L 1259 519 
L 2022 519 
Q 2988 519 3436 956 
Q 3884 1394 3884 2338 
Q 3884 3275 3436 3711 
Q 2988 4147 2022 4147 
L 1259 4147 
z
M 628 4666 
L 1925 4666 
Q 3281 4666 3915 4102 
Q 4550 3538 4550 2338 
Q 4550 1131 3912 565 
Q 3275 0 1925 0 
L 628 0 
L 628 4666 
z
" id="DejaVuSans-44" transform="scale(0.015625)"/>
      <path d="M 313 2009 
L 1997 2009 
L 1997 1497 
L 313 1497 
L 313 2009 
z
" id="DejaVuSans-2d" transform="scale(0.015625)"/>
      <path d="M 2194 1759 
Q 1497 1759 1228 1600 
Q 959 1441 959 1056 
Q 959 750 1161 570 
Q 1363 391 1709 391 
Q 2188 391 2477 730 
Q 2766 1069 2766 1631 
L 2766 1759 
L 2194 1759 
z
M 3341 1997 
L 3341 0 
L 2766 0 
L 2766 531 
Q 2569 213 2275 61 
Q 1981 -91 1556 -91 
Q 1019 -91 701 211 
Q 384 513 384 1019 
Q 384 1609 779 1909 
Q 1175 2209 1959 2209 
L 2766 2209 
L 2766 2266 
Q 2766 2663 2505 2880 
Q 2244 3097 1772 3097 
Q 1472 3097 1187 3025 
Q 903 2953 641 2809 
L 641 3341 
Q 956 3463 1253 3523 
Q 1550 3584 1831 3584 
Q 2591 3584 2966 3190 
Q 3341 2797 3341 1997 
z
" id="DejaVuSans-61" transform="scale(0.015625)"/>
      <path d="M 581 4863 
L 1159 4863 
L 1159 1991 
L 2875 3500 
L 3609 3500 
L 1753 1863 
L 3688 0 
L 2938 0 
L 1159 1709 
L 1159 0 
L 581 0 
L 581 4863 
z
" id="DejaVuSans-6b" transform="scale(0.015625)"/>
     </defs>
     <use xlink:href="#DejaVuSans-4d"/>
     <use x="86.279297" xlink:href="#DejaVuSans-53"/>
     <use x="149.755859" xlink:href="#DejaVuSans-32"/>
     <use x="213.378906" xlink:href="#DejaVuSans-20"/>
     <use x="245.166016" xlink:href="#DejaVuSans-63"/>
     <use x="300.146484" xlink:href="#DejaVuSans-6f"/>
     <use x="361.328125" xlink:href="#DejaVuSans-75"/>
     <use x="424.707031" xlink:href="#DejaVuSans-6e"/>
     <use x="488.085938" xlink:href="#DejaVuSans-74"/>
     <use x="527.294922" xlink:href="#DejaVuSans-73"/>
     <use x="579.394531" xlink:href="#DejaVuSans-20"/>
     <use x="611.181641" xlink:href="#DejaVuSans-70"/>
     <use x="674.658203" xlink:href="#DejaVuSans-65"/>
     <use x="736.181641" xlink:href="#DejaVuSans-72"/>
     <use x="777.294922" xlink:href="#DejaVuSans-20"/>
     <use x="809.082031" xlink:href="#DejaVuSans-33"/>
     <use x="872.705078" xlink:href="#DejaVuSans-44"/>
     <use x="949.707031" xlink:href="#DejaVuSans-2d"/>
     <use x="985.791016" xlink:href="#DejaVuSans-70"/>
     <use x="1049.267578" xlink:href="#DejaVuSans-65"/>
     <use x="1110.791016" xlink:href="#DejaVuSans-61"/>
     <use x="1172.070312" xlink:href="#DejaVuSans-6b"/>
    </g>
   </g>
   <g id="legend_1">
    <g id="patch_20">
     <path d="M 82.125 414.13625 
L 98.125 414.13625 
L 98.125 408.53625 
L 82.125 408.53625 
z
" style="fill:#7cb5ec;"/>
    </g>
    <g id="text_14">
     <!-- 1 -->
     <g transform="translate(104.525 414.13625)scale(0.08 -0.08)">
      <use xlink:href="#DejaVuSans-31"/>
     </g>
    </g>
    <g id="patch_21">
     <path d="M 443.805 414.13625 
L 459.805 414.13625 
L 459.805 408.53625 
L 443.805 408.53625 
z
" style="fill:#434348;"/>
    </g>
    <g id="text_15">
     <!-- 2 -->
     <g transform="translate(466.205 414.13625)scale(0.08 -0.08)">
      <use xlink:href="#DejaVuSans-32"/>
     </g>
    </g>
    <g id="patch_22">
     <path d="M 805.485 414.13625 
L 821.485 414.13625 
L 821.485 408.53625 
L 805.485 408.53625 
z
" style="fill:#90ed7d;"/>
    </g>
    <g id="text_16">
     <!-- &gt;= 3 -->
     <g transform="translate(827.885 414.13625)scale(0.08 -0.08)">
      <defs>
       <path d="M 678 3150 
L 678 3719 
L 4684 2266 
L 4684 1747 
L 678 294 
L 678 863 
L 3897 2003 
L 678 3150 
z
" id="DejaVuSans-3e" transform="scale(0.015625)"/>
       <path d="M 678 2906 
L 4684 2906 
L 4684 2381 
L 678 2381 
L 678 2906 
z
M 678 1631 
L 4684 1631 
L 4684 1100 
L 678 1100 
L 678 1631 
z
" id="DejaVuSans-3d" transform="scale(0.015625)"/>
      </defs>
      <use xlink:href="#DejaVuSans-3e"/>
      <use x="83.789062" xlink:href="#DejaVuSans-3d"/>
      <use x="167.578125" xlink:href="#DejaVuSans-20"/>
      <use x="199.365234" xlink:href="#DejaVuSans-33"/>
     </g>
    </g>
   </g>
  </g>
 </g>
 <defs>
  <clipPath id="pb17d3c9426">
   <rect height="332.64" width="781.2" x="74.925" y="7.2"/>
  </clipPath>
 </defs>
</svg>
