<svg class="main-svg" xmlns="http://www.w3.org/2000/svg" xmlns:xlink="http://www.w3.org/1999/xlink" width="2200" height="1000" style="" viewBox="0 0 1100 500"><rect x="0" y="0" width="1100" height="500" style="fill: rgb(255, 255, 255); fill-opacity: 1;"/><defs id="defs-5d153a"><g class="clips"><clipPath id="clip5d153axyplot" class="plotclip"><rect width="1025" height="385"/></clipPath><clipPath class="axesclip" id="clip5d153ax"><rect x="60" y="0" width="1025" height="500"/></clipPath><clipPath class="axesclip" id="clip5d153ay"><rect x="0" y="50" width="1100" height="385"/></clipPath><clipPath class="axesclip" id="clip5d153axy"><rect x="60" y="50" width="1025" height="385"/></clipPath></g><g class="gradients"/><g class="patterns"/></defs><g class="bglayer"/><g class="layer-below"><g class="imagelayer"/><g class="shapelayer"/></g><g class="cartesianlayer"><g class="subplot xy"><g class="layer-subplot"><g class="shapelayer"/><g class="imagelayer"/></g><g class="minor-gridlayer"><g class="x"/><g class="y"/></g><g class="gridlayer"><g class="x"><path class="xgrid crisp" transform="translate(249.84,0)" d="M0,50v385" style="stroke: rgb(0, 0, 0); stroke-opacity: 0.05; stroke-width: 1px;"/><path class="xgrid crisp" transform="translate(439.68,0)" d="M0,50v385" style="stroke: rgb(0, 0, 0); stroke-opacity: 0.05; stroke-width: 1px;"/><path class="xgrid crisp" transform="translate(629.52,0)" d="M0,50v385" style="stroke: rgb(0, 0, 0); stroke-opacity: 0.05; stroke-width: 1px;"/><path class="xgrid crisp" transform="translate(819.36,0)" d="M0,50v385" style="stroke: rgb(0, 0, 0); stroke-opacity: 0.05; stroke-width: 1px;"/><path class="xgrid crisp" transform="translate(1009.2,0)" d="M0,50v385" style="stroke: rgb(0, 0, 0); stroke-opacity: 0.05; stroke-width: 1px;"/></g><g class="y"><path class="ygrid crisp" transform="translate(0,387.06)" d="M60,0h1025" style="stroke: rgb(0, 0, 0); stroke-opacity: 0.05; stroke-width: 1px;"/><path class="ygrid crisp" transform="translate(0,339.11)" d="M60,0h1025" style="stroke: rgb(0, 0, 0); stroke-opacity: 0.05; stroke-width: 1px;"/><path class="ygrid crisp" transform="translate(0,291.16999999999996)" d="M60,0h1025" style="stroke: rgb(0, 0, 0); stroke-opacity: 0.05; stroke-width: 1px;"/><path class="ygrid crisp" transform="translate(0,243.22)" d="M60,0h1025" style="stroke: rgb(0, 0, 0); stroke-opacity: 0.05; stroke-width: 1px;"/><path class="ygrid crisp" transform="translate(0,195.28)" d="M60,0h1025" style="stroke: rgb(0, 0, 0); stroke-opacity: 0.05; stroke-width: 1px;"/><path class="ygrid crisp" transform="translate(0,147.34)" d="M60,0h1025" style="stroke: rgb(0, 0, 0); stroke-opacity: 0.05; stroke-width: 1px;"/><path class="ygrid crisp" transform="translate(0,99.39)" d="M60,0h1025" style="stroke: rgb(0, 0, 0); stroke-opacity: 0.05; stroke-width: 1px;"/><path class="ygrid crisp" transform="translate(0,51.45)" d="M60,0h1025" style="stroke: rgb(0, 0, 0); stroke-opacity: 0.05; stroke-width: 1px;"/></g></g><g class="zerolinelayer"><path class="yzl zl crisp" transform="translate(0,435)" d="M60,0h1025" style="stroke: rgb(0, 0, 0); stroke-opacity: 0.05; stroke-width: 2px;"/></g><g class="layer-between"><g class="shapelayer"/><g class="imagelayer"/></g><path class="xlines-below"/><path class="ylines-below"/><g class="overlines-below"/><g class="xaxislayer-below"/><g class="yaxislayer-below"/><g class="overaxes-below"/><g class="overplot"><g class="xy" transform="translate(60,50)" clip-path="url(#clip5d153axyplot)"><g class="scatterlayer mlayer"><g class="trace scatter trace4cd07f" style="stroke-miterlimit: 2; opacity: 1;"><g class="fills"/><g class="errorbars"/><g class="lines"><path class="js-line" d="M0,384.63L43.19,384.8L45.12,384.78L80.26,384.23L82.12,384.13L96.41,383.17L98.83,379.78L100.66,383.36L102.66,382.56L106.86,382.1L108.84,380.89L111.12,378.58L112.99,324.56L114.89,354.24L117.3,368.67L119.22,369.7L121.21,359.96L123.53,332.82L125.31,287.74L127.29,304.47L129.69,282.23L131.52,307.62L133.36,314.25L135.76,324.25L137.66,351.64L139.67,351.6L141.95,358.32L143.93,294.84L145.77,328.4L148.17,331.88L150.11,329.44L151.92,340.27L153.8,338.88L159.98,321.9L162.47,317.54L164.37,327.88L166.13,325.49L168.69,323.83L170.51,306.02L172.44,321.4L174.7,319.15L176.68,314.29L178.61,267.11L180.87,303.04L182.94,304.43L184.63,304.12L187.04,306L189,294.11L190.83,314.08L193.32,315.14L195.18,314.73L197,314.3L199.4,328.97L201.26,304.84L203.19,304.91L205.57,323.32L207.48,326.37L211.8,330.23L213.67,308.24L217.98,321.47L219.92,303.75L221.82,319.02L224.2,310.89L225.93,321.83L228.11,310.64L232.25,323.27L233.99,324.65L238.51,303.49L240.35,302.94L244.45,298.07L246.41,282.7L248.84,278.1L250.67,291.95L252.66,313.52L254.9,313.36L258.75,315.54L260.66,312.6L262.99,318.89L265.01,319.08L266.75,321.54L269.31,297.51L271.08,285.27L272.97,300.12L275.35,304.65L277.37,295.7L279.2,307.25L281.51,273L283.47,298.79L285.32,267.82L287.74,285.87L289.68,285.27L291.56,295.5L293.88,298.85L295.68,319.73L297.72,302.38L300.18,295.08L301.92,308.46L303.86,303.03L306.23,315.83L310.11,303.61L312.45,309.96L314.2,318.21L316.09,323.41L318.54,331.43L320.5,307.36L322.46,296.95L324.65,330.82L326.62,326.78L328.64,316.98L330.98,289.36L332.78,285.37L334.76,313.55L337.15,298.19L339.07,298.45L340.87,279.49L343.26,303.78L345.17,271.8L347.03,299.67L349.39,272.21L351.29,260.36L353.22,284.64L355.62,294.03L357.51,284.63L359.28,194.58L361.25,243.36L365.64,287.37L367.45,292.93L369.93,263.76L371.77,270L373.62,296.58L375.95,257.8L377.79,231.45L379.72,222.66L382.13,185.37L384.02,185.93L386.02,210.42L388.4,262.42L390.21,264.12L392.08,276.62L394.52,216.43L396.47,262.66L398.35,240.81L400.69,256.92L404.53,152.61L406.8,195.8L408.7,209.36L410.62,237L413.02,266.23L414.93,262.13L416.83,231.65L419.18,255.49L421.15,208.77L422.92,230.88L425.4,274.23L427.2,221.64L429.12,216.32L431.59,194.56L433.38,228.46L435.36,232.19L437.74,148.12L439.63,258.79L441.53,232L443.85,223.95L445.68,222.68L447.62,168.54L450.06,229.26L451.89,188.78L453.88,194.26L456.09,187.92L459.99,43.48L461.84,106.3L464.27,19.25L466.15,100.02L467.99,87.3L470.48,142.19L472.27,127.09L474.23,193.6L476.52,252.28L478.54,169.25L480.43,205.88L482.68,123.72L486.55,184.92L489,211.38L490.8,214.72L492.75,252.86L495.02,217.47L497.03,241.59L498.86,250.68L501.33,187.72L503.1,229.8L505.17,221.7L507.36,246.87L509.26,227.59L511.24,219.78L513.57,218.31L515.49,241.18L517.37,234.42L519.74,230.42L521.67,233.28L523.66,229.76L526.03,238.25L527.91,240.65L529.72,210.58L532.29,253.55L534.01,229.48L535.99,197.65L538.32,218.99L540.27,252.06L542.17,261.52L544.46,272.61L546.35,243.6L548.29,253.66L550.61,281.52L552.5,264.89L554.57,211.4L556.8,254.81L558.82,192.98L560.65,236.59L562.97,242.27L564.81,216.43L566.76,236.6L568.8,250.83L571.06,256.77L574.78,276.44L577.31,262.55L579.04,307.53L580.95,265.07L583.38,288.71L585.27,297.99L587.12,279.95L589.55,291.46L591.52,261.12L593.27,198.47L595.75,282.9L597.57,279.38L599.47,269.02L601.95,275.51L603.7,203.34L605.77,224.23L608.16,187.1L609.99,196.55L611.8,190.92L614.21,294.96L616.22,299.79L618.1,285.07L620.31,273.52L622.22,270.82L624.1,180.16L626.49,214.08L628.41,183.38L630.41,195.89L632.71,204.39L634.61,169.34L636.53,266.7L638.83,268.61L640.95,321.16L642.79,298.05L645.07,300.52L646.96,306.88L648.78,308.22L651.36,259.26L653.23,273.94L655.15,275.16L659.22,256.27L661.25,252.91L663.53,264.03L665.56,265.73L667.32,245.57L669.36,238.98L671.77,159.06L673.48,262.72L675.44,229.28L677.93,173.09L679.69,143.06L681.61,223.36L683.91,224L685.86,221.54L687.73,240.82L690.23,280.81L692,265.2L693.87,226.84L696.27,232.33L698.4,256.86L702.41,288.25L704.38,288.21L706.49,293.79L708.62,293.03L710.62,300.5L712.64,301.29L714.9,329.82L716.8,314L718.58,324.41L721,346.47L723.06,338.98L724.89,340.97L727.27,326.7L729.16,304.71L730.97,322.16L733.35,276.33L735.4,310.31L737.15,320.67L739.64,326.38L741.53,322.54L743.45,247.42L745.62,301.87L747.6,255.28L749.52,285.9L751.86,309.62L753.93,288.01L755.68,320.07L758.16,315.85L759.93,313.4L761.77,281.83L764.17,307.68L766.05,305.12L767.95,315.39L770.01,318.51L772.21,338.06L774.22,334.71L776.19,326.41L778.47,310.16L780.4,323.15L782.15,384.67L794.51,384.57L797.2,281.92L798.78,288.32L800.83,285.65L803.1,278.08L805.01,317.54L806.98,287.53L809.35,307.29L811.23,280.27L813.16,303.99L815.66,341.08L817.4,338.41L819.34,345.27L821.55,301.79L823.58,164.78L825.52,327.35L827.73,383.45L829.64,384.66L836.05,384.02L837.82,383.83L840.2,383.73L841.99,382.47L846.27,380.52L848.39,379.98L852.66,378.13L854.37,380.93L856.42,381.2L858.77,379.31L860.5,379.41L862.51,378.4L866.63,379.3L868.8,379.19L872.8,378.97L874.7,381.44L876.72,378.05L879.12,377.99L880.97,377.88L882.8,376.69L885.15,378.4L887.04,376.65L889.14,374.69L891.32,358.99L893.28,365.91L895.12,365.1L897.61,364.33L899.64,367.74L901.28,362.98L903.87,364.67L905.84,360.18L907.44,370.71L909.97,358.62L911.95,359.39L913.73,352.3L916.02,355.34L920.1,368.88L922.2,357.25L924.22,332.77L926.16,335.04L928.49,353.01L930.22,356.22L932.24,348.56L934.61,345.85L936.43,349.63L938.44,356.21L940.73,356.28L942.67,333.4L944.52,334.71L946.9,350.24L948.78,356.44L950.69,355.46L953.14,351.81L955.11,347.27L956.94,352L959.35,301.63L961.26,269.01L963.05,294.79L965.59,341.41L967.41,348.77L969.2,361.84L971.54,351.08L973.41,353.45L975.53,349.9L977.3,345.66L979.87,357.52L983.38,328.1L985.81,337.57L987.88,342.23L989.64,328.4L992.15,315.13L993.93,277.35L995.76,282.06L998.29,276.08L1000.19,288.07L1002.05,319.14L1004.39,345.59L1006.45,357.7L1008.3,368.08L1010.56,368.62L1012.39,357.72L1014.23,336.76L1016.73,316.54L1018.61,347.69L1020.46,347.41L1022.93,370.41L1025,378.21" style="vector-effect: none; fill: none; stroke: rgb(124, 181, 236); stroke-opacity: 1; stroke-width: 2px; opacity: 1;"/></g><g class="points"/><g class="text"/></g><g class="trace scatter trace22c18d" style="stroke-miterlimit: 2; opacity: 1;"><g class="fills"/><g class="errorbars"/><g class="lines"><path class="js-line" d="M0,384.57L65.56,384.45L67.94,383.49L71.72,383.94L74.08,383.88L77.94,382.85L80.34,381.03L82.24,377.76L84.14,376.76L86.42,378.35L88.36,378.39L90.19,341.24L92.58,373L94.57,379.77L96.37,379.45L100.71,335.96L102.64,367.77L104.99,363.19L106.97,363.33L108.7,356.03L111.24,306.26L113.08,330.13L114.87,368.33L117.36,355.24L119.19,337.16L121.13,338.68L123.51,344.57L125.3,332.74L127.33,341.34L131.54,365.08L133.43,338.05L135.88,274.01L137.72,294.21L139.56,298.48L142,341.29L145.76,325.52L148.25,333.46L150.13,332.3L151.91,322.45L153.92,347.27L156.25,328.88L158.13,336.64L159.96,320.45L162.49,323.19L164.36,295.87L166.21,284.47L168.6,307.4L170.48,325.86L172.3,332.3L174.73,338.89L176.79,340.17L178.46,318.14L181.06,306.86L182.73,293.55L184.75,314.03L188.91,311.08L190.89,322.44L193.33,311.74L195.18,310.86L197.1,324.22L199.41,328.33L201.37,326.25L203.24,320.72L205.52,314.19L207.58,316.63L209.47,313.95L211.82,332.93L213.59,315.14L215.55,313.98L217.92,325.51L219.93,318.43L221.77,325.23L224.16,325.24L226.07,332.55L227.93,335.68L230.29,335.46L232.13,330.98L234,313.86L236.44,325.37L238.4,301.81L240.26,323.81L242.52,321.44L244.49,336.12L246.45,329.46L248.72,304.05L250.66,305.21L252.6,336.12L254.91,331.3L256.93,317.83L258.67,329.43L260.64,315.32L262.96,308.75L264.88,290.81L266.75,315.76L269.33,303.5L271.11,312.48L273,282.44L277.22,296.46L279.12,324.27L281.49,330.56L283.58,324.96L285.27,315.38L287.79,326.78L289.68,315.78L291.48,318.38L293.99,312.41L295.82,320.45L297.78,315.75L300.13,331.77L301.93,321.51L303.84,283.95L306.13,290.53L308.05,302.44L310.1,306.53L312.46,305.42L314.19,248.85L316.2,264.71L324.71,310.3L326.66,311.91L328.6,281.39L330.83,301.49L332.81,291.13L334.77,248.71L337.02,293.28L338.92,303.02L343.3,311.78L345.05,318.36L349.46,278.79L351.35,280.74L353.13,294.46L355.61,300.2L357.53,226.17L359.41,260.47L361.32,276.7L363.62,248.16L367.47,204.86L369.9,246.41L371.79,210.1L373.68,208.02L375.89,190.66L377.86,211.45L379.74,265.03L382.26,215.39L383.97,216.39L385.86,236.95L388.35,275.98L390.27,270L392.22,300.68L394.42,301.25L396.37,304.54L398.38,263.25L400.58,218.39L402.49,214.75L404.51,223.15L406.77,243.75L408.78,268L410.71,235.15L412.98,229.9L414.85,245.87L416.81,250.52L419.16,249.6L421.19,252.73L422.97,278.8L425.28,262.14L427.2,208.01L429.19,199.87L431.56,262.22L433.52,248.95L435.36,285.54L439.61,244.54L441.39,236.14L443.84,215.05L445.71,244L447.56,250.49L450.16,208.72L451.88,196.99L453.82,217.32L456.17,233L458.01,214.69L460.07,232.49L461.87,266.01L466.19,209.21L468.02,192.58L470.49,228.63L472.41,269.88L474.3,269.21L476.64,257.15L478.49,286.8L480.37,280.01L482.82,260.49L484.71,259.67L486.58,280.66L489.05,252.74L490.92,279.84L492.81,255.17L495.13,263.51L497.09,256.92L501.37,289.82L503.13,268.27L505.09,252.64L507.42,281.54L509.31,315.98L511.21,294.4L515.61,285.45L517.37,277.33L519.96,272L521.8,294.15L523.68,293.43L525.86,300.75L527.87,303.49L529.76,292.99L532.27,261.95L534.07,299.13L535.93,275.16L538.2,273.09L540.21,295.68L542.16,279.53L544.42,274.27L546.42,295.05L548.24,299.75L550.73,289.98L552.65,305.86L554.43,298L556.85,296.24L558.8,290.6L560.68,308.44L562.91,303.68L564.89,289.87L566.76,285.2L568.81,266.12L570.95,280.2L573,287.04L574.85,311.69L577.12,267.81L579.22,267.07L581.03,263.1L583.33,228.27L585.22,246.25L587.22,301.76L589.54,317.66L591.46,304.75L595.84,319.22L597.54,321.7L599.58,321.55L602.01,295.67L603.9,305.43L605.87,300.36L608.15,299.25L610.1,301.41L612,308.49L614.18,284.88L616.2,308.54L618.02,243.54L622.35,252.86L624.26,254.6L626.51,309.15L628.59,297.26L630.28,311.48L632.68,315.51L634.67,327.59L636.55,293.36L639.07,302.79L640.97,306.4L642.73,321.78L645.18,315.02L647.07,327.73L648.85,289.99L655.18,320.94L657.39,325.06L661.27,317.58L663.71,286.91L665.51,308.57L667.47,320.03L669.31,332.62L671.65,293.57L673.64,292.17L675.6,314.76L681.6,352.26L683.94,350.75L685.98,305.02L687.89,309.97L690.36,300.49L692.1,329.04L693.97,333.53L696.26,319.74L698.26,328.16L700.28,327.87L702.54,333.06L704.38,324.37L706.34,321.48L708.79,319.75L710.62,319.5L712.41,304.34L714.82,302.64L716.88,313.69L718.56,312.17L720.97,302.01L724.78,300.25L727.29,318.22L729,335.42L731.07,327.09L733.46,337.31L735.17,348.83L737.12,350.1L739.43,343.02L741.48,318.89L743.32,318.17L745.83,307.23L747.72,324.25L749.51,329.1L751.81,327.93L753.83,321.55L755.64,313.25L757.94,332.71L760.06,328.05L761.94,311.63L764.27,315.66L766.25,307.37L768.17,323.31L770.05,313.02L772.37,308.28L774.28,328.88L776.13,328.3L778.59,315.32L780.34,318.13L782.3,319.55L784.65,319.99L788.43,305.24L790.73,313.46L792.73,318.07L794.52,314.95L796.96,345.07L798.89,349.95L800.89,331.62L803.15,341.26L805.13,344.43L806.85,339.53L809.22,348.48L811.19,346.8L813.19,359.58L815.46,342.09L817.27,344.73L819.36,338.2L821.67,331.2L823.57,334.05L825.53,322.03L827.86,295.25L829.66,301.88L831.54,304.58L834.01,311.94L835.84,314.82L837.76,317.9L840.06,324.19L842,324.63L843.85,328.12L846.26,344.11L848.27,348.3L850.07,355.88L852.45,349.16L854.36,338.32L856.29,345.23L858.73,328.26L860.73,329.19L862.44,338.19L864.79,313.84L866.62,339.89L868.76,333.02L871.01,332.85L872.85,339.42L874.75,336.89L876.76,330.06L878.97,338.3L881.12,342.42L882.76,345.47L885.3,345.11L887.17,343.68L888.96,332.87L891.31,340.83L893.21,334.35L895.37,384.91L897.48,384.65L909.84,384.74L911.79,327.52L913.63,338.24L916.1,332.13L918.05,342.54L919.98,342.13L922.24,338.41L924.25,351.31L926.15,334.68L928.35,351.35L934.54,315.31L936.4,239.27L938.51,331.82L940.93,383.61L942.58,384.56L944.49,384.61L950.9,383.52L953.1,379.53L956.93,378.02L959.23,375.76L961.19,374.15L963.17,368.61L965.43,368.07L967.48,369.65L971.62,361.84L973.42,363.02L977.32,367.16L979.85,363.29L981.49,365.03L983.38,369.57L985.81,361.11L987.83,367.05L989.59,367.47L991.98,362.31L993.91,364.11L995.89,369.67L998.1,371.72L1000.08,369.72L1002.09,373.07L1004.46,370.93L1006.31,370.23L1008.08,371.43L1010.5,371.77L1012.4,363.97L1014.25,334.98L1016.77,322.24L1018.62,320.77L1020.41,339.76L1024.71,365.21" style="vector-effect: none; fill: none; stroke: rgb(67, 67, 72); stroke-opacity: 1; stroke-width: 2px; opacity: 1;"/></g><g class="points"/><g class="text"/></g><g class="trace scatter trace234d57" style="stroke-miterlimit: 2; opacity: 1;"><g class="fills"/><g class="errorbars"/><g class="lines"><path class="js-line" d="M0,384.74L41.31,384.83L43.23,384.83L77.87,384.18L80.22,383.95L84.03,384.3L86.39,383.72L90.25,384.04L92.63,382.8L96.35,382.8L98.86,381.37L100.86,379.74L102.64,376.81L104.96,378.13L106.89,364.06L108.91,375.65L111.09,368L113.19,365.23L114.91,365.48L117.4,355.9L119.19,352.69L121.15,338.09L123.46,335.47L125.32,337.93L127.31,315.42L129.72,283.67L131.57,296.19L133.48,245.99L135.93,264.62L137.63,275.41L139.55,281.48L141.92,295.96L143.83,280.15L145.7,286.29L148.11,277.28L150.01,245.28L151.94,280.7L153.8,277.85L156.15,281.97L158.08,301.11L159.96,270.89L164.25,262.81L166.2,285.23L168.59,287.09L170.52,284.44L172.41,280.92L174.72,280.11L176.61,271.37L178.49,300.26L180.87,280.46L182.75,288.53L187.15,306.45L189.02,294.09L193.3,302.5L195.17,290.22L197.22,287.72L199.39,301.5L201.41,318.06L203.25,312.31L205.55,318.09L207.56,313.41L209.42,295.11L211.79,311.88L213.6,304.91L215.47,263.24L217.84,260.68L219.76,287.04L221.67,259.34L224.04,261.52L225.92,262.7L227.88,230.15L230.19,207.38L232.1,221.32L234.03,215L236.39,216.91L238.25,216.41L240.16,229.61L242.56,236.88L244.46,246.79L246.32,272.06L248.7,278.45L250.59,283.91L252.49,306.38L254.91,326.47L256.99,315.46L258.79,307.59L260.62,320.43L262.98,318.24L264.88,314.63L266.91,305.88L269.17,305.17L271.04,318.19L272.97,306.21L275.34,315.4L277.17,302.91L279.07,306.8L281.56,303.44L283.38,309.02L285.35,293.98L287.77,288.11L289.69,322.63L291.57,303.14L293.96,298.01L295.72,303.11L297.68,290.25L300.07,293.85L301.88,311.5L303.93,294.59L306.17,297.68L308.21,299.4L310.03,308.54L312.32,313.45L314.36,301.38L316.12,308.77L318.49,304.71L320.57,301.56L322.4,288.06L324.77,308.57L326.61,298.76L328.6,304.77L330.86,286.75L332.82,238.66L334.61,258.37L337.13,238.05L338.94,279.8L340.89,250.05L343.18,156.44L347,101.01L349.47,251.77L351.27,267.59L353.21,265.35L357.44,277.05L359.29,275.17L361.28,249.72L363.61,248.09L365.57,277.27L367.53,251.8L369.84,286.46L371.78,234.16L373.62,262.66L375.94,274.48L377.91,166.89L379.77,215.7L384.12,262.62L385.9,206.54L390.22,265.93L392.05,255.71L394.52,267.55L396.3,265.12L400.69,164.45L402.53,206.23L404.43,244.1L406.81,201.52L408.72,234.87L410.66,189.52L412.99,203.95L414.85,224.23L416.89,231.14L419.22,244.02L421.08,163.53L423.06,178.51L425.36,201.51L427.27,248.31L429.22,248.28L431.5,238.4L433.38,267.36L435.3,241.48L437.76,249.16L439.58,222.13L441.52,227.94L443.77,171.97L445.69,227.69L447.57,200.11L450.1,235.72L451.87,235.29L453.78,228.46L456.21,232.31L458.11,227.77L459.93,188.86L461.79,247.87L464.34,239.05L466.09,195.51L468.15,185.05L470.45,210.71L472.34,252.25L474.23,226.38L476.6,205.07L480.36,169.55L482.77,238.39L486.63,192.6L488.93,240.89L490.76,217.14L492.68,218.55L496.97,268.44L498.82,232.21L501.26,257.06L503.1,266.49L505.12,248.94L507.38,246.76L509.26,231.79L511.32,252.05L513.62,259.58L515.46,269.23L517.39,235.65L519.85,243.7L521.67,268.28L523.51,258.6L525.91,203.28L527.78,230.26L529.86,264.87L532.15,231.97L533.95,254.44L535.96,212.32L538.21,201.21L540.15,243.94L542.09,273.82L544.45,211.35L546.36,194.45L548.17,232.26L550.55,227.79L552.58,233.37L554.36,228.77L556.76,252.55L558.78,188.9L560.63,225.55L562.98,227L564.95,167.48L566.7,183.96L568.74,184.54L571.03,238.44L572.96,220.9L574.77,214.93L577.15,217.84L579.08,257.83L580.97,255.47L583.3,261.85L585.38,279.7L587.09,312.26L589.57,307.48L593.28,290.5L595.71,238.79L597.54,278.86L599.54,286.76L601.85,269.4L603.89,236.1L605.77,246.78L608.04,269.81L610.06,294.19L611.82,260.43L614.3,295.04L616.18,252.35L618.05,265.6L620.4,288.02L622.29,275.24L624.29,269.5L626.5,285.43L628.45,281.41L630.34,271.29L632.68,278.41L634.69,263.84L636.54,272.18L638.91,251.86L640.73,273.42L642.74,272.21L645.21,273.24L647.08,290.72L648.97,288.69L651.17,295.3L653.2,266.66L655.13,300.32L657.4,299.63L659.33,303.18L661.18,313.06L663.52,284.21L665.52,270.76L667.34,278.89L669.2,292.36L671.6,289.5L673.57,293.67L675.47,293.66L677.76,275.91L679.73,271.84L681.64,254.4L683.98,318.46L686.07,259.93L687.71,271.14L690.16,278.05L693.97,302.49L696.31,265.33L698.28,260.65L700.1,269.92L702.6,303.95L704.38,297.95L706.34,301.93L708.79,295.8L710.7,260.7L712.54,284.6L714.94,291L716.8,318.61L718.77,294.45L720.94,306.61L722.84,300.65L724.94,308.55L727.17,284.99L729.14,273.11L731.05,305.1L733.45,287.92L735.29,310.55L737.13,309.86L739.55,302.42L741.33,289.41L743.35,311.88L745.61,312.89L747.65,328.37L749.42,316.11L752,331.64L753.8,335.25L755.7,311.63L758.05,316.54L760,281.55L761.91,278.75L764.11,286.75L766.2,290.56L767.94,304.73L769.86,313.23L772.33,314.82L774.21,317.15L776.14,294.5L778.6,299.02L780.45,317.15L782.14,314.46L784.7,302.19L786.67,303.98L788.5,318.53L790.85,298.28L792.63,305.29L794.52,334.83L796.94,330.13L798.97,259.97L800.69,298.64L803.1,292.9L805.07,303.16L806.84,303.62L809.21,310.79L811.12,299.18L815.53,281.89L817.44,323.66L819.22,295.66L821.61,314.97L823.6,326.04L825.49,309.01L827.8,315.03L829.64,322.72L831.64,320.23L833.9,314.92L835.89,281.86L837.93,308.88L840.2,305.63L841.98,329.03L843.85,313.38L846.32,324.01L848.29,321.99L850.14,309.9L852.4,309.87L854.35,321.21L856.22,314.59L858.56,324.41L860.65,333.85L862.56,312.54L864.93,300.09L866.87,327.02L868.61,319.35L870.91,336.23L872.95,333.99L874.84,334.08L876.81,344.81L879.02,346.21L881.11,341.6L882.93,345.08L885.19,344.8L887.13,338.29L891.49,276.33L893.26,322.58L895.25,314.31L897.51,328.55L899.59,322L901.46,299.58L903.71,318.7L905.73,324.39L907.63,384.29L909.84,384.62L922.19,384.89L924.13,327.97L926.01,314.35L928.35,335.94L930.34,343.92L932.34,331.18L934.56,329.74L936.68,333.01L938.31,335.53L940.82,358.14L942.6,342.18L944.69,334.85L946.87,344.55L948.84,182.65L950.76,336.59L953.14,383.42L954.91,384.62L956.83,384.71L961.11,384.6L963.27,383.15L967.45,383.05L969.24,382.33L973.53,381.24L975.31,382.26L977.47,381.54L979.82,378.45L981.77,380.03L983.6,377.49L985.88,377L987.65,379.08L989.87,376L991.92,379.48L994.09,377.79L995.86,381.07L998.26,378.9L1000.2,379.58L1002.21,378.52L1004.4,380.05L1006.35,375.85L1008.15,379.26L1010.51,378.49L1012.51,375.46L1014.31,339.7L1016.77,333.55L1018.58,292.76L1020.47,312.47L1024.94,376.42" style="vector-effect: none; fill: none; stroke: rgb(144, 237, 125); stroke-opacity: 1; stroke-width: 2px; opacity: 1;"/></g><g class="points"/><g class="text"/></g><g class="trace scatter trace525e99" style="stroke-miterlimit: 2; opacity: 1;"><g class="fills"/><g class="errorbars"/><g class="lines"><path class="js-line" d="M0,384.57L43.21,384.62L45.11,384.69L75.95,384.11L78.05,383.68L82.12,383.09L84.03,382.67L86.38,383.11L88.31,382.48L90.38,374.41L92.66,381.54L96.46,381.36L98.84,382.2L100.73,382.35L102.57,377.91L104.98,360.63L106.8,353.84L108.81,327.08L111.11,360.83L112.97,343.2L114.87,341.53L117.42,345.01L119.23,328.46L121.18,283.29L123.46,333.5L125.47,331.86L127.34,295.48L129.77,310.99L131.63,301.09L133.47,301.93L135.94,293.92L137.64,326.57L139.76,323.04L142.02,294.41L143.81,315.3L145.8,276.17L148.12,271.75L149.98,325.1L151.93,309.22L153.96,312.82L156.24,287.25L158.27,317.26L159.99,284.3L162.41,288.41L164.26,281.7L166.25,279.91L168.55,230.65L170.52,274.54L172.37,298.86L174.68,286.53L176.62,254.21L178.6,296.08L181.01,287.67L182.85,296.43L184.77,283.62L187.1,253.84L189.02,250.63L190.87,250.05L193.16,268.34L195.15,276.66L196.99,264.24L199.34,282.08L201.33,307.73L203.2,228.23L205.55,303.85L207.58,285.56L209.42,288.18L211.82,289.14L213.71,278.79L215.51,279.08L217.96,197.12L221.69,233.69L224.06,224.47L225.91,260.25L227.88,269.54L230.22,290.51L232.31,292.4L234.04,275.07L236.54,260.99L238.28,274.49L240.16,242.99L244.53,305.78L246.47,311.95L248.78,283.13L250.64,282.31L252.67,305.77L254.95,303.67L256.96,299.31L258.78,300.42L260.64,295.44L262.94,299.51L265,288.14L266.9,311.31L269.14,312.34L271.04,297.42L273.06,298.85L275.3,308.25L277.17,283.77L279.11,268.63L281.47,274.47L283.43,271.33L285.25,288.7L287.67,273.75L289.56,211.86L291.51,217.09L293.83,251.64L295.76,250.99L297.67,274.62L300.04,282.06L301.9,288.16L303.78,300.87L306.19,298.44L308.05,301.1L310.02,291.53L312.43,287.01L314.21,289.17L316.34,301.53L318.64,315.17L320.44,284.93L324.64,303.67L326.74,286.8L328.49,282.88L330.97,279.69L334.66,310.93L337.08,302.24L343.18,244.33L345.06,259.23L347.13,285.84L349.45,265.52L351.4,266.74L353.14,210.6L355.59,262.47L357.47,164.51L359.4,205.13L361.27,125.3L363.62,202.63L365.48,210.6L369.84,220.35L371.68,179.94L373.53,211.73L375.93,177.89L377.84,217.09L379.76,217.38L382.17,229.29L384,265.1L386.02,198.49L388.41,224.67L392.12,48.3L394.4,151.8L396.45,229.6L398.28,184.3L400.74,226.16L402.48,218.06L404.5,231.53L406.76,228.54L408.77,273.48L410.66,246.5L414.84,212.85L416.74,241.25L419.14,200.53L421.15,207.91L422.9,227.96L425.35,243.53L427.33,222.07L429.21,232.34L431.62,201.21L433.47,195.95L437.71,268.25L439.53,204.74L441.56,232.18L443.81,250.87L445.75,190.33L447.58,240.28L450.05,265.87L452.06,214.11L453.89,233.3L456.2,221.02L458.18,205.5L460.08,225.4L461.89,227.92L464.28,235.91L466.2,257.19L468.11,208.48L470.55,140.5L472.39,180.88L474.31,224.64L476.65,244.26L478.48,244.56L480.45,159.32L482.75,164.3L484.68,157.64L486.68,135.4L488.88,206.53L490.8,183.47L492.67,255.23L496.92,215.56L498.91,223.21L503.1,251.23L505.02,253.51L507.38,253.64L509.43,226.66L511.15,268.29L513.65,265.13L515.56,221.11L517.4,234.73L519.77,242.88L521.61,269.91L523.57,255.88L525.96,230.78L527.86,241.96L529.8,204.49L532.12,179.3L534.01,176.52L538.28,269.46L540.2,260.29L542.09,244.57L544.43,210.39L546.31,193.54L548.29,225.15L552.63,282.67L554.35,265.82L556.81,262.26L558.64,264.42L560.54,251.44L562.89,229.08L564.81,225.44L566.86,235.86L571,167.22L572.85,212.03L574.93,245.87L577.15,252.89L580.99,297.07L583.3,271.07L585.36,285.82L587.27,282.31L589.54,276.26L591.39,214.07L595.83,255.28L597.57,241.72L599.45,285.59L601.8,264.61L603.8,248.82L605.77,281.26L608.08,251.47L610.12,296.24L611.79,283.76L614.24,259.33L616.18,258.03L618.19,278.74L620.47,275.9L622.27,307.69L624.13,270.34L626.51,253.58L630.29,294.19L632.73,286.2L634.55,267.5L636.51,293.82L638.86,295.28L640.76,302.18L642.63,314.09L645.06,303.92L646.89,301.71L648.83,298.15L651.33,256.13L653.07,271.32L655.15,275.75L657.51,290.24L659.31,305.33L661.23,305.64L663.7,309.05L665.54,287.3L667.3,300.11L669.4,290L671.65,286.69L673.47,300.66L675.41,289.91L677.91,300.29L679.72,304.41L681.62,285.24L683.94,294.06L685.97,265.04L687.83,270L690.11,293.6L692.14,294.34L693.94,316.19L696.33,328.53L698.38,302.64L700.23,299.7L702.41,289.37L704.53,217.59L706.32,302.19L708.66,296.38L710.66,276.14L712.52,270.64L714.78,270.55L718.59,151.98L720.93,117.38L722.83,161.61L724.75,176.97L727.14,155.99L729.01,165.26L730.91,183.63L733.27,139.88L735.17,171.42L737.1,138.39L743.26,200.83L745.61,195.74L747.56,184.09L749.4,208.17L751.79,215.7L753.68,211.9L755.7,213.79L758.09,255.79L761.81,281.03L764.27,289.08L766.02,292.72L767.99,294.33L772.25,288.3L774.19,310.37L778.61,311.81L780.5,301.25L782.19,308.3L784.72,313.94L788.58,327.07L790.71,322.56L794.54,303.8L796.94,302.53L798.99,310.45L800.91,340.78L803.06,279.64L805.16,265.27L807.03,270.44L809.32,290.42L811.33,303.25L813.02,276.15L815.62,321.56L817.44,321.1L819.38,334.68L821.62,342.66L823.59,348.12L825.38,337.69L827.89,334.49L829.65,321.78L831.71,290.76L834.14,302.86L836.05,305.01L837.91,314.13L840.23,326.67L842.04,342.65L846.32,319.42L848.27,333.77L850.06,339.99L852.43,336.46L854.44,324.61L856.27,326.67L860.63,305.21L862.46,312.81L864.79,318.85L866.67,328.27L868.66,323.89L871.1,344.43L872.81,384.63L874.73,384.66L887.07,384.55L888.98,333.87L891.5,319.55L893.27,304.72L895.12,331.4L897.7,342.87L899.38,332.79L901.29,350.01L903.84,325.7L905.66,357.04L907.46,337.07L909.88,327.81L911.86,314.22L913.61,319.77L916.01,233.38L917.94,377.22L919.88,384.51L922.19,384.78L928.37,384.42L930.49,382.6L932.19,383.47L934.66,382.79L940.69,380.54L942.79,378.98L944.74,380.18L946.86,379.69L948.8,378.59L950.83,380.18L953.19,379.68L955.01,375.99L956.81,378.38L959.29,376.9L965.4,371.69L967.37,374.57L969.33,373.7L971.57,363.46L973.46,366.88L975.37,368.4L977.24,368.33L979.67,361.67L983.52,337.23L985.8,335.18L987.68,343.78L989.58,331.07L991.92,321.33L993.95,334.93L995.81,342.02L998.1,322.47L1000.18,325.02L1001.9,316.27L1004.27,335.08L1006.2,317.23L1008.08,318.44L1010.47,322.4L1012.34,333.91L1014.25,308.97L1018.65,229.2L1020.57,246.99L1022.95,280.19L1024.7,355.88" style="vector-effect: none; fill: none; stroke: rgb(247, 163, 92); stroke-opacity: 1; stroke-width: 2px; opacity: 1;"/></g><g class="points"/><g class="text"/></g><g class="trace scatter trace572be3" style="stroke-miterlimit: 2; opacity: 1;"><g class="fills"/><g class="errorbars"/><g class="lines"><path class="js-line" d="M0,384.53L37.03,384.19L38.92,383.47L43.24,381.91L45.24,357L47.61,278.82L49.5,340.15L51.36,346.49L53.41,367.73L55.71,368.22L57.6,375.66L59.4,373.41L61.85,373.73L63.79,366.78L65.59,348.49L68.06,344.51L70.03,315.92L71.73,306.12L74.16,247.02L76.07,289.22L77.84,252.98L80.32,190.26L82.16,224.39L84.14,202.78L86.44,194.36L88.4,198.34L90.28,188.64L94.47,205.42L96.35,206.43L98.76,173.4L100.65,204.86L102.56,253.43L105.02,260.29L108.71,242.86L111.25,238.97L113.04,261.56L114.92,250.31L117.33,251.97L119.27,263.88L121.06,240.72L123.52,249.89L127.28,260.37L129.6,237.19L131.71,178.95L133.39,230.52L135.87,261.97L137.69,238.46L139.73,216.88L142.14,277.26L143.84,282.74L145.87,276.92L148.19,272.92L150.03,277.5L152.06,256.54L153.99,258.02L156.27,286.98L158.21,270.59L160.15,246.72L162.53,272.67L166.12,276.88L168.62,281.29L170.51,266.14L172.35,294.74L174.71,272.92L176.58,270.29L178.47,297.06L181.06,267.4L182.95,285.24L184.76,285.71L188.94,271.11L190.84,255.08L193.33,232.67L195.18,253.07L197.1,238.25L199.41,226.4L201.3,220.06L203.22,234.25L205.61,225.19L207.44,277.38L209.4,260.59L211.79,285.65L213.64,278.81L215.49,299.87L218.08,298.22L219.79,299.11L221.82,284.09L224.02,293.94L226.07,295.86L227.97,290.71L230.32,277.18L232.2,285.55L234.13,293.32L236.49,289.02L238.3,246.87L240.3,295.81L242.65,294.01L244.51,262.57L246.34,256.31L248.75,269.82L252.7,260.33L255.05,248.59L256.87,243.05L258.76,260.39L263.1,186.74L264.87,240.81L266.78,253.21L269.12,216.83L271.14,225.46L272.98,212.96L275.29,212.73L277.27,194.84L279.14,229.12L281.61,207.66L283.49,206.15L285.31,232.28L287.78,208.16L289.61,234.32L291.44,229.64L293.86,228.4L295.86,208.12L297.75,201.39L300.03,225.74L301.96,220.22L303.77,177.63L306.28,139.04L308.13,188.47L310.11,171.5L312.3,232.25L314.19,221.87L316.34,217.67L318.67,230.22L320.53,215.97L322.41,234.26L324.8,197.4L326.61,225.39L328.55,184.91L330.98,151.98L332.72,204.78L334.78,150.71L337.04,154.88L339.01,161.66L340.78,191.06L343.15,168.59L345.06,190.24L347.03,227.66L349.45,257.88L351.23,260.78L355.48,213.79L357.38,215.1L359.41,222.32L361.24,236.16L363.56,233.12L365.45,216.63L367.41,159.22L369.87,217.21L371.79,171.69L373.69,210.6L375.96,218.2L377.89,235.83L382.21,187.75L383.98,116.95L385.86,111.45L388.34,108.37L390.16,117.54L392.03,156.87L394.56,195.61L396.4,257.8L398.23,212.33L400.57,204.45L402.59,219.12L404.41,218.02L406.74,200.72L408.65,230.56L410.63,222.72L413,249.62L414.98,223.55L416.88,216L419.25,201.46L421.14,237.06L422.98,211.67L425.4,192.23L427.3,219.36L429.2,199.49L431.6,247.01L433.46,239.62L435.35,221.99L437.74,241.74L439.66,219.28L441.44,242.62L443.81,271.57L445.69,261.35L447.59,250.9L450.02,189.05L453.76,227.6L456.13,212.97L458.05,218.79L459.97,202.4L461.98,156.96L464.17,179.49L466.16,176.68L467.97,256.11L470.42,269.89L472.29,249.43L474.19,190.88L476.52,206.81L478.58,191.7L480.39,167.73L482.79,234.46L484.63,193.02L486.48,194.17L489.04,151.34L490.77,204.23L492.81,172.47L495.12,196.74L496.99,283.26L499.01,280.87L501.36,240.38L503.13,248.45L505.03,186.76L507.46,238.58L509.3,220.93L513.54,237.85L515.5,273.19L517.38,159.84L519.81,222.06L521.77,258.76L523.66,259.87L526.06,241.24L527.78,242.95L529.66,245.82L532.15,226.28L534.03,245.08L535.97,250.21L538.43,226.83L540.14,227.58L542.2,262.54L544.57,267.87L546.3,267.81L548.36,270.13L550.64,230.38L552.47,233.69L554.38,226.89L556.95,206.73L558.63,254.25L560.72,267.42L562.94,283.82L564.94,277.81L566.72,279.48L568.65,204.73L571.15,203.83L573.08,279.74L574.9,285.36L577.24,264.26L579.12,237.51L580.91,231.52L583.34,232.38L585.2,243.12L587.16,241.85L589.49,243L593.4,285.27L595.67,225.38L597.58,230.93L599.54,255.21L601.85,205.3L603.92,219.35L605.61,247.66L608.13,270.79L609.99,272.99L611.89,263.52L614.16,269.04L616.08,267.42L618.05,248.33L620.46,273.32L622.35,263.27L624.31,287.87L626.57,264.96L628.52,290.45L630.4,324.96L632.88,278.22L636.62,256.85L639.03,257.38L640.81,274.43L642.83,237.15L645.18,284.42L647.04,277.86L648.95,279.97L651.24,310.53L653.22,299.8L655.17,263.47L657.33,263.26L659.4,242.1L661.16,279.54L663.52,295.54L665.62,299.48L667.36,294.51L669.41,282.71L671.7,301.36L673.65,289.21L675.43,271.44L677.78,308.98L679.69,315.6L683.95,286.9L685.91,302.78L687.75,308.53L690.15,299.78L692.18,300.04L693.87,312.41L696.4,295.04L698.23,289.45L700.06,293.93L702.58,304.66L704.5,307.26L706.25,269.92L708.8,260.77L710.59,285.47L712.63,307.67L714.76,289.54L716.69,308.47L718.77,213.4L721.01,217.76L722.84,243.81L724.8,256.75L727.13,283.13L729.14,285.49L731.1,303.8L733.39,322.87L735.28,318.66L737.1,316.06L739.44,301.61L741.4,303.71L743.23,281.68L745.79,295.14L747.61,296.64L751.95,321.38L753.82,305.04L755.74,296.8L758.11,303.16L760,312.68L761.82,326.61L764.31,327.13L766.2,305.39L769.81,337.32L772.22,336.4L774.12,318.26L776.11,328.65L778.45,307.08L780.39,309.34L782.22,317.67L784.67,305.67L786.52,296.85L788.37,317.03L790.91,308.38L792.6,313.08L794.48,312.92L797.01,305.36L798.94,312.89L800.72,308.51L803.21,324.78L804.99,312.13L807.06,259.31L809.42,315.42L811.12,297.33L813.08,305.89L815.45,325.46L817.31,294.35L819.22,254.52L821.63,269.54L823.49,245.48L825.57,251.59L827.74,308.23L829.77,307.25L831.72,314.56L833.96,316.24L835.95,330.73L837.76,332.21L842.14,310.22L844.02,316.79L846.49,328.71L848.19,323.78L850.04,317.99L852.45,329.37L854.33,331.6L856.32,312.56L858.73,324.85L860.6,318.09L864.82,335.93L866.68,333.35L868.59,325.03L871.08,332.96L873.06,323.96L874.94,323.6L876.69,341.11L879.16,341.78L881.06,335.77L882.99,340.4L885.22,350.45L887.13,347.62L891.38,358.9L893.31,349.2L895.14,350.29L897.66,356.05L901.37,336.72L903.67,348.81L905.57,345.2L907.57,345.17L910.05,339.01L911.72,340.94L913.84,339.34L916.23,328.97L918.06,322.5L919.88,331.1L922.35,344.06L924.27,328.78L926.23,347.81L928.54,345.17L930.5,351.21L932.23,352.35L934.72,344.64L936.66,350.73L938.32,350.64L940.78,329.02L942.68,340.4L944.66,339.91L946.88,342.4L948.94,352.55L950.89,343.77L953.11,340.12L954.99,332.29L956.95,335.15L959.35,338.52L961.1,338.63L963.02,338.16L965.61,329.52L967.41,349.97L969.35,350.15L971.67,353.71L973.62,345.64L975.59,333.62L977.49,331.29L979.72,354.26L981.7,344.61L983.63,322.22L985.77,343.8L987.67,335.55L989.55,336.94L992.07,319.11L993.83,328.07L995.96,334.46L998.24,351.26L1000.01,347.85L1002.12,324.03L1004.51,313.89L1006.41,269.63L1010.58,350.54L1012.49,376.19L1014.48,367.07L1016.77,373.51L1018.69,381.75L1020.52,383.66L1024.68,384.41" style="vector-effect: none; fill: none; stroke: rgb(128, 133, 233); stroke-opacity: 1; stroke-width: 2px; opacity: 1;"/></g><g class="points"/><g class="text"/></g><g class="trace scatter trace6acfad" style="stroke-miterlimit: 2; opacity: 1;"><g class="fills"/><g class="errorbars"/><g class="lines"><path class="js-line" d="M0,384.65L38.94,384.37L41.36,383.71L43.19,383.03L45.18,356.13L47.53,356.53L49.42,362.92L51.39,350.03L53.18,348.06L55.69,360.37L57.47,364.72L59.35,359.06L61.72,343.22L63.6,350.48L65.51,352.76L67.9,348.2L69.82,350.63L71.74,322.95L74.11,319.64L76.02,321.52L77.87,318.36L80.24,343.91L82.2,268.26L84.03,346.78L86.46,314.71L88.28,305.88L90.32,303.61L92.64,285.56L94.5,283.95L96.5,291.41L98.72,294.26L102.54,274.12L104.94,272.9L106.86,228.67L108.79,227.09L111.12,275.23L113.02,283.28L114.95,288.97L117.27,292.16L119.17,282.42L121.06,236.27L123.41,278.59L125.37,243.71L127.2,262.96L129.68,248.42L131.5,263.23L133.38,232.86L135.76,268.62L137.82,112.24L139.56,161.89L141.98,156.53L143.86,171.87L145.7,230.32L148.22,274.31L150.09,261.53L153.83,151.18L156.33,192.98L158.09,170.13L159.94,165.55L162.34,181.48L164.38,266.77L166.11,233.18L168.49,211.92L172.35,269.43L174.86,269.96L176.73,270.19L178.45,279.04L180.86,269.29L182.89,281.34L184.65,270.23L187.04,285.84L189.05,280.62L190.87,287.67L193.29,287.41L195.25,297.64L196.98,275.75L199.33,286.54L201.26,274.95L203.29,301.12L205.63,296.47L207.49,300.03L209.33,285.77L211.83,286.91L213.65,230.55L215.52,276.92L217.88,297.06L219.78,291.36L224.06,252.95L226.02,254.8L227.96,298.41L230.24,304.57L232.25,297.81L234.06,285.02L236.48,262.87L238.3,259.1L242.55,281.82L244.5,305.34L246.49,296.6L248.73,274.11L250.78,294.53L252.64,263.4L254.92,293.45L256.86,297.31L260.56,288.49L263.06,241.53L265.05,247.35L266.86,215.94L269.25,220.41L271.16,189.17L273.03,196.6L275.42,196.2L277.22,195.04L279.11,206.69L281.52,212.11L283.52,201.57L285.3,263.18L287.77,271.27L289.71,261.98L291.44,279.24L293.91,274.49L295.82,242.31L297.61,247.6L300.14,222.45L301.91,199.44L303.75,219.16L306.36,215.32L308.2,192.78L310.07,248.75L312.37,253.31L314.21,206.85L316.15,190.9L318.64,214.34L320.38,210.5L322.26,190.75L324.72,180.61L326.67,163.56L328.57,212.19L330.82,218.52L332.7,216.66L334.63,219.9L337.13,183.09L339.03,200.98L340.87,230.07L343.16,210.61L345.05,214.43L347.01,210.17L349.38,149.18L351.26,214.59L353.24,214.45L355.5,214.66L357.4,218.16L359.45,211.78L361.23,216.09L363.6,187.5L365.52,203.5L367.42,239.9L369.75,224.72L371.65,249.98L373.65,236.16L376.07,204.68L377.87,226.8L379.9,211.77L382.13,224.83L384.05,211.39L385.85,243.06L388.4,212.75L390.14,209.21L392.05,241.41L394.59,223.21L396.35,241.32L398.34,225.75L402.65,192.19L404.38,207.25L406.87,252.55L408.74,258.17L410.68,255.89L413.07,239.31L414.87,228.07L416.72,262.72L421.05,223.28L422.99,229.67L427.17,176.54L429.12,236.23L431.49,241.09L433.38,222.01L435.32,218.89L437.6,237.44L439.55,245.52L441.43,233.43L443.98,242.43L445.76,260.04L447.57,263.47L449.99,246.78L451.97,246.11L453.77,246.59L456.23,249.95L458.1,265.85L460.02,255.56L461.9,232.6L464.32,228.38L466.14,182.46L468.17,208.15L470.33,220.32L472.32,227.79L474.28,260.78L476.56,253.7L478.53,250.94L480.34,266.81L482.67,265.16L484.61,260.88L486.47,266.13L488.97,242.46L490.76,261.41L492.71,271.02L495.11,265.17L497.09,233.58L499,173.44L503.11,247.62L505.2,253.63L507.39,266.54L509.3,254.64L511.24,205.83L513.52,229.89L515.49,266.9L517.37,274.83L519.83,267.48L521.63,259.03L523.56,277.06L525.86,249.93L528,248.3L529.77,268.1L532.21,233.93L533.93,231.03L535.83,257.64L538.22,244.44L540.26,237.32L542.01,243.01L544.53,253.28L546.52,273.86L548.27,263.66L550.65,269.26L552.63,277.68L554.39,268.42L556.72,260.11L558.63,282.49L560.64,299.28L562.92,271.19L566.88,252.6L568.62,250.69L571.08,244.75L572.89,245.77L574.95,247.23L577.31,268.17L579.17,285.43L581.05,271.43L583.39,272.57L585.2,295.75L589.47,266.4L591.49,280.22L593.31,250.97L595.67,277.16L597.53,262.46L599.48,260.49L601.97,292.33L603.77,268.04L605.67,227.11L608.01,259.67L610.09,237.53L612.02,237.52L614.31,267.5L616.19,252.43L618,266.33L620.38,270.71L622.27,277.49L624.16,272.54L628.58,246.17L630.34,275.28L632.73,279.49L634.56,274.95L636.64,267.14L638.92,238.11L640.83,227.22L642.72,240.56L645.11,264.71L647.14,275.3L648.89,275.33L651.33,270.66L655.1,216.23L657.52,230.21L659.42,226.82L661.22,251.18L663.54,250.16L665.54,250.81L667.41,259.69L669.24,260.95L671.76,281.55L673.6,231.05L675.46,280.79L677.88,292.13L679.74,330.1L681.67,314.19L685.94,286.81L687.79,292.36L690.24,274.24L692.19,291.19L693.94,264.13L696.45,293.29L698.27,308.71L700.17,303.72L702.62,266.03L704.42,298.14L706.43,280.3L708.8,299.87L710.64,256.28L712.46,265.82L714.95,294.52L716.69,299.65L718.71,265.04L720.99,275.58L723.01,304.54L724.75,293.04L727.26,276.89L729.15,304.82L731.07,309.19L733.31,299.75L735.36,301.89L737.1,307.2L741.47,291.27L743.24,273.02L745.74,182.69L747.69,244.24L749.6,259.38L751.88,291.98L753.73,303.48L755.71,303.4L757.96,286.86L759.88,304.15L761.84,302.75L764.33,324.52L766.01,325.6L768.02,303.38L769.94,319.45L772.25,302.3L774.27,305.7L776.21,315.52L778.5,315.71L780.25,310.18L782.27,311.43L784.71,310.61L786.57,302.45L788.36,286.63L790.8,303L792.71,268.97L794.49,235.04L796.9,266.55L800.74,280.65L803.06,319.38L805.1,284.33L806.9,298.11L809.37,321.23L811.15,321.71L813.06,317.3L815.48,325.25L817.37,325.94L819.37,300.43L821.63,296.3L823.44,295.97L825.51,260.25L827.88,266.61L829.68,288.37L831.53,335.54L834,299.16L835.87,317.53L837.82,318.6L840.23,301.94L842.07,309.58L843.93,309.34L848.31,274.79L850.09,311.29L852.6,279.31L854.34,310.87L856.31,322.59L858.65,300.88L860.54,289.56L862.41,321.76L864.91,305.36L866.8,286.1L868.53,306.55L871.05,322.64L872.82,309.3L874.71,326.05L876.79,315.24L879.06,284.21L880.98,293.47L882.99,322.08L885.34,319.47L887.2,285.57L889.04,294.16L891.47,313.91L893.42,316.11L895.32,310.23L899.46,337.6L901.37,319.12L903.76,304L905.67,320.25L907.61,311.33L909.97,341.54L911.88,311.85L913.79,318.84L916.13,306.87L917.89,318.87L919.81,317.37L922.22,319.99L924.09,320.21L926.17,329.32L928.42,306.32L930.36,318.91L932.32,326.07L934.5,321.72L936.42,322.09L938.48,336.8L940.87,325.74L942.69,342.34L947.04,338.84L948.74,347.17L950.86,344.62L953.09,349.31L957,349.53L959.26,362.03L961.13,339.34L963.16,347.6L965.54,344.45L967.29,352.88L969.36,352.21L971.72,361.18L973.53,362.51L975.44,353.85L977.37,340.81L979.64,349.81L981.71,317.32L983.6,318.54L985.88,314.48L987.72,319.84L989.68,335.15L992.04,347.25L994.02,351.73L995.8,351.18L998.16,347.02L1000.18,327.48L1002.08,295.63L1004.3,287.67L1006.17,286.47L1008.23,311.64L1010.58,359.95L1012.5,381.99L1014.44,374.51L1016.72,375.03L1018.6,381.39L1020.44,383.2L1024.67,384.56" style="vector-effect: none; fill: none; stroke: rgb(241, 92, 128); stroke-opacity: 1; stroke-width: 2px; opacity: 1;"/></g><g class="points"/><g class="text"/></g><g class="trace scatter tracefaf79e" style="stroke-miterlimit: 2; opacity: 1;"><g class="fills"/><g class="errorbars"/><g class="lines"><path class="js-line" d="M0,384.56L49.37,384.11L51.29,383.63L53.22,383.6L55.55,382.54L57.44,382.63L59.32,383.79L65.53,383.62L67.94,382.34L71.7,383.85L74.07,383.99L77.84,383.31L80.28,382.37L82.14,382.76L84.01,382.22L86.39,382.32L88.31,380.17L90.23,380.32L92.74,374.97L94.5,380.26L96.43,378.11L98.82,359.09L100.72,353.47L102.56,360.34L105.04,346.1L108.89,343.25L111.14,337.36L112.96,316.95L115.07,340.63L117.29,324.78L119.2,319.3L121.16,337.96L123.53,289.55L125.43,326.23L127.26,287.63L129.67,313.43L131.66,306.17L133.37,296.15L135.86,336.71L139.57,303.32L142.09,337.89L145.92,303.67L148.22,208.25L150,287.35L151.91,297.51L153.92,282.85L156.2,282.23L158.23,296.16L160.12,297.11L162.32,242.06L164.24,302.6L168.54,298.54L170.52,293.51L174.75,263.51L176.6,225.34L178.57,269.13L180.87,294.58L182.87,235.18L184.7,287.65L187,279.63L189.01,249.41L190.97,249.88L193.17,259.8L195.08,256.02L197.03,243.26L199.41,250.33L201.35,252.38L203.13,236.44L205.62,263.37L207.54,262.67L209.42,208.35L211.78,256.57L213.58,219.52L215.6,241.25L217.97,247.4L219.78,251.71L221.74,252.44L224.05,248.84L225.94,187.62L227.85,203.37L230.27,189.36L232.11,193.06L234.01,238.63L236.51,231L238.3,235.03L240.31,258.26L242.55,203.41L244.45,193.34L246.34,206.91L248.71,251.97L250.71,153.35L252.58,138.38L254.89,158.24L256.82,169.98L258.66,193.3L260.56,203.5L262.98,250.2L265.03,255.71L266.81,211.38L269.27,247.6L271.12,240.72L273.07,239.46L275.28,264.4L277.26,253.68L279.1,173.65L281.69,252.75L283.35,259.46L285.32,270.02L287.79,250.98L289.55,248.6L291.45,270.56L293.94,246.77L295.73,256.72L297.7,262.22L300.12,214.05L302,241.67L303.96,239.19L308.19,252.03L309.95,226.98L312.4,178.94L314.37,170.63L316.25,189.97L318.59,141.79L322.29,98.28L324.79,86.81L326.62,150.86L328.46,103.95L330.83,68.04L332.82,74.59L337.07,188.41L338.9,204.39L340.91,191.23L343.2,190.43L345.04,201.5L346.99,194.16L349.45,185.22L351.31,200.79L353.27,183.56L355.56,194.48L357.54,174.04L359.29,202.12L361.23,191.88L363.59,210.74L365.58,180.85L367.4,174.13L369.81,155.34L371.74,167.77L373.55,158.59L375.92,214.08L377.92,166.89L379.83,189.57L382.11,191.51L384.01,191.34L385.85,177.74L388.28,192.48L390.24,182.79L392.09,191.87L394.51,163.43L396.4,160.33L398.26,187.07L400.7,194.6L402.49,216.46L404.48,162.19L406.86,168.79L408.64,213.12L412.97,187.3L414.86,205.03L416.83,202.31L419.14,162.15L421.03,162.14L422.94,210.03L425.42,194.68L427.15,210.48L429.13,188.15L431.54,211.17L433.41,172.54L435.24,168.64L437.7,203.18L439.49,186.38L441.51,112.66L443.95,195.23L445.66,183.37L447.58,198.99L450.03,136.83L451.86,187.33L456.13,221.78L458.11,199.93L460.06,169.19L461.9,194.18L464.3,198.81L466.18,188.91L468.07,204.83L470.34,194.65L474.22,234.28L476.56,194.95L478.46,169.49L480.44,182.92L482.76,222.54L484.63,235.11L486.62,177.64L488.91,210.49L492.75,231.74L495.13,212.01L496.97,218.95L498.83,211.78L501.36,223.79L503.11,209.86L505.17,203.72L507.37,220.18L509.4,161.71L511.32,208.95L513.62,242.47L515.47,252.27L519.82,218.18L521.66,211.02L523.64,238.67L525.96,256.91L527.76,265.85L529.66,242.93L532.11,274.57L533.98,261.27L535.89,258.94L538.25,274.12L540.13,229.39L542.12,239.95L544.49,230.37L546.33,248.53L548.23,247.1L550.75,270.11L552.6,252.55L554.35,180.1L556.76,239.72L558.74,268.43L560.67,241.32L563.01,256.19L564.85,253.73L566.79,276.78L568.74,264.04L571,257.88L572.93,257.06L574.82,260.97L577.15,243.52L579.14,280L580.93,268L583.32,290.11L585.25,266.75L587.17,233.73L589.47,264.45L591.38,276.64L595.81,195.65L597.64,256.34L599.5,248.39L601.92,245.07L603.77,243.16L605.74,276.3L607.97,253.4L609.92,261.88L611.84,214.65L614.26,278.61L616.21,227.23L617.99,251.58L620.44,220.47L622.28,242.57L624.19,230.22L626.53,256.75L628.41,254.95L630.45,250.7L632.82,245.11L634.64,221.06L636.55,249.64L638.9,226.75L642.72,259.13L645.21,255.33L647.03,186.72L648.86,154.22L651.32,203.07L653.25,156.36L655.07,176.84L657.37,222.47L659.38,224.17L661.16,240.82L663.54,208.42L665.56,195.93L667.3,224.72L669.38,221.97L671.61,252.91L673.51,253.43L677.94,271.47L679.7,299.8L681.53,297.2L684.04,302.89L685.96,259.31L687.9,277.31L690.12,285.14L692.03,282.37L693.91,270.83L696.45,300.64L698.23,253.69L700.05,234.75L706.38,294.37L708.76,282.78L710.63,273.21L712.54,283.91L714.75,275.09L716.76,279.95L718.64,280.77L721.03,288.79L722.84,290.95L724.86,297.63L727.15,292.78L729.15,300.18L730.99,293.76L733.42,256.32L735.18,271.13L737.14,271.35L739.54,265.5L741.34,280.68L743.36,270.14L745.7,247.34L747.54,296.76L749.51,320.64L751.91,295.09L753.75,297.21L755.65,294.65L758.08,299.63L759.98,304.9L761.75,305.87L764.14,306.09L766.11,315.32L767.91,298.8L769.86,305.71L772.25,302.4L774.15,271.13L776.12,274.52L778.59,291.23L780.31,287.66L782.34,274.58L786.58,269.47L788.37,248.58L790.8,270.61L792.69,261.01L794.5,192.04L797.08,384.63L811.11,384.61L813.08,263.85L815.47,320.7L817.39,315.4L819.23,310.68L821.62,317.68L823.56,313.05L825.34,302.78L827.88,317.75L829.79,300.14L831.7,346.4L834.02,296.44L835.85,318.27L837.75,322.32L840.09,324.91L842.02,275.97L843.9,292.54L846.4,380.49L848.24,384.41L850.02,384.65L854.61,384.26L856.31,383.08L858.69,381.02L860.73,381.84L866.71,378.02L868.8,376.77L870.97,375.54L873.03,378.42L874.72,374.04L876.89,371.44L879.1,376.89L880.95,374.61L889.04,372.15L891.37,373.44L893.23,373.59L895.28,377.56L899.42,375.25L901.28,375.57L903.86,374.81L905.81,367.96L907.72,368.65L909.88,368.33L911.76,357.8L913.73,366.77L916.16,369.5L917.91,369.21L920.04,370.52L922.34,364.8L924.19,372.96L926.08,366.65L928.56,366.48L930.29,359.47L934.61,370.93L936.59,362.48L940.68,354.62L942.75,357.86L944.7,352.85L946.89,352.83L950.7,357.9L953.08,352.48L955.06,333.42L956.89,345.55L959.2,353.14L961.11,345.38L962.99,340.35L965.36,347L967.28,352.99L969.34,356.05L971.66,352.59L973.54,342.22L975.43,357.57L977.39,344.9L979.65,352.38L981.71,354.85L983.65,355.98L985.81,358.52L987.78,360.75L989.63,356.34L993.92,351.2L995.89,343.84L998.35,357.26L1000.08,351.63L1002.05,342.79L1004.53,346.86L1006.29,333.31L1008.25,336.82L1012.35,324.91L1014.46,321.74L1016.65,308.36L1018.61,256.02L1020.56,275.98L1022.88,264.76L1024.84,245.66" style="vector-effect: none; fill: none; stroke: rgb(228, 211, 84); stroke-opacity: 1; stroke-width: 2px; opacity: 1;"/></g><g class="points"/><g class="text"/></g><g class="trace scatter tracedcd301" style="stroke-miterlimit: 2; opacity: 1;"><g class="fills"/><g class="errorbars"/><g class="lines"><path class="js-line" d="M0,384.87L37.03,384.67L38.92,384.06L41.4,382.67L43.29,374.87L45.25,375.69L47.57,261.83L49.38,282.47L51.4,346.27L53.21,335.89L55.66,336.14L57.47,305.43L59.36,320.33L61.73,345.35L63.65,334.43L67.9,232.19L69.82,274.4L71.81,154.08L74.09,235.47L76,226.26L78,192.11L80.21,222.88L82.18,220.75L84.04,214.52L86.39,227.29L88.28,288.1L90.19,261.06L94.56,329.08L96.45,348.01L98.81,330.1L100.61,338.18L104.9,309.67L106.8,306.2L108.8,285.44L111.08,312.95L112.97,176.08L114.98,231.47L117.42,261.4L119.17,271.32L121.19,295.97L123.62,267.4L125.39,266.94L127.33,280.66L129.68,281.27L131.56,292.25L133.37,272.37L135.76,258.34L139.72,295.81L142.13,275.05L143.9,241.29L145.8,251.28L148.08,267.69L150,252.66L151.89,248.1L153.82,290.57L156.19,245.94L158.06,255.76L159.98,234.25L162.34,269.26L164.29,283.72L166.24,291.27L168.64,281.62L170.4,282.16L172.42,304.81L174.79,301.11L176.71,244.97L178.52,246.92L180.82,269.66L182.81,273.34L184.84,290.87L187.05,302.32L189.03,262.72L190.95,299.89L193.34,281.99L195.15,284.21L197.19,282.92L199.39,309.54L201.34,294.77L203.15,292.69L205.58,275.83L207.55,288.03L209.39,295.7L211.7,285.85L213.69,300.77L215.56,292.41L217.99,292.29L219.8,269.97L221.77,278.63L224.13,261.72L227.95,242.61L230.37,309.63L232.28,281.87L234.13,275.97L236.42,258.96L238.3,269.81L240.2,295.62L242.67,266.3L244.57,280.07L246.35,299.8L248.88,299.17L250.72,284.31L252.61,276.6L254.93,276.22L256.88,277.86L258.84,290.17L260.67,286.04L263.11,290.81L264.9,278.28L266.73,299.4L269.15,286.28L271.14,293.71L272.98,297.18L275.36,275.33L277.31,279.88L279.32,279.27L281.5,275.5L283.34,233.84L287.71,305.01L289.51,287.9L291.54,255.67L293.94,268.87L295.79,270.78L297.67,241.15L301.87,269.61L303.83,255.16L306.23,260.67L308.18,282.77L310.08,294.16L312.46,287.53L314.29,274.86L316.09,285.47L318.54,278.66L320.47,293.97L322.42,286.95L324.77,284.73L326.54,275.1L328.43,291.46L330.8,283.86L332.79,270.89L334.77,257.97L337.08,264.42L339,249.81L340.8,258.65L343.18,281.75L345.17,260.79L347.01,284.25L349.37,223.33L351.28,222.77L353.13,226.2L355.57,254.65L357.52,249.7L359.55,252.52L361.21,271.31L363.6,239.93L365.61,240.49L367.47,253.18L369.84,176.26L371.62,229.61L373.55,255.76L375.93,224.28L377.81,234.46L379.75,227.93L382.08,287.79L383.99,274.17L385.91,221.96L388.42,226.59L390.35,251.28L392.08,254.04L394.45,273.38L396.31,279.94L398.33,279.47L400.7,295.86L402.66,287.68L404.41,269.2L406.76,284.79L408.76,286.63L410.54,273.84L414.82,250.64L416.83,284.74L419.22,299.15L421.08,284.94L422.91,289.02L425.29,298.9L427.33,286.36L429.16,288.56L431.51,289.63L433.37,285.23L435.24,287.35L437.71,257.18L439.62,253.59L441.46,272.82L443.86,284.47L445.73,285.76L447.59,280.42L449.95,288.53L453.79,264.67L456.16,277.92L458.19,279.83L460.09,293.03L461.99,299.34L464.29,292.04L466.17,288.81L468.03,295.4L470.4,260.29L472.39,284.27L474.16,293.06L476.72,286.84L478.59,260.23L480.37,290.58L482.8,275.72L484.7,245.39L488.89,308.32L490.86,310.53L492.66,312.9L495.16,295.01L497.01,284.28L498.99,291.17L501.35,276L503.09,307.1L507.36,282.55L509.36,289.9L511.15,294.72L513.67,279.94L515.53,271.18L517.45,218.9L519.82,210.38L521.6,241.45L523.56,249.78L526.03,291.84L527.8,297.61L529.88,315.48L532.21,268.69L533.98,271.27L535.85,276.59L538.28,273.79L540.13,282.9L542.12,288.76L544.43,289.83L546.48,297.7L548.19,306.71L550.63,293.5L552.56,308.09L554.35,304.23L556.72,297.34L558.76,312.33L560.56,307.86L563.01,298.11L564.88,297.67L566.76,310.99L568.6,294.75L571.01,309.34L572.89,292.05L574.75,288.75L577.19,280.01L579.14,266.28L581.05,260.3L583.34,255.95L585.25,290.97L587.16,289.22L589.47,296.18L591.57,282.07L593.4,261.21L595.63,264.04L597.73,258.23L599.58,293.61L603.78,311.76L605.61,286.79L608.02,259.98L610.04,259.82L611.9,257.89L614.15,249.46L616.08,245.76L618.01,265.37L620.46,287.34L622.39,286.03L624.11,303.67L626.57,291.75L628.39,290.36L630.36,291.24L632.86,287.05L634.62,312.4L636.52,277.7L638.82,308.79L640.72,304.9L642.72,297.2L644.99,311.17L646.94,300.86L648.94,315.57L651.15,296.65L653.21,294.18L655.02,310.38L657.36,290.91L659.39,267.18L661.16,301L663.58,273.88L665.48,289.3L667.47,315.19L669.39,283.76L671.64,301.16L673.47,309.24L675.47,292.05L677.84,319.72L679.69,321.24L681.72,302.29L684.15,311.91L685.96,311.22L687.74,307.85L690.24,325.18L692,304.82L694.12,289.76L696.37,309.43L698.19,308.77L700.16,310.95L702.6,298.64L704.44,315.89L706.3,310.23L708.73,296.61L710.55,271.84L712.59,211.4L714.88,287.75L716.7,288.24L718.75,301.89L721.15,293.16L723.04,320.88L724.89,293.9L727.26,294.23L729.14,288.22L733.41,327.35L735.28,304.07L737.14,319.75L739.5,319.17L741.37,314.79L743.39,315.4L745.84,310.68L747.63,298.14L749.51,321.26L751.9,295.65L753.78,299.6L755.74,301.19L758.17,324.56L760.03,322.54L761.82,298.11L764.19,308.22L766.02,302.92L768.02,288.82L769.89,297.67L772.22,301.43L776.11,336.15L778.49,342.76L780.31,314.91L782.26,324.53L784.7,309.83L786.54,324.59L788.35,318.59L790.78,324.59L792.6,328.33L794.67,329.91L796.94,330.15L798.88,327.72L800.73,312.55L803.19,306.95L805.17,327.21L806.85,331.76L809.24,332.16L811.28,299.99L813.12,304.74L815.53,313.26L817.49,303.76L819.17,301.61L821.6,299.52L823.5,280.32L825.4,273.34L827.79,294.76L831.66,323.4L834.09,330.24L835.93,332.04L837.68,318.31L840.26,311.66L842.05,313.18L844.01,309.68L846.26,309.09L848.38,322.31L850.01,325.97L852.65,338.22L854.5,334.66L856.3,326.54L858.77,307.71L862.6,261.63L864.95,287.43L866.86,289.82L868.71,309.88L870.9,308.79L872.83,339.09L874.83,351.69L876.75,346.91L880.91,336.04L882.89,322.54L885.25,325.01L887.06,300.58L891.45,311.75L893.24,323.85L895.33,333.18L897.64,311.78L903.77,344.62L905.68,342.87L907.53,347.33L910.05,345.35L911.85,354.27L913.62,342.65L916.14,355.07L917.9,332.43L919.91,330.76L922.24,338.93L924.3,337.19L926,344.61L928.53,336.9L930.27,324.53L932.17,334.29L934.49,341.16L936.52,324.05L938.33,335.59L940.67,322.29L942.66,327.89L944.59,336.79L946.92,352.73L948.82,336.46L950.68,352.69L953.16,352.9L955.04,335.57L956.95,342.97L959.3,340.58L963,342.7L965.36,344.11L967.4,354.47L969.25,353.85L971.71,346.93L973.62,351.11L975.5,341.57L977.23,356.1L979.77,360.11L981.48,358.36L983.4,356.99L985.76,349.75L989.68,358.91L992.08,355.32L994.02,352.97L995.8,365.73L998.15,364.72L1000.15,353.94L1002.06,309.44L1004.46,277.66L1006.16,274.04L1008.2,342.88L1010.52,364.6L1012.44,375.06L1014.49,376.77L1016.7,380.74L1018.55,380.26L1020.43,381.46L1024.73,384.12" style="vector-effect: none; fill: none; stroke: rgb(43, 144, 143); stroke-opacity: 1; stroke-width: 2px; opacity: 1;"/></g><g class="points"/><g class="text"/></g><g class="trace scatter trace37652c" style="stroke-miterlimit: 2; opacity: 1;"><g class="fills"/><g class="errorbars"/><g class="lines"><path class="js-line" d="M0,384.81L26.58,384.72L28.97,384.65L38.96,384.02L41.38,382.61L43.2,370.49L45.1,290.17L47.56,324.74L49.4,332.25L51.39,351.56L53.34,248.2L55.56,291.15L57.45,344.13L59.34,315.22L61.72,299.01L63.64,245.84L65.6,276.5L67.88,293.11L69.88,164.73L71.88,257.26L74.22,254.21L76.09,258.91L78,258.59L80.22,115.45L82.23,140.39L84.03,213.15L86.48,255.78L88.28,194.67L90.32,299.23L94.5,328.32L96.49,248.21L98.8,264.41L100.73,297.2L102.64,327.34L104.94,309.89L106.91,313.92L108.73,276.96L111.21,218.46L113,243.6L114.86,244.58L117.31,241.64L119.13,238.22L121.05,256.76L123.42,259.32L125.38,276.15L127.21,280.25L129.75,261.43L131.63,287.2L133.38,292.6L135.82,282.23L137.71,297.3L139.8,270.9L141.94,281.47L145.74,236.14L148.11,220.01L150.06,221.99L151.9,238.07L153.88,235.26L156.14,227.75L158.29,267L160.09,253.36L162.37,259.46L164.21,255L166.19,256.39L168.69,270.13L170.51,258.92L172.35,276.24L174.88,252.66L176.73,204.14L178.55,196.02L180.93,218.32L182.72,227.61L184.66,211.41L187.03,203.65L188.97,203.21L190.83,199.19L193.18,187.9L195.08,187.5L197.15,261.97L199.45,235.13L201.26,235.77L203.16,263.26L205.65,280.39L207.48,277.94L209.47,284.3L211.68,284.54L213.59,304.87L215.48,305.71L218.01,266.23L221.71,291.39L224.17,278.36L226,261.55L227.91,271.65L230.33,256.88L232.23,276.8L234.03,269.72L236.41,278.02L238.4,260.59L240.26,275.29L242.76,261.53L244.47,305.18L248.75,259.55L250.72,285.39L252.72,295.1L254.97,271.67L256.83,264.17L258.68,277.81L260.62,261.58L262.94,251.71L265.01,222.49L266.86,238.28L269.25,289.98L271.02,279.27L273.1,266.63L275.3,269.72L277.27,279.26L279.19,261.78L281.51,241.83L283.34,246.99L285.31,260.98L287.78,248.49L289.64,251.46L291.43,257.57L293.82,289.41L295.75,271.72L297.69,280.48L300.16,285.3L301.92,299.59L303.75,298.65L306.26,293.35L308.13,293.5L310.05,272L312.32,263.7L314.31,263.07L316.1,240.23L318.65,264.19L320.46,288.33L324.7,253.83L326.56,254.73L328.58,251.02L330.96,272.35L332.84,293.74L334.71,267.51L336.99,230.45L338.95,236.83L340.87,225.04L343.14,252.85L345.18,253.32L347.09,247.96L351.36,250.14L353.31,253.21L355.65,277.3L357.4,248.71L359.32,257.11L361.25,288.56L363.61,181.51L365.51,174.95L367.45,186.43L369.81,232.82L371.72,268.68L373.55,287.88L375.99,273.58L377.86,232.88L382.13,278.45L384,274.38L386.03,228.45L388.4,278.01L390.12,265.54L392.09,237.32L394.46,161.5L396.37,212.27L398.32,218.48L400.67,233.54L402.63,229.4L404.55,219.67L406.77,178.2L408.65,227.48L410.68,252.32L412.99,256.21L414.86,280.82L416.76,259.84L419.23,266.72L421.02,257.14L422.9,273.43L425.42,309.02L429.12,277.78L431.55,259.8L433.37,246.85L435.27,246.7L437.59,262.06L439.71,265.09L441.51,266.21L443.93,289.69L447.63,256.73L449.93,248.93L452.02,273.23L453.84,268.12L456.17,251.67L458.07,283.65L459.93,265.09L461.87,283.81L464.24,227.65L466.23,260.74L468.07,280.18L470.41,288.19L472.3,304.56L474.31,279.22L476.62,286.1L478.53,286.06L480.35,313.1L482.7,289.1L484.79,280.26L486.52,296.19L488.98,275.49L490.88,286.59L492.72,238.8L495.23,292.36L497,294.22L498.96,287.68L501.37,284.74L503.08,290.43L505.02,279.78L507.46,283.99L509.34,276.26L511.19,306.12L517.36,225.04L519.71,223.04L521.7,278.73L523.6,285.08L527.77,268.28L529.74,215.18L532.1,201.24L533.94,208.23L535.83,215.65L538.2,215.89L540.1,220.59L542.02,212.07L546.35,246.22L548.45,240.07L550.6,259.26L552.48,262.07L554.56,271.87L556.9,271.44L558.61,274.17L560.63,252.2L562.94,296.14L564.91,295.28L566.82,283.74L568.69,287.01L571.16,227.75L572.92,256.64L574.84,278.52L577.12,292.96L579.23,300.55L581.07,292.91L583.36,271.44L585.2,285.1L587.08,282.31L589.51,270.9L591.51,261.02L593.38,290.89L595.7,255.34L597.63,275.52L599.44,275.78L601.9,281.23L603.84,294.66L605.69,293.55L608.02,303.77L610.03,300.25L611.96,293.84L614.25,248.52L616.25,279.07L618.15,279.73L620.44,264.64L622.35,295.04L624.18,276.1L626.68,270.75L628.55,289.92L630.34,285.68L632.66,286.02L634.7,283.62L636.63,268.37L638.85,267.2L640.79,310.98L642.65,282.76L645.04,309.94L646.99,199.17L651.33,295.99L653.17,312.72L655.13,302.57L657.48,280.09L659.4,290.48L661.32,305.42L663.62,277.42L665.5,276.16L667.32,277.01L669.31,281.43L671.6,284.6L673.68,294.72L675.37,279.66L677.79,274.45L679.66,227.79L681.57,255.88L684.11,251.53L685.91,285.97L687.81,265.26L690.26,274.77L692.08,229.62L694.12,231.93L696.36,271.25L698.41,287.18L700.2,287.02L702.51,307.06L704.49,310.72L706.26,309.3L710.62,266.86L712.57,267.71L716.7,287.11L718.67,279.49L721.05,306.97L722.84,288.11L724.76,255.64L727.11,235.34L729.09,231.84L730.92,212.7L733.33,225.93L735.23,189.38L737.2,188.83L739.59,234.68L741.57,219.24L743.23,262.57L745.73,277.52L747.73,267.56L749.61,288.07L751.83,287.09L753.69,304.07L755.61,296.82L758.03,315.28L760.04,298.14L761.84,239.67L764.26,256.55L766.17,282.33L767.92,269.1L769.86,281.77L772.35,288.98L774.26,278.39L776.14,300.59L780.26,308.08L782.28,307.83L784.64,294.29L786.47,316.26L788.37,314.53L790.85,323.33L792.67,324.83L794.56,335.06L797.03,322.35L798.95,306.48L800.81,318.94L803.17,325.35L804.94,320.6L806.93,325.98L809.29,310.08L811.21,315.75L813.23,299.04L815.41,297.85L817.31,301.1L819.41,300.92L821.67,322.48L823.54,326.9L827.83,293.14L829.61,291.58L831.72,308.92L834.07,313.13L835.78,316.31L837.82,335.63L841.96,323.6L843.88,315.29L846.38,320.8L848.14,322.82L850.18,322.8L852.4,312.28L854.51,319.7L856.3,307.4L860.56,326.94L862.48,326.65L864.87,329.6L866.88,350.16L868.57,347.66L871.05,342.09L872.8,335.03L874.76,315.36L876.62,314.83L878.97,321.56L880.95,334.55L883.02,332.44L885.2,335.05L887.26,354.73L889.19,337.3L891.36,342.82L895.3,344.42L897.72,323.04L899.38,337.3L901.42,337.93L903.85,317.98L905.77,316.23L907.64,319.03L909.88,310.44L911.86,307.94L913.71,338.72L916.11,340.29L917.96,326.09L919.97,320.43L922.3,331.78L924.1,336.49L926.21,326.82L930.31,336.67L932.26,351.75L936.4,326.36L938.45,314.02L940.78,321.75L942.73,318.31L944.64,328.81L947,331.62L948.85,329.37L950.7,336.91L953.11,347.34L954.96,338.6L956.82,308.03L959.29,307.48L961.15,305.73L963.1,301.73L967.36,336.98L969.36,322.09L971.55,333.03L973.56,336.52L975.34,345.41L977.24,337.6L979.73,339.72L981.52,342.37L985.95,364.6L987.79,362.83L989.76,366.82L991.94,354.26L996.01,366L998.12,364.65L1000.14,361.67L1002.12,330.23L1004.49,315.31L1006.36,276.81L1010.52,359.56L1012.5,370.52L1014.26,380.16L1016.74,382.35L1018.83,368.37L1020.6,381.95L1024.69,383.93" style="vector-effect: none; fill: none; stroke: rgb(244, 91, 91); stroke-opacity: 1; stroke-width: 2px; opacity: 1;"/></g><g class="points"/><g class="text"/></g><g class="trace scatter trace99a8d2" style="stroke-miterlimit: 2; opacity: 1;"><g class="fills"/><g class="errorbars"/><g class="lines"><path class="js-line" d="M0,384.82L28.96,384.69L30.88,384.65L38.92,384.17L41.43,383.1L43.26,349.39L45.16,374.19L47.69,363.11L49.39,315.89L51.4,349.81L53.3,338.73L55.59,300L57.43,334.93L59.35,351.18L61.76,281L63.61,245.99L65.51,189.26L67.9,200.64L69.86,340.49L71.93,313.69L74.19,257.24L76.08,255.78L77.91,208.91L80.28,230.33L82.23,225.9L84.17,255.67L86.38,259.21L88.36,208.37L90.18,208.45L92.56,281.44L94.46,301.68L96.4,316L98.77,293.17L100.63,256.12L102.66,322.82L105.04,320.02L106.83,308.46L108.75,343.37L111.24,334.7L113.04,317.77L115.03,284.5L117.36,312.53L119.15,308.53L121.13,312.81L123.42,287.74L125.37,295.16L127.2,285.97L129.57,294.93L131.52,296.73L133.56,298.95L135.79,320.31L137.7,334.02L139.6,319.83L142.1,333.75L143.9,313.57L145.85,223.34L148.16,285.3L150.13,295.42L151.9,295.04L153.83,303.94L156.18,273.56L158.05,277.2L160.07,283.6L164.43,286.62L166.29,298.5L168.56,294.3L170.45,249.59L172.32,272.05L174.84,283.69L176.63,259.74L178.48,284.52L181.02,291.88L182.74,318.41L184.75,269.73L187.02,267.45L188.95,275.42L190.82,245.59L193.33,284.33L195.09,263.26L197.12,305.15L199.41,265.88L201.32,291.83L203.33,247.2L205.6,258.85L207.48,222.5L209.32,249.86L211.72,254.66L213.68,263.06L215.48,264.19L217.88,284.33L219.88,279.88L221.76,263.12L224.19,261.53L225.92,231.61L227.96,223L230.18,276.16L232.18,300.3L234,246.28L236.37,255.52L238.39,300.38L240.23,267.85L242.55,265.9L244.59,276.83L246.45,242.26L248.82,303.27L250.84,290.61L252.5,292.72L255.04,277.45L256.88,280.62L258.69,282.06L260.7,286.12L262.95,273.65L264.85,291.25L266.88,286.08L269.27,150.33L271.03,205.74L272.96,211.28L275.35,233.25L277.26,230.2L281.62,263.77L283.35,204.6L285.39,216.47L287.64,240.86L289.51,211.43L291.46,226.35L293.88,223.99L295.79,233.11L297.63,239.66L300.03,227.16L301.85,250.16L303.89,252.21L306.35,216.34L308.11,231.83L310.08,237.45L312.46,240.34L314.37,278.86L316.13,294.3L320.43,240.5L322.26,254.4L324.75,271.67L326.72,278.16L328.65,286.14L330.89,277.16L334.62,242.76L336.97,238.87L338.9,238.39L340.91,248.28L343.35,259.18L345.17,241.43L347.01,231.62L349.42,273.02L351.36,279.87L353.21,249.87L355.63,231.42L357.39,247.94L359.4,253.81L361.24,251.86L363.69,234.71L365.53,200.58L367.48,192.98L369.84,187.86L371.61,189.29L373.68,264.7L376.07,268.85L377.81,234.25L379.79,263.46L382.1,278.26L385.95,230.51L388.3,234.5L390.29,245.77L392.13,245.29L394.53,253.22L396.47,279.08L398.27,195.24L400.65,183.03L402.56,227.4L404.6,225.86L406.9,269.27L408.76,254.95L410.6,249.59L412.98,219.02L414.93,245.41L416.86,260.69L419.25,225.61L421.16,240.97L423.04,254.17L425.28,204.51L427.24,233.53L429.13,247.96L431.52,268.94L433.42,207.1L435.28,210.7L437.76,223.24L441.51,219.58L443.75,241.2L445.78,269.92L447.71,238.3L450.07,218.86L452.01,223.8L453.93,237.46L456.1,267.09L458.08,272.13L460.05,255.03L461.84,265.65L464.27,233.26L466.26,232.93L468.04,284.25L470.35,299.92L472.38,289.06L474.27,280.76L476.64,286.71L478.5,285.52L480.41,279.41L482.8,248.41L484.6,273.93L486.63,243.26L488.91,252.83L490.78,159.79L492.67,159.8L495.15,185.48L496.97,215.93L498.96,185.62L501.24,207.32L503.13,229.7L504.99,214.46L509.28,241.47L511.19,281.48L515.56,254.81L517.32,287.44L519.73,274.69L521.59,292.29L526.09,252.73L527.94,203.9L529.71,204.69L532.14,255.7L533.94,254.47L536,255.63L538.29,177.37L540.19,158.1L542.15,152.3L544.45,200.08L546.3,212.09L548.2,206.8L550.58,216.97L552.45,229.2L554.37,229.53L556.84,251.11L558.67,270.05L560.54,262.03L563.11,257.86L564.78,266.86L566.87,261.1L568.8,282.92L570.98,272.64L572.97,288.43L574.75,281.18L577.31,264.56L579.06,256.37L581.18,258.68L585.38,282.94L587.23,264.25L589.61,300.73L591.43,303.33L593.38,287.61L595.76,262.03L597.56,284.07L599.62,254.08L601.93,257.21L603.83,271.41L605.68,291L608.19,287.13L609.99,281.32L611.87,286.36L614.17,281.64L616.18,270.89L618.08,269.46L620.43,210.79L624.31,287.68L626.67,321.46L630.32,252.81L632.89,263.07L634.72,287.48L636.54,256.07L638.86,231.65L640.85,253.78L642.74,293.54L644.99,296.01L646.99,299.28L648.8,311.43L653.17,301.62L654.97,310.14L657.51,255.46L659.43,261.42L661.26,290.37L663.64,262.63L665.42,269.69L667.39,302.93L669.26,286.8L671.69,291.14L673.67,320.49L675.46,318.62L677.91,298.63L679.63,303.79L681.68,313.19L683.93,314.45L687.84,258.54L690.14,301.17L692.03,308.66L693.88,269.59L696.35,253.35L698.29,277.89L700.17,280.15L702.56,296.66L704.46,297.23L706.27,293.13L708.6,303.69L710.51,231L712.5,233.27L714.81,234.4L716.66,269.13L718.77,293.59L721.14,291.17L722.95,306.47L724.92,280.33L727.25,296.08L729.16,314.86L730.99,304.4L733.4,309.62L735.39,302.35L737.16,323.96L739.44,318.01L743.46,306.14L745.71,316.64L747.56,281.36L749.53,297.55L751.96,305.13L753.7,298.72L755.57,293.83L758,323.88L760.02,312.18L761.81,316.79L764.39,294.82L766.2,294.58L768.07,320.08L769.94,308.44L772.3,277.84L774.17,293.17L776.12,248.36L778.39,237.3L780.46,237.28L782.3,265.33L784.52,295.47L786.46,295.77L790.89,327.03L792.61,326.87L794.7,333.84L796.99,307.09L798.97,284.04L800.71,313.47L804.95,301.64L806.91,283.9L809.47,285.19L811.15,267.8L813.05,282.06L815.47,289.08L817.31,287.4L819.19,296.22L821.75,308.61L823.66,290.83L827.79,321.22L829.68,292.68L831.6,295.77L833.93,321.93L835.81,319.62L837.9,329.14L840.15,333.84L842.21,316.42L843.86,340.7L846.22,340.5L848.21,334.67L850.15,323.05L852.6,314.25L854.49,316.77L856.24,322.99L858.68,322.87L860.68,321.57L862.44,295.79L864.9,308.31L866.81,328.88L868.56,274.36L871.04,282.17L872.92,280.21L874.71,298.94L879.04,282.67L880.93,281.1L882.93,304.66L885.16,320.09L889.09,336.56L891.42,330.13L893.4,299.49L895.39,306.54L897.57,312.38L899.39,289.9L901.31,301.77L903.82,306.31L905.6,314.93L907.57,309.67L909.85,247.06L911.76,301.88L913.67,298.97L916.24,314.66L918.02,327.78L919.98,333.24L924.16,348.48L925.96,352.66L928.46,328.73L930.26,344.75L932.12,350.09L934.57,360.05L938.45,333.61L940.81,316.5L942.78,334.43L944.48,328.77L947,333.94L948.89,344.32L950.83,344.13L953.06,341.84L954.98,343.46L957.07,352.32L959.26,349.7L961.16,352.69L963.1,356.93L965.39,336.42L967.28,350.04L969.16,346.56L971.68,347.61L973.5,345.53L975.51,354.54L977.41,336.33L981.55,358.61L983.54,358.38L985.85,342.19L987.85,351.53L989.55,347.57L991.96,332.21L995.95,350.62L998.17,370.74L1000.12,374.47L1002.04,360.27L1004.41,357.16L1006.36,340.9L1008.33,346.31L1010.62,368.93L1014.5,382.22L1016.82,382.03L1018.58,382.88L1020.5,380.82L1022.83,383.23L1024.78,384.06" style="vector-effect: none; fill: none; stroke: rgb(145, 232, 225); stroke-opacity: 1; stroke-width: 2px; opacity: 1;"/></g><g class="points"/><g class="text"/></g><g class="trace scatter traceef0a60" style="stroke-miterlimit: 2; opacity: 1;"><g class="fills"/><g class="errorbars"/><g class="lines"><path class="js-line" d="M0,384.78L26.59,384.75L29.06,384.62L37.05,383.82L38.94,382.16L41.38,372.46L43.41,369.14L45.31,363.39L47.51,350.58L49.48,363.15L51.36,368.78L53.35,364.53L55.59,367.17L59.38,375.36L61.74,378.15L63.63,376.96L65.51,368.7L67.9,351.76L69.8,348.98L71.85,348.07L74.25,339.56L76.15,349.83L78.04,339.93L80.39,350.87L82.3,349.55L84.15,358.24L86.6,361.34L88.33,360.81L90.42,365.94L92.58,362.07L94.61,366.17L96.61,367.52L98.73,370.56L100.76,371.79L102.52,365.54L105.03,355.62L106.87,359.76L108.89,364.81L111.25,361.46L113.17,357.12L114.92,350.89L117.38,351.73L119.16,339.41L121.23,358.19L123.58,356.39L125.49,361.48L127.37,361.16L131.57,364.62L133.59,367.48L135.94,371.5L137.75,372.6L142.12,368.82L143.87,371.31L145.75,371.67L148.13,361.24L150.01,346.41L151.93,354.01L153.95,361.78L156.3,355.09L160.08,364.71L162.47,365.09L164.27,353.57L166.35,361.69L168.55,360.97L170.48,362.15L174.83,365.31L176.6,362.69L178.48,363.75L181.01,359.27L182.96,361.05L184.63,355.55L187.21,357.52L189.07,356.7L190.99,348.04L193.19,355.41L197.24,353.55L199.49,355.85L201.46,352.93L203.35,356.08L205.66,356.11L207.57,363.19L209.54,359.63L211.7,360.7L213.67,358.07L215.66,352.89L217.89,347.11L219.8,344.55L221.81,353.3L224.12,357.65L226.07,351.29L227.99,352.09L230.39,353.08L232.17,349.47L234.19,355.76L236.46,357.76L240.16,346.54L242.74,361.48L244.59,359.62L246.42,352.97L248.97,348.76L250.65,348.92L252.72,353.41L255.06,361.83L256.88,354.87L258.69,354.06L260.73,357.81L262.99,348.09L264.84,345.24L266.93,333.44L269.32,334.3L271,339.77L275.27,322.96L277.23,332.12L279.26,322.16L281.49,347.95L283.37,344.75L285.34,348.42L287.62,335.56L289.68,303.5L291.43,318.78L293.79,331.86L295.89,348.3L297.71,345.94L302,338.38L303.75,330.43L306.31,338.82L308.06,336.48L310.1,336.57L312.39,334.87L314.23,332.65L316.2,327.45L318.52,338.39L320.56,340.14L322.37,345.44L324.71,342.12L326.7,329.4L328.44,327.84L330.9,352.76L332.71,348.43L334.69,331.21L337.05,341.54L338.96,340.42L341.03,334.57L343.35,336.99L345.14,340.4L347.03,329.61L349.43,309.83L351.28,321.43L353.29,326.11L355.71,325.98L357.62,333.64L361.33,350.88L363.79,342.25L365.58,348.99L367.53,345.24L369.96,351.09L371.67,341.42L373.68,337.36L376.01,349.84L378,337.27L379.75,343.39L382.08,351.32L383.98,331.49L385.98,328.5L388.44,328.85L390.31,335.42L392.17,338.71L396.38,339.22L398.35,325.59L400.65,343.21L402.64,336.38L404.55,333.24L406.78,355.24L408.71,336.74L410.81,340.44L413.12,339.11L415.02,333.28L416.76,337.88L419.33,328.54L421.14,331.62L423.07,330.54L425.33,317.29L427.4,324.01L429.12,333.82L431.7,330.53L433.42,346.38L435.36,345.98L437.65,326.15L439.69,336.18L441.43,316.18L443.96,339.26L445.89,320.59L447.72,330.89L449.93,346.93L451.86,348.1L453.93,334.33L456.25,303.91L458,312.7L459.92,305.75L461.83,309.94L464.34,318.14L466.08,331.15L468.2,333.83L470.37,344.79L472.36,338.64L474.26,333.7L476.59,347.19L478.47,329.5L480.33,347.08L482.83,308.72L484.72,312.38L490.81,320.88L492.65,331.55L495.14,337.18L496.92,344.7L498.89,330.52L501.31,346.49L505.01,353.83L507.56,344.11L509.25,338.01L511.33,346.51L513.72,347.74L515.52,344.19L517.48,344.83L519.71,320.56L521.81,332.26L523.61,335.01L525.93,312.2L527.82,334.64L529.68,346.38L532.13,345.76L534.14,339.47L536.08,346.39L538.2,334.21L540.36,352.09L542.22,343.02L544.64,335.91L546.31,334.65L548.41,346.55L550.57,344.94L552.65,347.26L554.42,327.76L556.79,339.73L558.68,334.2L560.6,338.64L563.02,339.14L564.93,343.68L566.83,337.23L568.7,338.36L570.95,353.91L573.07,345.4L574.83,356.73L577.17,348.69L579.18,330.19L581.05,345.42L583.45,333.67L585.24,342.38L587.28,336.73L589.68,338.81L591.6,355.41L593.32,355.12L595.79,359.42L597.55,354.46L599.57,346.59L601.91,340.67L605.77,352.04L608.01,346.13L609.89,350.74L611.9,353.56L614.14,338.94L616.03,342.2L618.16,344.57L620.49,329.74L622.42,336.26L624.28,332.97L626.62,314.35L628.6,319.06L630.33,335.53L632.91,342.15L634.64,358.24L636.58,354.36L638.96,356.46L640.9,347.11L642.8,345.43L645.02,347.22L646.96,346.22L648.8,349.5L651.34,354.35L653.23,350.41L655.15,353.42L657.39,347.34L659.37,344.12L661.31,356.93L663.55,354.98L665.4,352.03L667.5,348.35L669.44,353.76L671.69,352.79L673.62,346.86L675.49,343.55L677.93,336.49L679.87,343.41L681.77,347.07L683.99,357.05L686,336.19L687.88,334.26L690.08,350.43L691.98,342.04L694.01,353.55L696.29,358.97L698.41,353.98L700.11,353.44L702.45,361.09L704.47,355.1L706.4,339.91L708.69,349.6L710.72,340.09L714.87,343.98L716.9,349.49L718.83,329.38L721.11,344.89L722.91,351.11L724.92,345.98L727.39,359.85L729.18,356.3L731.15,361.92L733.46,356.83L735.41,360.75L737.1,354.59L739.66,354.19L741.45,357.19L743.23,349.72L745.89,349.35L747.65,354.89L749.69,355.71L753.85,363.68L755.62,362.52L760.06,360.56L761.8,355.28L764.14,356.79L766.11,345.08L768.17,347.03L769.93,342.71L774.14,364.73L776.25,366.99L782.38,355.32L784.79,353.28L786.52,361.06L788.59,364.34L790.9,366.81L792.8,356.15L794.75,350.57L796.98,352.87L800.94,361.99L803.05,362.13L805.2,366.25L806.98,355.15L809.34,357.29L811.12,363.52L813.24,367.79L815.67,365.8L817.51,369.74L819.32,366.82L821.72,360.16L823.5,358.88L825.58,365.44L827.93,365.64L829.69,352.47L831.77,356.98L834.16,361.03L836,370.95L837.8,363.25L840.16,362.51L844.04,363.7L846.49,369.13L848.31,349.5L850.14,349.2L854.53,357.77L856.36,366.31L858.76,366.4L860.63,369.93L862.44,361.52L864.89,363.61L868.55,352.22L871.07,363.24L872.95,370.02L874.89,371.05L879.25,362.83L881.12,364.71L882.96,353.68L885.15,362.36L889.19,365.41L891.39,364.06L893.28,361.16L895.4,359.86L899.48,370.35L901.35,362.36L903.89,359.71L905.74,366.27L907.66,366.02L909.87,363.91L911.94,366.74L913.81,366.75L916.27,365.22L918.2,372.36L919.79,372.06L922.25,373.72L926.09,369.44L928.61,371.22L930.22,371.3L932.13,372.53L934.59,365.2L936.48,362.42L938.38,370.86L940.75,372.54L942.67,361.04L944.6,362.42L947.14,361.45L948.8,366.99L950.8,359.37L953.05,369.62L955.02,370.7L956.93,370.09L959.18,373.09L961.15,374.34L963.12,372.46L965.39,376.04L967.33,376.69L969.31,374.84L971.58,373.11L973.51,373.03L977.52,374.15L979.72,371.12L981.64,371.39L983.55,367.2L985.88,373.55L987.85,372.86L989.75,371.19L992.04,374.05L994.04,369.79L995.98,370.13L1000.23,378.71L1002.2,368.34L1004.26,361.62L1006.25,362.26L1010.51,375.9L1012.63,380.06L1014.51,381.95L1016.92,382.57L1018.73,383.49L1020.59,381.38L1024.67,384.57" style="vector-effect: none; fill: none; stroke: rgb(124, 181, 236); stroke-opacity: 1; stroke-width: 2px; opacity: 1;"/></g><g class="points"/><g class="text"/></g></g></g></g><path class="xlines-above crisp" d="M0,0" style="fill: none;"/><path class="ylines-above crisp" d="M0,0" style="fill: none;"/><g class="overlines-above"/><g class="xaxislayer-above"><g class="xtick"><text text-anchor="middle" x="0" y="451" transform="translate(60,0)" style="font-family: 'Lucida Grande', 'Open Sans', verdana, arial, sans-serif; font-size: 10px; fill: rgb(0, 0, 0); fill-opacity: 1; white-space: pre; opacity: 1;">0</text></g><g class="xtick"><text text-anchor="middle" x="0" y="451" style="font-family: 'Lucida Grande', 'Open Sans', verdana, arial, sans-serif; font-size: 10px; fill: rgb(0, 0, 0); fill-opacity: 1; white-space: pre; opacity: 1;" transform="translate(249.84,0)">2k</text></g><g class="xtick"><text text-anchor="middle" x="0" y="451" style="font-family: 'Lucida Grande', 'Open Sans', verdana, arial, sans-serif; font-size: 10px; fill: rgb(0, 0, 0); fill-opacity: 1; white-space: pre; opacity: 1;" transform="translate(439.68,0)">4k</text></g><g class="xtick"><text text-anchor="middle" x="0" y="451" style="font-family: 'Lucida Grande', 'Open Sans', verdana, arial, sans-serif; font-size: 10px; fill: rgb(0, 0, 0); fill-opacity: 1; white-space: pre; opacity: 1;" transform="translate(629.52,0)">6k</text></g><g class="xtick"><text text-anchor="middle" x="0" y="451" style="font-family: 'Lucida Grande', 'Open Sans', verdana, arial, sans-serif; font-size: 10px; fill: rgb(0, 0, 0); fill-opacity: 1; white-space: pre; opacity: 1;" transform="translate(819.36,0)">8k</text></g><g class="xtick"><text text-anchor="middle" x="0" y="451" style="font-family: 'Lucida Grande', 'Open Sans', verdana, arial, sans-serif; font-size: 10px; fill: rgb(0, 0, 0); fill-opacity: 1; white-space: pre; opacity: 1;" transform="translate(1009.2,0)">10k</text></g></g><g class="yaxislayer-above"><g class="ytick"><text text-anchor="end" x="54" y="3.5" transform="translate(0,435)" style="font-family: 'Lucida Grande', 'Open Sans', verdana, arial, sans-serif; font-size: 10px; fill: rgb(0, 0, 0); fill-opacity: 1; white-space: pre; opacity: 1;">0</text></g><g class="ytick"><text text-anchor="end" x="54" y="3.5" style="font-family: 'Lucida Grande', 'Open Sans', verdana, arial, sans-serif; font-size: 10px; fill: rgb(0, 0, 0); fill-opacity: 1; white-space: pre; opacity: 1;" transform="translate(0,387.06)">2B</text></g><g class="ytick"><text text-anchor="end" x="54" y="3.5" style="font-family: 'Lucida Grande', 'Open Sans', verdana, arial, sans-serif; font-size: 10px; fill: rgb(0, 0, 0); fill-opacity: 1; white-space: pre; opacity: 1;" transform="translate(0,339.11)">4B</text></g><g class="ytick"><text text-anchor="end" x="54" y="3.5" style="font-family: 'Lucida Grande', 'Open Sans', verdana, arial, sans-serif; font-size: 10px; fill: rgb(0, 0, 0); fill-opacity: 1; white-space: pre; opacity: 1;" transform="translate(0,291.16999999999996)">6B</text></g><g class="ytick"><text text-anchor="end" x="54" y="3.5" style="font-family: 'Lucida Grande', 'Open Sans', verdana, arial, sans-serif; font-size: 10px; fill: rgb(0, 0, 0); fill-opacity: 1; white-space: pre; opacity: 1;" transform="translate(0,243.22)">8B</text></g><g class="ytick"><text text-anchor="end" x="54" y="3.5" style="font-family: 'Lucida Grande', 'Open Sans', verdana, arial, sans-serif; font-size: 10px; fill: rgb(0, 0, 0); fill-opacity: 1; white-space: pre; opacity: 1;" transform="translate(0,195.28)">10B</text></g><g class="ytick"><text text-anchor="end" x="54" y="3.5" style="font-family: 'Lucida Grande', 'Open Sans', verdana, arial, sans-serif; font-size: 10px; fill: rgb(0, 0, 0); fill-opacity: 1; white-space: pre; opacity: 1;" transform="translate(0,147.34)">12B</text></g><g class="ytick"><text text-anchor="end" x="54" y="3.5" style="font-family: 'Lucida Grande', 'Open Sans', verdana, arial, sans-serif; font-size: 10px; fill: rgb(0, 0, 0); fill-opacity: 1; white-space: pre; opacity: 1;" transform="translate(0,99.39)">14B</text></g><g class="ytick"><text text-anchor="end" x="54" y="3.5" style="font-family: 'Lucida Grande', 'Open Sans', verdana, arial, sans-serif; font-size: 10px; fill: rgb(0, 0, 0); fill-opacity: 1; white-space: pre; opacity: 1;" transform="translate(0,51.45)">16B</text></g></g><g class="overaxes-above"/></g></g><g class="polarlayer"/><g class="smithlayer"/><g class="ternarylayer"/><g class="geolayer"/><g class="funnelarealayer"/><g class="pielayer"/><g class="iciclelayer"/><g class="treemaplayer"/><g class="sunburstlayer"/><g class="glimages"/><defs id="topdefs-5d153a"><g class="clips"/></defs><g class="layer-above"><g class="imagelayer"/><g class="shapelayer"/></g><g class="infolayer"><g class="g-gtitle"><text class="gtitle" x="550" y="25" text-anchor="middle" dy="0em" style="opacity: 1; font-family: 'Lucida Grande', 'Open Sans', verdana, arial, sans-serif; font-size: 20px; fill: rgb(42, 63, 95); fill-opacity: 1; white-space: pre;"><tspan class="line" dy="0em" x="550" y="25">Total Ion Chromatograms</tspan><tspan class="line" dy="1.3em" x="550" y="25"><tspan style="font-size:70%" dy="-0.6em">11 samples</tspan><tspan dy="0.42em"></tspan></tspan></text></g><g class="g-xtitle"/><g class="g-ytitle"><text class="ytitle" transform="rotate(-90,21.803125,242.5)" x="21.803125" y="242.5" text-anchor="middle" style="opacity: 0.3; font-family: 'Lucida Grande', 'Open Sans', verdana, arial, sans-serif; font-size: 14px; fill: rgb(0, 0, 0); fill-opacity: 1; white-space: pre;">Ion Count</text></g></g></svg>