<svg class="main-svg" xmlns="http://www.w3.org/2000/svg" xmlns:xlink="http://www.w3.org/1999/xlink" width="2200" height="1000" style="" viewBox="0 0 1100 500"><rect x="0" y="0" width="1100" height="500" style="fill: rgb(255, 255, 255); fill-opacity: 1;"/><defs id="defs-1059d0"><g class="clips"><clipPath id="clip1059d0xyplot" class="plotclip"><rect width="1025" height="385"/></clipPath><clipPath class="axesclip" id="clip1059d0x"><rect x="60" y="0" width="1025" height="500"/></clipPath><clipPath class="axesclip" id="clip1059d0y"><rect x="0" y="50" width="1100" height="385"/></clipPath><clipPath class="axesclip" id="clip1059d0xy"><rect x="60" y="50" width="1025" height="385"/></clipPath></g><g class="gradients"/><g class="patterns"/></defs><g class="bglayer"/><g class="layer-below"><g class="imagelayer"/><g class="shapelayer"/></g><g class="cartesianlayer"><g class="subplot xy"><g class="layer-subplot"><g class="shapelayer"/><g class="imagelayer"/></g><g class="minor-gridlayer"><g class="x"/><g class="y"/></g><g class="gridlayer"><g class="x"><path class="xgrid crisp" transform="translate(249.84,0)" d="M0,50v385" style="stroke: rgb(0, 0, 0); stroke-opacity: 0.05; stroke-width: 1px;"/><path class="xgrid crisp" transform="translate(439.68,0)" d="M0,50v385" style="stroke: rgb(0, 0, 0); stroke-opacity: 0.05; stroke-width: 1px;"/><path class="xgrid crisp" transform="translate(629.52,0)" d="M0,50v385" style="stroke: rgb(0, 0, 0); stroke-opacity: 0.05; stroke-width: 1px;"/><path class="xgrid crisp" transform="translate(819.36,0)" d="M0,50v385" style="stroke: rgb(0, 0, 0); stroke-opacity: 0.05; stroke-width: 1px;"/><path class="xgrid crisp" transform="translate(1009.2,0)" d="M0,50v385" style="stroke: rgb(0, 0, 0); stroke-opacity: 0.05; stroke-width: 1px;"/></g><g class="y"><path class="ygrid crisp" transform="translate(0,391.08)" d="M60,0h1025" style="stroke: rgb(0, 0, 0); stroke-opacity: 0.05; stroke-width: 1px;"/><path class="ygrid crisp" transform="translate(0,347.16)" d="M60,0h1025" style="stroke: rgb(0, 0, 0); stroke-opacity: 0.05; stroke-width: 1px;"/><path class="ygrid crisp" transform="translate(0,303.24)" d="M60,0h1025" style="stroke: rgb(0, 0, 0); stroke-opacity: 0.05; stroke-width: 1px;"/><path class="ygrid crisp" transform="translate(0,259.32)" d="M60,0h1025" style="stroke: rgb(0, 0, 0); stroke-opacity: 0.05; stroke-width: 1px;"/><path class="ygrid crisp" transform="translate(0,215.39)" d="M60,0h1025" style="stroke: rgb(0, 0, 0); stroke-opacity: 0.05; stroke-width: 1px;"/><path class="ygrid crisp" transform="translate(0,171.47)" d="M60,0h1025" style="stroke: rgb(0, 0, 0); stroke-opacity: 0.05; stroke-width: 1px;"/><path class="ygrid crisp" transform="translate(0,127.55)" d="M60,0h1025" style="stroke: rgb(0, 0, 0); stroke-opacity: 0.05; stroke-width: 1px;"/><path class="ygrid crisp" transform="translate(0,83.63)" d="M60,0h1025" style="stroke: rgb(0, 0, 0); stroke-opacity: 0.05; stroke-width: 1px;"/></g></g><g class="zerolinelayer"><path class="yzl zl crisp" transform="translate(0,435)" d="M60,0h1025" style="stroke: rgb(0, 0, 0); stroke-opacity: 0.05; stroke-width: 2px;"/></g><g class="layer-between"><g class="shapelayer"/><g class="imagelayer"/></g><path class="xlines-below"/><path class="ylines-below"/><g class="overlines-below"/><g class="xaxislayer-below"/><g class="yaxislayer-below"/><g class="overaxes-below"/><g class="overplot"><g class="xy" transform="translate(60,50)" clip-path="url(#clip1059d0xyplot)"><g class="scatterlayer mlayer"><g class="trace scatter trace91a605" style="stroke-miterlimit: 2; opacity: 1;"><g class="fills"/><g class="errorbars"/><g class="lines"><path class="js-line" d="M0,384.61L77.85,384.42L80.26,384.13L94.47,383.46L96.41,381.28L98.83,378.36L100.66,383.44L102.66,382.59L104.9,382.74L111.12,378.73L112.99,315.44L114.89,345.3L117.3,353.56L119.22,367.17L121.21,342.89L123.53,336.77L125.31,264.24L127.29,298.58L129.69,278.67L131.52,301.07L133.36,298.78L137.66,322.19L139.67,348.82L141.95,350.95L143.93,289.28L145.77,322.81L148.17,330.56L150.11,331L151.92,326.72L153.8,336.99L156.17,333.77L159.98,318.25L162.47,322.4L166.13,313.32L168.69,328.35L170.51,308.22L172.44,322.52L174.7,312.56L176.68,317.71L178.61,270.44L180.87,295.1L182.94,311.19L184.63,300.25L189,286.4L190.83,311.97L193.32,313.79L195.18,310.74L197,314.54L199.4,330.21L201.26,306.27L203.19,305.93L207.48,322.01L209.31,315.28L211.8,321.87L213.67,303.05L215.53,317.35L217.98,324.77L219.92,303.64L221.82,319.68L224.2,304.38L225.93,319.87L228.11,316.88L230.25,317.89L232.25,325.22L233.99,326.7L238.51,310.33L240.35,309.83L242.6,300.33L244.45,300.38L246.41,288.87L248.84,285.61L250.67,292.29L252.66,313.81L254.9,304.42L256.81,307.95L258.75,318.24L260.66,309.8L265.01,322.63L266.75,321.43L269.31,304.85L271.08,282.04L272.97,303.77L275.35,302.01L277.37,299.93L279.2,311.89L281.51,270.08L283.47,297L285.32,269.29L287.74,291.58L289.68,290.29L291.56,292.91L293.88,298.82L295.68,316.4L297.72,308.09L300.18,302.62L301.92,306.79L303.86,309.18L306.23,312.94L308.23,308.58L310.11,301.76L312.45,311.1L314.2,323.04L316.09,326.86L318.54,335.17L320.5,306.04L322.46,304.34L324.65,325.45L328.64,318.16L330.98,288.98L332.78,289.71L334.76,285.87L337.15,300.69L339.07,289.04L340.87,288.31L343.26,309.2L345.17,269.31L347.03,295.74L349.39,280.11L351.29,249.7L353.22,285.51L355.62,300.18L357.51,280.47L359.28,200.6L361.25,248.14L363.71,263.39L367.45,289.54L369.93,251.56L373.62,302.07L375.95,258.31L377.79,229.75L379.72,172.12L382.13,181.31L384.02,193.32L388.4,271.01L390.21,265.75L392.08,272.98L394.52,229.92L396.47,240.88L398.35,229.57L400.69,253.1L402.52,217.13L404.53,165.38L406.8,176.92L408.7,197.47L410.62,245.53L413.02,274.99L414.93,214.4L416.83,239.17L419.18,250.49L421.15,211.24L422.92,217.75L425.4,270.86L427.2,234.34L429.12,214.59L431.59,204.92L433.38,221.27L435.36,226.5L437.74,166.36L439.63,257.62L441.53,208.39L443.85,190.59L445.68,230.52L447.62,172.55L450.06,210.58L451.89,186.44L453.88,197.73L456.09,79.36L458.06,69.49L459.99,51.94L461.84,73.62L464.27,37.08L466.15,19.25L467.99,53.76L472.27,122.74L474.23,200.26L476.52,219.52L478.54,186.18L482.68,123.33L484.62,163.66L490.8,226.47L492.75,257.75L495.02,222.82L497.03,248.59L498.86,256.77L501.33,203.8L503.1,233.03L505.17,228.67L507.36,255.72L509.26,234.53L511.24,187.25L513.57,213.65L515.49,245.23L517.37,240.51L519.74,235.25L521.67,239.28L523.66,235.59L526.03,239.69L527.91,251.8L529.72,219.52L532.29,264.58L534.01,235.67L535.99,212.27L538.32,229.82L540.27,258.79L542.17,265.68L544.46,184.07L546.35,250.46L548.29,249.76L550.61,271.67L552.5,231.7L554.57,212.05L556.8,236.3L558.82,194.14L560.65,240L562.97,247.76L564.81,219.53L566.76,229.92L568.8,250.33L571.06,263.45L573.03,270.6L574.78,255.9L579.04,277.48L580.95,272.78L583.38,258.35L585.27,291.14L587.12,276.44L589.55,293.11L591.52,261.98L593.27,186.63L595.75,266.85L597.57,267.96L599.47,261.52L601.95,261.92L603.7,181.14L605.77,185.78L608.16,183.53L609.99,177.69L611.8,190.58L614.21,276L616.22,300.3L618.1,275.7L620.31,250.91L622.22,264.79L624.1,195.04L626.49,204.98L628.41,128.52L630.41,143.62L632.71,181.52L634.61,176.72L636.53,233.61L638.83,261.99L640.95,307.38L642.79,292.37L645.07,306.62L646.96,305.12L648.78,291.04L651.36,249.19L655.15,278.75L657.43,263.81L659.22,255.69L661.25,263.3L663.53,269.36L665.56,270.46L669.36,212.68L671.77,162.36L673.48,264.17L675.44,206.99L677.93,188.11L679.69,162.94L681.61,182.61L683.91,167.72L687.73,223.92L690.23,241.53L692,238.38L693.87,212.07L696.27,211.99L698.4,264.68L700.25,225.81L702.41,241.32L706.49,301.44L708.62,296.27L710.62,305.16L712.64,308.32L714.9,325.17L716.8,316.83L718.58,319.96L721,346.19L723.06,342.84L724.89,342.49L727.27,328.65L729.16,301.8L730.97,311.75L733.35,279.26L735.4,310.77L737.15,308.12L739.64,330.39L741.53,316.54L743.45,249.81L745.62,294.33L747.6,255.25L749.52,292.57L751.86,309.55L753.93,296.15L755.68,309.66L758.16,321.65L759.93,314.87L761.77,273.77L764.17,306.15L766.05,300.32L767.95,315.04L770.01,319.77L772.21,337.8L774.22,331.08L778.47,286.4L780.4,322.81L782.15,384.58L784.53,384.48L794.51,384.45L797.2,290.57L798.78,284.34L800.83,287.84L803.1,263.19L805.01,307.46L806.98,278.96L809.35,313.08L811.23,284.52L813.16,286.83L815.66,344.77L817.4,332.44L819.34,345.93L821.55,297.23L823.58,176.32L825.52,326.95L827.73,382.09L829.64,384.53L836.05,384.11L837.82,383.92L840.2,383.84L841.99,382.28L844.15,381.38L846.27,379.43L848.39,380.4L850.11,379.32L852.66,378.71L854.37,379.66L856.42,381.52L858.77,379.78L862.51,378.95L864.91,379.85L866.63,379.21L868.8,379.67L870.9,377.91L872.8,379.39L874.7,379.56L876.72,378.64L882.8,377.33L885.15,375.94L887.04,372.99L889.14,362.58L891.32,359.59L893.28,354.83L895.12,363.24L897.61,363.98L901.28,360.63L903.87,360.85L905.84,362.27L907.44,358.32L909.97,360.83L911.95,353.46L913.73,353.13L916.02,346.38L918.02,363.53L920.1,370.23L924.22,336.07L926.16,327.34L928.49,351.06L930.22,355.31L932.24,346.87L934.61,341.35L936.43,345.07L938.44,358.63L940.73,350.59L942.67,325.76L944.52,325.47L946.9,350.81L948.78,357.97L950.69,356.85L953.14,341.15L955.11,350.43L956.94,352.76L959.35,304.12L961.26,274.33L963.05,290.08L965.59,334.23L967.41,351.29L969.2,359.21L971.54,352.72L973.41,355.59L975.53,352.85L977.3,343.38L979.87,359.82L983.38,327.87L985.81,340.14L987.88,345.82L989.64,333.13L992.15,320.99L993.93,272.35L995.76,281.45L998.29,285.22L1000.19,293.61L1002.05,290.6L1004.39,348.13L1006.45,359.99L1008.3,369.5L1010.56,365.6L1012.39,356.63L1014.23,338.19L1016.73,305.86L1018.61,350.29L1020.46,317L1022.93,368.32L1025,378.78" style="vector-effect: none; fill: none; stroke: rgb(124, 181, 236); stroke-opacity: 1; stroke-width: 2px; opacity: 1;"/></g><g class="points"/><g class="text"/></g><g class="trace scatter trace313c66" style="stroke-miterlimit: 2; opacity: 1;"><g class="fills"/><g class="errorbars"/><g class="lines"><path class="js-line" d="M0,384.51L37.04,384.62L38.94,384.67L65.56,384.44L67.94,383.38L74.08,383.68L75.97,383.16L80.34,379.86L82.24,332.38L84.14,376.2L86.42,377.31L88.36,378.23L90.19,332.46L92.58,370.21L94.57,378.59L96.37,378.8L98.82,349.54L100.71,330.65L102.64,349.73L104.99,360.53L106.97,364.1L108.7,352.68L111.24,284.99L114.87,361.37L117.36,352.11L119.19,332.61L121.13,338.84L123.51,344.21L125.3,326.27L129.69,351.75L131.54,364.06L133.43,339.21L135.88,266.26L137.72,290.07L139.56,287.36L142,339.27L143.95,330.12L145.76,326.43L148.25,335.85L151.91,320.21L153.92,347.58L156.25,327.94L158.13,340.46L159.96,320.37L162.49,327.98L164.36,287.88L166.21,280.06L170.48,324.51L172.3,331.4L176.79,340.85L178.46,321.66L181.06,312.17L182.73,295.95L184.75,309.87L187.06,309.4L188.91,301.88L190.89,317.69L193.33,314.63L195.18,315.1L197.1,321.75L199.41,325.99L201.37,327.7L203.24,321.52L205.52,320.07L207.58,314.03L209.47,312.39L211.82,336.82L215.55,288.64L217.92,322.28L219.93,323.23L221.77,327.68L224.16,327.33L226.07,334.45L227.93,337.35L230.29,330.99L232.13,335.01L234,313.58L236.44,321.71L238.4,307.46L240.26,322.19L242.52,323.26L244.49,338.88L246.45,323.2L248.72,304.26L250.66,310.51L252.6,338.41L254.91,329.28L260.64,309.32L262.96,305.13L264.88,284.98L266.75,315.8L269.33,302.68L271.11,300.93L273,284.46L275.5,298.35L277.22,280.24L279.12,318.69L281.49,328.73L283.58,330L285.27,321.03L287.79,325.51L289.68,319.76L291.48,323.78L293.99,318.14L295.82,324.88L297.78,316.21L300.13,329.41L301.93,326.71L303.84,282.64L306.13,272.57L308.05,296.73L310.1,306.47L312.46,291.54L314.19,247.35L316.2,255.5L318.46,274.13L320.39,280.59L322.35,287.85L324.71,312.05L326.66,315.78L328.6,283.42L330.83,303.37L332.81,277.92L334.77,258.82L337.02,284.82L338.92,303.23L340.83,309.12L343.3,316.65L345.05,317.24L349.46,280.46L351.35,288.22L353.13,282.37L355.61,302.94L357.53,204.27L359.41,239.36L361.32,251.29L363.62,247.5L367.47,214.99L369.9,257.07L371.79,221.54L373.68,214.68L375.89,197.45L377.86,198.93L379.74,262.84L382.26,227.4L383.97,182.08L385.86,245.98L388.35,278.33L390.27,273.35L392.22,306.92L394.42,301.13L396.37,297.69L398.38,251.16L400.58,219.79L402.49,210.87L406.77,247.36L408.78,271.02L410.71,243.85L412.98,239L416.81,258.31L419.16,258.24L421.19,253.42L422.97,263.67L425.28,262.23L427.2,215.35L429.19,200.56L431.56,267.09L433.52,259.31L435.36,287.01L439.61,252.9L441.39,242.42L443.84,221.84L445.71,251.08L447.56,236.32L450.16,223.51L451.88,208.92L453.82,224.82L456.17,242.54L458.01,217.97L460.07,226.76L461.87,218.99L464.24,229.21L466.19,210.07L468.02,207.28L470.49,235.22L472.41,276.61L474.3,264.74L476.64,260.65L478.49,271.6L480.37,282.15L482.82,268.83L484.71,265.38L486.58,275.32L489.05,248.88L490.92,243.91L495.13,272.27L497.09,262.4L498.88,270.74L501.37,270.12L503.13,272.63L505.09,238.47L507.42,244.24L509.31,297.07L511.21,288.59L513.53,268.73L515.61,280.39L517.37,284.12L519.96,281.48L521.8,288.25L523.68,298.67L525.86,303.45L527.87,297.06L529.76,297.57L532.27,267.17L534.07,299.52L535.93,274.29L538.2,255.02L540.21,301.67L542.16,287.88L544.42,277.59L546.42,300.77L548.24,300.5L550.73,274.66L552.65,312.5L554.43,301L556.85,289.74L558.8,286.94L560.68,307.61L562.91,300.3L566.76,290.87L568.81,269.44L570.95,280.27L573,254.61L574.85,292.49L577.12,254.39L579.22,264.87L581.03,247.07L583.33,220.26L585.22,253.78L587.22,304.69L589.54,306.26L591.46,310.69L593.29,299.82L595.84,320.57L597.54,325.42L599.58,326.58L602.01,275.58L603.9,283.61L605.87,307.46L608.15,265.09L610.1,308.42L612,296.91L614.18,291.03L616.2,304.39L618.02,213.52L620.38,254.59L622.35,244.3L624.26,264.32L626.51,303.87L628.59,285.73L630.28,314.98L632.68,318.31L634.67,330.46L636.55,297.02L639.07,309.69L640.97,312.99L642.73,323.1L645.18,292.24L647.07,315.37L648.85,295.79L651.31,300.95L653.25,298.47L655.18,326.31L657.39,327.6L659.3,312.14L661.27,313.41L663.71,295.14L665.51,308.67L667.47,313.74L669.31,322.96L671.65,289.78L673.64,294.58L675.6,320.66L677.73,332.34L679.66,334.84L681.6,353.79L683.94,346.86L685.98,300.29L687.89,312.83L690.36,307.58L692.1,319.15L693.97,310.91L696.26,307.1L698.26,327.11L700.28,330.18L702.54,337.25L704.38,329.44L706.34,306.37L708.79,325.22L710.62,306.77L712.41,305L714.82,307.46L716.88,319.68L718.56,313.83L720.97,301.86L723.05,307.86L724.78,303.77L729,332.18L731.07,329.59L735.17,346.41L737.12,352.56L739.43,340.33L741.48,322.36L743.32,309.87L745.83,301.73L747.72,324.32L749.51,311.11L751.81,327.2L753.83,305.54L755.64,318.73L757.94,328.56L760.06,332.83L761.94,317.79L764.27,314.64L766.25,313.89L768.17,328.48L770.05,319.06L772.37,312.37L774.28,333.59L776.13,331.15L778.59,321.16L780.34,323.11L782.3,322.51L784.65,322.51L786.49,318.25L788.43,311.16L790.73,294.78L792.73,313.11L794.52,305.04L796.96,347.73L798.89,352.13L800.89,336.1L803.15,343.01L805.13,347.83L806.85,336.3L809.22,339.7L811.19,349.31L813.19,361.72L815.46,343.47L817.27,346.89L819.36,342.12L821.67,330.27L823.57,327.44L825.53,316.22L827.86,298.24L829.66,305.85L831.54,299.7L835.84,314.46L837.76,318.99L842,328.18L843.85,327.32L848.27,350.5L850.07,356.96L852.45,351.78L854.36,341.73L856.29,342.68L858.73,331.89L860.73,333.87L862.44,329.57L864.79,316.52L866.62,334.96L868.76,337.39L871.01,335.89L872.85,341.59L874.75,336.94L876.76,334.67L878.97,335.66L881.12,345.99L882.76,345.28L885.3,340.68L887.17,342.01L888.96,335.34L891.31,342.11L893.21,335.69L895.37,384.92L899.41,384.5L901.29,384.42L907.46,384.43L909.84,378.84L911.79,320.37L913.63,337.12L916.1,336.4L918.05,344.8L919.98,338.63L922.24,339.93L924.25,352.51L926.15,338.9L928.35,350.38L930.39,337.65L932.13,328.14L934.54,298.37L936.4,183.54L938.51,336.28L940.93,383.57L942.58,384.24L946.96,384.52L948.74,384.03L950.9,383.64L953.1,379.88L955.23,379.32L956.93,376.75L959.23,374.05L961.19,370.34L963.17,367.36L965.43,366.22L967.48,367.53L969.14,360.56L971.62,359.8L973.42,353.31L975.35,364.95L977.32,366.16L979.85,356.14L981.49,360.48L983.38,365.47L985.81,357.27L987.83,364.33L989.59,366.02L991.98,357.19L993.91,365.63L995.89,370.57L998.1,371.91L1000.08,368.57L1002.09,372.81L1006.31,371.01L1008.08,370.24L1010.5,372.2L1012.4,362.39L1014.25,326.35L1016.77,302.12L1020.41,342.2L1022.92,331.66L1024.71,360.7" style="vector-effect: none; fill: none; stroke: rgb(67, 67, 72); stroke-opacity: 1; stroke-width: 2px; opacity: 1;"/></g><g class="points"/><g class="text"/></g><g class="trace scatter trace9622ba" style="stroke-miterlimit: 2; opacity: 1;"><g class="fills"/><g class="errorbars"/><g class="lines"><path class="js-line" d="M0,384.68L77.87,384.02L80.22,383.46L84.03,384.21L86.39,383.43L88.33,384.05L90.25,383.69L92.63,382.73L94.72,383.09L96.35,381.28L98.86,376.79L100.86,380.18L102.64,371.9L104.96,377.91L106.89,354.07L108.91,376.43L111.09,362.2L113.19,350.33L114.91,361.76L117.4,355.89L119.19,355.36L121.15,333.67L123.46,331.03L125.32,315.32L127.31,317.42L129.72,291.21L131.57,298.22L133.48,248.8L135.93,242.04L137.63,262.03L139.55,269.64L141.92,290.42L143.83,282.41L145.7,284.35L148.11,258.05L150.01,239.7L151.94,261.44L153.8,275.16L156.15,268.26L158.08,290.12L159.96,255.27L162.33,251.29L164.25,264.78L168.59,290.4L170.52,287.51L172.41,279.07L174.72,281.72L176.61,272.51L178.49,289.97L182.75,281.14L184.83,304.94L187.15,302.13L189.02,294.83L193.3,305.17L195.17,285.61L197.22,295.88L199.39,296.57L201.41,316.37L203.25,312.44L205.55,296.78L207.56,316.14L209.42,296.31L211.79,317.27L213.6,302.97L215.47,255.82L217.84,262.96L219.76,278.04L221.67,260.46L224.04,251.89L225.92,256.25L227.88,220.57L230.19,203.29L232.1,202.1L234.03,179.14L236.39,176.04L238.25,207.35L240.16,205.45L242.56,215.33L244.46,233.5L246.32,258.09L248.7,266.03L250.59,268.12L252.49,281.93L256.99,321.3L258.79,312.22L260.62,324.17L262.98,320.29L266.91,312.51L269.17,308.04L271.04,323.62L272.97,312.58L275.34,315.84L277.17,304.6L279.07,310.93L281.56,302.26L283.38,303.88L285.35,297.05L287.77,292.51L289.69,304.08L293.96,301.66L295.72,308.46L297.68,286.56L300.07,288.95L301.88,311.97L303.93,300.17L306.17,296.07L308.21,305.61L312.32,315.87L314.36,306.55L316.12,314.5L318.49,301.18L320.57,281.94L322.4,294.11L324.77,309.04L326.61,305.03L328.6,308.65L330.86,266.37L332.82,248.88L334.61,261.64L337.13,242.92L338.94,278.31L343.18,111.59L345.18,103.96L347,97.21L349.47,255.74L351.27,269.42L353.21,273.46L355.5,210.19L357.44,274.31L359.29,273.97L361.28,243.25L365.57,268.11L367.53,256.92L369.84,279.82L371.78,245.1L373.62,264.66L375.94,261.69L377.91,177.37L379.77,176.15L382.09,249.32L384.12,267.74L385.9,197.87L388.23,231.28L390.22,257.77L392.05,229.09L394.52,270.04L396.3,253.11L398.28,202.41L400.69,172.06L402.53,205.15L404.43,255L406.81,208.03L408.72,242.39L410.66,166.37L412.99,177.15L414.85,234L416.89,231.25L419.22,227.8L421.08,175.82L425.36,187.19L427.27,253.35L429.22,250.61L431.5,215.28L433.38,274.41L435.3,239.78L437.76,215.46L439.58,229.03L441.52,231.57L443.77,176.83L445.69,182.8L447.57,193.2L450.1,246.87L451.87,217.01L453.78,237.76L456.21,228.53L458.11,219.55L459.93,205.11L461.79,239.26L464.34,219.2L466.09,193.48L468.15,187.99L470.45,222.71L472.34,238.69L474.23,239.56L476.6,215.52L478.43,201.94L480.36,180.02L482.77,245.51L484.6,223.32L486.63,197.25L488.93,237.62L490.76,198.43L492.68,219.83L495.14,252.94L496.97,257.03L498.82,225.44L501.26,249.68L503.1,258.31L505.12,255.76L507.38,233.62L509.26,232.36L511.32,263.16L513.62,261.95L515.46,260.13L517.39,242.08L519.85,250.01L521.67,215.47L523.51,222.41L525.91,196.93L527.78,225.93L529.86,237.13L532.15,236.31L533.95,259.88L538.21,199.93L540.15,169.43L542.09,240.55L544.45,218.6L546.36,205.88L548.17,225.55L550.55,229.7L552.58,239.36L554.36,225.78L556.76,260.16L558.78,185.43L560.63,234.32L562.98,217.07L564.95,170.44L566.7,133.76L568.74,141.25L571.03,206.72L572.96,211.94L574.77,136.82L577.15,205.7L579.08,202.27L580.97,211.85L583.3,224.63L585.38,257.54L587.09,311.26L589.57,299.33L591.57,286.31L593.28,282.93L595.71,243.75L597.54,280.25L599.54,288.53L601.85,204.53L603.89,248.23L605.77,256.37L608.04,258.32L610.06,301.35L611.82,243.19L614.3,295.81L616.18,237.78L618.05,244.8L620.4,290.01L622.29,271.94L624.29,251.82L626.5,262.42L628.45,289.88L630.34,262.47L632.68,275.72L634.69,259.44L636.54,272.61L638.91,257.22L640.73,263.1L642.74,273.17L645.21,282.62L647.08,277.82L648.97,278.46L651.17,289.3L653.2,272.31L655.13,304.83L657.4,286.6L659.33,304.14L661.18,301.85L663.52,288.15L665.52,237.05L667.34,239.89L669.2,277.88L671.6,289.18L673.57,222.6L675.47,300.33L677.76,283.74L679.73,276.73L681.64,246.33L683.98,291.33L686.07,270.42L687.71,267.61L690.16,273.29L692.14,234.6L693.97,303.85L696.31,261.3L700.1,278.58L702.6,280.01L704.38,271.94L706.34,281.84L708.79,277.94L710.7,263.31L712.54,272.58L714.94,271.18L716.8,321.64L718.77,296.04L720.94,309.88L722.84,295.7L724.94,314.96L727.17,283.02L729.14,281.41L731.05,311.44L733.45,294.2L735.29,314.48L737.13,296.81L739.55,307.24L741.33,279.25L743.35,317.95L745.61,317.44L747.65,331.24L749.42,320.63L752,336.12L753.8,316.74L755.7,305.73L758.05,312.61L760,276.43L761.91,287.18L764.11,273.56L766.2,284.1L767.94,285.83L769.86,303.36L772.33,310.51L774.21,310.83L776.14,295.76L778.6,257.16L780.45,301.17L782.14,319.21L784.7,301.53L786.67,310.77L788.5,305.64L790.85,302.34L792.63,302.98L794.52,310.02L796.94,302.61L798.97,267.75L800.69,265.87L803.1,293.03L805.07,303.34L806.84,304.85L809.21,300.55L811.12,294.05L813,291.21L815.53,280.18L817.44,325.66L819.22,296.1L821.61,311.57L823.6,309.92L825.49,310.03L827.8,299.75L829.64,307.51L831.64,319.44L833.9,307.72L835.89,279.16L837.93,315.27L840.2,300.23L841.98,311.89L843.85,317.29L846.32,319.77L848.29,317.66L850.14,281.86L852.4,309.08L854.35,322.34L856.22,318.8L858.56,311.35L860.65,322.92L862.56,312.65L864.93,301.45L866.87,331.88L868.61,324.42L870.91,333.72L872.95,337.3L874.84,337.36L876.81,348.12L879.02,346.07L881.11,345.24L882.93,340.25L885.19,343.58L887.13,342.15L888.94,295.38L891.49,278.45L893.26,308.15L895.25,303.08L897.51,328.28L899.59,307.48L901.46,306.68L903.71,302.26L905.73,307.62L907.63,372.55L909.84,384.59L911.75,384.54L919.8,384.45L922.19,379.56L924.13,330.53L926.01,306.62L930.34,346.59L932.34,335.69L934.56,333.8L936.68,337.37L938.31,337.49L940.82,358.58L942.6,343.93L944.69,339.06L946.87,340.08L948.84,99.51L950.76,331.01L953.14,383.3L954.91,384.61L956.83,384.67L959.19,383.99L961.11,384.43L963.27,383.31L965.68,383.53L967.45,383.21L969.24,382.05L977.47,381.83L979.82,379L981.77,380.45L983.6,378.12L989.87,376.76L991.92,377.46L994.09,378.39L995.86,381.4L998.26,379.14L1000.2,380.03L1002.21,379.06L1004.4,380.46L1006.35,375.96L1008.15,378.79L1010.51,378.83L1012.51,376.26L1014.31,338.45L1016.77,310.5L1018.58,280.43L1020.47,297.95L1023,352.2L1024.94,377.14" style="vector-effect: none; fill: none; stroke: rgb(144, 237, 125); stroke-opacity: 1; stroke-width: 2px; opacity: 1;"/></g><g class="points"/><g class="text"/></g><g class="trace scatter tracee47630" style="stroke-miterlimit: 2; opacity: 1;"><g class="fills"/><g class="errorbars"/><g class="lines"><path class="js-line" d="M0,384.44L74.05,384.28L75.95,383.57L78.05,383.79L80.37,382.83L88.31,381.88L90.38,375.3L92.66,381.66L94.54,381.15L96.46,379.29L98.84,382.14L100.73,382.55L102.57,378.05L104.98,358.75L106.8,351.81L108.81,325.48L111.11,359.77L112.97,329.95L114.87,277.69L117.42,342.87L119.23,324.26L121.18,281.25L123.46,336.48L125.47,330.89L127.34,277.86L129.77,310.52L131.63,288.83L133.47,297.22L135.94,290.09L137.64,326.65L139.76,314.59L142.02,300.75L143.81,283.53L145.8,279.29L148.12,233.75L149.98,316.67L151.93,310.08L153.96,312.98L156.24,283.68L158.27,322.94L159.99,288.25L162.41,273.62L164.26,241.48L166.25,288.66L168.55,242.15L170.52,283.11L172.37,280.58L174.68,285.5L176.62,256.47L178.6,262.26L181.01,264.72L184.77,291.51L187.1,255.58L189.02,249.82L190.87,248.98L193.16,259.81L195.15,261.44L196.99,245.68L199.34,272.8L201.33,298.66L203.2,226.53L205.55,302.17L207.58,291.88L209.42,295.98L211.82,296.79L215.51,262.69L217.96,174.76L219.84,204.15L221.69,214.94L224.06,196.77L225.91,212.66L227.88,271.37L230.22,292.16L232.31,295.82L234.04,278.89L236.54,253.07L238.28,272.93L240.16,241.66L242.69,289.32L244.53,304.07L246.47,309.49L248.78,287.6L250.64,282.97L252.67,312.12L254.95,310.19L256.96,303.41L258.78,305.94L265,291.99L266.9,310.65L269.14,315.21L271.04,300.22L275.3,308.1L277.17,290.86L279.11,274.46L281.47,268.81L283.43,274.66L285.25,287.58L287.67,265.97L289.56,203.72L291.51,217.07L293.83,249.53L295.76,258.45L297.67,279.38L301.9,287.2L303.78,302.87L306.19,288.67L308.05,294.98L310.02,298.39L312.43,291.51L314.21,294.72L316.34,308.53L318.64,315.63L320.44,275.23L322.44,300.67L324.64,307.88L326.74,287.13L328.49,282.97L330.97,288.39L332.85,299.6L334.66,307.75L337.08,300.5L338.98,291.6L340.78,273.48L343.18,244.97L345.06,268.04L347.13,282.55L349.45,268.27L351.4,276.36L353.14,194.43L355.59,269.85L357.47,175.92L359.4,190.84L361.27,136.32L365.48,207L367.55,213.92L369.84,222.81L371.68,194.2L373.53,182.95L375.93,181.48L377.84,203.88L379.76,201.29L382.17,209.73L384,258.41L386.02,212.12L388.41,226.71L392.12,56.24L394.4,152.94L396.45,242.45L398.28,187.24L400.74,234.71L402.48,222.59L406.76,240.26L408.77,261.24L410.66,253.1L412.96,181.2L416.74,238.03L419.14,204.1L421.15,211.29L422.9,234.94L425.35,244.45L427.33,223.5L429.21,233.64L431.62,210.98L433.47,202.71L435.41,247.03L437.71,251.93L439.53,210.04L441.56,240.63L443.81,237.12L445.75,192.95L447.58,214.05L450.05,234.88L452.06,228.45L453.89,191.45L456.2,221.61L458.18,203.35L460.08,236.39L461.89,240.45L464.28,233.42L466.2,250.23L468.11,184.88L470.55,131.86L472.39,149.18L474.31,227.4L476.65,245.86L478.48,247.99L480.45,173.42L482.75,128L484.68,160.05L486.68,142.14L488.88,197.91L490.8,193.08L492.67,260.43L495.09,211.48L496.92,205.91L498.91,229.14L501.35,244.01L503.1,260.8L505.02,258.12L509.43,234.74L511.15,277.54L515.56,227.9L517.4,238.96L519.77,238.05L521.61,253.97L523.57,264.11L525.96,240.09L527.86,249.98L529.8,204.79L532.12,190.87L534.01,192.14L538.28,272.18L540.2,261.51L544.43,198.19L546.31,201.88L550.6,263.88L552.63,276.37L554.35,274.47L556.81,246.46L558.64,258.24L560.54,244.72L562.89,230.44L564.81,227.77L566.86,244.45L568.71,202.25L571,170.44L572.85,221.4L574.93,189.13L577.15,212.33L579.08,274.8L580.99,302.91L583.3,270.31L585.36,287.19L587.27,279.25L589.54,256.89L591.39,224.45L593.44,224.04L595.83,256.54L597.57,235.57L599.45,287.15L601.8,243L603.8,251.54L605.77,268.34L608.08,258.46L610.12,299.09L611.79,288.84L614.24,249.62L616.18,248.49L618.19,273.31L620.47,267.09L622.27,301.6L624.13,269.03L626.51,259.79L628.45,283.47L630.29,269.43L632.73,282.22L634.55,261.27L636.51,278.24L638.86,280L640.76,289.07L642.63,304.74L645.06,293.36L646.89,299.17L648.83,285.15L651.33,229.97L653.07,269.3L655.15,249.01L657.51,297.8L659.31,311.11L661.23,301.81L663.7,298.78L665.54,276.45L667.3,294.64L671.65,273.49L673.47,303.92L675.41,276.86L677.91,291.87L681.62,268.83L683.94,270.8L685.97,266.44L687.83,272.58L690.11,289.41L692.14,291.04L693.94,320.72L696.33,323.71L698.38,294.31L700.23,281.22L704.53,231.64L706.32,298.85L708.66,293.18L710.66,241.41L712.52,251.87L714.78,256.66L716.71,208.29L718.59,140.29L722.83,86.3L724.75,92.55L727.14,81.09L729.01,108.44L730.91,101.1L733.27,98.82L735.17,87.32L737.1,84.08L739.44,95.35L741.43,169.02L743.26,164.28L745.61,141.21L749.4,184.8L751.79,196.3L753.68,212.57L755.7,221.96L759.88,267.24L761.81,272.23L764.27,295.75L766.02,298.08L769.88,298.8L772.25,294.81L774.19,313.23L776.08,316.47L778.61,317.95L780.5,308.28L782.19,314.68L784.72,313.68L786.65,326.34L788.58,331.93L790.71,311L792.62,300.7L794.54,303.9L796.94,269.45L800.91,344.49L803.06,288.09L807.03,261.71L809.32,266.81L811.33,310.11L813.02,261.79L815.62,282.85L817.44,319L819.38,338.9L821.62,345.92L823.59,351.07L825.38,330.53L827.89,335.34L829.65,287.29L831.71,291.22L834.14,309.76L836.05,311.73L837.91,320.08L842.04,339.62L844.07,335.18L846.32,321.67L848.27,336.59L850.06,335.24L852.43,331.44L854.44,320.63L856.27,317.18L858.63,299.86L860.63,305.72L862.46,296.15L864.79,298.07L871.1,325.41L872.81,384.56L887.07,384.5L888.98,337.95L893.27,303.7L895.12,324.07L897.7,346.41L899.38,333.23L901.29,350.64L903.84,322.92L905.66,337.36L907.46,333.77L909.88,313.37L911.86,309.14L913.61,313.19L916.01,224.32L917.94,372.18L919.88,384.41L928.37,384.44L930.49,382.8L932.19,381.96L934.66,382.98L942.79,379.49L944.74,380.58L946.86,378.72L948.8,378.52L950.83,380.08L953.19,376.42L956.81,376.89L959.29,370.61L961.14,371.23L962.98,366.79L965.4,369.77L967.37,368L969.33,372.53L971.57,359.79L977.24,364.4L979.67,338.41L981.54,337.12L983.52,339.62L985.8,317.65L987.68,317.51L989.58,310.47L991.92,298.83L995.81,307.54L998.1,305.9L1000.18,316.12L1001.9,307.44L1004.27,321.21L1006.2,308.74L1008.08,321.6L1010.47,322.11L1012.34,328.27L1014.25,299.12L1016.65,268.04L1018.65,216.34L1022.95,268.66L1024.7,310.62" style="vector-effect: none; fill: none; stroke: rgb(247, 163, 92); stroke-opacity: 1; stroke-width: 2px; opacity: 1;"/></g><g class="points"/><g class="text"/></g><g class="trace scatter tracedc36c1" style="stroke-miterlimit: 2; opacity: 1;"><g class="fills"/><g class="errorbars"/><g class="lines"><path class="js-line" d="M0,384.38L16.62,384.45L18.53,384.28L37.03,384.04L38.92,383.32L43.24,381.57L45.24,352.38L47.61,275.18L49.5,342.19L51.36,348.49L53.41,369.18L55.71,364.81L57.6,372.99L59.4,373.62L61.85,369.16L63.79,364.47L65.59,337.62L68.06,341.19L70.03,321.72L71.73,295.25L74.16,176.95L76.07,282.01L77.84,258.01L80.32,198.98L82.16,202.12L84.14,135.75L86.44,194.41L88.4,204.52L90.28,179.45L92.6,184.33L94.47,197.35L98.76,152.66L100.65,177.12L102.56,254.67L105.02,259.82L106.79,243.33L108.71,250.98L111.25,234.48L113.04,268.97L114.92,252.01L117.33,257.24L119.27,266.27L121.06,245.04L123.52,260.95L125.42,260.66L127.28,263.99L129.6,231.53L131.71,189.16L133.39,213.51L135.87,251.4L137.69,236.85L139.73,226.51L142.14,282.18L143.84,287.61L145.87,280.69L148.19,279.91L150.03,283.61L152.06,262.35L153.99,266.96L156.27,293.19L158.21,266.03L160.15,258.33L162.53,282.09L164.3,277.08L166.12,284.48L168.62,285.88L170.51,271.29L172.35,297.18L174.71,271.89L176.58,277.41L178.47,301.42L181.06,277.27L182.95,293.61L184.76,283.5L187.1,285.3L188.94,274.39L190.84,253.82L193.33,238.09L195.18,242.72L197.1,250.44L199.41,236.85L201.3,217.96L203.22,235.6L205.61,236.41L207.44,275.47L209.4,262.77L211.79,287.88L213.64,284.99L215.49,305.13L218.08,303.5L219.79,303.66L221.82,290.46L224.02,298.52L226.07,302.65L227.97,297.13L230.32,279.9L232.2,288.15L234.13,299.49L236.49,286.59L238.3,257.22L240.3,300.44L242.65,300.86L244.51,261.81L246.34,262.54L248.75,271.65L250.61,269.2L252.7,270.79L255.05,256.36L256.87,252.49L258.76,250.7L260.58,242.89L263.1,196.13L264.87,195.24L266.78,248.41L269.12,208.15L271.14,235.98L272.98,224.16L277.27,204.19L279.14,201.71L281.61,220.73L283.49,218.61L285.31,242.51L287.78,220.56L289.61,240L291.44,234.95L293.86,237.02L295.86,221.57L297.75,201.79L300.03,226.89L301.96,226.84L303.77,165.93L306.28,149.85L308.13,178.19L310.11,173.35L312.3,235.01L314.19,222.84L316.34,219.3L318.67,237.75L320.53,228.86L322.41,245.87L324.8,191.88L326.61,232.97L328.55,190.74L330.98,164.99L332.72,213.77L334.78,162.91L337.04,173.08L339.01,149L340.78,201.63L343.15,158.32L345.06,201.72L347.03,232.63L349.45,245.15L351.23,268.26L353.22,244.13L355.48,215.24L357.38,227.2L359.41,224.83L361.24,236.56L363.56,239.87L365.45,198.66L367.41,156.14L369.87,229.51L371.79,182.14L373.69,213.55L377.89,239.66L379.87,221.49L383.98,91.14L385.86,123.54L388.34,124.76L390.16,121.96L392.03,167.35L394.56,196.91L396.4,264.6L398.23,183.28L400.57,202.63L402.59,229L404.41,226.87L406.74,203.16L408.65,235.82L410.63,226.07L413,239.4L414.98,227.33L416.88,226.95L419.25,212.33L421.14,246.72L422.98,221.2L425.4,205.71L427.3,229.97L429.2,213.89L431.6,246.86L433.46,251.34L435.35,235.21L437.74,192.28L439.66,217.55L441.44,249.74L443.81,256.88L445.69,263.67L447.59,250.44L451.86,166.51L453.76,239.86L456.13,152.25L458.05,229.54L459.97,166.09L461.98,173.9L466.16,184.18L467.97,214L470.42,237.68L472.29,245.26L474.19,195.7L476.52,206.92L478.58,204.68L480.39,178.61L482.79,225.66L484.63,199.78L486.48,201.59L489.04,152.06L490.77,156.04L492.81,140.11L496.99,251.99L499.01,283.11L503.13,224.39L505.03,173.61L507.46,223.72L509.3,232.91L511.27,233.12L513.54,238.82L515.5,264.39L517.38,175.1L519.81,232.14L521.77,239.91L523.66,234.23L526.06,241.62L529.66,230.11L532.15,178.51L534.03,230.16L535.97,210.75L538.43,240.1L540.14,211.15L542.2,269.15L544.57,256.98L546.3,249.54L548.36,268.8L550.64,236.47L552.47,236.5L554.38,202.87L556.95,216.55L558.63,256.7L560.72,249.98L562.94,284.23L564.94,274.56L566.72,271.87L568.65,209.53L571.15,219.03L573.08,288.58L577.24,267.28L579.12,182.61L580.91,213.2L583.34,223.68L585.2,201.57L587.16,253.83L589.49,251.39L591.37,267L593.4,277.92L595.67,224.07L599.54,254.23L601.85,220.23L603.92,228.86L605.61,251.85L608.13,270.35L609.99,275.22L611.89,269.73L614.16,249.1L616.08,276.77L618.05,254.98L620.46,234.61L622.35,262.02L624.31,292.2L626.57,273.87L630.4,320.74L632.88,287.18L636.62,266.33L639.03,268.09L640.81,281.65L642.83,249.55L645.18,292.47L647.04,271.46L648.95,282.21L651.24,304.72L653.22,290.78L655.17,255.89L657.33,263.07L659.4,252.7L663.52,293.18L665.62,301.55L667.36,276.61L669.41,273.71L671.7,291.69L673.65,284.1L675.43,278.9L677.78,311.18L679.69,320.07L681.65,287.69L683.95,282.86L685.91,302.82L687.75,310.71L690.15,305.02L692.18,305.39L693.87,317.16L696.4,286.41L698.23,292.22L702.58,308.34L704.5,300.44L706.25,273.03L708.8,260.57L712.63,308.52L714.76,274.5L716.69,298.02L718.77,216L721.01,227.31L722.84,247.79L724.8,259.06L727.13,261.1L731.1,310.62L733.39,325.28L735.28,321.46L737.1,304.01L739.44,304.32L741.4,286.79L743.23,289.69L745.79,296.56L749.44,307.08L751.95,320.79L753.82,306.43L755.74,278.8L758.11,309.9L760,312.13L761.82,326.71L764.31,328.76L766.2,307.46L768.04,330.53L769.81,338.44L772.22,336.6L774.12,321.66L776.11,331.38L778.45,312.1L780.39,306.06L782.22,301.54L784.67,306.28L786.52,302.66L788.37,321.98L792.6,308.67L794.48,316.63L797.01,311.77L798.94,316.98L800.72,314.63L803.21,328.72L804.99,317.11L807.06,269.85L809.42,321.26L811.12,280.19L815.45,320.75L817.31,289.4L819.22,252.61L821.63,265.84L823.49,236.88L825.57,262.78L827.74,295.61L829.77,312.63L831.72,319.68L833.96,312.6L835.95,330.33L837.76,335.18L842.14,316.49L844.02,320.63L846.49,333.44L848.19,327.06L850.04,322.99L852.45,332L854.33,335.53L856.32,312.33L858.73,327.04L860.6,323.63L862.61,332.66L864.82,336.17L866.68,336.11L868.59,329.88L871.08,321.91L873.06,329.08L874.94,328.75L876.69,338.57L879.16,342.28L881.06,339.9L882.99,344.15L885.22,353.3L887.13,348.46L888.99,354.36L891.38,355.85L893.31,351.95L895.14,349.89L897.66,357.63L901.37,333.9L903.67,351.67L905.57,342.5L907.57,347.62L911.72,340.97L913.84,343.17L918.06,325.54L919.88,328.04L922.35,345.34L924.27,333.5L926.23,350.93L928.54,348.51L930.5,354.05L932.23,353.54L934.72,348.03L936.66,353.61L938.32,348.1L940.78,327.03L942.68,340.38L944.66,343.69L946.88,343.74L948.94,355.28L950.89,347.23L953.11,334.69L954.99,336.3L956.95,334.67L959.35,342.42L961.1,340.98L963.02,342.07L965.61,334.18L967.41,350.72L969.35,353.07L971.67,355.05L973.62,348.94L975.59,337.93L977.49,335.8L979.72,352.17L981.7,347.99L983.63,316.36L985.77,344.47L987.67,336.06L989.55,339.79L992.07,317.41L993.83,324.23L998.24,350.79L1000.01,346.33L1002.12,329.14L1004.51,319.86L1008.09,243.77L1010.58,316.6L1012.49,357.85L1014.48,368.57L1018.69,381.39L1020.52,382.9L1024.68,383.99" style="vector-effect: none; fill: none; stroke: rgb(128, 133, 233); stroke-opacity: 1; stroke-width: 2px; opacity: 1;"/></g><g class="points"/><g class="text"/></g><g class="trace scatter traceba7b12" style="stroke-miterlimit: 2; opacity: 1;"><g class="fills"/><g class="errorbars"/><g class="lines"><path class="js-line" d="M0,384.53L24.69,384.32L26.58,384.32L38.94,384.2L41.36,383.6L43.19,382.83L45.18,357.02L47.53,355.38L49.42,334.65L51.39,352.39L53.18,340.43L55.69,359.91L57.47,361.2L59.35,334.55L61.72,327.29L63.6,342.26L65.51,344.39L67.9,341.84L69.82,324.3L71.74,309.79L74.11,323.9L76.02,314.41L77.87,312.71L80.24,326.92L82.2,273.67L84.03,335.07L86.46,315.46L88.28,288.5L90.32,303.93L92.64,266.75L94.5,276.16L96.5,294.43L98.72,286.68L100.77,249.32L102.54,278.29L104.94,270.46L106.86,226.59L108.79,218.18L111.12,248.01L114.95,293.91L117.27,287.06L119.17,285.07L121.06,203.6L123.41,269.32L125.37,229.62L127.2,229.99L129.68,257.62L131.5,202.94L133.38,227.52L135.76,226.47L137.82,127.67L139.56,136.87L141.98,139.29L143.86,156.74L145.7,195.89L148.22,274.32L150.09,257.99L153.83,162.03L156.33,205.63L158.09,174.28L159.94,182.58L162.34,196.51L164.38,251.47L166.11,212.76L168.49,194.15L170.41,240.34L172.35,253.85L174.86,274.53L176.73,272.82L178.45,248.19L180.86,262.15L182.89,288.11L184.65,275.72L187.04,287.21L189.05,288.44L190.87,295.16L193.29,288.95L195.25,295.43L196.98,275.63L199.33,291.99L201.26,281.3L203.29,307.46L205.63,303.61L207.49,300.96L209.33,286.22L211.83,292.72L213.65,232.99L215.52,283.14L217.88,299.46L219.78,297.7L221.72,262L224.06,262.4L226.02,260.69L227.96,302.8L230.24,311.24L232.25,301.13L234.06,284.49L236.48,247.23L238.3,258.66L240.22,275.16L242.55,279.59L244.5,305.93L246.49,280.8L248.73,272.53L250.78,296.36L252.64,251.41L254.92,289.95L256.86,302.53L258.83,296.54L260.56,287.89L263.06,247.58L265.05,253.79L266.86,223.32L269.25,208.36L271.16,204.38L273.03,187.58L275.42,202.21L277.22,202.64L279.11,215.56L281.52,215.64L283.52,209.27L285.3,269.27L287.77,278L289.71,271.04L291.44,282.28L293.91,278.05L295.82,253.64L297.61,253.42L300.14,226.78L301.91,206.28L303.75,225.33L308.2,204.49L310.07,251L312.37,258.86L314.21,211.27L316.15,197.46L318.64,209.59L320.38,216.94L322.26,188.18L324.72,190.37L326.67,178.56L328.57,222.36L330.82,224.61L332.7,215.16L334.63,216.62L337.13,186.51L339.03,212.71L340.87,242.15L343.16,218.11L345.05,219.9L347.01,209.65L349.38,159.75L351.26,197.64L353.24,224.87L355.5,219.35L357.4,228.71L359.45,198.28L361.23,206.16L363.6,200.72L365.52,212.4L367.42,215.44L371.65,253.31L373.65,246.35L376.07,205.73L377.87,234.07L379.9,224.95L382.13,192.97L385.85,241.98L388.4,221.13L390.14,208.57L392.05,253.05L394.59,234.16L396.35,250.71L398.34,224.16L400.64,206.69L402.65,203.07L404.38,217.1L406.87,263.39L408.74,260.33L410.68,264.03L413.07,246.86L414.87,240.25L416.72,267.92L419.16,251.85L421.05,232.34L422.99,235.98L425.36,203.59L427.17,188.24L429.12,240.13L431.49,243.04L433.38,226.84L435.32,227.74L437.6,243.56L439.55,250.89L441.43,244.18L443.98,254.39L445.76,266.16L447.57,268.62L449.99,254.14L451.97,250.91L453.77,255.48L456.23,258.52L458.1,270.18L460.02,260.64L461.9,240.76L464.32,201.15L466.14,194.54L470.33,224.34L472.32,226.04L474.28,257.28L476.56,261.4L478.53,256.58L480.34,269.9L482.67,265.26L484.61,266.15L486.47,261.71L488.97,253.77L490.76,239.76L492.71,269.73L495.11,274.26L497.09,224.14L499,185.84L501.23,218.49L503.11,251.79L505.2,264.65L507.39,271.01L509.3,263.86L511.24,219.61L513.52,223.54L515.49,266.44L517.37,276.72L519.83,274.71L521.63,262.7L523.56,274.43L525.86,248.64L528,253.09L529.77,275.1L532.21,242.82L533.93,239.38L535.83,248.8L538.22,212.22L540.26,241.55L542.01,248.48L544.53,263.23L546.52,283.19L548.27,270.6L550.65,273.36L552.63,280.83L554.39,265.96L556.72,267.98L558.63,283.08L560.64,303.31L562.92,272.63L564.88,272.14L566.88,260.39L568.62,246.02L571.08,247.58L572.89,243.51L574.95,256.88L579.17,289.47L581.05,275.53L583.39,277.44L585.2,293.34L587.28,284.08L589.47,265.42L591.49,276.22L593.31,259.61L595.67,274.38L597.53,253.48L599.48,256.34L601.97,276L603.77,265.39L605.67,235.87L608.01,237.57L610.09,245.23L614.31,257.16L616.19,242.88L618,274.15L620.38,268.93L622.27,257.27L624.16,276.04L626.59,244.04L628.58,252.41L630.34,255.14L632.73,261.53L634.56,271.6L636.64,276.44L638.92,241.44L640.83,180.73L642.72,242.81L645.11,273.96L647.14,279.79L648.89,266.27L651.33,267.14L653.13,235.56L655.1,214.19L657.52,231.61L659.42,239.7L661.22,234.39L663.54,255.66L665.54,243.51L667.41,265.89L669.24,234.35L671.76,248.43L673.6,232.31L675.46,278.25L677.88,299.69L679.74,323.73L681.67,311.43L685.94,275.24L687.79,293.26L692.19,248.07L693.94,269.71L696.45,276.67L698.27,312.49L700.17,282.77L702.62,271.72L704.42,280.82L706.43,277.16L708.8,302.64L710.64,248.59L712.46,263.96L714.95,297.58L716.69,294.8L718.71,272.42L720.99,274.98L723.01,287.92L724.75,276.67L727.26,284.33L731.07,306.04L733.31,294.76L735.36,289.41L737.1,310.85L741.47,294.61L743.24,266.67L745.74,194.74L747.69,217L749.6,267.42L751.88,284.26L753.73,269.4L755.71,284.24L757.96,278.36L759.88,278.01L761.84,309.23L764.33,305.41L766.01,310.19L768.02,289.27L769.94,317.74L772.25,299.44L776.21,321.35L778.5,320.07L780.25,306.22L782.27,314.32L784.71,308.51L786.57,307.18L788.36,293.22L790.8,301.37L792.71,229.49L794.49,239.35L798.76,276.36L800.74,288.66L803.06,294.31L805.1,283.6L806.9,283.36L809.37,325L811.15,308.84L813.06,319.5L817.37,314.69L819.37,305.38L821.63,300.81L823.44,280.5L825.51,265.71L827.88,265.19L831.53,324.63L834,303.25L835.87,322.17L837.82,300.69L840.23,305.22L842.07,311.31L843.93,305.37L846.27,289.86L848.31,277.89L850.09,283.9L852.6,275.51L854.34,299.16L856.31,320.35L858.65,305.08L860.54,294.96L862.41,308.66L864.91,308.84L866.8,284.37L868.53,301.93L871.05,315L872.82,312.66L874.71,328.99L876.79,313.37L879.06,271.36L882.99,320.11L885.34,302.48L887.2,263.83L889.04,297.78L891.47,317.92L893.42,321.89L895.32,316.5L897.55,330.88L899.46,330.03L901.37,316.23L903.76,309.44L905.67,316.98L907.61,315.27L909.97,336.26L911.88,314.87L913.79,311.51L916.13,307.46L917.89,324.19L919.81,322.53L922.22,321.61L924.09,321.95L926.17,323.38L928.42,294.05L930.36,321.37L932.32,327.3L934.5,317.22L936.42,323.95L938.48,339.69L940.87,329.51L942.69,342.76L944.63,343.22L947.04,342.71L948.74,347.95L950.86,348L953.09,350.68L955,351.06L957,350.11L959.26,361.61L961.13,334.71L963.16,350.74L965.54,347.85L967.29,350.54L969.36,352.19L971.72,363.18L973.53,362.55L975.44,353.69L977.37,343.58L979.64,350.59L981.71,322.99L983.6,324.11L985.88,318.4L987.72,317.23L989.68,331.02L992.04,341.32L994.02,354.52L995.8,349.87L998.16,349.4L1000.18,332.2L1002.08,284.28L1004.3,275.44L1006.17,265.91L1008.23,297.89L1012.5,377.03L1014.44,375.39L1016.72,375.87L1018.6,381.33L1020.44,383L1022.78,382.04L1024.67,383.74" style="vector-effect: none; fill: none; stroke: rgb(241, 92, 128); stroke-opacity: 1; stroke-width: 2px; opacity: 1;"/></g><g class="points"/><g class="text"/></g><g class="trace scatter tracea98b5a" style="stroke-miterlimit: 2; opacity: 1;"><g class="fills"/><g class="errorbars"/><g class="lines"><path class="js-line" d="M0,384.46L45.12,384.47L47.5,384.32L57.44,382.1L59.32,383.58L65.53,383.57L67.94,382L69.8,383.46L71.7,383.69L75.95,383.45L77.84,382.4L80.28,381.66L82.14,382.18L84.01,381.62L86.39,382.12L88.31,378.44L90.23,379.24L92.74,371.76L94.5,379.57L96.43,376.8L98.82,359.92L100.72,355.38L102.56,358.69L105.04,346.52L106.93,347.06L108.89,343.71L111.14,323.7L112.96,308.17L115.07,340.13L117.29,328.12L119.2,323.81L121.16,325.04L123.53,286.65L125.43,325.71L127.26,278.04L129.67,308.12L131.66,277.63L133.37,282.41L135.86,340.55L139.57,296.89L142.09,302.57L143.92,324.56L145.92,306.45L148.22,219.29L150,282.92L151.91,283.46L153.92,266.11L156.2,275.45L158.23,288.41L160.12,291.54L162.32,230.43L164.24,277.43L166.21,303.26L170.52,297.82L172.4,278.29L174.75,261.88L176.6,231.38L180.87,291.98L182.87,245.93L184.7,286.83L187,271.73L189.01,228.12L190.97,229.69L193.17,237.53L195.08,237.51L197.03,233.39L199.41,241.4L201.35,239.69L203.13,239.56L205.62,266.41L207.54,257.27L209.42,215.77L211.78,248.06L213.58,220L215.6,246.61L217.97,245.64L219.78,254.39L221.74,246.65L224.05,241.03L225.94,181.59L227.85,194.17L230.27,182.92L232.11,201.27L234.01,230.13L236.51,227.07L238.3,236.6L240.31,264.19L242.55,194.01L244.45,191.5L246.34,193.78L248.71,235.7L250.71,170.15L252.58,138.88L258.66,183.09L260.56,184.3L262.98,240L265.03,235.49L266.81,196.55L269.27,251.22L271.12,225.16L273.07,240.81L275.28,268.86L277.26,261L279.1,163.45L281.69,239.88L283.35,268.98L285.32,269.32L287.79,201.44L289.55,210.95L291.45,272.15L293.94,252.36L295.73,256.92L297.7,270.41L300.12,219.58L302,251.18L303.96,235.6L306.17,224.68L308.19,256.41L309.95,202.06L314.37,181.31L316.25,205.98L320.47,124.34L322.29,96.07L324.79,110.33L326.62,139.44L328.46,97.8L330.83,86.57L332.82,82.28L334.68,118.12L337.07,199.89L338.9,210.19L340.91,201.15L343.2,197.03L345.04,213.5L346.99,203.4L349.45,194.96L351.31,215.43L353.27,197.98L355.56,195.27L357.54,189.89L359.29,194.15L361.23,204.25L363.59,192.35L365.58,190.32L367.4,181.09L369.81,167.37L371.74,173.55L373.55,173.14L375.92,223.45L377.92,164.33L379.83,199.47L382.11,202.91L384.01,200.34L385.85,188.88L388.28,206.47L390.24,191.83L392.09,201.92L394.51,179.23L396.4,169.6L398.26,201.39L400.7,209.19L402.49,227.42L404.48,179.35L406.86,178.05L408.64,217.13L410.57,211.33L412.97,198.37L414.86,206.39L416.83,205.85L419.14,174.9L421.03,175.33L422.94,222.52L425.42,196.68L427.15,206.26L429.13,184.66L431.54,222.31L433.41,175.9L435.24,179.76L437.7,200.77L439.49,195.63L441.51,132.2L443.95,203.86L445.66,196.33L447.58,197.1L450.03,150.5L453.73,215.22L456.13,182.62L458.11,189.73L460.06,185.05L461.9,198.32L464.3,207.35L466.18,200.53L468.07,216.82L470.34,197.4L472.32,223.22L474.22,237.95L476.56,200.09L478.46,164.7L480.44,196.47L482.76,223.14L484.63,222.27L486.62,186.31L488.91,214.17L490.75,228.55L492.75,203.84L495.13,220.47L496.97,224.9L498.83,222.74L501.36,236.91L503.11,203.76L505.17,214.64L507.37,224.34L509.4,163.34L511.32,211.45L513.62,238.53L515.47,243.02L517.41,217L519.82,230.66L521.66,180.13L523.64,242.89L525.96,261.34L527.76,269.36L529.66,211.71L532.11,266.91L533.98,262.12L535.89,262.06L538.25,281.77L540.13,196.31L542.12,214.89L544.49,231.1L546.33,223.11L548.23,207.37L550.75,276.68L552.6,245.76L554.35,158.5L556.76,232L558.74,259.36L560.67,251.41L563.01,257.75L564.85,263.66L566.79,273.01L568.74,249.12L571,257.76L572.93,261.61L574.82,269.35L577.15,240.2L579.14,270.13L580.93,272.71L583.32,291.78L585.25,271.03L587.17,239.11L589.47,267.84L591.38,267.28L593.47,220.96L595.81,188.44L597.64,246.52L599.5,244.71L601.92,253.56L603.77,218.66L605.74,280.42L607.97,249.92L611.84,219.11L614.26,265.58L616.21,229.12L617.99,249.7L620.44,199.94L622.28,252.85L624.19,223.08L626.53,240.27L628.41,252.3L630.45,213.16L632.82,225.16L634.64,210.39L636.55,247.89L638.9,204.59L640.85,223.35L642.72,216.91L645.21,255.07L647.03,193.67L648.86,172.25L651.32,214.53L653.25,119.96L655.07,168.98L657.37,154.85L659.38,186.93L661.16,155.77L663.54,171.19L667.3,223.66L669.38,223.31L673.51,260.75L675.42,235.27L677.94,267.32L679.7,301.8L681.53,294.32L684.04,292.8L685.96,265.78L687.9,275.16L690.12,289.92L692.03,285.28L693.91,264.25L696.45,283.17L700.05,202.39L702.42,249.21L704.33,276.37L706.38,292.3L710.63,273.4L712.54,290.31L716.76,271.34L718.64,269.12L721.03,293.59L722.84,284.15L724.86,300.07L727.15,297.24L729.15,294.01L730.99,301.05L733.42,266.67L735.18,255.53L737.14,262.03L739.54,256.38L741.34,220.39L743.36,275.15L745.7,257.94L747.54,301.75L749.51,315.74L751.91,301.33L753.75,293.31L755.65,297.09L758.08,303.02L759.98,310.59L761.75,307.15L764.14,310.21L766.11,320.07L767.91,301.91L769.86,311.28L772.25,305.55L774.15,274.36L776.12,279.87L778.59,299.1L780.31,276.49L782.34,283.14L784.69,264.36L786.58,272.14L788.37,254.52L790.8,247.72L792.69,228.62L794.5,186.7L797.08,384.41L803.03,384.54L804.94,384.42L809.2,384.5L811.11,354.65L813.08,263.17L815.47,322.07L819.23,313.77L821.62,321.71L823.56,317.19L825.34,305.76L827.88,322.49L829.79,300.1L831.7,338.29L834.02,301.22L835.85,321.07L837.75,326.85L840.09,327.14L842.02,261.76L843.9,269.46L846.4,380.87L848.24,384.31L850.02,384.64L854.61,384.33L856.31,383L858.69,380.51L860.73,382.1L866.71,377.91L868.8,377.46L873.03,374.52L874.72,374.54L879.1,370.1L880.95,371.43L882.76,370.72L885.29,371.24L889.04,369.54L891.37,370.47L893.23,369.85L895.28,373.39L897.67,375.65L899.42,369.37L901.28,370.95L903.86,375.03L905.81,369.39L907.72,370.02L909.88,352.79L911.76,358.4L913.73,354.58L916.16,357.08L917.91,365.71L920.04,371.73L922.34,363.37L924.19,370.91L926.08,368.19L928.56,368.03L930.29,361.59L932.37,363.6L934.61,362.29L936.59,364.37L938.3,351.32L940.68,353.78L942.75,352.81L944.7,354.44L946.89,353.65L948.86,354.61L950.7,353.16L953.08,346.97L955.06,332.05L956.89,336.92L959.2,349.46L961.11,341.23L962.99,330.86L965.36,339.7L967.28,343.35L969.34,355.77L973.54,340.17L975.43,354.28L977.39,344.2L979.65,352.71L981.71,357.38L983.65,358.41L985.81,360.5L987.78,358.6L989.63,350.16L991.92,351.1L993.92,350.28L995.89,346.03L998.35,359.59L1000.08,353.57L1002.05,341.79L1004.53,350.06L1006.29,329.28L1008.25,340.86L1010.43,323.51L1012.35,329.56L1014.46,327.05L1016.65,299.52L1018.61,257.1L1020.56,276.69L1022.88,268.8L1024.84,207.69" style="vector-effect: none; fill: none; stroke: rgb(228, 211, 84); stroke-opacity: 1; stroke-width: 2px; opacity: 1;"/></g><g class="points"/><g class="text"/></g><g class="trace scatter trace6903b6" style="stroke-miterlimit: 2; opacity: 1;"><g class="fills"/><g class="errorbars"/><g class="lines"><path class="js-line" d="M0,384.83L28.95,384.65L30.87,384.5L38.92,383.71L41.4,380.7L43.29,374.85L45.25,374.64L47.57,167.41L49.38,259.75L51.4,317.07L53.21,327.66L55.66,335.83L57.47,308.89L59.36,303.98L61.73,328.13L63.65,317.08L65.64,292.68L67.9,173.32L69.82,281.84L71.81,104.3L74.09,233.17L76,224.39L78,194.1L80.21,195.56L82.18,225.59L84.04,191.83L86.39,198.71L88.28,265.22L90.19,261.61L94.56,331.25L96.45,334.87L98.81,318.86L100.61,337.94L104.9,307.87L106.8,301.69L108.8,293.15L111.08,315.81L112.97,169.84L114.98,228.38L119.17,280.36L121.19,301.63L123.62,257.33L125.39,263.8L127.33,281.09L129.68,286.07L131.56,292.97L133.37,265.7L135.76,254.13L137.66,277.58L139.72,300.11L142.13,276.91L143.9,240.68L145.8,243.93L148.08,256.94L150,246.77L151.89,248.52L153.82,282.91L156.19,251.72L158.06,248.46L159.98,236.17L162.34,263.25L164.29,280.77L166.24,290.65L168.64,287.25L170.4,271.72L172.42,296.66L174.79,307.23L176.71,248.67L178.52,246.91L180.82,242.7L182.81,268.78L184.84,296.09L187.05,297.34L189.03,265.99L190.95,305.2L195.15,279.78L197.19,291.48L199.39,315.51L201.34,297.07L203.15,297.54L205.58,279.7L207.55,278.85L209.39,296.86L211.7,284.6L213.69,294.42L215.56,295.66L217.99,294.73L219.8,275.08L221.77,281.63L224.13,270.05L226.13,252.51L227.95,248.04L230.37,308.03L232.28,281.76L234.13,277.38L236.42,259.46L238.3,259.47L240.2,289.84L242.67,274.2L246.35,294.54L248.88,302.6L250.72,278.53L252.61,282.71L254.93,280.29L256.88,283.94L258.84,294.52L260.67,292.09L263.11,286.27L264.9,259.97L266.73,301.48L269.15,280.39L271.14,301.29L272.98,300.62L275.36,282.07L277.31,288.19L279.32,288.14L281.5,264.55L283.34,213.41L285.47,269.08L287.71,287.71L289.51,261.98L291.54,265.19L293.94,261.23L295.79,272.07L297.67,246.32L301.87,271.53L303.83,256.63L306.23,260.64L308.18,272.88L310.08,296.03L312.46,291.9L314.29,278.86L316.09,278.38L318.54,277.06L320.47,299.09L322.42,286.45L324.77,286.89L326.54,282.08L328.43,294.6L330.8,287.12L332.79,276.87L334.77,260.1L337.08,267.87L339,252.97L340.8,254.97L343.18,275.62L345.17,271.03L347.01,282.6L349.37,228.86L351.28,233.23L353.13,234.47L355.57,249.47L357.52,234.15L361.21,279.35L363.6,240.06L365.61,243.51L367.47,261.13L369.84,180.18L371.62,229.83L373.55,248.49L375.93,210.78L377.81,218.98L379.75,210.53L382.08,283.83L383.99,273.09L385.91,227.63L388.42,220.26L390.35,248.52L392.08,245.86L394.45,275.51L396.31,267.89L398.33,283.87L400.7,296.55L402.66,295.27L404.41,270.2L406.76,281.79L408.76,280.97L410.54,277.45L412.97,256.57L414.82,250.65L416.83,279.71L419.22,304.81L421.08,289.74L422.91,282.68L425.29,294.49L427.33,285.55L429.16,291.84L431.51,287.21L433.37,286.26L435.24,286.15L437.71,267.2L439.62,258.92L441.46,273.54L443.86,281.2L445.73,284.46L447.59,287.13L449.95,281L451.86,272.84L453.79,271.32L456.16,282.97L458.19,283.15L460.09,299.73L461.99,299.12L466.17,285.18L468.03,302.42L470.4,269.88L472.39,286.58L474.16,288.31L476.72,286.37L478.59,265.39L480.37,282.86L482.8,267.37L484.7,228.26L486.64,273.31L488.89,305.36L490.86,312.48L492.66,314.45L497.01,284.86L498.99,293.82L501.35,284.7L503.09,283.15L505.05,303.72L507.36,286.36L509.36,286.72L511.15,289.34L513.67,285.72L515.53,271.45L517.45,215.84L519.82,210.66L521.6,246.68L523.56,260.58L526.03,297.93L527.8,286.77L529.88,318.24L532.21,266.24L533.98,271.14L535.85,270.48L538.28,280.81L540.13,271.54L542.12,289.68L544.43,286.39L546.48,298.44L548.19,298.31L550.63,288.98L552.56,313.23L554.35,310.51L556.72,295.89L558.76,317.21L560.56,304.45L564.88,290.84L566.76,316.13L568.6,285.35L571.01,315.48L572.89,288.29L574.75,282.98L577.19,281.77L579.14,271.17L581.05,259.71L583.34,240.58L585.25,286.26L587.16,288.46L589.47,295.5L591.57,280.93L593.4,267.29L595.63,264.96L597.73,260.06L599.58,289L603.78,308.58L605.61,292.94L608.02,268.9L610.04,258.79L611.9,262.18L614.15,244.94L616.08,230.72L618.01,261.6L620.46,294.8L622.39,280.7L624.11,303.28L626.57,291.66L628.39,289.69L630.36,296.33L632.86,279.19L634.62,311.94L636.52,282.94L638.82,294.02L640.72,298.87L642.72,290L644.99,315.14L646.94,304.1L648.94,318.37L651.15,284.02L653.21,285.26L655.02,314.72L659.39,276.25L661.16,301.04L663.58,274.29L665.48,291.94L667.47,318.84L669.39,287.52L671.64,290.35L673.47,309L675.47,293.41L677.84,315.89L679.69,322.06L681.72,306.3L684.15,317.06L685.96,315.91L687.74,313.29L690.24,324.17L692,305.1L694.12,297.75L696.37,312.71L698.19,298.69L700.16,305.37L702.6,302.86L706.3,316.31L708.73,295.67L710.55,271.82L712.59,206.92L714.88,289.56L716.7,275.44L718.75,304.79L721.15,295.66L723.04,304.59L724.89,288.55L727.26,297.42L729.14,295.26L730.92,311.56L733.41,326.16L735.28,308.95L737.14,323.74L739.5,314.34L741.37,313.8L743.39,319.56L745.84,316.92L747.63,277.95L749.51,310.47L751.9,290.77L753.78,305.48L755.74,307.25L758.17,328.16L761.82,303.91L764.19,296.58L766.02,290.23L768.02,296.7L769.89,303.53L772.22,299.22L776.11,337.92L778.49,344.3L780.31,317.93L782.26,323.79L784.7,312.3L786.54,324.18L788.35,299.4L790.78,323.18L792.6,329.76L794.67,331.95L796.94,324.26L798.88,327.73L800.73,304.9L803.19,302.68L805.17,325.3L806.85,335.37L809.24,336.53L811.28,305.21L813.12,302.59L815.53,316.73L817.49,310.58L819.17,301.28L821.6,305.12L823.5,279.98L825.4,279.82L827.79,299.99L829.73,302.47L831.66,328.24L834.09,334.35L835.93,329.41L837.68,314.55L840.26,315.99L842.05,319.2L844.01,299.5L848.38,324.21L850.01,320.29L852.65,342.15L854.5,338.88L858.77,314.2L860.56,286.65L862.6,271.98L864.95,295.62L866.86,283.05L868.71,314.85L870.9,304.9L872.83,334.78L874.83,349.87L876.75,349.32L880.91,338.24L882.89,319.64L885.25,329.61L887.06,275.18L889.01,301.23L891.45,308.2L895.33,337.53L897.64,317.92L903.77,344.45L905.68,345.24L907.53,345.47L910.05,348.67L911.85,355.99L913.62,343.97L916.14,347.53L917.9,329.85L919.91,323.6L922.24,342.52L924.3,339.43L926,346.25L928.53,337.98L930.27,327.02L932.17,337.02L934.49,340.02L936.52,318.69L938.33,335.89L940.67,317.6L942.66,331.98L944.59,338.75L946.92,352.98L948.82,335.78L950.68,350.25L953.16,355.45L955.04,334.08L956.95,342.6L959.3,341.66L961.3,344.99L963,333.52L965.36,341.96L967.4,356.41L969.25,350.4L971.71,350.13L973.62,353.95L975.5,345.21L977.23,356.7L979.77,359.37L981.48,360.24L983.4,353.23L985.76,351.7L987.75,351.42L989.68,360.49L992.08,348.92L994.02,355.66L995.8,365.71L998.15,365.63L1000.15,349.61L1002.06,291.72L1004.46,253.06L1006.16,241.75L1008.2,336.04L1010.52,363.4L1012.44,374.96L1016.7,380.38L1018.55,376.78L1020.43,380.29L1022.78,382.61L1024.73,383.82" style="vector-effect: none; fill: none; stroke: rgb(43, 144, 143); stroke-opacity: 1; stroke-width: 2px; opacity: 1;"/></g><g class="points"/><g class="text"/></g><g class="trace scatter trace13476a" style="stroke-miterlimit: 2; opacity: 1;"><g class="fills"/><g class="errorbars"/><g class="lines"><path class="js-line" d="M0,384.77L22.8,384.76L24.7,384.71L37.03,384.62L38.96,383.8L41.38,382.65L43.2,360.41L45.1,208.13L47.56,314.56L49.4,324.17L51.39,298.56L53.34,259.04L55.56,274.59L57.45,341.96L59.34,293.22L61.72,282.42L63.64,211.73L65.6,274.85L67.88,202.29L69.88,112.93L71.88,252.56L74.22,248.51L76.09,263.43L78,264.39L80.22,118.11L82.23,98.99L84.03,211.54L86.48,261.83L88.28,190.27L90.32,303.11L92.64,306.75L94.5,310.68L96.49,258.59L98.8,231.21L100.73,297.46L102.64,324.38L104.94,299.7L106.91,314.7L108.73,261.74L113,192.08L114.86,201.5L117.31,210.9L119.13,244.78L121.05,250.79L123.42,266.66L125.38,283.69L127.21,279.98L129.75,262.6L131.63,284.72L133.38,289.37L135.82,272.69L137.71,291.66L139.8,280.48L141.94,261.92L143.94,258.03L145.74,228.06L148.11,220.24L150.06,208.1L151.9,228.53L153.88,231.02L156.14,229.39L158.29,258.05L160.09,241.5L162.37,244.03L164.21,248.41L166.19,267.14L168.69,274.41L170.51,257.87L172.35,281.45L174.88,246.61L176.73,207.45L178.55,201.17L180.93,225.08L182.72,216.26L184.66,194.5L187.03,187.98L188.97,192.26L190.83,197.25L193.18,161.27L195.08,189.87L197.15,263.47L199.45,239.23L201.26,242.55L203.16,243.19L205.65,267.18L207.48,278.51L209.47,270.51L211.68,282.3L213.59,281.61L215.48,299.61L218.01,268.06L221.71,296.34L224.17,278.9L226,260.58L227.91,276.03L230.33,263.57L232.23,279.44L234.03,278.58L236.41,286.02L238.4,262.85L240.26,275.17L242.76,269.89L244.47,309.33L246.49,280.65L248.75,265.48L252.72,298.09L254.97,250.35L256.83,256.79L258.68,270.76L260.62,268.23L262.94,247.01L265.01,232.57L266.86,237.65L269.25,293.37L271.02,275.33L273.1,274.77L275.3,266.82L277.27,287.71L279.19,259.35L281.51,225.93L283.34,235.93L285.31,265.45L287.78,254.56L289.64,248.92L291.43,256.76L293.82,277.64L295.75,270.57L297.69,284.06L300.16,292.5L303.75,301.19L306.26,291.9L308.13,289.23L310.05,273.63L312.32,268.7L314.31,258.07L316.1,239.79L318.65,263.43L320.46,292.99L322.3,273.03L326.56,254.97L328.58,243.59L332.84,296.39L334.71,264.05L336.99,235.63L338.95,240.03L340.87,229.81L343.14,246.28L345.18,261.05L347.09,241.93L353.31,256.11L355.65,282.74L357.4,243.04L359.32,262.75L361.25,288.54L363.61,191.57L365.51,142.45L367.45,184.97L369.81,220.36L371.72,273.26L373.55,289.05L375.99,281.19L377.86,217.34L379.74,255.26L382.13,252.27L384,271.49L386.03,230.56L388.4,279.29L390.12,256.18L392.09,244.32L394.46,157.99L396.37,210.24L398.32,221.65L400.67,216.82L402.63,239.12L404.55,219.71L406.77,172.05L408.65,229.06L410.68,243.65L412.99,250.71L414.86,278.79L416.76,238.85L419.23,267L421.02,250.14L422.9,260.19L425.42,309.91L429.12,279.01L431.55,266.72L435.27,247.36L437.59,268.92L439.71,275.15L441.51,273.31L443.93,295.78L445.79,272.35L447.63,262.01L449.93,256.64L452.02,281.38L453.84,276.21L456.17,254.04L458.07,284.57L459.93,262.88L461.87,288.18L464.24,238.9L466.23,265.67L468.07,272.46L470.41,290.28L472.3,302.22L474.31,282.53L476.62,289.57L478.53,285.42L480.35,314.19L482.7,271.4L484.79,280.29L486.52,297.39L488.98,276.69L490.88,288.31L492.72,245.6L495.23,298.57L498.96,285.13L501.37,289.38L503.08,286.91L505.02,269.6L507.46,290.09L509.34,279.25L511.19,292.87L513.61,279.77L517.36,238.27L519.71,231.99L521.7,285.45L523.6,292.19L525.92,278.18L527.77,254.01L529.74,201.29L532.1,204.28L535.83,167.1L538.2,205.94L540.1,205.28L542.02,197.73L546.35,250.71L548.45,251.51L550.6,253.83L552.48,263.51L554.56,281.37L556.9,278.6L560.63,256.02L562.94,300.37L564.91,296.65L566.82,264.68L568.69,292.5L571.16,233.53L574.84,286.41L577.12,293.35L579.23,306.57L581.07,298.02L583.36,275.91L585.2,277.46L587.08,285.59L589.51,275.42L591.51,264.82L593.38,295.51L595.7,265.61L597.63,278.69L599.44,266.59L601.9,280.69L603.84,300.01L605.69,295.86L608.02,290.69L610.03,302.41L611.96,294.14L614.25,254.76L616.25,280.58L618.15,283.15L620.44,267.31L622.35,286.38L624.18,285.23L626.68,277.2L628.55,280.57L630.34,293.7L632.66,288.35L634.7,291.5L636.63,270.81L638.85,259.36L640.79,299.22L642.65,287.91L645.04,294.49L646.99,183.71L648.8,249.22L651.33,300.6L653.17,316.28L655.13,308.36L657.48,286.76L659.4,291.82L661.32,297.54L663.62,277.4L665.5,283.13L667.32,279.53L669.31,280.74L671.6,285.17L673.68,295.05L675.37,256.61L677.79,274.97L679.66,225.21L681.57,251.25L684.11,252.43L685.91,290.57L687.81,260.74L690.26,271.25L692.08,234.67L694.12,233.71L696.36,268.69L698.41,295.39L700.2,281.1L704.49,314.08L706.26,314.65L710.62,271.82L712.57,265.59L714.97,284.5L716.7,289.93L718.67,285.24L721.05,303.7L722.84,296.23L724.76,261.53L727.11,204.13L729.09,231.62L730.92,174.74L733.33,215.78L735.23,196.85L737.2,194.47L741.57,223.98L743.23,218.46L745.73,276.43L747.73,277.42L749.61,294.86L751.83,293.18L753.69,275.49L755.61,290.29L758.03,312.07L760.04,285.36L761.84,249.69L764.26,257.89L766.17,272.55L767.92,243.13L769.86,281.38L772.35,291.23L774.26,264.92L776.14,300.51L778.49,303.21L780.26,303.86L782.28,307.46L784.64,282.2L786.47,313.2L788.37,317.96L790.85,327.65L792.67,327.85L794.56,338.34L797.03,321.68L798.95,312.44L800.81,315.65L803.17,304.92L804.94,321.08L806.93,325.09L809.29,314.47L811.21,314.27L813.23,304.59L815.41,299.36L817.31,302.95L819.41,307.98L821.67,324.42L823.54,325.86L825.34,298.91L827.83,296.75L829.61,289.33L835.78,320.92L837.82,330.95L840.16,332.34L841.96,323.58L843.88,313.32L846.38,325.02L848.14,324.93L850.18,327.8L852.4,310.36L854.51,325.17L856.3,308.33L858.8,325.81L860.56,323.07L862.48,329.73L864.87,332.14L866.88,353.08L871.05,342.36L872.8,330.06L874.76,319.29L876.62,314.13L880.95,335.46L883.02,336.85L885.2,338.11L887.26,357.27L889.19,341.31L891.36,343.5L893.34,346.23L895.3,345.99L897.72,328.23L899.38,338.26L901.42,341.17L903.85,322.03L905.77,322L907.64,310.87L909.88,307.7L911.86,313.37L913.71,339.36L916.11,343.71L917.96,326.1L919.97,321.13L922.3,333.33L924.1,337.17L926.21,331.7L928.55,336.29L930.31,339.91L932.26,349.19L934.55,332.89L936.4,330.47L938.45,316.95L940.78,325.29L942.73,314.23L944.64,327.41L947,334.23L948.85,331.55L953.11,349.99L954.96,340.54L956.82,313.13L959.29,308.54L961.15,290.51L963.1,302.88L967.36,330.48L969.36,327.37L971.55,317.93L973.56,339.93L975.34,337.5L977.24,340.31L979.73,332.12L981.52,342.72L985.95,366.31L987.79,363.56L989.76,368.35L991.94,355.51L996.01,367.59L998.12,364.28L1000.14,362.27L1002.12,334.83L1004.49,321.16L1006.36,285.89L1008.21,288.63L1010.52,327.9L1012.5,368.71L1014.26,379.42L1016.74,379.88L1018.83,369.77L1020.6,382.18L1022.8,377.1L1024.69,383.3" style="vector-effect: none; fill: none; stroke: rgb(244, 91, 91); stroke-opacity: 1; stroke-width: 2px; opacity: 1;"/></g><g class="points"/><g class="text"/></g><g class="trace scatter trace8f7990" style="stroke-miterlimit: 2; opacity: 1;"><g class="fills"/><g class="errorbars"/><g class="lines"><path class="js-line" d="M0,384.78L20.45,384.73L22.79,384.7L38.92,384.04L41.43,382.99L43.26,331.26L45.16,369.87L47.69,364.95L49.39,283.81L51.4,345.21L53.3,341.79L55.59,291.46L57.43,315.88L59.35,336.7L61.76,237.23L63.61,233.86L65.51,127.57L67.9,167.53L69.86,339.88L71.93,319.67L74.19,253.19L76.08,237.26L77.91,202.15L80.28,222.55L82.23,232.36L84.17,255.86L86.38,234.4L88.36,180.64L90.18,182.63L92.56,274.54L94.46,284.85L96.4,282.65L98.77,286.64L100.63,260.14L102.66,315.47L105.04,321.3L106.83,293.1L108.75,341.1L111.24,326.61L113.04,321.49L115.03,292.41L117.36,306.61L119.15,303.82L121.13,315.59L123.42,286.89L125.37,299.72L127.2,290.51L129.57,292.05L131.52,289.12L135.79,316.97L137.7,326.71L139.6,320.97L142.1,334.35L143.9,317.64L145.85,217.57L148.16,292.67L150.13,296L151.9,292.44L153.83,297.98L156.18,272.88L158.05,284.93L160.07,289.56L162.37,279.99L164.43,292.92L166.29,296.46L168.56,290.25L170.45,248.68L172.32,269.17L174.84,272.45L176.63,261.88L178.48,282.56L181.02,299.07L182.74,304L184.75,212.16L187.02,258.65L188.95,280.88L190.82,254.76L193.33,285.31L195.09,267.49L197.12,307.48L199.41,267.39L201.32,295.08L203.33,243.91L205.6,265.66L207.48,230.04L209.32,242.38L211.72,235.51L213.68,240.71L215.48,251.07L217.88,250.79L219.88,269.19L221.76,271.41L224.19,255.63L225.92,237.85L227.96,226.52L230.18,277.55L232.18,295.04L234,244.59L236.37,259.59L238.39,306.64L240.23,274.78L242.55,246.77L244.59,259.5L246.45,241.03L248.82,299.28L250.84,298.53L252.5,293.18L255.04,285.53L256.88,283.69L258.69,284.49L260.7,292.3L262.95,281.33L264.85,295.6L266.88,288.53L269.27,135.04L271.03,182.82L272.96,200.39L275.35,235.37L277.26,234.72L279.22,250.21L281.62,240.78L283.35,207.87L285.39,223.11L287.64,228.46L289.51,208.18L291.46,224.77L293.88,213.41L295.79,224.1L297.63,218.63L300.03,227.36L301.85,253.76L303.89,247.95L306.35,220.48L308.11,221.7L310.08,231.8L312.46,245.98L314.37,283.64L316.13,299.92L318.5,268.73L320.43,245.74L322.26,259.27L328.65,287.37L330.89,285.47L334.62,238.45L336.97,245.81L338.9,236.98L340.91,247.67L343.35,268.82L345.17,251.69L347.01,229.62L349.42,276.87L351.36,282.17L353.21,252.24L355.63,223.54L357.39,248.45L359.4,255.21L361.24,252.33L363.69,240.99L365.53,195.91L367.48,194.51L369.84,186.55L371.61,176.28L373.68,266.17L376.07,276.9L377.81,224.31L379.79,270.03L382.1,282.18L385.95,223.57L388.3,230.44L390.29,242.26L392.13,245.44L394.53,247.35L396.47,281.55L398.27,200.8L400.65,190.46L404.6,239.22L406.9,254.09L408.76,256.27L410.6,254.7L412.98,209.99L414.93,252.79L416.86,269.68L419.25,223.55L423.04,255.68L425.28,202.16L427.24,237.52L429.13,250.95L431.52,251.04L433.42,219.5L435.28,216.96L437.76,222.85L439.49,223.65L441.51,232.27L443.75,245.79L445.78,266.71L447.71,239.66L450.07,219.11L452.01,215.08L453.93,248.72L456.1,261.67L458.08,280.53L460.05,257.92L461.84,274.5L464.27,241.83L466.26,244.96L468.04,286.24L470.35,300.11L472.38,294.3L474.27,284.37L476.64,290.47L478.5,292.14L482.8,257.74L484.6,273.04L486.63,243.62L488.91,258.48L490.78,159.37L492.67,161.11L495.15,183.09L496.97,212.34L498.96,188.89L501.24,216.92L503.13,215.26L504.99,205.37L509.28,247.01L511.19,282.75L515.56,257.2L517.32,284.91L519.73,271.2L521.59,285.59L523.64,276.92L526.09,250.73L527.94,213.24L529.71,193.49L533.94,254.08L536,260.43L538.29,192.74L540.19,170.1L542.15,149.37L544.45,195.87L546.3,213.07L548.2,205.7L550.58,213.86L552.45,224.15L554.37,219.01L556.84,254.44L558.67,274.68L560.54,258.77L563.11,268.53L564.78,259.11L566.87,264.19L568.8,291.49L570.98,271.85L572.97,281.46L577.31,265L579.06,265.46L581.18,269.28L583.38,255.29L585.38,288.05L587.23,269.7L589.61,297.7L591.43,299.15L595.76,267.7L597.56,284.71L599.62,263.66L601.93,262.85L603.83,272.16L605.68,290.67L608.19,294.67L609.99,279.5L611.87,294.04L614.17,281.86L616.18,272.16L618.08,275.87L620.43,223.12L622.31,260.29L626.67,326.75L628.5,288.85L630.32,261.08L632.89,273.3L634.72,295.09L636.54,244.85L638.86,198.93L640.85,247.43L642.74,293.55L644.99,285.71L646.99,305.73L648.8,314.18L651.4,311.67L653.17,300.13L654.97,299.4L657.51,248.79L661.26,285.66L663.64,250.45L667.39,308.62L669.26,288.59L671.69,298.9L673.67,321.51L675.46,319.93L677.91,303.21L679.63,303.46L681.68,314.77L683.93,309.66L685.95,289.03L687.84,248.86L690.14,289.68L692.03,304.93L693.88,274.57L696.35,260.72L698.29,281.21L700.17,276.03L702.56,294.16L704.46,292.09L706.27,274.59L708.6,303.06L710.51,232.16L712.5,222.81L714.81,233.6L716.66,257.25L718.77,299.88L721.14,279.28L722.95,309.32L724.92,280.87L727.25,301.03L729.16,297.62L730.99,298.2L733.4,301.6L735.39,309.28L737.16,320.87L739.44,316.38L741.49,305.94L743.46,305.77L745.71,298.34L747.56,285.47L749.53,303.59L751.96,310.45L755.57,296.09L758,324.02L760.02,312.6L761.81,308.91L766.2,299.14L768.07,314.19L769.94,296.54L772.3,282.96L774.17,299.46L776.12,243.81L778.39,243.34L780.46,249.68L782.3,259.13L784.52,275.01L786.46,298.83L788.55,286.64L790.89,331.59L792.61,329.16L794.7,329.46L796.99,313.21L798.97,291.39L800.71,283.66L803.2,304.58L804.95,279.46L806.91,266.52L809.47,290.91L811.15,260.06L813.05,275.71L815.47,254L817.31,279.78L819.19,292.09L821.75,301.99L823.66,298.73L825.44,308.76L827.79,313.15L829.68,288.74L831.6,299.37L833.93,318.35L835.81,322.73L837.9,330.27L840.15,332.35L842.21,322.18L843.86,341.17L846.22,342.33L848.21,336.83L850.15,327.19L854.49,313.97L856.24,323.97L860.68,323.54L862.44,289.87L864.9,309.31L866.81,315.25L868.56,281.23L871.04,274.95L872.92,265.05L874.71,290.53L876.73,261.89L879.04,265.74L880.93,279.82L882.93,301.27L885.16,324.1L887.19,324.13L889.09,330.15L891.42,331.09L893.4,292.89L895.39,313.12L897.57,307.48L899.39,278.61L903.82,292.76L905.6,313.35L909.85,254.1L911.76,296.21L913.67,286.62L916.24,320.56L918.02,322.25L919.98,332.56L922.16,343.76L924.16,348.58L925.96,352.16L928.46,328.9L934.57,360.21L936.59,341.49L940.81,322.09L942.78,333.66L944.48,329.08L947,336.9L948.89,346.72L950.83,347.56L953.06,340.32L954.98,342.02L957.07,355.06L959.26,352.3L961.16,351.99L963.1,357.31L965.39,339.96L967.28,349.08L969.16,348.79L971.68,338.41L975.51,354.57L977.41,340.42L981.55,360.53L983.54,357.08L985.85,345.6L987.85,354.34L991.96,334.63L993.94,341.81L998.17,370.72L1000.12,374.13L1002.04,355.01L1004.41,342.95L1006.36,344.6L1008.33,349.55L1010.62,370.28L1012.38,376.07L1014.5,382.45L1016.82,382.28L1018.58,377.34L1020.5,380.46L1024.78,384.13" style="vector-effect: none; fill: none; stroke: rgb(145, 232, 225); stroke-opacity: 1; stroke-width: 2px; opacity: 1;"/></g><g class="points"/><g class="text"/></g><g class="trace scatter trace7026c1" style="stroke-miterlimit: 2; opacity: 1;"><g class="fills"/><g class="errorbars"/><g class="lines"><path class="js-line" d="M0,384.76L32.81,384.37L35.22,384.08L37.05,383.45L38.94,381.42L41.38,366.29L43.41,370.47L45.31,365.2L47.51,333.24L49.48,358.98L51.36,367.25L53.35,364.76L55.59,365.95L59.38,374.78L61.74,377.74L63.63,376.07L65.51,366.94L67.9,347.29L69.8,351.42L74.25,343.12L76.15,348.34L78.04,332.58L80.39,350.01L82.3,352.28L84.15,358.62L86.6,358.57L88.33,361.96L90.42,367.54L92.58,363.47L94.61,365.75L96.61,365.87L100.76,371.97L102.52,363.04L105.03,358.09L106.87,359.92L108.89,366.49L111.25,362.71L113.17,359.46L114.92,352.94L117.38,350.63L119.16,340.75L121.23,356.61L123.58,357.99L125.49,363.46L127.37,361.32L129.65,362.73L131.57,366.3L135.94,372.63L137.75,373.42L142.12,370.18L143.87,369.79L145.75,371.86L148.13,361.73L150.01,346.17L151.93,355.46L153.95,361.17L156.3,354.56L160.08,363.92L162.47,363.33L164.27,355.72L166.35,363.64L168.55,360.84L170.48,362.95L172.49,363.79L174.83,366.51L176.6,363.04L178.48,364.36L181.01,357.81L182.96,363.06L184.63,356.58L187.21,359.83L189.07,355.69L190.99,348.03L193.19,349.6L195.13,356.6L197.24,356.19L199.49,352.11L203.35,358.51L205.66,357.29L207.57,361.74L209.54,361.76L213.67,360.01L215.66,353.3L217.89,339.29L219.8,342.79L221.81,355.96L224.12,358.23L226.07,348.91L227.99,352.19L230.39,353.31L232.17,347.86L234.19,358.22L236.46,358.79L240.16,346.6L242.74,363.45L246.42,355.5L248.97,351.8L250.65,349.95L252.72,356.06L255.06,362.5L256.88,356.14L260.73,355.61L262.99,350.82L269.32,325.39L271,338.75L273,335.65L275.27,311.22L277.23,333.28L279.26,326.3L281.49,350.33L283.37,346.97L285.34,345.13L287.62,334.41L289.68,308.81L291.43,320.45L295.89,345.68L297.71,342.85L300.2,344.96L302,333.66L303.75,327.35L306.31,340.64L308.06,332.35L310.1,340.11L312.39,325.35L314.23,337.03L316.2,329.82L318.52,337.34L322.37,348.54L324.71,343.42L326.7,319.4L328.44,330.37L330.9,349.63L332.71,349.61L334.69,328.47L337.05,341.14L338.96,334.26L341.03,338.8L343.35,336.37L345.14,342.54L349.43,313.36L351.28,324.15L353.29,331.05L355.71,330.93L357.62,337.95L359.4,340.2L361.33,349.01L363.79,345.84L365.58,349.15L367.53,346.12L369.96,353.94L371.67,331.99L373.68,335.07L376.01,350.61L378,336.32L379.75,340.01L382.08,341.83L383.98,334.69L385.98,330.94L388.44,333.22L390.31,335.45L392.17,335.51L394.53,341.48L396.38,340.56L398.35,324.39L400.65,336.81L402.64,340.46L404.55,335.92L406.78,348.46L408.71,340.77L410.81,344.18L413.12,332.3L415.02,331.45L416.76,338.79L421.14,329.72L423.07,327.93L425.33,306.64L427.4,329.13L429.12,335.04L431.7,335.1L433.42,347.77L435.36,348.04L437.65,323.29L439.69,332.68L441.43,316.8L443.96,343.09L445.89,325.99L447.72,333.81L449.93,349.3L451.86,347.45L453.93,338.58L456.25,306.95L458,312.34L459.92,306.2L461.83,301.52L464.34,323.75L466.08,321.98L468.2,338.12L472.36,342.04L474.26,333.04L476.59,345.72L478.47,327.61L480.33,339.85L482.83,302.19L484.72,310.44L486.57,309.58L489.01,295.62L490.81,317.81L492.65,333.51L495.14,339.45L496.92,346.58L498.89,332.94L501.31,347.04L503.31,353.45L505.01,354.09L507.56,344.93L509.25,337.42L511.33,339.72L513.72,346.88L515.52,346.36L517.48,344.35L519.71,318.71L521.81,336.68L523.61,335.04L525.93,305.18L527.82,337.89L529.68,345.04L532.13,344.97L534.14,343.29L536.08,349.63L538.2,335.86L540.36,354.85L542.22,346.54L544.64,340.03L546.31,338.63L548.41,349.78L550.57,342.49L552.65,346.05L554.42,321.5L556.79,341.79L558.68,325.87L560.6,318.6L563.02,336.64L564.93,343.61L566.83,340.8L568.7,339.86L570.95,350.08L573.07,348.72L574.83,353.53L577.17,351.31L579.18,330.44L581.05,347.96L583.45,327L585.24,340.53L587.28,338.07L589.68,342.68L591.6,357.89L593.32,354.35L595.79,361.18L597.55,349.05L599.57,347.14L601.91,341.6L603.82,341.63L605.77,353.81L608.01,347.55L609.89,351.05L611.9,353.02L614.14,334.1L616.03,344.52L618.16,347.96L620.49,325.14L622.42,340.35L624.28,335.8L626.62,311.41L628.6,324.59L630.33,329.93L634.64,357.64L636.58,354.95L638.96,356.46L640.9,341.67L642.8,346.85L645.02,343.64L648.8,348.88L651.34,356.28L653.23,348.41L655.15,356.07L657.39,341.62L659.37,336.53L661.31,359.28L663.55,356.95L667.5,351.42L669.44,356.38L671.69,343.29L673.62,344.9L675.49,346.69L677.93,340.56L679.87,346.9L681.77,350.25L683.99,359.15L686,340.26L687.88,331.99L690.08,346.74L691.98,337.8L694.01,352.12L696.29,360.88L698.41,356.58L700.11,351.82L702.45,362.01L704.47,356.25L706.4,343.69L708.69,342.63L710.72,343.86L712.64,345.76L714.87,340.95L716.9,352.47L718.83,334.04L721.11,348.26L722.91,348.76L724.92,349.25L727.39,361.96L729.18,358.71L731.15,363.86L733.46,358.52L735.41,362.78L737.1,354.09L739.66,356.78L741.45,355L743.23,341.29L747.65,357.21L749.69,358.17L753.85,364.71L755.62,362.93L757.99,361.1L760.06,362.61L761.8,353.55L764.14,356.02L766.11,345.07L768.17,350.22L769.93,339.01L772.34,360.18L776.25,368.5L778.61,364.47L780.32,356.2L782.38,357.81L786.52,354.49L788.59,366.07L790.9,365.59L792.8,358.57L796.98,347.49L798.82,357.89L800.94,363.92L803.05,359.53L805.2,367.82L806.98,355.67L809.34,356.72L811.12,364.24L813.24,369.23L815.67,367.41L817.51,371.02L819.32,366.65L821.72,358.76L823.5,359.95L825.58,367.08L827.93,367.27L829.69,351.32L831.77,359.33L834.16,363.04L836,372.13L837.8,363.87L840.16,363.38L841.98,363.3L844.04,365.49L846.49,370.46L848.31,352.48L850.14,352.12L852.68,356.64L854.53,360.05L856.36,367.88L858.76,367.96L860.63,370.12L862.44,362.26L864.89,364.03L868.55,351.87L871.07,365.07L872.95,371.27L874.89,372.22L879.25,364.69L881.12,366.41L882.96,356.31L885.15,362.43L887.31,365.72L889.19,367.05L891.39,365.47L893.28,359.22L897.57,364.72L899.48,371.36L901.35,362.4L903.89,361.83L905.74,367.84L907.66,367.61L909.87,364.99L911.94,368.27L913.81,368.28L916.27,366.88L918.2,373.42L919.79,371.45L922.25,373.2L924.15,371.85L926.09,369.91L928.61,372.38L930.22,371.58L932.13,369.57L934.59,366.68L936.48,362.14L938.38,369.33L940.75,372.91L942.67,361.5L944.6,364.05L947.14,363.43L948.8,367.78L950.8,361.52L953.05,370.5L955.02,369.42L956.93,371.13L961.15,374L963.12,373.51L967.33,377.24L969.31,375.69L971.58,373.23L973.51,372.41L975.53,374.35L977.52,375.06L979.72,371.25L981.64,372.53L983.55,368.69L985.88,373.57L987.85,373.88L989.75,372.34L992.04,373.13L994.04,371.07L995.98,371.38L998.24,376.49L1000.23,379.24L1002.2,369.74L1004.26,356.95L1006.25,361.66L1008.06,369.3L1010.51,373.3L1012.63,380.47L1014.51,382.21L1018.73,383.61L1020.59,381.42L1024.67,384.4" style="vector-effect: none; fill: none; stroke: rgb(124, 181, 236); stroke-opacity: 1; stroke-width: 2px; opacity: 1;"/></g><g class="points"/><g class="text"/></g></g></g></g><path class="xlines-above crisp" d="M0,0" style="fill: none;"/><path class="ylines-above crisp" d="M0,0" style="fill: none;"/><g class="overlines-above"/><g class="xaxislayer-above"><g class="xtick"><text text-anchor="middle" x="0" y="451" transform="translate(60,0)" style="font-family: 'Lucida Grande', 'Open Sans', verdana, arial, sans-serif; font-size: 10px; fill: rgb(0, 0, 0); fill-opacity: 1; white-space: pre; opacity: 1;">0</text></g><g class="xtick"><text text-anchor="middle" x="0" y="451" style="font-family: 'Lucida Grande', 'Open Sans', verdana, arial, sans-serif; font-size: 10px; fill: rgb(0, 0, 0); fill-opacity: 1; white-space: pre; opacity: 1;" transform="translate(249.84,0)">2k</text></g><g class="xtick"><text text-anchor="middle" x="0" y="451" style="font-family: 'Lucida Grande', 'Open Sans', verdana, arial, sans-serif; font-size: 10px; fill: rgb(0, 0, 0); fill-opacity: 1; white-space: pre; opacity: 1;" transform="translate(439.68,0)">4k</text></g><g class="xtick"><text text-anchor="middle" x="0" y="451" style="font-family: 'Lucida Grande', 'Open Sans', verdana, arial, sans-serif; font-size: 10px; fill: rgb(0, 0, 0); fill-opacity: 1; white-space: pre; opacity: 1;" transform="translate(629.52,0)">6k</text></g><g class="xtick"><text text-anchor="middle" x="0" y="451" style="font-family: 'Lucida Grande', 'Open Sans', verdana, arial, sans-serif; font-size: 10px; fill: rgb(0, 0, 0); fill-opacity: 1; white-space: pre; opacity: 1;" transform="translate(819.36,0)">8k</text></g><g class="xtick"><text text-anchor="middle" x="0" y="451" style="font-family: 'Lucida Grande', 'Open Sans', verdana, arial, sans-serif; font-size: 10px; fill: rgb(0, 0, 0); fill-opacity: 1; white-space: pre; opacity: 1;" transform="translate(1009.2,0)">10k</text></g></g><g class="yaxislayer-above"><g class="ytick"><text text-anchor="end" x="54" y="3.5" transform="translate(0,435)" style="font-family: 'Lucida Grande', 'Open Sans', verdana, arial, sans-serif; font-size: 10px; fill: rgb(0, 0, 0); fill-opacity: 1; white-space: pre; opacity: 1;">0</text></g><g class="ytick"><text text-anchor="end" x="54" y="3.5" style="font-family: 'Lucida Grande', 'Open Sans', verdana, arial, sans-serif; font-size: 10px; fill: rgb(0, 0, 0); fill-opacity: 1; white-space: pre; opacity: 1;" transform="translate(0,391.08)">2B</text></g><g class="ytick"><text text-anchor="end" x="54" y="3.5" style="font-family: 'Lucida Grande', 'Open Sans', verdana, arial, sans-serif; font-size: 10px; fill: rgb(0, 0, 0); fill-opacity: 1; white-space: pre; opacity: 1;" transform="translate(0,347.16)">4B</text></g><g class="ytick"><text text-anchor="end" x="54" y="3.5" style="font-family: 'Lucida Grande', 'Open Sans', verdana, arial, sans-serif; font-size: 10px; fill: rgb(0, 0, 0); fill-opacity: 1; white-space: pre; opacity: 1;" transform="translate(0,303.24)">6B</text></g><g class="ytick"><text text-anchor="end" x="54" y="3.5" style="font-family: 'Lucida Grande', 'Open Sans', verdana, arial, sans-serif; font-size: 10px; fill: rgb(0, 0, 0); fill-opacity: 1; white-space: pre; opacity: 1;" transform="translate(0,259.32)">8B</text></g><g class="ytick"><text text-anchor="end" x="54" y="3.5" style="font-family: 'Lucida Grande', 'Open Sans', verdana, arial, sans-serif; font-size: 10px; fill: rgb(0, 0, 0); fill-opacity: 1; white-space: pre; opacity: 1;" transform="translate(0,215.39)">10B</text></g><g class="ytick"><text text-anchor="end" x="54" y="3.5" style="font-family: 'Lucida Grande', 'Open Sans', verdana, arial, sans-serif; font-size: 10px; fill: rgb(0, 0, 0); fill-opacity: 1; white-space: pre; opacity: 1;" transform="translate(0,171.47)">12B</text></g><g class="ytick"><text text-anchor="end" x="54" y="3.5" style="font-family: 'Lucida Grande', 'Open Sans', verdana, arial, sans-serif; font-size: 10px; fill: rgb(0, 0, 0); fill-opacity: 1; white-space: pre; opacity: 1;" transform="translate(0,127.55)">14B</text></g><g class="ytick"><text text-anchor="end" x="54" y="3.5" style="font-family: 'Lucida Grande', 'Open Sans', verdana, arial, sans-serif; font-size: 10px; fill: rgb(0, 0, 0); fill-opacity: 1; white-space: pre; opacity: 1;" transform="translate(0,83.63)">16B</text></g></g><g class="overaxes-above"/></g></g><g class="polarlayer"/><g class="smithlayer"/><g class="ternarylayer"/><g class="geolayer"/><g class="funnelarealayer"/><g class="pielayer"/><g class="iciclelayer"/><g class="treemaplayer"/><g class="sunburstlayer"/><g class="glimages"/><defs id="topdefs-1059d0"><g class="clips"/></defs><g class="layer-above"><g class="imagelayer"/><g class="shapelayer"/></g><g class="infolayer"><g class="g-gtitle"><text class="gtitle" x="550" y="25" text-anchor="middle" dy="0em" style="opacity: 1; font-family: 'Lucida Grande', 'Open Sans', verdana, arial, sans-serif; font-size: 20px; fill: rgb(42, 63, 95); fill-opacity: 1; white-space: pre;"><tspan class="line" dy="0em" x="550" y="25">MS1 BPC</tspan><tspan class="line" dy="1.3em" x="550" y="25"><tspan style="font-size:70%" dy="-0.6em">11 samples</tspan><tspan dy="0.42em"></tspan></tspan></text></g><g class="g-xtitle"/><g class="g-ytitle"><text class="ytitle" transform="rotate(-90,21.803125,242.5)" x="21.803125" y="242.5" text-anchor="middle" style="opacity: 0.3; font-family: 'Lucida Grande', 'Open Sans', verdana, arial, sans-serif; font-size: 14px; fill: rgb(0, 0, 0); fill-opacity: 1; white-space: pre;">Ion Count</text></g></g></svg>