<svg class="main-svg" xmlns="http://www.w3.org/2000/svg" xmlns:xlink="http://www.w3.org/1999/xlink" width="2200" height="1000" style="" viewBox="0 0 1100 500"><rect x="0" y="0" width="1100" height="500" style="fill: rgb(255, 255, 255); fill-opacity: 1;"/><defs id="defs-213fcf"><g class="clips"><clipPath id="clip213fcfxyplot" class="plotclip"><rect width="1020" height="385"/></clipPath><clipPath class="axesclip" id="clip213fcfx"><rect x="65" y="0" width="1020" height="500"/></clipPath><clipPath class="axesclip" id="clip213fcfy"><rect x="0" y="50" width="1100" height="385"/></clipPath><clipPath class="axesclip" id="clip213fcfxy"><rect x="65" y="50" width="1020" height="385"/></clipPath></g><g class="gradients"/><g class="patterns"/></defs><g class="bglayer"/><g class="layer-below"><g class="imagelayer"/><g class="shapelayer"/></g><g class="cartesianlayer"><g class="subplot xy"><g class="layer-subplot"><g class="shapelayer"/><g class="imagelayer"/></g><g class="minor-gridlayer"><g class="x"/><g class="y"/></g><g class="gridlayer"><g class="x"><path class="xgrid crisp" transform="translate(253.91,0)" d="M0,50v385" style="stroke: rgb(0, 0, 0); stroke-opacity: 0.05; stroke-width: 1px;"/><path class="xgrid crisp" transform="translate(442.83,0)" d="M0,50v385" style="stroke: rgb(0, 0, 0); stroke-opacity: 0.05; stroke-width: 1px;"/><path class="xgrid crisp" transform="translate(631.74,0)" d="M0,50v385" style="stroke: rgb(0, 0, 0); stroke-opacity: 0.05; stroke-width: 1px;"/><path class="xgrid crisp" transform="translate(820.66,0)" d="M0,50v385" style="stroke: rgb(0, 0, 0); stroke-opacity: 0.05; stroke-width: 1px;"/><path class="xgrid crisp" transform="translate(1009.57,0)" d="M0,50v385" style="stroke: rgb(0, 0, 0); stroke-opacity: 0.05; stroke-width: 1px;"/></g><g class="y"><path class="ygrid crisp" transform="translate(0,370.45)" d="M65,0h1020" style="stroke: rgb(0, 0, 0); stroke-opacity: 0.05; stroke-width: 1px;"/><path class="ygrid crisp" transform="translate(0,305.9)" d="M65,0h1020" style="stroke: rgb(0, 0, 0); stroke-opacity: 0.05; stroke-width: 1px;"/><path class="ygrid crisp" transform="translate(0,241.34)" d="M65,0h1020" style="stroke: rgb(0, 0, 0); stroke-opacity: 0.05; stroke-width: 1px;"/><path class="ygrid crisp" transform="translate(0,176.79000000000002)" d="M65,0h1020" style="stroke: rgb(0, 0, 0); stroke-opacity: 0.05; stroke-width: 1px;"/><path class="ygrid crisp" transform="translate(0,112.24000000000001)" d="M65,0h1020" style="stroke: rgb(0, 0, 0); stroke-opacity: 0.05; stroke-width: 1px;"/></g></g><g class="zerolinelayer"><path class="yzl zl crisp" transform="translate(0,435)" d="M65,0h1020" style="stroke: rgb(0, 0, 0); stroke-opacity: 0.05; stroke-width: 2px;"/></g><g class="layer-between"><g class="shapelayer"/><g class="imagelayer"/></g><path class="xlines-below"/><path class="ylines-below"/><g class="overlines-below"/><g class="xaxislayer-below"/><g class="yaxislayer-below"/><g class="overaxes-below"/><g class="overplot"><g class="xy" transform="translate(65,50)" clip-path="url(#clip213fcfxyplot)"><g class="scatterlayer mlayer"><g class="trace scatter trace481e77" style="stroke-miterlimit: 2; opacity: 1;"><g class="fills"/><g class="errorbars"/><g class="lines"><path class="js-line" d="M0,289.64L6.14,253.47L8.04,247.82L10.4,233.35L12.32,239.92L14.19,240.16L16.54,234.22L18.42,229.72L20.33,222.92L22.68,227.64L24.57,221.54L26.49,218.09L28.84,228.01L30.7,229.42L32.59,233.55L34.98,236.17L36.86,227.18L38.75,230.58L41.09,230.88L42.98,227.29L44.9,227.46L51.04,226.5L52.99,233.55L55.29,227.48L57.17,227.24L59.06,226.17L61.44,223.21L65.21,213.25L67.54,213.49L71.35,200.94L73.7,199.28L75.58,206.24L77.47,190.28L79.86,213.74L81.72,189.09L83.64,198.61L85.96,188.19L87.93,199.29L89.77,186.7L92.11,184.31L94.01,180.32L95.94,188.12L98.35,309.04L100.17,174.05L102.16,184.05L104.39,188.25L106.34,195.91L108.31,191.34L110.58,166.82L112.44,334L114.33,336.67L118.64,226.46L120.62,281.46L122.93,289.98L124.7,333.32L126.67,317.52L129.06,342.78L130.87,340.14L132.71,344.05L135.1,339.71L136.99,265.54L138.99,186.7L141.25,211.94L143.23,310.89L145.06,312.7L147.45,324.32L149.38,301.34L151.18,289.98L153.05,216L155.41,222.39L157.39,217.1L159.2,245.12L161.68,236.14L163.57,254.8L165.32,216.99L167.87,273.58L169.68,283.4L171.6,249.51L173.85,295.88L175.82,263.9L177.74,317.29L179.99,259.77L182.05,245.31L183.73,220.78L186.13,301.15L188.07,314.49L189.9,278.4L192.38,282.15L194.23,269.52L196.04,245.67L198.43,253.66L200.28,244.15L202.2,271.56L204.57,284.75L206.47,264.63L208.29,278.62L210.76,262.14L212.63,292.05L214.48,251.77L216.92,235.3L218.84,262.61L220.74,207.61L223.11,241.11L224.83,240.21L226.99,263.9L229.13,199.95L231.11,191.8L232.84,208.69L235.3,213.03L237.34,284.3L239.18,248.67L243.26,286.62L245.21,272.74L247.62,298.89L249.45,275.26L251.43,208.77L253.66,226.33L255.56,218.39L257.48,200.51L259.39,203.03L261.7,198.92L263.72,211.16L265.45,199.87L268,234.98L269.76,272.46L271.64,269.24L274,211.23L276.02,230.08L277.84,234.14L280.14,283.07L282.09,218.46L283.93,296.89L286.34,241.76L288.27,270.61L290.14,268.1L292.45,267.26L294.24,157.99L296.27,172.17L298.72,207.48L300.45,211.81L302.38,239.31L304.74,226.72L306.72,227.49L308.6,216.58L310.93,219.94L312.67,218.97L314.55,191.73L316.98,196.06L318.93,213.87L320.89,253.57L323.06,199.8L325.02,150.42L327.03,188.12L329.37,246.92L331.16,261.77L333.13,250.93L335.51,187.6L337.41,197.41L339.2,202.45L343.49,240.79L345.34,207.81L349.57,270.61L351.5,253.31L353.88,203.03L355.77,188.31L357.53,246.86L359.49,222.07L361.93,226.27L363.86,206.45L365.66,180.11L368.13,240.02L369.95,209.16L371.79,201.8L374.12,179.94L375.95,208.04L377.87,210.62L380.27,186.7L382.14,271.84L384.14,250.35L386.5,225.94L388.31,242.47L390.17,189.8L392.59,227.11L394.54,180.31L396.41,154.36L398.74,158.49L400.55,157.99L402.56,195.41L404.82,214.41L406.71,204.38L408.62,185.02L411.01,178.31L412.91,204.38L414.8,201.61L417.14,182.26L419.1,216.2L420.85,206.19L423.33,181.08L425.12,187.73L427.03,207.4L429.49,217.29L431.27,159.46L433.23,186.12L435.6,255.51L437.49,165.59L439.38,186.18L441.68,230.12L443.51,225.21L445.44,246.67L447.87,201.09L449.69,203.35L451.67,225.56L453.87,281.24L455.83,312.31L457.74,315.83L459.59,315.76L462.01,313.39L463.88,320.81L465.71,312.5L468.18,291.53L469.97,292.56L471.91,238.47L474.19,213.55L476.21,260.48L478.09,264.07L480.32,298.48L482.25,264.25L486.62,181.6L488.4,171.53L490.34,170.75L492.6,183.13L494.6,165.52L496.42,136.82L498.89,178.76L500.65,175.47L502.71,176.95L504.88,147.32L508.75,211.23L511.06,193.28L512.98,162.36L514.84,159.78L517.2,174.48L519.12,176.05L521.1,203.16L523.46,180.31L525.33,170.24L527.14,185.92L529.7,231.63L531.4,207.93L533.38,220.52L535.69,184.57L539.52,130.28L541.8,178.99L543.68,180.37L545.61,175.72L547.93,183.21L549.81,216.65L551.87,211.23L554.08,202.64L556.09,237.76L557.92,215.36L560.23,188.76L562.06,223.15L563.99,224.72L566.02,182.89L568.27,164.94L570.23,142.29L571.98,171.64L574.49,145.45L576.22,148.16L578.11,145L580.53,153.58L582.41,143.96L584.25,144.01L586.67,164.56L588.63,185.99L590.38,234.08L592.84,138.03L594.66,148.87L596.54,121.84L599.01,154.61L600.75,193.32L602.81,220.59L605.19,246.73L607.01,253.7L608.81,247.85L611.21,163.65L613.22,147.97L615.09,122.02L617.28,156.1L619.19,125.98L621.06,226.98L623.43,197.58L625.35,281.42L627.33,271.35L629.63,280.23L631.51,276.68L633.43,252.07L635.71,207.61L637.82,107.3L639.65,122.6L643.81,134.41L645.62,109.79L648.19,152.16L650.04,151.9L651.95,141.32L654.22,119.43L656.01,192.51L658.02,192.18L660.29,196.57L662.32,171.53L664.06,137.08L666.1,222.14L668.49,279.91L670.19,212.26L674.63,267.97L676.38,276.12L678.28,262.91L680.57,273.71L682.52,259.25L684.37,223.06L688.63,231.37L690.48,249.57L692.87,282.01L694.99,274.94L696.83,271.71L698.99,257.76L700.95,222.76L703.04,232.53L705.16,222.39L707.15,222.01L711.41,119.95L713.31,109.95L715.07,139.64L717.49,147.19L721.35,89.81L723.72,139.9L725.6,138.54L727.4,120.66L729.78,203.29L731.81,172.62L733.55,129.12L736.03,118.4L737.91,127.5L739.83,152.36L741.99,161.33L743.95,212.45L745.87,187.15L748.19,187.47L750.25,201.93L751.99,142.67L754.46,119.05L756.22,140.74L758.06,177.85L760.45,175.72L762.31,147L764.21,143.64L766.26,161.01L768.44,121.95L770.45,137.38L772.41,117.76L774.68,146.87L776.59,137.64L778.34,330.31L780.7,336.02L782.6,332.34L784.5,335.75L786.84,335.1L788.73,336.53L790.63,336.88L793.32,152.36L794.89,142.09L796.93,242.02L799.18,220.57L801.08,184.44L803.04,193.6L805.4,181.98L807.27,247.83L809.19,188.83L811.69,112.33L813.41,135.57L815.35,145.25L817.54,60.95L821.49,216.65L823.69,260.93L825.59,257.09L827.63,278.29L829.81,209.81L831.97,200.9L836.1,158.04L837.88,213.29L840.03,240.79L842.14,218.65L844.25,194.83L845.97,202.77L848.5,154.42L850.2,170.43L852.24,151.97L854.58,121.5L856.3,135.44L858.31,121.37L860.69,135.7L862.4,109.56L864.56,134.28L866.65,109.97L870.44,146.55L872.45,141.51L874.83,142.03L876.67,149.97L878.5,161.78L880.83,163.33L882.71,155.63L884.8,214.78L886.97,236.49L888.92,214.71L890.76,193.84L893.23,186.83L895.25,206.64L896.88,168.49L899.46,184.24L901.42,164.75L903.01,174.78L905.53,131.18L907.5,166.49L909.28,152.87L911.56,152.61L913.54,137.57L915.61,177.66L917.7,136.35L921.64,235.37L923.96,210.39L925.68,214.71L927.69,230.2L930.05,237.05L931.86,187.34L933.87,199.74L936.15,189.28L938.07,260.16L939.91,276.75L944.15,164.56L946.06,108.85L948.49,178.37L950.45,183.73L952.27,144.35L954.67,283.14L956.57,310.21L958.35,300.57L960.88,253.25L962.69,148.03L964.47,102.07L966.8,181.27L968.67,167.27L970.77,196.9L972.53,131.18L975.09,116.34L976.87,265.9L978.59,262.8L981,255.38L983.07,225.56L984.81,260.42L987.31,278.62L989.08,284.49L990.9,267L993.42,264.8L995.31,250.28L997.16,280.46L999.49,207.16L1001.54,214.84L1003.38,165.01L1005.63,149.39L1007.45,96.32L1009.29,85.67L1011.77,191.34L1013.64,117.56L1015.48,130.41L1020,177.66" style="vector-effect: none; fill: none; stroke: rgb(124, 181, 236); stroke-opacity: 1; stroke-width: 2px; opacity: 1;"/></g><g class="points"/><g class="text"/></g><g class="trace scatter trace0d0a66" style="stroke-miterlimit: 2; opacity: 1;"><g class="fills"/><g class="errorbars"/><g class="lines"><path class="js-line" d="M0,241.23L1.89,230.01L4.26,204.09L8.08,217.45L10.41,215.56L12.3,213.55L14.19,217.48L18.46,204.57L20.35,213.12L22.68,207.83L24.58,208.8L26.45,206.32L28.81,212.93L30.76,218.69L32.6,214.1L36.85,215.14L38.75,209.12L43.01,200.14L44.88,205.24L47.25,206.39L49.13,202.17L52.93,209L55.26,202.67L57.16,209.37L59.11,202.92L61.41,203.55L63.31,205.79L65.24,202.72L67.61,210.32L69.53,208.35L71.37,209.55L73.72,213.41L75.59,225.62L77.56,221.81L79.95,228.59L81.84,278.75L83.73,233.76L86,254.77L87.93,241.61L89.75,349.77L92.13,301.73L95.9,217.12L98.34,330.78L102.14,280.88L104.48,272.87L106.45,297.66L108.17,283.94L110.7,326L112.53,333.72L114.31,307.3L116.79,256.99L118.61,273.97L120.54,305.02L122.91,246.34L124.68,272.21L126.71,280.04L129.06,258.16L130.9,219.55L132.78,236.01L135.22,324.88L137.05,328.3L138.88,332.68L141.31,225L143.25,254.93L145.05,265.26L147.52,227.49L149.4,230.66L151.17,282.69L153.17,201.48L155.49,251.64L157.36,196.57L159.18,257.38L161.69,235.82L163.56,288.95L165.4,307.02L167.77,311.93L169.65,222.91L171.46,190.14L173.88,244.47L175.92,223.62L177.59,264.55L180.18,287.27L181.84,315.41L183.85,315.1L186.15,301.9L187.98,302.87L189.96,262.78L192.39,228.91L194.23,283.27L198.44,249.14L200.38,273.45L202.25,248.02L204.52,249.25L206.56,247.18L208.45,293.85L210.78,216.97L212.54,256.67L214.5,246.95L216.86,250.86L218.85,234.14L220.69,256.93L226.82,187.41L229.16,194.38L230.99,216.65L232.86,263.3L235.28,249.38L237.24,278.68L239.09,241.89L241.34,247.31L243.29,211.92L245.24,224.33L247.5,276.77L249.43,273.84L251.37,231.37L253.67,211.29L255.68,222.52L257.41,202.19L259.37,283.46L261.67,299.15L263.59,315.61L265.45,283.09L269.79,258.54L271.67,302.12L274.15,304.57L275.86,299.83L277.76,272.9L280.12,276.81L282.2,223.88L283.88,253.12L286.39,212L288.26,196.77L290.05,240.92L292.56,236.53L294.38,233.88L296.32,265.84L298.67,247.38L300.46,246.99L302.36,292.65L304.64,285.33L306.54,268.85L308.58,191.8L312.65,322.36L314.66,322.56L316.91,295.05L318.82,291.7L320.77,281.01L323.12,235.56L325.06,200.25L326.99,246.86L329.22,233.63L331.19,231.75L333.14,270.16L335.38,264.2L337.27,228.33L339.17,225.62L341.62,212.32L343.36,195.15L345.29,253.74L347.76,231.3L349.64,211.81L351.41,182.52L353.87,195.41L355.78,270.74L357.65,252.73L359.56,257.06L361.84,292.91L363.73,233.35L365.68,267.45L368.1,200.7L369.97,225.69L371.86,210.26L374.06,251.64L376.02,263L377.89,206.32L380.39,255.19L382.09,273.97L383.98,253.51L386.45,266.55L388.37,263.51L390.31,202.32L392.49,206.32L394.43,204.84L396.44,216.26L398.62,268.51L400.53,260.03L402.54,220.59L404.78,213.72L406.79,193.86L408.7,202.32L410.97,215.36L412.83,210.93L414.77,189.75L417.12,203.48L419.13,189.09L420.91,204.47L423.21,247.46L425.12,244.11L427.1,261.58L429.46,207.42L431.4,209.68L433.24,202.9L435.6,204.13L437.47,202.19L439.24,223.06L441.67,234.42L443.53,225.51L445.37,242.86L447.96,271.39L449.68,266.32L451.61,265.64L453.95,219.94L455.78,285.17L457.83,252.6L459.62,261.4L461.97,253.7L465.74,298.93L468.2,244.34L470.1,188.31L471.99,211.03L474.32,217.17L476.15,203.35L478.03,202.71L480.46,202.96L482.35,183.41L484.21,212.91L486.66,270.87L488.53,202.38L490.4,213.1L492.71,210.26L494.67,217.94L496.44,210.13L500.67,180.89L502.63,270.1L506.83,194.01L508.72,190.61L511.02,232.66L513.1,229.56L514.85,193.02L517.42,238.73L521.12,223.43L523.3,202.25L525.3,196.9L527.18,217.88L529.67,207.74L531.46,212.91L533.32,243.95L535.57,262.35L537.58,241.7L539.52,195.35L541.76,225.94L543.76,176.37L545.57,216.58L548.05,198.19L549.95,180.89L551.72,221.81L554.13,250.54L556.07,232.59L557.94,180.95L560.17,203.03L562.14,157.13L564,211.03L566.03,235.3L568.16,235.5L570.2,248.28L572.05,174.17L574.31,227.88L576.39,245.5L580.48,276.1L582.36,259.77L584.36,231.75L586.67,164.88L588.57,179.98L590.4,200.96L592.93,208.13L594.63,190.96L596.66,204.19L599.08,258.16L600.95,251.77L602.91,216.39L605.18,252.22L607.12,211.23L609.01,194.7L611.19,254.99L613.2,160.81L615,315.76L617.35,264.72L619.32,261.62L621.21,262.61L623.45,238.12L625.52,230.92L627.2,239.24L629.6,170.04L631.57,174.76L635.95,264.42L637.84,193.8L639.6,150.87L642.03,202.9L643.91,184.57L645.68,179.6L648.13,199.87L650.06,208.71L651.99,160.62L654.18,174.05L656.08,180.37L658.05,183.86L660.47,201.29L662.27,202L664.22,191.67L666.04,159.97L668.37,191.99L670.35,171.46L672.3,205.55L674.43,197.93L676.35,201.29L678.27,169.72L680.61,157.84L682.63,236.34L684.54,252.93L686.99,197.67L688.73,193.02L690.58,180.31L694.85,193.6L696.87,195.86L699.12,181.15L700.94,181.21L702.9,183.21L705.34,198.83L707.16,204.77L708.93,219.79L711.33,220.52L713.39,216.52L715.06,208.45L717.45,189.09L719.52,202.84L721.24,233.69L723.74,240.53L725.45,215.94L727.51,244.34L729.88,195.86L731.58,199.28L733.52,193.22L735.83,171.33L737.87,187.21L739.7,218.46L742.19,245.7L744.07,225.86L745.85,220.26L748.14,225.36L750.16,225.11L751.96,189.6L754.25,219.3L760.54,215.49L762.52,225.94L766.3,164.62L768.6,176.95L770.5,209.03L772.34,180.82L774.79,275.39L776.53,273.78L778.48,291.34L780.83,270.42L782.66,281.2L784.58,275.13L786.87,256.28L788.86,248.09L790.65,276.12L793.07,205.61L794.99,194.96L796.98,246.73L799.23,255.32L801.2,200.38L802.91,221.04L805.27,228.72L807.23,193.15L809.22,177.92L811.49,211.81L813.29,213.29L817.66,211.23L819.56,181.53L821.5,224.07L823.82,293.08L825.62,293.82L827.48,298.57L831.77,305.8L833.67,293.92L835.96,283.44L837.89,283.65L844.13,218L845.93,184.18L848.3,157.84L850.2,181.21L852.11,167.85L854.54,193.41L856.53,167.59L858.23,203.93L860.57,228.59L862.4,207.42L864.52,176.76L866.76,170.62L868.6,168.3L870.48,170.11L872.49,185.28L874.68,176.24L876.82,173.92L878.46,196.38L880.98,174.24L882.84,168.75L884.62,174.82L886.96,193.73L891,160.1L893.1,337.15L895.03,336.36L896.9,336.59L903.03,335.73L905.4,283.31L907.35,183.47L909.18,195.28L911.63,167.14L913.57,169.46L915.49,177.98L917.74,170.24L919.74,154.61L921.63,125.5L923.82,168.36L925.85,193.22L927.58,188.96L929.98,81.74L931.83,184.5L933.93,238.21L937.99,179.94L939.88,269.58L942.34,231.88L944.11,188.44L946.26,174.3L948.45,191.93L950.57,189.41L952.26,214.88L954.55,228.53L956.5,234.47L958.47,256.8L960.72,244.06L962.76,245.5L964.41,254.89L966.88,259L968.68,278.72L970.59,287.04L972.56,279.01L976.7,247.56L978.58,261.71L981.01,257.23L983.01,231.97L984.76,244.9L987.15,269.26L989.07,222.72L991.03,202.25L993.23,202.28L995.2,225.39L997.21,194.7L999.56,193.93L1001.4,241.11L1003.16,221.04L1005.57,177.89L1007.46,115.75L1011.81,188.05L1013.65,146.68L1015.43,161.07L1017.93,222.65L1019.72,169.2" style="vector-effect: none; fill: none; stroke: rgb(67, 67, 72); stroke-opacity: 1; stroke-width: 2px; opacity: 1;"/></g><g class="points"/><g class="text"/></g><g class="trace scatter trace08919d" style="stroke-miterlimit: 2; opacity: 1;"><g class="fills"/><g class="errorbars"/><g class="lines"><path class="js-line" d="M0,292.2L1.92,290.13L4.25,278.03L6.14,272.48L8.03,282.2L10.4,257.45L12.28,258.41L14.19,256.87L16.53,263.57L18.45,265.77L20.32,264.94L22.67,274.47L24.59,264.93L26.48,268.33L28.84,260.66L30.71,255.7L32.62,256.25L34.96,256.04L36.88,251.55L38.75,255.82L41.11,253.17L43.02,247.49L44.88,247.13L47.25,244.97L49.13,246.24L51.02,250.03L52.91,247.92L55.27,248.2L57.15,250.75L59.08,241.57L61.43,238.66L63.31,239.1L65.19,228.75L67.56,218.2L69.43,213.62L71.33,214.9L73.74,205.88L75.59,202.04L77.49,191.93L79.83,188.89L81.72,204.48L83.62,204.01L85.97,238.21L87.9,197.03L89.81,199.05L92.18,255.44L94.26,184.76L95.88,269.41L98.38,239.69L100.37,217.42L102.14,275.78L104.45,198.38L106.37,246.73L108.38,181.15L110.54,206.45L112.64,183.92L114.35,231.04L116.83,182.18L118.61,211.74L120.56,174.11L122.85,209.68L124.71,257.25L126.69,239.95L129.09,281.72L130.93,208.97L132.82,304.78L135.27,297.6L136.96,344.71L138.87,347.42L143.13,316.32L144.99,314.86L147.38,314.25L149.28,327.7L151.2,326.85L153.05,315.21L155.39,321.77L157.31,300.05L161.54,335.01L163.45,315.22L165.39,286.36L167.77,269.65L169.69,283.2L171.57,269.52L173.86,289.53L175.75,292.28L179.99,247.21L181.86,273.33L183.93,234.14L186.24,239.69L188.1,242.94L189.88,230.03L192.35,240.53L194.21,237L196.25,301.73L198.41,247.94L200.43,222.07L202.26,248.67L204.55,226.03L206.55,252.48L208.4,285.14L210.75,232.14L212.56,217.55L214.42,293.34L216.78,307.05L218.69,305L222.95,314.27L224.82,324.69L226.77,337.26L229.07,344.89L230.97,344.84L232.89,345.8L237.09,343.91L238.99,341.69L241.37,342.06L243.26,336.74L245.12,329.46L247.48,325.93L249.37,330.47L251.26,311.41L255.74,197.8L257.53,241.37L259.35,186.05L261.69,176.24L263.58,198.64L265.61,194.96L267.86,240.28L269.72,198.38L271.64,191.02L274,227.62L275.82,240.86L277.71,197.03L280.18,212.13L282,231.8L283.96,224.46L286.36,229.62L288.28,200.38L290.14,186.05L292.52,222.14L294.28,205.63L296.23,206.97L298.61,257.77L300.4,194.53L302.45,200.58L304.68,211.83L306.7,232.27L308.52,205.16L310.8,187.95L312.83,254.09L314.57,168.75L316.93,225.43L319,207.35L320.83,242.6L323.19,171.14L325.02,163.85L326.99,209.74L329.25,193.2L331.2,239.63L332.98,224.14L335.48,229.56L337.28,176.76L339.22,254.48L341.51,277.97L343.5,271.58L345.31,272.81L347.76,193.86L349.56,174.82L351.49,186.96L353.77,246.77L355.69,196.6L357.54,192.85L359.52,259.96L361.83,180.18L363.79,209.35L365.73,169.07L368.04,180.37L369.97,195.99L371.8,199.41L374.11,174.11L376.07,256.09L377.92,259.68L380.22,143.28L382.25,158.04L384.02,246.86L386.33,258.82L388.31,198.64L390.14,197.5L392.59,173.59L394.37,179.34L396.33,206.19L398.74,268.68L400.57,246.47L402.46,215.75L404.82,209.81L406.72,216.78L408.66,247.76L410.98,244.86L412.83,219.15L414.86,199.54L417.18,153.71L419.02,231.82L421,261.9L423.28,284.56L425.18,159.13L427.12,166.3L429.4,201.54L431.26,160.32L433.18,196.96L435.63,245.63L437.43,204.45L439.37,183.99L441.61,279.31L443.52,275.48L445.38,268.42L447.9,251.31L449.67,231.32L451.56,218.33L453.99,181.47L457.69,208.84L459.54,174.6L462.07,228.46L463.81,236.44L465.87,226.85L468.15,222.33L470.04,208L471.92,148.22L478.02,261.48L480.42,173.36L482.23,151.15L484.26,192.44L486.55,209.35L488.36,215.14L490.28,230.29L492.73,161.01L494.54,132.22L496.38,162L498.82,163.91L500.65,158.51L502.66,181.34L504.9,156.7L506.78,229.13L508.83,170.62L511.11,162.68L512.94,145.73L514.87,183.34L517.32,131.76L519.12,201.76L520.96,178.22L523.35,219.49L525.2,188.72L527.27,168.49L529.55,185.66L531.34,216.13L533.35,189.34L535.59,187.6L537.51,245.89L539.45,179.85L541.8,180.07L543.69,199.41L545.49,196.77L547.86,161.69L549.89,171.33L551.66,173.27L554.05,179.02L556.06,233.24L557.89,196.77L560.23,200.55L562.2,268.61L563.94,272.42L565.97,253.19L568.25,257.02L570.16,266.74L571.96,280.68L574.33,281.15L576.26,259.98L578.14,275.43L582.52,217.68L584.22,150.89L586.69,181.92L588.68,134.67L590.39,171.27L592.81,193.67L594.62,174.82L596.62,162.1L598.91,208.19L600.94,212.07L605.08,199.54L607.09,184.57L608.84,233.17L611.31,142.54L613.17,169.33L615.04,166.69L617.37,151.97L619.25,211.87L621.25,253.57L623.44,192.25L625.39,166.36L627.27,191.6L629.59,146.68L631.59,231.37L633.43,157.2L635.79,207.68L637.61,194.77L639.61,163.26L642.06,221.04L643.92,152.03L645.8,107.75L647.99,153.99L651.94,139.06L654.2,167.33L656.12,161.13L657.95,104.39L664.08,227.24L665.94,187.04L668.33,213.29L670.28,219.75L672.17,170.24L674.45,154.29L678.31,199.74L680.64,152.42L682.72,220.52L684.36,207.22L686.79,196.06L688.76,212.84L690.58,153.26L692.91,164.3L696.68,121.69L699.17,153.58L702.9,207.22L705.33,166.94L707.24,241.18L709.06,214.84L711.45,204.26L713.3,139.64L715.26,126.08L717.42,128.73L719.31,165.31L721.4,182.95L723.62,155L725.59,168.49L727.48,205.55L729.88,147.45L731.7,128.34L733.53,131.31L737.71,174.3L739.72,139.83L741.97,164.3L744.01,152.1L745.77,154.29L748.33,185.15L750.13,137.12L752.01,139.38L754.35,144.09L756.29,176.5L758.19,192.96L760.38,204.9L762.47,215.16L764.2,199.09L766.1,179.08L768.57,165.78L770.43,107.56L772.36,159.52L774.8,190.63L776.64,148.1L778.33,152.03L780.87,171.2L782.84,145.38L784.66,141.25L786.99,141.32L788.76,206.02L790.64,145.04L793.06,133.96L795.07,234.08L796.78,249.23L799.18,215.92L801.15,238.4L805.26,136.61L807.16,104.59L809.03,160.53L811.56,198.57L813.45,88.9L815.22,125.5L817.6,143.32L819.58,135.77L823.76,83.87L825.59,142.09L827.59,110.53L829.84,168.62L833.85,149.64L836.11,204L837.87,126.73L839.73,122.15L842.19,153.26L844.15,146.35L846,203.22L848.25,159.2L850.18,106.72L852.04,117.56L854.38,95.77L856.45,90.64L858.35,93.87L860.71,143.96L862.64,135.44L864.37,163.01L866.67,134.47L868.69,127.37L870.57,136.35L872.53,153.9L874.73,134.28L876.81,84.83L880.88,123.44L882.8,104.78L884.6,204.86L887.14,232.79L888.9,156.23L890.89,168.24L893.14,136.93L895.2,150.03L897.06,221.56L899.3,178.31L901.31,131.76L903.2,144.67L905.41,337.27L907.3,336.57L909.15,336.48L911.53,337.13L915.32,336.33L917.69,274.79L919.62,117.82L921.49,207.81L923.82,162.08L925.8,142.29L927.79,174.17L930,139.57L933.73,113.43L936.23,110.46L940.08,142.29L942.25,99.42L944.21,267L946.12,167.2L948.49,181.98L950.25,235.22L952.16,284.98L954.51,234.27L956.42,208.13L958.57,223.23L960.97,185.92L962.73,123.31L964.51,161.59L967.04,170.04L968.78,146.93L970.55,172.75L972.7,163.07L975.04,195.99L976.98,209.16L978.8,138.93L981.08,228.01L982.84,181.92L985.05,196.38L987.09,194.19L989.24,105.62L991,190.83L993.39,130.47L995.32,188.76L997.32,192.51L999.5,128.99L1001.44,173.01L1003.23,182.52L1005.58,158.55L1007.57,150.81L1009.36,120.6L1011.81,99.55L1018.01,180.63L1019.94,154.03" style="vector-effect: none; fill: none; stroke: rgb(144, 237, 125); stroke-opacity: 1; stroke-width: 2px; opacity: 1;"/></g><g class="points"/><g class="text"/></g><g class="trace scatter trace785762" style="stroke-miterlimit: 2; opacity: 1;"><g class="fills"/><g class="errorbars"/><g class="lines"><path class="js-line" d="M0,287.71L1.89,287.23L4.27,280.02L6.14,281.51L8.07,273.07L10.4,259.5L12.3,263.41L14.17,258.55L16.53,265.03L18.44,270.66L20.33,266.03L22.69,269.04L24.58,265.66L28.83,271.07L30.7,263.48L32.59,264.68L34.95,264.28L36.86,258.44L38.74,261.98L41.12,259.41L43,255.67L47.25,259.99L49.14,257.91L51.04,259.63L52.92,259.62L55.28,257.32L57.17,257.22L59.06,255.56L61.41,256.84L65.18,251.84L67.54,251.94L69.44,247.8L71.34,240.17L73.69,239.95L75.58,230.91L77.67,222.01L79.97,271.39L81.72,296.49L83.62,300.23L85.96,281.62L87.88,293.04L89.94,198.06L92.2,247.33L94.08,236.79L95.99,275.13L98.36,217.65L100.23,212.84L102.07,202.45L104.47,267.64L106.28,231.63L108.28,266.48L110.56,189.09L112.42,233.05L114.31,256.5L116.85,275.71L120.59,335.55L122.86,220.33L124.86,251.57L126.72,319.93L130.99,254.54L132.82,283.98L135.28,286.49L136.96,224.22L139.07,282.36L141.33,288.3L143.11,276.08L145.08,312.6L147.39,332.03L149.25,244.41L151.19,265.26L153.21,227.75L155.48,232.53L157.5,246.34L159.21,290.17L161.62,251.89L163.46,272.13L165.44,210.06L167.73,297.4L169.69,237.5L171.53,219.7L173.83,289.89L175.76,309.09L177.73,228.53L181.95,210.02L183.87,230.27L186.19,291.85L188.1,321.87L192.22,319.54L194.2,311.02L196.03,315.93L198.37,309.53L200.35,270.49L202.21,309.73L206.57,219.68L208.4,201.22L210.79,196.51L212.67,231.69L214.46,254.05L216.89,327.64L218.76,316.51L220.61,321.33L222.96,335.65L224.81,330.76L226.77,225.62L229.1,217.55L231.18,184.12L232.9,228.01L235.39,266.42L237.12,258.54L238.99,271.73L241.51,258.54L243.33,188.93L245.27,150.23L247.57,250.28L249.42,240.6L251.43,213.23L253.71,196.44L255.71,202.58L257.52,192.51L259.36,226.59L261.66,226.59L263.71,260.74L265.6,202.71L267.83,179.51L269.72,206.45L271.73,206.13L273.96,214.2L275.82,223.49L277.75,253.83L280.1,297.38L282.05,310.72L283.86,302.29L286.27,285.85L288.15,334.18L290.09,316.89L292.39,275.29L294.31,257.7L296.22,226.4L298.58,271.07L300.43,243.63L302.3,198.57L306.55,225.77L308.51,221.62L310.9,270.1L312.68,251.98L314.79,236.92L317.08,187.21L318.88,249.87L320.87,205.93L323.06,208.64L325.14,221.1L326.89,249.57L329.36,243.31L331.23,201.41L333.03,236.21L335.43,203.22L337.32,211.29L339.12,229.3L341.5,238.92L343.38,216.18L345.44,203.93L347.74,212.39L349.68,167.59L351.41,201.46L353.86,201.29L355.73,248.28L357.65,262.55L359.51,271.26L361.85,238.4L363.7,206.71L365.75,189.92L369.87,224.33L371.71,194.51L374.09,184.16L375.99,207.01L377.91,254.91L380.31,249.7L382.13,176.89L384.14,221.49L386.51,170.43L388.34,275.46L390.2,298.57L392.48,276.73L394.51,269L396.34,266.96L398.78,275.26L400.52,263.21L402.53,274.53L404.78,250.8L406.77,227.24L408.66,230.27L410.94,246.34L412.81,231.63L414.71,180.76L417.1,172.45L419.1,169.98L420.84,151.71L423.27,178.48L425.24,190.38L427.11,171.14L429.51,213.23L431.36,216.39L433.29,214.65L435.57,161.2L437.39,204.47L439.4,207.74L441.64,167.85L445.39,250.9L447.86,219.04L449.86,211.74L451.67,241.7L453.97,222.91L455.94,218.39L457.84,180.44L459.64,191.15L462.02,191.54L463.92,170.3L468.25,280.17L470.08,274.62L471.99,226.46L474.32,204.06L476.15,166.88L478.1,243.12L480.4,269L482.32,253.1L484.31,273.13L486.5,232.96L488.41,230.59L490.27,163.63L494.5,236.19L496.48,194.83L498.9,164.17L500.65,157.78L502.55,166.17L504.9,205.24L506.95,232.79L508.66,153.82L513.04,213.08L514.87,188.63L517.23,182.31L519.07,153L521.01,185.23L523.39,186.57L525.28,165.57L527.21,187.08L529.52,252.28L531.4,273.88L535.66,154.49L537.56,139.83L541.78,226.12L543.65,219.55L547.91,167.85L549.93,166.82L551.65,154.81L554.09,183.68L555.91,138.89L557.8,145.21L560.15,169.96L562.05,200.94L564.1,194.44L565.93,199.22L568.21,275.05L570.05,241.05L572.13,255.47L574.34,249.51L576.26,158.6L578.16,122.66L582.51,157.58L584.4,155.58L586.67,151.26L588.51,216.58L592.92,173.72L594.65,195.93L596.53,122.66L598.86,145.13L600.85,212.32L602.82,183.41L605.11,172.3L607.14,187.41L608.81,162.62L611.24,156.42L613.17,210.9L615.17,196.38L617.44,147.19L619.24,134.35L623.46,160.88L625.39,199.09L627.21,212.87L629.64,189.6L631.46,190.96L633.41,187.54L637.64,130.54L639.49,133.68L641.91,134.58L643.73,139.27L645.66,132.26L648.15,198.77L649.88,173.92L651.95,181.6L654.3,181.86L656.1,159.39L658,168.88L660.46,135.25L662.3,204.64L664.05,164.88L666.14,190.44L668.37,161.91L670.19,167.59L672.12,122.47L674.6,163.65L676.41,164.1L678.29,196.57L680.6,129.63L682.62,128.47L684.48,139.57L686.74,117.41L688.77,144.54L690.55,155.84L692.93,140.87L694.97,159.65L696.81,146.8L698.99,124.68L701.1,175.47L702.88,147.77L705.21,193.02L709.05,220.52L711.29,173.31L715.08,314.68L717.41,318.87L719.3,320.43L721.21,310.65L723.59,319.82L725.45,322.93L727.34,325.63L729.7,326.92L731.58,328.35L733.5,326.8L735.83,321.18L737.81,322.75L739.63,321.98L741.97,315.79L743.92,299.53L745.74,312.59L748.12,312.78L750.01,309.77L754.4,281.33L756.17,262.03L758.09,246.21L760.54,245.12L762.28,250.17L764.24,233.76L766.12,245.57L768.48,240.79L770.41,179.79L772.29,179.27L774.81,167.85L776.69,197.28L778.37,208.06L780.89,218.13L782.82,176.63L784.74,156.23L786.86,138.74L788.75,194.7L790.67,173.66L793.05,216.05L795.1,159.84L797,132.22L799.15,146.55L801.23,194.83L803.09,260.74L805.37,237.24L807.37,176.89L809.05,235.71L811.64,225.43L813.45,173.79L815.38,148.87L817.61,80.64L819.57,122.34L821.35,104.72L823.85,100.39L825.6,201.61L827.65,190.7L830.07,182.57L831.97,154.29L833.82,159.84L836.13,135.7L837.94,52.04L844.13,165.2L845.92,145.19L848.28,77.15L850.27,71.73L854.44,137.9L856.44,153.97L858.25,164.75L860.57,141.51L862.45,164.3L864.42,132.22L866.85,120.79L868.56,335.19L872.33,335.41L874.72,333.38L876.6,333.86L878.49,332.75L880.82,332.97L882.74,335.86L884.64,100.2L887.15,133.05L888.91,139.77L890.75,117.37L893.32,112.59L894.99,148.16L896.89,136.09L899.43,204.51L905.44,189.41L907.41,134.47L909.15,53.51L911.54,228.2L913.46,191.67L915.39,217.12L917.69,282.4L919.74,283.4L921.57,263.13L923.84,190.63L925.95,243.24L927.64,225.69L930.1,191.22L931.86,192.31L934,189.54L936.1,169.78L938.19,193.28L940.13,235.63L942.24,205.48L944.17,189.54L946.19,235.11L948.54,187.02L950.35,160.62L952.14,192.77L954.61,246.52L956.45,225.21L958.28,240.24L960.69,245.44L962.66,219.19L964.6,170.88L966.83,264.16L968.71,259.38L970.61,252.25L972.48,221.81L974.89,195.73L976.75,261.77L978.72,316.74L980.99,315.17L982.86,308.16L984.75,307.67L987.09,322.69L989.1,306.68L990.95,316.77L993.23,319.36L995.3,270.18L997.01,305.6L999.37,286.14L1001.29,261.71L1003.16,246.6L1005.54,242.31L1007.4,239.4L1009.3,211.53L1011.69,109.11L1013.68,166.43L1015.59,126.15L1017.96,165.46L1019.7,185.86" style="vector-effect: none; fill: none; stroke: rgb(247, 163, 92); stroke-opacity: 1; stroke-width: 2px; opacity: 1;"/></g><g class="points"/><g class="text"/></g><g class="trace scatter trace7368ab" style="stroke-miterlimit: 2; opacity: 1;"><g class="fills"/><g class="errorbars"/><g class="lines"><path class="js-line" d="M0,273.78L1.9,263.63L4.27,233.63L6.16,237.66L8.07,235.52L10.39,225.19L12.3,225.78L14.19,228.44L16.54,221.44L18.44,240.58L20.32,241.64L22.7,250.09L24.58,246.46L28.81,235.28L30.72,238.04L32.6,228.74L34.97,226.7L36.85,211.46L38.73,206.34L41.2,169.14L43.03,162.49L45.02,198.83L47.38,274.29L49.26,179.34L51.11,178.43L53.15,175.98L55.44,282.45L57.32,247.03L59.11,183.68L61.55,173.46L63.48,191.02L65.27,220.26L67.73,276.64L69.69,259.9L71.38,236.32L73.79,252.67L75.7,156.55L77.46,180.72L79.93,284.17L81.76,235.41L83.73,276.23L86.02,331.03L87.97,300.18L89.84,341.3L92.15,333.38L94.01,323.93L95.88,323.82L98.28,314.27L100.16,298.61L102.06,247.68L104.51,236.08L106.27,289.51L108.18,280.3L110.7,247.57L112.49,261.45L114.36,277.16L116.76,263.09L118.69,241.95L120.46,247.7L122.92,234.08L124.81,197.09L126.66,232.79L128.97,260.24L131.07,281.14L132.74,260.8L135.21,218.13L137.02,277.63L139.05,271.52L141.44,190.44L143.14,202.12L145.16,195.86L147.47,157.46L149.3,199.87L151.31,238.34L153.24,251.38L155.5,200.96L157.44,184.37L159.37,224.4L161.73,232.14L163.5,206.51L165.31,210.13L167.8,209.29L169.68,193.28L171.51,193.28L173.85,179.02L175.72,198.92L177.6,185.36L180.18,177.27L182.06,205.16L183.86,183.34L186.19,213.94L188.02,162.43L189.91,239.5L192.39,304.27L194.23,276.62L196.14,276.94L198.44,306.29L202.23,311.45L204.61,262.42L206.43,197.37L208.38,215.29L210.76,188.7L212.6,190.63L214.43,150.61L217.01,160.94L218.71,165.61L220.74,193.99L222.93,201.54L224.96,177.6L226.85,165.98L229.2,210.9L231.07,212.32L232.99,186.05L235.34,171.08L237.14,215.7L239.13,171.79L241.47,172.56L243.31,241.37L245.14,259.83L247.54,250.47L249.38,246.99L251.47,232.4L253.81,176.11L255.62,150.74L257.5,145.43L259.31,154.55L261.81,215.68L263.58,242L265.48,171.33L267.81,164.62L269.82,184.18L273.95,197.11L275.92,206.71L277.77,196.25L280.24,209.61L282.11,204.45L283.91,174.99L286.38,172.62L288.2,186.76L292.42,137.9L294.42,159.39L296.3,205.35L298.57,152.05L300.49,153.84L302.28,212.3L304.79,229.69L306.62,234.98L308.59,248.28L310.78,179.94L312.66,196.16L314.8,184.7L317.12,179.08L318.96,167.53L323.22,199.61L325.02,171.72L326.94,185.79L329.37,251.06L331.1,160.7L333.15,257.57L335.4,265.39L337.36,255.19L339.11,249.7L341.47,286.24L345.34,235.97L347.74,181.21L349.51,127.09L351.5,143.75L355.64,189.84L357.66,185.79L359.47,154.08L361.79,152.01L365.62,249.38L368.07,181.92L369.97,225.36L371.87,203.74L374.13,171.79L376.05,217.75L378.01,191.47L380.35,252.41L382.11,300.35L383.98,279.39L386.44,284.75L388.25,278.88L390.12,270.7L392.64,251.31L394.47,144.16L396.29,236.19L398.61,179.17L400.63,160.23L402.44,154.81L404.76,229L406.66,199.16L408.63,238.79L410.98,140.16L412.96,115.11L414.85,176.95L417.2,184.83L419.08,186.05L420.92,157.52L423.32,193.15L425.22,161.46L427.11,192.77L429.49,153.13L431.35,161.13L433.22,205.74L435.6,203.74L437.51,235.63L439.29,236.14L441.65,185.66L443.51,180.95L445.4,192.25L447.83,239.69L449.66,237.18L451.55,206.97L453.9,268.72L455.82,224.65L457.72,207.44L459.73,229.24L461.9,236.01L463.88,215.68L465.69,168.69L468.12,146.42L469.99,157.58L471.88,199.78L474.2,193.71L476.25,190.44L478.05,210.58L480.43,187.15L482.27,216.97L484.1,192.64L486.65,249.96L488.38,242L490.41,241.89L494.56,159.91L496.57,134.54L498.91,138.61L500.68,177.27L502.57,233.69L504.99,164.36L506.82,175.72L508.77,175.08L511.03,177.4L512.99,157.13L514.85,232.85L517.28,139.12L519.22,169.98L521.1,169.85L523.49,172.82L525.2,184.98L527.08,184.55L529.55,215.49L531.42,163.72L533.36,206.71L535.81,224.27L537.5,225.73L539.55,191.54L541.92,124.08L543.63,154.68L545.69,168.04L547.96,188.38L549.78,197.09L551.68,217.81L554.23,178.56L555.91,207.35L557.98,155.39L560.2,163.2L562.18,149L563.96,141.34L565.88,179.34L568.37,192.64L570.28,138.54L572.09,122.92L574.42,176.3L576.29,260.67L578.08,257.4L580.49,256.67L582.34,237.37L584.3,222.01L586.62,189.15L588.49,205.48L590.51,165.27L592.76,220.91L594.67,198.7L596.62,148.1L598.92,213.87L600.97,234.53L602.66,236.27L605.16,173.92L607.02,163.33L608.91,190.18L611.17,236.27L613.07,207.35L615.03,247.46L617.43,232.79L619.31,206.64L621.27,175.08L623.51,155L625.46,149.71L627.33,100.26L629.79,148.74L631.58,124.66L633.52,194.38L635.91,184.5L637.68,182.95L639.7,242.99L642.04,168.88L643.88,206.19L648.07,140.61L650.03,171.33L651.97,189.73L654.12,217.81L656.18,195.02L657.94,197.46L660.28,117.07L662.37,126.6L666.15,129.44L668.43,81.61L670.36,138.54L672.14,147.19L674.47,125.57L676.37,129.18L678.32,128.02L680.61,175.08L682.57,158.88L684.4,125.2L686.79,112.91L688.81,171.08L690.49,136.39L693.01,148.68L694.82,150.68L696.65,182.89L699.15,144.42L701.07,130.28L702.8,192.05L705.34,180.56L707.12,159.65L709.15,88.64L711.28,173.23L713.19,114.31L715.27,276.88L717.49,291.31L719.32,275.36L721.27,249.48L725.58,195.61L727.53,189.67L729.82,144.35L731.7,122.98L733.51,122.98L735.83,193.02L737.79,191.8L739.61,208.9L742.16,191.09L743.96,185.54L745.79,144.03L748.28,114.33L752.05,161.97L754.41,138.48L756.29,141.9L758.11,124.53L762.47,136.02L764.29,124.34L766.05,88L768.45,105.96L770.34,133.72L772.32,138.61L774.65,161.2L776.59,170.37L778.4,154.29L780.84,139.96L782.68,156.75L784.52,160.94L787.05,143.58L788.73,112.72L790.61,133.38L793.12,144.03L795.04,150.61L796.81,166.11L799.29,117.43L801.06,140.48L803.12,219.1L805.47,133.64L807.16,184.37L809.11,148.68L813.32,121.11L815.22,175.66L817.62,202.25L819.47,178.63L821.54,167.07L823.7,172.95L825.72,117.82L827.66,133.44L829.89,159.65L831.87,116.59L833.67,93.61L836.18,121.76L838.03,133.89L839.91,140.28L842.36,154.29L844.05,125.63L845.9,148.74L848.29,135.7L850.16,107.49L852.15,139.45L854.55,153.78L856.4,182.76L858.4,148.1L860.6,181.08L862.45,134.67L864.35,183.86L866.83,217.36L868.8,200.25L870.68,197.41L872.41,150.1L874.88,129.89L876.77,146.03L878.68,110.53L880.91,100.71L882.81,100.33L884.65,103.49L887.03,114.92L888.96,102.91L890.78,131.96L893.28,94.71L895.03,101.42L896.98,158.75L899.26,126.21L901.15,162.81L903.14,133.96L905.61,144.74L907.27,120.98L909.38,124.34L911.76,138.28L913.58,224.85L917.85,142.16L919.76,169.78L921.71,131.31L924.01,113.37L925.96,110.4L927.68,139.06L930.16,158.55L932.09,121.5L933.74,155.26L936.19,172.5L938.09,146.68L940.05,139.45L942.26,176.5L944.31,128.47L946.25,143.83L948.46,135.12L950.33,154.68L952.28,183.6L954.67,131.96L956.41,149.64L958.33,158.81L960.9,145.64L962.69,135.06L964.62,107.04L966.93,88.45L968.87,121.11L970.83,193.28L972.72,232.01L974.94,131.63L976.91,140.48L978.83,268.23L980.96,158.77L982.85,174.24L984.73,141.51L987.23,229.49L988.98,224.01L991.1,219.3L993.37,171.59L995.14,69.6L997.23,84.83L1003.17,173.53L1005.65,157.39L1007.55,166.94L1009.54,171.33L1011.81,312.96L1013.72,218.33L1015.54,129.89L1017.79,145.97L1019.68,129.7" style="vector-effect: none; fill: none; stroke: rgb(128, 133, 233); stroke-opacity: 1; stroke-width: 2px; opacity: 1;"/></g><g class="points"/><g class="text"/></g><g class="trace scatter trace4c26d1" style="stroke-miterlimit: 2; opacity: 1;"><g class="fills"/><g class="errorbars"/><g class="lines"><path class="js-line" d="M0,279.57L6.16,255.12L8.04,250.86L12.28,237.42L14.2,245.66L16.54,255.72L18.44,259.07L20.32,255.94L22.67,249.66L26.45,253.11L28.82,250.49L30.73,251.49L32.6,258.23L34.97,250.4L36.84,240.42L42.98,192.33L44.96,332L47.29,234.66L49.18,258.87L51.14,234.47L52.92,233.95L55.42,267.64L57.19,268.63L59.06,312.55L61.42,337.82L63.29,344.07L65.19,342.8L67.57,334.53L69.48,298.46L71.39,313.61L73.75,258.28L75.65,285.38L77.49,284.17L79.85,223.71L81.8,289.59L83.62,190.83L86.04,201.54L87.85,177.14L89.88,168.56L94.04,286.02L96.03,238.66L98.23,251.03L100.27,251.31L102.04,278.55L104.43,257.4L106.33,316.7L108.26,327.84L110.58,314.41L112.47,282.36L114.39,198.14L116.7,186.09L118.58,191L120.46,269.37L122.81,236.53L124.76,308.18L126.58,318L129.05,280.23L130.86,242.21L132.73,294.41L135.1,212.73L137.15,331.68L138.88,335.7L141.29,329.83L143.15,329.9L144.99,283.44L147.5,190.76L149.36,204L151.22,311.28L153.08,310.51L155.57,292.82L157.31,312.29L159.16,305.64L161.55,309.02L163.58,243.29L165.3,299.4L167.67,313.92L169.58,289.66L171.51,229.39L174,249.12L177.58,260.33L179.97,255.47L183.75,211.7L186.13,187.95L188.13,209.23L189.94,214.52L192.35,274.68L194.29,209.81L198.36,171.55L200.28,181.75L202.3,160.68L204.62,198.12L206.47,169.59L208.31,194.06L210.8,185.6L212.61,260.48L214.47,191.67L216.82,181.4L218.7,162.62L220.64,226.72L222.96,262.93L224.92,265.64L226.85,157.84L229.12,164.94L231.12,172.17L232.92,236.53L235.33,228.91L237.14,273.2L239.05,203.7L241.36,210.97L243.31,155.33L245.29,190.12L247.52,236.92L249.56,209.55L251.4,264.61L253.67,195.48L255.61,151.39L257.57,201.41L259.29,200.25L261.77,232.46L263.75,155.2L265.56,211.42L269.83,273.2L271.7,278.1L274.07,260.16L275.87,252.28L277.75,225.56L280.15,211.05L282.14,209.42L283.91,172.32L286.37,191.99L288.29,198.38L290.02,201.03L292.47,172.17L294.37,179.6L296.16,190.14L298.67,182.89L300.44,228.66L302.26,225.51L304.86,201.61L306.69,220.59L308.56,224.2L310.85,253.38L312.68,251.25L314.6,251.29L317.09,237.05L318.82,239.03L320.69,237.09L323.14,266.1L325.08,256.54L329.21,199.99L331.08,215.87L332.99,165.31L335.48,216.2L337.38,183.73L339.21,173.98L341.49,177.01L343.37,174.99L345.32,192.64L347.68,260.93L349.55,229.52L351.52,179.4L353.77,195.48L355.65,201.46L357.69,216.52L359.47,236.66L361.82,217.68L363.73,213.64L365.63,175.08L367.94,161.87L369.83,141.08L371.83,137.44L374.23,193.41L376.03,183.86L378.05,211.55L380.26,210.8L383.97,180.84L386.51,228.72L388.24,237.05L390.14,148.7L392.66,162.75L394.41,195.48L396.39,198.64L398.69,232.98L400.68,228.14L402.41,237.18L406.75,135.64L408.68,141.7L412.84,187.08L414.69,144.82L423.28,248.67L425.09,249.31L429.39,183.56L431.27,167.55L433.2,196.77L435.46,157.82L439.28,189.06L441.81,199.35L443.59,153.07L445.38,182.05L447.8,174.95L449.76,171.98L451.55,153.73L454,165.07L455.86,155.97L457.78,160.94L463.87,255.57L465.88,246.73L468.04,230.14L470.01,233.22L471.96,166.3L474.23,142.61L476.2,159.84L478,151.58L480.32,143.88L482.24,171.46L484.1,171.51L486.59,193.93L488.37,197.58L490.31,130.37L494.66,182.18L496.56,249.7L498.78,240.66L500.66,188.63L502.74,186.18L504.92,150.74L506.81,164.88L508.74,224.91L511.01,204.6L512.98,171.2L517.29,136.67L519.08,194.83L521.01,162.62L523.3,175.25L525.42,169.27L527.18,122.47L529.61,218.52L531.33,227.58L533.22,186.91L535.59,175.77L537.62,215.75L539.36,164.75L541.87,165.59L543.85,160.23L545.6,149.32L547.96,166.11L549.93,171.08L551.69,144.35L554.01,139.7L555.91,131.25L557.9,108.65L560.17,128.21L562.13,123.76L564.12,132.28L565.85,166.34L568.29,180.18L570.1,204.56L572.14,157.84L574.49,154.23L576.34,136.35L578.21,138.35L580.55,151.13L582.34,121.5L584.42,198.32L588.61,114.01L590.42,169.18L592.77,143.28L594.62,160.02L596.55,163.52L599.04,145.97L600.82,151.97L602.72,176.3L605.05,176.37L607.12,220.84L609.04,182.18L611.32,158.75L614.99,137.44L617.35,140.54L619.23,134.73L621.11,158.12L623.53,185.47L625.51,216.39L627.26,175.53L629.65,168.3L631.47,113.93L633.53,126.6L637.71,233.17L639.59,227.88L641.97,206.06L643.98,149.77L645.73,116.59L648.15,181.73L649.94,183.21L651.9,204.84L654.32,238.27L656.2,219.17L660.3,237.24L662.29,213.25L664.16,200.77L665.98,198.32L668.48,204L670.31,201.22L672.17,198.57L674.57,148.03L676.42,127.7L678.34,96.07L680.65,141.9L682.6,140.09L684.43,123.18L686.87,163.07L688.81,186.7L690.55,143.32L693.05,163.65L694.87,134.73L696.75,136.86L699.19,141.12L700.98,121.11L702.99,128.73L705.35,142.09L707.17,133.12L708.98,148.87L711.47,147.32L713.2,115.82L715.21,145.9L717.47,160.81L719.48,149.26L723.72,115.43L725.59,105.81L727.5,115.04L729.73,105.81L731.77,142.03L733.5,131.31L735.95,131.63L737.86,150.16L739.62,167.59L742.1,260.54L744.04,240.73L745.95,175.85L748.22,162.17L750.05,185.41L756.18,148.61L758.12,122.27L760.6,126.99L762.28,109.69L764.28,134.8L766.19,97.74L768.49,134.47L770.5,135.77L772.42,170.56L774.71,135.96L776.44,181.66L778.46,155.58L780.88,201.48L782.73,198.64L786.95,252.73L788.84,246.47L790.62,217.38L793.01,210.93L794.86,208.09L796.84,171.27L799.14,130.41L801.17,163.07L802.96,150.72L805.43,109.75L807.19,93.61L809.09,100.39L811.5,104.59L813.39,113.56L815.37,116.59L817.63,124.34L819.42,129.5L821.48,168.75L823.84,182.63L825.64,146.93L827.48,102.2L829.93,105.75L831.79,103.75L833.73,146.55L836.13,132.15L837.96,136.48L839.82,162.1L842.15,178.05L844.18,178.89L845.95,175.21L848.44,171.91L850.18,153.84L852.13,143.32L854.46,125.31L856.35,128.15L858.2,111.17L860.69,141.38L862.57,141.38L864.29,181.86L866.81,147.9L868.57,105.49L870.44,90.52L874.77,142.54L876.69,137.38L878.68,133.18L881.02,158.17L882.87,170.04L884.7,147.39L887.12,75.22L889.06,141.64L890.95,105.36L893.17,116.01L895.07,92.06L896.97,161.65L899.35,150.42L901.25,128.21L903.19,141.58L905.54,137.96L907.43,119.95L909.34,155.13L911.66,128.6L913.41,138.41L915.32,120.14L917.72,105.62L919.58,103.75L921.65,83.93L923.89,178.89L925.83,104.26L927.77,122.53L929.94,88.58L931.85,111.17L933.9,97.36L936.28,179.85L938.09,158.04L940.02,143.71L942.43,155.07L944.11,132.73L946.22,141.51L948.44,98.58L950.35,126.53L952.33,109.75L954.59,98.97L956.45,169.85L958.47,138.67L960.83,155.33L962.57,137.9L964.63,129.31L966.98,110.14L968.78,89.09L970.68,105.1L972.6,189.92L974.86,124.4L976.92,190.7L978.8,184.5L981.07,257.77L982.9,245.31L989.17,190.31L990.94,182.63L993.29,192.05L995.3,133.57L997.19,101.88L999.4,101.3L1001.26,111.77L1003.32,130.86L1005.65,154.03L1007.56,155.78L1009.5,156.1L1011.76,306.12L1015.46,144.31L1017.79,180.42L1019.67,119.26" style="vector-effect: none; fill: none; stroke: rgb(241, 92, 128); stroke-opacity: 1; stroke-width: 2px; opacity: 1;"/></g><g class="points"/><g class="text"/></g><g class="trace scatter traceaaecda" style="stroke-miterlimit: 2; opacity: 1;"><g class="fills"/><g class="errorbars"/><g class="lines"><path class="js-line" d="M0,267.26L1.89,265.03L4.29,236.19L6.14,238.81L8.04,237.35L12.28,220.68L14.18,232.26L16.53,225.36L18.42,243.79L20.31,240.39L22.7,240.64L24.57,230.28L26.48,232.39L28.84,235.42L30.72,241.96L34.96,231.5L36.85,227.59L38.75,218.33L41.09,218L43.05,208.88L44.9,207.06L47.27,193.78L49.12,199.49L52.96,189.24L55.28,190.48L57.16,210.76L59.03,195.46L61.42,204.57L63.28,187.94L65.21,179.5L67.61,233.69L69.46,200.8L71.35,194.13L75.58,188.82L77.46,211.72L79.89,229.73L81.74,222.67L83.6,205.75L85.97,194.78L87.88,253.92L89.79,240L92.29,271.17L94.04,210.74L95.96,194.66L98.33,237.95L100.23,283.01L102.06,270.14L104.53,267.06L106.41,226.46L108.36,269.45L110.59,298.5L112.41,322.97L114.51,277.37L116.71,301.43L118.62,266.22L120.56,236.98L122.93,270.36L124.81,235.69L126.64,281.63L129.04,268.68L131.02,288.5L132.72,290.41L135.2,192.57L137.05,194.31L138.89,206.67L143.22,182.24L145.2,236.47L147.5,282.71L149.27,201.33L151.17,218.11L153.17,264.8L155.44,209.42L157.45,246.79L159.34,178.31L161.52,268.68L163.44,191.52L165.4,195.02L167.72,165.91L169.69,227.04L171.56,259.12L173.9,268.36L175.74,309.05L177.7,278.92L179.99,249.27L181.97,260.35L183.8,222.5L186.09,224.74L188.08,207.7L190.04,312.96L192.22,335.89L194.12,330.24L196.07,330.39L198.43,315.59L200.37,292.53L202.14,282.04L204.61,244.47L206.53,181.08L208.4,300.18L210.74,270.23L212.53,309.47L214.55,286.36L216.91,200.19L218.7,262.55L220.66,291.34L222.96,289.14L224.84,314.2L226.73,299.53L229.15,309.56L230.98,290.63L235.36,248.54L237.14,252.09L239.14,181.73L241.36,307.45L243.26,311.59L245.14,321.53L247.49,192.98L249.49,306.89L251.35,326.37L253.64,323.95L257.4,318.25L259.29,297.98L261.7,228.74L263.74,217.62L265.5,256.61L267.96,256.41L269.8,250.43L271.74,283.46L273.94,169.4L275.91,203.09L277.74,306.76L280.31,238.47L281.97,252.67L283.93,231.67L286.39,254.35L288.13,241.05L290.03,137.25L292.51,218.07L294.29,168.15L296.25,175.14L298.65,204.58L300.52,195.73L302.48,206.19L304.67,203.05L306.69,176.11L308.44,195.09L310.88,201.74L312.84,195.86L314.71,163.85L317.04,226.53L318.91,244.06L320.72,270.4L323.2,267.84L325.03,235.63L329.22,274.27L331.2,263.81L333.05,233.35L335.42,148.78L339.25,175.79L341.53,175.47L343.35,151.54L345.29,185.92L347.74,186.63L349.6,179.6L351.55,172.88L353.83,168.62L355.79,210.58L357.54,209.55L359.47,198.96L361.81,208.99L363.79,198.12L365.61,167.93L368.01,226.85L369.93,178.5L371.72,183.73L374.09,137.9L376.07,215.16L377.98,166.11L380.25,175.72L382.14,195.91L383.97,181.49L386.39,202.15L388.34,202.45L390.18,181.73L392.58,209.42L394.47,201.54L396.32,212.32L398.75,201.54L400.52,170.73L402.51,202.77L404.87,201.16L406.65,182.78L408.57,179.64L410.96,165.95L412.84,154.98L414.8,162.21L418.97,243.8L420.88,180.82L423.34,188.57L425.07,158.21L427.04,172.71L429.44,180.31L433.12,216.05L435.56,182.18L437.35,145.99L439.35,239.37L441.78,186.12L443.49,181.49L445.39,182.82L447.83,205.22L449.65,173.87L451.51,157.22L453.9,174.91L455.88,175.21L457.81,172.04L459.64,158.72L462.03,153.07L463.9,183.08L465.79,168.04L468.04,191.78L470.01,174.05L471.91,137.85L474.24,164.92L476.12,217.25L480.41,163.76L482.27,124.73L484.25,202.77L486.52,171.59L488.36,146.03L490.35,149.21L492.71,147.84L494.54,165.09L496.4,163.63L498.92,148.55L500.66,194.92L502.71,194.38L504.89,168.71L506.92,224.4L508.82,153.97L511.11,155.07L512.96,151.06L514.89,155.63L517.29,212.07L519.12,216.82L521.09,215.04L523.39,145.71L525.19,137.72L527.08,164.32L529.52,143.62L531.38,159.41L533.28,158.1L535.63,128.64L537.5,223.75L539.48,232.27L541.84,163.72L543.67,160.83L545.55,192.57L548.06,145.38L551.65,245.31L554.04,189.8L556.02,156.23L557.93,165.01L560.27,176.56L562.1,154.23L564.02,142.8L565.97,144.87L568.21,181.4L570.14,174.3L572.01,157.52L574.33,198.77L578.1,131.35L580.47,94.99L584.31,172.75L586.59,149.17L588.49,135.62L590.57,190.57L592.9,217.62L594.73,217.75L596.57,177.4L598.98,150.74L600.82,234.08L602.78,123.5L605,165.27L606.94,170.52L608.86,151.9L611.27,138.99L613.2,144.03L614.98,125.11L617.41,183.86L619.24,200.19L621.15,163.11L623.48,209.89L625.34,166.11L627.38,162.36L629.73,133.51L631.54,166.36L633.44,162.23L635.79,186.89L637.73,193.67L639.59,187.41L642.06,145.45L643.88,252.41L645.7,285.85L648.14,252.86L651.88,294.69L654.16,287.43L656.16,260.22L657.93,262.74L660.3,269.52L662.31,268.29L664.05,256.37L666.12,258.03L668.34,245.22L670.23,225.36L672.12,221.1L674.63,161.07L676.39,118.66L678.21,127.09L680.7,102.26L682.61,169.78L684.54,156.55L686.75,124.15L688.65,136.28L690.53,137.57L693.05,120.4L694.83,207.22L696.64,198.19L698.99,181.79L700.89,115.39L702.94,122.47L705.3,124.28L707.16,143.83L709.07,117.56L711.26,126.32L713.26,141.96L715.13,128.08L719.31,146.29L721.33,116.27L723.6,113.88L725.6,119.31L727.43,133.38L729.84,141.06L731.59,169.27L733.55,168.88L735.93,161.2L737.73,193.93L739.74,219.49L742.06,197.09L743.89,127.05L745.85,95.36L748.24,126.73L750.07,138.54L751.97,141.12L754.38,151.65L756.27,125.44L758.03,156.68L760.41,149.58L762.37,123.82L764.16,176.37L766.11,153.78L768.49,154.68L770.37,187.54L772.33,180.44L774.79,188.25L776.5,153.19L778.53,183.92L780.86,164.81L782.74,162.3L784.53,191.15L786.95,185.99L788.82,228.53L790.62,249.31L793.19,253.83L794.89,332.64L796.79,333.9L799.12,333.86L801.02,336.35L802.91,333.75L805.25,334.43L807.15,309.53L811.49,114.66L813.4,128.79L815.24,101.62L817.61,107.75L819.54,107.17L821.31,136.93L823.84,94.78L825.75,144.8L827.64,181.34L829.95,184.76L831.77,181.02L833.67,129.31L836,83.67L837.91,128.73L839.79,146.8L842.27,185.66L845.88,265.14L848.3,260.25L852.13,178.76L854.5,183.47L856.53,149.64L858.26,162.04L860.81,161.13L862.48,158.29L864.56,185.41L866.72,162.49L868.78,183.08L870.45,172.17L872.62,138.54L874.81,166.3L876.65,179.79L878.46,136.41L880.98,162.3L882.82,172.93L884.7,165.78L887.02,153.84L888.87,181.62L890.91,155.07L893.29,188.5L895.04,174.43L896.88,140.91L899.45,186.63L901.39,148.1L903.29,165.65L905.44,206.09L907.31,203.05L909.27,201.03L911.69,197.15L913.43,131.01L915.55,200.9L917.84,134.28L919.68,119.5L921.56,118.4L924.03,149.9L925.75,57.34L927.82,93.68L930.05,117.82L932.02,45.85L933.72,143.19L936.09,149L938.15,160.94L940.09,163.65L942.27,126.47L944.23,145.64L946.06,109.69L948.44,123.69L950.4,174.69L952.22,169.33L954.53,173.21L956.42,121.56L958.29,162.3L960.65,174.13L962.57,171.55L964.61,155.71L966.92,157.46L968.79,167.65L970.68,131.12L972.62,132.67L974.87,107.36L976.92,143.96L978.85,128.86L981,169.66L982.96,144.67L984.8,132.86L987.08,137.9L989.07,106.27L991.03,129.25L993.48,101.1L997.17,146.8L999.63,139.45L1001.38,177.27L1003.33,297.08L1007.41,156.75L1009.51,142.16L1013.64,101.75L1015.58,104.39L1017.89,124.73L1019.84,197.8" style="vector-effect: none; fill: none; stroke: rgb(228, 211, 84); stroke-opacity: 1; stroke-width: 2px; opacity: 1;"/></g><g class="points"/><g class="text"/></g><g class="trace scatter tracecdede3" style="stroke-miterlimit: 2; opacity: 1;"><g class="fills"/><g class="errorbars"/><g class="lines"><path class="js-line" d="M0,297.68L1.9,299.13L4.26,288.24L6.17,289.31L8.07,298.72L10.39,293.07L12.29,295.81L14.2,299.42L16.53,291.58L18.45,293.24L20.31,274.04L22.7,271.52L24.59,267.35L26.46,269.1L28.81,261.06L30.72,257.27L32.6,255.49L34.95,267.81L36.85,268.18L38.73,230.13L41.2,214.88L45.03,231.63L47.34,345.71L49.14,329.54L51.15,238.92L52.95,289.14L55.39,252.48L57.19,304.57L59.07,320.48L61.43,273.05L63.34,254.14L65.32,253.31L67.56,268.72L69.48,239.54L71.46,325.58L73.73,271.65L75.63,264.03L77.62,297.6L79.81,300.39L81.78,311.99L83.63,333.15L85.97,337.47L87.85,315.43L89.75,312.38L92.16,237.87L94.1,256.61L95.98,213.94L98.33,227.62L100.12,208.95L102.15,229.88L104.39,207.61L106.28,258.52L108.27,287.27L110.54,255.19L112.41,312.01L114.42,282.04L116.84,224.14L118.59,225.04L120.59,222.01L123.02,271.32L124.77,237.52L126.71,225.04L129.05,217.1L130.92,228.78L132.72,275.31L135.09,277.07L136.99,245.37L139.04,202L141.44,226.91L143.19,301.65L145.09,298.69L147.36,271.23L149.27,257.93L151.15,240.75L153.07,199.48L155.43,302.95L157.29,319.19L159.2,296.56L161.55,281.05L163.49,266.57L165.43,246.28L167.81,221.43L169.57,257.92L171.58,208.77L173.94,216.58L175.85,311.67L177.65,315.44L179.94,299.97L181.92,267L183.94,222.98L186.13,201.67L188.11,237.95L190.02,172.95L192.4,181.73L194.2,200.86L196.23,220.39L198.42,187.47L200.36,181.21L202.16,190.91L206.54,223.88L208.37,195.93L210.66,203.61L212.64,197.54L214.51,175.27L216.92,170.43L218.73,204.06L220.69,224.59L226.84,288.77L229.25,228.85L231.15,221.94L232.99,189.8L235.27,277.97L237.14,287.91L239.03,209.42L241.48,196.12L243.38,224.46L245.15,199.44L247.66,197.8L249.5,222.46L251.38,207.48L253.68,196.25L255.62,204.58L257.57,200.51L259.4,171.91L261.82,197.41L263.61,190.31L265.43,187.64L267.83,180.37L269.82,199.28L271.65,198.9L274.02,191.99L277.96,205.42L280.13,193.41L281.96,237.82L284.08,222.27L286.31,161.2L288.1,175.34L290.12,192.64L292.5,199.41L296.22,259.96L298.49,265.64L300.4,276.94L302.35,274.4L304.73,249.74L306.68,241.63L308.57,206L310.94,196.06L312.75,262.8L314.55,261.28L316.99,274.78L318.91,227.49L320.85,208.19L323.18,234.59L324.95,216.52L326.83,177.47L329.19,185.19L331.16,186.89L333.14,244.15L335.44,221.94L337.35,207.1L339.13,229.72L341.5,206.67L343.48,200.9L345.32,187.6L347.67,264.37L349.57,264.93L351.41,249.91L353.84,233.48L355.78,200.9L357.8,238.21L359.45,198.83L361.83,222.24L363.83,209.74L365.68,177.01L368.03,282.69L369.8,274.06L371.73,236.44L374.09,280.43L375.97,280.49L377.89,292.37L380.21,201.97L382.12,153.69L384.02,229.82L386.53,228.48L388.45,234.79L392.52,177.06L394.38,171.76L396.39,168.17L398.74,169.01L400.7,149.84L402.43,193.97L404.77,203.35L406.76,179.79L410.95,233.99L412.8,233.63L414.8,186.25L417.17,187.54L419.03,207.74L420.85,193.93L423.22,172.28L425.25,172.3L427.07,146.93L429.41,187.73L431.26,174.76L433.12,183.02L435.58,204L437.48,199.67L439.31,175.59L441.69,196.32L443.56,184.2L445.41,145.17L447.75,154.12L449.65,178.26L451.58,215.49L453.94,203.03L455.95,202.32L457.84,184.18L459.74,177.79L462.02,136.8L463.89,204.77L465.75,161.59L468.1,183.47L470.08,164.17L471.85,166.3L474.39,165.98L476.26,209.03L478.02,203.55L480.45,220.65L482.33,253.62L484.27,228.53L486.5,181.02L490.26,133.89L492.75,180.56L494.59,137.38L496.55,168.69L498.9,181.53L500.64,184.76L502.58,168.69L504.88,178.82L506.87,173.98L508.65,153.73L513.02,178.56L514.93,278.58L517.28,299.88L519.06,261.28L521,241.18L523.47,205.03L525.22,172.58L527.29,160.55L529.61,249.31L531.37,222.98L533.24,204.51L535.65,209.03L537.5,203.16L539.48,172.24L541.77,155.26L543.81,164.3L545.52,148.96L547.95,171.66L549.87,163.07L551.65,149.77L554,156.36L556.03,164.75L557.82,142.37L560.27,152.16L562.13,178.18L563.99,180.63L565.82,161.69L568.23,85.16L570.1,131.1L571.95,147.28L574.38,165.91L576.32,235.82L578.21,268.63L580.49,253.83L582.39,235.69L584.29,243.83L586.59,158.68L588.69,159.26L592.73,236.14L594.81,228.66L596.66,194.83L598.93,178.99L600.84,113.95L602.66,144.8L605.05,175.27L607.06,165.14L608.92,177.47L611.16,264.89L613.08,280.62L615,244.88L617.44,234.72L619.36,221.23L621.06,169.27L623.51,175.98L625.33,209.81L627.28,173.61L629.77,184.63L631.52,180.63L633.42,191.15L635.7,167.91L637.6,166.47L639.58,151.58L641.85,140.54L643.78,165.65L645.78,133.57L647.98,189.67L650.03,154.36L651.82,152.81L654.16,221.43L656.18,183.53L657.94,162L660.34,226.85L664.22,128.34L666.12,211.03L670.18,166.34L672.18,191.34L674.53,140.16L676.37,145.32L678.39,136.8L680.81,121.44L682.62,171.98L684.39,146.8L686.87,98.91L688.62,149.64L690.74,161.01L692.97,157.97L694.79,165.91L696.75,166.36L699.17,124.15L701.01,136.99L702.86,134.09L705.27,181.4L707.08,187.02L709.11,283.14L711.39,253.44L713.2,219.96L715.24,180.63L717.63,193.02L719.51,159.2L721.36,168.11L723.71,169.27L725.59,212.07L727.35,171.79L729.83,138.35L731.69,119.89L733.54,155.39L735.89,166.36L737.75,155.13L739.76,127.05L742.2,145.9L743.98,186.31L745.85,151.67L748.23,194.12L750.11,171.27L754.47,112.59L756.33,127.57L758.1,113.04L760.47,141.51L762.28,167.93L764.28,171.59L766.13,145.13L768.45,195.41L770.43,160.88L772.32,144.42L774.69,137.96L776.5,194.19L778.45,144.67L780.87,165.78L782.7,155.52L784.5,140.41L786.92,137.57L788.74,146.16L790.8,145.13L793.05,139.25L794.98,140.22L796.82,127.12L799.27,132.34L801.25,123.63L802.91,118.01L805.29,124.86L807.32,129.05L809.15,153.65L811.55,144.03L813.5,117.5L815.17,169.98L817.59,164.81L819.48,188.96L821.38,194.77L823.75,167.65L825.68,156.68L827.6,158.94L830.02,148.03L831.85,144.48L833.59,173.21L836.16,177.4L837.95,153.65L842.14,133.96L844.24,131.76L845.87,138.35L848.49,136.86L850.33,113.75L852.12,126.66L854.58,178.31L856.36,170.24L858.39,204.9L860.73,207.87L862.63,217.55L864.47,182.95L866.65,200.74L868.57,152.18L870.56,134.47L872.47,129.83L874.9,111.43L876.61,111.37L878.58,145.58L880.93,146.09L882.73,255.64L884.67,212.39L887.1,224.05L888.89,176.02L890.97,148.74L893.26,174.17L895.19,158.94L897.01,150.81L899.36,139.7L901.26,139.9L903.1,124.08L905.62,132.34L907.4,101.49L909.16,129.12L911.67,119.76L913.42,133.29L915.43,142.67L917.74,149.19L919.8,142.16L921.48,130.28L924,149.9L925.73,185.86L927.62,153.71L929.93,137.59L931.95,180.5L933.75,141.77L936.08,194.44L938.07,153.39L939.99,148.61L942.3,85.16L944.19,150.61L946.04,145.71L948.51,93.55L950.38,159.07L952.28,160.23L954.62,131.38L956.61,124.21L958.3,104.46L962.68,117.11L964.52,119.43L966.97,129.12L968.87,116.59L970.74,148.48L972.46,94.26L974.99,116.85L976.69,138.8L978.6,161.01L980.95,151.97L982.94,112.72L984.85,129.89L987.24,100.84L989.17,106.52L990.95,105.23L993.28,151.58L995.27,133.18L997.17,44.55L999.56,122.6L1001.25,148.61L1003.29,151.19L1005.59,135.38L1007.5,174.24L1009.54,179.08L1011.74,154.36L1013.58,242.86L1015.46,187.37L1017.79,188.17L1019.73,171.95" style="vector-effect: none; fill: none; stroke: rgb(43, 144, 143); stroke-opacity: 1; stroke-width: 2px; opacity: 1;"/></g><g class="points"/><g class="text"/></g><g class="trace scatter trace27e496" style="stroke-miterlimit: 2; opacity: 1;"><g class="fills"/><g class="errorbars"/><g class="lines"><path class="js-line" d="M0,279.3L1.89,273.64L4.27,263.91L6.16,271.38L8.04,272.64L10.43,263.05L12.28,276L14.19,287.59L16.53,280.31L20.34,250.18L22.69,247.39L24.58,251.62L26.45,243.34L28.83,242.48L30.73,230.67L34.98,209.69L36.85,205.79L41.17,157.46L42.99,170.62L44.88,341.05L47.33,206.36L49.16,245.91L51.14,264.16L53.08,326.19L55.29,327.7L57.17,252.93L59.05,313.71L63.32,331.28L65.28,262.31L67.55,232.49L69.54,330L71.53,184.95L73.86,228.4L75.72,233.05L77.62,178.05L79.83,346.91L81.82,348.85L83.62,337.8L86.06,226.25L87.85,304.78L89.88,215.75L92.19,181.06L94.04,172.24L96.01,278.36L98.32,301.7L104.43,184.2L106.39,221.43L110.67,263.97L112.44,227.45L114.3,252.24L116.74,206.19L118.54,273.07L120.46,236.88L122.82,234.59L124.77,168.49L126.59,219.75L129.12,199.99L130.99,233.76L132.72,207.7L135.16,275.39L137.04,210.45L139.11,259.38L141.25,266.57L143.24,271.78L145.02,304.81L147.39,312.51L149.32,310.74L151.16,294.91L153.13,264.42L155.38,283.61L157.52,243.63L159.31,243.37L161.58,255.57L163.41,288.99L165.38,214.97L167.87,188.12L169.67,186.37L171.51,166.04L174.03,205.93L175.86,265.19L177.67,283.14L180.05,301.96L181.83,298.32L183.76,309.97L186.12,317.03L188.04,322.05L189.9,323.16L192.24,321.32L194.13,303.96L196.19,226.59L198.47,246.47L200.27,256.11L202.17,250.12L204.64,236.79L206.47,215.81L208.45,222.85L210.64,194.74L212.54,221.47L214.42,193.54L216.95,222.07L218.73,218.33L220.63,167.53L223.07,165.59L224.9,236.08L226.8,211.81L229.21,236.98L231.1,200.51L232.88,203.42L235.26,193.48L237.24,207.61L239.09,245.25L241.58,235.95L243.28,178.24L247.53,187.08L249.5,145.97L251.49,155.13L253.73,200.25L255.57,239.05L257.42,194.62L259.34,224.85L261.65,240.15L263.72,226.46L265.56,288.85L267.94,198.96L269.69,197.63L271.76,198.19L273.95,182.39L277.83,198.83L280.14,223.04L281.96,220.35L283.92,210.13L286.38,199.87L288.22,231.24L290.01,207.31L292.39,212.23L294.31,209.55L296.24,171.4L298.7,200.19L300.45,196.08L302.27,204.99L304.77,162.55L306.62,143.53L308.54,138.67L310.8,149.52L312.78,224.91L314.56,251.64L317.1,198.9L318.89,155.45L320.73,196.04L323.12,189.47L324.97,196.21L326.98,250.09L329.35,168.88L331.22,169.4L333.08,160.36L335.35,211.18L337.29,204L339.21,219.75L341.47,191.99L343.49,184.37L345.4,211.55L347.69,204.9L349.64,226.85L351.59,216.97L353.91,185.08L355.65,205.48L357.56,201.93L359.49,149.19L361.83,268.98L363.73,290.08L365.66,268.48L368,232.44L369.91,190.79L371.72,149.52L374.15,135.83L376.02,215.4L377.89,198.64L380.27,194.44L382.13,157.69L384.15,196.12L386.51,155.78L388.22,128.69L390.17,168.19L392.53,269.13L394.44,249.79L398.72,234.85L400.66,216.33L404.79,284.2L406.66,242.34L408.68,210.97L410.97,199.54L412.84,174.3L414.73,196.51L417.19,184.76L418.97,195.28L420.84,144.87L423.34,116.53L425.13,153.56L427.03,156.87L429.44,149.58L431.25,214.13L433.14,200.45L435.45,205.46L437.56,189.02L439.35,162.43L441.76,155.91L443.61,160.17L445.44,139.12L447.73,169.31L449.82,151.65L451.63,178.56L453.95,200.96L455.84,147.51L457.69,164.79L459.62,162.23L461.98,162.23L463.95,146.87L465.79,180.5L468.11,153.32L470,147.64L472,174.76L474.29,158.75L476.19,167.27L478,159.97L480.35,172.54L482.42,191.73L484.15,144.18L486.6,182.18L488.49,149L490.32,191.34L492.82,133.05L494.57,147.84L496.52,152.1L498.92,156.49L500.63,171.38L502.56,180.95L504.98,182.31L508.7,134.86L511.1,148.1L512.99,181.08L514.84,227.17L517.17,206.67L519.15,166.69L521.05,146.16L523.36,157.07L525.19,181.36L527.16,269.75L529.5,291.96L531.34,297.8L533.22,300.44L535.57,294.93L537.46,294.21L539.37,278.02L545.78,241.18L547.91,172.58L549.79,162.12L551.86,171.46L554.18,211.16L555.88,216.39L557.9,211.48L560.19,153.58L562.16,140.87L564.06,210.97L565.92,173.66L568.37,281.01L570.12,279.78L572.04,196.25L574.3,158.21L576.41,140.74L578.23,173.08L580.51,174.95L582.34,156.75L584.22,156.66L586.63,181.15L588.62,243.24L590.49,199.61L592.79,195.22L594.71,160.3L596.51,214.88L598.97,188.38L600.89,139.64L602.74,177.66L605.05,172.04L607.06,149.71L608.98,176.76L611.25,240.47L613.25,236.34L615.14,175.47L617.41,182.82L619.31,132.15L621.13,144.42L623.62,217.68L625.48,189.92L627.27,131.76L629.57,132.6L633.52,185.41L635.73,178.24L637.67,121.24L639.51,172.54L641.9,133.7L643.83,264.35L645.64,226.33L648.15,146.74L649.99,121.56L651.93,153.32L654.28,127.37L656.18,141.96L658.09,122.92L660.39,157.26L662.25,164.88L664.07,151.06L666.05,161.07L668.32,176.5L670.39,164.69L672.07,180.97L674.49,141.77L676.34,216.07L678.25,179.08L680.77,187.47L682.56,161.84L684.46,179.55L686.89,153.84L688.7,252.64L690.73,245.7L692.96,188.38L695,142.16L696.79,157L699.09,111.69L701.06,132.41L702.82,95.29L705.2,118.01L707.15,149.32L709.09,157.65L711.49,126.53L713.21,144.87L715.16,134.6L717.53,137.9L719.31,140.48L721.22,152.55L723.56,234.12L725.53,149.19L727.35,256.67L729.75,267.97L731.64,263.97L733.6,266.83L737.95,250.15L739.61,232.21L742.09,199.28L744.09,205.42L745.95,152.16L748.17,149.9L750.01,163.11L751.92,161.59L754.33,116.14L756.34,133.64L758.13,176.05L760.53,202.64L762.44,167.59L764.17,195.99L766.11,165.27L768.58,168.82L770.49,175.72L772.36,161.52L774.69,180.56L776.46,166.04L778.47,167.46L780.81,214.52L782.64,197.03L784.52,220.33L787,107.17L788.8,125.5L790.69,120.27L793.14,100.26L795.06,91.61L796.9,100.97L799.26,123.37L801.02,126.02L802.99,97.62L805.35,119.5L807.25,123.82L809.27,110.27L811.44,140.8L813.32,133.46L815.41,154.68L817.66,118.01L819.53,116.34L821.32,180.89L823.79,168.75L825.56,128.77L827.66,125.89L830,125.82L831.7,124.73L833.73,108.14L836.06,99.23L837.85,105.75L839.77,110.4L842.25,114.4L844.01,145.71L846.04,109.56L848.24,129.63L850.35,179.47L854.61,123.95L856.36,130.21L858.27,127.5L860.65,141.06L862.65,131.57L864.33,145.58L866.8,154.23L868.54,120.27L870.5,199.35L872.34,214.88L874.68,141.83L876.65,105.81L878.71,125.24L880.88,123.89L882.93,118.79L884.85,118.66L887.02,123.57L888.99,90.9L890.94,96.45L893.34,196.64L895,127.25L897.03,114.21L899.45,139.38L901.36,167.2L903.21,169.72L905.44,186.63L907.41,187.79L909.25,104.14L911.64,120.47L913.49,123.57L915.48,144.74L917.8,160.04L919.59,117.63L921.7,115.17L924.02,100.07L925.77,161.2L927.71,106.91L929.99,116.59L931.83,145.25L933.87,193.73L938.13,145.13L940.03,125.31L942.38,140.22L944.22,140.03L946.06,158.42L948.46,100.26L950.3,112.59L952.15,191.41L954.61,232.66L956.46,208.84L958.4,231.88L960.77,212.97L962.64,214.52L964.63,217.42L966.81,245.57L968.81,196.57L970.58,215.55L972.47,179.98L974.95,218.07L976.74,189.15L981.14,115.43L982.97,100.65L984.93,120.47L987.1,164.69L989.16,116.08L991.15,139.19L993.25,151.65L995.26,121.82L997.23,43.65L999.59,107.3L1001.45,144.09L1003.29,165.14L1005.59,134.28L1007.57,154.74L1009.32,151.45L1011.78,143.51L1013.86,361.76L1015.62,192.83L1017.81,261.09L1019.69,148.85" style="vector-effect: none; fill: none; stroke: rgb(244, 91, 91); stroke-opacity: 1; stroke-width: 2px; opacity: 1;"/></g><g class="points"/><g class="text"/></g><g class="trace scatter tracec6b12b" style="stroke-miterlimit: 2; opacity: 1;"><g class="fills"/><g class="errorbars"/><g class="lines"><path class="js-line" d="M0,290.47L1.91,294.73L4.26,288.74L6.17,297.38L8.06,293.62L10.43,283.73L12.32,281.59L14.18,294.51L16.55,290.73L18.44,272.38L20.35,264.29L22.68,266.39L24.57,262.52L28.82,254.68L30.72,246.98L32.62,245.18L34.96,236.12L36.88,235.1L38.73,209.6L41.22,211.1L43.05,335.88L44.94,236.34L47.46,274.1L49.15,281.37L51.15,220.46L53.04,291.98L55.32,329.55L57.15,331.81L59.06,304.6L61.46,349.24L63.3,330.76L65.19,318.55L67.57,266.27L69.52,216.46L71.57,246.47L73.83,217.23L75.71,280.3L77.53,321.29L79.89,312.57L81.82,279.33L83.76,279.2L85.96,321.4L87.93,338.19L89.74,339.25L92.11,308.02L94,315.96L95.93,317.65L98.29,265.26L100.14,288.72L102.16,202.64L104.52,218.65L106.3,227.88L108.22,218.46L110.69,244.73L112.49,241.95L114.47,249.96L116.79,234.34L120.54,214.07L122.81,243.76L124.76,234.21L126.58,259.25L128.94,245.96L130.87,260.08L132.91,278.49L135.13,282.1L137.03,232.14L138.92,246.95L141.4,212.78L143.2,213.36L145.13,300.82L147.44,208.45L149.39,213.03L151.16,206.06L153.08,213.55L155.41,217.85L157.28,180.5L159.29,207.68L161.58,214.02L163.63,262.16L165.48,243.7L167.73,234.72L169.62,265.64L171.48,263.9L173.98,184.12L175.77,253.57L177.61,230.14L180.13,176.63L181.85,161.01L183.85,260.54L188.02,211.1L189.89,256.22L192.38,174.43L194.14,232.7L196.16,176.05L198.44,239.5L200.34,182.69L202.34,266.87L204.59,256.09L206.47,299.96L208.3,296.13L210.69,266.7L214.43,252.02L216.81,244.99L218.8,244.45L220.67,205.42L224.82,298.73L226.85,297.86L229.06,247.33L231.05,170.24L232.86,210.37L235.21,235.71L237.22,163.72L239.06,202.25L241.37,255.09L243.39,222.59L245.25,224.46L247.61,150.42L249.62,195.86L251.27,170.37L253.79,157.46L255.62,177.79L257.43,194.25L259.43,164.36L261.66,162.68L263.56,193.28L265.58,175.21L267.96,286.88L269.7,260.11L271.63,273.63L274,256.15L275.91,272.94L277.86,198.51L280.25,254.61L281.97,290.8L284,287.85L286.24,285.82L288.1,307.87L290.04,284.4L292.45,301.86L294.34,317.48L296.18,316.89L298.57,298.15L300.38,264.33L302.41,235.76L304.85,306.63L306.6,270.1L308.57,273.13L310.94,260.61L312.84,222.91L314.58,165.44L316.95,192.03L318.87,252.22L320.69,228.83L323.16,175.92L325.13,196.44L327.04,209.42L329.27,178.24L331.2,186.83L332.99,244.02L335.33,243.7L337.24,240.5L339.24,196.25L341.68,197.15L343.49,245.96L345.32,224.59L347.71,176.05L349.64,186.31L351.49,194.1L353.9,249.83L355.65,218.97L357.65,236.01L359.48,194.51L361.91,251.18L365.68,269.87L368.04,265.68L369.8,255.77L371.86,193.09L374.23,180.82L375.97,210.58L377.94,152.55L380.23,193.24L382.21,221.94L384.07,217.36L386.41,232.46L388.39,210.52L390.21,179.34L392.61,187.08L394.54,151.65L396.32,263.04L398.69,266.03L400.6,263.58L402.62,261.45L404.91,226.01L408.59,210.88L410.97,250.54L412.91,247.63L414.83,216.52L417.2,222.93L419.11,199.16L420.97,173.33L423.21,209.55L425.15,231.69L427.03,230.27L429.41,173.36L431.31,261.9L433.16,246.47L435.62,243.95L437.34,249.57L439.36,269.19L441.59,290.08L443.61,255.86L445.52,274.27L447.88,246.17L449.8,255.94L451.72,213.36L453.87,188.03L455.84,194.31L457.81,193.86L459.59,187.21L462.01,237.43L463.98,244.08L465.76,162.3L468.05,157.39L471.96,167.78L474.32,167.91L476.17,176.56L478.07,149.97L480.45,185.92L482.24,165.48L484.25,240.99L486.53,196.64L488.39,308.92L490.27,327.72L494.55,311.28L496.53,296.65L498.79,264.48L500.68,270L502.52,247.96L505,264.2L506.79,247.16L508.7,197.37L511.12,167.98L513.04,221.23L514.79,157.39L517.2,143.58L519.05,163.29L521.09,154.55L523.53,188.63L525.36,262.55L529.54,239.67L531.33,166.21L533.38,181.34L535.67,256.22L537.56,289.72L539.5,308.44L541.8,306.7L543.64,308.52L545.52,301.7L547.9,299.71L549.76,304.67L551.67,271.26L554.12,242.08L555.94,202.32L557.8,195.39L560.36,229.17L562.02,243.16L564.11,220.84L566.03,230.85L568.19,260.32L571.95,182.35L574.49,213.03L576.23,222.59L578.35,218.46L580.53,252.8L582.52,170.56L584.37,216.13L586.73,195.61L588.54,126.28L590.49,150.03L592.86,165.98L594.65,157.58L596.7,138.15L599,134.67L600.89,159.59L602.72,151.32L607.02,180.69L608.89,152.29L611.17,205.16L613.17,220.59L615.07,220.26L617.4,252.99L619.28,259.06L621.27,199.22L623.61,140.74L625.44,152.81L627.24,163.72L629.81,217.81L631.62,215.87L633.44,251.06L635.74,279.1L637.73,269.42L639.6,208.13L641.84,207.81L643.84,188.12L645.64,155.58L648.23,132.86L649.98,131.31L651.77,160.23L654.3,250.22L656.21,243.12L658.03,208.58L660.4,189.34L662.18,211.55L664.13,188.38L665.99,200.12L670.38,133.38L672.16,157.52L674.6,130.73L676.32,132.93L678.35,136.48L680.6,125.72L682.61,149.06L684.49,156.49L686.78,122.86L688.66,110.53L690.5,156.31L692.95,184.83L694.88,192.31L696.76,160.04L699.13,137.64L701.02,142.35L702.83,187.54L705.15,142.29L707.04,248.09L709.02,250.09L711.32,231.24L713.17,227.17L715.27,190.31L717.62,208.09L719.43,86.32L721.39,161.2L723.7,138.67L725.61,160.88L727.43,124.92L729.83,175.34L733.56,143.71L735.84,111.34L737.87,138.28L739.83,132.47L743.91,173.4L745.88,161.46L748.3,140.03L750.03,158.34L751.88,152.87L754.3,84.9L758.1,151.9L760.67,123.44L762.46,131.96L764.33,134.09L766.18,120.92L768.53,176.43L770.4,166.69L772.33,197.28L774.59,227.56L776.66,238.73L778.48,241.44L780.69,223.94L782.63,199.35L784.7,140.22L787.04,133.31L788.75,120.85L790.82,108.91L793.1,144.29L795.08,172.37L796.8,220.07L799.29,157L801.02,198.06L802.98,238.21L805.52,207.74L807.19,230.33L809.08,216.65L811.49,209.2L813.33,213.68L815.19,193.93L817.74,175.47L819.64,141.25L821.41,129.63L823.75,136.35L825.63,198.75L827.55,203.67L829.87,180.18L831.74,203.35L833.82,182.18L838.1,103.55L839.74,93.55L842.1,127.05L844.07,138.86L846.01,144.29L848.44,137.19L850.32,149.19L852.06,112.2L854.49,128.15L856.48,162.49L858.23,179.34L860.68,210.39L862.58,169.27L864.32,206.84L866.79,271.78L868.67,237.76L870.44,214.45L872.46,209.23L874.75,217.04L876.64,212.82L878.62,212.65L880.84,148.68L882.86,147.51L884.75,145.51L887.07,200.32L889.04,172.82L891.02,203.35L893.19,211.87L895,268.63L896.91,264.76L899.41,203.35L901.18,180.63L903.15,188.76L905.41,224.72L911.77,170.82L913.54,182.11L915.49,107.81L917.66,111.88L919.65,104.97L921.44,123.82L923.93,168.56L925.72,173.92L927.58,141.06L930.01,114.08L932.02,107.17L933.87,149.13L936.22,198.9L938.18,150.03L939.88,174.17L942.38,163.2L944.26,136.61L946.19,134.41L948.41,134.35L950.32,140.87L954.59,123.82L956.47,103.43L958.41,126.53L960.68,135.89L962.56,113.56L964.44,128.28L966.94,146.68L968.75,105.81L970.75,102.84L972.64,132.6L975.07,126.66L976.76,108.59L978.75,97.16L981.04,105.81L983.04,126.66L984.73,89.61L987.12,163.97L989.09,165.27L991.09,188.63L993.3,158.17L995.24,110.78L997.15,19.25L999.51,127.63L1001.45,133.12L1003.41,140.48L1005.7,152.1L1007.44,138.22L1009.56,178.05L1011.86,199.48L1013.61,202.9L1015.52,204.64L1017.84,132.99L1019.78,140.35" style="vector-effect: none; fill: none; stroke: rgb(145, 232, 225); stroke-opacity: 1; stroke-width: 2px; opacity: 1;"/></g><g class="points"/><g class="text"/></g><g class="trace scatter trace0ddd20" style="stroke-miterlimit: 2; opacity: 1;"><g class="fills"/><g class="errorbars"/><g class="lines"><path class="js-line" d="M0,275.13L1.92,271.04L4.28,278.03L6.14,269.59L8.06,224.57L10.42,212.75L12.29,220.98L14.2,250.69L16.55,252.49L18.53,251.08L20.35,253.61L22.7,259.23L24.6,202.03L26.46,203.71L28.92,198.78L30.71,185.02L32.65,178.23L35.05,183.74L36.87,164.75L38.75,141.08L41.18,148.48L43.2,137.64L45.09,163.59L47.28,234.21L49.24,144.8L51.11,103.81L53.09,153.78L55.32,155.65L57.27,144.87L59.09,159.11L61.44,152.39L63.32,144.98L65.2,134.5L67.56,132.73L69.46,117.56L71.5,97.55L73.89,96.65L75.78,104.39L77.66,131.63L80,99.75L81.9,98.45L83.74,109.69L86.18,97.16L87.9,98.58L89.98,123.57L92.13,139.45L94.14,138.86L96.14,133.44L98.24,137.64L100.27,122.6L102.02,167.4L104.51,197.67L106.35,171.66L108.35,151.26L110.71,117.95L112.62,145.77L114.36,132.54L116.81,139.9L118.57,192.64L120.64,160.42L122.98,136.86L124.88,131.44L126.75,132.22L129.01,162.49L130.92,139.45L132.94,151.06L135.28,147.58L137.08,102.33L139.04,156.75L141.43,194.96L143.17,148.35L145.04,130.09L147.4,132.41L149.28,213.03L151.19,136.73L153.2,143.06L155.54,129.89L157.42,118.98L159.3,124.02L161.68,132.99L163.47,172.37L165.54,141.51L167.73,144.03L169.65,156.16L171.65,135.83L173.98,130.28L175.73,130.8L177.61,135.38L180.13,145.84L182.07,165.4L183.73,131.05L186.3,142.16L188.15,158.17L190.06,148.35L192.24,147.97L194.18,153L196.28,152.61L198.52,131.51L200.48,174.95L204.66,109.36L206.55,152.03L208.52,126.53L210.67,135.18L212.63,121.56L214.61,165.59L216.83,184.76L218.73,216.58L220.73,207.1L223.02,139.64L224.97,147.77L226.88,169.33L229.26,139.45L231.04,162.55L233.05,128.6L235.3,130.86L237.33,164.88L238.99,154.81L241.56,140.99L243.4,155.45L245.22,155.84L247.76,175.21L249.43,208.9L251.49,171.85L253.82,134.35L255.62,127.63L257.43,125.5L259.46,141.38L261.71,148.74L263.55,131.51L265.63,123.05L268,163.01L269.67,153.43L271.67,148.61L273.93,159.59L275.88,140.35L280.12,169.78L281.99,127.37L283.95,130.8L286.22,132.15L288.27,223.62L290.01,224.91L292.35,231.43L294.45,132.28L296.25,141.83L298.73,143.96L300.53,163.97L302.27,194.74L304.82,154.1L306.55,216.58L308.59,135.06L310.86,116.66L312.7,146.03L314.66,140.74L316.96,158.55L318.99,162.1L320.79,163.39L323.13,119.18L325.11,192.51L326.84,201.41L329.29,129.31L331.08,126.34L333.05,167.33L335.4,136.15L337.3,147.06L339.36,134.15L341.67,148.35L343.46,140.93L345.34,141.06L347.72,265.39L349.57,268.36L351.56,252.15L355.87,151.97L357.64,145.13L359.56,140.16L362.01,140.22L363.8,139.77L365.73,119.76L368.15,113.24L369.85,118.53L371.85,145.45L374.17,123.31L376.15,153.58L377.9,151.71L380.22,112.98L382.11,146.2L384.1,161.78L386.54,154.68L388.4,122.86L390.25,153.52L392.61,139.45L394.44,151.58L396.41,164.49L398.7,122.21L400.68,168.62L402.58,182.24L404.79,150.23L406.72,160.55L411.11,151.26L412.99,160.94L414.73,174.95L417.28,160.23L419.09,195.93L421,168.82L425.32,255.77L427.02,193.35L429.59,210.84L431.31,145.84L433.24,122.21L435.52,164.23L437.55,170.04L439.27,161.84L441.79,157.13L443.71,123.82L445.54,182.69L447.74,178.11L449.66,149.13L451.72,152.23L454.03,230.66L455.76,263.45L457.68,274.62L459.58,247.25L462.07,244.15L463.8,212.13L465.92,137.77L468.08,143.12L470.05,129.31L471.94,136.35L474.26,134.15L476.14,231.95L477.99,154.03L480.48,213.81L482.35,243.12L484.2,255.83L486.62,233.24L488.41,227.36L490.25,197.09L492.72,176.76L494.49,147.26L496.46,162.1L498.86,173.27L500.86,157L502.55,126.73L505.08,141.32L506.77,156.49L508.84,133.18L511.21,133.83L513.01,144.87L514.95,105.49L517.17,180.82L519.27,137.51L521.06,156.62L523.37,230.27L525.25,168.75L527.1,180.5L529.53,145.13L531.54,142.54L533.47,121.11L535.58,156.87L537.72,160.49L539.57,157.13L541.98,159.59L543.64,137.83L545.74,133.76L547.88,128.73L549.95,135.89L551.71,167.14L554.08,159.2L555.96,186.76L557.86,176.56L562.17,165.72L564.06,170.82L565.93,168.3L568.16,160.68L570.27,197.93L572.03,133.38L574.35,127.12L576.35,174.11L578.22,154.03L580.61,203.93L582.38,173.14L584.42,193.35L586.8,191.6L588.71,160.1L590.43,134.28L592.88,139.64L594.63,146.22L596.65,142.61L600.87,155.2L602.81,180.24L605.05,148.74L606.92,136.67L608.92,126.66L611.15,147.58L613.03,149.64L615.15,156.36L617.47,172.17L619.39,141.64L621.24,147.45L623.56,260.22L627.26,209.03L629.82,206.84L631.54,129.18L633.48,131.44L635.84,144.29L637.77,140.93L639.67,153.65L641.88,150.68L643.81,135.38L645.64,143.96L650.04,162.3L651.96,133.51L654.18,131.38L656.15,187.15L658.09,134.8L660.31,150.42L662.15,135.12L664.24,132.73L666.18,145.64L668.41,146.16L670.33,142.61L672.2,150.42L674.62,179.98L676.56,138.8L678.44,167.07L680.65,166.75L682.65,173.72L684.52,186.37L686.71,147.64L688.61,140.93L690.63,158.81L692.89,124.92L695,108.33L696.69,139.9L699.03,108.91L701.03,211.29L702.96,150.03L705.23,159.59L707.26,206.06L709.16,134.67L711.39,186.25L713.41,162.43L715.32,256.41L717.6,198.45L719.39,159.59L721.38,183.21L723.85,129.5L725.62,111.04L727.59,110.14L729.88,149.64L731.82,142.93L733.51,144.22L736.05,136.86L737.83,151.13L739.6,225.36L742.25,140.35L744,154.36L746.03,160.75L748.37,116.85L750.17,125.76L751.93,128.6L754.29,125.31L756.35,161.26L758.09,129.76L760.42,149.32L762.37,141.45L764.42,134.54L766.17,171.27L768.57,132.99L770.36,138.03L772.46,125.76L774.81,155.2L776.52,154.36L778.57,189.41L780.96,218.84L782.68,136.73L784.74,156.49L787.04,138.41L788.94,155.33L790.87,155.07L793.09,179.02L794.92,160.62L797.03,158.17L799.13,143.77L801.27,137.12L803.04,188.63L807.16,144.42L809.28,110.27L811.69,130.8L813.52,134.67L815.32,119.82L817.71,143.96L819.48,115.43L821.55,116.46L823.89,118.66L825.64,165.85L827.71,157.91L830.09,140.61L831.93,127.05L833.72,130.6L836.06,125.05L837.87,128.15L839.92,127.18L842.36,132.99L845.99,190.05L848.52,175.72L850.36,168.36L852.18,146.03L854.57,157.39L856.43,128.73L858.23,142.8L860.67,140.48L862.52,177.92L864.31,233.37L866.83,215.75L868.69,157.91L870.62,107.69L872.51,147.71L874.96,137.25L876.83,153.9L878.65,144.35L880.84,169.72L882.98,173.27L884.85,132.47L887.04,137.51L888.92,161.07L891.03,139.83L893.19,156.55L895.09,159.78L896.95,147.58L899.48,151.19L901.32,130.15L903.24,158.17L905.43,136.67L907.49,111.95L909.35,135.57L911.8,137.64L913.72,115.17L915.3,98.26L917.76,115.82L919.64,132.41L921.57,118.92L924.08,108.46L925.69,134.15L927.58,110.91L930.03,140.28L931.92,144.09L933.8,157.39L936.16,135.25L938.08,232.98L942.52,199.35L944.17,204.26L946.16,186.18L948.4,145.32L952.26,111.69L954.5,137.7L956.47,112.14L958.42,132.09L960.68,136.61L962.61,125.31L964.58,122.02L966.84,132.47L968.76,126.34L970.77,111.69L972.75,118.92L974.94,142.93L976.85,132.22L978.75,48.3L981.07,127.89L983.03,133.38L984.92,125.89L987.2,136.35L989.19,62.24L991.12,118.27L995.36,155.71L997.31,58.24L999.36,98.13L1001.34,105.56L1003.14,131.57L1005.58,122.47L1009.57,173.66L1011.96,168.49L1013.76,154.55L1015.61,258.09L1019.67,124.12" style="vector-effect: none; fill: none; stroke: rgb(124, 181, 236); stroke-opacity: 1; stroke-width: 2px; opacity: 1;"/></g><g class="points"/><g class="text"/></g></g></g></g><path class="xlines-above crisp" d="M0,0" style="fill: none;"/><path class="ylines-above crisp" d="M0,0" style="fill: none;"/><g class="overlines-above"/><g class="xaxislayer-above"><g class="xtick"><text text-anchor="middle" x="0" y="451" transform="translate(65,0)" style="font-family: 'Lucida Grande', 'Open Sans', verdana, arial, sans-serif; font-size: 10px; fill: rgb(0, 0, 0); fill-opacity: 1; white-space: pre; opacity: 1;">0</text></g><g class="xtick"><text text-anchor="middle" x="0" y="451" style="font-family: 'Lucida Grande', 'Open Sans', verdana, arial, sans-serif; font-size: 10px; fill: rgb(0, 0, 0); fill-opacity: 1; white-space: pre; opacity: 1;" transform="translate(253.91,0)">2k</text></g><g class="xtick"><text text-anchor="middle" x="0" y="451" style="font-family: 'Lucida Grande', 'Open Sans', verdana, arial, sans-serif; font-size: 10px; fill: rgb(0, 0, 0); fill-opacity: 1; white-space: pre; opacity: 1;" transform="translate(442.83,0)">4k</text></g><g class="xtick"><text text-anchor="middle" x="0" y="451" style="font-family: 'Lucida Grande', 'Open Sans', verdana, arial, sans-serif; font-size: 10px; fill: rgb(0, 0, 0); fill-opacity: 1; white-space: pre; opacity: 1;" transform="translate(631.74,0)">6k</text></g><g class="xtick"><text text-anchor="middle" x="0" y="451" style="font-family: 'Lucida Grande', 'Open Sans', verdana, arial, sans-serif; font-size: 10px; fill: rgb(0, 0, 0); fill-opacity: 1; white-space: pre; opacity: 1;" transform="translate(820.66,0)">8k</text></g><g class="xtick"><text text-anchor="middle" x="0" y="451" style="font-family: 'Lucida Grande', 'Open Sans', verdana, arial, sans-serif; font-size: 10px; fill: rgb(0, 0, 0); fill-opacity: 1; white-space: pre; opacity: 1;" transform="translate(1009.57,0)">10k</text></g></g><g class="yaxislayer-above"><g class="ytick"><text text-anchor="end" x="59" y="3.5" transform="translate(0,435)" style="font-family: 'Lucida Grande', 'Open Sans', verdana, arial, sans-serif; font-size: 10px; fill: rgb(0, 0, 0); fill-opacity: 1; white-space: pre; opacity: 1;">0</text></g><g class="ytick"><text text-anchor="end" x="59" y="3.5" style="font-family: 'Lucida Grande', 'Open Sans', verdana, arial, sans-serif; font-size: 10px; fill: rgb(0, 0, 0); fill-opacity: 1; white-space: pre; opacity: 1;" transform="translate(0,370.45)">500</text></g><g class="ytick"><text text-anchor="end" x="59" y="3.5" style="font-family: 'Lucida Grande', 'Open Sans', verdana, arial, sans-serif; font-size: 10px; fill: rgb(0, 0, 0); fill-opacity: 1; white-space: pre; opacity: 1;" transform="translate(0,305.9)">1000</text></g><g class="ytick"><text text-anchor="end" x="59" y="3.5" style="font-family: 'Lucida Grande', 'Open Sans', verdana, arial, sans-serif; font-size: 10px; fill: rgb(0, 0, 0); fill-opacity: 1; white-space: pre; opacity: 1;" transform="translate(0,241.34)">1500</text></g><g class="ytick"><text text-anchor="end" x="59" y="3.5" style="font-family: 'Lucida Grande', 'Open Sans', verdana, arial, sans-serif; font-size: 10px; fill: rgb(0, 0, 0); fill-opacity: 1; white-space: pre; opacity: 1;" transform="translate(0,176.79000000000002)">2000</text></g><g class="ytick"><text text-anchor="end" x="59" y="3.5" style="font-family: 'Lucida Grande', 'Open Sans', verdana, arial, sans-serif; font-size: 10px; fill: rgb(0, 0, 0); fill-opacity: 1; white-space: pre; opacity: 1;" transform="translate(0,112.24000000000001)">2500</text></g></g><g class="overaxes-above"/></g></g><g class="polarlayer"/><g class="smithlayer"/><g class="ternarylayer"/><g class="geolayer"/><g class="funnelarealayer"/><g class="pielayer"/><g class="iciclelayer"/><g class="treemaplayer"/><g class="sunburstlayer"/><g class="glimages"/><defs id="topdefs-213fcf"><g class="clips"/></defs><g class="layer-above"><g class="imagelayer"/><g class="shapelayer"/></g><g class="infolayer"><g class="g-gtitle"><text class="gtitle" x="550" y="25" text-anchor="middle" dy="0em" style="opacity: 1; font-family: 'Lucida Grande', 'Open Sans', verdana, arial, sans-serif; font-size: 20px; fill: rgb(42, 63, 95); fill-opacity: 1; white-space: pre;"><tspan class="line" dy="0em" x="550" y="25">MS1 Peaks</tspan><tspan class="line" dy="1.3em" x="550" y="25"><tspan style="font-size:70%" dy="-0.6em">11 samples</tspan><tspan dy="0.42em"></tspan></tspan></text></g><g class="g-xtitle"/><g class="g-ytitle"><text class="ytitle" transform="rotate(-90,22.35,242.5)" x="22.35" y="242.5" text-anchor="middle" style="opacity: 0.3; font-family: 'Lucida Grande', 'Open Sans', verdana, arial, sans-serif; font-size: 14px; fill: rgb(0, 0, 0); fill-opacity: 1; white-space: pre;">Peak Count</text></g></g></svg>