<svg class="main-svg" xmlns="http://www.w3.org/2000/svg" xmlns:xlink="http://www.w3.org/1999/xlink" width="2200" height="546" style="" viewBox="0 0 1100 273"><rect x="0" y="0" width="1100" height="273" style="fill: rgb(255, 255, 255); fill-opacity: 1;"/><defs id="defs-c09294"><g class="clips"><clipPath id="clipc09294xyplot" class="plotclip"><rect width="985" height="42.230769230769226"/></clipPath><clipPath id="clipc09294x2y2plot" class="plotclip"><rect width="985" height="42.230769230769226"/></clipPath><clipPath id="clipc09294x3y3plot" class="plotclip"><rect width="985" height="42.230769230769226"/></clipPath><clipPath class="axesclip" id="clipc09294x"><rect x="100" y="0" width="985" height="273"/></clipPath><clipPath class="axesclip" id="clipc09294y"><rect x="0" y="50.00000000000002" width="1100" height="42.230769230769226"/></clipPath><clipPath class="axesclip" id="clipc09294xy"><rect x="100" y="50.00000000000002" width="985" height="42.230769230769226"/></clipPath><clipPath class="axesclip" id="clipc09294y2"><rect x="0" y="120.3846153846154" width="1100" height="42.230769230769226"/></clipPath><clipPath class="axesclip" id="clipc09294xy2"><rect x="100" y="120.3846153846154" width="985" height="42.230769230769226"/></clipPath><clipPath class="axesclip" id="clipc09294y3"><rect x="0" y="190.76923076923077" width="1100" height="42.230769230769226"/></clipPath><clipPath class="axesclip" id="clipc09294xy3"><rect x="100" y="190.76923076923077" width="985" height="42.230769230769226"/></clipPath><clipPath class="axesclip" id="clipc09294x2"><rect x="100" y="0" width="985" height="273"/></clipPath><clipPath class="axesclip" id="clipc09294x2y"><rect x="100" y="50.00000000000002" width="985" height="42.230769230769226"/></clipPath><clipPath class="axesclip" id="clipc09294x2y2"><rect x="100" y="120.3846153846154" width="985" height="42.230769230769226"/></clipPath><clipPath class="axesclip" id="clipc09294x2y3"><rect x="100" y="190.76923076923077" width="985" height="42.230769230769226"/></clipPath><clipPath class="axesclip" id="clipc09294x3"><rect x="100" y="0" width="985" height="273"/></clipPath><clipPath class="axesclip" id="clipc09294x3y"><rect x="100" y="50.00000000000002" width="985" height="42.230769230769226"/></clipPath><clipPath class="axesclip" id="clipc09294x3y2"><rect x="100" y="120.3846153846154" width="985" height="42.230769230769226"/></clipPath><clipPath class="axesclip" id="clipc09294x3y3"><rect x="100" y="190.76923076923077" width="985" height="42.230769230769226"/></clipPath></g><g class="gradients"/><g class="patterns"/></defs><g class="bglayer"/><g class="layer-below"><g class="imagelayer"/><g class="shapelayer"/></g><g class="cartesianlayer"><g class="subplot xy"><g class="layer-subplot"><g class="shapelayer"/><g class="imagelayer"/></g><g class="minor-gridlayer"><g class="x"/><g class="y"/></g><g class="gridlayer"><g class="x"><path class="xgrid crisp" transform="translate(109.4,0)" d="M0,50.00000000000002v42.230769230769226" style="stroke: rgb(0, 0, 0); stroke-opacity: 0.1; stroke-width: 1px;"/><path class="xgrid crisp" transform="translate(232.74,0)" d="M0,50.00000000000002v42.230769230769226" style="stroke: rgb(0, 0, 0); stroke-opacity: 0.1; stroke-width: 1px;"/><path class="xgrid crisp" transform="translate(356.09,0)" d="M0,50.00000000000002v42.230769230769226" style="stroke: rgb(0, 0, 0); stroke-opacity: 0.1; stroke-width: 1px;"/><path class="xgrid crisp" transform="translate(479.43,0)" d="M0,50.00000000000002v42.230769230769226" style="stroke: rgb(0, 0, 0); stroke-opacity: 0.1; stroke-width: 1px;"/><path class="xgrid crisp" transform="translate(602.77,0)" d="M0,50.00000000000002v42.230769230769226" style="stroke: rgb(0, 0, 0); stroke-opacity: 0.1; stroke-width: 1px;"/><path class="xgrid crisp" transform="translate(726.11,0)" d="M0,50.00000000000002v42.230769230769226" style="stroke: rgb(0, 0, 0); stroke-opacity: 0.1; stroke-width: 1px;"/><path class="xgrid crisp" transform="translate(849.46,0)" d="M0,50.00000000000002v42.230769230769226" style="stroke: rgb(0, 0, 0); stroke-opacity: 0.1; stroke-width: 1px;"/><path class="xgrid crisp" transform="translate(972.8,0)" d="M0,50.00000000000002v42.230769230769226" style="stroke: rgb(0, 0, 0); stroke-opacity: 0.1; stroke-width: 1px;"/></g><g class="y"><path class="ygrid crisp" transform="translate(0,71.12000000000002)" d="M100,0h985" style="stroke: rgb(0, 0, 0); stroke-opacity: 0.1; stroke-width: 1px;"/></g></g><g class="zerolinelayer"/><g class="layer-between"><g class="shapelayer"/><g class="imagelayer"/></g><path class="xlines-below"/><path class="ylines-below"/><g class="overlines-below"/><g class="xaxislayer-below"/><g class="yaxislayer-below"/><g class="overaxes-below"/><g class="overplot"><g class="xy" transform="translate(100,50.00000000000002)" clip-path="url(#clipc09294xyplot)"><g class="violinlayer mlayer"><g class="trace violins" style="opacity: 0.5;"><path class="violin" d="M49.25,20.5Q72.89,20.15 84.71,19.88C96.53,19.61 108.35,19.28 120.17,18.86C131.99,18.44 143.81,17.94 155.63,17.36C167.45,16.78 179.27,16.11 191.09,15.4C202.91,14.69 214.73,13.89 226.55,13.12C238.37,12.35 250.19,11.5 262.01,10.76C273.83,10.02 285.65,9.27 297.47,8.67C309.29,8.07 321.11,7.53 332.93,7.14C344.75,6.75 356.57,6.48 368.39,6.35C380.21,6.22 392.03,6.23 403.85,6.33C415.67,6.43 427.49,6.68 439.31,6.93C451.13,7.18 462.95,7.54 474.77,7.84C486.59,8.14 498.41,8.49 510.23,8.74C522.05,8.99 533.87,9.2 545.69,9.36C557.51,9.51 569.33,9.59 581.15,9.67C592.97,9.75 604.79,9.76 616.61,9.84C628.43,9.92 640.25,9.99 652.07,10.17C663.89,10.35 675.71,10.59 687.53,10.94C699.35,11.29 711.17,11.75 722.99,12.25C734.81,12.76 746.63,13.37 758.45,13.97C770.27,14.57 782.09,15.24 793.91,15.84C805.73,16.44 817.55,17.04 829.37,17.56C841.19,18.08 853.01,18.55 864.83,18.94C876.65,19.33 888.47,19.64 900.29,19.9Q912.11,20.16 935.75,20.51L935.75,21.73Q912.11,22.07 900.29,22.33C888.47,22.59 876.65,22.91 864.83,23.3C853.01,23.69 841.19,24.16 829.37,24.67C817.55,25.19 805.73,25.79 793.91,26.39C782.09,26.99 770.27,27.66 758.45,28.26C746.63,28.86 734.81,29.47 722.99,29.98C711.17,30.48 699.35,30.94 687.53,31.29C675.71,31.64 663.89,31.88 652.07,32.06C640.25,32.24 628.43,32.31 616.61,32.39C604.79,32.47 592.97,32.48 581.15,32.56C569.33,32.64 557.51,32.71 545.69,32.87C533.87,33.03 522.05,33.25 510.23,33.5C498.41,33.75 486.59,34.09 474.77,34.39C462.95,34.69 451.13,35.05 439.31,35.3C427.49,35.55 415.67,35.8 403.85,35.9C392.03,36 380.21,36.01 368.39,35.88C356.57,35.75 344.75,35.49 332.93,35.1C321.11,34.71 309.29,34.16 297.47,33.56C285.65,32.95 273.83,32.21 262.01,31.47C250.19,30.73 238.37,29.89 226.55,29.12C214.73,28.35 202.91,27.54 191.09,26.83C179.27,26.12 167.45,25.45 155.63,24.87C143.81,24.29 131.99,23.79 120.17,23.37C108.35,22.95 96.53,22.62 84.71,22.35Q72.89,22.08 49.25,21.73Z" style="vector-effect: none; stroke-width: 2px; stroke: rgb(181, 181, 181); stroke-opacity: 1; fill: rgb(181, 181, 181); fill-opacity: 1;"/><path class="box" d="M446.71,24.81V17.42M345.72,24.81V17.42H640.26V24.81ZM345.72,21.12H262.72M640.26,21.12H722.28" style="vector-effect: non-scaling-stroke; stroke-width: 2px; stroke: rgb(181, 181, 181); stroke-opacity: 1; fill: rgb(181, 181, 181); fill-opacity: 1;"/><path class="mean" d="M480.25,24.81V17.42" style="fill: none; vector-effect: non-scaling-stroke; stroke-width: 2px; stroke-dasharray: 4px, 2px; stroke: rgb(181, 181, 181); stroke-opacity: 1;"/></g></g><g class="scatterlayer mlayer"><g class="trace scatter trace34d51d" style="stroke-miterlimit: 2; opacity: 1;"><g class="fills"/><g class="errorbars"/><g class="lines"/><g class="points"><path class="point" transform="translate(262.72,21.12)" d="M2,0A2,2 0 1,1 0,-2A2,2 0 0,1 2,0Z" style="opacity: 1; stroke-width: 0px; fill: rgb(11, 121, 230); fill-opacity: 1;"/></g><g class="text"/></g><g class="trace scatter trace5f2a78" style="stroke-miterlimit: 2; opacity: 1;"><g class="fills"/><g class="errorbars"/><g class="lines"/><g class="points"><path class="point" transform="translate(299.63,21.12)" d="M2,0A2,2 0 1,1 0,-2A2,2 0 0,1 2,0Z" style="opacity: 1; stroke-width: 0px; fill: rgb(11, 121, 230); fill-opacity: 1;"/></g><g class="text"/></g><g class="trace scatter trace195a89" style="stroke-miterlimit: 2; opacity: 1;"><g class="fills"/><g class="errorbars"/><g class="lines"/><g class="points"><path class="point" transform="translate(336.5,21.12)" d="M2,0A2,2 0 1,1 0,-2A2,2 0 0,1 2,0Z" style="opacity: 1; stroke-width: 0px; fill: rgb(11, 121, 230); fill-opacity: 1;"/></g><g class="text"/></g><g class="trace scatter trace4faf19" style="stroke-miterlimit: 2; opacity: 1;"><g class="fills"/><g class="errorbars"/><g class="lines"/><g class="points"><path class="point" transform="translate(373.37,21.12)" d="M2,0A2,2 0 1,1 0,-2A2,2 0 0,1 2,0Z" style="opacity: 1; stroke-width: 0px; fill: rgb(11, 121, 230); fill-opacity: 1;"/></g><g class="text"/></g><g class="trace scatter trace40433b" style="stroke-miterlimit: 2; opacity: 1;"><g class="fills"/><g class="errorbars"/><g class="lines"/><g class="points"><path class="point" transform="translate(410.28,21.12)" d="M2,0A2,2 0 1,1 0,-2A2,2 0 0,1 2,0Z" style="opacity: 1; stroke-width: 0px; fill: rgb(11, 121, 230); fill-opacity: 1;"/></g><g class="text"/></g><g class="trace scatter traceef4608" style="stroke-miterlimit: 2; opacity: 1;"><g class="fills"/><g class="errorbars"/><g class="lines"/><g class="points"><path class="point" transform="translate(446.71,21.12)" d="M2,0A2,2 0 1,1 0,-2A2,2 0 0,1 2,0Z" style="opacity: 1; stroke-width: 0px; fill: rgb(11, 121, 230); fill-opacity: 1;"/></g><g class="text"/></g><g class="trace scatter tracef13f8c" style="stroke-miterlimit: 2; opacity: 1;"><g class="fills"/><g class="errorbars"/><g class="lines"/><g class="points"><path class="point" transform="translate(483.19,21.12)" d="M2,0A2,2 0 1,1 0,-2A2,2 0 0,1 2,0Z" style="opacity: 1; stroke-width: 0px; fill: rgb(11, 121, 230); fill-opacity: 1;"/></g><g class="text"/></g><g class="trace scatter traceda033f" style="stroke-miterlimit: 2; opacity: 1;"><g class="fills"/><g class="errorbars"/><g class="lines"/><g class="points"><path class="point" transform="translate(612.94,21.12)" d="M2,0A2,2 0 1,1 0,-2A2,2 0 0,1 2,0Z" style="opacity: 1; stroke-width: 0px; fill: rgb(11, 121, 230); fill-opacity: 1;"/></g><g class="text"/></g><g class="trace scatter trace1b7a20" style="stroke-miterlimit: 2; opacity: 1;"><g class="fills"/><g class="errorbars"/><g class="lines"/><g class="points"><path class="point" transform="translate(649.37,21.12)" d="M2,0A2,2 0 1,1 0,-2A2,2 0 0,1 2,0Z" style="opacity: 1; stroke-width: 0px; fill: rgb(11, 121, 230); fill-opacity: 1;"/></g><g class="text"/></g><g class="trace scatter traceba4195" style="stroke-miterlimit: 2; opacity: 1;"><g class="fills"/><g class="errorbars"/><g class="lines"/><g class="points"><path class="point" transform="translate(685.79,21.12)" d="M2,0A2,2 0 1,1 0,-2A2,2 0 0,1 2,0Z" style="opacity: 1; stroke-width: 0px; fill: rgb(11, 121, 230); fill-opacity: 1;"/></g><g class="text"/></g><g class="trace scatter trace421456" style="stroke-miterlimit: 2; opacity: 1;"><g class="fills"/><g class="errorbars"/><g class="lines"/><g class="points"><path class="point" transform="translate(722.28,21.12)" d="M2,0A2,2 0 1,1 0,-2A2,2 0 0,1 2,0Z" style="opacity: 1; stroke-width: 0px; fill: rgb(11, 121, 230); fill-opacity: 1;"/></g><g class="text"/></g></g></g></g><path class="xlines-above crisp" d="M0,0" style="fill: none;"/><path class="ylines-above crisp" d="M0,0" style="fill: none;"/><g class="overlines-above"/><g class="xaxislayer-above"><g class="xtick"><text text-anchor="middle" x="0" y="102.23076923076925" transform="translate(109.4,0)" style="font-family: 'Lucida Grande', 'Open Sans', verdana, arial, sans-serif; font-size: 9px; fill: rgb(0, 0, 0); fill-opacity: 0.5; white-space: pre; opacity: 1;"><tspan class="line" dy="0em" x="0" y="102.23076923076925">00:00</tspan><tspan class="line" dy="1.3em" x="0" y="102.23076923076925">Apr 4, 2017</tspan></text></g><g class="xtick"><text text-anchor="middle" x="0" y="102.23076923076925" style="font-family: 'Lucida Grande', 'Open Sans', verdana, arial, sans-serif; font-size: 9px; fill: rgb(0, 0, 0); fill-opacity: 0.5; white-space: pre; opacity: 1;" transform="translate(232.74,0)">12:00</text></g><g class="xtick"><text text-anchor="middle" x="0" y="102.23076923076925" style="font-family: 'Lucida Grande', 'Open Sans', verdana, arial, sans-serif; font-size: 9px; fill: rgb(0, 0, 0); fill-opacity: 0.5; white-space: pre; opacity: 1;" transform="translate(356.09,0)"><tspan class="line" dy="0em" x="0" y="102.23076923076925">00:00</tspan><tspan class="line" dy="1.3em" x="0" y="102.23076923076925">Apr 5, 2017</tspan></text></g><g class="xtick"><text text-anchor="middle" x="0" y="102.23076923076925" style="font-family: 'Lucida Grande', 'Open Sans', verdana, arial, sans-serif; font-size: 9px; fill: rgb(0, 0, 0); fill-opacity: 0.5; white-space: pre; opacity: 1;" transform="translate(479.43,0)">12:00</text></g><g class="xtick"><text text-anchor="middle" x="0" y="102.23076923076925" style="font-family: 'Lucida Grande', 'Open Sans', verdana, arial, sans-serif; font-size: 9px; fill: rgb(0, 0, 0); fill-opacity: 0.5; white-space: pre; opacity: 1;" transform="translate(602.77,0)"><tspan class="line" dy="0em" x="0" y="102.23076923076925">00:00</tspan><tspan class="line" dy="1.3em" x="0" y="102.23076923076925">Apr 6, 2017</tspan></text></g><g class="xtick"><text text-anchor="middle" x="0" y="102.23076923076925" style="font-family: 'Lucida Grande', 'Open Sans', verdana, arial, sans-serif; font-size: 9px; fill: rgb(0, 0, 0); fill-opacity: 0.5; white-space: pre; opacity: 1;" transform="translate(726.11,0)">12:00</text></g><g class="xtick"><text text-anchor="middle" x="0" y="102.23076923076925" style="font-family: 'Lucida Grande', 'Open Sans', verdana, arial, sans-serif; font-size: 9px; fill: rgb(0, 0, 0); fill-opacity: 0.5; white-space: pre; opacity: 1;" transform="translate(849.46,0)"><tspan class="line" dy="0em" x="0" y="102.23076923076925">00:00</tspan><tspan class="line" dy="1.3em" x="0" y="102.23076923076925">Apr 7, 2017</tspan></text></g><g class="xtick"><text text-anchor="middle" x="0" y="102.23076923076925" style="font-family: 'Lucida Grande', 'Open Sans', verdana, arial, sans-serif; font-size: 9px; fill: rgb(0, 0, 0); fill-opacity: 0.5; white-space: pre; opacity: 1;" transform="translate(972.8,0)">12:00</text></g></g><g class="yaxislayer-above"><g class="ytick"><text text-anchor="end" x="99" y="3.15" transform="translate(0,71.12000000000002)" style="font-family: 'Lucida Grande', 'Open Sans', verdana, arial, sans-serif; font-size: 9px; fill: rgb(0, 0, 0); fill-opacity: 0.5; white-space: pre; opacity: 1;">AcquisitionDateTime  </text></g></g><g class="overaxes-above"/></g><g class="subplot x2y2"><g class="layer-subplot"><g class="shapelayer"/><g class="imagelayer"/></g><g class="minor-gridlayer"><g class="x2"/><g class="y2"/></g><g class="gridlayer"><g class="x2"><path class="x2grid crisp" transform="translate(280.52,0)" d="M0,120.3846153846154v42.230769230769226" style="stroke: rgb(0, 0, 0); stroke-opacity: 0.1; stroke-width: 1px;"/><path class="x2grid crisp" transform="translate(456.16,0)" d="M0,120.3846153846154v42.230769230769226" style="stroke: rgb(0, 0, 0); stroke-opacity: 0.1; stroke-width: 1px;"/><path class="x2grid crisp" transform="translate(631.81,0)" d="M0,120.3846153846154v42.230769230769226" style="stroke: rgb(0, 0, 0); stroke-opacity: 0.1; stroke-width: 1px;"/><path class="x2grid crisp" transform="translate(807.45,0)" d="M0,120.3846153846154v42.230769230769226" style="stroke: rgb(0, 0, 0); stroke-opacity: 0.1; stroke-width: 1px;"/><path class="x2grid crisp" transform="translate(983.1,0)" d="M0,120.3846153846154v42.230769230769226" style="stroke: rgb(0, 0, 0); stroke-opacity: 0.1; stroke-width: 1px;"/></g><g class="y2"><path class="y2grid crisp" transform="translate(0,141.5046153846154)" d="M100,0h985" style="stroke: rgb(0, 0, 0); stroke-opacity: 0.1; stroke-width: 1px;"/></g></g><g class="zerolinelayer"><path class="x2zl zl crisp" transform="translate(104.88,0)" d="M0,120.3846153846154v42.230769230769226" style="stroke: rgb(0, 0, 0); stroke-opacity: 0.1; stroke-width: 2px;"/></g><g class="layer-between"><g class="shapelayer"/><g class="imagelayer"/></g><path class="xlines-below"/><path class="ylines-below"/><g class="overlines-below"/><g class="xaxislayer-below"/><g class="yaxislayer-below"/><g class="overaxes-below"/><g class="overplot"><g class="x2y2" transform="translate(100,120.3846153846154)" clip-path="url(#clipc09294x2y2plot)"><g class="violinlayer mlayer"><g class="trace violins" style="opacity: 0.5;"><path class="violin" d="M35,20.8Q52.55,20.64 61.33,20.54C70.11,20.43 78.89,20.31 87.67,20.17C96.45,20.03 105.22,19.87 114,19.72C122.78,19.57 131.55,19.4 140.33,19.27C149.11,19.14 157.88,19.01 166.66,18.93C175.44,18.85 184.22,18.79 193,18.78C201.78,18.77 210.55,18.8 219.33,18.87C228.11,18.94 236.88,19.06 245.66,19.18C254.44,19.3 263.21,19.47 271.99,19.61C280.77,19.76 289.55,19.92 298.33,20.05C307.11,20.18 315.88,20.3 324.66,20.39C333.44,20.48 342.21,20.56 350.99,20.59C359.77,20.62 368.54,20.63 377.32,20.6C386.1,20.57 394.87,20.51 403.65,20.43C412.43,20.35 421.21,20.24 429.99,20.11C438.77,19.98 447.54,19.82 456.32,19.67C465.1,19.52 473.87,19.36 482.65,19.22C491.43,19.08 500.2,18.93 508.98,18.83C517.76,18.73 526.54,18.66 535.32,18.6C544.1,18.54 552.87,18.52 561.65,18.49C570.43,18.46 579.2,18.46 587.98,18.42C596.76,18.38 605.53,18.34 614.31,18.23C623.09,18.12 631.87,17.98 640.65,17.78C649.43,17.58 658.2,17.32 666.98,17.02C675.76,16.72 684.53,16.35 693.31,15.96C702.09,15.57 710.86,15.14 719.64,14.69C728.42,14.24 737.2,13.77 745.98,13.27C754.76,12.78 763.53,12.25 772.31,11.72C781.09,11.19 789.86,10.62 798.64,10.08C807.42,9.54 816.19,8.96 824.97,8.46C833.75,7.97 842.52,7.47 851.3,7.11C860.08,6.76 868.86,6.45 877.64,6.33C886.42,6.21 895.19,6.22 903.97,6.38C912.75,6.54 921.53,6.87 930.3,7.31C939.08,7.75 947.86,8.36 956.63,9C965.41,9.65 974.19,10.43 982.97,11.18C991.75,11.93 1000.52,12.76 1009.3,13.51C1018.08,14.26 1026.85,15.03 1035.63,15.7C1044.4,16.37 1053.18,17 1061.96,17.54C1070.74,18.08 1079.52,18.55 1088.3,18.94C1097.08,19.33 1105.85,19.64 1114.63,19.9Q1123.41,20.16 1140.96,20.49L1140.96,21.74Q1123.41,22.07 1114.63,22.33C1105.85,22.59 1097.08,22.9 1088.3,23.29C1079.52,23.68 1070.74,24.15 1061.96,24.69C1053.18,25.23 1044.4,25.86 1035.63,26.53C1026.85,27.2 1018.08,27.97 1009.3,28.72C1000.52,29.48 991.75,30.31 982.97,31.06C974.19,31.81 965.41,32.59 956.63,33.23C947.86,33.87 939.08,34.48 930.3,34.92C921.53,35.36 912.75,35.69 903.97,35.85C895.19,36.01 886.42,36.02 877.64,35.9C868.86,35.78 860.08,35.47 851.3,35.12C842.52,34.76 833.75,34.26 824.97,33.77C816.19,33.27 807.42,32.69 798.64,32.15C789.86,31.61 781.09,31.04 772.31,30.51C763.53,29.98 754.76,29.45 745.98,28.96C737.2,28.46 728.42,27.99 719.64,27.54C710.86,27.09 702.09,26.66 693.31,26.27C684.53,25.88 675.76,25.51 666.98,25.21C658.2,24.91 649.43,24.65 640.65,24.45C631.87,24.25 623.09,24.11 614.31,24C605.53,23.89 596.76,23.85 587.98,23.81C579.2,23.77 570.43,23.77 561.65,23.74C552.87,23.71 544.1,23.7 535.32,23.64C526.54,23.58 517.76,23.5 508.98,23.4C500.2,23.3 491.43,23.16 482.65,23.02C473.87,22.88 465.1,22.71 456.32,22.56C447.54,22.41 438.77,22.25 429.99,22.12C421.21,21.99 412.43,21.88 403.65,21.8C394.87,21.72 386.1,21.66 377.32,21.63C368.54,21.6 359.77,21.61 350.99,21.64C342.21,21.67 333.44,21.75 324.66,21.84C315.88,21.93 307.11,22.05 298.33,22.18C289.55,22.31 280.77,22.47 271.99,22.62C263.21,22.76 254.44,22.93 245.66,23.05C236.88,23.17 228.11,23.29 219.33,23.36C210.55,23.43 201.78,23.46 193,23.45C184.22,23.44 175.44,23.38 166.66,23.3C157.88,23.22 149.11,23.09 140.33,22.96C131.55,22.83 122.78,22.66 114,22.51C105.22,22.36 96.45,22.2 87.67,22.06C78.89,21.92 70.11,21.8 61.33,21.69Q52.55,21.59 35,21.43Z" style="vector-effect: none; stroke-width: 2px; stroke: rgb(181, 181, 181); stroke-opacity: 1; fill: rgb(181, 181, 181); fill-opacity: 1;"/><path class="box" d="M862.82,24.81V17.42M738.61,24.81V17.42H904.12V24.81ZM738.61,21.12H536.47M904.12,21.12H980.1" style="vector-effect: non-scaling-stroke; stroke-width: 2px; stroke: rgb(181, 181, 181); stroke-opacity: 1; fill: rgb(181, 181, 181); fill-opacity: 1;"/><path class="mean" d="M778.47,24.81V17.42" style="fill: none; vector-effect: non-scaling-stroke; stroke-width: 2px; stroke-dasharray: 4px, 2px; stroke: rgb(181, 181, 181); stroke-opacity: 1;"/></g></g><g class="scatterlayer mlayer"><g class="trace scatter traced77440" style="stroke-miterlimit: 2; opacity: 1;"><g class="fills"/><g class="errorbars"/><g class="lines"/><g class="points"><path class="point" transform="translate(736.54,21.12)" d="M2,0A2,2 0 1,1 0,-2A2,2 0 0,1 2,0Z" style="opacity: 1; stroke-width: 0px; fill: rgb(11, 121, 230); fill-opacity: 1;"/></g><g class="text"/></g><g class="trace scatter trace28b5b4" style="stroke-miterlimit: 2; opacity: 1;"><g class="fills"/><g class="errorbars"/><g class="lines"/><g class="points"><path class="point" transform="translate(536.47,21.12)" d="M2,0A2,2 0 1,1 0,-2A2,2 0 0,1 2,0Z" style="opacity: 1; stroke-width: 0px; fill: rgb(11, 121, 230); fill-opacity: 1;"/></g><g class="text"/></g><g class="trace scatter trace366eb1" style="stroke-miterlimit: 2; opacity: 1;"><g class="fills"/><g class="errorbars"/><g class="lines"/><g class="points"><path class="point" transform="translate(862.82,21.12)" d="M2,0A2,2 0 1,1 0,-2A2,2 0 0,1 2,0Z" style="opacity: 1; stroke-width: 0px; fill: rgb(11, 121, 230); fill-opacity: 1;"/></g><g class="text"/></g><g class="trace scatter trace7e6905" style="stroke-miterlimit: 2; opacity: 1;"><g class="fills"/><g class="errorbars"/><g class="lines"/><g class="points"><path class="point" transform="translate(980.1,21.12)" d="M2,0A2,2 0 1,1 0,-2A2,2 0 0,1 2,0Z" style="opacity: 1; stroke-width: 0px; fill: rgb(11, 121, 230); fill-opacity: 1;"/></g><g class="text"/></g><g class="trace scatter tracece7cb1" style="stroke-miterlimit: 2; opacity: 1;"><g class="fills"/><g class="errorbars"/><g class="lines"/><g class="points"><path class="point" transform="translate(872.59,21.12)" d="M2,0A2,2 0 1,1 0,-2A2,2 0 0,1 2,0Z" style="opacity: 1; stroke-width: 0px; fill: rgb(11, 121, 230); fill-opacity: 1;"/></g><g class="text"/></g><g class="trace scatter trace036324" style="stroke-miterlimit: 2; opacity: 1;"><g class="fills"/><g class="errorbars"/><g class="lines"/><g class="points"><path class="point" transform="translate(862.41,21.12)" d="M2,0A2,2 0 1,1 0,-2A2,2 0 0,1 2,0Z" style="opacity: 1; stroke-width: 0px; fill: rgb(11, 121, 230); fill-opacity: 1;"/></g><g class="text"/></g><g class="trace scatter trace40bf30" style="stroke-miterlimit: 2; opacity: 1;"><g class="fills"/><g class="errorbars"/><g class="lines"/><g class="points"><path class="point" transform="translate(967.1,21.12)" d="M2,0A2,2 0 1,1 0,-2A2,2 0 0,1 2,0Z" style="opacity: 1; stroke-width: 0px; fill: rgb(11, 121, 230); fill-opacity: 1;"/></g><g class="text"/></g><g class="trace scatter trace3ee322" style="stroke-miterlimit: 2; opacity: 1;"><g class="fills"/><g class="errorbars"/><g class="lines"/><g class="points"><path class="point" transform="translate(744.84,21.12)" d="M2,0A2,2 0 1,1 0,-2A2,2 0 0,1 2,0Z" style="opacity: 1; stroke-width: 0px; fill: rgb(11, 121, 230); fill-opacity: 1;"/></g><g class="text"/></g><g class="trace scatter tracee5c202" style="stroke-miterlimit: 2; opacity: 1;"><g class="fills"/><g class="errorbars"/><g class="lines"/><g class="points"><path class="point" transform="translate(906.03,21.12)" d="M2,0A2,2 0 1,1 0,-2A2,2 0 0,1 2,0Z" style="opacity: 1; stroke-width: 0px; fill: rgb(11, 121, 230); fill-opacity: 1;"/></g><g class="text"/></g><g class="trace scatter tracee1ff7c" style="stroke-miterlimit: 2; opacity: 1;"><g class="fills"/><g class="errorbars"/><g class="lines"/><g class="points"><path class="point" transform="translate(898.39,21.12)" d="M2,0A2,2 0 1,1 0,-2A2,2 0 0,1 2,0Z" style="opacity: 1; stroke-width: 0px; fill: rgb(11, 121, 230); fill-opacity: 1;"/></g><g class="text"/></g><g class="trace scatter traceaeaae4" style="stroke-miterlimit: 2; opacity: 1;"><g class="fills"/><g class="errorbars"/><g class="lines"/><g class="points"><path class="point" transform="translate(195.86,21.12)" d="M2,0A2,2 0 1,1 0,-2A2,2 0 0,1 2,0Z" style="opacity: 1; stroke-width: 0px; fill: rgb(11, 121, 230); fill-opacity: 1;"/></g><g class="text"/></g></g></g></g><path class="xlines-above crisp" d="M0,0" style="fill: none;"/><path class="ylines-above crisp" d="M0,0" style="fill: none;"/><g class="overlines-above"/><g class="xaxislayer-above"><g class="x2tick"><text text-anchor="middle" x="0" y="172.61538461538464" transform="translate(104.88,0)" style="font-family: 'Lucida Grande', 'Open Sans', verdana, arial, sans-serif; font-size: 9px; fill: rgb(0, 0, 0); fill-opacity: 0.5; white-space: pre; opacity: 1;">0</text></g><g class="x2tick"><text text-anchor="middle" x="0" y="172.61538461538464" style="font-family: 'Lucida Grande', 'Open Sans', verdana, arial, sans-serif; font-size: 9px; fill: rgb(0, 0, 0); fill-opacity: 0.5; white-space: pre; opacity: 1;" transform="translate(280.52,0)">5T</text></g><g class="x2tick"><text text-anchor="middle" x="0" y="172.61538461538464" style="font-family: 'Lucida Grande', 'Open Sans', verdana, arial, sans-serif; font-size: 9px; fill: rgb(0, 0, 0); fill-opacity: 0.5; white-space: pre; opacity: 1;" transform="translate(456.16,0)">10T</text></g><g class="x2tick"><text text-anchor="middle" x="0" y="172.61538461538464" style="font-family: 'Lucida Grande', 'Open Sans', verdana, arial, sans-serif; font-size: 9px; fill: rgb(0, 0, 0); fill-opacity: 0.5; white-space: pre; opacity: 1;" transform="translate(631.81,0)">15T</text></g><g class="x2tick"><text text-anchor="middle" x="0" y="172.61538461538464" style="font-family: 'Lucida Grande', 'Open Sans', verdana, arial, sans-serif; font-size: 9px; fill: rgb(0, 0, 0); fill-opacity: 0.5; white-space: pre; opacity: 1;" transform="translate(807.45,0)">20T</text></g><g class="x2tick"><text text-anchor="middle" x="0" y="172.61538461538464" style="font-family: 'Lucida Grande', 'Open Sans', verdana, arial, sans-serif; font-size: 9px; fill: rgb(0, 0, 0); fill-opacity: 0.5; white-space: pre; opacity: 1;" transform="translate(983.1,0)">25T</text></g></g><g class="yaxislayer-above"><g class="y2tick"><text text-anchor="end" x="99" y="3.15" transform="translate(0,141.5046153846154)" style="font-family: 'Lucida Grande', 'Open Sans', verdana, arial, sans-serif; font-size: 9px; fill: rgb(0, 0, 0); fill-opacity: 0.5; white-space: pre; opacity: 1;">TotalCurrent  </text></g></g><g class="overaxes-above"/></g><g class="subplot x3y3"><g class="layer-subplot"><g class="shapelayer"/><g class="imagelayer"/></g><g class="minor-gridlayer"><g class="x3"/><g class="y3"/></g><g class="gridlayer"><g class="x3"><path class="x3grid crisp" transform="translate(216.13,0)" d="M0,190.76923076923077v42.230769230769226" style="stroke: rgb(0, 0, 0); stroke-opacity: 0.1; stroke-width: 1px;"/><path class="x3grid crisp" transform="translate(327.39,0)" d="M0,190.76923076923077v42.230769230769226" style="stroke: rgb(0, 0, 0); stroke-opacity: 0.1; stroke-width: 1px;"/><path class="x3grid crisp" transform="translate(438.65,0)" d="M0,190.76923076923077v42.230769230769226" style="stroke: rgb(0, 0, 0); stroke-opacity: 0.1; stroke-width: 1px;"/><path class="x3grid crisp" transform="translate(549.9100000000001,0)" d="M0,190.76923076923077v42.230769230769226" style="stroke: rgb(0, 0, 0); stroke-opacity: 0.1; stroke-width: 1px;"/><path class="x3grid crisp" transform="translate(661.17,0)" d="M0,190.76923076923077v42.230769230769226" style="stroke: rgb(0, 0, 0); stroke-opacity: 0.1; stroke-width: 1px;"/><path class="x3grid crisp" transform="translate(772.42,0)" d="M0,190.76923076923077v42.230769230769226" style="stroke: rgb(0, 0, 0); stroke-opacity: 0.1; stroke-width: 1px;"/><path class="x3grid crisp" transform="translate(883.68,0)" d="M0,190.76923076923077v42.230769230769226" style="stroke: rgb(0, 0, 0); stroke-opacity: 0.1; stroke-width: 1px;"/><path class="x3grid crisp" transform="translate(994.94,0)" d="M0,190.76923076923077v42.230769230769226" style="stroke: rgb(0, 0, 0); stroke-opacity: 0.1; stroke-width: 1px;"/></g><g class="y3"><path class="y3grid crisp" transform="translate(0,211.88923076923078)" d="M100,0h985" style="stroke: rgb(0, 0, 0); stroke-opacity: 0.1; stroke-width: 1px;"/></g></g><g class="zerolinelayer"><path class="x3zl zl crisp" transform="translate(104.88,0)" d="M0,190.76923076923077v42.230769230769226" style="stroke: rgb(0, 0, 0); stroke-opacity: 0.1; stroke-width: 2px;"/></g><g class="layer-between"><g class="shapelayer"/><g class="imagelayer"/></g><path class="xlines-below"/><path class="ylines-below"/><g class="overlines-below"/><g class="xaxislayer-below"/><g class="yaxislayer-below"/><g class="overaxes-below"/><g class="overplot"><g class="x3y3" transform="translate(100,190.76923076923077)" clip-path="url(#clipc09294x3y3plot)"><g class="violinlayer mlayer"><g class="trace violins" style="opacity: 0.5;"><path class="violin" d="M189.48,20.77Q204.99,20.6 212.74,20.48C220.49,20.36 228.25,20.21 236,20.06C243.75,19.91 251.51,19.73 259.26,19.56C267.01,19.4 274.77,19.22 282.52,19.07C290.27,18.93 298.03,18.78 305.78,18.69C313.53,18.6 321.28,18.55 329.03,18.54C336.78,18.53 344.54,18.58 352.29,18.65C360.04,18.72 367.8,18.85 375.55,18.96C383.3,19.08 391.06,19.23 398.81,19.34C406.56,19.45 414.32,19.56 422.07,19.62C429.82,19.68 437.58,19.71 445.33,19.69C453.08,19.67 460.84,19.6 468.59,19.5C476.34,19.4 484.1,19.25 491.85,19.08C499.6,18.92 507.35,18.72 515.1,18.51C522.85,18.3 530.61,18.07 538.36,17.82C546.11,17.57 553.87,17.32 561.62,17C569.37,16.68 577.13,16.35 584.88,15.92C592.64,15.49 600.39,15 608.14,14.43C615.9,13.86 623.65,13.18 631.4,12.49C639.16,11.8 646.91,11 654.66,10.29C662.41,9.58 670.16,8.81 677.92,8.23C685.67,7.65 693.42,7.11 701.17,6.79C708.92,6.47 716.68,6.31 724.43,6.33C732.18,6.35 739.94,6.59 747.69,6.91C755.45,7.24 763.2,7.76 770.95,8.28C778.71,8.8 786.46,9.45 794.21,10.01C801.96,10.57 809.71,11.16 817.47,11.66C825.22,12.15 832.97,12.61 840.73,12.98C848.48,13.35 856.24,13.62 863.99,13.86C871.74,14.09 879.49,14.25 887.24,14.39C894.99,14.53 902.75,14.6 910.5,14.71C918.25,14.81 926.01,14.89 933.76,15.02C941.51,15.15 949.27,15.3 957.02,15.49C964.77,15.68 972.53,15.91 980.28,16.17C988.03,16.43 995.79,16.75 1003.54,17.06C1011.29,17.37 1019.05,17.72 1026.8,18.04C1034.55,18.36 1042.31,18.69 1050.06,18.98C1057.81,19.27 1065.56,19.53 1073.31,19.76C1081.06,19.99 1088.82,20.18 1096.57,20.34Q1104.32,20.5 1119.83,20.71L1119.83,21.52Q1104.32,21.73 1096.57,21.89C1088.82,22.05 1081.06,22.24 1073.31,22.47C1065.56,22.7 1057.81,22.96 1050.06,23.25C1042.31,23.54 1034.55,23.87 1026.8,24.19C1019.05,24.51 1011.29,24.86 1003.54,25.17C995.79,25.48 988.03,25.8 980.28,26.06C972.53,26.32 964.77,26.56 957.02,26.75C949.27,26.94 941.51,27.08 933.76,27.21C926.01,27.34 918.25,27.41 910.5,27.52C902.75,27.63 894.99,27.71 887.24,27.85C879.49,27.99 871.74,28.14 863.99,28.37C856.24,28.6 848.48,28.88 840.73,29.25C832.97,29.62 825.22,30.08 817.47,30.57C809.71,31.07 801.96,31.66 794.21,32.22C786.46,32.78 778.71,33.43 770.95,33.95C763.2,34.47 755.45,34.99 747.69,35.32C739.94,35.64 732.18,35.88 724.43,35.9C716.68,35.92 708.92,35.76 701.17,35.44C693.42,35.12 685.67,34.58 677.92,34C670.16,33.42 662.41,32.65 654.66,31.94C646.91,31.23 639.16,30.43 631.4,29.74C623.65,29.05 615.9,28.37 608.14,27.8C600.39,27.23 592.64,26.74 584.88,26.31C577.13,25.88 569.37,25.55 561.62,25.23C553.87,24.91 546.11,24.66 538.36,24.41C530.61,24.16 522.85,23.93 515.1,23.72C507.35,23.51 499.6,23.31 491.85,23.15C484.1,22.98 476.34,22.83 468.59,22.73C460.84,22.63 453.08,22.56 445.33,22.54C437.58,22.52 429.82,22.55 422.07,22.61C414.32,22.67 406.56,22.78 398.81,22.89C391.06,23 383.3,23.15 375.55,23.27C367.8,23.38 360.04,23.51 352.29,23.58C344.54,23.65 336.78,23.7 329.03,23.69C321.28,23.68 313.53,23.63 305.78,23.54C298.03,23.45 290.27,23.31 282.52,23.17C274.77,23.02 267.01,22.84 259.26,22.67C251.51,22.5 243.75,22.32 236,22.17C228.25,22.02 220.49,21.87 212.74,21.75Q204.99,21.63 189.48,21.46Z" style="vector-effect: none; stroke-width: 2px; stroke: rgb(181, 181, 181); stroke-opacity: 1; fill: rgb(181, 181, 181); fill-opacity: 1;"/><path class="box" d="M720.14,24.81V17.42M685.88,24.81V17.42H829.65V24.81ZM685.88,21.12H553.8M829.65,21.12H980.1" style="vector-effect: non-scaling-stroke; stroke-width: 2px; stroke: rgb(181, 181, 181); stroke-opacity: 1; fill: rgb(181, 181, 181); fill-opacity: 1;"/><path class="mean" d="M723.67,24.81V17.42" style="fill: none; vector-effect: non-scaling-stroke; stroke-width: 2px; stroke-dasharray: 4px, 2px; stroke: rgb(181, 181, 181); stroke-opacity: 1;"/></g></g><g class="scatterlayer mlayer"><g class="trace scatter trace8eeea4" style="stroke-miterlimit: 2; opacity: 1;"><g class="fills"/><g class="errorbars"/><g class="lines"/><g class="points"><path class="point" transform="translate(679.31,21.12)" d="M2,0A2,2 0 1,1 0,-2A2,2 0 0,1 2,0Z" style="opacity: 1; stroke-width: 0px; fill: rgb(11, 121, 230); fill-opacity: 1;"/></g><g class="text"/></g><g class="trace scatter traceecf466" style="stroke-miterlimit: 2; opacity: 1;"><g class="fills"/><g class="errorbars"/><g class="lines"/><g class="points"><path class="point" transform="translate(553.8,21.12)" d="M2,0A2,2 0 1,1 0,-2A2,2 0 0,1 2,0Z" style="opacity: 1; stroke-width: 0px; fill: rgb(11, 121, 230); fill-opacity: 1;"/></g><g class="text"/></g><g class="trace scatter trace74fad0" style="stroke-miterlimit: 2; opacity: 1;"><g class="fills"/><g class="errorbars"/><g class="lines"/><g class="points"><path class="point" transform="translate(705.59,21.12)" d="M2,0A2,2 0 1,1 0,-2A2,2 0 0,1 2,0Z" style="opacity: 1; stroke-width: 0px; fill: rgb(11, 121, 230); fill-opacity: 1;"/></g><g class="text"/></g><g class="trace scatter tracec4ca6a" style="stroke-miterlimit: 2; opacity: 1;"><g class="fills"/><g class="errorbars"/><g class="lines"/><g class="points"><path class="point" transform="translate(731.45,21.12)" d="M2,0A2,2 0 1,1 0,-2A2,2 0 0,1 2,0Z" style="opacity: 1; stroke-width: 0px; fill: rgb(11, 121, 230); fill-opacity: 1;"/></g><g class="text"/></g><g class="trace scatter trace98e00b" style="stroke-miterlimit: 2; opacity: 1;"><g class="fills"/><g class="errorbars"/><g class="lines"/><g class="points"><path class="point" transform="translate(846.86,21.12)" d="M2,0A2,2 0 1,1 0,-2A2,2 0 0,1 2,0Z" style="opacity: 1; stroke-width: 0px; fill: rgb(11, 121, 230); fill-opacity: 1;"/></g><g class="text"/></g><g class="trace scatter tracea187b8" style="stroke-miterlimit: 2; opacity: 1;"><g class="fills"/><g class="errorbars"/><g class="lines"/><g class="points"><path class="point" transform="translate(927.21,21.12)" d="M2,0A2,2 0 1,1 0,-2A2,2 0 0,1 2,0Z" style="opacity: 1; stroke-width: 0px; fill: rgb(11, 121, 230); fill-opacity: 1;"/></g><g class="text"/></g><g class="trace scatter trace6a83d0" style="stroke-miterlimit: 2; opacity: 1;"><g class="fills"/><g class="errorbars"/><g class="lines"/><g class="points"><path class="point" transform="translate(980.1,21.12)" d="M2,0A2,2 0 1,1 0,-2A2,2 0 0,1 2,0Z" style="opacity: 1; stroke-width: 0px; fill: rgb(11, 121, 230); fill-opacity: 1;"/></g><g class="text"/></g><g class="trace scatter trace4e7577" style="stroke-miterlimit: 2; opacity: 1;"><g class="fills"/><g class="errorbars"/><g class="lines"/><g class="points"><path class="point" transform="translate(708.67,21.12)" d="M2,0A2,2 0 1,1 0,-2A2,2 0 0,1 2,0Z" style="opacity: 1; stroke-width: 0px; fill: rgb(11, 121, 230); fill-opacity: 1;"/></g><g class="text"/></g><g class="trace scatter traceee5044" style="stroke-miterlimit: 2; opacity: 1;"><g class="fills"/><g class="errorbars"/><g class="lines"/><g class="points"><path class="point" transform="translate(777.99,21.12)" d="M2,0A2,2 0 1,1 0,-2A2,2 0 0,1 2,0Z" style="opacity: 1; stroke-width: 0px; fill: rgb(11, 121, 230); fill-opacity: 1;"/></g><g class="text"/></g><g class="trace scatter trace26fc46" style="stroke-miterlimit: 2; opacity: 1;"><g class="fills"/><g class="errorbars"/><g class="lines"/><g class="points"><path class="point" transform="translate(720.14,21.12)" d="M2,0A2,2 0 1,1 0,-2A2,2 0 0,1 2,0Z" style="opacity: 1; stroke-width: 0px; fill: rgb(11, 121, 230); fill-opacity: 1;"/></g><g class="text"/></g><g class="trace scatter trace7d1553" style="stroke-miterlimit: 2; opacity: 1;"><g class="fills"/><g class="errorbars"/><g class="lines"/><g class="points"><path class="point" transform="translate(329.21,21.12)" d="M2,0A2,2 0 1,1 0,-2A2,2 0 0,1 2,0Z" style="opacity: 1; stroke-width: 0px; fill: rgb(11, 121, 230); fill-opacity: 1;"/></g><g class="text"/></g></g></g></g><path class="xlines-above crisp" d="M0,0" style="fill: none;"/><path class="ylines-above crisp" d="M0,0" style="fill: none;"/><g class="overlines-above"/><g class="xaxislayer-above"><g class="x3tick"><text text-anchor="middle" x="0" y="243" transform="translate(104.88,0)" style="font-family: 'Lucida Grande', 'Open Sans', verdana, arial, sans-serif; font-size: 9px; fill: rgb(0, 0, 0); fill-opacity: 0.5; white-space: pre; opacity: 1;">0</text></g><g class="x3tick"><text text-anchor="middle" x="0" y="243" style="font-family: 'Lucida Grande', 'Open Sans', verdana, arial, sans-serif; font-size: 9px; fill: rgb(0, 0, 0); fill-opacity: 0.5; white-space: pre; opacity: 1;" transform="translate(216.13,0)">10B</text></g><g class="x3tick"><text text-anchor="middle" x="0" y="243" style="font-family: 'Lucida Grande', 'Open Sans', verdana, arial, sans-serif; font-size: 9px; fill: rgb(0, 0, 0); fill-opacity: 0.5; white-space: pre; opacity: 1;" transform="translate(327.39,0)">20B</text></g><g class="x3tick"><text text-anchor="middle" x="0" y="243" style="font-family: 'Lucida Grande', 'Open Sans', verdana, arial, sans-serif; font-size: 9px; fill: rgb(0, 0, 0); fill-opacity: 0.5; white-space: pre; opacity: 1;" transform="translate(438.65,0)">30B</text></g><g class="x3tick"><text text-anchor="middle" x="0" y="243" style="font-family: 'Lucida Grande', 'Open Sans', verdana, arial, sans-serif; font-size: 9px; fill: rgb(0, 0, 0); fill-opacity: 0.5; white-space: pre; opacity: 1;" transform="translate(549.9100000000001,0)">40B</text></g><g class="x3tick"><text text-anchor="middle" x="0" y="243" style="font-family: 'Lucida Grande', 'Open Sans', verdana, arial, sans-serif; font-size: 9px; fill: rgb(0, 0, 0); fill-opacity: 0.5; white-space: pre; opacity: 1;" transform="translate(661.17,0)">50B</text></g><g class="x3tick"><text text-anchor="middle" x="0" y="243" style="font-family: 'Lucida Grande', 'Open Sans', verdana, arial, sans-serif; font-size: 9px; fill: rgb(0, 0, 0); fill-opacity: 0.5; white-space: pre; opacity: 1;" transform="translate(772.42,0)">60B</text></g><g class="x3tick"><text text-anchor="middle" x="0" y="243" style="font-family: 'Lucida Grande', 'Open Sans', verdana, arial, sans-serif; font-size: 9px; fill: rgb(0, 0, 0); fill-opacity: 0.5; white-space: pre; opacity: 1;" transform="translate(883.68,0)">70B</text></g><g class="x3tick"><text text-anchor="middle" x="0" y="243" style="font-family: 'Lucida Grande', 'Open Sans', verdana, arial, sans-serif; font-size: 9px; fill: rgb(0, 0, 0); fill-opacity: 0.5; white-space: pre; opacity: 1;" transform="translate(994.94,0)">80B</text></g></g><g class="yaxislayer-above"><g class="y3tick"><text text-anchor="end" x="99" y="3.15" transform="translate(0,211.88923076923078)" style="font-family: 'Lucida Grande', 'Open Sans', verdana, arial, sans-serif; font-size: 9px; fill: rgb(0, 0, 0); fill-opacity: 0.5; white-space: pre; opacity: 1;">ScanCurrent  </text></g></g><g class="overaxes-above"/></g></g><g class="polarlayer"/><g class="smithlayer"/><g class="ternarylayer"/><g class="geolayer"/><g class="funnelarealayer"/><g class="pielayer"/><g class="iciclelayer"/><g class="treemaplayer"/><g class="sunburstlayer"/><g class="glimages"/><defs id="topdefs-c09294"><g class="clips"/></defs><g class="layer-above"><g class="imagelayer"/><g class="shapelayer"/></g><g class="infolayer"><g class="g-gtitle"><text class="gtitle" x="550" y="25" text-anchor="middle" dy="0em" style="opacity: 1; font-family: 'Lucida Grande', 'Open Sans', verdana, arial, sans-serif; font-size: 20px; fill: rgb(42, 63, 95); fill-opacity: 1; white-space: pre;"><tspan class="line" dy="0em" x="550" y="25">General Stats</tspan><tspan class="line" dy="1.3em" x="550" y="25">​<tspan style="font-size:70%" dy="-0.6em">11 samples</tspan><tspan dy="0.42em">​</tspan></tspan></text></g><g class="g-xtitle"/><g class="g-x2title"/><g class="g-x3title"/><g class="g-ytitle"/><g class="g-y2title"/><g class="g-y3title"/></g></svg>