<svg class="main-svg" xmlns="http://www.w3.org/2000/svg" xmlns:xlink="http://www.w3.org/1999/xlink" width="2200" height="966" style="" viewBox="0 0 1100 483"><rect x="0" y="0" width="1100" height="483" style="fill: rgb(255, 255, 255); fill-opacity: 1;"/><defs id="defs-52c2d1"><g class="clips"><clipPath id="clip52c2d1xyplot" class="plotclip"><rect width="953" height="42.10714285714284"/></clipPath><clipPath id="clip52c2d1x2y2plot" class="plotclip"><rect width="953" height="42.10714285714284"/></clipPath><clipPath id="clip52c2d1x3y3plot" class="plotclip"><rect width="953" height="42.10714285714284"/></clipPath><clipPath id="clip52c2d1x4y4plot" class="plotclip"><rect width="953" height="42.10714285714286"/></clipPath><clipPath id="clip52c2d1x5y5plot" class="plotclip"><rect width="953" height="42.10714285714285"/></clipPath><clipPath id="clip52c2d1x6y6plot" class="plotclip"><rect width="953" height="42.107142857142854"/></clipPath><clipPath class="axesclip" id="clip52c2d1x"><rect x="132" y="0" width="953" height="483"/></clipPath><clipPath class="axesclip" id="clip52c2d1y"><rect x="0" y="50" width="1100" height="42.10714285714284"/></clipPath><clipPath class="axesclip" id="clip52c2d1xy"><rect x="132" y="50" width="953" height="42.10714285714284"/></clipPath><clipPath class="axesclip" id="clip52c2d1y2"><rect x="0" y="120.17857142857144" width="1100" height="42.10714285714284"/></clipPath><clipPath class="axesclip" id="clip52c2d1xy2"><rect x="132" y="120.17857142857144" width="953" height="42.10714285714284"/></clipPath><clipPath class="axesclip" id="clip52c2d1y3"><rect x="0" y="190.3571428571429" width="1100" height="42.10714285714284"/></clipPath><clipPath class="axesclip" id="clip52c2d1xy3"><rect x="132" y="190.3571428571429" width="953" height="42.10714285714284"/></clipPath><clipPath class="axesclip" id="clip52c2d1y4"><rect x="0" y="260.5357142857143" width="1100" height="42.10714285714286"/></clipPath><clipPath class="axesclip" id="clip52c2d1xy4"><rect x="132" y="260.5357142857143" width="953" height="42.10714285714286"/></clipPath><clipPath class="axesclip" id="clip52c2d1y5"><rect x="0" y="330.7142857142857" width="1100" height="42.10714285714285"/></clipPath><clipPath class="axesclip" id="clip52c2d1xy5"><rect x="132" y="330.7142857142857" width="953" height="42.10714285714285"/></clipPath><clipPath class="axesclip" id="clip52c2d1y6"><rect x="0" y="400.89285714285717" width="1100" height="42.107142857142854"/></clipPath><clipPath class="axesclip" id="clip52c2d1xy6"><rect x="132" y="400.89285714285717" width="953" height="42.107142857142854"/></clipPath><clipPath class="axesclip" id="clip52c2d1x2"><rect x="132" y="0" width="953" height="483"/></clipPath><clipPath class="axesclip" id="clip52c2d1x2y"><rect x="132" y="50" width="953" height="42.10714285714284"/></clipPath><clipPath class="axesclip" id="clip52c2d1x2y2"><rect x="132" y="120.17857142857144" width="953" height="42.10714285714284"/></clipPath><clipPath class="axesclip" id="clip52c2d1x2y3"><rect x="132" y="190.3571428571429" width="953" height="42.10714285714284"/></clipPath><clipPath class="axesclip" id="clip52c2d1x2y4"><rect x="132" y="260.5357142857143" width="953" height="42.10714285714286"/></clipPath><clipPath class="axesclip" id="clip52c2d1x2y5"><rect x="132" y="330.7142857142857" width="953" height="42.10714285714285"/></clipPath><clipPath class="axesclip" id="clip52c2d1x2y6"><rect x="132" y="400.89285714285717" width="953" height="42.107142857142854"/></clipPath><clipPath class="axesclip" id="clip52c2d1x3"><rect x="132" y="0" width="953" height="483"/></clipPath><clipPath class="axesclip" id="clip52c2d1x3y"><rect x="132" y="50" width="953" height="42.10714285714284"/></clipPath><clipPath class="axesclip" id="clip52c2d1x3y2"><rect x="132" y="120.17857142857144" width="953" height="42.10714285714284"/></clipPath><clipPath class="axesclip" id="clip52c2d1x3y3"><rect x="132" y="190.3571428571429" width="953" height="42.10714285714284"/></clipPath><clipPath class="axesclip" id="clip52c2d1x3y4"><rect x="132" y="260.5357142857143" width="953" height="42.10714285714286"/></clipPath><clipPath class="axesclip" id="clip52c2d1x3y5"><rect x="132" y="330.7142857142857" width="953" height="42.10714285714285"/></clipPath><clipPath class="axesclip" id="clip52c2d1x3y6"><rect x="132" y="400.89285714285717" width="953" height="42.107142857142854"/></clipPath><clipPath class="axesclip" id="clip52c2d1x4"><rect x="132" y="0" width="953" height="483"/></clipPath><clipPath class="axesclip" id="clip52c2d1x4y"><rect x="132" y="50" width="953" height="42.10714285714284"/></clipPath><clipPath class="axesclip" id="clip52c2d1x4y2"><rect x="132" y="120.17857142857144" width="953" height="42.10714285714284"/></clipPath><clipPath class="axesclip" id="clip52c2d1x4y3"><rect x="132" y="190.3571428571429" width="953" height="42.10714285714284"/></clipPath><clipPath class="axesclip" id="clip52c2d1x4y4"><rect x="132" y="260.5357142857143" width="953" height="42.10714285714286"/></clipPath><clipPath class="axesclip" id="clip52c2d1x4y5"><rect x="132" y="330.7142857142857" width="953" height="42.10714285714285"/></clipPath><clipPath class="axesclip" id="clip52c2d1x4y6"><rect x="132" y="400.89285714285717" width="953" height="42.107142857142854"/></clipPath><clipPath class="axesclip" id="clip52c2d1x5"><rect x="132" y="0" width="953" height="483"/></clipPath><clipPath class="axesclip" id="clip52c2d1x5y"><rect x="132" y="50" width="953" height="42.10714285714284"/></clipPath><clipPath class="axesclip" id="clip52c2d1x5y2"><rect x="132" y="120.17857142857144" width="953" height="42.10714285714284"/></clipPath><clipPath class="axesclip" id="clip52c2d1x5y3"><rect x="132" y="190.3571428571429" width="953" height="42.10714285714284"/></clipPath><clipPath class="axesclip" id="clip52c2d1x5y4"><rect x="132" y="260.5357142857143" width="953" height="42.10714285714286"/></clipPath><clipPath class="axesclip" id="clip52c2d1x5y5"><rect x="132" y="330.7142857142857" width="953" height="42.10714285714285"/></clipPath><clipPath class="axesclip" id="clip52c2d1x5y6"><rect x="132" y="400.89285714285717" width="953" height="42.107142857142854"/></clipPath><clipPath class="axesclip" id="clip52c2d1x6"><rect x="132" y="0" width="953" height="483"/></clipPath><clipPath class="axesclip" id="clip52c2d1x6y"><rect x="132" y="50" width="953" height="42.10714285714284"/></clipPath><clipPath class="axesclip" id="clip52c2d1x6y2"><rect x="132" y="120.17857142857144" width="953" height="42.10714285714284"/></clipPath><clipPath class="axesclip" id="clip52c2d1x6y3"><rect x="132" y="190.3571428571429" width="953" height="42.10714285714284"/></clipPath><clipPath class="axesclip" id="clip52c2d1x6y4"><rect x="132" y="260.5357142857143" width="953" height="42.10714285714286"/></clipPath><clipPath class="axesclip" id="clip52c2d1x6y5"><rect x="132" y="330.7142857142857" width="953" height="42.10714285714285"/></clipPath><clipPath class="axesclip" id="clip52c2d1x6y6"><rect x="132" y="400.89285714285717" width="953" height="42.107142857142854"/></clipPath></g><g class="gradients"/><g class="patterns"/></defs><g class="bglayer"/><g class="layer-below"><g class="imagelayer"/><g class="shapelayer"/></g><g class="cartesianlayer"><g class="subplot xy"><g class="layer-subplot"><g class="shapelayer"/><g class="imagelayer"/></g><g class="minor-gridlayer"><g class="x"/><g class="y"/></g><g class="gridlayer"><g class="x"><path class="xgrid crisp" transform="translate(260.07,0)" d="M0,50v42.10714285714284" style="stroke: rgb(0, 0, 0); stroke-opacity: 0.1; stroke-width: 1px;"/><path class="xgrid crisp" transform="translate(383.43,0)" d="M0,50v42.10714285714284" style="stroke: rgb(0, 0, 0); stroke-opacity: 0.1; stroke-width: 1px;"/><path class="xgrid crisp" transform="translate(506.78,0)" d="M0,50v42.10714285714284" style="stroke: rgb(0, 0, 0); stroke-opacity: 0.1; stroke-width: 1px;"/><path class="xgrid crisp" transform="translate(630.14,0)" d="M0,50v42.10714285714284" style="stroke: rgb(0, 0, 0); stroke-opacity: 0.1; stroke-width: 1px;"/><path class="xgrid crisp" transform="translate(753.49,0)" d="M0,50v42.10714285714284" style="stroke: rgb(0, 0, 0); stroke-opacity: 0.1; stroke-width: 1px;"/><path class="xgrid crisp" transform="translate(876.85,0)" d="M0,50v42.10714285714284" style="stroke: rgb(0, 0, 0); stroke-opacity: 0.1; stroke-width: 1px;"/><path class="xgrid crisp" transform="translate(1000.2,0)" d="M0,50v42.10714285714284" style="stroke: rgb(0, 0, 0); stroke-opacity: 0.1; stroke-width: 1px;"/></g><g class="y"><path class="ygrid crisp" transform="translate(0,71.05)" d="M132,0h953" style="stroke: rgb(0, 0, 0); stroke-opacity: 0.1; stroke-width: 1px;"/></g></g><g class="zerolinelayer"><path class="xzl zl crisp" transform="translate(136.72,0)" d="M0,50v42.10714285714284" style="stroke: rgb(0, 0, 0); stroke-opacity: 0.1; stroke-width: 2px;"/></g><g class="layer-between"><g class="shapelayer"/><g class="imagelayer"/></g><path class="xlines-below"/><path class="ylines-below"/><g class="overlines-below"/><g class="xaxislayer-below"/><g class="yaxislayer-below"/><g class="overaxes-below"/><g class="overplot"><g class="xy" transform="translate(132,50)" clip-path="url(#clip52c2d1xyplot)"><g class="violinlayer mlayer"><g class="trace violins" style="opacity: 0.5;"><path class="violin" d="M406.73,20.72Q420.68,20.56 427.65,20.45C434.63,20.34 441.6,20.2 448.58,20.06C455.55,19.92 462.53,19.75 469.5,19.59C476.48,19.43 483.45,19.26 490.43,19.11C497.4,18.97 504.38,18.82 511.35,18.72C518.32,18.62 525.3,18.54 532.27,18.49C539.25,18.44 546.22,18.44 553.2,18.43C560.17,18.42 567.15,18.45 574.12,18.42C581.1,18.39 588.07,18.37 595.05,18.25C602.02,18.13 609,17.97 615.97,17.68C622.95,17.39 629.92,17 636.89,16.51C643.87,16.02 650.85,15.39 657.82,14.72C664.8,14.05 671.77,13.24 678.74,12.47C685.72,11.7 692.69,10.84 699.67,10.11C706.64,9.38 713.61,8.65 720.59,8.09C727.56,7.54 734.54,7.08 741.52,6.78C748.49,6.49 755.47,6.35 762.44,6.32C769.41,6.29 776.39,6.43 783.36,6.59C790.34,6.75 797.31,7.04 804.29,7.3C811.26,7.56 818.24,7.88 825.21,8.16C832.19,8.44 839.16,8.71 846.14,8.98C853.11,9.25 860.09,9.49 867.06,9.77C874.04,10.05 881.01,10.32 887.99,10.65C894.96,10.97 901.94,11.32 908.91,11.72C915.88,12.12 922.86,12.57 929.83,13.04C936.81,13.51 943.78,14.02 950.76,14.53C957.73,15.03 964.71,15.58 971.68,16.07C978.66,16.57 985.63,17.06 992.61,17.5C999.58,17.94 1006.55,18.35 1013.53,18.7C1020.5,19.05 1027.48,19.36 1034.46,19.62C1041.43,19.88 1048.41,20.08 1055.38,20.25Q1062.35,20.42 1076.3,20.64L1076.3,21.47Q1062.35,21.69 1055.38,21.86C1048.41,22.03 1041.43,22.23 1034.46,22.49C1027.48,22.75 1020.5,23.06 1013.53,23.41C1006.55,23.76 999.58,24.17 992.61,24.61C985.63,25.05 978.66,25.54 971.68,26.04C964.71,26.53 957.73,27.08 950.76,27.58C943.78,28.09 936.81,28.6 929.83,29.07C922.86,29.54 915.88,29.98 908.91,30.38C901.94,30.78 894.96,31.14 887.99,31.46C881.01,31.79 874.04,32.05 867.06,32.33C860.09,32.61 853.11,32.86 846.14,33.13C839.16,33.4 832.19,33.67 825.21,33.95C818.24,34.23 811.26,34.54 804.29,34.8C797.31,35.06 790.34,35.35 783.36,35.52C776.39,35.68 769.41,35.82 762.44,35.79C755.47,35.76 748.49,35.62 741.52,35.33C734.54,35.03 727.56,34.57 720.59,34.02C713.61,33.46 706.64,32.73 699.67,32C692.69,31.27 685.72,30.41 678.74,29.64C671.77,28.87 664.8,28.07 657.82,27.39C650.85,26.72 643.87,26.08 636.89,25.59C629.92,25.1 622.95,24.72 615.97,24.43C609,24.14 602.02,23.98 595.05,23.86C588.07,23.74 581.1,23.72 574.12,23.69C567.15,23.66 560.17,23.69 553.2,23.68C546.22,23.67 539.25,23.67 532.27,23.62C525.3,23.57 518.32,23.49 511.35,23.39C504.38,23.29 497.4,23.14 490.43,23C483.45,22.85 476.48,22.68 469.5,22.52C462.53,22.36 455.55,22.19 448.58,22.05C441.6,21.91 434.63,21.77 427.65,21.66Q420.68,21.55 406.73,21.39Z" style="vector-effect: none; stroke-width: 2px; stroke: rgb(181, 181, 181); stroke-opacity: 1; fill: rgb(181, 181, 181); fill-opacity: 1;"/><path class="box" d="M752.49,24.74V17.37M739.39,24.74V17.37H871.13V24.74ZM739.39,21.05H702.54M871.13,21.05H948.26" style="vector-effect: non-scaling-stroke; stroke-width: 2px; stroke: rgb(181, 181, 181); stroke-opacity: 1; fill: rgb(181, 181, 181); fill-opacity: 1;"/><path class="mean" d="M782.16,24.74V17.37" style="fill: none; vector-effect: non-scaling-stroke; stroke-width: 2px; stroke-dasharray: 4px, 2px; stroke: rgb(181, 181, 181); stroke-opacity: 1;"/></g></g><g class="scatterlayer mlayer"><g class="trace scatter traceed1827" style="stroke-miterlimit: 2; opacity: 1;"><g class="fills"/><g class="errorbars"/><g class="lines"/><g class="points"><path class="point" transform="translate(852.17,21.05)" d="M2,0A2,2 0 1,1 0,-2A2,2 0 0,1 2,0Z" style="opacity: 1; stroke-width: 0px; fill: rgb(11, 121, 230); fill-opacity: 1;"/></g><g class="text"/></g><g class="trace scatter trace3f5d90" style="stroke-miterlimit: 2; opacity: 1;"><g class="fills"/><g class="errorbars"/><g class="lines"/><g class="points"><path class="point" transform="translate(802.95,21.05)" d="M2,0A2,2 0 1,1 0,-2A2,2 0 0,1 2,0Z" style="opacity: 1; stroke-width: 0px; fill: rgb(11, 121, 230); fill-opacity: 1;"/></g><g class="text"/></g><g class="trace scatter trace61f192" style="stroke-miterlimit: 2; opacity: 1;"><g class="fills"/><g class="errorbars"/><g class="lines"/><g class="points"><path class="point" transform="translate(901.01,21.05)" d="M2,0A2,2 0 1,1 0,-2A2,2 0 0,1 2,0Z" style="opacity: 1; stroke-width: 0px; fill: rgb(11, 121, 230); fill-opacity: 1;"/></g><g class="text"/></g><g class="trace scatter trace312035" style="stroke-miterlimit: 2; opacity: 1;"><g class="fills"/><g class="errorbars"/><g class="lines"/><g class="points"><path class="point" transform="translate(948.26,21.05)" d="M2,0A2,2 0 1,1 0,-2A2,2 0 0,1 2,0Z" style="opacity: 1; stroke-width: 0px; fill: rgb(11, 121, 230); fill-opacity: 1;"/></g><g class="text"/></g><g class="trace scatter tracecabfba" style="stroke-miterlimit: 2; opacity: 1;"><g class="fills"/><g class="errorbars"/><g class="lines"/><g class="points"><path class="point" transform="translate(702.54,21.05)" d="M2,0A2,2 0 1,1 0,-2A2,2 0 0,1 2,0Z" style="opacity: 1; stroke-width: 0px; fill: rgb(11, 121, 230); fill-opacity: 1;"/></g><g class="text"/></g><g class="trace scatter trace522b68" style="stroke-miterlimit: 2; opacity: 1;"><g class="fills"/><g class="errorbars"/><g class="lines"/><g class="points"><path class="point" transform="translate(742.63,21.05)" d="M2,0A2,2 0 1,1 0,-2A2,2 0 0,1 2,0Z" style="opacity: 1; stroke-width: 0px; fill: rgb(11, 121, 230); fill-opacity: 1;"/></g><g class="text"/></g><g class="trace scatter trace41d71d" style="stroke-miterlimit: 2; opacity: 1;"><g class="fills"/><g class="errorbars"/><g class="lines"/><g class="points"><path class="point" transform="translate(877.45,21.05)" d="M2,0A2,2 0 1,1 0,-2A2,2 0 0,1 2,0Z" style="opacity: 1; stroke-width: 0px; fill: rgb(11, 121, 230); fill-opacity: 1;"/></g><g class="text"/></g><g class="trace scatter trace1db96b" style="stroke-miterlimit: 2; opacity: 1;"><g class="fills"/><g class="errorbars"/><g class="lines"/><g class="points"><path class="point" transform="translate(738.31,21.05)" d="M2,0A2,2 0 1,1 0,-2A2,2 0 0,1 2,0Z" style="opacity: 1; stroke-width: 0px; fill: rgb(11, 121, 230); fill-opacity: 1;"/></g><g class="text"/></g><g class="trace scatter traced144c3" style="stroke-miterlimit: 2; opacity: 1;"><g class="fills"/><g class="errorbars"/><g class="lines"/><g class="points"><path class="point" transform="translate(751.14,21.05)" d="M2,0A2,2 0 1,1 0,-2A2,2 0 0,1 2,0Z" style="opacity: 1; stroke-width: 0px; fill: rgb(11, 121, 230); fill-opacity: 1;"/></g><g class="text"/></g><g class="trace scatter tracec9d049" style="stroke-miterlimit: 2; opacity: 1;"><g class="fills"/><g class="errorbars"/><g class="lines"/><g class="points"><path class="point" transform="translate(752.49,21.05)" d="M2,0A2,2 0 1,1 0,-2A2,2 0 0,1 2,0Z" style="opacity: 1; stroke-width: 0px; fill: rgb(11, 121, 230); fill-opacity: 1;"/></g><g class="text"/></g><g class="trace scatter traceea1b56" style="stroke-miterlimit: 2; opacity: 1;"><g class="fills"/><g class="errorbars"/><g class="lines"/><g class="points"><path class="point" transform="translate(534.77,21.05)" d="M2,0A2,2 0 1,1 0,-2A2,2 0 0,1 2,0Z" style="opacity: 1; stroke-width: 0px; fill: rgb(11, 121, 230); fill-opacity: 1;"/></g><g class="text"/></g></g></g></g><path class="xlines-above crisp" d="M0,0" style="fill: none;"/><path class="ylines-above crisp" d="M0,0" style="fill: none;"/><g class="overlines-above"/><g class="xaxislayer-above"><g class="xtick"><text text-anchor="middle" x="0" y="102.10714285714283" transform="translate(136.72,0)" style="font-family: 'Lucida Grande', 'Open Sans', verdana, arial, sans-serif; font-size: 9px; fill: rgb(0, 0, 0); fill-opacity: 0.5; white-space: pre; opacity: 1;">0</text></g><g class="xtick"><text text-anchor="middle" x="0" y="102.10714285714283" style="font-family: 'Lucida Grande', 'Open Sans', verdana, arial, sans-serif; font-size: 9px; fill: rgb(0, 0, 0); fill-opacity: 0.5; white-space: pre; opacity: 1;" transform="translate(260.07,0)">1000</text></g><g class="xtick"><text text-anchor="middle" x="0" y="102.10714285714283" style="font-family: 'Lucida Grande', 'Open Sans', verdana, arial, sans-serif; font-size: 9px; fill: rgb(0, 0, 0); fill-opacity: 0.5; white-space: pre; opacity: 1;" transform="translate(383.43,0)">2000</text></g><g class="xtick"><text text-anchor="middle" x="0" y="102.10714285714283" style="font-family: 'Lucida Grande', 'Open Sans', verdana, arial, sans-serif; font-size: 9px; fill: rgb(0, 0, 0); fill-opacity: 0.5; white-space: pre; opacity: 1;" transform="translate(506.78,0)">3000</text></g><g class="xtick"><text text-anchor="middle" x="0" y="102.10714285714283" style="font-family: 'Lucida Grande', 'Open Sans', verdana, arial, sans-serif; font-size: 9px; fill: rgb(0, 0, 0); fill-opacity: 0.5; white-space: pre; opacity: 1;" transform="translate(630.14,0)">4000</text></g><g class="xtick"><text text-anchor="middle" x="0" y="102.10714285714283" style="font-family: 'Lucida Grande', 'Open Sans', verdana, arial, sans-serif; font-size: 9px; fill: rgb(0, 0, 0); fill-opacity: 0.5; white-space: pre; opacity: 1;" transform="translate(753.49,0)">5000</text></g><g class="xtick"><text text-anchor="middle" x="0" y="102.10714285714283" style="font-family: 'Lucida Grande', 'Open Sans', verdana, arial, sans-serif; font-size: 9px; fill: rgb(0, 0, 0); fill-opacity: 0.5; white-space: pre; opacity: 1;" transform="translate(876.85,0)">6000</text></g><g class="xtick"><text text-anchor="middle" x="0" y="102.10714285714283" style="font-family: 'Lucida Grande', 'Open Sans', verdana, arial, sans-serif; font-size: 9px; fill: rgb(0, 0, 0); fill-opacity: 0.5; white-space: pre; opacity: 1;" transform="translate(1000.2,0)">7000</text></g></g><g class="yaxislayer-above"><g class="ytick"><text text-anchor="end" x="131" y="3.15" transform="translate(0,71.05)" style="font-family: 'Lucida Grande', 'Open Sans', verdana, arial, sans-serif; font-size: 9px; fill: rgb(0, 0, 0); fill-opacity: 0.5; white-space: pre; opacity: 1;">#MS1 Spectra  </text></g></g><g class="overaxes-above"/></g><g class="subplot x2y2"><g class="layer-subplot"><g class="shapelayer"/><g class="imagelayer"/></g><g class="minor-gridlayer"><g class="x2"/><g class="y2"/></g><g class="gridlayer"><g class="x2"><path class="x2grid crisp" transform="translate(246.8,0)" d="M0,120.17857142857144v42.10714285714284" style="stroke: rgb(0, 0, 0); stroke-opacity: 0.1; stroke-width: 1px;"/><path class="x2grid crisp" transform="translate(356.88,0)" d="M0,120.17857142857144v42.10714285714284" style="stroke: rgb(0, 0, 0); stroke-opacity: 0.1; stroke-width: 1px;"/><path class="x2grid crisp" transform="translate(466.97,0)" d="M0,120.17857142857144v42.10714285714284" style="stroke: rgb(0, 0, 0); stroke-opacity: 0.1; stroke-width: 1px;"/><path class="x2grid crisp" transform="translate(577.05,0)" d="M0,120.17857142857144v42.10714285714284" style="stroke: rgb(0, 0, 0); stroke-opacity: 0.1; stroke-width: 1px;"/><path class="x2grid crisp" transform="translate(687.13,0)" d="M0,120.17857142857144v42.10714285714284" style="stroke: rgb(0, 0, 0); stroke-opacity: 0.1; stroke-width: 1px;"/><path class="x2grid crisp" transform="translate(797.21,0)" d="M0,120.17857142857144v42.10714285714284" style="stroke: rgb(0, 0, 0); stroke-opacity: 0.1; stroke-width: 1px;"/><path class="x2grid crisp" transform="translate(907.3,0)" d="M0,120.17857142857144v42.10714285714284" style="stroke: rgb(0, 0, 0); stroke-opacity: 0.1; stroke-width: 1px;"/><path class="x2grid crisp" transform="translate(1017.38,0)" d="M0,120.17857142857144v42.10714285714284" style="stroke: rgb(0, 0, 0); stroke-opacity: 0.1; stroke-width: 1px;"/></g><g class="y2"><path class="y2grid crisp" transform="translate(0,141.22857142857146)" d="M132,0h953" style="stroke: rgb(0, 0, 0); stroke-opacity: 0.1; stroke-width: 1px;"/></g></g><g class="zerolinelayer"><path class="x2zl zl crisp" transform="translate(136.72,0)" d="M0,120.17857142857144v42.10714285714284" style="stroke: rgb(0, 0, 0); stroke-opacity: 0.1; stroke-width: 2px;"/></g><g class="layer-between"><g class="shapelayer"/><g class="imagelayer"/></g><path class="xlines-below"/><path class="ylines-below"/><g class="overlines-below"/><g class="xaxislayer-below"/><g class="yaxislayer-below"/><g class="overaxes-below"/><g class="overplot"><g class="x2y2" transform="translate(132,120.17857142857144)" clip-path="url(#clip52c2d1x2y2plot)"><g class="violinlayer mlayer"><g class="trace violins" style="opacity: 0.5;"><path class="violin" d="M742.91,20.54Q749.49,20.26 752.78,20.03C756.07,19.8 759.37,19.53 762.66,19.18C765.95,18.83 769.25,18.41 772.53,17.91C775.83,17.41 779.12,16.82 782.4,16.19C785.7,15.55 788.98,14.82 792.27,14.1C795.56,13.38 798.85,12.58 802.14,11.86C805.43,11.14 808.71,10.39 812.01,9.79C815.29,9.19 818.58,8.64 821.88,8.24C825.16,7.84 828.46,7.56 831.75,7.4C835.04,7.24 838.33,7.24 841.62,7.25C844.91,7.26 848.2,7.4 851.49,7.47C854.78,7.54 858.07,7.67 861.36,7.69C864.65,7.71 867.94,7.67 871.23,7.58C874.52,7.49 877.81,7.3 881.1,7.13C884.39,6.96 887.68,6.71 890.97,6.57C894.26,6.44 897.55,6.3 900.84,6.32C904.13,6.34 907.42,6.45 910.71,6.7C914,6.95 917.3,7.35 920.58,7.83C923.88,8.31 927.17,8.95 930.45,9.59C933.75,10.23 937.03,10.98 940.32,11.69C943.61,12.4 946.9,13.15 950.19,13.83C953.48,14.51 956.77,15.18 960.06,15.78C963.35,16.38 966.63,16.93 969.93,17.42C973.22,17.9 976.51,18.32 979.81,18.69C983.1,19.06 986.39,19.36 989.68,19.62C992.97,19.88 996.26,20.07 999.55,20.24Q1002.84,20.41 1009.42,20.63L1009.42,21.48Q1002.84,21.7 999.55,21.87C996.26,22.04 992.97,22.23 989.68,22.49C986.39,22.75 983.1,23.05 979.81,23.42C976.51,23.79 973.22,24.21 969.93,24.69C966.63,25.18 963.35,25.73 960.06,26.33C956.77,26.93 953.48,27.6 950.19,28.28C946.9,28.96 943.61,29.71 940.32,30.42C937.03,31.13 933.75,31.88 930.45,32.52C927.17,33.16 923.88,33.79 920.58,34.27C917.3,34.75 914,35.16 910.71,35.41C907.42,35.66 904.13,35.77 900.84,35.79C897.55,35.81 894.26,35.67 890.97,35.54C887.68,35.4 884.39,35.15 881.1,34.98C877.81,34.81 874.52,34.61 871.23,34.52C867.94,34.43 864.65,34.4 861.36,34.42C858.07,34.44 854.78,34.56 851.49,34.63C848.2,34.7 844.91,34.85 841.62,34.86C838.33,34.87 835.04,34.86 831.75,34.7C828.46,34.54 825.16,34.27 821.88,33.87C818.58,33.47 815.29,32.92 812.01,32.32C808.71,31.72 805.43,30.97 802.14,30.25C798.85,29.53 795.56,28.73 792.27,28.01C788.98,27.29 785.7,26.56 782.4,25.92C779.12,25.28 775.83,24.69 772.53,24.19C769.25,23.69 765.95,23.27 762.66,22.92C759.37,22.57 756.07,22.31 752.78,22.08Q749.49,21.86 742.91,21.57Z" style="vector-effect: none; stroke-width: 2px; stroke: rgb(181, 181, 181); stroke-opacity: 1; fill: rgb(181, 181, 181); fill-opacity: 1;"/><path class="box" d="M885.31,24.74V17.37M832.22,24.74V17.37H907.63V24.74ZM832.22,21.05H804.07M907.63,21.05H948.26" style="vector-effect: non-scaling-stroke; stroke-width: 2px; stroke: rgb(181, 181, 181); stroke-opacity: 1; fill: rgb(181, 181, 181); fill-opacity: 1;"/><path class="mean" d="M873.04,24.74V17.37" style="fill: none; vector-effect: non-scaling-stroke; stroke-width: 2px; stroke-dasharray: 4px, 2px; stroke: rgb(181, 181, 181); stroke-opacity: 1;"/></g></g><g class="scatterlayer mlayer"><g class="trace scatter tracec7310d" style="stroke-miterlimit: 2; opacity: 1;"><g class="fills"/><g class="errorbars"/><g class="lines"/><g class="points"><path class="point" transform="translate(826.6,21.05)" d="M2,0A2,2 0 1,1 0,-2A2,2 0 0,1 2,0Z" style="opacity: 1; stroke-width: 0px; fill: rgb(11, 121, 230); fill-opacity: 1;"/></g><g class="text"/></g><g class="trace scatter tracec5f884" style="stroke-miterlimit: 2; opacity: 1;"><g class="fills"/><g class="errorbars"/><g class="lines"/><g class="points"><path class="point" transform="translate(831.13,21.05)" d="M2,0A2,2 0 1,1 0,-2A2,2 0 0,1 2,0Z" style="opacity: 1; stroke-width: 0px; fill: rgb(11, 121, 230); fill-opacity: 1;"/></g><g class="text"/></g><g class="trace scatter tracedc795d" style="stroke-miterlimit: 2; opacity: 1;"><g class="fills"/><g class="errorbars"/><g class="lines"/><g class="points"><path class="point" transform="translate(842.38,21.05)" d="M2,0A2,2 0 1,1 0,-2A2,2 0 0,1 2,0Z" style="opacity: 1; stroke-width: 0px; fill: rgb(11, 121, 230); fill-opacity: 1;"/></g><g class="text"/></g><g class="trace scatter trace7c0d99" style="stroke-miterlimit: 2; opacity: 1;"><g class="fills"/><g class="errorbars"/><g class="lines"/><g class="points"><path class="point" transform="translate(835.47,21.05)" d="M2,0A2,2 0 1,1 0,-2A2,2 0 0,1 2,0Z" style="opacity: 1; stroke-width: 0px; fill: rgb(11, 121, 230); fill-opacity: 1;"/></g><g class="text"/></g><g class="trace scatter trace771c73" style="stroke-miterlimit: 2; opacity: 1;"><g class="fills"/><g class="errorbars"/><g class="lines"/><g class="points"><path class="point" transform="translate(917.19,21.05)" d="M2,0A2,2 0 1,1 0,-2A2,2 0 0,1 2,0Z" style="opacity: 1; stroke-width: 0px; fill: rgb(11, 121, 230); fill-opacity: 1;"/></g><g class="text"/></g><g class="trace scatter trace841595" style="stroke-miterlimit: 2; opacity: 1;"><g class="fills"/><g class="errorbars"/><g class="lines"/><g class="points"><path class="point" transform="translate(948.26,21.05)" d="M2,0A2,2 0 1,1 0,-2A2,2 0 0,1 2,0Z" style="opacity: 1; stroke-width: 0px; fill: rgb(11, 121, 230); fill-opacity: 1;"/></g><g class="text"/></g><g class="trace scatter trace8001e7" style="stroke-miterlimit: 2; opacity: 1;"><g class="fills"/><g class="errorbars"/><g class="lines"/><g class="points"><path class="point" transform="translate(903.19,21.05)" d="M2,0A2,2 0 1,1 0,-2A2,2 0 0,1 2,0Z" style="opacity: 1; stroke-width: 0px; fill: rgb(11, 121, 230); fill-opacity: 1;"/></g><g class="text"/></g><g class="trace scatter tracec49b62" style="stroke-miterlimit: 2; opacity: 1;"><g class="fills"/><g class="errorbars"/><g class="lines"/><g class="points"><path class="point" transform="translate(900.75,21.05)" d="M2,0A2,2 0 1,1 0,-2A2,2 0 0,1 2,0Z" style="opacity: 1; stroke-width: 0px; fill: rgb(11, 121, 230); fill-opacity: 1;"/></g><g class="text"/></g><g class="trace scatter tracef4184b" style="stroke-miterlimit: 2; opacity: 1;"><g class="fills"/><g class="errorbars"/><g class="lines"/><g class="points"><path class="point" transform="translate(909.11,21.05)" d="M2,0A2,2 0 1,1 0,-2A2,2 0 0,1 2,0Z" style="opacity: 1; stroke-width: 0px; fill: rgb(11, 121, 230); fill-opacity: 1;"/></g><g class="text"/></g><g class="trace scatter traced6fb8c" style="stroke-miterlimit: 2; opacity: 1;"><g class="fills"/><g class="errorbars"/><g class="lines"/><g class="points"><path class="point" transform="translate(885.31,21.05)" d="M2,0A2,2 0 1,1 0,-2A2,2 0 0,1 2,0Z" style="opacity: 1; stroke-width: 0px; fill: rgb(11, 121, 230); fill-opacity: 1;"/></g><g class="text"/></g><g class="trace scatter trace3f25d8" style="stroke-miterlimit: 2; opacity: 1;"><g class="fills"/><g class="errorbars"/><g class="lines"/><g class="points"><path class="point" transform="translate(804.07,21.05)" d="M2,0A2,2 0 1,1 0,-2A2,2 0 0,1 2,0Z" style="opacity: 1; stroke-width: 0px; fill: rgb(11, 121, 230); fill-opacity: 1;"/></g><g class="text"/></g></g></g></g><path class="xlines-above crisp" d="M0,0" style="fill: none;"/><path class="ylines-above crisp" d="M0,0" style="fill: none;"/><g class="overlines-above"/><g class="xaxislayer-above"><g class="x2tick"><text text-anchor="middle" x="0" y="172.28571428571428" transform="translate(136.72,0)" style="font-family: 'Lucida Grande', 'Open Sans', verdana, arial, sans-serif; font-size: 9px; fill: rgb(0, 0, 0); fill-opacity: 0.5; white-space: pre; opacity: 1;">0</text></g><g class="x2tick"><text text-anchor="middle" x="0" y="172.28571428571428" style="font-family: 'Lucida Grande', 'Open Sans', verdana, arial, sans-serif; font-size: 9px; fill: rgb(0, 0, 0); fill-opacity: 0.5; white-space: pre; opacity: 1;" transform="translate(246.8,0)">5k</text></g><g class="x2tick"><text text-anchor="middle" x="0" y="172.28571428571428" style="font-family: 'Lucida Grande', 'Open Sans', verdana, arial, sans-serif; font-size: 9px; fill: rgb(0, 0, 0); fill-opacity: 0.5; white-space: pre; opacity: 1;" transform="translate(356.88,0)">10k</text></g><g class="x2tick"><text text-anchor="middle" x="0" y="172.28571428571428" style="font-family: 'Lucida Grande', 'Open Sans', verdana, arial, sans-serif; font-size: 9px; fill: rgb(0, 0, 0); fill-opacity: 0.5; white-space: pre; opacity: 1;" transform="translate(466.97,0)">15k</text></g><g class="x2tick"><text text-anchor="middle" x="0" y="172.28571428571428" style="font-family: 'Lucida Grande', 'Open Sans', verdana, arial, sans-serif; font-size: 9px; fill: rgb(0, 0, 0); fill-opacity: 0.5; white-space: pre; opacity: 1;" transform="translate(577.05,0)">20k</text></g><g class="x2tick"><text text-anchor="middle" x="0" y="172.28571428571428" style="font-family: 'Lucida Grande', 'Open Sans', verdana, arial, sans-serif; font-size: 9px; fill: rgb(0, 0, 0); fill-opacity: 0.5; white-space: pre; opacity: 1;" transform="translate(687.13,0)">25k</text></g><g class="x2tick"><text text-anchor="middle" x="0" y="172.28571428571428" style="font-family: 'Lucida Grande', 'Open Sans', verdana, arial, sans-serif; font-size: 9px; fill: rgb(0, 0, 0); fill-opacity: 0.5; white-space: pre; opacity: 1;" transform="translate(797.21,0)">30k</text></g><g class="x2tick"><text text-anchor="middle" x="0" y="172.28571428571428" style="font-family: 'Lucida Grande', 'Open Sans', verdana, arial, sans-serif; font-size: 9px; fill: rgb(0, 0, 0); fill-opacity: 0.5; white-space: pre; opacity: 1;" transform="translate(907.3,0)">35k</text></g><g class="x2tick"><text text-anchor="middle" x="0" y="172.28571428571428" style="font-family: 'Lucida Grande', 'Open Sans', verdana, arial, sans-serif; font-size: 9px; fill: rgb(0, 0, 0); fill-opacity: 0.5; white-space: pre; opacity: 1;" transform="translate(1017.38,0)">40k</text></g></g><g class="yaxislayer-above"><g class="y2tick"><text text-anchor="end" x="131" y="3.15" transform="translate(0,141.22857142857146)" style="font-family: 'Lucida Grande', 'Open Sans', verdana, arial, sans-serif; font-size: 9px; fill: rgb(0, 0, 0); fill-opacity: 0.5; white-space: pre; opacity: 1;">#MS2 Spectra  </text></g></g><g class="overaxes-above"/></g><g class="subplot x3y3"><g class="layer-subplot"><g class="shapelayer"/><g class="imagelayer"/></g><g class="minor-gridlayer"><g class="x3"/><g class="y3"/></g><g class="gridlayer"><g class="x3"><path class="x3grid crisp" transform="translate(296.81,0)" d="M0,190.3571428571429v42.10714285714284" style="stroke: rgb(0, 0, 0); stroke-opacity: 0.1; stroke-width: 1px;"/><path class="x3grid crisp" transform="translate(456.9,0)" d="M0,190.3571428571429v42.10714285714284" style="stroke: rgb(0, 0, 0); stroke-opacity: 0.1; stroke-width: 1px;"/><path class="x3grid crisp" transform="translate(616.99,0)" d="M0,190.3571428571429v42.10714285714284" style="stroke: rgb(0, 0, 0); stroke-opacity: 0.1; stroke-width: 1px;"/><path class="x3grid crisp" transform="translate(777.08,0)" d="M0,190.3571428571429v42.10714285714284" style="stroke: rgb(0, 0, 0); stroke-opacity: 0.1; stroke-width: 1px;"/><path class="x3grid crisp" transform="translate(937.17,0)" d="M0,190.3571428571429v42.10714285714284" style="stroke: rgb(0, 0, 0); stroke-opacity: 0.1; stroke-width: 1px;"/></g><g class="y3"><path class="y3grid crisp" transform="translate(0,211.4071428571429)" d="M132,0h953" style="stroke: rgb(0, 0, 0); stroke-opacity: 0.1; stroke-width: 1px;"/></g></g><g class="zerolinelayer"><path class="x3zl zl crisp" transform="translate(136.72,0)" d="M0,190.3571428571429v42.10714285714284" style="stroke: rgb(0, 0, 0); stroke-opacity: 0.1; stroke-width: 2px;"/></g><g class="layer-between"><g class="shapelayer"/><g class="imagelayer"/></g><path class="xlines-below"/><path class="ylines-below"/><g class="overlines-below"/><g class="xaxislayer-below"/><g class="yaxislayer-below"/><g class="overaxes-below"/><g class="overplot"><g class="x3y3" transform="translate(132,190.3571428571429)" clip-path="url(#clip52c2d1x3y3plot)"><g class="violinlayer mlayer"><g class="trace violins" style="opacity: 0.5;"><path class="violin" d="M503.22,20.7Q510.83,20.52 514.64,20.4C518.45,20.28 522.26,20.13 526.07,19.97C529.88,19.81 533.68,19.63 537.49,19.46C541.3,19.29 545.11,19.1 548.92,18.95C552.73,18.8 556.53,18.65 560.34,18.56C564.15,18.47 567.96,18.41 571.77,18.41C575.58,18.41 579.38,18.45 583.19,18.53C587,18.61 590.81,18.75 594.62,18.9C598.43,19.05 602.23,19.24 606.04,19.41C609.85,19.58 613.66,19.77 617.47,19.93C621.28,20.09 625.08,20.24 628.89,20.36C632.7,20.48 636.51,20.59 640.32,20.67C644.13,20.75 647.93,20.81 651.74,20.86C655.55,20.91 659.36,20.94 663.17,20.96C666.98,20.98 670.78,21 674.59,21C678.4,21 682.21,20.99 686.02,20.97C689.83,20.95 693.63,20.92 697.44,20.86C701.25,20.8 705.06,20.73 708.87,20.6C712.68,20.47 716.48,20.32 720.29,20.08C724.1,19.84 727.91,19.56 731.72,19.18C735.53,18.8 739.34,18.34 743.14,17.8C746.95,17.26 750.77,16.6 754.57,15.92C758.38,15.23 762.18,14.44 765.99,13.69C769.8,12.94 773.61,12.12 777.42,11.4C781.22,10.68 785.03,9.97 788.84,9.39C792.64,8.81 796.46,8.3 800.27,7.9C804.07,7.5 807.88,7.21 811.69,6.97C815.5,6.74 819.31,6.6 823.12,6.49C826.93,6.38 830.73,6.34 834.54,6.32C838.35,6.3 842.16,6.31 845.97,6.39C849.78,6.47 853.58,6.6 857.39,6.81C861.2,7.03 865.01,7.31 868.82,7.68C872.63,8.05 876.44,8.53 880.24,9.04C884.05,9.55 887.86,10.16 891.67,10.74C895.48,11.32 899.28,11.97 903.09,12.54C906.9,13.11 910.71,13.67 914.52,14.16C918.32,14.65 922.13,15.08 925.94,15.47C929.75,15.85 933.56,16.17 937.37,16.47C941.18,16.77 944.98,17.02 948.79,17.27C952.6,17.52 956.41,17.75 960.22,17.99C964.03,18.23 967.83,18.46 971.64,18.69C975.45,18.92 979.26,19.14 983.07,19.35C986.88,19.56 990.68,19.76 994.49,19.93C998.3,20.1 1002.11,20.25 1005.92,20.38Q1009.73,20.51 1017.34,20.69L1017.34,21.42Q1009.73,21.6 1005.92,21.73C1002.11,21.86 998.3,22.01 994.49,22.18C990.68,22.35 986.88,22.55 983.07,22.76C979.26,22.97 975.45,23.19 971.64,23.42C967.83,23.65 964.03,23.89 960.22,24.12C956.41,24.36 952.6,24.58 948.79,24.83C944.98,25.08 941.18,25.33 937.37,25.63C933.56,25.93 929.75,26.26 925.94,26.64C922.13,27.03 918.32,27.45 914.52,27.94C910.71,28.43 906.9,29 903.09,29.57C899.28,30.14 895.48,30.78 891.67,31.36C887.86,31.94 884.05,32.56 880.24,33.07C876.44,33.58 872.63,34.06 868.82,34.43C865.01,34.8 861.2,35.09 857.39,35.3C853.58,35.51 849.78,35.63 845.97,35.71C842.16,35.79 838.35,35.81 834.54,35.79C830.73,35.77 826.93,35.72 823.12,35.61C819.31,35.5 815.5,35.37 811.69,35.14C807.88,34.91 804.07,34.61 800.27,34.21C796.46,33.81 792.64,33.3 788.84,32.72C785.03,32.13 781.22,31.42 777.42,30.7C773.61,29.98 769.8,29.17 765.99,28.42C762.18,27.67 758.38,26.88 754.57,26.19C750.77,25.51 746.95,24.86 743.14,24.31C739.34,23.77 735.53,23.3 731.72,22.92C727.91,22.54 724.1,22.26 720.29,22.02C716.48,21.79 712.68,21.64 708.87,21.51C705.06,21.38 701.25,21.31 697.44,21.25C693.63,21.19 689.83,21.16 686.02,21.14C682.21,21.12 678.4,21.11 674.59,21.11C670.78,21.11 666.98,21.12 663.17,21.14C659.36,21.16 655.55,21.19 651.74,21.24C647.93,21.29 644.13,21.36 640.32,21.44C636.51,21.53 632.7,21.63 628.89,21.75C625.08,21.87 621.28,22.02 617.47,22.18C613.66,22.34 609.85,22.53 606.04,22.7C602.23,22.87 598.43,23.06 594.62,23.2C590.81,23.35 587,23.49 583.19,23.57C579.38,23.65 575.58,23.7 571.77,23.7C567.96,23.7 564.15,23.64 560.34,23.55C556.53,23.46 552.73,23.31 548.92,23.16C545.11,23.01 541.3,22.82 537.49,22.65C533.68,22.48 529.88,22.29 526.07,22.13C522.26,21.97 518.45,21.83 514.64,21.71Q510.83,21.59 503.22,21.41Z" style="vector-effect: none; stroke-width: 2px; stroke: rgb(181, 181, 181); stroke-opacity: 1; fill: rgb(181, 181, 181); fill-opacity: 1;"/><path class="box" d="M844.49,24.74V17.37M797.59,24.74V17.37H868.67V24.74ZM797.59,21.05H785.99M868.67,21.05H948.26" style="vector-effect: non-scaling-stroke; stroke-width: 2px; stroke: rgb(181, 181, 181); stroke-opacity: 1; fill: rgb(181, 181, 181); fill-opacity: 1;"/><path class="mean" d="M821.49,24.74V17.37" style="fill: none; vector-effect: non-scaling-stroke; stroke-width: 2px; stroke-dasharray: 4px, 2px; stroke: rgb(181, 181, 181); stroke-opacity: 1;"/></g></g><g class="scatterlayer mlayer"><g class="trace scatter tracec88258" style="stroke-miterlimit: 2; opacity: 1;"><g class="fills"/><g class="errorbars"/><g class="lines"/><g class="points"><path class="point" transform="translate(785.99,21.05)" d="M2,0A2,2 0 1,1 0,-2A2,2 0 0,1 2,0Z" style="opacity: 1; stroke-width: 0px; fill: rgb(11, 121, 230); fill-opacity: 1;"/></g><g class="text"/></g><g class="trace scatter trace76e54f" style="stroke-miterlimit: 2; opacity: 1;"><g class="fills"/><g class="errorbars"/><g class="lines"/><g class="points"><path class="point" transform="translate(802.61,21.05)" d="M2,0A2,2 0 1,1 0,-2A2,2 0 0,1 2,0Z" style="opacity: 1; stroke-width: 0px; fill: rgb(11, 121, 230); fill-opacity: 1;"/></g><g class="text"/></g><g class="trace scatter trace9f5a5f" style="stroke-miterlimit: 2; opacity: 1;"><g class="fills"/><g class="errorbars"/><g class="lines"/><g class="points"><path class="point" transform="translate(795.92,21.05)" d="M2,0A2,2 0 1,1 0,-2A2,2 0 0,1 2,0Z" style="opacity: 1; stroke-width: 0px; fill: rgb(11, 121, 230); fill-opacity: 1;"/></g><g class="text"/></g><g class="trace scatter tracef512fd" style="stroke-miterlimit: 2; opacity: 1;"><g class="fills"/><g class="errorbars"/><g class="lines"/><g class="points"><path class="point" transform="translate(804.72,21.05)" d="M2,0A2,2 0 1,1 0,-2A2,2 0 0,1 2,0Z" style="opacity: 1; stroke-width: 0px; fill: rgb(11, 121, 230); fill-opacity: 1;"/></g><g class="text"/></g><g class="trace scatter trace4e65b0" style="stroke-miterlimit: 2; opacity: 1;"><g class="fills"/><g class="errorbars"/><g class="lines"/><g class="points"><path class="point" transform="translate(867.83,21.05)" d="M2,0A2,2 0 1,1 0,-2A2,2 0 0,1 2,0Z" style="opacity: 1; stroke-width: 0px; fill: rgb(11, 121, 230); fill-opacity: 1;"/></g><g class="text"/></g><g class="trace scatter trace3711b9" style="stroke-miterlimit: 2; opacity: 1;"><g class="fills"/><g class="errorbars"/><g class="lines"/><g class="points"><path class="point" transform="translate(948.26,21.05)" d="M2,0A2,2 0 1,1 0,-2A2,2 0 0,1 2,0Z" style="opacity: 1; stroke-width: 0px; fill: rgb(11, 121, 230); fill-opacity: 1;"/></g><g class="text"/></g><g class="trace scatter trace8b8c44" style="stroke-miterlimit: 2; opacity: 1;"><g class="fills"/><g class="errorbars"/><g class="lines"/><g class="points"><path class="point" transform="translate(892.26,21.05)" d="M2,0A2,2 0 1,1 0,-2A2,2 0 0,1 2,0Z" style="opacity: 1; stroke-width: 0px; fill: rgb(11, 121, 230); fill-opacity: 1;"/></g><g class="text"/></g><g class="trace scatter traceb036cf" style="stroke-miterlimit: 2; opacity: 1;"><g class="fills"/><g class="errorbars"/><g class="lines"/><g class="points"><path class="point" transform="translate(853.04,21.05)" d="M2,0A2,2 0 1,1 0,-2A2,2 0 0,1 2,0Z" style="opacity: 1; stroke-width: 0px; fill: rgb(11, 121, 230); fill-opacity: 1;"/></g><g class="text"/></g><g class="trace scatter traced987f6" style="stroke-miterlimit: 2; opacity: 1;"><g class="fills"/><g class="errorbars"/><g class="lines"/><g class="points"><path class="point" transform="translate(868.95,21.05)" d="M2,0A2,2 0 1,1 0,-2A2,2 0 0,1 2,0Z" style="opacity: 1; stroke-width: 0px; fill: rgb(11, 121, 230); fill-opacity: 1;"/></g><g class="text"/></g><g class="trace scatter trace23928c" style="stroke-miterlimit: 2; opacity: 1;"><g class="fills"/><g class="errorbars"/><g class="lines"/><g class="points"><path class="point" transform="translate(844.49,21.05)" d="M2,0A2,2 0 1,1 0,-2A2,2 0 0,1 2,0Z" style="opacity: 1; stroke-width: 0px; fill: rgb(11, 121, 230); fill-opacity: 1;"/></g><g class="text"/></g><g class="trace scatter trace989746" style="stroke-miterlimit: 2; opacity: 1;"><g class="fills"/><g class="errorbars"/><g class="lines"/><g class="points"><path class="point" transform="translate(572.3,21.05)" d="M2,0A2,2 0 1,1 0,-2A2,2 0 0,1 2,0Z" style="opacity: 1; stroke-width: 0px; fill: rgb(11, 121, 230); fill-opacity: 1;"/></g><g class="text"/></g></g></g></g><path class="xlines-above crisp" d="M0,0" style="fill: none;"/><path class="ylines-above crisp" d="M0,0" style="fill: none;"/><g class="overlines-above"/><g class="xaxislayer-above"><g class="x3tick"><text text-anchor="middle" x="0" y="242.46428571428572" transform="translate(136.72,0)" style="font-family: 'Lucida Grande', 'Open Sans', verdana, arial, sans-serif; font-size: 9px; fill: rgb(0, 0, 0); fill-opacity: 0.5; white-space: pre; opacity: 1;">0</text></g><g class="x3tick"><text text-anchor="middle" x="0" y="242.46428571428572" style="font-family: 'Lucida Grande', 'Open Sans', verdana, arial, sans-serif; font-size: 9px; fill: rgb(0, 0, 0); fill-opacity: 0.5; white-space: pre; opacity: 1;" transform="translate(296.81,0)">5k</text></g><g class="x3tick"><text text-anchor="middle" x="0" y="242.46428571428572" style="font-family: 'Lucida Grande', 'Open Sans', verdana, arial, sans-serif; font-size: 9px; fill: rgb(0, 0, 0); fill-opacity: 0.5; white-space: pre; opacity: 1;" transform="translate(456.9,0)">10k</text></g><g class="x3tick"><text text-anchor="middle" x="0" y="242.46428571428572" style="font-family: 'Lucida Grande', 'Open Sans', verdana, arial, sans-serif; font-size: 9px; fill: rgb(0, 0, 0); fill-opacity: 0.5; white-space: pre; opacity: 1;" transform="translate(616.99,0)">15k</text></g><g class="x3tick"><text text-anchor="middle" x="0" y="242.46428571428572" style="font-family: 'Lucida Grande', 'Open Sans', verdana, arial, sans-serif; font-size: 9px; fill: rgb(0, 0, 0); fill-opacity: 0.5; white-space: pre; opacity: 1;" transform="translate(777.08,0)">20k</text></g><g class="x3tick"><text text-anchor="middle" x="0" y="242.46428571428572" style="font-family: 'Lucida Grande', 'Open Sans', verdana, arial, sans-serif; font-size: 9px; fill: rgb(0, 0, 0); fill-opacity: 0.5; white-space: pre; opacity: 1;" transform="translate(937.17,0)">25k</text></g></g><g class="yaxislayer-above"><g class="y3tick"><text text-anchor="end" x="131" y="3.15" transform="translate(0,211.4071428571429)" style="font-family: 'Lucida Grande', 'Open Sans', verdana, arial, sans-serif; font-size: 9px; fill: rgb(0, 0, 0); fill-opacity: 0.5; white-space: pre; opacity: 1;">MSGF  </text></g></g><g class="overaxes-above"/></g><g class="subplot x4y4"><g class="layer-subplot"><g class="shapelayer"/><g class="imagelayer"/></g><g class="minor-gridlayer"><g class="x4"/><g class="y4"/></g><g class="gridlayer"><g class="x4"><path class="x4grid crisp" transform="translate(298.15999999999997,0)" d="M0,260.5357142857143v42.10714285714286" style="stroke: rgb(0, 0, 0); stroke-opacity: 0.1; stroke-width: 1px;"/><path class="x4grid crisp" transform="translate(459.6,0)" d="M0,260.5357142857143v42.10714285714286" style="stroke: rgb(0, 0, 0); stroke-opacity: 0.1; stroke-width: 1px;"/><path class="x4grid crisp" transform="translate(621.05,0)" d="M0,260.5357142857143v42.10714285714286" style="stroke: rgb(0, 0, 0); stroke-opacity: 0.1; stroke-width: 1px;"/><path class="x4grid crisp" transform="translate(782.49,0)" d="M0,260.5357142857143v42.10714285714286" style="stroke: rgb(0, 0, 0); stroke-opacity: 0.1; stroke-width: 1px;"/><path class="x4grid crisp" transform="translate(943.94,0)" d="M0,260.5357142857143v42.10714285714286" style="stroke: rgb(0, 0, 0); stroke-opacity: 0.1; stroke-width: 1px;"/></g><g class="y4"><path class="y4grid crisp" transform="translate(0,281.5857142857143)" d="M132,0h953" style="stroke: rgb(0, 0, 0); stroke-opacity: 0.1; stroke-width: 1px;"/></g></g><g class="zerolinelayer"><path class="x4zl zl crisp" transform="translate(136.72,0)" d="M0,260.5357142857143v42.10714285714286" style="stroke: rgb(0, 0, 0); stroke-opacity: 0.1; stroke-width: 2px;"/></g><g class="layer-between"><g class="shapelayer"/><g class="imagelayer"/></g><path class="xlines-below"/><path class="ylines-below"/><g class="overlines-below"/><g class="xaxislayer-below"/><g class="yaxislayer-below"/><g class="overaxes-below"/><g class="overplot"><g class="x4y4" transform="translate(132,260.5357142857143)" clip-path="url(#clip52c2d1x4y4plot)"><g class="violinlayer mlayer"><g class="trace violins" style="opacity: 0.5;"><path class="violin" d="M505.4,20.7Q512.98,20.53 516.77,20.41C520.56,20.29 524.35,20.15 528.14,19.99C531.93,19.84 535.71,19.65 539.5,19.48C543.29,19.31 547.08,19.13 550.87,18.98C554.66,18.83 558.45,18.69 562.24,18.6C566.03,18.51 569.82,18.44 573.61,18.44C577.4,18.44 581.19,18.49 584.98,18.57C588.77,18.65 592.55,18.8 596.34,18.94C600.13,19.09 603.92,19.27 607.71,19.44C611.5,19.61 615.29,19.79 619.08,19.95C622.87,20.1 626.66,20.25 630.45,20.37C634.24,20.49 638.03,20.6 641.82,20.68C645.61,20.76 649.39,20.82 653.18,20.87C656.97,20.92 660.76,20.94 664.55,20.96C668.34,20.98 672.13,20.99 675.92,20.99C679.71,20.99 683.5,20.99 687.29,20.96C691.08,20.93 694.86,20.9 698.65,20.83C702.44,20.76 706.23,20.68 710.02,20.54C713.81,20.4 717.6,20.24 721.39,19.99C725.18,19.74 728.97,19.45 732.76,19.05C736.55,18.65 740.35,18.17 744.13,17.61C747.92,17.05 751.71,16.38 755.49,15.68C759.28,14.98 763.07,14.18 766.86,13.42C770.65,12.66 774.44,11.83 778.23,11.1C782.02,10.37 785.8,9.65 789.6,9.06C793.38,8.47 797.18,7.96 800.97,7.56C804.75,7.16 808.54,6.88 812.33,6.67C816.12,6.46 819.91,6.37 823.7,6.32C827.49,6.27 831.28,6.29 835.07,6.36C838.86,6.43 842.65,6.55 846.44,6.72C850.23,6.89 854.01,7.11 857.8,7.4C861.59,7.69 865.38,8.05 869.17,8.46C872.96,8.87 876.75,9.37 880.54,9.88C884.33,10.39 888.12,10.98 891.91,11.53C895.7,12.08 899.49,12.67 903.28,13.2C907.07,13.72 910.85,14.24 914.64,14.68C918.43,15.12 922.22,15.51 926.01,15.85C929.8,16.19 933.59,16.47 937.38,16.74C941.17,17.01 944.96,17.22 948.75,17.45C952.54,17.68 956.33,17.88 960.12,18.1C963.91,18.32 967.69,18.55 971.48,18.76C975.27,18.98 979.06,19.19 982.85,19.39C986.64,19.59 990.43,19.78 994.22,19.95C998.01,20.12 1001.8,20.26 1005.59,20.39Q1009.38,20.51 1016.95,20.7L1016.95,21.41Q1009.38,21.59 1005.59,21.71C1001.8,21.83 998.01,21.98 994.22,22.15C990.43,22.32 986.64,22.52 982.85,22.72C979.06,22.92 975.27,23.13 971.48,23.35C967.69,23.56 963.91,23.79 960.12,24.01C956.33,24.23 952.54,24.43 948.75,24.66C944.96,24.89 941.17,25.1 937.38,25.37C933.59,25.64 929.8,25.92 926.01,26.26C922.22,26.6 918.43,26.99 914.64,27.43C910.85,27.87 907.07,28.38 903.28,28.9C899.49,29.43 895.7,30.02 891.91,30.58C888.12,31.13 884.33,31.72 880.54,32.23C876.75,32.74 872.96,33.24 869.17,33.65C865.38,34.06 861.59,34.42 857.8,34.71C854.01,35 850.23,35.22 846.44,35.39C842.65,35.56 838.86,35.68 835.07,35.75C831.28,35.82 827.49,35.84 823.7,35.79C819.91,35.74 816.12,35.65 812.33,35.44C808.54,35.23 804.75,34.95 800.97,34.55C797.18,34.15 793.38,33.64 789.6,33.05C785.8,32.46 782.02,31.74 778.23,31.01C774.44,30.28 770.65,29.46 766.86,28.69C763.07,27.93 759.28,27.12 755.49,26.42C751.71,25.72 747.92,25.06 744.13,24.5C740.35,23.94 736.55,23.46 732.76,23.06C728.97,22.66 725.18,22.36 721.39,22.11C717.6,21.86 713.81,21.7 710.02,21.56C706.23,21.42 702.44,21.35 698.65,21.28C694.86,21.21 691.08,21.18 687.29,21.15C683.5,21.12 679.71,21.12 675.92,21.12C672.13,21.12 668.34,21.12 664.55,21.14C660.76,21.16 656.97,21.19 653.18,21.24C649.39,21.29 645.61,21.35 641.82,21.43C638.03,21.51 634.24,21.61 630.45,21.73C626.66,21.85 622.87,22 619.08,22.16C615.29,22.32 611.5,22.5 607.71,22.67C603.92,22.84 600.13,23.03 596.34,23.17C592.55,23.31 588.77,23.45 584.98,23.53C581.19,23.61 577.4,23.66 573.61,23.66C569.82,23.66 566.03,23.6 562.24,23.51C558.45,23.42 554.66,23.28 550.87,23.13C547.08,22.98 543.29,22.79 539.5,22.62C535.71,22.45 531.93,22.27 528.14,22.12C524.35,21.97 520.56,21.82 516.77,21.7Q512.98,21.58 505.4,21.41Z" style="vector-effect: none; stroke-width: 2px; stroke: rgb(181, 181, 181); stroke-opacity: 1; fill: rgb(181, 181, 181); fill-opacity: 1;"/><path class="box" d="M835.76,24.74V17.37M797.86,24.74V17.37H868.54V24.74ZM797.86,21.05H783.42M868.54,21.05H948.26" style="vector-effect: non-scaling-stroke; stroke-width: 2px; stroke: rgb(181, 181, 181); stroke-opacity: 1; fill: rgb(181, 181, 181); fill-opacity: 1;"/><path class="mean" d="M820.05,24.74V17.37" style="fill: none; vector-effect: non-scaling-stroke; stroke-width: 2px; stroke-dasharray: 4px, 2px; stroke: rgb(181, 181, 181); stroke-opacity: 1;"/></g></g><g class="scatterlayer mlayer"><g class="trace scatter trace5fd36f" style="stroke-miterlimit: 2; opacity: 1;"><g class="fills"/><g class="errorbars"/><g class="lines"/><g class="points"><path class="point" transform="translate(783.42,21.05)" d="M2,0A2,2 0 1,1 0,-2A2,2 0 0,1 2,0Z" style="opacity: 1; stroke-width: 0px; fill: rgb(11, 121, 230); fill-opacity: 1;"/></g><g class="text"/></g><g class="trace scatter trace86dc1d" style="stroke-miterlimit: 2; opacity: 1;"><g class="fills"/><g class="errorbars"/><g class="lines"/><g class="points"><path class="point" transform="translate(802.31,21.05)" d="M2,0A2,2 0 1,1 0,-2A2,2 0 0,1 2,0Z" style="opacity: 1; stroke-width: 0px; fill: rgb(11, 121, 230); fill-opacity: 1;"/></g><g class="text"/></g><g class="trace scatter tracebc33ba" style="stroke-miterlimit: 2; opacity: 1;"><g class="fills"/><g class="errorbars"/><g class="lines"/><g class="points"><path class="point" transform="translate(796.37,21.05)" d="M2,0A2,2 0 1,1 0,-2A2,2 0 0,1 2,0Z" style="opacity: 1; stroke-width: 0px; fill: rgb(11, 121, 230); fill-opacity: 1;"/></g><g class="text"/></g><g class="trace scatter trace86cbbf" style="stroke-miterlimit: 2; opacity: 1;"><g class="fills"/><g class="errorbars"/><g class="lines"/><g class="points"><path class="point" transform="translate(805.16,21.05)" d="M2,0A2,2 0 1,1 0,-2A2,2 0 0,1 2,0Z" style="opacity: 1; stroke-width: 0px; fill: rgb(11, 121, 230); fill-opacity: 1;"/></g><g class="text"/></g><g class="trace scatter traceafe67c" style="stroke-miterlimit: 2; opacity: 1;"><g class="fills"/><g class="errorbars"/><g class="lines"/><g class="points"><path class="point" transform="translate(867.76,21.05)" d="M2,0A2,2 0 1,1 0,-2A2,2 0 0,1 2,0Z" style="opacity: 1; stroke-width: 0px; fill: rgb(11, 121, 230); fill-opacity: 1;"/></g><g class="text"/></g><g class="trace scatter tracedb3ccf" style="stroke-miterlimit: 2; opacity: 1;"><g class="fills"/><g class="errorbars"/><g class="lines"/><g class="points"><path class="point" transform="translate(948.26,21.05)" d="M2,0A2,2 0 1,1 0,-2A2,2 0 0,1 2,0Z" style="opacity: 1; stroke-width: 0px; fill: rgb(11, 121, 230); fill-opacity: 1;"/></g><g class="text"/></g><g class="trace scatter trace220cca" style="stroke-miterlimit: 2; opacity: 1;"><g class="fills"/><g class="errorbars"/><g class="lines"/><g class="points"><path class="point" transform="translate(890.3,21.05)" d="M2,0A2,2 0 1,1 0,-2A2,2 0 0,1 2,0Z" style="opacity: 1; stroke-width: 0px; fill: rgb(11, 121, 230); fill-opacity: 1;"/></g><g class="text"/></g><g class="trace scatter trace706e00" style="stroke-miterlimit: 2; opacity: 1;"><g class="fills"/><g class="errorbars"/><g class="lines"/><g class="points"><path class="point" transform="translate(848.33,21.05)" d="M2,0A2,2 0 1,1 0,-2A2,2 0 0,1 2,0Z" style="opacity: 1; stroke-width: 0px; fill: rgb(11, 121, 230); fill-opacity: 1;"/></g><g class="text"/></g><g class="trace scatter trace44464e" style="stroke-miterlimit: 2; opacity: 1;"><g class="fills"/><g class="errorbars"/><g class="lines"/><g class="points"><path class="point" transform="translate(868.8,21.05)" d="M2,0A2,2 0 1,1 0,-2A2,2 0 0,1 2,0Z" style="opacity: 1; stroke-width: 0px; fill: rgb(11, 121, 230); fill-opacity: 1;"/></g><g class="text"/></g><g class="trace scatter trace81d87c" style="stroke-miterlimit: 2; opacity: 1;"><g class="fills"/><g class="errorbars"/><g class="lines"/><g class="points"><path class="point" transform="translate(835.76,21.05)" d="M2,0A2,2 0 1,1 0,-2A2,2 0 0,1 2,0Z" style="opacity: 1; stroke-width: 0px; fill: rgb(11, 121, 230); fill-opacity: 1;"/></g><g class="text"/></g><g class="trace scatter trace81109c" style="stroke-miterlimit: 2; opacity: 1;"><g class="fills"/><g class="errorbars"/><g class="lines"/><g class="points"><path class="point" transform="translate(574.1,21.05)" d="M2,0A2,2 0 1,1 0,-2A2,2 0 0,1 2,0Z" style="opacity: 1; stroke-width: 0px; fill: rgb(11, 121, 230); fill-opacity: 1;"/></g><g class="text"/></g></g></g></g><path class="xlines-above crisp" d="M0,0" style="fill: none;"/><path class="ylines-above crisp" d="M0,0" style="fill: none;"/><g class="overlines-above"/><g class="xaxislayer-above"><g class="x4tick"><text text-anchor="middle" x="0" y="312.6428571428571" transform="translate(136.72,0)" style="font-family: 'Lucida Grande', 'Open Sans', verdana, arial, sans-serif; font-size: 9px; fill: rgb(0, 0, 0); fill-opacity: 0.5; white-space: pre; opacity: 1;">0</text></g><g class="x4tick"><text text-anchor="middle" x="0" y="312.6428571428571" style="font-family: 'Lucida Grande', 'Open Sans', verdana, arial, sans-serif; font-size: 9px; fill: rgb(0, 0, 0); fill-opacity: 0.5; white-space: pre; opacity: 1;" transform="translate(298.15999999999997,0)">5k</text></g><g class="x4tick"><text text-anchor="middle" x="0" y="312.6428571428571" style="font-family: 'Lucida Grande', 'Open Sans', verdana, arial, sans-serif; font-size: 9px; fill: rgb(0, 0, 0); fill-opacity: 0.5; white-space: pre; opacity: 1;" transform="translate(459.6,0)">10k</text></g><g class="x4tick"><text text-anchor="middle" x="0" y="312.6428571428571" style="font-family: 'Lucida Grande', 'Open Sans', verdana, arial, sans-serif; font-size: 9px; fill: rgb(0, 0, 0); fill-opacity: 0.5; white-space: pre; opacity: 1;" transform="translate(621.05,0)">15k</text></g><g class="x4tick"><text text-anchor="middle" x="0" y="312.6428571428571" style="font-family: 'Lucida Grande', 'Open Sans', verdana, arial, sans-serif; font-size: 9px; fill: rgb(0, 0, 0); fill-opacity: 0.5; white-space: pre; opacity: 1;" transform="translate(782.49,0)">20k</text></g><g class="x4tick"><text text-anchor="middle" x="0" y="312.6428571428571" style="font-family: 'Lucida Grande', 'Open Sans', verdana, arial, sans-serif; font-size: 9px; fill: rgb(0, 0, 0); fill-opacity: 0.5; white-space: pre; opacity: 1;" transform="translate(943.94,0)">25k</text></g></g><g class="yaxislayer-above"><g class="y4tick"><text text-anchor="end" x="131" y="3.15" transform="translate(0,281.5857142857143)" style="font-family: 'Lucida Grande', 'Open Sans', verdana, arial, sans-serif; font-size: 9px; fill: rgb(0, 0, 0); fill-opacity: 0.5; white-space: pre; opacity: 1;">Comet  </text></g></g><g class="overaxes-above"/></g><g class="subplot x5y5"><g class="layer-subplot"><g class="shapelayer"/><g class="imagelayer"/></g><g class="minor-gridlayer"><g class="x5"/><g class="y5"/></g><g class="gridlayer"><g class="x5"><path class="x5grid crisp" transform="translate(236.51999999999998,0)" d="M0,330.7142857142857v42.10714285714285" style="stroke: rgb(0, 0, 0); stroke-opacity: 0.1; stroke-width: 1px;"/><path class="x5grid crisp" transform="translate(336.31,0)" d="M0,330.7142857142857v42.10714285714285" style="stroke: rgb(0, 0, 0); stroke-opacity: 0.1; stroke-width: 1px;"/><path class="x5grid crisp" transform="translate(436.11,0)" d="M0,330.7142857142857v42.10714285714285" style="stroke: rgb(0, 0, 0); stroke-opacity: 0.1; stroke-width: 1px;"/><path class="x5grid crisp" transform="translate(535.9100000000001,0)" d="M0,330.7142857142857v42.10714285714285" style="stroke: rgb(0, 0, 0); stroke-opacity: 0.1; stroke-width: 1px;"/><path class="x5grid crisp" transform="translate(635.71,0)" d="M0,330.7142857142857v42.10714285714285" style="stroke: rgb(0, 0, 0); stroke-opacity: 0.1; stroke-width: 1px;"/><path class="x5grid crisp" transform="translate(735.51,0)" d="M0,330.7142857142857v42.10714285714285" style="stroke: rgb(0, 0, 0); stroke-opacity: 0.1; stroke-width: 1px;"/><path class="x5grid crisp" transform="translate(835.3,0)" d="M0,330.7142857142857v42.10714285714285" style="stroke: rgb(0, 0, 0); stroke-opacity: 0.1; stroke-width: 1px;"/><path class="x5grid crisp" transform="translate(935.1,0)" d="M0,330.7142857142857v42.10714285714285" style="stroke: rgb(0, 0, 0); stroke-opacity: 0.1; stroke-width: 1px;"/><path class="x5grid crisp" transform="translate(1034.9,0)" d="M0,330.7142857142857v42.10714285714285" style="stroke: rgb(0, 0, 0); stroke-opacity: 0.1; stroke-width: 1px;"/></g><g class="y5"><path class="y5grid crisp" transform="translate(0,351.76428571428573)" d="M132,0h953" style="stroke: rgb(0, 0, 0); stroke-opacity: 0.1; stroke-width: 1px;"/></g></g><g class="zerolinelayer"><path class="x5zl zl crisp" transform="translate(136.72,0)" d="M0,330.7142857142857v42.10714285714285" style="stroke: rgb(0, 0, 0); stroke-opacity: 0.1; stroke-width: 2px;"/></g><g class="layer-between"><g class="shapelayer"/><g class="imagelayer"/></g><path class="xlines-below"/><path class="ylines-below"/><g class="overlines-below"/><g class="xaxislayer-below"/><g class="yaxislayer-below"/><g class="overaxes-below"/><g class="overplot"><g class="x5y5" transform="translate(132,330.7142857142857)" clip-path="url(#clip52c2d1x5y5plot)"><g class="violinlayer mlayer"><g class="trace violins" style="opacity: 0.5;"><path class="violin" d="M-60.53,20.72Q-53.22,20.55 -49.56,20.44C-45.9,20.33 -42.25,20.19 -38.59,20.04C-34.93,19.89 -31.28,19.72 -27.62,19.56C-23.96,19.4 -20.31,19.22 -16.65,19.08C-12.99,18.94 -9.34,18.8 -5.68,18.72C-2.03,18.64 1.63,18.58 5.28,18.58C8.94,18.58 12.59,18.63 16.25,18.71C19.91,18.79 23.56,18.92 27.22,19.06C30.88,19.2 34.53,19.38 38.19,19.54C41.85,19.7 45.5,19.87 49.16,20.02C52.81,20.17 56.47,20.31 60.12,20.42C63.78,20.54 67.43,20.63 71.09,20.71C74.75,20.79 78.4,20.83 82.06,20.88C85.72,20.92 89.37,20.96 93.03,20.98C96.69,21 100.34,21.01 104,21.02C107.65,21.03 111.31,21.04 114.96,21.04C118.62,21.05 122.27,21.05 125.93,21.05C129.59,21.05 133.24,21.05 136.9,21.05C140.56,21.05 144.21,21.05 147.87,21.05C151.53,21.05 155.18,21.05 158.84,21.05C162.5,21.05 166.15,21.05 169.81,21.05C173.46,21.05 177.12,21.05 180.77,21.05C184.43,21.05 188.08,21.05 191.74,21.05C195.4,21.05 199.05,21.05 202.71,21.05C206.37,21.05 210.02,21.05 213.68,21.05C217.34,21.05 220.99,21.05 224.65,21.05C228.3,21.05 231.96,21.05 235.61,21.05C239.27,21.05 242.92,21.05 246.58,21.05C250.24,21.05 253.89,21.05 257.55,21.05C261.21,21.05 264.86,21.05 268.52,21.05C272.18,21.05 275.83,21.05 279.49,21.05C283.14,21.05 286.8,21.05 290.45,21.05C294.11,21.05 297.76,21.05 301.42,21.05C305.08,21.05 308.73,21.05 312.39,21.05C316.05,21.05 319.7,21.05 323.36,21.05C327.02,21.05 330.67,21.05 334.33,21.05C337.98,21.05 341.64,21.05 345.29,21.05C348.95,21.05 352.6,21.05 356.26,21.05C359.92,21.05 363.57,21.05 367.23,21.05C370.89,21.05 374.54,21.05 378.2,21.05C381.86,21.05 385.51,21.05 389.17,21.05C392.83,21.05 396.48,21.05 400.14,21.05C403.79,21.05 407.45,21.05 411.1,21.05C414.76,21.05 418.41,21.05 422.07,21.05C425.73,21.05 429.38,21.05 433.04,21.05C436.7,21.05 440.35,21.05 444.01,21.05C447.67,21.05 451.32,21.05 454.98,21.05C458.63,21.05 462.29,21.05 465.94,21.05C469.6,21.05 473.25,21.05 476.91,21.05C480.57,21.05 484.22,21.05 487.88,21.05C491.54,21.05 495.19,21.05 498.85,21.05C502.51,21.05 506.16,21.05 509.82,21.05C513.47,21.05 517.13,21.05 520.78,21.05C524.44,21.05 528.09,21.05 531.75,21.05C535.41,21.05 539.06,21.05 542.72,21.05C546.38,21.05 550.03,21.05 553.69,21.05C557.35,21.05 561,21.05 564.66,21.05C568.32,21.05 571.97,21.05 575.63,21.05C579.28,21.05 582.94,21.04 586.59,21.04C590.25,21.03 593.9,21.03 597.56,21.02C601.22,21.01 604.87,20.99 608.53,20.96C612.19,20.93 615.84,20.9 619.5,20.83C623.16,20.76 626.81,20.68 630.47,20.55C634.12,20.42 637.78,20.26 641.43,20.04C645.09,19.82 648.75,19.55 652.4,19.21C656.06,18.87 659.72,18.46 663.37,17.99C667.03,17.52 670.69,16.96 674.34,16.37C678,15.78 681.66,15.1 685.31,14.43C688.97,13.75 692.62,13.02 696.27,12.32C699.93,11.62 703.58,10.89 707.24,10.23C710.89,9.57 714.55,8.92 718.21,8.38C721.86,7.84 725.52,7.35 729.18,7.01C732.83,6.67 736.49,6.41 740.15,6.32C743.8,6.23 747.47,6.27 751.12,6.45C754.78,6.63 758.43,6.98 762.08,7.42C765.74,7.87 769.4,8.48 773.05,9.12C776.71,9.76 780.37,10.54 784.02,11.28C787.68,12.02 791.33,12.84 794.99,13.58C798.64,14.32 802.3,15.07 805.96,15.7C809.61,16.33 813.26,16.91 816.92,17.38C820.57,17.85 824.23,18.22 827.89,18.5C831.54,18.78 835.2,18.95 838.86,19.05C842.52,19.15 846.17,19.15 849.83,19.12C853.49,19.09 857.14,18.99 860.8,18.89C864.45,18.79 868.11,18.65 871.76,18.54C875.42,18.43 879.07,18.3 882.73,18.21C886.39,18.12 890.04,18.05 893.7,18C897.36,17.95 901.01,17.92 904.67,17.9C908.33,17.88 911.98,17.87 915.64,17.87C919.3,17.87 922.95,17.87 926.61,17.89C930.26,17.91 933.92,17.92 937.57,17.97C941.23,18.02 944.88,18.08 948.54,18.17C952.2,18.26 955.85,18.37 959.51,18.51C963.17,18.65 966.82,18.82 970.48,18.99C974.14,19.16 977.79,19.35 981.45,19.52C985.1,19.69 988.76,19.88 992.41,20.03C996.07,20.18 999.72,20.31 1003.38,20.43Q1007.04,20.54 1014.35,20.72L1014.35,21.39Q1007.04,21.56 1003.38,21.67C999.72,21.79 996.07,21.93 992.41,22.08C988.76,22.23 985.1,22.41 981.45,22.58C977.79,22.75 974.14,22.95 970.48,23.12C966.82,23.29 963.17,23.46 959.51,23.6C955.85,23.74 952.2,23.85 948.54,23.94C944.88,24.03 941.23,24.09 937.57,24.14C933.92,24.19 930.26,24.2 926.61,24.22C922.95,24.24 919.3,24.24 915.64,24.24C911.98,24.24 908.33,24.23 904.67,24.21C901.01,24.19 897.36,24.16 893.7,24.11C890.04,24.06 886.39,23.98 882.73,23.89C879.07,23.8 875.42,23.68 871.76,23.57C868.11,23.46 864.45,23.32 860.8,23.22C857.14,23.12 853.49,23.01 849.83,22.98C846.17,22.95 842.52,22.96 838.86,23.06C835.2,23.16 831.54,23.33 827.89,23.61C824.23,23.89 820.57,24.26 816.92,24.73C813.26,25.2 809.61,25.78 805.96,26.41C802.3,27.04 798.64,27.79 794.99,28.52C791.33,29.26 787.68,30.07 784.02,30.82C780.37,31.56 776.71,32.34 773.05,32.99C769.4,33.63 765.74,34.24 762.08,34.69C758.43,35.13 754.78,35.48 751.12,35.66C747.47,35.84 743.8,35.88 740.15,35.79C736.49,35.7 732.83,35.44 729.18,35.1C725.52,34.75 721.86,34.26 718.21,33.72C714.55,33.18 710.89,32.53 707.24,31.88C703.58,31.22 699.93,30.49 696.27,29.79C692.62,29.09 688.97,28.35 685.31,27.67C681.66,26.99 678,26.32 674.34,25.73C670.69,25.14 667.03,24.59 663.37,24.12C659.72,23.65 656.06,23.23 652.4,22.89C648.75,22.55 645.09,22.28 641.43,22.06C637.78,21.84 634.12,21.69 630.47,21.56C626.81,21.43 623.16,21.35 619.5,21.28C615.84,21.21 612.19,21.18 608.53,21.15C604.87,21.12 601.22,21.11 597.56,21.09C593.9,21.08 590.25,21.06 586.59,21.06C582.94,21.06 579.28,21.06 575.63,21.06C571.97,21.06 568.32,21.05 564.66,21.05C561,21.05 557.35,21.05 553.69,21.05C550.03,21.05 546.38,21.05 542.72,21.05C539.06,21.05 535.41,21.05 531.75,21.05C528.09,21.05 524.44,21.05 520.78,21.05C517.13,21.05 513.47,21.05 509.82,21.05C506.16,21.05 502.51,21.05 498.85,21.05C495.19,21.05 491.54,21.05 487.88,21.05C484.22,21.05 480.57,21.05 476.91,21.05C473.25,21.05 469.6,21.05 465.94,21.05C462.29,21.05 458.63,21.05 454.98,21.05C451.32,21.05 447.67,21.05 444.01,21.05C440.35,21.05 436.7,21.05 433.04,21.05C429.38,21.05 425.73,21.05 422.07,21.05C418.41,21.05 414.76,21.05 411.1,21.05C407.45,21.05 403.79,21.05 400.14,21.05C396.48,21.05 392.83,21.05 389.17,21.05C385.51,21.05 381.86,21.05 378.2,21.05C374.54,21.05 370.89,21.05 367.23,21.05C363.57,21.05 359.92,21.05 356.26,21.05C352.6,21.05 348.95,21.05 345.29,21.05C341.64,21.05 337.98,21.05 334.33,21.05C330.67,21.05 327.02,21.05 323.36,21.05C319.7,21.05 316.05,21.05 312.39,21.05C308.73,21.05 305.08,21.05 301.42,21.05C297.76,21.05 294.11,21.05 290.45,21.05C286.8,21.05 283.14,21.05 279.49,21.05C275.83,21.05 272.18,21.05 268.52,21.05C264.86,21.05 261.21,21.05 257.55,21.05C253.89,21.05 250.24,21.05 246.58,21.05C242.92,21.05 239.27,21.05 235.61,21.05C231.96,21.05 228.3,21.05 224.65,21.05C220.99,21.05 217.34,21.05 213.68,21.05C210.02,21.05 206.37,21.05 202.71,21.05C199.05,21.05 195.4,21.05 191.74,21.05C188.08,21.05 184.43,21.05 180.77,21.05C177.12,21.05 173.46,21.05 169.81,21.05C166.15,21.05 162.5,21.05 158.84,21.05C155.18,21.05 151.53,21.05 147.87,21.05C144.21,21.05 140.56,21.05 136.9,21.05C133.24,21.05 129.59,21.06 125.93,21.06C122.27,21.06 118.62,21.06 114.96,21.06C111.31,21.06 107.65,21.07 104,21.08C100.34,21.09 96.69,21.11 93.03,21.13C89.37,21.15 85.72,21.18 82.06,21.22C78.4,21.27 74.75,21.32 71.09,21.4C67.43,21.48 63.78,21.57 60.12,21.69C56.47,21.8 52.81,21.94 49.16,22.09C45.5,22.24 41.85,22.41 38.19,22.57C34.53,22.73 30.88,22.91 27.22,23.05C23.56,23.19 19.91,23.32 16.25,23.4C12.59,23.48 8.94,23.52 5.28,23.52C1.63,23.52 -2.03,23.46 -5.68,23.38C-9.34,23.3 -12.99,23.16 -16.65,23.02C-20.31,22.88 -23.96,22.7 -27.62,22.54C-31.28,22.38 -34.93,22.21 -38.59,22.06C-42.25,21.92 -45.9,21.78 -49.56,21.67Q-53.22,21.56 -60.53,21.39Z" style="vector-effect: none; stroke-width: 2px; stroke: rgb(181, 181, 181); stroke-opacity: 1; fill: rgb(181, 181, 181); fill-opacity: 1;"/><path class="box" d="M744.17,24.74V17.37M712.56,24.74V17.37H780.56V24.74ZM712.56,21.05H700.06M780.56,21.05H784.64" style="vector-effect: non-scaling-stroke; stroke-width: 2px; stroke: rgb(181, 181, 181); stroke-opacity: 1; fill: rgb(181, 181, 181); fill-opacity: 1;"/><path class="mean" d="M706.81,24.74V17.37" style="fill: none; vector-effect: non-scaling-stroke; stroke-width: 2px; stroke-dasharray: 4px, 2px; stroke: rgb(181, 181, 181); stroke-opacity: 1;"/></g></g><g class="scatterlayer mlayer"><g class="trace scatter trace4f47f0" style="stroke-miterlimit: 2; opacity: 1;"><g class="fills"/><g class="errorbars"/><g class="lines"/><g class="points"><path class="point" transform="translate(700.06,21.05)" d="M2,0A2,2 0 1,1 0,-2A2,2 0 0,1 2,0Z" style="opacity: 1; stroke-width: 0px; fill: rgb(11, 121, 230); fill-opacity: 1;"/></g><g class="text"/></g><g class="trace scatter trace48b69b" style="stroke-miterlimit: 2; opacity: 1;"><g class="fills"/><g class="errorbars"/><g class="lines"/><g class="points"><path class="point" transform="translate(737.39,21.05)" d="M2,0A2,2 0 1,1 0,-2A2,2 0 0,1 2,0Z" style="opacity: 1; stroke-width: 0px; fill: rgb(11, 121, 230); fill-opacity: 1;"/></g><g class="text"/></g><g class="trace scatter trace12b2d2" style="stroke-miterlimit: 2; opacity: 1;"><g class="fills"/><g class="errorbars"/><g class="lines"/><g class="points"><path class="point" transform="translate(704.65,21.05)" d="M2,0A2,2 0 1,1 0,-2A2,2 0 0,1 2,0Z" style="opacity: 1; stroke-width: 0px; fill: rgb(11, 121, 230); fill-opacity: 1;"/></g><g class="text"/></g><g class="trace scatter trace369325" style="stroke-miterlimit: 2; opacity: 1;"><g class="fills"/><g class="errorbars"/><g class="lines"/><g class="points"><path class="point" transform="translate(736.29,21.05)" d="M2,0A2,2 0 1,1 0,-2A2,2 0 0,1 2,0Z" style="opacity: 1; stroke-width: 0px; fill: rgb(11, 121, 230); fill-opacity: 1;"/></g><g class="text"/></g><g class="trace scatter trace25fba3" style="stroke-miterlimit: 2; opacity: 1;"><g class="fills"/><g class="errorbars"/><g class="lines"/><g class="points"><path class="point" transform="translate(759.24,21.05)" d="M2,0A2,2 0 1,1 0,-2A2,2 0 0,1 2,0Z" style="opacity: 1; stroke-width: 0px; fill: rgb(11, 121, 230); fill-opacity: 1;"/></g><g class="text"/></g><g class="trace scatter trace8b2647" style="stroke-miterlimit: 2; opacity: 1;"><g class="fills"/><g class="errorbars"/><g class="lines"/><g class="points"><path class="point" transform="translate(948.26,21.05)" d="M2,0A2,2 0 1,1 0,-2A2,2 0 0,1 2,0Z" style="opacity: 1; stroke-width: 0px; fill: rgb(11, 121, 230); fill-opacity: 1;"/></g><g class="text"/></g><g class="trace scatter trace8b8a51" style="stroke-miterlimit: 2; opacity: 1;"><g class="fills"/><g class="errorbars"/><g class="lines"/><g class="points"><path class="point" transform="translate(886.28,21.05)" d="M2,0A2,2 0 1,1 0,-2A2,2 0 0,1 2,0Z" style="opacity: 1; stroke-width: 0px; fill: rgb(11, 121, 230); fill-opacity: 1;"/></g><g class="text"/></g><g class="trace scatter trace949cde" style="stroke-miterlimit: 2; opacity: 1;"><g class="fills"/><g class="errorbars"/><g class="lines"/><g class="points"><path class="point" transform="translate(768.32,21.05)" d="M2,0A2,2 0 1,1 0,-2A2,2 0 0,1 2,0Z" style="opacity: 1; stroke-width: 0px; fill: rgb(11, 121, 230); fill-opacity: 1;"/></g><g class="text"/></g><g class="trace scatter trace48da9e" style="stroke-miterlimit: 2; opacity: 1;"><g class="fills"/><g class="errorbars"/><g class="lines"/><g class="points"><path class="point" transform="translate(784.64,21.05)" d="M2,0A2,2 0 1,1 0,-2A2,2 0 0,1 2,0Z" style="opacity: 1; stroke-width: 0px; fill: rgb(11, 121, 230); fill-opacity: 1;"/></g><g class="text"/></g><g class="trace scatter trace9faabc" style="stroke-miterlimit: 2; opacity: 1;"><g class="fills"/><g class="errorbars"/><g class="lines"/><g class="points"><path class="point" transform="translate(744.17,21.05)" d="M2,0A2,2 0 1,1 0,-2A2,2 0 0,1 2,0Z" style="opacity: 1; stroke-width: 0px; fill: rgb(11, 121, 230); fill-opacity: 1;"/></g><g class="text"/></g><g class="trace scatter tracef4cfb5" style="stroke-miterlimit: 2; opacity: 1;"><g class="fills"/><g class="errorbars"/><g class="lines"/><g class="points"><path class="point" transform="translate(5.57,21.05)" d="M2,0A2,2 0 1,1 0,-2A2,2 0 0,1 2,0Z" style="opacity: 1; stroke-width: 0px; fill: rgb(11, 121, 230); fill-opacity: 1;"/></g><g class="text"/></g></g></g></g><path class="xlines-above crisp" d="M0,0" style="fill: none;"/><path class="ylines-above crisp" d="M0,0" style="fill: none;"/><g class="overlines-above"/><g class="xaxislayer-above"><g class="x5tick"><text text-anchor="middle" x="0" y="382.82142857142856" transform="translate(136.72,0)" style="font-family: 'Lucida Grande', 'Open Sans', verdana, arial, sans-serif; font-size: 9px; fill: rgb(0, 0, 0); fill-opacity: 0.5; white-space: pre; opacity: 1;">0</text></g><g class="x5tick"><text text-anchor="middle" x="0" y="382.82142857142856" style="font-family: 'Lucida Grande', 'Open Sans', verdana, arial, sans-serif; font-size: 9px; fill: rgb(0, 0, 0); fill-opacity: 0.5; white-space: pre; opacity: 1;" transform="translate(236.51999999999998,0)">2k</text></g><g class="x5tick"><text text-anchor="middle" x="0" y="382.82142857142856" style="font-family: 'Lucida Grande', 'Open Sans', verdana, arial, sans-serif; font-size: 9px; fill: rgb(0, 0, 0); fill-opacity: 0.5; white-space: pre; opacity: 1;" transform="translate(336.31,0)">4k</text></g><g class="x5tick"><text text-anchor="middle" x="0" y="382.82142857142856" style="font-family: 'Lucida Grande', 'Open Sans', verdana, arial, sans-serif; font-size: 9px; fill: rgb(0, 0, 0); fill-opacity: 0.5; white-space: pre; opacity: 1;" transform="translate(436.11,0)">6k</text></g><g class="x5tick"><text text-anchor="middle" x="0" y="382.82142857142856" style="font-family: 'Lucida Grande', 'Open Sans', verdana, arial, sans-serif; font-size: 9px; fill: rgb(0, 0, 0); fill-opacity: 0.5; white-space: pre; opacity: 1;" transform="translate(535.9100000000001,0)">8k</text></g><g class="x5tick"><text text-anchor="middle" x="0" y="382.82142857142856" style="font-family: 'Lucida Grande', 'Open Sans', verdana, arial, sans-serif; font-size: 9px; fill: rgb(0, 0, 0); fill-opacity: 0.5; white-space: pre; opacity: 1;" transform="translate(635.71,0)">10k</text></g><g class="x5tick"><text text-anchor="middle" x="0" y="382.82142857142856" style="font-family: 'Lucida Grande', 'Open Sans', verdana, arial, sans-serif; font-size: 9px; fill: rgb(0, 0, 0); fill-opacity: 0.5; white-space: pre; opacity: 1;" transform="translate(735.51,0)">12k</text></g><g class="x5tick"><text text-anchor="middle" x="0" y="382.82142857142856" style="font-family: 'Lucida Grande', 'Open Sans', verdana, arial, sans-serif; font-size: 9px; fill: rgb(0, 0, 0); fill-opacity: 0.5; white-space: pre; opacity: 1;" transform="translate(835.3,0)">14k</text></g><g class="x5tick"><text text-anchor="middle" x="0" y="382.82142857142856" style="font-family: 'Lucida Grande', 'Open Sans', verdana, arial, sans-serif; font-size: 9px; fill: rgb(0, 0, 0); fill-opacity: 0.5; white-space: pre; opacity: 1;" transform="translate(935.1,0)">16k</text></g><g class="x5tick"><text text-anchor="middle" x="0" y="382.82142857142856" style="font-family: 'Lucida Grande', 'Open Sans', verdana, arial, sans-serif; font-size: 9px; fill: rgb(0, 0, 0); fill-opacity: 0.5; white-space: pre; opacity: 1;" transform="translate(1034.9,0)">18k</text></g></g><g class="yaxislayer-above"><g class="y5tick"><text text-anchor="end" x="131" y="3.15" transform="translate(0,351.76428571428573)" style="font-family: 'Lucida Grande', 'Open Sans', verdana, arial, sans-serif; font-size: 9px; fill: rgb(0, 0, 0); fill-opacity: 0.5; white-space: pre; opacity: 1;">#PSMs from quant. peptides  </text></g></g><g class="overaxes-above"/></g><g class="subplot x6y6"><g class="layer-subplot"><g class="shapelayer"/><g class="imagelayer"/></g><g class="minor-gridlayer"><g class="x6"/><g class="y6"/></g><g class="gridlayer"><g class="x6"><path class="x6grid crisp" transform="translate(245.57,0)" d="M0,400.89285714285717v42.107142857142854" style="stroke: rgb(0, 0, 0); stroke-opacity: 0.1; stroke-width: 1px;"/><path class="x6grid crisp" transform="translate(354.41999999999996,0)" d="M0,400.89285714285717v42.107142857142854" style="stroke: rgb(0, 0, 0); stroke-opacity: 0.1; stroke-width: 1px;"/><path class="x6grid crisp" transform="translate(463.28,0)" d="M0,400.89285714285717v42.107142857142854" style="stroke: rgb(0, 0, 0); stroke-opacity: 0.1; stroke-width: 1px;"/><path class="x6grid crisp" transform="translate(572.13,0)" d="M0,400.89285714285717v42.107142857142854" style="stroke: rgb(0, 0, 0); stroke-opacity: 0.1; stroke-width: 1px;"/><path class="x6grid crisp" transform="translate(680.98,0)" d="M0,400.89285714285717v42.107142857142854" style="stroke: rgb(0, 0, 0); stroke-opacity: 0.1; stroke-width: 1px;"/><path class="x6grid crisp" transform="translate(789.84,0)" d="M0,400.89285714285717v42.107142857142854" style="stroke: rgb(0, 0, 0); stroke-opacity: 0.1; stroke-width: 1px;"/><path class="x6grid crisp" transform="translate(898.69,0)" d="M0,400.89285714285717v42.107142857142854" style="stroke: rgb(0, 0, 0); stroke-opacity: 0.1; stroke-width: 1px;"/><path class="x6grid crisp" transform="translate(1007.54,0)" d="M0,400.89285714285717v42.107142857142854" style="stroke: rgb(0, 0, 0); stroke-opacity: 0.1; stroke-width: 1px;"/></g><g class="y6"><path class="y6grid crisp" transform="translate(0,421.9428571428572)" d="M132,0h953" style="stroke: rgb(0, 0, 0); stroke-opacity: 0.1; stroke-width: 1px;"/></g></g><g class="zerolinelayer"><path class="x6zl zl crisp" transform="translate(136.72,0)" d="M0,400.89285714285717v42.107142857142854" style="stroke: rgb(0, 0, 0); stroke-opacity: 0.1; stroke-width: 2px;"/></g><g class="layer-between"><g class="shapelayer"/><g class="imagelayer"/></g><path class="xlines-below"/><path class="ylines-below"/><g class="overlines-below"/><g class="xaxislayer-below"/><g class="yaxislayer-below"/><g class="overaxes-below"/><g class="overplot"><g class="x6y6" transform="translate(132,400.89285714285717)" clip-path="url(#clip52c2d1x6y6plot)"><g class="violinlayer mlayer"><g class="trace violins" style="opacity: 0.5;"><path class="violin" d="M-56.47,20.7Q-49.63,20.53 -46.21,20.41C-42.79,20.29 -39.38,20.14 -35.96,19.99C-32.54,19.83 -29.12,19.65 -25.7,19.48C-22.28,19.31 -18.87,19.13 -15.45,18.98C-12.03,18.83 -8.61,18.69 -5.19,18.6C-1.77,18.51 1.64,18.45 5.06,18.45C8.48,18.45 11.9,18.5 15.32,18.58C18.74,18.66 22.16,18.8 25.58,18.95C29,19.09 32.41,19.28 35.83,19.45C39.25,19.62 42.67,19.8 46.09,19.96C49.51,20.12 52.92,20.27 56.34,20.39C59.76,20.51 63.18,20.61 66.6,20.69C70.02,20.77 73.43,20.82 76.85,20.87C80.27,20.92 83.69,20.94 87.11,20.97C90.53,20.99 93.94,21.01 97.36,21.02C100.78,21.03 104.2,21.03 107.62,21.04C111.04,21.04 114.45,21.05 117.87,21.05C121.29,21.05 124.71,21.05 128.13,21.05C131.55,21.05 134.97,21.05 138.39,21.05C141.81,21.05 145.22,21.05 148.64,21.05C152.06,21.05 155.48,21.05 158.9,21.05C162.32,21.05 165.73,21.05 169.15,21.05C172.57,21.05 175.99,21.05 179.41,21.05C182.83,21.05 186.24,21.05 189.66,21.05C193.08,21.05 196.5,21.05 199.92,21.05C203.34,21.05 206.75,21.05 210.17,21.05C213.59,21.05 217.01,21.05 220.43,21.05C223.85,21.05 227.26,21.05 230.68,21.05C234.1,21.05 237.52,21.05 240.94,21.05C244.36,21.05 247.78,21.05 251.2,21.05C254.62,21.05 258.03,21.05 261.45,21.05C264.87,21.05 268.29,21.05 271.71,21.05C275.13,21.05 278.54,21.05 281.96,21.05C285.38,21.05 288.8,21.05 292.22,21.05C295.64,21.05 299.05,21.05 302.47,21.05C305.89,21.05 309.31,21.05 312.73,21.05C316.15,21.05 319.56,21.05 322.98,21.05C326.4,21.05 329.82,21.05 333.24,21.05C336.66,21.05 340.07,21.05 343.49,21.05C346.91,21.05 350.33,21.05 353.75,21.05C357.17,21.05 360.58,21.05 364,21.05C367.42,21.05 370.84,21.05 374.26,21.05C377.68,21.05 381.1,21.05 384.52,21.05C387.94,21.05 391.35,21.05 394.77,21.05C398.19,21.05 401.61,21.05 405.03,21.05C408.45,21.05 411.86,21.05 415.28,21.05C418.7,21.05 422.12,21.05 425.54,21.05C428.96,21.05 432.37,21.05 435.79,21.05C439.21,21.05 442.63,21.05 446.05,21.05C449.47,21.05 452.88,21.05 456.3,21.05C459.72,21.05 463.14,21.05 466.56,21.05C469.98,21.05 473.39,21.05 476.81,21.05C480.23,21.05 483.65,21.05 487.07,21.05C490.49,21.05 493.91,21.05 497.33,21.05C500.75,21.05 504.16,21.05 507.58,21.05C511,21.05 514.42,21.05 517.84,21.05C521.26,21.05 524.67,21.05 528.09,21.05C531.51,21.05 534.93,21.05 538.35,21.05C541.77,21.05 545.18,21.04 548.6,21.03C552.02,21.02 555.44,21.02 558.86,21C562.28,20.98 565.69,20.96 569.11,20.92C572.53,20.88 575.95,20.84 579.37,20.77C582.79,20.7 586.2,20.61 589.62,20.5C593.04,20.38 596.46,20.25 599.88,20.08C603.3,19.91 606.72,19.72 610.14,19.5C613.56,19.28 616.97,19.03 620.39,18.77C623.81,18.51 627.23,18.23 630.65,17.95C634.07,17.67 637.48,17.37 640.9,17.07C644.32,16.77 647.74,16.47 651.16,16.13C654.58,15.79 657.99,15.44 661.41,15.04C664.83,14.64 668.25,14.21 671.67,13.73C675.09,13.24 678.51,12.7 681.92,12.13C685.34,11.56 688.76,10.91 692.18,10.31C695.6,9.71 699.01,9.05 702.43,8.51C705.84,7.97 709.26,7.43 712.69,7.06C716.1,6.7 719.53,6.41 722.95,6.32C726.37,6.23 729.79,6.29 733.2,6.52C736.62,6.75 740.05,7.18 743.46,7.7C746.89,8.22 750.3,8.92 753.71,9.64C757.14,10.36 760.55,11.22 763.97,12.01C767.39,12.8 770.8,13.65 774.22,14.4C777.63,15.14 781.05,15.87 784.48,16.48C787.89,17.08 791.31,17.62 794.73,18.04C798.14,18.46 801.57,18.77 804.99,19C808.4,19.22 811.82,19.33 815.24,19.39C818.66,19.45 822.08,19.4 825.5,19.34C828.92,19.28 832.34,19.14 835.76,19.03C839.18,18.92 842.59,18.77 846.01,18.67C849.43,18.57 852.85,18.47 856.27,18.43C859.69,18.39 863.1,18.39 866.52,18.41C869.94,18.43 873.36,18.5 876.78,18.58C880.2,18.65 883.61,18.78 887.03,18.86C890.45,18.94 893.87,19.03 897.29,19.07C900.71,19.11 904.12,19.14 907.54,19.12C910.96,19.1 914.38,19.04 917.8,18.97C921.22,18.9 924.63,18.78 928.05,18.7C931.47,18.62 934.89,18.52 938.31,18.47C941.73,18.42 945.14,18.38 948.56,18.4C951.98,18.42 955.4,18.49 958.82,18.58C962.24,18.68 965.66,18.82 969.08,18.97C972.5,19.12 975.91,19.31 979.33,19.48C982.75,19.65 986.17,19.83 989.59,19.99C993.01,20.14 996.42,20.29 999.84,20.41Q1003.26,20.53 1010.1,20.7L1010.1,21.41Q1003.26,21.58 999.84,21.7C996.42,21.82 993.01,21.97 989.59,22.12C986.17,22.28 982.75,22.46 979.33,22.63C975.91,22.8 972.5,22.98 969.08,23.13C965.66,23.28 962.24,23.43 958.82,23.53C955.4,23.62 951.98,23.68 948.56,23.7C945.14,23.72 941.73,23.69 938.31,23.64C934.89,23.59 931.47,23.48 928.05,23.4C924.63,23.32 921.22,23.21 917.8,23.14C914.38,23.07 910.96,23.01 907.54,22.99C904.12,22.97 900.71,22.99 897.29,23.03C893.87,23.07 890.45,23.17 887.03,23.25C883.61,23.33 880.2,23.45 876.78,23.52C873.36,23.6 869.94,23.67 866.52,23.7C863.1,23.73 859.69,23.72 856.27,23.68C852.85,23.64 849.43,23.53 846.01,23.43C842.59,23.33 839.18,23.18 835.76,23.07C832.34,22.96 828.92,22.83 825.5,22.77C822.08,22.71 818.66,22.66 815.24,22.72C811.82,22.78 808.4,22.89 804.99,23.11C801.57,23.33 798.14,23.64 794.73,24.06C791.31,24.48 787.89,25.01 784.48,25.62C781.05,26.23 777.63,26.96 774.22,27.71C770.8,28.46 767.39,29.31 763.97,30.1C760.55,30.89 757.14,31.75 753.71,32.47C750.3,33.19 746.89,33.89 743.46,34.41C740.05,34.93 736.62,35.36 733.2,35.59C729.79,35.82 726.37,35.88 722.95,35.79C719.53,35.7 716.1,35.41 712.69,35.05C709.26,34.68 705.84,34.14 702.43,33.6C699.01,33.06 695.6,32.4 692.18,31.8C688.76,31.2 685.34,30.55 681.92,29.98C678.51,29.41 675.09,28.87 671.67,28.38C668.25,27.89 664.83,27.46 661.41,27.06C657.99,26.66 654.58,26.32 651.16,25.98C647.74,25.64 644.32,25.34 640.9,25.03C637.48,24.73 634.07,24.43 630.65,24.15C627.23,23.87 623.81,23.59 620.39,23.33C616.97,23.07 613.56,22.83 610.14,22.61C606.72,22.39 603.3,22.2 599.88,22.03C596.46,21.86 593.04,21.73 589.62,21.61C586.2,21.5 582.79,21.41 579.37,21.34C575.95,21.27 572.53,21.22 569.11,21.18C565.69,21.14 562.28,21.13 558.86,21.11C555.44,21.09 552.02,21.08 548.6,21.07C545.18,21.06 541.77,21.06 538.35,21.06C534.93,21.06 531.51,21.06 528.09,21.06C524.67,21.06 521.26,21.05 517.84,21.05C514.42,21.05 511,21.05 507.58,21.05C504.16,21.05 500.75,21.05 497.33,21.05C493.91,21.05 490.49,21.05 487.07,21.05C483.65,21.05 480.23,21.05 476.81,21.05C473.39,21.05 469.98,21.05 466.56,21.05C463.14,21.05 459.72,21.05 456.3,21.05C452.88,21.05 449.47,21.05 446.05,21.05C442.63,21.05 439.21,21.05 435.79,21.05C432.37,21.05 428.96,21.05 425.54,21.05C422.12,21.05 418.7,21.05 415.28,21.05C411.86,21.05 408.45,21.05 405.03,21.05C401.61,21.05 398.19,21.05 394.77,21.05C391.35,21.05 387.94,21.05 384.52,21.05C381.1,21.05 377.68,21.05 374.26,21.05C370.84,21.05 367.42,21.05 364,21.05C360.58,21.05 357.17,21.05 353.75,21.05C350.33,21.05 346.91,21.05 343.49,21.05C340.07,21.05 336.66,21.05 333.24,21.05C329.82,21.05 326.4,21.05 322.98,21.05C319.56,21.05 316.15,21.05 312.73,21.05C309.31,21.05 305.89,21.05 302.47,21.05C299.05,21.05 295.64,21.05 292.22,21.05C288.8,21.05 285.38,21.05 281.96,21.05C278.54,21.05 275.13,21.05 271.71,21.05C268.29,21.05 264.87,21.05 261.45,21.05C258.03,21.05 254.62,21.05 251.2,21.05C247.78,21.05 244.36,21.05 240.94,21.05C237.52,21.05 234.1,21.05 230.68,21.05C227.26,21.05 223.85,21.05 220.43,21.05C217.01,21.05 213.59,21.05 210.17,21.05C206.75,21.05 203.34,21.05 199.92,21.05C196.5,21.05 193.08,21.05 189.66,21.05C186.24,21.05 182.83,21.05 179.41,21.05C175.99,21.05 172.57,21.05 169.15,21.05C165.73,21.05 162.32,21.05 158.9,21.05C155.48,21.05 152.06,21.05 148.64,21.05C145.22,21.05 141.81,21.05 138.39,21.05C134.97,21.05 131.55,21.05 128.13,21.05C124.71,21.05 121.29,21.06 117.87,21.06C114.45,21.06 111.04,21.06 107.62,21.06C104.2,21.06 100.78,21.07 97.36,21.08C93.94,21.09 90.53,21.11 87.11,21.13C83.69,21.16 80.27,21.18 76.85,21.23C73.43,21.28 70.02,21.34 66.6,21.42C63.18,21.5 59.76,21.6 56.34,21.72C52.92,21.84 49.51,22 46.09,22.15C42.67,22.31 39.25,22.48 35.83,22.65C32.41,22.82 29,23.01 25.58,23.15C22.16,23.3 18.74,23.44 15.32,23.52C11.9,23.6 8.48,23.65 5.06,23.65C1.64,23.65 -1.77,23.6 -5.19,23.51C-8.61,23.42 -12.03,23.28 -15.45,23.13C-18.87,22.98 -22.28,22.79 -25.7,22.62C-29.12,22.45 -32.54,22.27 -35.96,22.12C-39.38,21.97 -42.79,21.82 -46.21,21.7Q-49.63,21.58 -56.47,21.41Z" style="vector-effect: none; stroke-width: 2px; stroke: rgb(181, 181, 181); stroke-opacity: 1; fill: rgb(181, 181, 181); fill-opacity: 1;"/><path class="box" d="M722.22,24.74V17.37M690.77,24.74V17.37H754.39V24.74ZM690.77,21.05H644.94M754.39,21.05H756.24" style="vector-effect: non-scaling-stroke; stroke-width: 2px; stroke: rgb(181, 181, 181); stroke-opacity: 1; fill: rgb(181, 181, 181); fill-opacity: 1;"/><path class="mean" d="M684.91,24.74V17.37" style="fill: none; vector-effect: non-scaling-stroke; stroke-width: 2px; stroke-dasharray: 4px, 2px; stroke: rgb(181, 181, 181); stroke-opacity: 1;"/></g></g><g class="scatterlayer mlayer"><g class="trace scatter tracea47f37" style="stroke-miterlimit: 2; opacity: 1;"><g class="fills"/><g class="errorbars"/><g class="lines"/><g class="points"><path class="point" transform="translate(644.94,21.05)" d="M2,0A2,2 0 1,1 0,-2A2,2 0 0,1 2,0Z" style="opacity: 1; stroke-width: 0px; fill: rgb(11, 121, 230); fill-opacity: 1;"/></g><g class="text"/></g><g class="trace scatter trace5446f0" style="stroke-miterlimit: 2; opacity: 1;"><g class="fills"/><g class="errorbars"/><g class="lines"/><g class="points"><path class="point" transform="translate(722.22,21.05)" d="M2,0A2,2 0 1,1 0,-2A2,2 0 0,1 2,0Z" style="opacity: 1; stroke-width: 0px; fill: rgb(11, 121, 230); fill-opacity: 1;"/></g><g class="text"/></g><g class="trace scatter trace19aef2" style="stroke-miterlimit: 2; opacity: 1;"><g class="fills"/><g class="errorbars"/><g class="lines"/><g class="points"><path class="point" transform="translate(683.69,21.05)" d="M2,0A2,2 0 1,1 0,-2A2,2 0 0,1 2,0Z" style="opacity: 1; stroke-width: 0px; fill: rgb(11, 121, 230); fill-opacity: 1;"/></g><g class="text"/></g><g class="trace scatter trace6bdd6c" style="stroke-miterlimit: 2; opacity: 1;"><g class="fills"/><g class="errorbars"/><g class="lines"/><g class="points"><path class="point" transform="translate(711.99,21.05)" d="M2,0A2,2 0 1,1 0,-2A2,2 0 0,1 2,0Z" style="opacity: 1; stroke-width: 0px; fill: rgb(11, 121, 230); fill-opacity: 1;"/></g><g class="text"/></g><g class="trace scatter trace5309ee" style="stroke-miterlimit: 2; opacity: 1;"><g class="fills"/><g class="errorbars"/><g class="lines"/><g class="points"><path class="point" transform="translate(748.84,21.05)" d="M2,0A2,2 0 1,1 0,-2A2,2 0 0,1 2,0Z" style="opacity: 1; stroke-width: 0px; fill: rgb(11, 121, 230); fill-opacity: 1;"/></g><g class="text"/></g><g class="trace scatter trace8a580c" style="stroke-miterlimit: 2; opacity: 1;"><g class="fills"/><g class="errorbars"/><g class="lines"/><g class="points"><path class="point" transform="translate(948.26,21.05)" d="M2,0A2,2 0 1,1 0,-2A2,2 0 0,1 2,0Z" style="opacity: 1; stroke-width: 0px; fill: rgb(11, 121, 230); fill-opacity: 1;"/></g><g class="text"/></g><g class="trace scatter tracea710a6" style="stroke-miterlimit: 2; opacity: 1;"><g class="fills"/><g class="errorbars"/><g class="lines"/><g class="points"><path class="point" transform="translate(861.12,21.05)" d="M2,0A2,2 0 1,1 0,-2A2,2 0 0,1 2,0Z" style="opacity: 1; stroke-width: 0px; fill: rgb(11, 121, 230); fill-opacity: 1;"/></g><g class="text"/></g><g class="trace scatter tracebac4c9" style="stroke-miterlimit: 2; opacity: 1;"><g class="fills"/><g class="errorbars"/><g class="lines"/><g class="points"><path class="point" transform="translate(729.84,21.05)" d="M2,0A2,2 0 1,1 0,-2A2,2 0 0,1 2,0Z" style="opacity: 1; stroke-width: 0px; fill: rgb(11, 121, 230); fill-opacity: 1;"/></g><g class="text"/></g><g class="trace scatter tracefbab05" style="stroke-miterlimit: 2; opacity: 1;"><g class="fills"/><g class="errorbars"/><g class="lines"/><g class="points"><path class="point" transform="translate(756.24,21.05)" d="M2,0A2,2 0 1,1 0,-2A2,2 0 0,1 2,0Z" style="opacity: 1; stroke-width: 0px; fill: rgb(11, 121, 230); fill-opacity: 1;"/></g><g class="text"/></g><g class="trace scatter tracea2bccb" style="stroke-miterlimit: 2; opacity: 1;"><g class="fills"/><g class="errorbars"/><g class="lines"/><g class="points"><path class="point" transform="translate(721.52,21.05)" d="M2,0A2,2 0 1,1 0,-2A2,2 0 0,1 2,0Z" style="opacity: 1; stroke-width: 0px; fill: rgb(11, 121, 230); fill-opacity: 1;"/></g><g class="text"/></g><g class="trace scatter trace022206" style="stroke-miterlimit: 2; opacity: 1;"><g class="fills"/><g class="errorbars"/><g class="lines"/><g class="points"><path class="point" transform="translate(5.37,21.05)" d="M2,0A2,2 0 1,1 0,-2A2,2 0 0,1 2,0Z" style="opacity: 1; stroke-width: 0px; fill: rgb(11, 121, 230); fill-opacity: 1;"/></g><g class="text"/></g></g></g></g><path class="xlines-above crisp" d="M0,0" style="fill: none;"/><path class="ylines-above crisp" d="M0,0" style="fill: none;"/><g class="overlines-above"/><g class="xaxislayer-above"><g class="x6tick"><text text-anchor="middle" x="0" y="453" transform="translate(136.72,0)" style="font-family: 'Lucida Grande', 'Open Sans', verdana, arial, sans-serif; font-size: 9px; fill: rgb(0, 0, 0); fill-opacity: 0.5; white-space: pre; opacity: 1;">0</text></g><g class="x6tick"><text text-anchor="middle" x="0" y="453" style="font-family: 'Lucida Grande', 'Open Sans', verdana, arial, sans-serif; font-size: 9px; fill: rgb(0, 0, 0); fill-opacity: 0.5; white-space: pre; opacity: 1;" transform="translate(245.57,0)">2k</text></g><g class="x6tick"><text text-anchor="middle" x="0" y="453" style="font-family: 'Lucida Grande', 'Open Sans', verdana, arial, sans-serif; font-size: 9px; fill: rgb(0, 0, 0); fill-opacity: 0.5; white-space: pre; opacity: 1;" transform="translate(354.41999999999996,0)">4k</text></g><g class="x6tick"><text text-anchor="middle" x="0" y="453" style="font-family: 'Lucida Grande', 'Open Sans', verdana, arial, sans-serif; font-size: 9px; fill: rgb(0, 0, 0); fill-opacity: 0.5; white-space: pre; opacity: 1;" transform="translate(463.28,0)">6k</text></g><g class="x6tick"><text text-anchor="middle" x="0" y="453" style="font-family: 'Lucida Grande', 'Open Sans', verdana, arial, sans-serif; font-size: 9px; fill: rgb(0, 0, 0); fill-opacity: 0.5; white-space: pre; opacity: 1;" transform="translate(572.13,0)">8k</text></g><g class="x6tick"><text text-anchor="middle" x="0" y="453" style="font-family: 'Lucida Grande', 'Open Sans', verdana, arial, sans-serif; font-size: 9px; fill: rgb(0, 0, 0); fill-opacity: 0.5; white-space: pre; opacity: 1;" transform="translate(680.98,0)">10k</text></g><g class="x6tick"><text text-anchor="middle" x="0" y="453" style="font-family: 'Lucida Grande', 'Open Sans', verdana, arial, sans-serif; font-size: 9px; fill: rgb(0, 0, 0); fill-opacity: 0.5; white-space: pre; opacity: 1;" transform="translate(789.84,0)">12k</text></g><g class="x6tick"><text text-anchor="middle" x="0" y="453" style="font-family: 'Lucida Grande', 'Open Sans', verdana, arial, sans-serif; font-size: 9px; fill: rgb(0, 0, 0); fill-opacity: 0.5; white-space: pre; opacity: 1;" transform="translate(898.69,0)">14k</text></g><g class="x6tick"><text text-anchor="middle" x="0" y="453" style="font-family: 'Lucida Grande', 'Open Sans', verdana, arial, sans-serif; font-size: 9px; fill: rgb(0, 0, 0); fill-opacity: 0.5; white-space: pre; opacity: 1;" transform="translate(1007.54,0)">16k</text></g></g><g class="yaxislayer-above"><g class="y6tick"><text text-anchor="end" x="131" y="3.15" transform="translate(0,421.9428571428572)" style="font-family: 'Lucida Grande', 'Open Sans', verdana, arial, sans-serif; font-size: 9px; fill: rgb(0, 0, 0); fill-opacity: 0.5; white-space: pre; opacity: 1;">#Peptides quantified  </text></g></g><g class="overaxes-above"/></g></g><g class="polarlayer"/><g class="smithlayer"/><g class="ternarylayer"/><g class="geolayer"/><g class="funnelarealayer"/><g class="pielayer"/><g class="iciclelayer"/><g class="treemaplayer"/><g class="sunburstlayer"/><g class="glimages"/><defs id="topdefs-52c2d1"><g class="clips"/></defs><g class="layer-above"><g class="imagelayer"/><g class="shapelayer"/></g><g class="infolayer"><g class="g-gtitle"><text class="gtitle" x="550" y="25" text-anchor="middle" dy="0em" style="opacity: 1; font-family: 'Lucida Grande', 'Open Sans', verdana, arial, sans-serif; font-size: 20px; fill: rgb(42, 63, 95); fill-opacity: 1; white-space: pre;"><tspan class="line" dy="0em" x="550" y="25">Pipeline spectrum tracking</tspan><tspan class="line" dy="1.3em" x="550" y="25"><tspan style="font-size:70%" dy="-0.6em">11 samples</tspan><tspan dy="0.42em"></tspan></tspan></text></g><g class="g-xtitle"/><g class="g-x2title"/><g class="g-x3title"/><g class="g-x4title"/><g class="g-x5title"/><g class="g-x6title"/><g class="g-ytitle"/><g class="g-y2title"/><g class="g-y3title"/><g class="g-y4title"/><g class="g-y5title"/><g class="g-y6title"/></g></svg>