<?xml version="1.0" encoding="UTF-8"?>
<svg id="_图层_1" data-name="图层 1" xmlns="http://www.w3.org/2000/svg" viewBox="0 0 99.21 82.69">
  <defs>
    <style>
      .cls-1 {
        fill: #e47c4c;
      }

      .cls-2 {
        fill: #231815;
      }
    </style>
  </defs>
  <g>
    <path class="cls-2" d="m31.13,64.65c.55.22,1.06.61,1.51,1.16.36.45.61,1.01.74,1.66.08.44.12,1.07.12,1.91l-.02,8.17h-3.47v-8.25c0-.49-.08-.9-.24-1.21-.3-.6-.86-.9-1.66-.9-.94,0-1.58.39-1.94,1.16-.18.41-.27.91-.27,1.49v7.71h-3.41v-7.71c0-.77-.08-1.33-.24-1.68-.29-.63-.84-.94-1.68-.94-.97,0-1.62.31-1.95.94-.18.36-.27.89-.27,1.59v7.8h-3.44v-12.93h3.29v1.89c.42-.67.82-1.15,1.19-1.44.66-.51,1.51-.76,2.56-.76.99,0,1.79.22,2.4.65.49.4.86.92,1.12,1.56.44-.76.99-1.32,1.65-1.68.7-.36,1.47-.53,2.33-.53.57,0,1.13.11,1.69.33Z"/>
    <path class="cls-2" d="m39.99,64.6v7.81c0,.74.09,1.29.26,1.66.31.66.91.99,1.81.99,1.15,0,1.94-.47,2.37-1.4.22-.51.33-1.18.33-2.01v-7.05h3.44v12.96h-3.29v-1.83s-.11.16-.24.36c-.13.2-.28.37-.45.52-.53.48-1.04.8-1.54.97s-1.07.26-1.74.26c-1.91,0-3.2-.69-3.86-2.07-.37-.76-.56-1.88-.56-3.36v-7.81h3.47Z"/>
    <path class="cls-2" d="m54.94,77.56h-3.39v-17.52h3.39v17.52Z"/>
    <path class="cls-2" d="m56.92,67.13v-2.41h1.81v-3.61h3.35v3.61h2.1v2.41h-2.1v6.85c0,.53.07.86.2.99s.55.2,1.24.2c.1,0,.21,0,.33,0,.11,0,.23,0,.34-.02v2.53l-1.6.06c-1.6.06-2.69-.22-3.28-.83-.38-.39-.57-.99-.57-1.8v-7.98h-1.81Z"/>
    <path class="cls-2" d="m69.84,63.06h-3.44v-3.13h3.44v3.13Zm-3.44,1.55h3.44v12.96h-3.44v-12.96Z"/>
    <path class="cls-2" d="m80.37,65.05c.39.3.78.8,1.19,1.49v-1.92h3.27v18.07h-3.35v-6.74c-.25.52-.69.99-1.3,1.4s-1.45.61-2.51.61c-1.5,0-2.77-.6-3.83-1.8s-1.58-2.8-1.58-4.79c0-2.16.53-3.88,1.59-5.18,1.06-1.29,2.36-1.94,3.92-1.94,1.08,0,1.95.27,2.62.8Zm.72,8.51c.32-.66.48-1.49.48-2.5,0-.79-.14-1.5-.4-2.13-.48-1.13-1.33-1.69-2.55-1.69-.86,0-1.55.33-2.07.99-.52.66-.78,1.66-.78,3,0,.9.12,1.63.36,2.2.44,1.09,1.27,1.63,2.48,1.63s2-.5,2.49-1.5Z"/>
    <path class="cls-2" d="m95.74,69.25c-.06-.48-.23-.92-.49-1.31-.38-.52-.97-.78-1.78-.78-1.14,0-1.93.57-2.35,1.7-.22.6-.33,1.4-.33,2.4s.11,1.71.33,2.29c.41,1.08,1.17,1.62,2.29,1.62.79,0,1.36-.21,1.69-.64.33-.43.54-.98.61-1.66h3.46c-.08,1.03-.45,2.01-1.12,2.92-1.06,1.48-2.64,2.22-4.72,2.22s-3.62-.62-4.61-1.85c-.98-1.24-1.48-2.84-1.48-4.81,0-2.22.54-3.95,1.63-5.19,1.09-1.24,2.59-1.85,4.5-1.85,1.63,0,2.96.36,3.99,1.09,1.04.73,1.65,2.02,1.84,3.86h-3.47Z"/>
    <g>
      <rect class="cls-1" y="64.6" width="3.23" height="8.46"/>
      <rect class="cls-1" y="73.91" width="3.23" height="8.75"/>
      <g>
        <path class="cls-1" d="m6.15,67.28c1.03,0,1.78.38,2.24,1.15.4.67.62,1.43.67,2.27h3.51c-.03-2.06-.56-3.63-1.58-4.71-1.06-1.12-2.35-1.68-3.87-1.68-1.05,0-1.95.29-2.7.87-.12.09-.23.2-.35.31v2.7c.49-.61,1.18-.92,2.08-.92Z"/>
        <path class="cls-1" d="m9.06,71.54c-.06.99-.29,1.82-.73,2.45-.5.73-1.23,1.09-2.18,1.09-.66,0-1.23-.18-1.71-.53-.14-.1-.26-.22-.37-.35v2.61c.13.13.25.25.38.34.69.52,1.55.77,2.58.77,1.63,0,2.96-.6,3.99-1.79.93-1.08,1.44-2.62,1.53-4.59h-3.5Z"/>
      </g>
    </g>
  </g>
  <g>
    <g>
      <g>
        <path class="cls-2" d="m74.13,55.71H16.48c-.82,0-1.49-.67-1.49-1.49s.67-1.49,1.49-1.49h57.66c.82,0,1.49.67,1.49,1.49s-.67,1.49-1.49,1.49Z"/>
        <path class="cls-2" d="m38.85,55.71c-.82,0-1.49-.67-1.49-1.49V19.07c0-.82.67-1.49,1.49-1.49s1.49.67,1.49,1.49v35.16c0,.82-.67,1.49-1.49,1.49Z"/>
        <path class="cls-2" d="m29.02,55.71c-.82,0-1.49-.67-1.49-1.49V1.49c0-.82.67-1.49,1.49-1.49s1.49.67,1.49,1.49v52.73c0,.82-.67,1.49-1.49,1.49Z"/>
        <path class="cls-2" d="m49.19,55.71c-.82,0-1.49-.67-1.49-1.49v-19.97c0-.82.67-1.49,1.49-1.49s1.49.67,1.49,1.49v19.97c0,.82-.67,1.49-1.49,1.49Z"/>
        <path class="cls-2" d="m59.08,55.71c-.82,0-1.49-.67-1.49-1.49v-9.42c0-.82.67-1.49,1.49-1.49s1.49.67,1.49,1.49v9.42c0,.82-.67,1.49-1.49,1.49Z"/>
      </g>
      <path class="cls-1" d="m73.43,48.89c-.16,0-.31-.02-.47-.08-6.41-2.12-11.97-6.72-15.24-12.63-.65-1.17-1.2-2.38-1.74-3.54-.76-1.66-1.55-3.37-2.19-5.14-.25-.7-.48-1.4-.7-2.08-.22-.67-.44-1.37-.68-2.03-.38-1.05-.82-2.09-1.32-3.1-.07.19-.15.41-.23.65-.04.12-.07.22-.1.3-.41,1.17-.81,2.33-1.21,3.51-.69,2.03-1.41,4.13-2.19,6.19-.72,1.91-1.62,3.54-2.76,4.98-.56.71-1.17,1.16-1.87,1.36-1.26.37-2.3-.21-2.99-.6l-.12-.07c-1.55-.86-2.48-2.03-3.2-3.07-.39-.57-.86-1.14-1.39-1.71-.13.25-.26.52-.39.8l-.18.38c-.29.61-.58,1.23-.86,1.84-1,2.15-2.03,4.38-3.41,6.47-.79,1.2-1.69,2.57-2.92,3.61-1.61,1.36-3.54,2.46-5.32,3-1.57.48-3.09.47-4.56.45h-.25c-.82,0-1.48-.68-1.48-1.5,0-.82.69-1.5,1.5-1.48h.25c1.3.01,2.53.02,3.66-.32,1.38-.42,2.97-1.33,4.26-2.42.91-.77,1.65-1.89,2.36-2.98,1.25-1.9,2.2-3.93,3.19-6.09.29-.62.58-1.25.88-1.87l.17-.36c.38-.81.81-1.72,1.53-2.52.12-.13.48-.53,1.1-.63.39-.06.99-.02,1.59.55,1.07,1,1.98,2.04,2.7,3.08.74,1.08,1.37,1.7,2.19,2.15l.13.07c.22.12.58.33.72.34,0,0,.13-.07.34-.35.96-1.22,1.69-2.55,2.31-4.19.76-2.01,1.47-4.09,2.16-6.1.4-1.18.81-2.36,1.22-3.53.02-.06.05-.14.08-.23.4-1.22,1.35-4.09,3.63-3.49.93.25,1.36,1.05,1.53,1.35.78,1.45,1.46,2.96,2.02,4.5.26.71.49,1.43.72,2.13.21.66.43,1.34.67,1.99.6,1.65,1.36,3.31,2.09,4.91.54,1.17,1.05,2.28,1.64,3.35,2.91,5.26,7.86,9.36,13.57,11.25.78.26,1.2,1.1.95,1.88-.21.63-.79,1.02-1.41,1.02Z"/>
    </g>
    <path d="m56.89,18.32c-.09-6.24,4.13-11.21,10.06-12.11,4.31-.65,8.07.54,11.03,3.75,2.41,2.61,3.45,5.75,3.03,9.35-.26,2.29-1.09,4.32-2.53,6.1-.23.29-.19.41.06.65,1.67,1.62,3.33,3.26,4.98,4.9.87.86.93,1.77.17,2.53-.8.79-1.72.75-2.59-.12-1.65-1.64-3.31-3.28-4.94-4.94-.32-.33-.52-.35-.91-.1-1.89,1.22-4.02,1.83-6.24,1.8-5.8-.07-10.57-3.65-11.92-9.65-.18-.8-.23-1.64-.2-2.15Zm12.07,8.66c4.72.13,8.71-3.72,8.99-8.3.34-5.55-4.01-9.41-8.65-9.56-5.51-.17-9.13,4.02-9.34,8.51-.25,5.43,4.37,9.55,9,9.35Z"/>
  </g>
</svg>