<svg class="main-svg" xmlns="http://www.w3.org/2000/svg" xmlns:xlink="http://www.w3.org/1999/xlink" width="2200" height="1000" style="" viewBox="0 0 1100 500"><rect x="0" y="0" width="1100" height="500" style="fill: rgb(255, 255, 255); fill-opacity: 1;"/><defs id="defs-9f0f4b"><g class="clips"><clipPath id="clip9f0f4bxyplot" class="plotclip"><rect width="1025" height="385"/></clipPath><clipPath class="axesclip" id="clip9f0f4bx"><rect x="60" y="0" width="1025" height="500"/></clipPath><clipPath class="axesclip" id="clip9f0f4by"><rect x="0" y="50" width="1100" height="385"/></clipPath><clipPath class="axesclip" id="clip9f0f4bxy"><rect x="60" y="50" width="1025" height="385"/></clipPath></g><g class="gradients"/><g class="patterns"/></defs><g class="bglayer"/><g class="layer-below"><g class="imagelayer"/><g class="shapelayer"/></g><g class="cartesianlayer"><g class="subplot xy"><g class="layer-subplot"><g class="shapelayer"/><g class="imagelayer"/></g><g class="minor-gridlayer"><g class="x"/><g class="y"/></g><g class="gridlayer"><g class="x"><path class="xgrid crisp" transform="translate(249.88,0)" d="M0,50v385" style="stroke: rgb(0, 0, 0); stroke-opacity: 0.05; stroke-width: 1px;"/><path class="xgrid crisp" transform="translate(439.76,0)" d="M0,50v385" style="stroke: rgb(0, 0, 0); stroke-opacity: 0.05; stroke-width: 1px;"/><path class="xgrid crisp" transform="translate(629.64,0)" d="M0,50v385" style="stroke: rgb(0, 0, 0); stroke-opacity: 0.05; stroke-width: 1px;"/><path class="xgrid crisp" transform="translate(819.53,0)" d="M0,50v385" style="stroke: rgb(0, 0, 0); stroke-opacity: 0.05; stroke-width: 1px;"/><path class="xgrid crisp" transform="translate(1009.41,0)" d="M0,50v385" style="stroke: rgb(0, 0, 0); stroke-opacity: 0.05; stroke-width: 1px;"/></g><g class="y"><path class="ygrid crisp" transform="translate(0,384.19)" d="M60,0h1025" style="stroke: rgb(0, 0, 0); stroke-opacity: 0.05; stroke-width: 1px;"/><path class="ygrid crisp" transform="translate(0,333.38)" d="M60,0h1025" style="stroke: rgb(0, 0, 0); stroke-opacity: 0.05; stroke-width: 1px;"/><path class="ygrid crisp" transform="translate(0,282.58000000000004)" d="M60,0h1025" style="stroke: rgb(0, 0, 0); stroke-opacity: 0.05; stroke-width: 1px;"/><path class="ygrid crisp" transform="translate(0,231.77)" d="M60,0h1025" style="stroke: rgb(0, 0, 0); stroke-opacity: 0.05; stroke-width: 1px;"/><path class="ygrid crisp" transform="translate(0,180.96)" d="M60,0h1025" style="stroke: rgb(0, 0, 0); stroke-opacity: 0.05; stroke-width: 1px;"/><path class="ygrid crisp" transform="translate(0,130.15)" d="M60,0h1025" style="stroke: rgb(0, 0, 0); stroke-opacity: 0.05; stroke-width: 1px;"/><path class="ygrid crisp" transform="translate(0,79.35)" d="M60,0h1025" style="stroke: rgb(0, 0, 0); stroke-opacity: 0.05; stroke-width: 1px;"/></g></g><g class="zerolinelayer"><path class="yzl zl crisp" transform="translate(0,435)" d="M60,0h1025" style="stroke: rgb(0, 0, 0); stroke-opacity: 0.05; stroke-width: 2px;"/></g><g class="layer-between"><g class="shapelayer"/><g class="imagelayer"/></g><path class="xlines-below"/><path class="ylines-below"/><g class="overlines-below"/><g class="xaxislayer-below"/><g class="yaxislayer-below"/><g class="overaxes-below"/><g class="overplot"><g class="xy" transform="translate(60,50)" clip-path="url(#clip9f0f4bxyplot)"><g class="scatterlayer mlayer"><g class="trace scatter trace81a538" style="stroke-miterlimit: 2; opacity: 1;"><g class="fills"/><g class="errorbars"/><g class="lines"><path class="js-line" d="M0,383.34L14.25,382.27L16.64,381.62L24.69,380.07L26.59,376.46L30.89,372.67L32.77,370.58L37.03,352.48L38.95,361.95L43.2,315.36L45.11,317.42L47.52,317.06L49.38,328.36L51.29,336.88L53.2,353.63L55.57,357.6L57.48,355.05L61.71,320.98L63.61,288L67.93,239.64L69.83,253.9L71.72,189.9L74.1,218.83L75.98,213.52L77.89,226.36L80.23,254.73L82.18,231L84.05,273.11L86.4,247.25L90.19,322.99L92.58,314.68L94.51,279.22L96.41,274.91L98.75,266.89L100.67,279.86L104.91,245.62L106.85,169.6L108.73,216.93L111.12,236.11L113,252.25L114.95,225.53L117.28,245.62L119.17,248.8L123.45,302.74L125.37,290.14L127.31,304.39L129.59,293.57L131.52,288.64L133.41,290.52L135.78,287.37L137.68,279.46L139.59,279.24L141.94,249.64L145.77,261.55L148.12,287.86L150.05,294.08L151.94,283.51L153.81,294.44L156.22,314.67L159.99,297.1L162.38,278.87L164.28,302.49L166.15,302.85L168.58,315.57L170.46,284.29L172.33,271.35L174.7,277.93L178.51,299.26L180.88,291.66L182.83,302.19L184.7,287.64L187.07,301.67L188.95,283.06L193.23,313.26L195.12,301.66L197.03,317.3L199.4,320.12L203.19,298.52L205.62,316.59L207.45,282.27L209.34,288.86L211.74,294.53L213.66,283.61L215.53,282.3L217.9,297.89L219.8,309.83L221.75,317.19L224.07,327.35L225.99,324.05L227.88,266.35L230.25,246.65L232.15,278.48L234.04,292.24L236.42,303.05L238.31,287.02L240.26,290.16L242.58,298.8L244.49,322.03L246.41,301.01L248.77,305.77L250.66,296.93L254.92,327.73L256.87,320.78L258.74,324.86L260.67,303.09L262.99,320.01L264.97,308.03L266.84,315.9L269.17,312.23L271.08,318.94L273,312.16L275.35,316.76L277.26,311.55L279.2,302.15L281.54,304.81L283.4,312.44L285.33,304.18L289.6,315.45L291.55,308.15L293.9,306.49L295.76,318.27L297.69,314.33L300.09,320.65L301.97,309.29L303.85,328.21L306.23,334.38L308.11,317.3L309.99,297.32L312.38,328.01L314.27,339.89L316.16,327.78L318.56,318.23L320.44,306.28L322.36,287.3L324.72,277.77L326.61,295.5L328.5,275.94L330.87,338L332.85,308.43L334.72,292.64L337.05,323.77L338.98,331.8L340.84,327.44L343.23,325.61L345.13,330.24L347.04,328.58L349.44,318.75L351.34,320.71L353.2,314.77L355.56,304.37L357.52,314.88L359.36,305.86L361.26,306.81L363.68,327.17L365.55,330.63L369.87,331.16L371.73,328.34L373.6,330.8L376.05,332.65L377.88,319.36L379.79,327.93L382.14,326.64L384.11,334.08L385.97,340.3L388.34,312.48L390.27,320.2L392.14,293.81L394.5,320.27L396.41,315.05L398.3,314.01L400.65,317.05L402.55,322.03L404.54,321.44L406.84,315.8L408.72,316.33L410.63,321.41L413.07,334.8L414.96,328.54L416.85,332.28L419.17,326.82L421.07,334.9L422.97,326.02L425.35,325.4L427.27,316.66L429.18,321.34L431.51,321.02L433.47,326.12L435.32,339.06L437.71,322.39L439.6,336.94L441.54,342.19L443.91,328.12L445.78,337.04L447.67,332.91L450.11,331.79L452.01,330.82L453.88,314.15L456.26,332.14L458.14,336.5L460.07,324.59L461.91,332.67L464.34,341.14L466.23,330.67L468.14,329.27L470.49,332.13L474.32,340.91L476.7,337.4L478.6,325.97L480.42,334.91L482.81,335.03L484.78,339.93L486.58,349.14L488.95,329.56L490.85,321.67L492.74,317.09L495.21,330.38L497.02,324.61L498.93,322.62L501.33,309.46L503.27,318.87L505.16,317.08L507.56,311.55L509.43,317.15L511.31,339.19L513.63,337.4L517.46,338.46L519.82,342.13L521.73,340.82L523.69,343.29L526.04,340.5L527.94,335.53L529.82,343.35L532.24,336.36L534.15,328.16L535.98,334.96L540.27,323.39L542.12,334.68L544.52,341.42L546.41,352.41L548.33,349.44L550.76,308.91L552.56,314.01L554.46,300.6L556.88,308.71L558.81,322.59L563.01,307.56L564.91,313.76L568.73,338.94L571.13,335.71L574.92,347.89L577.32,341.58L579.19,349.81L581.08,353.08L585.41,344.63L587.32,332.88L589.58,344.97L591.51,344.48L593.46,336.41L595.88,341.55L597.68,340.14L599.65,344.17L601.97,341.19L603.94,342.72L605.85,343.91L608.1,338.67L610.01,341.33L611.96,346.04L614.36,335.05L616.26,335.4L618.08,337.53L620.51,328.43L622.35,326.76L624.33,310.93L626.63,322.87L628.52,317.57L630.47,323.83L632.8,300.6L634.69,311.75L636.6,317.62L639,321.13L640.93,319.7L645.2,339.95L647.12,324.18L648.96,341.5L651.36,346.34L653.23,340.97L655.15,348.16L657.52,345.65L659.39,336.61L661.35,339.93L663.69,341.83L665.6,355.77L667.46,351.03L669.35,354.45L671.73,346.37L673.64,347.95L675.62,342.67L677.93,350.44L679.86,346.56L681.72,342.56L684.17,333.82L686.03,337L687.89,346.39L690.23,344.48L692.23,348.1L694.12,348.6L696.42,346.58L698.32,340.75L700.32,351.68L702.61,353.79L704.54,354.44L706.4,345.09L708.75,343.84L710.69,346.52L712.56,354.14L715.03,346.47L716.93,347.54L718.75,351.14L721.11,351.74L723.07,335.57L724.96,337.51L727.35,336.08L729.15,343.9L731.06,348.65L733.44,351.59L735.35,355.4L737.24,353.72L739.61,347.48L741.5,350.16L743.43,350.63L745.85,343.51L747.67,341.42L749.6,330.96L751.97,330.8L753.91,332.75L755.77,362.32L758.15,346.33L760.06,347.22L761.91,339.95L764.39,340.76L766.2,346.25L768.09,342.56L770.01,336.09L772.39,344.15L774.29,344.14L776.3,343.97L778.59,347.3L780.5,347.13L782.41,359.64L784.7,344.1L786.65,341.37L788.55,337.15L790.9,334.65L792.79,327.98L794.69,333.93L797.08,340.81L798.97,353.6L800.84,357.09L803.25,363.54L807.01,364.63L809.39,357.66L811.34,358L813.27,355.59L815.6,345.14L817.53,347.09L819.39,350.43L821.74,358.83L823.72,356.22L825.56,346.72L828,346.48L829.87,343.77L831.77,336.7L834.07,341.47L836.01,355.47L837.88,353.2L840.27,338.47L842.17,345.49L844.05,354.22L846.46,345.12L850.25,356.1L852.61,353.02L854.57,363.25L856.45,353.83L858.81,348.32L860.72,356.77L862.63,362.16L864.93,358.38L868.76,358.19L871.19,338.57L873.06,349.07L874.97,334.77L876.86,336.48L879.25,341.69L881.13,332.69L883.04,334.78L887.26,359.47L889.23,349.24L891.56,356.87L893.43,356.36L895.37,355.65L897.74,351.76L899.63,342.15L901.53,341.21L903.89,343.86L905.84,352.16L907.64,344.37L910.02,349.12L912,360.38L913.86,363.33L916.18,363.2L918.09,360.61L920.01,361.92L922.38,359.53L924.37,362.82L926.2,364.29L930.51,366.71L932.37,357.47L934.75,359.24L936.64,358.1L938.55,365.28L940.91,364.46L942.85,363.58L944.72,354.83L947.12,351.16L948.98,343.25L950.93,347.92L953.25,342.22L955.12,353.95L957.03,360.32L959.43,365.68L961.31,360.55L963.22,351.46L965.56,353.32L967.47,357.62L969.46,360.15L971.79,362.33L973.73,361.25L977.48,365.81L979.84,364.76L981.76,350.25L983.62,360.12L987.93,357.56L989.85,347.72L992.18,350.12L994.09,358.33L995.99,345.83L998.43,343.96L1000.25,338.57L1002.17,296.77L1006.44,168.55L1008.28,197.85L1012.59,328.32L1014.5,342.06L1018.8,380.79L1020.73,376.83L1022.99,382.73L1024.9,383.29" style="vector-effect: none; fill: none; stroke: rgb(124, 181, 236); stroke-opacity: 1; stroke-width: 2px; opacity: 1;"/></g><g class="points"/><g class="text"/></g><g class="trace scatter traceffb412" style="stroke-miterlimit: 2; opacity: 1;"><g class="fills"/><g class="errorbars"/><g class="lines"><path class="js-line" d="M0,382.42L1.93,381.74L4.27,382.09L10.47,381.4L12.37,380.43L16.61,380.37L18.52,379.45L20.42,378.12L22.81,378.33L24.71,377.04L26.61,367.31L28.96,367.45L30.86,366.07L32.78,361.81L35.17,351.61L37.06,338.16L38.93,314.68L41.32,329.04L43.26,281.26L45.09,235.02L47.53,266.63L53.19,327.95L55.57,330.03L59.36,308.49L61.72,265.02L63.68,247.14L65.54,211.63L67.9,181.05L69.81,194.17L74.08,150.6L75.96,132.75L77.89,85.65L80.24,232.06L82.16,226.63L84.04,235.72L86.42,219L88.33,244.82L90.23,271.03L92.58,239.71L96.37,194.13L98.77,235.9L100.65,227.14L102.61,245.66L104.97,224.59L106.81,229.95L108.75,226.32L111.11,179.41L113.01,190.34L114.97,257.71L117.3,230.99L119.17,242.05L121.07,252.85L123.45,234.24L125.32,262.26L127.27,229.71L129.64,194.43L131.53,237.63L133.41,234.1L135.8,226.84L137.68,233.27L139.59,251.34L141.96,268.34L143.86,248.43L145.79,235.04L148.13,260.75L150.05,221.2L151.96,257.06L153.82,235.27L156.2,230.08L158.09,265.89L159.98,246.6L162.36,274.03L164.28,264.39L166.15,278.65L168.56,268.37L170.47,223.44L172.39,242.47L174.75,250.12L176.61,246.1L178.51,256.68L180.89,280.7L182.82,260.87L184.74,255.65L187.05,228.8L188.98,268.94L193.22,275.77L195.12,262.96L197.03,287.31L199.39,290.63L203.19,241.53L205.57,192.19L209.38,214.06L211.73,253.2L213.62,254.34L215.55,264.91L217.93,284.84L219.84,275.14L221.72,249.82L224.1,280.31L226,287.47L227.87,238.97L230.3,274.25L232.14,318.89L236.43,290.64L238.32,283.84L240.24,279.53L242.58,295.69L244.51,273.02L246.51,285.64L248.79,261.18L250.7,290.17L252.56,250.88L254.94,285.51L256.82,274.68L258.76,285.51L260.64,284.72L262.99,278.95L264.98,261.93L266.84,266.83L269.19,284.42L271.13,292.83L273.01,290.35L275.34,307.23L277.28,298.53L279.13,278.5L281.54,246.93L283.44,294.52L285.31,304.58L287.73,295.83L289.57,290.85L291.5,283.35L293.86,299.42L295.81,256.62L297.65,228.22L300.04,203.61L303.81,258.16L306.2,255.97L308.12,292.8L310.1,310.41L312.37,285.06L314.28,288.55L318.6,316.43L320.49,308.16L322.4,309.76L324.77,302.11L328.54,289.14L330.94,291.23L332.8,294L334.69,300.88L337.06,281.39L338.99,293.97L340.86,283.59L343.25,301.35L345.14,292.71L347.08,305.5L349.46,300.51L351.31,310.01L353.22,312.86L355.6,308.11L357.48,309.84L359.38,305.38L361.31,304.11L363.69,293.73L365.58,297.92L367.47,282.11L371.74,241.7L373.65,251.04L377.88,265.63L379.81,263.47L382.16,300.82L384.04,301.12L385.98,309.43L388.39,311.66L390.23,305.75L392.17,313.06L394.58,313.26L396.48,312.02L398.29,309.34L400.72,307.39L402.61,287.06L404.46,293.17L406.83,304.19L408.78,296.29L410.65,306.69L413.06,311.37L414.91,302.27L416.81,315.78L421.07,296.78L422.97,317.43L425.35,312.7L427.33,306.69L429.19,317.71L431.53,309.93L433.45,313.03L435.39,312.77L437.73,316.83L439.61,312.78L441.49,302.49L443.95,296.05L445.76,276.18L447.66,292.16L450.04,306.97L451.97,313.88L453.84,309.81L456.19,319.03L458.15,331.48L460.03,304.12L461.89,316.25L464.26,312.26L466.19,309L468.06,323.53L470.46,300.1L472.35,272.43L474.3,281.38L476.63,282.98L478.56,307.15L480.41,292.45L482.78,307.33L484.68,302.39L486.6,295.56L488.97,302.29L490.89,316.6L492.76,312.09L495.17,323.91L497.03,315.16L498.94,320.88L501.36,303.64L503.23,305.73L505.09,315.37L507.57,299.19L509.4,320.95L511.26,319.07L513.7,308L515.56,282.34L517.52,290.86L519.83,316.83L521.7,303.09L523.61,297.49L526.05,276.75L527.87,279.39L529.78,273.19L532.14,290.47L534.14,270.86L536.01,290.92L538.31,291.35L540.27,326.84L542.21,289.41L544.54,310.15L546.4,309.58L548.31,314.99L550.69,324.71L552.65,347.53L554.47,338.16L556.92,326.7L558.77,330.35L560.67,328.21L563.06,340.28L566.85,325.54L568.78,337.37L571.12,328.22L573.02,310.31L574.97,323.01L577.3,326.74L581.1,324.55L583.53,314.83L587.23,331.86L589.67,319.32L591.58,321.08L593.46,312.28L595.79,293.9L597.69,292.4L599.58,298.46L601.94,277.64L603.9,278.97L605.73,282.72L608.11,265.33L610.02,283.36L611.93,287.39L614.31,302.89L616.19,318.82L618.09,323.73L622.36,345.9L624.25,320.55L626.65,319.08L628.54,326.33L630.5,313.4L632.83,332.03L634.69,330.94L636.62,301.06L638.99,300.7L640.85,312.43L642.79,337.91L645.14,326.89L647.09,327.97L648.94,347.33L651.35,331.53L653.28,341.35L655.15,338.28L657.5,327.16L659.44,331.73L661.31,328.73L663.66,336.6L665.6,332.35L667.51,337.9L669.39,325.41L671.83,324.7L673.63,325.08L675.52,327.11L677.93,336.96L679.88,345.43L681.69,337.2L684.07,318.46L686.05,341.23L687.91,326.68L690.31,326.75L694.03,339.13L696.49,336.8L698.3,327.21L700.26,322.53L704.48,331.69L706.45,332.2L708.75,325.83L710.7,313.92L712.56,322.43L714.96,327.98L716.87,341.79L718.74,344.35L721.1,339.19L722.98,341.35L724.98,328.1L727.33,302.93L729.17,303.92L731.1,303.56L733.43,313.34L735.42,334.33L737.32,326.63L739.68,336.24L741.55,328.81L743.44,330.55L745.86,339.7L747.69,341.16L749.59,324.43L751.96,328.05L753.87,318.01L755.74,338.34L758.16,319.29L760.05,333.25L762,331.71L764.33,331.87L766.25,336.59L768.09,311.14L770.05,309.39L772.4,313.98L774.29,323.09L776.22,345.26L780.49,353.42L782.4,344.42L784.76,333.22L786.67,354.11L788.63,349.31L790.92,331.87L792.77,332.47L794.73,329.06L797.13,343.29L799.02,330.76L800.83,346.71L803.25,343.32L805.16,340.94L807.03,352.78L809.38,352.83L811.35,331.18L813.31,339.21L815.6,336.04L817.51,338.22L819.35,329.78L821.82,332.16L823.62,331.84L825.53,322.05L827.94,333.02L829.82,334.67L831.7,326.95L834.07,340.9L836.01,344.42L837.88,341.85L840.33,342.13L842.15,346.42L844.15,345.76L846.45,347.55L848.36,331.95L850.33,337.62L852.65,328.62L854.59,327.35L856.38,330.48L858.75,348.7L860.75,343.75L862.55,344.71L864.94,340.8L866.82,345.02L868.79,354.39L871.12,349.47L873.09,337.51L874.95,345.89L876.86,348.6L879.19,340.46L881.11,350.56L883.04,340.42L885.33,357.22L887.31,365.19L889.12,362.93L891.5,365.84L893.43,366.45L895.32,366.45L897.68,364.74L901.53,371.41L903.96,370.52L905.77,372.77L907.72,370.89L910.11,368L912.02,369.16L913.81,371.33L916.28,372.34L920.06,365.8L922.43,366.52L924.26,368.35L926.18,363.81L928.59,367.89L930.51,367.75L934.74,370.96L936.61,374.17L938.55,374.89L940.9,368.17L942.77,366.38L944.68,368.96L947.13,373.18L948.98,372.33L950.84,373.26L953.32,372.78L955.14,374.62L957.14,373.72L963.3,374.61L965.58,370.3L967.57,369.57L969.42,370.73L971.75,365.35L973.65,365.25L975.59,369.53L977.46,367.18L981.77,374.34L983.65,373.73L986.06,371.5L987.95,372.67L992.22,373.25L994.11,370.72L995.96,369.72L998.36,366.32L1000.24,358.84L1002.16,270.72L1004.52,293.25L1006.42,264.6L1008.33,248.68L1010.73,291.48L1012.61,299.92L1014.49,335.99L1018.8,379.92L1020.69,379.13L1023.05,382.79L1024.92,383.96" style="vector-effect: none; fill: none; stroke: rgb(67, 67, 72); stroke-opacity: 1; stroke-width: 2px; opacity: 1;"/></g><g class="points"/><g class="text"/></g><g class="trace scatter tracec87cbc" style="stroke-miterlimit: 2; opacity: 1;"><g class="fills"/><g class="errorbars"/><g class="lines"><path class="js-line" d="M0,381.66L1.9,382.38L4.28,381.79L6.17,382.6L8.07,381.64L12.36,381.46L14.27,380.92L20.42,379.26L22.81,379.36L24.72,376.92L26.61,368.9L28.98,367.17L30.87,367.41L32.77,364.29L35.15,356.61L37.03,343.86L38.94,348.26L43.25,283.35L45.14,259.94L49.38,313.33L51.27,317.15L53.17,342.96L55.54,347.18L57.45,331.07L59.34,322.16L63.64,237.97L65.57,249.22L67.94,188.89L69.81,219.27L71.73,201.34L74.09,170.86L75.96,150.39L77.89,213.55L80.25,234.99L82.15,181.01L86.43,282.04L88.32,254.87L90.2,241.28L92.61,252.91L94.51,279.48L96.39,280.37L100.65,207.02L102.56,155.25L104.95,228.45L106.82,226.18L108.74,226.6L111.12,229.24L113.03,172.19L114.89,173.01L117.28,201.69L119.19,262.28L121.09,201.73L123.46,224.18L125.33,254.98L127.25,249.5L129.63,228.6L131.5,248.05L133.42,250.91L135.77,203.69L137.7,213.18L139.59,208.9L141.96,213.69L143.86,226.69L145.75,247.04L148.16,220.86L150.05,224.25L151.91,247L153.83,271.17L156.2,224.79L158.12,254.36L159.98,238.55L162.36,229.78L164.3,244.39L166.18,275.23L168.57,267.83L170.46,264.81L172.36,252.32L174.73,248.18L176.64,227.37L178.52,229.57L180.87,244.1L182.8,266.53L184.7,262.23L187.06,277.74L188.98,256.68L190.85,252.95L193.21,245.5L197.07,256.27L199.42,246.36L203.18,282.93L205.55,266.33L207.49,279.86L209.37,253.27L211.73,176.48L213.63,221.59L215.55,252.97L217.9,237.37L219.79,257.17L221.76,258.02L224.1,251.54L226.03,288.29L227.89,291.17L230.33,275.44L232.18,305.96L234.04,249.33L238.35,319.68L240.23,301.63L242.64,281.35L244.52,279.56L246.45,276.57L248.82,268.68L250.65,270.55L252.6,286.33L254.96,266.09L256.82,289.78L258.73,289.49L260.63,264.35L262.99,274.2L264.94,272.16L266.88,302.41L269.17,279.08L271.12,258.86L272.99,279.55L275.37,284.18L277.25,289.69L279.16,285.18L281.61,284.86L283.41,264.38L285.35,273.22L287.69,279.95L289.58,280.25L291.53,275.6L293.86,294.34L295.75,287.81L297.67,287.51L300.04,282.18L302.02,266.61L303.85,231.24L306.21,233.72L308.13,227.14L310.02,249.93L312.41,249.17L314.27,296.92L316.23,303.56L318.55,280.97L320.44,270.51L322.37,302.29L324.73,307.96L326.62,309.9L328.56,311.76L330.93,300.63L332.84,298.51L334.68,286.1L337.07,276.85L338.94,285.59L340.87,287L343.22,293.47L345.21,319.72L347.08,299.76L349.43,304.28L351.35,301.46L353.23,295.75L355.6,300.34L357.49,284.32L359.36,292.02L363.64,288.91L365.57,288.79L367.46,319.16L369.82,272.77L371.74,275.36L373.63,301.09L375.97,270.64L377.9,270.69L379.78,262.11L382.16,272.19L384.04,255.12L385.96,254.13L388.35,293.5L390.28,284.24L392.13,305.37L394.55,299.37L396.49,291.94L398.37,311.74L400.75,313.88L402.6,306.71L404.46,315.99L406.82,302.13L408.74,311.27L410.68,302.14L413.04,309.09L414.94,307.75L416.83,312.29L419.2,302.97L421.18,309.19L423.02,300.48L425.38,298.75L427.26,292.1L429.17,300.32L431.55,316.55L433.42,301.07L435.34,294.01L439.59,307.22L441.48,308.9L443.88,304.97L445.85,290.47L447.73,296.61L450.1,289.38L452,285.64L453.84,291.83L456.24,313.95L458.14,316.78L459.99,294.26L461.91,297.25L466.22,322.81L468.06,324.49L470.45,317.97L472.37,306.17L474.24,299.9L476.66,275.89L478.58,249.78L480.4,282.43L482.83,276.31L484.67,297.58L486.62,302.05L489,304.25L490.84,310.87L492.85,299.49L495.12,305.12L497.02,319.81L498.92,323.48L501.34,319.74L503.23,325.31L505.16,316.45L507.47,308.15L509.41,290.2L513.68,307.62L515.58,308.25L517.45,319.91L519.83,286.82L521.71,293.49L523.61,291.34L526.01,303.37L527.97,306.21L529.87,288.24L532.22,274.31L534.08,280.52L535.95,269.95L538.34,284.68L540.27,267.43L542.19,280.62L544.5,275.92L546.45,306.45L548.34,305.17L550.73,294.32L552.62,308.92L554.52,321.78L556.91,328.17L558.82,324.68L560.63,324.48L563.09,323.24L564.93,323.25L568.78,320.03L571.07,324.19L573.01,314.76L574.94,310.7L577.32,325.3L579.16,324.77L581.05,325.41L583.48,328.01L585.44,309.07L587.25,309.08L589.6,314.08L591.59,339.01L593.41,308.99L595.76,315.28L597.65,292.56L599.62,323.42L601.96,282.61L603.93,295.46L605.75,294.88L608.11,213.59L610.06,281.97L611.92,294.63L614.3,297.68L616.22,295.48L618.07,299.37L620.55,289.33L622.4,316.57L624.24,322.09L626.61,334.22L628.57,328.57L630.53,291.16L632.82,332.28L634.68,323.92L636.64,333.72L639.01,315.45L640.86,309.76L642.77,299.5L645.15,304.69L647.06,319.49L648.94,321.26L651.31,322.54L653.31,325.97L655.13,336.59L657.48,331.05L659.46,329.52L661.37,329.03L663.68,318.85L665.55,327.67L667.5,336.39L669.4,326.43L671.75,329.45L673.71,322.03L675.53,323.88L677.88,316.97L679.79,326.96L681.72,329.89L684.1,342.07L685.98,337.47L687.91,312.08L690.27,329.93L692.15,322.21L694.03,322.53L696.39,323.71L698.41,337.84L700.2,328.87L702.6,299.69L704.47,319.86L706.47,316.11L708.79,301.32L710.67,324.39L712.58,332.85L714.93,319.85L716.86,341.01L718.77,331.47L721.15,340.89L723.07,334.56L725,332.04L727.29,338.83L729.22,302.72L731.08,306.07L733.46,306.97L735.34,305.67L737.32,322.88L739.67,328.73L741.5,334.15L743.51,322.47L745.86,308.68L747.69,323.33L749.59,326.26L751.96,336.29L753.83,321.61L755.73,322.35L758.18,324.83L760.05,320.47L761.91,319.77L764.31,330.3L766.2,331.06L768.08,334.33L769.99,316.58L772.37,304.63L774.35,318.99L776.21,323.99L778.59,331.17L780.47,333.75L782.34,343.16L784.79,327.98L786.63,343.35L788.53,346.81L790.87,347.01L792.76,352.2L794.72,344.86L797.08,323.75L798.95,323.94L800.85,335L803.27,340.94L805.2,342.35L807.08,357.92L809.39,359.35L811.3,364.39L813.18,365.07L815.62,369.1L817.5,367.04L819.39,370.06L821.82,368.98L825.52,373L827.89,372.48L829.81,373.42L831.71,372.87L834.09,372.92L835.97,369.95L837.91,372.31L840.3,373.06L842.17,370.04L844.05,371.13L846.41,370.67L848.35,371.74L850.23,370.08L852.6,370.03L854.47,365.2L856.4,368.41L858.75,362.11L860.7,369.62L864.93,363.96L866.91,348.99L868.76,350.51L871.11,341.91L873.03,335.95L874.94,337.37L876.78,345.57L879.22,335.27L881.17,339.89L883.03,332.7L885.41,335.91L887.33,330.26L889.19,342.51L891.5,364.71L893.43,366.64L895.3,369.58L897.71,368.6L899.67,371.01L901.53,355.52L903.88,355.19L905.75,358.9L907.66,353.47L910.09,357.72L911.94,355.43L913.87,346.55L916.21,341.43L918.18,357.54L920,356.03L922.52,339.51L924.32,336.46L926.24,321.35L928.61,323.71L930.43,332.6L932.35,333.25L934.79,336.73L936.68,337.99L940.91,360.49L942.82,345.83L944.78,346.64L947.1,332.82L948.99,351.12L950.84,350.86L953.32,358.53L955.12,339.92L957.06,348.48L959.48,347.34L963.22,356.76L965.58,358.36L967.48,353.56L969.39,343.38L971.79,343.41L973.64,342.56L975.52,313.71L977.46,333.05L979.83,339.25L981.77,338.95L986.05,354.3L987.96,347.96L989.79,352.48L992.21,345.49L994.05,343.6L996.05,347.52L998.32,341.63L1000.26,327.02L1002.13,256.79L1004.53,240.12L1006.39,208.24L1008.28,198.02L1012.59,300.65L1014.45,334.98L1018.73,377.4L1020.63,379.76L1023.03,383.63L1024.9,384.31" style="vector-effect: none; fill: none; stroke: rgb(144, 237, 125); stroke-opacity: 1; stroke-width: 2px; opacity: 1;"/></g><g class="points"/><g class="text"/></g><g class="trace scatter tracee2e128" style="stroke-miterlimit: 2; opacity: 1;"><g class="fills"/><g class="errorbars"/><g class="lines"><path class="js-line" d="M0,381.78L10.45,381.98L12.36,381.07L14.24,381.09L16.65,379.92L22.81,378.93L24.7,378L26.6,371.92L28.99,367.84L30.87,369.58L32.77,367.67L35.16,357.59L37.06,356.83L38.95,361.44L41.32,304.33L43.2,308.36L45.1,280.24L47.52,285.56L49.39,320.7L51.32,320.62L53.17,349.83L55.58,349.82L57.44,339.35L59.37,324.1L61.71,297.62L63.64,255.76L65.58,233.97L67.94,243.9L69.79,230.34L71.69,152.24L74.08,195.25L76.02,157.74L77.92,208.3L80.24,227L82.15,218.97L84.02,198.13L86.46,287.02L88.33,273.64L90.23,273.74L92.64,276.37L94.47,269.28L96.43,283.82L98.77,271.25L100.69,246.18L102.61,155.04L104.96,168.39L106.81,232.07L108.74,190.56L111.13,225.36L113.01,173.29L114.9,203.48L117.28,203.67L119.17,219.46L121.06,277.85L123.48,235.72L125.37,271.85L127.24,278.01L129.6,291.88L131.51,264.73L133.43,255.45L135.79,260.4L137.69,210.53L139.61,227.73L141.95,214.89L143.84,264.29L145.77,237.7L148.12,255.57L150.06,242.88L151.94,272.45L153.86,270.25L156.19,275.44L159.99,306.18L162.36,283.29L164.25,297.99L166.19,256.17L168.56,251.14L170.43,265.49L172.32,270.72L174.72,291.96L176.61,294.15L178.55,287.27L180.87,300.06L182.78,265.16L184.71,257.95L187.05,292.04L188.96,285.71L190.84,288.64L193.22,305.46L195.11,304.42L197.04,275.98L199.39,281.14L201.29,265.28L203.2,277.44L205.57,295.22L207.52,287.09L209.39,272.62L211.73,282.71L215.53,314.7L217.96,306.98L219.82,313.14L221.7,217.72L225.97,236.84L227.93,260.17L230.25,292.51L232.2,288.15L234.05,283.32L236.44,300.21L238.32,291.17L240.26,289.8L242.62,306.61L244.5,289.87L246.43,285.83L248.83,303.04L250.69,311.93L252.55,300.93L254.96,269.29L256.89,297.57L258.79,297.39L260.64,300.42L263,321.32L264.89,322.33L269.18,310.93L271.09,312.06L273.04,283.61L275.39,280.9L277.27,295.35L279.14,301.42L281.51,294.63L283.42,276.06L285.32,286.35L287.72,306.87L289.63,301.33L291.56,311.86L293.91,307.86L295.76,298.77L300.04,319.45L301.97,310.23L303.88,311.23L306.21,304.24L308.12,319.52L310,325.57L312.44,314.67L314.28,285.17L318.56,264.46L320.43,236.72L322.33,275.96L324.72,303.13L326.61,320.56L328.58,328.44L330.9,309.68L332.77,312.96L334.78,317.89L337.12,311.69L338.98,323.02L340.92,328.13L345.16,316.44L347.04,307.84L349.39,316.97L351.28,307.27L353.22,309.22L355.6,308.22L359.39,324.86L361.3,326.9L363.65,305.13L365.52,314.19L367.52,311.55L369.8,311.08L371.75,329.05L373.66,299.84L376,318.03L377.89,319.97L379.8,299.95L382.14,308.03L384.04,312.2L386.01,313.9L388.32,275.14L390.26,305.57L392.14,291.28L394.5,284.83L396.42,281.45L398.31,282.14L400.68,280.73L402.59,310.05L404.5,302.32L406.84,301.55L410.65,320.63L413.05,327.4L414.91,328.14L416.85,330.25L419.22,306.86L421.17,303.07L423.03,303.31L425.4,317.6L427.32,317.07L429.23,318.5L431.51,302.75L433.44,303.5L435.37,316.39L437.74,325.06L439.6,317.84L441.53,332.36L443.85,336.72L445.77,326.36L447.77,317.98L450.04,302.37L453.89,313.51L456.2,309.77L458.1,308.43L460.04,327.31L461.9,286.31L464.36,315.87L466.21,326.27L468.1,323.19L470.47,324.9L472.43,320.72L474.29,318.9L476.63,323.3L478.56,314.58L480.41,323.22L482.81,321.5L484.79,314.29L486.6,308.27L489,316.39L490.92,306.24L492.78,312.18L495.15,292.39L497.03,284.85L498.95,291.52L501.33,287.69L505.1,312.9L507.49,298.18L509.4,326.18L511.31,323.1L513.7,335L515.59,328.95L517.43,338.68L519.85,334.51L521.7,324.37L523.62,322.14L526.03,322.64L527.93,311.63L529.78,310.64L532.21,318.34L534.13,284.56L535.95,292.37L540.27,328.46L542.12,343.33L544.56,325.36L546.45,275.03L548.32,282.37L550.71,287.74L552.57,286.5L554.47,292.37L556.83,303.7L558.74,286.66L560.68,288.48L563.04,320.21L564.93,311.53L566.83,314.84L568.71,328.87L571.08,336.98L573.07,322.58L574.96,336.44L577.29,342.13L579.17,327.68L583.51,337.85L585.35,333.78L587.21,327.68L589.67,333.84L591.51,316.42L593.51,340.41L595.77,321.83L597.68,328.39L599.6,324.42L601.96,316.12L603.9,309.74L605.75,330.5L608.23,310.5L610.11,319.05L611.93,328.69L614.32,319.73L616.18,312.66L618.07,298.61L620.44,297.15L622.36,274.73L624.27,275.27L626.71,301.65L628.52,295.6L630.47,277.6L632.84,283.48L634.71,315.6L636.64,315.84L639.04,319.07L640.91,344.49L642.76,314.39L645.13,340.94L647.03,329.41L649.01,337.47L651.33,327.06L653.21,309.24L655.14,309.37L659.37,326.57L661.27,325.16L663.67,338.93L665.59,342.61L667.46,342.68L669.37,331.99L671.71,332.57L673.69,341.56L675.56,332.33L677.97,325.4L679.82,332.05L681.76,332.48L684.1,334.28L685.97,337.28L687.97,339.28L690.35,345.81L692.16,328.8L694.07,330.78L696.42,338.12L698.3,347.64L700.21,343.87L702.6,342.97L704.5,324.4L706.39,333.03L712.62,343.67L714.95,322.26L716.92,325.14L718.72,320.17L721.17,319.25L723.07,326.28L724.91,341.64L727.31,350.4L729.25,349.64L731.07,332.62L735.34,341.93L737.24,336.73L739.65,348.58L741.58,342.26L743.39,312.07L745.77,320.53L747.7,329.09L749.62,328.94L751.96,339.7L753.94,337.26L755.8,341.16L758.13,329L760.07,319.54L761.97,328.42L764.32,328.79L766.22,336.67L768.11,336.69L769.98,341.2L772.47,330.67L774.32,335.1L776.16,336.77L778.56,346.16L780.45,336.84L782.39,333.93L784.79,326.41L786.64,311.34L788.52,319.89L790.86,325.22L792.77,330.61L794.76,348.14L797.07,357.69L798.95,358.58L800.93,358.87L803.24,354.42L805.15,357.53L807.06,347.27L809.42,351.25L811.35,325.2L813.21,332.28L815.55,354.84L817.47,353.07L819.38,330.61L821.75,353.7L823.66,355.07L825.52,360.91L827.9,355.15L829.91,360.81L831.77,358.75L834.1,329.31L836.02,335.72L837.91,338.35L840.32,345.17L842.18,344.33L844.04,352.83L848.38,334.36L850.28,343.3L852.62,343.6L854.54,334.04L856.38,356.11L858.75,343.32L860.65,339.53L862.61,350.88L864.93,340.02L866.83,320.04L868.71,332.89L871.1,328.07L872.99,332.21L875.01,331.86L876.82,338.58L879.24,341.48L881.1,353.93L883.01,342.32L885.38,343.64L887.29,346.1L889.24,348.85L891.6,341.69L893.46,330.33L895.35,337.46L897.69,333.48L899.63,343.51L901.51,346.71L903.89,354.4L905.83,358.97L907.66,357.77L910.07,368.05L911.98,361.26L913.85,353.38L916.27,354.87L918.12,352.98L920.08,345.57L922.42,354.64L924.27,347.32L926.21,346.49L928.57,341.73L930.47,351.11L932.44,351.83L934.77,337.06L936.68,346.38L938.52,330.3L940.89,329.91L942.81,318.77L944.72,331.83L947.05,334.59L948.94,343.59L950.88,341.53L953.29,341.27L955.15,342.79L957.05,348.31L961.39,351.83L963.26,349.99L965.63,346.76L967.56,346.52L969.35,347.39L971.76,345.49L973.73,349.29L975.55,356.68L977.52,354.22L979.83,349.72L981.75,342.8L983.59,345.45L986.01,337.06L987.96,337.71L989.78,334.77L992.24,342.18L994.13,342.72L995.97,350.45L998.36,361.05L1000.24,347.61L1004.52,221.4L1006.4,199.42L1008.3,170.61L1010.69,254.21L1014.49,334.6L1016.89,361.97L1018.79,377.51L1020.65,379.62L1023.03,383.19L1024.95,383.64" style="vector-effect: none; fill: none; stroke: rgb(247, 163, 92); stroke-opacity: 1; stroke-width: 2px; opacity: 1;"/></g><g class="points"/><g class="text"/></g><g class="trace scatter trace29f328" style="stroke-miterlimit: 2; opacity: 1;"><g class="fills"/><g class="errorbars"/><g class="lines"><path class="js-line" d="M0,382.96L4.29,382.53L6.18,383.08L8.1,382.42L10.46,382.64L24.72,380.72L26.59,375.67L28.96,373.75L30.87,374.37L32.8,371.55L35.13,360.69L37.06,352.92L38.94,361.54L41.31,340.38L43.24,315.75L45.11,310.18L47.51,309.8L49.39,306.86L51.28,342.11L53.19,352.86L55.57,354.95L59.4,330.33L61.75,296.78L63.67,278.13L65.52,223.86L67.95,241.51L69.82,214.83L71.75,214.71L74.11,206.39L75.98,161.5L77.86,216.33L80.26,231.75L82.2,235.36L84.06,253.42L86.43,211.76L88.32,298.24L90.21,279.94L92.57,269.93L94.51,274.63L96.46,225.06L98.75,268.29L100.68,264.81L102.57,227.88L104.93,107.21L106.82,185.5L108.76,224.11L111.09,216.19L113.03,229.3L114.92,207.05L117.29,178.36L119.18,197.96L121.08,242.86L123.45,245.17L125.37,248.45L127.25,261.55L129.6,247.15L131.5,263.4L135.77,251.4L137.75,216.44L139.59,208.32L141.95,217.93L143.9,228.75L145.74,243.31L148.11,253.72L150.07,240.46L151.93,269L153.86,251.75L156.21,263.04L158.09,262.71L159.99,290.69L162.35,259.9L164.3,274.26L166.18,223.38L168.56,255.99L170.43,249.99L172.36,277.64L174.71,268.62L176.59,284.4L178.58,267.21L180.89,272.95L182.81,240.76L187.05,278.75L188.96,262.18L190.88,291.73L193.27,305.45L195.11,270.42L197.03,293.36L199.42,248.48L201.33,268.4L203.24,277.63L205.56,270.81L207.49,269.12L209.36,272.39L213.68,301.63L215.57,296.06L217.96,328.54L219.82,215.4L221.7,218.05L224.08,240.65L226.01,229.57L227.9,275.22L230.28,282.17L232.2,266.89L234.04,247.04L236.43,308.32L240.28,282.82L242.6,284.41L244.49,295.44L246.42,311.29L248.75,316.68L250.72,308.69L252.61,290.82L254.92,289.7L256.82,286.75L258.76,278.05L260.65,301.97L263.06,306.9L264.92,289.93L266.78,306.38L269.21,299.14L271.07,272.52L275.36,291.77L277.24,287.45L279.15,273.39L281.51,276.63L283.41,308.19L285.34,303.89L287.69,310.07L289.58,308.16L293.86,285.29L295.76,286.16L297.66,300.28L300.09,299.85L301.92,302.62L303.85,307.36L306.25,309.19L308.09,305.86L314.29,265.95L316.15,249.97L318.55,245.35L320.44,244.3L322.34,284.84L324.74,298.57L326.65,321.59L328.53,307.31L330.92,285.51L332.83,315.69L334.72,321.86L337.12,308.24L338.95,321.37L340.85,317.77L343.22,299.78L345.14,302.11L347.1,306.16L349.46,301.24L351.29,300.75L353.23,305.65L355.63,312.99L357.47,314.13L359.4,309.91L361.3,308.05L363.67,307.97L365.54,310.19L367.46,304.27L369.83,302.79L371.76,299.57L373.6,311.5L375.99,290.26L377.94,294.9L379.78,307.42L382.16,303.55L384.09,287.72L385.96,286.53L388.35,301.68L390.23,283.18L392.16,282.85L394.5,291.98L396.41,275.01L398.28,291.75L400.71,296.72L402.59,297.34L404.48,304.63L406.82,321.3L408.74,322.02L410.68,324.69L413.02,318.45L414.92,322.89L419.18,294.63L421.08,299.65L422.96,305.57L425.45,306.02L427.26,310.14L429.24,309.49L431.56,308.29L433.45,323.13L435.35,325.25L437.7,313.02L439.62,328.22L441.54,325.21L443.87,320.91L445.78,321.2L447.66,309.86L450.11,309.31L451.92,316.73L453.83,318.69L456.21,307.79L458.09,309.51L460.04,311.86L461.9,292.38L464.34,300.23L466.25,316.54L468.09,329.66L470.51,329.54L472.39,318.12L474.34,323.53L476.61,327.27L478.59,324.09L480.41,322.83L482.8,328.48L484.69,295.7L486.57,311.92L488.97,314.19L490.93,313.81L492.76,291.86L495.18,298.5L497.04,311.23L498.94,296.95L501.29,316.01L503.27,306.04L505.14,322.85L507.46,317.69L509.39,334.5L511.33,325.44L513.7,327.42L515.57,330.84L517.45,332.18L519.82,318.13L521.74,314.51L523.69,305.38L526.01,305.1L527.88,323.63L529.77,318.19L532.19,292.42L534.14,291.38L535.96,316.97L538.32,332.35L540.22,329.54L542.15,305.06L544.52,262.16L548.29,300.46L550.68,260.29L552.58,298.73L554.51,300.48L556.88,300.07L558.73,294.44L560.63,297.89L563.08,313.45L566.84,336.32L568.74,335.73L571.17,327.65L573.02,332.43L577.36,334.79L579.15,329.7L581.09,325.17L583.49,334.34L585.38,321.55L587.24,337.9L589.59,324.83L591.58,337.26L593.45,332.61L595.8,316.94L597.76,328.68L599.66,314.24L601.96,316.24L603.9,327.58L605.82,333.58L608.13,306.14L610.02,329.03L611.98,325.23L616.24,291.44L618.09,235.09L620.5,292.13L622.37,297.58L624.28,313.18L626.61,307.06L628.51,294.19L630.46,294.96L632.79,298.55L634.72,322.74L636.58,318.49L639.03,332.41L642.77,322.48L645.17,329.51L647.08,322.61L648.94,321.87L651.33,313.88L653.21,294.21L655.14,297.17L657.51,317.35L659.37,319.86L661.28,337.38L663.68,347.23L665.59,327.83L667.48,340.44L669.39,346.8L671.75,335.9L673.63,344.36L675.53,335.51L677.95,339.8L679.84,339.8L681.73,338.46L684.1,329.88L685.99,325.87L687.93,345.29L690.25,329.7L692.14,328.33L694.12,336.72L696.43,328.65L698.34,336.86L700.2,349.2L702.61,330.31L704.46,336.5L706.46,329.85L708.84,332.76L710.7,343.41L712.65,335.93L714.95,321.42L716.89,321.44L718.76,310.77L722.99,329.88L724.89,332.44L727.31,343.56L729.15,335.03L731.17,328.29L733.48,331.83L735.34,334.35L737.33,319.08L739.68,323.42L741.56,308.72L745.8,337.41L747.72,346.98L749.66,350.18L751.97,340.05L753.93,333.06L755.81,321.64L758.13,316.97L760.12,323.73L764.28,334.3L766.21,330.48L768.16,319.57L770,325.33L772.42,314.64L774.34,336.75L776.19,320.46L778.58,322L780.43,323.84L782.38,316.02L784.79,299.32L786.7,295.03L790.94,343.07L792.79,351.42L794.77,352.85L797.05,353.15L798.93,352.15L800.92,343.91L803.31,345.59L805.19,338.93L809.43,323.14L811.27,345.46L813.17,344.51L815.64,345.31L817.53,348.64L819.38,346.33L821.82,343.96L823.63,347.41L825.58,351.46L827.94,331.77L829.89,336.34L831.73,334.02L834.07,341.17L835.99,341.99L837.93,341.48L840.33,352.97L842.23,337.82L844.07,332.4L846.45,339.28L848.33,336.68L850.27,349.04L852.61,346.57L854.57,338.77L856.39,348.82L860.75,342.39L862.63,344.42L864.92,347.85L866.87,342.58L868.74,345.82L871.13,351.56L872.99,348.62L874.88,351.47L876.83,352.22L879.27,347.47L883.05,346.33L885.36,351.42L887.31,348.42L889.24,341.29L891.5,335.41L893.44,333.86L895.35,355.97L897.75,363.11L899.7,365.73L901.51,363.34L903.93,368.24L905.77,370.08L907.66,357.78L910.04,355.68L913.83,360.52L916.29,354.01L918.17,360.31L919.99,356.18L922.38,349.02L924.26,354.47L926.15,344.43L928.58,356.93L930.48,352.52L932.39,340.14L934.7,342.35L936.6,336.22L938.51,334.61L940.89,338.05L942.82,344.43L944.71,342.72L947.07,346.41L949,352.07L950.94,339.64L953.27,351.76L955.13,353.09L957.06,355.86L959.42,355.67L961.28,354.59L963.18,358.24L965.56,359.37L967.49,355.9L969.39,356.17L971.83,360.02L973.66,365.56L975.62,358.36L977.42,359.16L979.85,358.27L981.7,347.75L985.99,346.82L987.87,354.57L989.8,349.23L992.14,350.89L994.08,364.2L996.04,362.99L998.32,355.2L1000.23,342.79L1002.17,247.63L1004.53,211.45L1006.42,241.95L1008.3,175.11L1010.66,273L1012.55,301.3L1014.49,341.37L1016.86,363.95L1018.76,377.69L1020.62,379.87L1023.01,382.8L1024.94,383.92" style="vector-effect: none; fill: none; stroke: rgb(128, 133, 233); stroke-opacity: 1; stroke-width: 2px; opacity: 1;"/></g><g class="points"/><g class="text"/></g><g class="trace scatter trace076e55" style="stroke-miterlimit: 2; opacity: 1;"><g class="fills"/><g class="errorbars"/><g class="lines"><path class="js-line" d="M0,382.57L1.91,382.4L4.28,382.98L16.63,381.77L18.52,380.74L22.81,380.72L24.68,379.81L28.97,370.88L30.88,372.17L35.14,358.37L37.03,360.4L38.94,368.92L41.36,332.42L45.11,311.12L47.52,305.03L49.4,317.01L51.27,337.52L53.18,357.84L55.57,353.99L57.46,349.18L59.38,336.68L61.76,305.24L63.61,265.06L65.54,239.38L67.95,230.24L69.82,222.91L71.74,227.34L74.06,177.96L75.97,190.48L77.92,227.44L80.27,225.27L82.2,250.47L84.06,242.17L86.41,248.72L88.29,289.69L90.24,297.82L92.64,289.53L94.5,280.09L96.37,287.58L98.79,277.21L100.67,252.28L102.59,273.82L104.92,164.73L106.87,232.95L108.72,196.83L111.08,250.23L112.99,241.31L114.91,226.88L117.29,168.34L121.07,287.02L123.45,247.28L127.25,278.52L129.6,276.04L131.55,281.3L133.4,271.51L135.8,259.12L137.72,222.99L139.6,240.89L141.94,239.53L143.86,273.36L145.76,258.61L148.16,267.37L150.08,260.33L151.99,266.95L153.88,267.27L156.22,270.72L158.1,293.55L159.99,282.66L162.38,297.93L166.21,267.8L168.56,276.46L170.47,260.76L172.39,281L174.69,281.93L176.63,265.51L178.49,287.74L180.92,284.35L182.76,253.73L184.69,285.63L187.05,252.03L189,261.69L190.83,301.52L193.25,274.11L195.12,279.75L197.03,281.8L199.39,268.76L201.29,280.23L203.17,290.31L205.58,277.14L207.48,274.08L209.38,284.57L211.73,310.31L213.66,306.18L215.61,304.86L217.93,146.17L221.71,269.12L224.08,281.86L225.97,279.81L227.89,294.11L230.27,281.14L232.15,295.29L234.06,309.7L236.44,292.97L238.36,282.2L240.24,251.44L242.62,304.41L244.5,306.56L246.4,311.79L248.8,281.15L250.72,278.76L252.61,285.97L254.96,293.71L256.92,294.01L258.72,321.5L260.62,313.04L263.01,309.49L264.89,300.52L266.79,257.17L269.21,285.03L271.08,304.09L272.98,310.42L275.36,292.2L277.24,283.83L279.16,297.62L281.55,304.6L283.45,311.85L285.33,303.16L287.7,301.83L289.61,283.51L291.54,276.19L293.85,293.72L295.79,303.53L297.66,300.07L300.07,309.39L301.95,308.5L303.9,322.91L306.19,302.67L310.03,267.96L312.37,257.95L316.18,245.21L318.54,272.92L320.47,303.56L322.37,321.38L324.75,308.6L326.62,307.86L328.52,299.56L330.88,318.79L332.8,308.4L334.69,314.96L337.07,320.86L338.94,304.61L343.21,311.54L345.13,302.83L347.02,295.95L349.42,308.44L351.36,322.6L353.2,313.03L355.63,304.57L357.5,311.96L361.27,304.78L363.64,302.37L365.54,294.31L367.49,305.78L369.82,318.72L371.73,322.76L373.62,321.26L375.97,312.96L377.87,295.25L379.84,302.24L382.17,255.28L384.06,277.6L386,277.86L388.36,279.26L390.24,282.64L392.16,284.44L394.51,298.41L396.43,296.45L398.32,281.56L400.65,318.47L402.58,328.57L404.48,319.25L406.83,332.79L408.8,317.12L410.71,321.34L413.08,306.52L414.9,293.22L416.85,305.83L421.12,311.43L423.06,317.58L425.4,316.26L427.26,309.91L429.23,325.72L431.53,321.52L433.47,312.73L435.31,328.38L437.68,335.92L439.59,320.89L443.88,316.14L445.83,306.28L447.69,309.25L450.04,314.74L452,317.04L453.83,310.9L456.25,297.32L458.12,302.47L464.28,325.48L466.17,323.29L468.11,306.59L470.46,321.98L472.34,309.09L474.29,311.22L476.66,320.96L478.53,320.2L480.41,264.24L482.86,327.29L486.57,290.8L488.96,288.9L490.85,287.43L492.75,315.7L495.14,289.12L497.02,311.57L498.91,304.58L501.3,300.34L503.27,324.27L505.1,321.75L507.52,323.81L509.41,332.49L511.32,323.27L513.7,319.51L515.54,313.34L517.43,324.51L519.87,300.7L521.73,317.98L523.62,314.54L526.03,311.97L527.91,279.48L529.79,301.83L532.18,307.62L534.12,333.55L540.26,274.29L542.17,278.54L546.43,291.08L548.33,302.06L550.67,280.94L552.56,311.23L554.46,301.07L556.87,316.64L558.77,316.29L560.7,321.65L564.93,333.94L566.81,332.4L568.7,335.44L571.13,336.82L573.03,322.39L574.91,323.4L577.31,326.29L579.14,332.32L581.1,318.03L583.44,330.86L585.39,321.09L587.3,327.75L589.67,337.94L591.53,320.05L593.4,313.2L595.8,311.64L599.62,331.95L601.95,323.57L603.91,312.7L605.72,324.72L610.03,312.53L611.94,284.87L614.29,274.73L616.21,273.4L618.09,281.52L620.46,295.29L622.42,304.05L624.32,294.9L626.66,294.98L628.52,313.31L630.45,317.44L632.8,328L634.76,341.92L636.6,333.05L638.97,329.19L640.85,334.49L642.77,326.54L645.2,331.77L648.98,300.35L651.34,332.75L653.2,317.6L655.11,317.8L657.51,320.76L659.42,329.2L663.7,341.5L665.6,337.99L667.5,333.49L669.36,335.49L671.73,322.48L673.67,327.16L675.53,340.65L677.92,334.97L679.78,335.2L681.78,340.04L684.09,338.94L685.99,334.55L687.87,329.4L690.22,341.9L692.26,338.51L694.08,346.4L696.45,331.35L698.38,332.39L700.22,329.27L702.61,329.96L704.47,341.19L706.45,340.03L708.8,321.14L710.74,315.95L712.58,330.93L714.91,324.36L716.89,324.88L718.73,329.59L721.16,343.45L723.06,343.7L724.92,343.35L727.27,328.2L729.22,343.09L731.13,334.61L733.42,343.76L735.37,328.95L737.3,318.95L739.7,312.9L741.5,312.93L743.43,320.9L745.85,341.23L747.67,340.75L751.96,325.81L753.87,327.42L755.74,328.85L758.21,336.62L761.97,322.13L764.3,337.44L766.24,315.62L768.2,330.69L770.04,330.07L772.43,337.64L776.2,325.78L778.58,323.39L780.42,316.38L782.39,312.06L784.76,322.19L786.64,314.46L788.53,337.08L790.94,355.44L792.78,362.25L794.66,358.7L797.05,361.6L798.95,357.19L800.92,356.3L803.21,346.35L807,327.38L809.39,348.16L811.29,338.87L813.23,324.5L815.55,350.81L817.45,357.52L819.42,351.06L821.74,351.91L823.64,349.16L825.61,351.06L827.93,331.76L829.84,336.11L831.75,337.84L834.19,346.19L836.04,349.42L837.87,345.84L840.23,343.39L842.17,324.08L844.14,341.82L846.52,349.39L848.35,342.43L850.27,344.19L852.65,339.18L854.5,344.19L856.48,352.15L858.76,337.09L860.72,317.03L862.62,328.98L866.84,318.46L868.78,332.06L871.11,338.1L873.03,339.27L874.91,340.66L876.81,347.1L879.18,345.37L881.15,341.64L883.05,341.54L885.36,348.2L889.15,339.15L891.57,338.07L893.52,318.37L895.43,346.07L897.68,361.33L899.61,361.23L901.49,352.23L903.96,360.05L905.74,344.67L907.69,345.87L910.08,348.9L911.95,341.67L913.91,347.29L916.28,351.48L918.13,347.53L920.1,332.82L922.42,332.72L924.34,345.96L926.21,345.67L928.61,342.69L930.51,328.6L932.38,323.58L934.71,339.24L936.67,327.16L938.56,329.39L940.9,322.64L942.81,325.86L944.72,340.92L947.07,348.26L949,339.82L950.92,330.13L953.3,333.26L955.23,342.48L957.06,340.71L959.38,342.62L961.4,341.32L963.22,342.07L965.63,340.17L967.49,342.7L969.44,351.7L971.72,354.8L973.62,339.2L977.5,344.01L979.9,329.38L981.78,332.96L983.7,332.17L986,350.42L987.96,345.76L989.78,346.85L992.17,351.57L994.15,352.28L996.01,350.89L998.31,353.46L1000.22,342.6L1002.15,233.4L1004.52,222.12L1006.42,240.7L1008.33,190.46L1010.68,272.32L1012.6,304.8L1018.73,376.88L1020.71,378.38L1023.04,383.35L1024.92,383.38" style="vector-effect: none; fill: none; stroke: rgb(241, 92, 128); stroke-opacity: 1; stroke-width: 2px; opacity: 1;"/></g><g class="points"/><g class="text"/></g><g class="trace scatter tracee44a0e" style="stroke-miterlimit: 2; opacity: 1;"><g class="fills"/><g class="errorbars"/><g class="lines"><path class="js-line" d="M0,382.17L12.34,382.13L14.26,381.71L20.43,380.73L22.82,379.13L24.72,379.62L26.6,373.36L28.96,369.68L30.88,373.02L32.79,368.33L35.15,356.15L37.04,353.44L38.94,356.51L43.21,296.77L45.11,281.81L47.51,264.2L49.39,320.53L51.29,312.02L53.18,335.29L55.57,335.92L57.45,334.09L59.38,321.8L61.72,263.82L63.61,224.36L65.55,229.23L67.94,209.8L69.8,204.29L71.74,186.04L74.06,146.29L76,137.97L77.93,188.58L80.29,206.86L82.13,168.09L86.42,253.62L88.36,251.22L90.24,264.55L92.6,250.97L94.49,284.54L96.4,269.99L98.76,248.22L100.65,221.05L102.56,144.58L104.91,197.41L106.86,195.86L108.74,216.62L111.11,212.79L113.01,227.91L114.92,179.87L117.33,173.64L119.17,247.72L121.13,237.23L125.4,251.75L127.23,261.61L129.66,229.49L131.51,247.72L133.45,248.21L135.79,174.89L137.69,195.15L139.58,231.49L142.01,242.23L143.9,219.83L145.79,242.86L148.18,247.19L150.01,262.22L151.94,242.38L156.21,283.62L158.15,270.32L160.02,259.22L162.37,256.73L164.27,256L166.19,252.93L176.65,290.91L178.51,262.06L180.87,270.16L182.81,283.54L184.71,232.18L187.06,287.48L188.96,306.3L190.86,289.08L193.25,265L195.12,290.56L197,256.24L199.42,272.23L201.28,261.64L203.2,271.44L205.58,251.69L207.45,279.55L209.42,290.43L211.72,293.6L213.62,281.31L215.52,191.16L217.92,196.6L219.82,243.91L221.72,258.24L224.06,262.68L226.06,283.98L227.87,292.13L230.26,284.8L232.15,290.75L234.09,306.27L236.42,280.48L238.31,284.09L240.22,263.44L242.61,317.17L244.48,308.46L246.39,310.59L248.81,265.38L250.71,296.56L252.6,293.92L256.9,305.25L258.76,308.43L260.68,284.79L263.01,300.43L264.95,297.76L266.79,272.22L269.21,273.12L271.07,288.08L272.97,293.19L275.39,287.32L277.24,266.72L279.14,298.13L281.51,298.8L283.43,312.62L285.32,306.36L287.71,302.99L289.57,273.63L291.48,288.5L293.88,306.67L295.77,296.94L297.69,302.18L300.06,293.94L301.93,299.43L303.87,292.86L306.23,299.8L308.16,251.78L310.02,256.58L312.36,231.16L314.26,262.3L316.16,229.1L318.6,285.99L320.43,296.25L322.38,331.35L324.74,291.54L326.63,283.71L328.53,304.8L330.89,297.62L332.83,322.97L334.69,310.44L337.09,320.63L338.97,307.83L340.93,307L343.26,299.07L345.13,304.02L347.06,293.09L349.49,307.42L351.31,308.67L353.18,311.37L355.61,313.92L357.53,310.7L359.39,301.64L361.26,320.66L363.66,305.28L365.56,287.01L367.46,315.68L369.84,324.92L373.62,305.02L376,310.78L377.91,316.94L379.85,286.55L382.17,283.13L384.04,255.38L385.98,275.11L388.34,278.35L390.22,272.17L392.12,287.96L394.51,283.83L396.4,284.99L398.33,295.94L400.71,315.45L402.6,313.23L404.48,323.28L406.87,315.32L408.73,323.38L410.73,326.18L413.06,317.06L414.95,296.89L416.81,307.02L419.21,302.46L421.14,317.42L422.99,315.67L425.37,317.3L427.24,308.58L429.22,290.3L431.55,323.9L433.43,310.07L435.39,315.89L437.68,317.43L439.61,332.75L441.48,324.79L443.94,302.08L445.79,314.47L447.71,302.21L450.06,317.43L451.95,302.84L453.91,307.64L456.22,309.73L458.1,299.45L460.06,310.72L462,311.86L464.3,319.32L466.17,322.59L468.14,316.13L470.45,315.67L472.39,315.53L474.26,320.79L476.61,326.68L478.59,313.4L480.5,332.72L482.85,308.22L484.7,314.31L486.6,306.21L488.97,286.8L490.86,292.59L492.79,303.88L495.12,298.42L497.04,304.49L498.95,304.16L501.29,314.74L503.24,314.68L507.47,309.06L509.37,331.99L511.34,335.71L513.65,322.49L515.58,323.93L517.49,317.93L519.85,316.77L521.75,309L523.68,306.69L526.02,313.48L527.91,323.78L529.78,294.83L532.21,286.14L534.08,309.8L535.96,332.34L538.41,324.34L540.25,289.66L542.14,280.35L544.51,277.08L546.39,284.99L548.29,283.27L550.74,285.44L552.57,298.81L554.48,291.52L556.83,304.97L558.78,306.09L560.64,303.82L563.06,322.25L564.95,323.36L566.82,331.84L568.8,323.79L571.15,329.65L573.01,328.9L574.97,338.13L579.19,321.14L581.06,326.73L583.45,324.13L585.42,333.52L587.21,329.97L589.63,331.46L591.51,323.54L593.49,338.96L595.8,320.55L597.73,311.56L599.56,314.03L601.96,324.67L603.83,324.24L605.75,325.28L608.14,320.45L610.1,326.94L614.36,296.03L616.21,299.26L618.07,284.64L620.48,274.17L622.37,268.82L624.35,287.38L626.61,282.1L628.53,283.9L630.49,268.39L632.86,315.76L634.7,316.38L636.6,318.57L639,347.94L640.97,325.86L642.78,316.74L645.13,335.33L647.04,323.19L648.99,330.42L651.31,319.9L653.29,290.76L655.11,314.76L657.5,326.09L659.4,305.14L661.29,326.69L663.64,329.48L665.57,338.32L667.48,341.71L669.35,342.71L671.71,338.79L673.63,338.34L675.57,331.97L677.88,335.9L679.85,338.81L681.68,337.87L684.14,331.03L685.98,329.1L687.88,337.61L690.27,324.24L692.13,316.62L694.09,336.05L696.4,334.03L698.33,323.13L700.25,332.32L702.66,326.67L704.53,319.05L706.42,335.1L708.78,331.25L710.64,335.99L712.62,344.25L714.92,326.81L718.79,325.77L721.17,319.27L723.03,314.66L724.98,332.63L727.29,337.98L729.26,334.11L731.12,340.85L733.45,336.96L735.37,338.36L737.32,332.4L739.69,350.89L741.59,332.99L743.42,331.84L745.83,321.2L747.73,322.43L749.61,325.67L752,327.83L753.86,337.88L755.8,327.32L758.13,335.84L760.03,332.22L762,334.49L764.38,334.28L766.23,337.07L768.12,327.25L770.01,327.6L772.35,332.2L774.26,319.29L776.18,338.62L778.64,335.14L780.51,343.35L782.32,340.85L784.8,334.65L786.6,337.21L788.55,318.28L790.89,306.75L792.81,321.15L794.7,320.45L797.06,333.4L798.98,353.93L800.87,361.54L803.23,356.38L805.14,353.24L807.02,345.98L809.4,353.91L811.29,340.74L813.25,339.66L815.59,332.57L817.47,348.62L819.4,353.9L821.73,341.72L823.61,343.1L825.59,353.84L827.92,351.82L831.73,351.16L834.17,359.7L836,348.94L837.97,326.91L840.29,338.7L842.17,341.08L844.11,358.06L846.48,355.36L848.38,359.86L850.22,345.87L852.58,338L854.5,342.05L856.45,351.1L858.8,337.76L860.68,347.35L862.55,351.69L865,343.51L866.84,345.64L868.81,334.75L871.15,329.91L874.91,320.14L876.85,325.47L879.18,341.29L881.15,342.51L882.98,343.94L885.34,343.16L887.35,351.5L889.25,349.81L893.4,350.99L895.33,357.91L897.69,332.02L899.57,341.56L901.55,338.74L903.93,343.46L905.8,339.88L907.74,350.23L910.02,364.59L911.99,356.78L913.87,360.03L916.21,360.1L918.15,351.77L920.09,357.29L922.37,350.63L924.37,354.2L926.24,346.38L928.62,354.09L930.44,354.79L932.39,358.85L934.78,340.43L936.7,353.25L938.56,358.89L940.91,348.55L942.83,330.9L944.74,329.5L947.04,336.36L949.06,326.37L950.91,323.68L953.25,344.24L955.12,346.13L957.08,343.49L961.33,350.16L963.24,355.35L965.59,343.69L967.54,347.31L971.76,349.69L973.64,348.86L975.6,347.36L977.52,356.02L979.81,352.4L981.76,358.45L983.68,364.8L986.1,353.55L987.9,345.73L989.87,345.61L992.25,347.81L994.1,334.47L995.99,342.98L998.34,342.4L1000.21,324.99L1002.12,300.05L1004.51,222.97L1006.4,208.55L1008.3,174.22L1010.7,248.81L1014.51,333.74L1016.82,350.38L1018.82,374.9L1020.65,377.22L1023.03,382.81L1024.93,383.89" style="vector-effect: none; fill: none; stroke: rgb(228, 211, 84); stroke-opacity: 1; stroke-width: 2px; opacity: 1;"/></g><g class="points"/><g class="text"/></g><g class="trace scatter trace9a8aa1" style="stroke-miterlimit: 2; opacity: 1;"><g class="fills"/><g class="errorbars"/><g class="lines"><path class="js-line" d="M0,382.27L14.27,381.05L16.62,379.72L22.81,378.54L24.69,377.48L28.96,362.1L30.86,360.56L32.75,360.62L35.13,341.22L37.04,334.47L38.96,331.78L41.34,297.24L43.29,231.87L45.12,208L47.48,269.81L49.39,282.98L51.27,302.43L53.21,330.46L55.58,302.77L57.45,291.53L59.34,253.72L61.76,226.43L63.65,225.7L65.55,172.18L67.93,157.34L69.83,166.22L71.76,144.38L75.95,81.43L77.9,19.25L80.26,206.54L82.19,207.89L86.42,171.68L88.3,251.04L90.21,278.42L92.57,252.78L96.38,176.62L98.76,218.67L100.7,206.59L102.56,244.36L104.97,211.86L106.84,209.88L108.72,197.97L111.09,154.63L112.99,163.02L114.92,175.49L117.28,206.35L119.21,196.43L121.06,244.15L123.46,235.76L125.32,223.04L127.28,221.05L129.6,175.38L131.53,190.43L133.42,197.3L135.78,228.11L137.72,217.65L139.59,225.25L141.94,223.52L143.89,248.11L148.12,224.92L150.07,257.15L151.97,240.51L153.85,253.74L156.22,236.04L158.08,214.96L159.98,261.25L162.36,233.35L164.29,249.79L166.18,241.81L168.57,275.6L170.45,257.93L172.33,214.25L174.72,240.85L176.61,249.07L178.54,238.24L182.82,281.48L184.74,237.02L187.06,259.41L188.99,221.34L190.84,261.04L193.21,265.98L195.14,254.26L197,255.36L203.19,288.63L205.55,222.86L207.48,218.57L209.35,192.36L211.72,216.64L213.65,228.3L215.56,251.13L217.92,266.9L219.79,260.08L221.69,275.42L224.1,252.93L226,260.93L227.88,276.62L230.25,285.65L232.18,269.6L234.08,285.76L236.42,301.04L238.31,281.11L240.21,242.36L242.64,290.43L244.51,291.12L246.41,268.59L248.77,287.79L250.68,293.78L252.62,275.51L254.94,291.13L256.82,254.03L258.75,259.63L260.62,252.48L263.02,273.46L264.93,259.93L266.79,276.02L269.19,283.59L271.06,279.55L272.99,283.68L275.34,302.32L277.26,289.77L279.15,288.06L281.52,285.97L283.46,265.91L287.68,302.96L289.57,298.03L291.49,296.78L293.85,289.07L295.77,289.87L297.7,304.19L300.07,247.56L301.92,243L303.82,204.16L306.22,233.21L309.99,267.88L312.43,312.49L314.26,315.91L316.16,297.58L318.58,268.08L320.45,305.88L322.34,321.24L324.74,320.1L326.6,310.26L328.5,309.88L330.92,305.94L332.78,294.55L334.67,280.35L337.06,292.1L338.94,277.62L340.93,308.36L343.31,314.18L345.13,279.74L347.12,297.41L349.43,305.31L351.33,294.48L353.25,299.05L355.57,292.51L357.47,304.23L359.38,301.84L361.28,306.66L363.7,297.17L365.55,319.98L369.87,304.44L371.74,302.88L373.6,292.59L376,284.25L377.93,284.3L379.77,306.24L382.21,306.58L384.06,323.75L386.02,325.17L388.32,318.31L390.21,337.76L392.11,340.89L394.5,316.68L396.38,330.26L398.28,337.81L400.75,335.86L402.61,321.51L404.5,317.65L406.85,301.64L408.74,303.28L410.68,311.42L413.04,297.46L414.92,323.7L416.81,337.56L419.21,334.19L421.1,335.44L422.98,310.87L425.43,319.04L427.26,333.81L429.16,329.43L431.55,326.61L433.46,328.98L435.38,320.5L437.69,326.39L439.58,317.65L441.52,323.75L443.96,328.69L445.79,316.69L447.73,297.87L450.03,294.18L451.96,336.15L453.84,331.72L458.17,324.52L460.01,336.36L461.96,334.97L464.28,321.6L468.06,328.68L470.49,328.57L472.44,324.79L474.24,323.23L476.61,317.02L478.51,320.7L480.45,301.23L482.81,309.09L486.57,317.4L489,324.27L490.87,324.33L492.85,316.09L495.2,335.35L497.12,328.7L498.94,325.26L501.33,326.77L503.28,320.87L505.15,322.28L507.52,331.71L509.45,321.05L511.29,320.34L513.65,321.26L515.6,338.21L517.47,318.84L519.81,297.65L521.75,327.69L523.69,303.7L526.03,317.72L527.88,314.1L529.83,317.83L532.16,288.18L534.05,306.78L535.99,285.29L538.34,309.05L540.23,303.38L542.13,315.34L544.5,298.02L546.42,312.97L548.31,327.39L550.73,330.76L552.58,327.43L554.52,336.62L558.75,334.34L560.72,345.7L563,334.49L564.99,343.47L568.77,323.12L571.13,335.07L573.07,325.15L574.87,340.73L577.3,328.68L579.26,333.65L583.45,329.53L585.36,323.4L587.29,314.35L589.61,346.87L591.54,338.23L593.46,334.8L595.75,329.82L597.74,330.81L599.59,316.77L601.96,314.2L603.86,317.46L605.73,313.41L608.11,282.59L610.1,281.02L611.97,304.61L614.29,315.31L616.27,327.7L618.16,319.89L620.44,317.56L622.37,327.08L624.31,343.08L626.63,342.72L628.61,325.21L630.46,323.12L632.79,342.54L634.72,325.21L636.6,331.27L638.99,335.93L640.91,311.86L642.78,298.94L645.22,323.79L647.05,327.89L651.35,338.57L653.22,331.07L655.19,345.77L657.48,337.61L659.4,346.91L661.36,341.22L663.71,325.6L665.56,335.6L667.54,339.69L669.37,333.56L671.71,329.06L673.66,333.02L675.54,337.24L677.96,329.13L679.78,345.75L681.72,339.75L684.13,339.34L685.95,353.21L687.87,333.91L690.33,345.13L692.2,336.88L694.12,337.49L698.38,340.16L700.22,329.66L702.65,322.71L704.47,324.4L706.43,337.19L708.74,333.12L712.63,334.39L714.98,318.38L716.87,344.11L718.73,339.8L721.1,346.98L723.01,342.7L724.89,343.69L727.25,330.23L729.22,340.26L731.09,312.97L735.37,305.52L737.25,323.88L739.65,305.13L741.53,328.19L743.46,315.53L745.78,310.96L747.71,335.89L749.62,341.49L751.98,341.03L753.88,334.28L758.16,322.82L760.01,330.13L761.94,331.98L764.39,332.34L766.19,326.62L768.19,332.09L770.05,330.99L772.4,313.22L774.26,316.69L776.21,317.88L780.42,344.02L782.35,341.06L784.77,349.95L786.62,349.95L788.52,348.63L790.98,356.85L792.81,353.46L794.74,344.2L797.13,326.54L799.04,325.32L800.87,333L803.27,333.83L805.17,332.89L807.03,346.8L809.41,350.44L811.39,360.54L813.27,357.33L815.62,346.21L817.56,335.9L819.39,340.29L821.76,342.45L823.64,337.72L825.51,347.41L827.91,346.91L829.84,345.01L831.74,335.83L834.15,342.13L836,320.38L837.91,352.99L840.27,349.61L842.14,334.08L844.09,335.69L846.48,339.69L848.42,354.23L850.22,348.58L852.61,326.8L854.54,311.73L856.41,314.09L862.58,337.53L864.97,340.95L868.78,340.42L871.15,346.31L875.01,334.28L876.79,342.41L879.22,304.73L881.17,326.87L883.03,333.04L885.42,325.49L887.27,335.79L889.13,357.48L891.59,361.25L893.52,359.43L895.41,352.83L897.77,358.1L899.58,344.98L901.46,340.33L903.91,348.97L905.84,348.68L907.72,339.13L910.12,346.61L911.97,351.19L913.83,337.81L916.25,332.82L918.1,339.92L920.06,346.72L922.4,338.93L926.16,323.99L928.58,338.76L930.5,313.47L932.39,328.54L936.62,341.3L938.5,352.01L940.93,360.08L942.84,342.59L944.71,337.92L947.14,344.34L948.95,350.87L950.91,348.6L953.28,355.43L955.12,349.25L957.12,355.07L959.44,357.09L961.29,351.66L963.3,350.17L965.59,349.7L967.46,350.47L969.36,333.09L971.81,340.47L973.73,338.93L975.6,327.9L977.44,340.5L979.81,343.6L981.75,338.99L983.64,352.2L986.03,353.22L987.94,349.39L989.77,350.22L992.21,349.59L994.04,354.82L996.02,349.67L998.33,341.68L1000.27,327.14L1002.11,257.91L1004.53,257.07L1006.46,233.88L1008.34,149.19L1012.57,309.8L1014.52,341.4L1018.74,378.16L1020.62,379L1023.03,382.5L1024.91,383.49" style="vector-effect: none; fill: none; stroke: rgb(43, 144, 143); stroke-opacity: 1; stroke-width: 2px; opacity: 1;"/></g><g class="points"/><g class="text"/></g><g class="trace scatter trace344cea" style="stroke-miterlimit: 2; opacity: 1;"><g class="fills"/><g class="errorbars"/><g class="lines"><path class="js-line" d="M0,382.6L4.3,382.3L6.19,382.69L8.08,381.93L10.47,382.4L18.54,380.85L20.43,379.67L24.72,379.68L26.59,373.27L28.97,367.32L30.88,368.89L35.14,355.97L37.05,354.48L38.93,356.15L41.32,310.72L47.55,264.46L49.4,315.58L51.28,320.84L53.18,348.86L55.55,344.9L57.47,332.1L59.35,321.02L61.73,260.44L63.62,208.02L65.51,240.49L74.11,145.04L75.96,155.96L80.23,212.03L82.14,181.85L84.04,271.51L86.42,254.24L88.33,251.78L90.2,265.06L92.57,275.93L94.47,289.96L96.41,285.93L98.75,252.05L102.55,143.55L104.95,230.99L106.85,214.56L108.73,214.49L111.11,207.75L113.04,159.55L117.27,219.61L119.2,265.74L121.08,234.47L123.47,250.3L125.32,261.42L127.26,267.23L129.6,268.06L131.54,242.76L135.76,214.75L137.67,215.48L139.6,254.19L142.01,255.36L143.89,235.49L145.76,242.61L148.16,279.77L150.03,252.49L151.92,280.66L153.85,271.92L156.25,276.79L158.11,289.39L162.35,237.31L164.3,252.65L166.19,272.9L168.6,275.88L170.48,280.34L172.38,290.26L176.6,269.82L178.55,257.72L180.9,272.52L182.79,269.9L184.67,265.61L187.05,277.01L188.95,293.9L190.86,266.99L193.29,283.73L195.15,251.86L197.05,267.14L199.42,274.02L201.32,284.41L203.19,272.02L205.55,296.35L207.47,292.41L209.37,297.68L211.73,330.99L213.65,225.08L215.52,192.47L219.84,254.32L221.72,270.67L225.97,296.32L227.89,260.92L230.3,301.71L232.16,312.57L234.13,299.7L236.45,292.21L238.39,235.9L240.22,285.46L242.62,318.85L244.5,306.14L246.39,287.03L248.75,280.68L250.69,277.62L252.56,267.83L254.93,291.31L256.84,294.28L258.77,312.59L260.66,299.74L263.03,298.69L264.93,262.18L266.82,270L269.18,286.88L271.11,308.17L272.98,293.01L275.36,278.51L277.29,301.93L279.13,309.69L281.5,314.14L283.41,313.13L285.33,306.48L287.75,290.8L289.64,296.44L291.52,300.64L293.85,302.75L295.78,311.12L297.65,313.33L301.92,307.68L303.86,301.55L306.28,311.97L308.16,267.17L310.02,243.84L312.39,240.79L314.26,255.65L316.16,228.84L320.47,325.06L322.37,324.66L324.73,293.51L326.61,287.84L330.89,318.52L332.84,311.1L334.7,313.98L337.09,311.06L338.95,306.85L340.84,307.63L343.24,288.47L345.14,281.92L349.39,322.22L351.37,312.72L353.2,310.62L355.66,313.92L357.48,312.29L359.41,302.75L361.25,311.43L363.74,314.65L365.55,301.64L367.43,316.29L371.73,330.83L373.68,310.73L382.2,281.8L384.06,282.36L385.98,300.5L388.32,294.62L390.22,296.92L392.16,273.61L396.43,300.12L398.28,324.8L400.73,316.22L402.63,315.94L406.84,332.76L408.78,321.03L410.65,333.98L413.05,322.83L414.94,301.33L416.8,297.61L419.19,314.93L421.15,308.04L423.01,322.73L425.38,317.82L427.25,319.34L429.2,322.34L431.58,329.54L433.48,325.11L435.34,331.91L437.73,334.87L439.58,323.72L441.52,316.78L445.8,325.8L447.69,332.4L450.1,327.83L451.93,322.43L453.85,316.91L456.22,318.58L458.11,315.82L460.01,327.44L461.9,339.04L464.38,335.42L466.2,337.37L468.13,344.49L472.44,333.94L474.33,334.24L476.67,338.41L478.51,330.75L480.43,330.83L482.83,315.84L484.75,316.9L486.63,328.59L488.96,315.27L490.88,324.34L492.76,330.73L495.16,328.63L497.05,331.12L498.92,337.23L501.37,335.91L503.2,336.19L505.11,343.18L507.49,343.8L509.44,348.37L511.35,331.35L513.69,333.22L515.65,325.11L517.51,329.8L519.86,315.37L523.63,337.79L526.02,325.22L527.88,313.86L529.84,322.79L532.16,341.16L534.06,345.92L538.34,307.22L540.24,308.63L542.14,315.79L544.49,316.11L546.39,318.06L548.28,324.65L550.69,319.49L552.56,318.07L554.48,321.03L556.86,337.47L558.78,332.31L560.68,338.84L563.04,352.79L564.92,345.96L566.8,347.01L568.71,344.36L573.05,349.34L574.89,343.78L577.35,345.96L579.16,331.53L581.15,334.11L583.43,338.69L585.41,329.19L587.21,336.75L589.67,337.9L591.5,328.58L593.44,322.91L595.77,328.43L597.72,331.02L599.64,344.84L601.99,327.46L603.94,332.27L605.82,319.33L608.12,326.24L610.02,326.96L611.92,311.35L614.32,303.41L616.19,290.23L618.08,313.69L620.44,320.46L622.35,310.19L624.25,310.11L626.61,317.85L628.55,316.6L630.45,337.8L632.8,337.46L634.69,346.59L636.66,318.54L638.95,335.37L640.91,335.07L642.81,342.04L645.14,340.1L647.03,322.12L648.93,323.31L651.38,325.8L653.24,325.35L657.48,336.14L659.4,347.38L661.29,342.02L663.69,347.29L665.56,342.12L667.48,340.25L669.42,346.45L671.77,331.33L673.63,343.06L675.55,349.15L677.93,340.85L679.8,340.03L681.69,343.56L684.08,337L685.96,332.46L687.85,346.84L690.32,340.85L692.19,345.29L694.02,341.23L696.4,341.35L698.32,337.69L700.19,339.33L702.58,347.26L704.51,347.67L706.45,338.22L708.75,331.32L710.69,325.02L712.61,335.35L714.93,331.47L716.8,339.78L718.73,342.54L721.18,334.12L724.93,352.15L727.32,339.63L729.17,355.75L731.15,352.58L733.49,349.53L735.39,331.66L737.31,326.62L739.63,333.28L741.5,325.27L743.42,345.45L745.79,336.33L747.79,340.69L749.64,342.97L751.97,335.31L753.88,324.09L755.78,331.87L758.11,350.11L760.04,339.49L761.93,326.26L764.29,345.9L766.19,329.43L768.1,340.14L772.38,346.32L774.33,344L776.16,347.91L778.59,330.79L780.54,322.34L782.37,325.68L786.64,341.55L788.52,341.7L790.92,349.04L792.82,363.98L794.73,362.04L797.07,362.51L799.04,350.84L800.89,356.2L803.21,338.07L805.13,338.09L807.03,330.25L809.42,356.56L811.28,352.1L813.29,339.98L815.62,363.75L817.48,363.54L819.37,363.95L821.75,355L823.68,355.84L825.6,354.96L827.94,337.91L829.8,337.78L831.74,336.1L834.16,341.07L835.97,337.29L837.9,340.86L840.32,343.11L842.16,324.77L844.12,329.26L846.42,346L848.3,352.07L850.29,334.55L852.65,359.33L854.54,356.56L856.48,359.09L858.86,343.67L860.67,335.52L862.55,321.01L864.98,331.98L866.82,325.76L868.8,331.36L871.14,344.42L873,339.14L874.96,338.69L876.82,350.73L879.16,348.47L881.14,344.7L883,347.13L885.41,331.81L887.34,330.07L889.15,332.03L891.6,322.95L893.44,345.89L895.34,338.54L897.7,362.4L899.62,365.72L901.52,365L903.96,368.38L907.69,363.25L910.05,358.26L911.93,357.05L913.88,365.21L916.22,365.54L918.18,355.69L920,361.25L922.42,356.93L926.23,364.92L928.57,367.02L932.37,348.44L934.76,345.08L936.61,343.04L938.54,334.89L940.87,335.12L942.84,331.77L944.72,345.55L947.13,354.32L949.05,351.57L950.96,342.33L953.21,343.73L955.23,341.41L959.48,347.71L961.29,357.83L963.24,342.12L965.68,353.93L967.45,351.8L969.37,353.2L971.77,349.03L973.66,351.78L975.63,347.41L977.42,345.33L979.88,346.65L981.78,334.33L986.03,335.95L987.93,342.07L989.78,341.53L992.18,345.2L994.04,349.33L996.05,356.73L998.32,358.46L1000.21,358.57L1002.16,215.27L1004.5,208.55L1006.39,248.03L1008.31,196.41L1010.7,272.39L1012.56,304.46L1016.85,359.97L1018.8,375.23L1020.65,379.69L1023.09,383.12L1025,383.34" style="vector-effect: none; fill: none; stroke: rgb(244, 91, 91); stroke-opacity: 1; stroke-width: 2px; opacity: 1;"/></g><g class="points"/><g class="text"/></g><g class="trace scatter trace378e66" style="stroke-miterlimit: 2; opacity: 1;"><g class="fills"/><g class="errorbars"/><g class="lines"><path class="js-line" d="M0,382.6L10.47,382.84L12.34,382.02L18.52,380.73L20.41,379.84L22.79,380.6L24.7,380.02L26.6,373.46L28.98,372.22L30.87,370.3L32.77,364.91L35.16,357.6L37.03,357.05L38.95,356.85L41.32,314.84L43.2,292.3L45.1,281.17L47.48,286.04L49.42,304.01L51.33,317.15L53.17,349.73L55.57,347.9L57.46,332.24L59.34,327.74L61.74,273.99L63.63,195.53L65.52,234.2L67.91,201.3L69.8,158.54L71.69,193.09L74.08,120.91L76,174.19L77.91,163.22L80.24,220.02L82.17,158.5L84.06,283.09L86.45,267.82L88.35,236.35L90.23,218.29L92.62,275.36L94.46,276.45L96.41,280.64L98.74,240.99L100.66,129.19L102.54,161.62L104.91,234.81L106.81,183.92L108.74,215.92L111.16,226.64L113,195.53L114.92,138.23L117.28,193.44L119.21,256.46L121.11,207.38L123.48,238.65L125.35,254.82L127.26,234.06L129.63,232.69L131.52,240.24L133.42,195.85L135.81,213.17L137.7,204.56L139.58,213.41L142.01,217.85L143.88,251.05L145.76,227.53L148.17,208.76L150.01,247.56L151.92,253.22L153.88,227.95L156.24,248.87L158.11,237.6L160,188L164.26,271.8L166.22,261.6L170.48,271.13L172.35,264.19L174.75,237.96L176.65,251.94L178.54,250.7L180.89,269.91L182.79,256.32L184.73,253.62L187.05,264.8L188.97,282.7L190.84,259.19L193.21,257.65L195.17,283.34L197.06,254.09L199.42,296.35L201.36,294.3L203.2,282.59L205.6,305.34L209.36,166.69L211.74,182.63L213.69,244.74L215.56,261.53L217.92,252.77L219.87,274.77L221.73,295.33L224.13,247.22L226.02,280.1L227.86,272.76L230.25,293.51L232.18,274.28L234.07,262.44L236.45,303.49L238.33,297.7L240.24,281.58L242.59,286.53L244.5,296.1L246.44,294.12L248.81,270.1L250.69,291.49L252.55,288.89L254.93,284.75L256.85,261L258.75,272.76L260.64,272.69L264.89,300.29L266.8,292L269.23,276.27L271.08,285.26L272.97,282.24L275.37,294.92L277.27,296.69L279.15,287.24L281.52,289.53L283.43,267.25L285.33,265.62L287.69,296.95L289.64,290.86L291.49,298.88L293.88,291.06L295.77,295.14L297.65,289.33L300.12,221.17L301.96,250.62L303.82,239.52L306.23,249.01L308.09,237.59L312.39,297.93L314.28,322.27L316.25,297.66L318.55,278.34L322.4,317.4L324.77,313.52L326.69,304.17L328.51,288.33L330.87,308.14L332.82,315.19L334.72,295.33L337.04,289.33L338.94,304.43L340.92,302.51L343.28,305.52L345.17,299.23L347.12,290.14L349.4,302.36L351.37,303.19L353.24,293.93L355.64,265.83L357.48,301.87L359.4,298.63L361.31,307.33L363.67,288.13L365.58,289.55L367.43,310.76L369.85,285.55L371.73,270.09L373.63,267.65L376.05,263.56L377.88,252.37L379.77,252.7L382.16,259.43L385.94,307.94L388.33,272.02L390.26,320L392.15,313.84L394.49,300.12L396.42,311.26L398.32,319.25L400.73,313.81L402.61,304.07L404.47,305.26L408.77,280.11L410.69,300.45L413.06,287.72L414.97,303.2L416.87,304.34L419.18,308.62L421.16,318.39L423.03,298.06L425.4,289.52L427.25,325.29L431.59,307.03L433.42,306.36L435.36,295.42L437.73,307.05L439.62,312.13L441.59,291.78L443.88,309.11L445.76,295.53L447.65,283.26L450.07,250.02L451.93,298.55L453.86,322.23L456.22,303.31L458.12,311.2L460.02,317.36L461.93,307.3L464.3,319.71L466.22,305.24L468.1,322.36L470.45,304.65L472.36,307.4L474.24,297.89L476.65,282.55L478.54,291.25L482.82,276.58L484.7,278.1L486.61,308L488.95,300.52L490.86,289.2L492.77,288.33L495.13,309.71L497.03,306.47L498.98,323.12L501.4,328.09L503.24,305.25L505.16,310.62L507.57,311.68L509.4,306.46L511.29,296.97L513.72,302.85L515.57,308.37L517.5,310.6L519.85,276.58L521.8,277.6L523.67,269.71L526.07,301.96L527.98,291.95L529.84,297.9L532.18,261.78L534.06,264.98L538.31,276.33L540.25,280.09L542.14,296.26L544.53,301.73L546.41,295.76L548.32,303.22L550.66,293.87L552.62,308.86L554.46,319.26L556.87,326.25L558.74,330.22L560.68,320.53L563.04,326.55L564.91,317.8L566.82,322.74L568.75,317.34L572.98,316.76L574.92,311.31L577.28,317.26L579.15,330.24L581.05,307.32L583.43,322.97L587.28,301.45L589.7,323.78L591.51,326.65L593.46,327.1L595.83,314.77L597.71,311.53L599.63,310.84L601.95,304.26L603.87,282.63L605.8,284.85L610.04,238.94L611.95,267.64L616.21,296.07L618.16,296.68L620.5,310.86L622.36,308.18L624.24,326.68L626.68,330.88L628.56,335.52L630.45,295.85L632.82,321.12L634.79,320.49L636.63,318.64L638.99,289.89L640.87,311.78L642.76,301.1L645.16,334.3L647.03,315.3L648.94,326.94L651.36,331.73L653.23,332.14L655.19,334.58L657.56,333.21L659.45,336.07L661.37,323.36L663.71,315.31L665.56,321.42L667.49,336.61L669.46,333.21L671.72,336.33L673.69,328.44L675.55,335.97L677.92,322.99L679.84,330.87L681.7,339.19L684.11,331.58L685.98,338.79L687.96,332.73L690.34,326.72L692.2,318.89L694.02,320.79L696.42,342.84L698.34,346.08L700.29,333.16L702.6,319.73L704.52,327.67L708.76,332.87L710.67,332.45L712.56,320.08L714.97,332.45L716.84,319.07L718.77,337.54L721.12,345.75L723.04,336.28L724.89,333.89L727.33,328.5L729.22,328.55L731.14,294.16L733.45,318.43L735.41,298.84L737.34,314.75L739.64,309.91L741.5,344.32L743.46,330.51L745.87,317.98L747.74,318.69L749.58,337.81L751.94,348.46L753.89,320.74L755.83,324.26L758.12,311.76L760.06,321.62L761.92,324.54L764.32,332.69L766.24,326.39L768.07,342.81L770.01,335.03L772.36,322.17L774.37,301.21L776.22,301.86L780.47,339.08L782.36,340.02L784.73,351.14L786.59,349.17L788.51,348.92L790.97,350.44L792.83,349.44L794.66,339.57L797.12,338.91L798.96,335.76L800.85,330.68L803.23,341.58L805.13,337.32L807.03,322.7L809.41,331.09L811.37,343.76L813.29,349.48L815.61,338.98L819.43,351.48L821.81,335.48L823.71,330.26L825.53,336.26L827.94,336.37L829.84,338.62L831.69,334.94L834.12,325L836.07,326.97L837.88,333.91L840.31,339.57L842.18,347.41L844.11,344.29L846.5,348.59L848.39,343.01L850.29,347.92L852.66,318.5L854.52,316.25L856.39,301.78L858.76,307.7L860.72,309.26L862.58,329.23L864.93,341.35L866.83,334.82L868.79,325.74L871.16,337.96L873.04,342.29L874.95,335.15L876.79,335.1L879.17,338.01L881.14,337.33L882.96,329.69L885.34,334.46L887.32,332.67L889.24,326.99L891.55,352.45L893.44,351.2L895.29,355.57L897.69,360.91L899.68,344.84L901.46,350.17L903.91,346.75L905.85,353.54L907.72,347.48L910.05,357.22L911.92,351.07L913.92,337.77L916.29,335.49L918.09,338.96L920.02,345.47L922.43,336.87L924.32,324.66L926.16,323.91L928.57,310.83L930.48,320.15L932.36,308.23L934.72,323.78L936.6,320.96L942.85,353.25L944.67,338.41L947.16,333.4L948.98,339.46L950.86,337.02L953.32,348.15L957.09,344.27L959.49,345.46L961.29,343.74L963.22,344.81L965.59,346.51L967.56,358.55L969.38,357.15L971.8,347.49L975.59,342.76L977.45,334.18L979.85,338.09L981.73,336.68L983.65,336.91L985.96,350.45L987.88,346.63L989.81,348.85L994.07,346.43L996,352.06L998.34,347.83L1000.21,327.06L1002.19,243.77L1004.51,232.43L1008.3,191.96L1010.7,250.59L1014.45,331.74L1016.82,358.04L1018.81,377.49L1020.64,379.2L1023.04,382.56L1024.97,383.51" style="vector-effect: none; fill: none; stroke: rgb(145, 232, 225); stroke-opacity: 1; stroke-width: 2px; opacity: 1;"/></g><g class="points"/><g class="text"/></g><g class="trace scatter trace85c829" style="stroke-miterlimit: 2; opacity: 1;"><g class="fills"/><g class="errorbars"/><g class="lines"><path class="js-line" d="M0,383.22L1.9,382.66L4.28,382.88L18.54,381.76L20.44,381.32L24.72,380.1L26.58,375.78L28.98,373.1L30.89,374.08L32.79,371.1L35.13,363.18L37.03,367.35L38.97,369.55L41.32,347.88L43.23,307.88L47.53,341.62L49.37,332.98L51.28,350.56L53.19,356.34L55.56,356.68L57.44,352L59.36,343.71L61.74,319.74L63.61,297.72L65.55,287.47L67.96,246.69L69.8,239.37L71.71,214.2L74.1,168.8L75.98,232.89L77.92,244.66L80.27,234.39L82.17,235.07L84.06,281.04L86.41,210.3L88.3,249.73L90.22,308.1L92.6,301.52L94.52,289.15L96.39,294.26L98.8,273.06L100.68,283.09L102.55,262.2L106.81,142.86L108.76,240.59L111.14,186.57L113.07,263.44L114.89,214.29L117.25,225.31L119.18,217.86L121.06,245.27L123.46,267.15L125.35,240.94L127.24,276.54L129.61,268.9L131.51,270.89L133.45,256.97L137.73,241.99L139.57,230.48L141.98,227.21L143.85,273.42L145.78,249.38L148.11,277.84L150.06,248.52L151.91,272.83L153.82,264.13L156.23,267.98L158.13,290.39L160.05,280L162.35,280.16L164.29,271.46L166.21,268.33L168.53,253.8L172.39,301.25L174.71,297.48L178.5,277.07L180.89,272.67L182.77,268.93L184.69,279.15L187.06,250.32L188.95,288.71L190.86,293.3L193.25,289.43L195.11,294.52L197.1,292.49L199.39,271.11L201.29,282.69L203.18,300.1L205.6,294.88L207.45,258.03L209.37,296.45L211.74,298.13L213.67,295.55L215.55,324.7L217.9,197.36L219.84,152.3L221.69,211.54L224.08,261.53L225.99,266.56L227.89,294.51L230.27,284.27L232.14,291.89L234.03,295.88L236.43,307.96L238.34,283.89L240.23,294.21L242.65,293.39L244.51,317.92L246.42,307.45L248.82,324.24L250.68,296.31L252.61,300.19L254.97,288.3L256.93,288.76L258.78,304.32L260.65,319.59L263.03,313.13L266.87,285.71L269.2,288.91L271.06,282L272.96,305.48L275.35,312.47L277.26,286.11L279.19,283.43L281.61,311.08L283.44,307.03L285.37,308.81L287.68,309.82L289.62,309.63L291.47,304.33L293.87,303.07L295.78,302.23L297.75,298.77L300.02,313.67L301.91,307.41L306.18,327.41L308.08,309.23L310,303.11L312.42,251.3L316.18,266.45L318.53,242.14L320.45,290.56L322.36,298.38L324.77,322.74L326.64,292.67L328.57,285.83L330.92,312.83L332.83,326.75L334.72,322.02L337.05,337.41L338.94,318.96L343.27,306.53L345.13,315.15L347.15,311.32L349.4,293.61L351.32,316.26L353.22,307.69L355.55,323.54L357.48,322.02L359.43,311.62L361.27,311.89L363.65,308.98L365.58,316.14L367.43,303.4L369.8,318.71L371.78,295.72L373.67,321.03L377.91,312.04L379.77,308.64L382.16,300.12L384.04,267.32L386.01,292.66L388.31,287.49L390.24,275.05L392.14,283.03L394.53,275.7L396.41,284.13L398.33,287.24L400.7,303.56L402.56,317.49L404.5,324.3L406.89,317.38L408.72,329.24L410.66,319.31L413,329.31L414.97,303.38L416.88,309.61L419.25,302.16L421.08,309.86L423.01,295.92L425.34,311.03L427.28,297.76L429.2,315.01L431.58,316.18L433.42,325.92L435.34,305.59L437.74,324.16L439.64,324.3L441.53,316.01L443.86,303.27L445.78,305.78L447.66,307.78L450.06,309.09L452,297.07L453.89,304.27L456.22,313.16L458.11,305.58L460.05,303.19L461.92,317.47L464.33,322.99L466.16,315.61L468.06,320.84L470.43,316.41L472.4,320.26L474.3,313.73L476.67,322.98L478.52,319.56L480.43,325.31L482.88,299.36L484.73,300.07L486.58,309.76L490.85,285.44L492.74,290.96L495.2,301.79L497.03,299.54L498.95,313.04L501.3,310.12L503.19,308.02L505.12,316.5L507.52,331.7L509.46,320.48L511.31,323.14L513.68,322.85L515.53,321.54L517.48,326.47L519.81,311.26L521.79,313.9L523.7,304.01L526.03,314.99L527.97,321.28L529.8,307L532.16,282.39L534.08,311.72L536.05,330.58L538.38,322.99L542.14,282.44L544.51,285.05L546.38,286.78L548.31,293.05L550.69,292.14L552.57,300.38L554.47,302.02L556.84,297.14L558.75,303.75L560.65,302.5L563.06,309.29L564.91,328.19L566.81,334.61L568.79,326.25L571.11,333.66L573.07,324.14L574.9,328.17L577.3,323.39L579.22,313.59L581.1,338.51L583.47,315.75L585.32,338.06L587.32,310.23L589.58,321.66L591.55,318.63L593.45,332.36L595.77,313.28L597.67,319.87L599.65,303.04L601.97,334.77L603.9,324.21L605.73,328.04L608.11,322.82L610.04,321.7L611.92,315.85L614.27,293.08L616.18,266.24L618.09,276.14L620.45,260.66L622.36,280.03L624.32,302.51L626.62,275.92L628.51,272.83L630.48,294.66L632.79,316.39L634.71,312.43L636.63,332.31L638.96,336.28L640.95,313.41L642.86,325.2L645.15,327.62L647.05,334.68L651.31,305.89L653.23,323.13L655.1,313.71L657.47,309.55L661.29,329.04L663.72,335.66L665.59,332.52L667.48,345.34L669.34,337.35L671.72,338.96L673.65,330.26L675.53,335.33L677.91,338.44L679.82,328.84L681.77,327.02L684.14,338.48L685.98,337.18L687.93,333.25L690.27,323.06L692.24,334.52L694.05,334.48L696.46,339.68L700.23,324.3L702.65,325.47L704.56,325.05L706.39,336.2L708.8,344.57L710.7,324.47L712.56,313.81L715.02,316.58L718.75,323.61L721.19,333.52L723.06,340.17L724.94,351.38L731.14,329.64L733.46,337.2L735.43,335.02L737.3,328.13L739.69,322.61L741.52,310.25L743.43,298.82L745.8,330.74L747.66,314.89L749.59,338.41L751.99,343.5L753.94,326.89L755.74,328.89L758.17,329.79L760.05,338.11L761.97,333.01L764.37,322.97L766.21,340.41L768.08,337.56L769.99,330.44L772.44,349.32L774.27,346.01L778.55,316.71L780.52,325.97L782.38,328.92L784.7,298.67L786.63,323.43L788.52,326.03L790.92,335.41L792.83,349.9L794.68,356.18L797.18,359.89L798.98,357.43L800.93,351.89L805.16,349.5L807.07,339.7L809.38,326.83L811.34,349.82L813.21,353.69L815.56,338.5L817.53,355.89L819.4,362.71L823.64,368.49L825.53,372.54L827.94,374.41L829.89,368.92L831.78,352.87L834.07,354.79L836.02,347.03L837.91,346.13L840.26,342.24L842.19,348.29L844.09,331.99L846.48,337.25L848.34,345.41L850.21,341.29L852.64,335.24L854.51,337.6L858.81,345.48L860.75,331.62L862.62,326.66L864.98,330.71L866.89,316.42L868.76,319.26L871.13,333.47L873.09,336.21L876.79,339.79L879.3,348.56L881.14,340.73L882.97,339.2L885.34,336.5L887.28,332.93L889.14,336.44L891.51,326.05L893.44,343.27L895.41,329.92L899.61,360.5L901.47,365.76L903.84,354.2L905.82,361.83L911.92,347.87L913.83,348.48L916.32,346.49L918.14,348.18L920.08,339.04L922.37,335.19L924.26,340.17L926.2,342.19L928.57,347.57L930.42,344.53L932.43,320.04L934.8,325.72L936.69,328.59L938.6,321.08L940.98,328.59L942.85,318.06L944.69,321.61L947.08,341.81L948.97,340.97L950.85,338.17L953.29,335.03L955.13,345.55L957.04,348.46L959.51,340.58L961.35,343.62L963.2,343.07L967.56,343.94L969.36,338.47L971.76,354.8L973.65,358L977.44,339.4L979.86,344.4L981.81,344.13L983.59,323.64L986.07,322.82L987.93,329.32L989.82,335.44L992.13,339.1L994.09,353.41L995.99,351.51L998.38,346.34L1000.21,331.13L1002.12,260.47L1004.49,209.93L1006.41,250.17L1008.33,168.26L1010.68,260.63L1012.63,295.94L1014.49,330.54L1016.88,350.52L1018.8,375.27L1020.72,380.72L1024.94,383.16" style="vector-effect: none; fill: none; stroke: rgb(124, 181, 236); stroke-opacity: 1; stroke-width: 2px; opacity: 1;"/></g><g class="points"/><g class="text"/></g></g></g></g><path class="xlines-above crisp" d="M0,0" style="fill: none;"/><path class="ylines-above crisp" d="M0,0" style="fill: none;"/><g class="overlines-above"/><g class="xaxislayer-above"><g class="xtick"><text text-anchor="middle" x="0" y="451" transform="translate(60,0)" style="font-family: 'Lucida Grande', 'Open Sans', verdana, arial, sans-serif; font-size: 10px; fill: rgb(0, 0, 0); fill-opacity: 1; white-space: pre; opacity: 1;">0</text></g><g class="xtick"><text text-anchor="middle" x="0" y="451" style="font-family: 'Lucida Grande', 'Open Sans', verdana, arial, sans-serif; font-size: 10px; fill: rgb(0, 0, 0); fill-opacity: 1; white-space: pre; opacity: 1;" transform="translate(249.88,0)">2k</text></g><g class="xtick"><text text-anchor="middle" x="0" y="451" style="font-family: 'Lucida Grande', 'Open Sans', verdana, arial, sans-serif; font-size: 10px; fill: rgb(0, 0, 0); fill-opacity: 1; white-space: pre; opacity: 1;" transform="translate(439.76,0)">4k</text></g><g class="xtick"><text text-anchor="middle" x="0" y="451" style="font-family: 'Lucida Grande', 'Open Sans', verdana, arial, sans-serif; font-size: 10px; fill: rgb(0, 0, 0); fill-opacity: 1; white-space: pre; opacity: 1;" transform="translate(629.64,0)">6k</text></g><g class="xtick"><text text-anchor="middle" x="0" y="451" style="font-family: 'Lucida Grande', 'Open Sans', verdana, arial, sans-serif; font-size: 10px; fill: rgb(0, 0, 0); fill-opacity: 1; white-space: pre; opacity: 1;" transform="translate(819.53,0)">8k</text></g><g class="xtick"><text text-anchor="middle" x="0" y="451" style="font-family: 'Lucida Grande', 'Open Sans', verdana, arial, sans-serif; font-size: 10px; fill: rgb(0, 0, 0); fill-opacity: 1; white-space: pre; opacity: 1;" transform="translate(1009.41,0)">10k</text></g></g><g class="yaxislayer-above"><g class="ytick"><text text-anchor="end" x="54" y="3.5" transform="translate(0,435)" style="font-family: 'Lucida Grande', 'Open Sans', verdana, arial, sans-serif; font-size: 10px; fill: rgb(0, 0, 0); fill-opacity: 1; white-space: pre; opacity: 1;">0</text></g><g class="ytick"><text text-anchor="end" x="54" y="3.5" style="font-family: 'Lucida Grande', 'Open Sans', verdana, arial, sans-serif; font-size: 10px; fill: rgb(0, 0, 0); fill-opacity: 1; white-space: pre; opacity: 1;" transform="translate(0,384.19)">1B</text></g><g class="ytick"><text text-anchor="end" x="54" y="3.5" style="font-family: 'Lucida Grande', 'Open Sans', verdana, arial, sans-serif; font-size: 10px; fill: rgb(0, 0, 0); fill-opacity: 1; white-space: pre; opacity: 1;" transform="translate(0,333.38)">2B</text></g><g class="ytick"><text text-anchor="end" x="54" y="3.5" style="font-family: 'Lucida Grande', 'Open Sans', verdana, arial, sans-serif; font-size: 10px; fill: rgb(0, 0, 0); fill-opacity: 1; white-space: pre; opacity: 1;" transform="translate(0,282.58000000000004)">3B</text></g><g class="ytick"><text text-anchor="end" x="54" y="3.5" style="font-family: 'Lucida Grande', 'Open Sans', verdana, arial, sans-serif; font-size: 10px; fill: rgb(0, 0, 0); fill-opacity: 1; white-space: pre; opacity: 1;" transform="translate(0,231.77)">4B</text></g><g class="ytick"><text text-anchor="end" x="54" y="3.5" style="font-family: 'Lucida Grande', 'Open Sans', verdana, arial, sans-serif; font-size: 10px; fill: rgb(0, 0, 0); fill-opacity: 1; white-space: pre; opacity: 1;" transform="translate(0,180.96)">5B</text></g><g class="ytick"><text text-anchor="end" x="54" y="3.5" style="font-family: 'Lucida Grande', 'Open Sans', verdana, arial, sans-serif; font-size: 10px; fill: rgb(0, 0, 0); fill-opacity: 1; white-space: pre; opacity: 1;" transform="translate(0,130.15)">6B</text></g><g class="ytick"><text text-anchor="end" x="54" y="3.5" style="font-family: 'Lucida Grande', 'Open Sans', verdana, arial, sans-serif; font-size: 10px; fill: rgb(0, 0, 0); fill-opacity: 1; white-space: pre; opacity: 1;" transform="translate(0,79.35)">7B</text></g></g><g class="overaxes-above"/></g></g><g class="polarlayer"/><g class="smithlayer"/><g class="ternarylayer"/><g class="geolayer"/><g class="funnelarealayer"/><g class="pielayer"/><g class="iciclelayer"/><g class="treemaplayer"/><g class="sunburstlayer"/><g class="glimages"/><defs id="topdefs-9f0f4b"><g class="clips"/></defs><g class="layer-above"><g class="imagelayer"/><g class="shapelayer"/></g><g class="infolayer"><g class="g-gtitle"><text class="gtitle" x="550" y="25" text-anchor="middle" dy="0em" style="opacity: 1; font-family: 'Lucida Grande', 'Open Sans', verdana, arial, sans-serif; font-size: 20px; fill: rgb(42, 63, 95); fill-opacity: 1; white-space: pre;"><tspan class="line" dy="0em" x="550" y="25">Total Ion Chromatograms</tspan><tspan class="line" dy="1.3em" x="550" y="25"><tspan style="font-size:70%" dy="-0.6em">11 samples</tspan><tspan dy="0.42em"></tspan></tspan></text></g><g class="g-xtitle"/><g class="g-ytitle"><text class="ytitle" transform="rotate(-90,27.365625,242.5)" x="27.365625" y="242.5" text-anchor="middle" style="opacity: 0.3; font-family: 'Lucida Grande', 'Open Sans', verdana, arial, sans-serif; font-size: 14px; fill: rgb(0, 0, 0); fill-opacity: 1; white-space: pre;">Ion Count</text></g></g></svg>