<svg class="main-svg" xmlns="http://www.w3.org/2000/svg" xmlns:xlink="http://www.w3.org/1999/xlink" width="2200" height="1000" style="" viewBox="0 0 1100 500"><rect x="0" y="0" width="1100" height="500" style="fill: rgb(255, 255, 255); fill-opacity: 1;"/><defs id="defs-e44273"><g class="clips"><clipPath id="clipe44273xyplot" class="plotclip"><rect width="1025" height="385"/></clipPath><clipPath class="axesclip" id="clipe44273x"><rect x="60" y="0" width="1025" height="500"/></clipPath><clipPath class="axesclip" id="clipe44273y"><rect x="0" y="50" width="1100" height="385"/></clipPath><clipPath class="axesclip" id="clipe44273xy"><rect x="60" y="50" width="1025" height="385"/></clipPath></g><g class="gradients"/><g class="patterns"/></defs><g class="bglayer"/><g class="layer-below"><g class="imagelayer"/><g class="shapelayer"/></g><g class="cartesianlayer"><g class="subplot xy"><g class="layer-subplot"><g class="shapelayer"/><g class="imagelayer"/></g><g class="minor-gridlayer"><g class="x"/><g class="y"/></g><g class="gridlayer"><g class="x"><path class="xgrid crisp" transform="translate(249.88,0)" d="M0,50v385" style="stroke: rgb(0, 0, 0); stroke-opacity: 0.05; stroke-width: 1px;"/><path class="xgrid crisp" transform="translate(439.76,0)" d="M0,50v385" style="stroke: rgb(0, 0, 0); stroke-opacity: 0.05; stroke-width: 1px;"/><path class="xgrid crisp" transform="translate(629.64,0)" d="M0,50v385" style="stroke: rgb(0, 0, 0); stroke-opacity: 0.05; stroke-width: 1px;"/><path class="xgrid crisp" transform="translate(819.53,0)" d="M0,50v385" style="stroke: rgb(0, 0, 0); stroke-opacity: 0.05; stroke-width: 1px;"/><path class="xgrid crisp" transform="translate(1009.41,0)" d="M0,50v385" style="stroke: rgb(0, 0, 0); stroke-opacity: 0.05; stroke-width: 1px;"/></g><g class="y"><path class="ygrid crisp" transform="translate(0,389.57)" d="M60,0h1025" style="stroke: rgb(0, 0, 0); stroke-opacity: 0.05; stroke-width: 1px;"/><path class="ygrid crisp" transform="translate(0,344.13)" d="M60,0h1025" style="stroke: rgb(0, 0, 0); stroke-opacity: 0.05; stroke-width: 1px;"/><path class="ygrid crisp" transform="translate(0,298.7)" d="M60,0h1025" style="stroke: rgb(0, 0, 0); stroke-opacity: 0.05; stroke-width: 1px;"/><path class="ygrid crisp" transform="translate(0,253.26)" d="M60,0h1025" style="stroke: rgb(0, 0, 0); stroke-opacity: 0.05; stroke-width: 1px;"/><path class="ygrid crisp" transform="translate(0,207.83)" d="M60,0h1025" style="stroke: rgb(0, 0, 0); stroke-opacity: 0.05; stroke-width: 1px;"/><path class="ygrid crisp" transform="translate(0,162.39)" d="M60,0h1025" style="stroke: rgb(0, 0, 0); stroke-opacity: 0.05; stroke-width: 1px;"/><path class="ygrid crisp" transform="translate(0,116.96)" d="M60,0h1025" style="stroke: rgb(0, 0, 0); stroke-opacity: 0.05; stroke-width: 1px;"/><path class="ygrid crisp" transform="translate(0,71.52)" d="M60,0h1025" style="stroke: rgb(0, 0, 0); stroke-opacity: 0.05; stroke-width: 1px;"/></g></g><g class="zerolinelayer"><path class="yzl zl crisp" transform="translate(0,435)" d="M60,0h1025" style="stroke: rgb(0, 0, 0); stroke-opacity: 0.05; stroke-width: 2px;"/></g><g class="layer-between"><g class="shapelayer"/><g class="imagelayer"/></g><path class="xlines-below"/><path class="ylines-below"/><g class="overlines-below"/><g class="xaxislayer-below"/><g class="yaxislayer-below"/><g class="overaxes-below"/><g class="overplot"><g class="xy" transform="translate(60,50)" clip-path="url(#clipe44273xyplot)"><g class="scatterlayer mlayer"><g class="trace scatter tracec72f20" style="stroke-miterlimit: 2; opacity: 1;"><g class="fills"/><g class="errorbars"/><g class="lines"><path class="js-line" d="M0,383.24L10.44,382.35L12.38,381.67L14.25,381.92L16.64,381.24L20.43,379.1L22.81,379.49L24.69,379.37L26.59,374.31L32.77,366.76L35.13,357.08L37.03,348.76L38.95,359.18L43.2,301.52L45.11,315.49L47.52,310.9L49.38,324.95L51.29,330.73L53.2,351.26L55.57,353.63L57.48,348.45L61.71,313.54L63.61,281.36L65.55,231.29L67.93,214.54L69.83,242.73L71.72,191.37L74.1,221.19L75.98,222.92L77.89,215.48L80.23,252.3L82.18,218.48L84.05,270.57L86.4,214.16L88.33,269.36L90.19,320.37L92.58,304.4L94.51,267.57L96.41,262.27L98.75,262.37L100.67,275.14L104.91,231.58L106.85,125.64L108.73,198.69L111.12,210.59L113,209.64L114.95,220.82L117.28,213.56L119.17,233.62L121.05,237.24L123.45,273.54L125.37,281.32L127.31,294.36L131.52,279.11L133.41,283.79L137.68,268.07L139.59,264.15L141.94,241.27L143.88,243.71L145.77,246.18L148.12,278.61L150.05,273.15L151.94,282.68L153.81,283.54L156.22,307.54L158.1,288.64L159.99,287.77L162.38,266.88L164.28,298.04L166.15,288.17L168.58,300.84L172.33,246.33L174.7,275.41L176.6,283.81L178.51,286.36L180.88,285.33L182.83,297.38L184.7,283.8L187.07,291.38L188.95,274.5L190.86,287.98L193.23,308.02L195.12,292.89L199.4,317.61L201.3,298.39L203.19,283.57L205.62,306.28L207.45,263.79L209.34,280.52L211.74,289.45L213.66,276.94L215.53,275.71L217.9,290.69L221.75,314.05L224.07,312.12L225.99,314.82L227.88,227.55L230.25,200.77L232.15,236.1L234.04,273.84L236.42,297.14L240.26,266.52L242.58,300L244.49,313.65L246.41,296.54L248.77,304.56L250.66,270.57L252.63,313.83L254.92,320.29L256.87,311.57L258.74,309.07L260.67,299.37L262.99,310.18L264.97,304.68L266.84,313.21L269.17,291L271.08,311.41L273,316.54L275.35,309.92L277.26,308.88L279.2,296.69L281.54,283.34L283.4,310.21L285.33,306.33L287.67,308.13L289.6,304.36L291.55,306.83L293.9,299.93L295.76,313.62L297.69,312.66L300.09,305.54L301.97,295.03L303.85,312.08L306.23,324.95L308.11,304.62L309.99,268.24L312.38,304.49L314.27,331.52L316.16,327.71L318.56,300.6L320.44,297.05L324.72,247.81L326.61,283.33L328.5,265.39L330.87,334.04L334.72,286.44L337.05,322.36L338.98,326.27L340.84,327.29L345.13,320.23L347.04,325.23L349.44,320.71L351.34,308.96L353.2,311.26L355.56,296.85L357.52,311.34L359.36,298.79L361.26,302.65L363.68,322.5L365.55,329.67L367.43,305L371.73,318.69L373.6,317.03L376.05,313.23L377.88,318.73L379.79,323.18L382.14,312L384.11,316.4L385.97,324.3L388.34,304.97L390.27,300.79L392.14,250.57L394.5,291.52L396.41,276.18L398.3,270.52L400.65,267.39L402.55,287.36L404.54,290.52L406.84,312.93L408.72,302L410.63,318.2L413.07,325.93L414.96,320.02L416.85,334.32L419.17,320.27L421.07,332.25L422.97,304.36L425.35,316.44L427.27,317.45L429.18,324.86L431.51,319.3L433.47,312.23L435.32,325.57L437.71,319.63L439.6,334.85L441.54,335.73L443.91,319.18L445.78,326.4L447.67,329.67L450.11,328.6L452.01,323.16L453.88,308.61L456.26,322.82L461.91,325.03L464.34,338.13L468.14,314.54L470.49,332.14L472.35,331.86L474.32,334.94L476.7,335.4L478.6,319.99L480.42,329.7L482.81,333.31L484.78,335.8L486.58,331.58L488.95,318.85L490.85,318.06L492.74,308.52L495.21,326.1L497.02,293.34L498.93,308.95L501.33,293.94L503.27,305.34L505.16,319.16L507.56,307.61L509.43,306.15L511.31,324.43L513.63,330.9L515.54,328.57L517.46,336.39L519.82,334.49L521.73,330.99L523.69,339.08L526.04,337.67L527.94,325.33L529.82,340.24L532.24,324.53L534.15,318.86L535.98,328.37L538.33,318.28L540.27,301.42L542.12,311.01L544.52,334.26L546.41,342.33L548.33,338.88L550.76,309.84L552.56,274.08L554.46,277.11L556.88,263.27L558.81,302.22L560.68,301.11L563.01,300.71L564.91,309.54L566.82,320.98L568.73,324.65L571.13,332.4L572.98,333.18L574.92,333.9L577.32,344.68L579.19,327.46L581.08,342.91L583.47,340.91L585.41,340.43L587.32,332.78L589.58,337.62L591.51,337.11L593.46,337.73L595.88,335.25L597.68,331.1L599.65,338.95L601.97,335.84L603.94,330.9L605.85,336.79L608.1,336.5L610.01,333.98L611.96,345.55L614.36,326.47L618.08,332.55L620.51,320.65L622.35,316.02L624.33,271.66L626.63,297.23L628.52,304.05L630.47,282.12L632.8,291.47L634.69,306.84L636.6,292.69L639,299.61L640.93,311.3L642.79,312.94L645.2,332.5L647.12,322.99L648.96,337.53L651.36,340.65L653.23,340.18L655.15,337.46L657.52,323.22L659.39,318.32L661.35,331.68L663.69,330.27L665.6,346.18L667.46,344.7L669.35,348.4L671.73,342.23L673.64,342.86L675.62,337.97L677.93,348.92L679.86,346.85L681.72,340.28L684.17,323.39L686.03,337.26L687.89,333.54L690.23,337.01L692.23,322.8L694.12,336.45L696.42,332.65L698.32,317.74L700.32,345.24L702.61,347.81L704.54,352.98L706.4,342.06L708.75,343.46L710.69,334.1L712.56,343.79L715.03,342.58L716.93,339.61L718.75,349.49L721.11,346.43L723.07,327.31L724.96,325.4L727.35,331.15L729.15,325.94L731.06,335.35L733.44,347.5L735.35,352.51L737.24,348.23L739.61,325.88L741.5,339.73L743.43,346.12L745.85,338.86L747.67,329.6L749.6,318.07L751.97,331.55L753.91,331.59L755.77,351.15L758.15,342.5L760.06,340.39L761.91,324.53L764.39,336.7L766.2,345.53L768.09,332.26L770.01,320L772.39,329.52L774.29,324.37L776.3,334.4L778.59,341.44L780.5,339.72L782.41,352.17L784.7,333.22L788.55,337.45L790.9,324.77L792.79,300.78L794.69,326.84L797.08,336.09L798.97,347.2L803.25,362.87L805.1,361.48L809.39,355.79L811.34,346.48L813.27,352.34L815.6,342.09L817.53,338.21L819.39,339.01L821.74,355.65L823.72,348.27L825.56,336.21L828,343.32L829.87,336.94L831.77,340.55L834.07,330.31L836.01,351.82L837.88,341.22L840.27,336.17L842.17,344.97L844.05,343.6L846.46,338.6L848.37,338.1L850.25,357.55L852.61,346.52L854.57,354.41L856.45,353.51L858.81,339.74L860.72,353.81L862.63,360L864.93,356.47L866.92,340.91L868.76,348.89L871.19,336.8L873.06,336.53L874.97,324.43L876.86,337.05L879.25,340.99L881.13,333.48L883.04,333.61L885.39,346.58L887.26,352.08L889.23,336.27L891.56,343.95L893.43,353.78L895.37,349.42L897.74,348.36L899.63,331.1L901.53,338.86L903.89,343.82L905.84,334.91L907.64,335.47L910.02,329.43L912,360.16L913.86,360.49L916.18,360.29L918.09,360.89L920.01,361.59L922.38,355.79L924.37,360.32L926.2,361.93L930.51,365.15L932.37,351.75L934.75,356.37L936.64,355.12L938.55,364.05L940.91,363.15L942.85,360.91L944.72,349.82L947.12,348.82L948.98,340.75L950.93,326.01L953.25,319.65L955.12,340.99L957.03,351.88L959.43,359.64L961.31,354.65L963.22,350.63L965.56,351.83L969.46,354.32L971.79,362.61L973.73,362.25L975.65,358.78L977.48,354.09L979.84,350.76L981.76,348.2L983.62,354.32L986.03,355.86L987.93,353.74L989.85,343.84L992.18,341.44L994.09,355.5L995.99,341.38L998.43,345.04L1000.25,337.5L1002.17,289.36L1004.49,167.62L1006.44,133.26L1008.28,173.95L1010.7,218.48L1012.59,300.51L1014.5,334.1L1016.83,354.92L1018.8,379.29L1020.73,375.2L1024.9,382.05" style="vector-effect: none; fill: none; stroke: rgb(124, 181, 236); stroke-opacity: 1; stroke-width: 2px; opacity: 1;"/></g><g class="points"/><g class="text"/></g><g class="trace scatter trace13e6e4" style="stroke-miterlimit: 2; opacity: 1;"><g class="fills"/><g class="errorbars"/><g class="lines"><path class="js-line" d="M0,381.85L1.93,380.41L4.27,381.53L6.18,381.37L8.07,379.67L10.47,381.03L12.37,379.82L14.25,380.6L16.61,379.21L18.52,378.6L20.42,376.32L22.81,377.65L24.71,375.42L26.61,365.55L28.96,362.72L30.86,362.27L32.78,358.56L35.17,350.54L37.06,331.79L38.93,306.43L41.32,326.38L43.26,254.01L45.09,230.58L49.37,291.75L51.3,306.67L53.19,324.09L55.57,323.05L57.44,313.63L59.36,284.23L61.72,254.93L63.68,255.34L65.54,205.4L67.9,187.73L69.81,196.02L71.75,168.44L75.96,133.1L77.89,77.72L80.24,228.33L82.16,225.83L84.04,232.31L86.42,214.73L90.23,268.01L92.58,234.82L96.37,161.53L98.77,228.17L100.65,223.34L102.61,222.37L104.97,220.3L106.81,225.47L108.75,215.6L111.11,158.3L113.01,191.08L114.97,254.35L117.3,196.88L119.17,222.2L121.07,230.95L123.45,236.53L125.32,244.17L127.27,236.67L129.64,194.06L131.53,221.57L133.41,224.22L135.8,224.35L137.68,212.4L139.59,248.45L141.96,256.33L143.86,248.68L145.79,220.47L148.13,257.99L150.05,191L151.96,240.41L153.82,239.23L156.2,220.37L158.09,235.7L159.98,224.73L162.36,271.08L164.28,253.62L168.56,262.73L170.47,215.84L172.39,239.81L174.75,231.87L178.51,243.54L180.89,267.78L182.82,249L184.74,246.59L187.05,225.55L188.98,256.82L190.85,259.81L193.22,249.53L195.12,255.03L197.03,275.76L199.39,276.8L201.31,265.33L203.19,214.63L205.57,180.9L207.46,173.99L209.38,193.69L211.73,234.2L213.62,225.33L215.55,260.58L217.93,264.42L219.84,253.53L221.72,232.89L224.1,269.3L226,280.03L227.87,229.55L230.3,265.93L232.14,292.12L234.03,298.91L240.24,270.21L242.58,267.56L244.51,270.2L246.51,284.09L248.79,252.3L250.7,284.43L252.56,235.16L254.94,250.28L256.82,252.48L258.76,276.53L260.64,285.68L262.99,264.41L266.84,242.39L269.19,276.32L271.13,287.18L273.01,283.17L275.34,289.63L277.28,282.18L279.13,235.67L281.54,249.35L283.44,281.76L285.31,297.01L287.73,256.12L289.57,271.31L291.5,277.98L293.86,294.22L295.81,256.45L297.65,198.65L300.04,172.51L301.92,204.52L303.81,251.02L306.2,242.88L310.1,307.52L312.37,270.92L314.28,261.56L316.22,282.66L318.6,309.6L320.49,287.68L324.77,294.03L326.61,287.94L330.94,281L332.8,286.16L337.06,272.73L338.99,289.68L340.86,284.2L343.25,297.67L345.14,292.27L347.08,301.48L349.46,285.78L351.31,300.72L353.22,303.21L355.6,299.62L357.48,297.35L359.38,305.09L361.31,300.27L363.69,291.74L365.58,289.44L367.47,270.93L369.89,213.63L371.74,221.44L373.65,220.13L375.97,237.09L377.88,237.13L379.81,247.16L384.04,289.89L385.98,306.37L388.39,303.03L390.23,279.16L392.17,305.71L394.58,300.85L396.48,297.59L398.29,299.31L400.72,297.85L402.61,269.83L406.83,301.51L408.78,272.38L410.65,298.02L413.06,307.89L414.91,292.84L416.81,305.4L419.28,301.91L421.07,283.01L422.97,313.13L425.35,313.68L427.33,294.27L429.19,303.34L431.53,289.06L433.45,307.08L435.39,304.34L437.73,308.09L439.61,294.88L441.49,303.95L443.95,270.23L445.76,261.33L447.66,267.62L450.04,298.14L451.97,312.93L453.84,301.92L456.19,312.97L458.15,314.74L460.03,305.91L461.89,307.61L466.19,296.71L468.06,283.22L470.46,290.08L472.35,273.55L476.63,234.35L478.56,249.28L482.78,286.09L484.68,297.55L486.6,280.33L488.97,297.81L490.89,301.69L492.76,299.62L495.17,315.02L497.03,307.44L498.94,317.51L501.36,305.63L503.23,303.95L505.09,309.59L507.57,285.26L509.4,312.47L511.26,302.96L513.7,298.44L515.56,265.38L517.52,262.4L519.83,251.84L521.7,281.22L523.61,289.89L526.05,263.41L527.87,238.72L529.78,260.21L532.14,250.05L534.14,252.39L536.01,231.75L538.31,261.56L540.27,293.17L542.21,284.39L544.54,302.86L546.4,279.67L548.31,311.9L550.69,324.78L552.65,331.21L554.47,330.44L556.92,324.81L558.77,324.32L560.67,323.5L563.06,332.61L566.85,302.2L568.78,320.31L571.12,324.68L573.02,301.24L574.97,307.55L577.3,320.42L579.17,315.15L581.1,312.23L585.38,306.28L587.23,315.87L589.67,311.25L591.58,316.68L593.46,313.01L595.79,280.36L597.69,266.86L599.58,264.21L601.94,269.75L603.9,254.48L605.73,248.33L608.11,252.09L610.02,272.73L611.93,229.88L614.31,297.88L616.19,304.71L618.09,302.12L620.52,328.3L622.36,322.82L624.25,302.6L626.65,293.39L628.54,308.2L630.5,301.24L632.83,313.21L634.69,310.2L636.62,284.02L638.99,278.99L640.85,272.61L642.79,298.57L645.14,317.43L647.09,316.17L648.94,337.44L651.35,323.26L653.28,331.84L655.15,335.57L657.5,318.36L659.44,311.52L661.31,316.74L663.66,316.54L665.6,334.91L669.39,308.73L671.83,309.24L673.63,297.61L675.52,325.84L677.93,317.24L679.88,339.14L681.69,324.84L684.07,318.85L686.05,320.56L687.91,325.01L690.31,330.7L692.12,325.06L694.03,329.25L696.49,329.7L698.3,325.7L700.26,312.39L704.48,326.29L706.45,317.21L708.75,303.48L710.7,312.37L712.56,310.24L714.96,313.18L716.87,312.91L718.74,329.83L721.1,313.78L722.98,324.52L724.98,320.55L727.33,287.72L729.17,286.48L731.1,295.3L733.43,312.37L735.42,311.85L737.32,324.97L739.68,318.41L741.55,303.4L743.44,317.51L745.86,338.24L747.69,329.68L749.59,313.19L751.96,301.76L753.87,303.21L755.74,318.86L758.16,312.57L760.05,318.06L762,327.04L764.33,326.33L766.25,318.16L768.09,288.95L770.05,301.33L772.4,294.08L774.29,298.75L776.22,341.23L778.58,349.01L780.49,348.56L782.4,328.3L784.76,314.62L786.67,345.36L788.63,350.41L792.77,312.59L794.73,310.26L797.13,336.55L799.02,327.03L800.83,341.29L803.25,334.77L805.16,339.69L807.03,351.32L809.38,347.92L811.35,331.3L813.31,334.74L815.6,335.8L819.35,332.48L821.82,331.09L823.62,330.51L825.53,324.9L829.82,336.74L831.7,313.75L836.01,342.29L837.88,338.1L840.33,340.4L842.15,344.77L844.15,342.29L846.45,333.29L848.36,329.02L850.33,334.37L852.65,313.94L854.59,310.77L856.38,317.7L858.75,341.96L860.75,346.55L862.55,343.03L864.94,341.09L866.82,341.55L868.79,334.87L871.12,350.24L873.09,337.64L874.95,342.14L879.19,324.82L881.11,334.82L883.04,333.41L885.33,356.22L887.31,364.23L889.12,361.35L891.5,366.18L893.43,366.02L895.32,366.9L897.68,365.09L899.58,369.34L901.53,370.61L903.96,369.04L905.77,369.7L907.72,370.17L910.11,361.23L912.02,368.42L913.81,367.28L916.28,372.63L918.12,368.77L920.06,362.97L922.43,364.83L924.26,366.33L926.18,356.68L928.59,367.42L930.51,365.67L934.74,369.39L936.61,375.11L938.55,373.78L940.9,367.89L944.68,367.86L947.13,372.51L948.98,372.13L950.84,373.08L953.32,372.56L955.14,374.55L957.14,374.41L959.46,373.19L961.42,375.49L963.3,374.91L965.58,370.65L967.57,369.33L969.42,366.6L971.75,364.85L973.65,364.49L975.59,365.61L979.83,370.73L981.77,372.81L983.65,371.29L986.06,371.06L987.95,373.74L989.76,371.58L992.22,372.27L994.11,371.45L998.36,365.99L1000.24,350.64L1002.16,270.98L1004.52,255.78L1006.42,226.13L1008.33,122.4L1010.73,264.03L1012.61,294.8L1014.49,326.45L1016.88,346.2L1018.8,376.85L1020.69,362.78L1023.05,382.21L1024.92,382.64" style="vector-effect: none; fill: none; stroke: rgb(67, 67, 72); stroke-opacity: 1; stroke-width: 2px; opacity: 1;"/></g><g class="points"/><g class="text"/></g><g class="trace scatter trace55b76d" style="stroke-miterlimit: 2; opacity: 1;"><g class="fills"/><g class="errorbars"/><g class="lines"><path class="js-line" d="M0,381.32L1.9,381.52L4.28,380.44L6.17,382.13L8.07,381.23L14.27,380.35L16.64,379.01L22.81,377.86L24.72,375.95L26.61,365.6L28.98,360.43L30.87,365.78L32.77,360.72L35.15,353.8L37.03,339.55L38.94,348.21L41.31,293.64L43.25,286.89L45.14,252.1L47.51,280.41L49.38,293.54L53.17,333.9L55.54,338.97L59.34,315.33L61.73,267.17L63.64,215.82L65.57,253.21L67.94,183.86L69.81,193.9L71.73,191.3L74.09,177.41L75.96,151.63L77.89,197.27L80.25,223.81L82.15,172.36L84.05,173.82L86.43,283.08L88.32,247.09L90.2,235.88L92.61,246.95L94.51,269.12L96.39,268.89L98.76,217.26L100.65,182.01L102.56,117.96L104.95,222.24L106.82,214L108.74,219.26L111.12,220.91L113.03,152.06L114.89,135.98L119.19,255.04L121.09,200.05L123.46,218.82L125.33,247.11L127.25,244.14L129.63,225.22L133.42,252.73L135.77,190.45L137.7,167.2L139.59,180.66L141.96,207.97L143.86,212.39L145.75,234.58L148.16,213.75L150.05,225.66L151.91,231.62L153.83,244.88L156.2,222.85L158.12,243.86L159.98,230.67L162.36,211.65L164.3,174.01L166.18,271.55L168.57,260.56L170.46,261.79L172.36,255.57L174.73,253.63L176.64,218.54L180.87,234.87L182.8,255.08L184.7,260.42L187.06,275.48L188.98,242.86L190.85,249.6L193.21,207.27L195.17,235.14L197.07,252.15L199.42,244.8L203.18,274.5L205.55,255.27L207.49,259.14L209.37,208.9L211.73,138.92L213.63,199.64L215.55,201.42L217.9,220.18L221.76,260.58L224.1,235.67L226.03,274.44L227.89,265.77L232.18,256.47L234.04,244.18L236.47,272.26L238.35,318.79L242.64,280.57L244.52,254.69L246.45,266.44L248.82,258.76L250.65,269.03L252.6,275.66L254.96,261.16L256.82,289.88L258.73,266.21L260.63,259.84L262.99,265.91L264.94,259.74L266.88,287.39L269.17,261.94L271.12,253.8L272.99,255.86L277.25,290.33L279.16,259.69L281.61,275.6L283.41,265.47L285.35,264.75L287.69,266.02L289.58,275.93L291.53,274.33L295.75,272.86L297.67,287.8L302.02,260.9L303.85,219.96L306.21,219.18L308.13,194.33L310.02,213.37L312.41,224.36L316.23,297.37L318.55,252.54L320.44,257.48L322.37,299.56L324.73,308L326.62,306.09L328.56,311.97L330.93,290.56L338.94,262.64L340.87,269.3L345.21,301.67L347.08,297.33L349.43,294.71L351.35,286.42L353.23,297.14L355.6,276.93L359.36,284.69L361.28,288.1L363.64,291.86L365.57,276.02L367.46,297.08L369.82,273.72L373.63,241.58L375.97,246.14L377.9,228.62L379.78,233.54L382.16,248.59L384.04,231.49L388.35,273.04L390.28,262L392.13,263.81L394.55,298.32L396.49,283.98L398.37,299.22L400.75,304.45L402.6,299.61L404.46,308.23L406.82,291.89L408.74,302.72L410.68,286.27L413.04,296.68L414.94,273.32L416.83,297.62L419.2,300.86L421.18,303.06L423.02,299.64L425.38,294.47L427.26,280.38L431.55,306.51L433.42,300.3L435.34,287.25L437.68,276.8L439.59,299.08L441.48,291.34L443.88,293.04L445.85,267.46L447.73,280.02L450.1,262.65L453.84,274.42L456.24,308.6L458.14,307.36L459.99,274.25L461.91,287.63L464.3,295.79L466.22,314.6L468.06,303.63L470.45,304.94L472.37,300.61L474.24,290.92L476.66,254.2L478.58,233.29L480.4,251.36L482.83,253.41L484.67,249.95L486.62,278.03L489,295.13L490.84,298.29L492.85,272.13L495.12,298.03L497.02,297.01L498.92,302.18L501.34,311.84L503.23,303.91L505.16,306.76L507.47,301.08L509.41,288.71L511.29,272.27L513.68,290.41L515.58,303.26L517.45,299.9L519.83,235.07L521.71,276.29L523.61,258.39L526.01,284.24L527.97,287.22L529.87,272.1L532.22,244.31L534.08,241.42L535.95,244.29L538.34,228.79L540.27,233.44L542.19,234.54L544.5,244.55L546.45,223.73L548.34,267.21L550.73,289.94L552.62,283.3L554.52,318.31L556.91,311.72L558.82,315.88L560.63,321.15L563.09,311.2L564.93,321.02L566.85,303.72L568.78,308.98L571.07,302.6L573.01,289.39L574.94,297.4L577.32,316.14L579.16,319.96L581.05,305.7L583.48,323.17L585.44,289.81L587.25,293.17L589.6,275.4L591.59,308.56L593.41,301.67L595.76,307.05L597.65,289.31L599.62,293.73L601.96,265.66L603.93,277.71L605.75,263.05L608.11,185.99L610.06,217.21L611.92,212.71L614.3,246.82L616.22,285.41L618.07,273.93L620.55,270.9L622.4,270.89L624.24,313.71L626.61,315.08L628.57,300.63L630.53,287.42L632.82,305.68L634.68,310.59L636.64,319.8L640.86,239.02L642.77,260.06L645.15,266.81L647.06,302.45L648.94,292.04L651.31,315.76L653.31,315.45L655.13,329.14L657.48,316.44L659.46,323.01L661.37,326.85L663.68,304.11L665.55,319.46L667.5,315.4L669.4,316.75L671.75,322.28L673.71,314.29L675.53,312.38L677.88,313.6L679.79,319.38L684.1,337.34L685.98,322.88L687.91,309.64L690.27,322.4L692.15,269.82L694.03,306.44L696.39,323.76L698.41,331.96L700.2,325.72L702.6,288.63L704.47,309.9L706.47,316.9L708.79,299.8L710.67,302.63L712.58,278.27L714.93,307.57L716.86,308L718.77,302.02L721.15,331.28L723.07,326.1L725,327.24L727.29,326.12L729.22,293.02L731.08,306.07L733.46,298.35L735.34,283.05L737.32,310.43L739.67,311.92L741.5,309.97L743.51,318.97L745.86,304.59L747.69,298.62L749.59,316.43L751.96,322.61L753.83,301.61L755.73,309.5L758.18,263.49L760.05,305.36L761.91,285.26L764.31,327.69L766.2,317.96L768.08,318.39L769.99,310.13L772.37,283.89L774.35,307.03L776.21,280.17L778.59,320L780.47,325.82L782.34,338.37L784.79,327.25L786.63,334.48L788.53,338.79L790.87,345.1L792.76,337.59L794.72,338.74L797.08,319.91L798.95,318.71L800.85,331.66L805.2,342.43L807.08,354.57L809.39,358.72L811.3,365.72L813.18,365.57L815.62,368.25L817.5,366.88L819.39,369.51L821.82,367.04L823.67,368.72L825.52,372.81L827.89,372.72L829.81,371.35L831.71,372.14L834.09,369.05L835.97,370.05L837.91,370.51L840.3,372.49L842.17,368.63L844.05,370.19L846.41,370.09L848.35,368.7L850.23,365.54L852.6,366.8L854.47,361.42L856.4,365.45L858.75,350.61L860.7,366.04L862.54,359.31L864.93,358.9L866.91,349.15L868.76,348.58L871.11,341.89L873.03,339.22L874.94,332.51L876.78,342.51L879.22,327.6L881.17,321.84L883.03,315.71L885.41,328.81L887.33,328.04L889.19,328.55L891.5,359.4L893.43,367.26L895.3,365.37L897.71,367.91L899.67,370.92L901.53,356.38L903.88,354.74L905.75,351.65L907.66,352.81L910.09,349.81L911.94,352.44L913.87,336.84L916.21,332.56L918.18,354.37L920,354.65L922.52,340.78L924.32,333.57L926.24,320.21L928.61,307.33L930.43,321.27L932.35,320.3L934.79,329.14L936.68,322.87L938.5,338.98L940.91,356.8L942.82,340.13L944.78,334.73L947.1,333.76L948.99,347.05L950.84,345L953.32,350.86L955.12,337.48L957.06,345.48L959.48,345.93L961.39,353.45L963.22,349.34L965.58,349.15L967.48,345.67L969.39,336.8L971.79,335.02L973.64,341.67L975.52,318.82L979.83,320.02L981.77,337.99L983.63,343.97L986.05,355.03L987.96,347.33L989.79,350.22L992.21,346.33L994.05,340.29L996.05,340.72L998.32,331.94L1000.26,326.42L1002.13,236.43L1004.53,192.58L1006.39,174.36L1008.28,98.45L1010.7,231.98L1012.59,262.34L1014.45,304.71L1018.73,375.18L1020.63,373.56L1023.03,382.43L1024.9,382.67" style="vector-effect: none; fill: none; stroke: rgb(144, 237, 125); stroke-opacity: 1; stroke-width: 2px; opacity: 1;"/></g><g class="points"/><g class="text"/></g><g class="trace scatter trace91ec93" style="stroke-miterlimit: 2; opacity: 1;"><g class="fills"/><g class="errorbars"/><g class="lines"><path class="js-line" d="M0,380.85L1.93,381.29L4.27,381.03L6.2,382.02L8.1,381.39L10.45,381.69L12.36,380.33L14.24,379.11L16.65,379.22L18.53,378.25L20.43,378.99L24.7,377.35L26.6,368.32L28.99,364.45L30.87,368.71L35.16,353L37.06,355.22L38.95,359.18L41.32,300.33L45.1,275.42L47.52,279.09L49.39,304.79L51.32,317.29L53.17,347.62L55.58,344.84L59.37,317.96L61.71,296.53L63.64,231.97L65.58,238.23L67.94,232.72L69.79,219.38L71.69,152.2L74.08,181.53L76.02,151.58L77.92,211.01L80.24,213.99L82.15,184.01L84.02,176.65L86.46,281.1L88.33,261.75L90.23,270.38L94.47,255.8L96.43,278.17L98.77,258.33L100.69,229.19L102.61,130.99L104.96,98.08L106.81,220.62L108.74,189.68L111.13,218.6L113.01,146.61L114.9,192.76L117.28,196.27L119.17,194.05L121.06,254.53L123.48,229.21L125.37,269.59L127.24,274.06L129.6,288.28L133.43,247.89L135.79,259.32L137.69,192.47L139.61,193.09L141.95,208.76L143.84,226.67L145.77,230.96L148.12,243.52L150.06,242.05L151.94,259.73L153.86,259.58L156.19,265.92L159.99,294.17L162.36,266.32L164.25,288.96L166.19,232.87L168.56,227.36L170.43,246.37L174.72,288.36L176.61,296.87L178.55,287.06L180.87,293.45L182.78,263.37L184.71,260.64L187.05,278.17L188.96,267.84L193.22,292.37L195.11,294.65L197.04,265.42L199.39,271.67L201.29,221.38L203.2,253.5L205.57,281.47L207.52,277.49L209.39,249.79L211.73,273.73L213.65,282.44L215.53,307.23L217.96,307.75L219.82,312.88L221.7,170.84L224.1,179.64L227.93,246.74L230.25,274.33L232.2,284.41L234.05,268.37L236.44,282.66L238.32,277.3L240.26,270.4L242.62,293.08L244.5,271.08L246.43,290.35L248.83,295.46L250.69,303.6L254.96,253.41L256.89,300.19L258.79,292.07L260.64,298.46L263,308.85L264.89,313.38L266.85,311.12L269.18,306.46L271.09,298.35L273.04,270.95L275.39,261.44L277.27,282.56L279.14,292.35L281.51,289.53L283.42,254.25L285.32,268.07L287.72,299.13L289.63,283.79L291.56,298.62L293.91,289.21L295.76,289.4L297.64,291.33L300.04,307.12L301.97,303.54L303.88,293.15L306.21,294.41L308.12,299.61L310,320.41L312.44,310.91L314.28,283.7L316.21,249.87L318.56,240.61L320.43,190.16L322.33,253.87L324.72,280.82L326.61,290.41L328.58,310.25L330.9,308.94L332.77,297.55L334.78,306.5L337.12,306.96L338.98,308.33L340.92,313.11L343.28,315.23L345.16,300.97L347.04,294.51L349.39,304.39L351.28,288.32L355.6,301.42L357.49,285.88L359.39,319.37L361.3,322.86L363.65,303.86L365.52,305.71L367.52,306.49L369.8,313.45L371.75,327.31L373.66,297.76L376,312.12L377.89,309.42L379.8,302.34L382.14,303.63L384.04,273.75L386.01,292.82L388.32,247.11L390.26,293.23L392.14,266.3L394.5,255.06L396.42,255.98L398.31,270.3L400.68,257.83L402.59,295.85L404.5,294.42L406.84,287.25L408.73,291.98L410.65,312.33L413.05,320.6L414.91,313.79L416.85,312.81L419.22,296.27L421.17,302.69L423.03,305.23L425.4,318.11L427.32,303.83L429.23,283.15L431.51,301.19L433.44,273.84L435.37,311.06L437.74,306.02L439.6,277.6L441.53,328.67L443.85,328.92L447.77,298.47L450.04,297.24L451.97,309.89L453.89,304.86L456.2,273.31L458.1,292.79L460.04,308.24L461.9,281.05L464.36,297.52L466.21,300.23L468.1,312.8L470.47,308.72L472.43,317.06L474.29,306.71L478.56,315.75L480.41,323.78L482.81,311.19L484.79,317.1L486.6,300.05L489,300.27L490.92,280.86L492.78,301.72L495.15,274.72L497.03,267.21L498.95,260.3L501.33,242.5L505.1,306.63L507.49,274.88L509.4,306.17L511.31,305.58L513.7,325.82L515.59,322.12L517.43,321.18L519.85,318.02L521.7,314.26L523.62,316.41L529.78,283.95L532.21,315.35L534.13,281.93L535.95,289.6L538.31,296.28L540.27,322.15L542.12,326.53L544.56,311.21L546.45,231.15L548.32,254.08L550.71,255.2L552.57,266.22L556.83,284.69L558.74,271.63L560.68,265.31L563.04,306.37L564.93,297.39L566.83,311.91L568.71,308.96L571.08,318.01L573.07,315.85L574.96,333.86L577.29,335.99L579.17,326.3L583.51,328.65L585.35,331.12L587.21,321.57L589.67,330.78L591.51,319.44L593.51,339.01L595.77,322.71L597.68,327.85L601.96,306.53L603.9,309.73L605.75,318.55L608.23,304.1L610.11,309.89L611.93,325.36L616.18,298.11L618.07,293.06L620.44,281.45L622.36,245.66L624.27,272L626.71,293.9L628.52,251.06L630.47,254.58L632.84,287.44L634.71,278.79L636.64,311.3L639.04,285.89L640.91,323.22L642.76,318.49L645.13,312.38L647.03,321.95L649.01,312.32L651.33,316.2L653.21,285.83L655.14,295.22L657.5,298.09L659.37,308.73L661.27,313L663.67,334.38L665.59,333.48L667.46,330.72L669.37,328.21L671.71,331.92L673.69,336L675.56,315.89L677.97,313.31L679.82,309.7L681.76,329.6L684.1,326.78L685.97,334.31L687.97,333.8L690.35,335.42L692.16,319.32L694.07,318.6L696.42,324.93L700.21,341.44L702.6,336.85L704.5,322.89L706.39,329.35L708.87,330.46L710.65,336.5L712.62,256.02L714.95,313.02L716.92,324.42L718.72,309.84L721.17,311.18L723.07,318.34L724.91,339.53L727.31,346.4L729.25,345.71L731.07,332.12L733.49,323.17L735.34,334.32L737.24,335.15L739.65,345.62L741.58,311.88L743.39,305.37L745.77,315.87L747.7,319.46L749.62,322.33L751.96,331.08L753.94,331.36L755.8,334.09L760.07,305.42L761.97,324.45L764.32,322.01L766.22,335.38L768.11,328.12L769.98,331.37L772.47,323.2L774.32,330.69L776.16,309.14L778.56,343.8L780.45,327.06L782.39,327.19L784.79,324.31L786.64,303.84L788.52,316.26L790.86,313.41L792.77,316.19L794.76,345.18L797.07,355.86L798.95,355.36L800.93,355.76L803.24,353.38L805.15,354.59L807.06,348.57L809.42,347.19L811.35,320.8L813.21,325.02L815.55,348.21L819.38,330.43L821.75,342.81L825.52,353.17L827.9,352.41L829.91,354.92L831.77,348.85L834.1,320.17L836.02,325.27L840.32,341.47L842.18,345.02L844.04,344.95L846.55,336.74L848.38,328.03L850.28,342.08L852.62,335.53L854.54,334.45L856.38,338.2L858.75,341.1L860.65,339.81L862.61,335.14L864.93,330L866.83,315.81L868.71,328.71L871.1,309.85L872.99,327.72L875.01,335.23L876.82,334.39L879.24,340.12L881.1,343.34L883.01,340.26L885.38,326.56L887.29,340.61L889.24,347.63L891.6,337.96L893.46,323.5L895.35,333.2L897.69,324.85L899.63,339.07L901.51,336.68L903.89,349.3L905.83,356.26L907.66,356.89L910.07,361.96L911.98,355.81L913.85,348.42L916.27,349.83L918.12,339.54L920.08,347.26L922.42,354.66L924.27,340.73L926.21,341.82L928.57,334.23L930.47,336.87L932.44,352.59L934.77,339.94L936.68,334.72L938.52,322.7L940.89,315.6L942.81,304.92L944.72,299.86L947.05,321.63L948.94,329.09L950.88,333.34L953.29,336.09L955.15,336.38L957.05,344.38L959.51,343.44L961.39,345.42L963.26,347.5L965.63,345.21L967.56,349.97L969.35,341.36L971.76,345.17L973.73,344.73L975.55,354.99L977.52,350.12L979.83,339.2L981.75,341.23L983.59,341.75L986.01,334.08L987.96,337.85L989.78,320.31L992.24,335.02L994.13,340.03L995.97,346.68L998.36,359.63L1000.24,338.34L1002.2,220.86L1006.4,126.15L1008.3,146.83L1014.49,311.58L1016.89,347.2L1018.79,375.55L1020.65,377.7L1023.03,383.16L1024.95,383.03" style="vector-effect: none; fill: none; stroke: rgb(247, 163, 92); stroke-opacity: 1; stroke-width: 2px; opacity: 1;"/></g><g class="points"/><g class="text"/></g><g class="trace scatter trace9bf498" style="stroke-miterlimit: 2; opacity: 1;"><g class="fills"/><g class="errorbars"/><g class="lines"><path class="js-line" d="M0,382.44L4.29,382.41L6.18,382.73L8.1,381.49L10.46,382.28L24.72,379.52L26.59,374.6L28.96,370.75L30.87,372.96L32.8,367.72L35.13,356.69L37.06,349.14L38.94,357.34L43.24,306.28L45.11,304.8L47.51,296.43L49.39,294.1L51.28,339.29L53.19,345.93L55.57,351.9L57.48,338.16L59.4,324.6L61.75,278.81L63.67,263.99L65.52,198.3L67.95,226.03L69.82,205.57L71.75,216.88L74.11,207.05L75.98,152.15L77.86,222.81L80.26,236.47L82.2,213.38L84.06,247.73L86.43,175.81L88.32,284.67L90.21,265.76L92.57,248.32L94.51,270.85L96.46,210.36L98.75,254.8L100.68,253.86L102.57,223.5L104.93,28.69L106.82,183.22L108.76,169.77L111.09,195.51L113.03,227.35L114.92,196.63L117.29,136.43L119.18,182.92L121.08,224.21L123.45,211.93L127.25,250.93L129.6,247.07L131.5,250.15L133.4,256.08L137.75,208.89L139.59,178.83L143.9,211.28L145.74,245.75L150.07,230.46L151.93,253.21L153.86,239.38L156.21,258.73L158.09,256.38L159.99,288.06L162.35,252.55L164.3,261.71L166.18,202.13L168.56,228.72L170.43,226.38L172.36,259.33L174.71,261.42L176.59,257.91L178.58,266.5L180.89,246.53L182.81,239.72L184.67,241.66L187.05,265.02L188.96,253.35L190.88,250.87L193.27,302.19L195.11,256.67L197.03,278.14L199.42,213.55L201.33,245.15L203.24,269.84L205.56,257.5L207.49,251.31L209.36,248.33L211.73,281L213.68,291.75L215.57,284.33L217.96,315.39L219.82,151.09L221.7,181.42L224.08,186.49L226.01,214.92L227.9,223.53L230.28,282.38L234.04,240.3L236.43,297.91L238.32,277.44L240.28,270.93L242.6,261.48L244.49,278.52L246.42,308.44L248.75,299.44L250.72,305.66L252.61,265.09L254.92,287L256.82,278.86L258.76,253.55L260.65,293.3L263.06,297.36L264.92,284.68L266.78,296.77L269.21,279.4L271.07,262.75L272.96,261.76L275.36,293.08L277.24,272.85L279.15,272.69L281.51,267.58L283.41,292.37L285.34,298.04L287.69,296.05L289.58,299.42L291.51,288.85L293.86,257.48L295.76,279.91L297.66,280.08L300.09,292.99L301.92,286.61L303.85,293.71L306.25,297.83L308.09,305.18L309.98,290.77L312.4,240.71L314.29,230.04L316.15,213.1L318.55,222.97L320.44,214.91L322.34,245.43L326.65,313.8L328.53,285.59L330.92,287.34L332.83,306.38L334.72,306.68L337.12,305.09L340.85,309.97L343.22,282.81L345.14,289.59L347.1,304.92L349.46,301.04L351.29,293.61L353.23,283.52L355.63,287.54L357.47,314.37L359.4,313.4L361.3,295.08L363.67,296.68L365.54,309.93L367.46,291.02L369.83,291.37L371.76,274.55L373.6,305.81L375.99,290.81L377.94,267.26L379.78,286.96L382.16,287.3L384.09,284.65L385.96,236.67L388.35,263.2L390.23,245.01L392.16,258.7L394.5,253.3L396.41,240.69L398.28,249.87L400.71,271.09L402.59,270.89L404.48,305.69L406.82,313.37L408.74,300.4L410.68,299.54L413.02,305.91L414.92,311L416.79,295.94L419.18,291.07L421.08,295.08L422.96,308.46L425.45,295.63L427.26,303.02L429.24,305.53L431.56,295.71L433.45,307.23L435.35,324.81L437.7,294.88L439.62,317.14L441.54,302.85L443.87,314.68L445.78,316.18L447.66,302.81L450.11,313.9L451.92,307.05L453.83,272.1L456.21,291.86L458.09,294.26L460.04,280.84L461.9,287.89L464.34,296.61L466.25,292.56L468.09,327.21L470.51,310.94L472.39,302.53L474.34,319.22L476.61,316.46L478.59,320.51L480.41,317.58L482.8,320.1L484.69,285.53L486.57,294.18L488.97,284.65L490.93,284.42L492.76,271.59L495.18,281.92L497.04,285.48L498.94,270.74L505.14,305.04L507.46,311.97L509.39,312.19L511.33,307.35L515.57,321.25L517.45,311.16L519.82,302.56L521.74,301.81L523.69,303.04L526.01,271.7L529.77,312.15L532.19,266.3L534.14,285.6L535.96,291.85L538.32,321.94L540.22,316.45L542.15,296.65L544.52,244.97L546.43,257.42L548.29,251.71L550.68,222.03L552.58,276.63L554.51,290.15L556.88,262.29L558.73,278.99L560.63,281.98L563.08,288.53L564.93,299.14L566.84,320.95L568.74,309.32L571.17,319.75L573.02,331.96L574.97,332.66L577.36,324.18L579.15,312.79L581.09,312.92L583.49,329.19L585.38,306.17L587.24,332.44L589.59,317.46L591.58,335.75L593.45,326.36L595.8,316.52L597.76,315.72L599.66,308.98L601.96,310.37L605.82,328.17L608.13,294.67L610.02,314.33L611.98,314.33L614.29,297.71L616.24,263.91L618.09,224.76L620.5,247.76L622.37,225.51L624.28,282.08L626.61,271.97L628.51,256.23L630.46,252.14L632.79,289.06L634.72,293.22L636.58,300.98L639.03,305.84L640.9,324.46L642.77,307.79L645.17,315.4L647.08,315.16L648.94,311.88L653.21,273.23L655.14,267.79L659.37,312.86L661.28,324.01L663.68,337.89L665.59,310.28L667.48,329.92L669.39,332.92L671.75,327.75L673.63,298.37L675.53,330.86L677.95,324.63L679.84,328.98L681.73,336.31L684.1,320.78L685.99,326.62L687.93,331.64L690.25,313.71L692.14,325.14L694.12,331.69L696.43,320.47L698.34,327.49L700.2,330.03L702.61,324.69L704.46,314.41L706.46,322.74L708.84,333.47L710.7,321.5L712.65,318L714.95,311.39L716.89,318.73L718.76,295.74L721.19,312.33L722.99,311.1L724.89,326.86L727.31,339.28L729.15,329.24L731.17,325.84L735.34,319.72L737.33,321.23L739.68,319.54L741.56,308.68L743.44,305.46L745.8,328.02L749.66,346.07L751.97,331L753.93,326.88L755.81,314.55L758.13,318.7L760.12,318.96L761.98,324.07L764.28,305.17L766.21,290.18L768.16,297.18L772.42,313.81L774.34,332L776.19,322.25L778.58,322.56L780.43,325.7L782.38,303.82L784.79,293.95L786.7,293.02L788.5,293.59L790.94,333.83L792.79,348.94L794.77,350.01L797.05,349.98L798.93,345.56L800.92,344.08L803.31,345.19L805.19,339.09L807,323.1L809.43,323.57L811.27,338.87L813.17,342.54L815.64,343.64L817.53,339.49L819.38,339.31L821.82,338.43L823.63,346.98L825.58,347.7L827.94,333.07L829.89,334.86L831.73,326.08L834.07,338.89L835.99,339.35L837.93,341.23L840.33,348.24L844.07,320.93L846.45,336.76L848.33,332.04L850.27,339.43L852.61,345.44L854.57,338.6L856.39,345.88L858.78,343.01L860.75,323.92L862.63,339.52L864.92,334.17L866.87,336.87L868.74,343.4L871.13,345.63L872.99,347.03L874.88,349.72L876.83,349.18L879.27,341.01L881.09,343.06L883.05,338.45L885.36,351.5L887.31,346.35L889.24,326.92L891.5,328.18L893.44,332.06L895.35,351.87L897.75,361.17L899.7,363.28L901.51,361.29L903.93,364.06L905.77,367.1L907.66,355.59L910.04,350.66L911.98,355.45L913.83,354.14L916.29,354.81L918.17,359.56L919.99,352.72L922.38,345.99L924.26,338.21L926.15,340.57L928.58,356.18L930.48,347.95L932.39,335.24L934.7,333.89L936.6,314.8L938.51,324.33L940.89,323.99L942.82,331.34L944.71,332.34L947.07,338.46L949,347.31L950.94,332.2L953.27,345.62L955.13,345.81L957.06,352.81L959.42,352.29L961.28,352.96L963.18,350.11L965.56,352.09L967.49,347.75L969.39,353.17L973.66,357.63L975.62,357.69L977.42,352.52L979.85,357.19L981.7,336.38L983.69,347.95L985.99,342.27L987.87,344.15L992.14,351.22L994.08,360.06L998.32,352.85L1000.23,337.02L1002.17,226.04L1004.53,213.51L1006.42,168.75L1008.3,93.28L1010.66,246.88L1012.55,284.23L1016.86,350.42L1018.76,374.85L1020.62,372.37L1023.01,382.19L1024.94,382.15" style="vector-effect: none; fill: none; stroke: rgb(128, 133, 233); stroke-opacity: 1; stroke-width: 2px; opacity: 1;"/></g><g class="points"/><g class="text"/></g><g class="trace scatter trace55c1ae" style="stroke-miterlimit: 2; opacity: 1;"><g class="fills"/><g class="errorbars"/><g class="lines"><path class="js-line" d="M0,382.46L4.28,382.21L6.21,382.48L14.26,381.51L16.63,380.6L22.81,379.91L24.68,378.75L26.61,372.89L28.97,369.04L30.88,370.59L32.77,365.85L35.14,355.11L37.03,359.72L38.94,364.66L41.36,325.42L43.23,317.66L45.11,303.89L47.52,299.03L49.4,306.55L53.18,350.83L55.57,350.79L57.46,346.97L59.38,331.31L65.54,235.23L67.95,218.9L69.82,211.44L71.74,193.86L74.06,177.99L75.97,173.39L77.92,219.61L80.27,198.15L82.2,247.8L84.06,218.34L86.41,230.52L88.29,276.94L90.24,288.57L92.64,277.62L94.5,265.91L96.37,284.54L98.79,271.32L100.67,246.83L102.59,254.9L104.92,122.97L106.87,216.32L108.72,188.8L111.08,244.14L112.99,248.34L114.91,216.84L117.29,142.83L121.07,280.21L123.45,199.97L125.35,246.48L127.25,274.33L129.6,261.35L131.55,269.07L133.4,256.37L135.8,250.89L137.72,212.92L139.6,204.08L141.94,221.85L143.86,267.06L145.76,247.89L148.16,261.23L150.08,255.2L151.99,258.31L153.88,260.42L156.22,242.37L158.1,279.83L159.99,271.1L162.38,253.64L164.25,245.65L166.21,230.75L168.56,234.18L170.47,240.42L172.39,276.02L174.69,281.5L176.63,252.81L178.49,283.76L180.92,249.83L182.76,244.01L184.69,272.19L187.05,247.49L189,263.45L190.83,297.09L193.25,272.07L195.12,281.57L197.03,229.27L199.39,258.98L201.29,266.61L203.17,276.42L205.58,256.35L207.48,268.47L209.38,274.16L211.73,311.21L213.66,293.89L215.61,292.55L217.93,120.59L221.71,225.8L224.08,266.68L225.97,261.31L227.89,285.97L230.27,262.05L232.15,285.42L234.06,294.33L236.44,276.02L238.36,269.47L240.24,225.78L242.62,298.34L244.5,299.18L246.4,307.75L248.8,271.24L250.72,273.59L252.61,283.34L254.96,281.5L256.92,281.03L260.62,306.93L263.01,302.16L264.89,287.01L266.79,222.59L271.08,296.8L272.98,296.24L275.36,274.37L277.24,265.54L279.16,280L281.55,286.87L283.45,291.41L285.33,289.38L287.7,304.57L289.61,275.62L291.54,262.13L293.85,292.83L295.79,289.81L297.66,294.27L300.07,301.76L301.95,288.44L303.9,311.47L306.19,284.71L308.11,248.16L310.03,243.34L314.29,214.18L316.18,207.53L318.54,272.39L320.47,290.63L322.37,300.8L324.75,265.46L326.62,261.78L328.52,280.55L330.88,306.15L332.8,294.5L334.69,290.98L337.07,310.01L338.94,277.45L340.85,299.18L343.21,303.74L345.13,291.29L347.02,264.88L349.42,286.15L351.36,307.29L353.2,306.03L355.63,305.44L357.5,310.11L361.27,294.76L363.64,291.17L365.54,279.18L367.49,283.28L369.82,302.6L371.73,308.05L373.62,291.74L375.97,291.98L377.87,293.02L379.84,262.31L382.17,210.8L384.06,255.51L386,252.78L388.36,252.5L390.24,267.4L392.16,250.08L394.51,277.81L396.43,276.68L398.32,247.59L400.65,301.8L402.58,318.78L404.48,305.53L406.83,321.69L408.8,315.96L410.71,318.56L413.08,292.37L414.9,261.03L416.85,300.88L419.18,291.33L421.12,295.56L423.06,298.89L425.4,306.08L427.26,310.53L429.23,312.04L431.53,276.9L433.47,285.77L435.31,326.31L437.68,312.6L439.59,312.12L441.52,301.97L443.88,299.55L445.83,303.24L447.69,298.16L450.04,297.31L452,290.55L453.83,276.29L456.25,261.25L458.12,299.04L460.06,301.31L461.93,307.67L464.28,326.22L466.17,318.24L468.11,299.94L470.46,314.95L472.34,294.51L474.29,308.93L476.66,318.75L478.53,304.44L480.41,253.75L482.86,297.77L484.72,288.6L486.57,261.51L488.96,274.59L490.85,277.37L492.75,280.61L495.14,273.59L497.02,301.45L498.91,290.09L501.3,284.99L503.27,301.91L505.1,314.58L507.52,323.98L509.41,316.83L511.32,322.44L515.54,299.95L517.43,305.35L519.87,256.96L521.73,299.4L523.62,278.14L526.03,294.24L527.91,254.24L529.79,288.26L532.18,291.78L534.12,306.91L536.01,311.79L538.32,261.58L540.26,233.4L542.17,225.56L544.54,232.14L546.43,271.62L548.33,277L550.67,261.32L552.56,282.69L554.46,271.29L558.77,310.28L560.7,305.84L563.01,294.35L564.93,322.86L566.81,310.8L568.7,314.09L571.13,325.56L573.03,325.38L574.91,316.98L577.31,313.48L579.14,324.11L581.1,316.07L583.44,319.57L585.39,315.15L587.3,325.23L589.67,315.86L591.53,311.34L593.4,298.92L595.8,298.88L597.65,309.56L599.62,322.42L601.95,312.77L603.91,310.21L605.72,301.79L608.12,307.45L610.03,315.66L611.94,273.05L614.29,268.62L616.21,218.1L618.09,260.23L620.46,219.59L622.42,296.59L624.32,278.73L626.66,276.05L628.52,274.97L630.45,298.57L634.76,329.63L636.6,323.68L638.97,317.06L640.85,317.31L642.77,314.95L645.2,316.98L647.04,304.32L648.98,242.37L651.34,300.36L653.2,299.39L655.11,293.1L657.51,278.1L661.34,331.4L663.7,327.64L665.6,326.74L667.5,321.87L669.36,332.38L671.73,311.95L673.67,321.48L675.53,312.19L677.92,327.88L679.78,327.81L681.78,312.38L684.09,325.42L685.99,320.63L687.87,303.59L690.22,332.64L692.26,340.89L694.08,344.01L696.45,305.1L698.38,320.4L700.22,323.82L704.47,335.26L706.45,337.42L710.74,307.44L712.58,319.67L714.91,306.99L716.89,306.68L718.73,322.67L721.16,328.46L723.06,332.89L724.92,329.39L727.27,310.04L729.22,331.29L731.13,330.38L733.42,338.35L735.37,324.92L737.3,302.15L739.7,309.02L741.5,298.72L743.43,322.7L745.85,320.44L747.67,335.19L749.63,320.38L751.96,312.53L753.87,299.2L755.74,326.37L758.21,326.9L760.01,305.96L761.97,298.84L764.3,311.39L766.24,297.61L768.2,319.79L770.04,329.13L772.43,331.47L774.28,297.34L776.2,320.91L778.58,318.42L782.39,300.33L784.76,310.4L788.53,319.32L790.94,346.09L792.78,356.82L794.66,350.94L797.05,353.21L798.95,346.81L800.92,353.92L803.21,334.42L805.18,318.28L807,326.18L811.29,332.29L813.23,319.82L815.55,341.25L817.45,349.16L819.42,341.81L821.74,353.23L823.64,349.39L825.61,352.69L827.93,335.11L829.84,329.85L831.75,325.52L834.19,340.19L836.04,337.92L837.87,343.66L840.23,339.39L842.17,315.6L844.14,334.62L846.52,340.86L848.35,339.65L850.27,334.8L854.5,340.09L856.48,347.1L858.76,328.21L860.72,299.6L862.62,299.59L865,307.8L866.84,313.75L868.78,326.86L871.11,332.06L873.03,339.57L874.91,335.03L876.81,346.66L879.18,337.94L881.15,335.01L883.05,341.2L885.36,327.84L887.25,331.66L889.15,325.32L891.57,334.67L893.52,309.47L895.43,342.67L897.68,353.49L899.61,359.7L901.49,351.79L903.96,354.5L905.74,345.37L907.69,343.11L910.08,335.3L911.95,336.81L913.91,347.68L918.13,340.54L920.1,331.48L922.42,312.28L924.34,348.98L926.21,344.27L928.61,340.32L930.51,330.4L932.38,310.77L934.71,312.75L936.67,306.57L938.56,322.53L940.9,316.15L947.07,346.33L949,332.39L950.92,332.09L953.3,333.32L955.23,341.11L957.06,343.81L959.38,343.72L961.4,340.94L963.22,340.04L965.63,339.9L967.49,344.31L969.44,352.4L971.72,349.9L973.62,339.16L975.64,341.34L977.5,339.96L979.9,327.1L981.78,330.35L983.7,328.5L986,332.15L989.78,345.22L992.17,347.44L994.15,349.28L996.01,348.63L998.31,352.09L1000.22,335.79L1002.15,186.85L1004.52,190.21L1006.42,195.3L1008.33,40.8L1010.68,247.57L1012.6,271.47L1016.85,343.22L1018.73,373.48L1020.71,378.21L1023.04,380.32L1024.92,382.11" style="vector-effect: none; fill: none; stroke: rgb(241, 92, 128); stroke-opacity: 1; stroke-width: 2px; opacity: 1;"/></g><g class="points"/><g class="text"/></g><g class="trace scatter trace35c81e" style="stroke-miterlimit: 2; opacity: 1;"><g class="fills"/><g class="errorbars"/><g class="lines"><path class="js-line" d="M0,381.69L4.28,381.63L6.18,381.5L12.34,381.62L14.26,380.59L16.65,381.04L18.51,379.94L24.72,378.6L26.6,372.39L28.96,367.45L30.88,369.38L32.79,365.53L35.15,352.2L37.04,352.39L38.94,353.52L41.35,309.34L43.21,290.33L45.11,284.87L47.51,265.64L49.39,309.65L51.29,292.05L53.18,329.37L55.57,320.63L57.45,321.98L59.38,312.44L63.61,205.62L65.55,216.08L67.94,181.8L69.8,186.95L71.74,172.57L74.06,134.34L76,131.7L77.93,174.08L80.29,184.26L82.13,135.57L86.42,246.93L88.36,250.92L90.24,257.64L92.6,239.9L94.49,268.62L96.4,262L98.76,237.63L100.65,195.65L102.56,109.72L104.91,196.63L106.86,167.16L108.74,190.42L111.11,208.17L113.01,177.24L114.92,153.36L117.33,150.64L119.17,240.18L121.13,228.63L123.48,235.1L125.4,248.63L127.23,249L129.66,226.36L133.45,249.64L135.79,175.3L137.69,188.11L139.58,206.51L142.01,208.79L143.9,218.09L145.79,241.93L148.18,238.58L150.01,261.64L151.94,224.94L153.85,250.69L156.21,250.93L158.15,256.35L160.02,251.82L162.37,223.89L164.27,221.71L166.19,245.85L168.53,245.22L170.49,269.48L172.36,261.03L174.73,259.87L176.65,283.38L178.51,239.3L180.87,266.34L182.81,266.3L184.71,231.09L187.06,271.9L188.96,279.42L190.86,279.8L193.25,254.15L195.12,283.37L197,223.56L199.42,254.27L201.28,256.6L203.2,257.87L205.58,239.19L207.45,265.5L209.42,278.29L211.72,282L213.62,242.7L215.52,139.81L217.92,71.83L219.82,220.67L221.72,246.84L224.06,241.65L226.06,268.59L227.87,282.22L230.26,264.36L232.15,275.26L234.09,294.39L236.42,241L238.31,263.61L240.22,238.53L242.61,305.5L244.48,286.49L246.39,300.74L248.81,235.03L250.71,270.11L252.6,278.4L254.92,259.45L256.9,293.65L258.76,286.99L260.68,281.73L263.01,298.6L264.95,290.92L266.79,244.21L269.21,261.13L271.07,264.09L272.97,290.77L275.39,272.72L277.24,256.44L279.14,273.46L281.51,275.14L283.43,298.07L287.71,295.7L289.57,262.11L291.48,280.12L293.88,291.08L295.77,287.64L297.69,300.29L300.06,289.61L301.93,268.27L303.87,295.54L306.23,293.02L308.16,233.73L310.02,227.96L312.36,216.92L314.26,243.44L316.16,231.61L318.6,267.11L320.43,270.28L322.38,320.8L326.63,260.77L328.53,295.6L330.89,283.89L332.83,310.91L334.69,299.3L337.09,307.36L338.97,305.99L340.93,299.26L343.26,285.78L345.13,293.85L347.06,286.42L349.49,304.15L351.31,296.98L353.18,294.7L355.61,305.31L357.53,300.19L361.26,296.5L363.66,290.26L365.56,276L367.46,303.53L369.84,322.81L371.74,291.24L373.62,277.42L376,297.12L377.91,287.1L379.85,270.48L382.17,257.88L384.04,237L385.98,267.16L388.34,261.94L392.12,253.29L394.51,254.52L396.4,281.12L398.33,269.34L400.71,279.12L402.6,309.05L404.48,317.63L406.87,315.36L408.73,319.88L410.73,300.11L413.06,305.9L414.95,281.44L416.81,303.76L419.21,288.42L421.14,310.66L422.99,305L425.37,307.12L427.24,301.91L429.22,295.88L431.55,317.68L433.43,300.7L435.39,310.59L437.68,308.38L439.61,325.4L443.94,294.79L445.79,309.45L447.71,292.43L450.06,300.46L451.95,302.94L453.91,299.8L456.22,299.33L458.1,281.55L460.06,298.13L462,307.21L464.3,300.89L466.17,315.03L468.14,296.59L470.45,297.17L472.39,308.95L474.26,307.55L476.61,312.49L478.59,313.19L480.5,306.62L482.85,280.77L484.7,293.75L486.6,299.54L490.86,254.32L492.79,280.53L495.12,283.32L497.04,244.87L498.95,283.97L501.29,301.29L505.13,306.45L507.47,297.34L509.37,325.92L511.34,320L513.65,307.99L515.58,312.04L517.49,312.05L519.85,315.11L521.75,281.49L523.68,285.44L526.02,288.67L527.91,308.27L529.78,238.68L532.21,281.47L534.08,295.4L535.96,325.54L538.41,303.57L540.25,269.37L542.14,253.6L544.51,250.74L546.39,264.02L548.29,260.87L550.74,265.79L552.57,266.17L554.48,270.94L556.83,272.74L558.78,300.66L560.64,289.36L564.95,320.81L566.82,320.1L568.8,312.27L571.15,325.86L573.01,324.77L574.97,322.06L577.33,326.37L579.19,313.61L581.06,323.7L583.45,297.97L585.42,328.21L587.21,305.38L589.63,328.35L591.51,321.77L593.49,327.65L595.8,316.77L597.73,285.91L599.56,295.23L603.83,324.38L605.75,323.94L608.14,312.83L610.1,323.27L611.99,301.9L614.36,296.06L616.21,270.92L618.07,267.99L620.48,245.63L622.37,251.23L624.35,275.12L626.61,271.95L630.49,250.5L632.86,284.3L634.7,298.3L636.6,276.92L639,340.65L640.97,318.01L642.78,306.29L645.13,322.16L647.04,300.18L648.99,321.04L651.31,298.26L653.29,259.05L655.11,296.4L657.5,313.14L659.4,293.35L661.29,322.18L663.64,323.23L665.57,328.94L667.48,333.57L669.35,341.08L671.71,336.72L673.63,336.78L675.57,324.79L677.88,319.12L679.85,329.94L681.68,329.4L684.14,328.1L685.98,329.5L687.88,333.58L690.27,318.49L692.13,309.19L694.09,319.58L696.4,324.73L698.33,323.93L702.66,329.03L704.53,311.34L708.78,327.86L710.64,325.22L712.62,333.43L714.92,322.86L716.81,317.36L718.79,323.69L721.17,321.05L723.03,317.76L724.98,330.49L727.29,330.3L729.26,330.57L731.12,332.26L733.45,320.31L735.37,335.82L737.32,331.29L739.69,345.17L743.42,313.03L745.83,286.84L747.73,320.02L749.61,317.52L752,319.42L753.86,330.44L755.8,318.07L758.13,314.24L760.03,311.33L762,319.67L764.38,328.79L766.23,331.09L768.12,309.33L770.01,312.24L772.35,313.05L774.26,307.19L776.18,323.83L778.64,335.18L780.51,328.23L782.32,333.19L784.8,328.34L786.6,330.55L790.89,291.72L792.81,303.14L794.7,308.32L797.06,319.91L798.98,354.34L800.87,354.65L803.23,355L805.14,353.89L807.02,345.22L809.4,351.81L811.29,334.8L813.25,327.52L815.59,320.45L817.47,337.19L819.4,349.72L821.73,329.74L823.61,332.84L825.59,351.68L827.92,348.84L829.88,350.88L831.73,348.28L834.17,355.48L836,334.4L837.97,324.64L840.29,331.1L842.17,338.83L844.11,344.53L846.48,346.45L848.38,347.34L850.22,341.84L852.58,332.43L854.5,342.82L856.45,348.25L858.8,333.16L860.68,342.06L862.55,347.09L865,339.25L866.84,347.9L871.15,315.53L873.08,320.7L876.85,306.38L879.18,342L881.15,343.95L882.98,338.36L885.34,337.59L887.35,347.59L889.25,348.23L891.51,344.74L893.4,340.28L895.33,346.96L897.69,325.78L899.57,329.76L901.55,332.61L903.93,342.42L905.8,329.39L907.74,339.7L910.02,359.9L911.99,356.94L913.87,361.52L916.21,355.87L918.15,345.85L920.09,354.12L922.37,344.2L924.37,346.82L926.24,344.19L928.62,348.33L930.44,350.17L932.39,345.87L934.78,328.31L936.7,343.93L938.56,352.92L940.91,337.49L942.83,329.05L944.74,298.94L947.04,316.64L949.06,315.21L953.25,317.43L955.12,329.18L957.08,342.69L959.41,345.82L961.33,342.41L963.24,344.59L965.59,344.89L967.54,349.01L969.42,348.93L971.76,347.95L973.64,345.92L975.6,347.49L977.52,346.94L979.81,348.12L983.68,360.97L986.1,352.86L987.9,345.9L989.87,343.03L992.25,348.74L994.1,336.32L995.99,341.27L998.34,338.91L1002.12,275.3L1004.51,193.87L1006.4,118.94L1008.3,161.24L1014.51,307.5L1016.82,345.33L1018.82,371.77L1020.65,372.99L1023.03,382.04L1024.93,382.91" style="vector-effect: none; fill: none; stroke: rgb(228, 211, 84); stroke-opacity: 1; stroke-width: 2px; opacity: 1;"/></g><g class="points"/><g class="text"/></g><g class="trace scatter trace54ebc9" style="stroke-miterlimit: 2; opacity: 1;"><g class="fills"/><g class="errorbars"/><g class="lines"><path class="js-line" d="M0,381.61L1.92,381.72L4.27,381.06L6.2,381.38L8.07,379.92L10.47,381.35L12.37,380.37L16.62,379.42L18.55,378.63L20.44,377.82L22.81,375.98L24.69,376.05L26.61,367.31L30.86,354.32L32.75,356.67L37.04,328.27L38.96,326.89L43.29,226.34L45.12,180.26L47.48,257.72L49.39,268.02L51.27,289.86L53.21,321.96L57.45,269.56L59.34,227.27L63.65,215.26L65.55,159.44L67.93,143.79L69.83,161.71L71.76,148.34L74.12,109.64L75.95,75.29L77.9,19.25L80.26,206.37L82.19,207.65L84.07,180.17L86.42,177.17L88.3,235.18L90.21,270.31L92.57,241.05L94.48,153.41L96.38,143.81L98.76,195.76L100.7,193.64L102.56,230.08L104.97,196.31L106.84,195.36L108.72,171.18L111.09,154.91L112.99,135.62L114.92,154L117.28,201.32L119.21,201.69L121.06,204.67L123.46,221.31L125.32,221.83L127.28,186.48L129.6,162.74L131.53,169.81L133.42,173.34L135.78,180.99L137.72,216.62L139.59,206.29L141.94,205.75L143.89,248.85L145.74,226.65L148.12,210.33L150.07,242.36L151.97,227.06L153.85,245.61L156.22,198.77L158.08,180.21L159.98,216.21L162.36,212.52L164.29,243.62L166.18,242.11L168.57,265.84L172.33,212.3L174.72,225.03L176.61,201.32L178.54,227.5L182.82,268.72L184.74,233.62L187.06,254.61L188.99,173.44L190.84,246.4L193.21,249.64L195.14,240.61L197,238.13L199.41,256.72L201.32,263.8L203.19,274.99L205.55,195.84L207.48,187.05L209.35,146.8L211.72,167.96L213.65,172.17L215.56,229.88L217.92,236.35L221.69,267.23L224.1,224.91L226,237.25L227.88,262.42L230.25,272.17L232.18,236.12L234.08,276.73L236.42,298.5L238.31,277.64L240.21,228.71L244.51,287.59L246.41,266.45L250.68,282.8L252.62,271.8L254.94,278.34L256.82,250.74L258.75,253.3L260.62,239.62L263.02,266.61L264.93,246.73L266.79,258.71L269.19,268.56L271.06,247.19L272.99,273.78L275.34,286.74L277.26,285.85L279.15,285.77L281.52,261.61L283.46,239.17L285.34,250.21L287.68,286.47L289.57,291.9L291.49,287.03L293.85,256.65L297.7,305.5L300.07,229.92L301.92,213.94L303.82,189.54L306.22,205.28L308.14,230.88L309.99,243.6L312.43,296.14L314.26,310.12L316.16,276.15L318.58,251.37L320.45,290.94L322.34,310.79L324.74,303.88L326.6,291.68L328.5,296.82L330.92,294.91L332.78,279.91L334.67,276.13L337.06,280.45L338.94,268.49L340.93,304.98L343.31,305L345.13,278.49L347.12,268.39L349.43,305.61L351.33,294.58L353.25,295.25L355.57,275.52L357.47,299.58L359.38,269.43L361.28,301.4L363.7,291.85L365.55,307.36L369.87,290.79L371.74,274.41L373.6,270.23L376,247.62L377.93,212.07L379.77,235.72L382.21,288.86L384.06,293.54L386.02,310.89L388.32,305.15L390.21,317.1L392.11,313.78L394.5,313.92L396.38,303.89L398.28,324.73L400.75,325.32L402.61,320.7L404.5,312.78L408.74,295.31L410.68,299.27L413.04,291.7L414.92,308.66L416.81,318.79L419.21,323.78L421.1,324.73L422.98,304.73L425.43,309.01L427.26,320.99L429.16,324.43L431.55,312.28L433.46,311.1L435.38,306.72L437.69,286.69L439.58,309.62L441.52,318.13L443.96,294.24L445.79,302.69L447.73,271.57L450.03,273.77L451.96,303.39L453.84,312.57L456.29,317.05L458.17,309.99L460.01,311.87L461.96,321.64L464.28,308.74L466.2,306.13L468.06,324.32L470.49,316.73L472.44,283.91L474.24,313.18L476.61,278.74L478.51,283.87L480.45,268.44L482.81,279.08L484.69,272.22L486.57,295.8L489,298.72L490.87,300.14L492.85,314.62L495.2,308.06L497.12,332.22L498.94,319.71L501.33,310.44L503.28,311.53L505.15,323.68L507.52,320.44L509.45,314.51L511.29,306.33L513.65,316.26L515.6,331.86L517.47,295.21L519.81,276.7L521.75,282.34L523.69,303.13L526.03,266.05L527.88,287.16L529.83,277.39L532.16,259.58L534.05,271.09L535.99,261.3L538.34,278.84L540.23,283.51L542.13,294.66L546.42,298.42L548.31,294.39L550.73,315.93L552.58,324.31L554.52,323.61L556.9,327.33L560.72,338.46L563,327.29L564.99,325.9L566.86,321.58L568.77,322.69L571.13,327.64L573.07,317.24L574.87,324.28L577.3,312.45L579.26,315.38L581.04,334.54L583.45,326.13L585.36,312.23L587.29,304.14L589.61,335.61L591.54,332.5L593.46,328.42L595.75,309.57L597.74,317.87L599.59,288.78L601.96,304.33L603.86,290.53L605.73,282.95L608.11,252.55L610.1,217L611.97,242.61L616.27,292.6L618.16,292.22L620.44,294.48L622.37,319.8L624.31,331.16L626.63,331.36L630.46,301.52L632.79,316.57L634.72,306.38L636.6,322.87L640.91,280.24L642.78,280.56L647.05,308.4L648.96,326.33L651.35,313.06L653.22,323.15L655.19,332.33L657.48,336.09L659.4,336.07L661.36,323.38L663.71,313.58L665.56,312.81L667.54,328.96L669.37,318.6L671.71,327.06L673.66,320.92L675.54,326.53L677.96,321.71L679.78,321.85L681.72,338.2L684.13,331.08L685.95,336.67L687.87,319.38L690.33,330.44L692.2,284.53L694.12,318.77L696.51,337.32L698.38,335.88L700.22,319.22L702.65,317.95L704.47,314.62L706.43,323.59L708.74,312.8L710.67,318.79L712.63,312.57L714.98,299.37L716.87,313.76L718.73,321.66L721.1,317.77L723.01,334.89L724.89,317.5L727.25,325.34L729.22,316.22L731.09,303.31L733.42,306.92L735.37,295.83L737.25,316.29L739.65,307.55L741.53,291.85L743.46,294.84L745.78,293.5L747.71,316.05L751.98,332.8L753.88,305.96L755.76,303.89L758.16,314.42L760.01,313.42L761.94,300.52L764.39,314.39L766.19,307.03L768.19,329.13L770.05,323.55L772.4,280.73L774.26,290.67L780.42,334.58L782.35,326.18L784.77,325.93L786.62,339.44L788.52,345.28L790.98,347.86L792.81,344.76L794.74,344.51L799.04,317.81L800.87,328.56L803.27,323.8L805.17,327.85L809.41,334.92L811.39,352.35L813.27,347.21L815.62,343.89L817.56,336.16L819.39,337.05L821.76,335.04L823.64,329.75L825.51,331.05L827.91,342.28L829.84,339.2L831.74,334.11L834.15,329.15L836,312.13L837.91,327.99L840.27,340.37L842.14,329.33L844.09,331.57L846.48,334.02L848.42,353.02L850.22,348.47L852.61,317.65L854.54,310.87L856.41,314.66L858.8,305.62L860.67,319.62L862.58,336.68L864.97,342.93L866.82,335.96L868.78,335.69L871.15,340.39L873.08,334.24L875.01,338.39L876.79,332.33L879.22,304.35L881.17,325.03L883.03,312.72L885.42,320.6L887.27,320.95L889.13,350.61L895.41,351L897.77,360.24L899.58,340.89L901.46,330.22L903.91,345.03L905.84,346.59L907.72,335.07L910.12,347.33L911.97,344.5L913.83,327.64L916.25,326.05L918.1,338.09L920.06,341.39L922.4,334.68L924.26,330.38L926.16,308.71L928.58,314.94L930.5,300.8L932.39,317.22L934.76,328.48L936.62,324.96L938.5,337.03L940.93,358.57L942.84,340.65L944.71,335.16L947.14,333.47L948.95,341.26L950.91,341.35L953.28,348.56L955.12,345.23L959.44,354.4L961.29,351.3L963.3,350.18L965.59,350.35L967.46,348.96L969.36,336.75L971.81,342.3L973.73,328.94L975.6,329.8L977.44,329.7L979.81,335.39L981.75,336.45L983.64,347.06L986.03,351.45L987.94,348.93L989.77,350.95L992.21,342.48L994.04,349.55L998.33,340.04L1000.27,322.26L1002.11,211.34L1004.53,205.84L1006.46,218.57L1008.34,36.13L1010.7,228.55L1012.57,272.03L1016.83,349.23L1018.74,375.12L1020.62,368.89L1023.03,381.38L1024.91,383.42" style="vector-effect: none; fill: none; stroke: rgb(43, 144, 143); stroke-opacity: 1; stroke-width: 2px; opacity: 1;"/></g><g class="points"/><g class="text"/></g><g class="trace scatter trace7b5ba5" style="stroke-miterlimit: 2; opacity: 1;"><g class="fills"/><g class="errorbars"/><g class="lines"><path class="js-line" d="M0,382.23L12.34,381.66L14.24,381.1L16.64,380.28L18.54,380.53L20.43,379.1L22.82,378.71L24.72,378.27L26.59,371.41L28.97,364.84L30.88,363.46L32.79,359.95L35.14,353.04L37.05,349.49L38.93,354.43L41.32,288.29L43.2,291.49L47.55,265.6L49.4,284.39L53.18,337.7L55.55,337.43L59.35,307.19L61.73,237.09L63.62,178.02L65.51,215.6L67.96,179.85L69.81,182.68L71.71,188.31L74.11,137.47L75.96,130.16L77.87,182.89L80.23,205.71L82.14,158.1L84.04,216.78L86.42,244.92L88.33,241.31L90.2,256.99L92.57,254.87L94.47,264.35L96.41,272.14L98.75,238.84L100.69,141.2L102.55,100.52L104.95,220.47L106.85,186.12L108.73,199.91L111.11,190.32L113.04,149.77L114.94,170.87L117.27,204.5L119.2,252.3L121.08,220.89L123.47,256.68L125.32,260.06L127.26,248.59L129.6,250.16L131.54,241.75L133.42,217.72L135.76,207.44L137.67,213.86L139.6,234.21L142.01,238.75L143.89,219.18L148.16,265.73L150.03,231.33L151.92,272.43L153.85,274.45L156.25,258.34L158.11,272.9L160.02,260.69L162.35,195.97L164.3,219.7L166.19,253.05L168.6,262.35L170.48,253.89L172.38,272.11L174.71,274.21L176.6,253.79L178.55,253.41L180.9,263.67L182.79,266.72L184.67,247.27L187.05,275.83L188.95,284.06L190.86,265.43L193.29,275.71L195.15,237.51L199.42,271.37L201.32,277.42L203.19,260.58L205.55,292.95L209.37,281.86L211.73,316.76L213.65,199.44L215.52,162.35L217.89,203.32L219.84,214.29L221.72,228.82L224.09,265.98L225.97,283.18L227.89,230.56L230.3,289.36L232.16,296.04L234.13,277.77L236.45,274.5L238.39,246.78L240.22,287.49L242.62,313.72L244.5,294.76L248.75,272.4L250.69,276.48L252.56,265.29L254.93,269.62L256.84,271.32L258.77,286.78L260.66,295.34L263.03,276.92L264.93,245.4L266.82,247L269.18,262.25L271.11,285.3L272.98,273.13L275.36,277.31L277.29,290.96L279.13,291.62L283.41,309.25L285.33,307.54L287.75,279.41L289.64,285.54L291.52,285.94L293.85,299.43L295.78,297.35L297.65,293.58L300.05,287.4L301.92,286.37L303.86,303.22L306.28,310.44L308.16,257.41L310.02,226.61L312.39,233.09L314.26,219.7L316.16,209.37L318.55,283.09L322.37,322.39L324.73,272.3L330.89,313.52L332.84,310.36L337.09,305.71L338.95,298.31L340.84,296.32L343.24,290.39L345.14,272.71L347.04,289.65L349.39,311.43L351.37,310.42L353.2,307.4L355.66,306.88L357.48,304.08L359.41,303.77L361.25,307.64L363.74,299.43L365.55,281.78L367.43,312.38L369.85,296.06L371.73,316.84L376.01,299.08L377.87,276.13L382.2,258.02L384.06,260.82L388.32,274.86L390.22,268.3L394.5,285.75L396.43,285.33L398.28,298.11L400.73,298.28L402.63,313.86L404.48,315.09L406.84,333.42L408.78,313.04L410.65,311.94L413.05,314.8L414.94,289.19L416.8,278.45L419.19,307.23L421.15,306.98L423.01,318.83L425.38,316.62L427.25,312.65L429.2,320.53L431.58,307.38L433.48,314.67L435.34,326.2L437.73,330.8L439.58,315.48L441.52,306.34L443.88,306.02L445.8,317.48L447.69,311.69L450.1,318.79L451.93,323.14L453.85,308.99L456.22,317.27L458.11,308.21L460.01,324.52L461.9,322.13L464.38,323.07L466.2,313.55L468.13,329.37L470.44,333.48L472.44,328.8L474.33,333.14L476.67,339.44L478.51,328.39L480.43,322.02L482.83,311.44L486.63,295.53L488.96,295.49L490.88,308.05L492.76,299.34L495.16,318.5L497.05,311.42L498.92,319.4L501.37,319.03L503.2,329.76L505.11,327.79L507.49,331.6L509.44,346.05L511.35,324.76L513.69,333.26L515.65,328.24L517.51,327.91L519.86,292.98L521.73,323.18L523.63,322.47L526.02,304.54L527.88,296.47L529.84,292.51L532.16,322.99L534.06,337.35L540.24,279.6L542.14,292.79L546.39,279.11L548.28,301.56L550.69,301.03L552.56,283.37L554.48,301.06L556.86,311.41L558.78,314.72L560.68,332.55L563.04,341.97L564.92,340.01L566.8,341.74L568.71,336.38L573.05,336.19L574.89,328.25L577.35,337.67L579.16,320.7L581.15,328.38L583.43,317.84L585.41,327.47L587.21,328.97L589.67,332.72L591.5,320.15L593.44,308.47L595.77,314.86L599.64,334.23L601.99,322.81L603.94,315L605.82,316.08L608.12,294.49L610.02,311.64L611.92,289.83L614.32,280.74L616.19,258.28L618.08,264.31L620.44,296.18L622.35,292.42L624.25,289.34L626.61,279.95L630.45,326.42L632.8,331.52L634.69,335.98L636.66,315.74L638.95,324.44L640.91,320.84L642.81,326.13L645.14,319.19L647.03,283.52L648.93,303.13L651.38,321.06L653.24,308.31L655.16,323.33L657.48,326.24L659.4,335.84L661.29,339.56L663.69,343.21L665.56,329.17L667.48,336.25L669.42,324.28L671.77,326.27L673.63,339.76L675.55,340.37L677.93,330.34L679.8,328L681.69,340.46L684.08,326.86L685.96,321.17L687.85,335.85L690.32,333.17L692.19,342.86L694.02,333.66L696.4,341.28L698.32,315.43L700.19,327.47L702.58,324.8L704.51,348.96L706.45,335.83L708.75,309.01L710.69,326.5L712.61,318.32L714.93,323.25L716.8,329.21L718.73,330.77L721.18,328.59L723.04,328.73L724.93,341.7L727.32,339.71L729.17,340.54L731.15,333.76L733.49,342.09L735.39,329.05L737.31,323.79L739.63,322.67L741.5,318.21L743.42,326.07L747.79,330.41L749.64,329.11L751.97,324.56L753.88,319.08L755.78,315.17L758.11,335.7L761.93,314.58L764.29,309.42L766.19,328.51L768.1,319.86L770.04,341.37L772.38,335.99L778.59,326.83L780.54,314.17L782.37,311.34L784.79,319.02L786.64,318.7L788.52,333.71L790.92,344.06L792.82,360.73L794.73,357.98L797.07,360.36L800.89,345.28L803.21,338.65L807.03,318.57L809.42,341.22L811.28,339.77L813.29,336.34L815.62,359.25L817.48,362.79L819.37,359.48L821.75,353.73L825.6,354.92L827.94,337.81L829.8,333.24L831.74,333.6L834.16,338.56L835.97,337.38L840.32,338.48L842.16,315.69L846.42,340.66L848.3,342.93L850.29,335L852.65,353.34L854.54,353.18L856.48,354.23L860.67,328.09L862.55,318.99L868.8,318.47L871.14,342.12L873,336.12L874.96,335.74L876.82,346.85L879.16,340.02L883,345.49L885.41,326.73L887.34,313.16L889.15,312.79L891.6,319.33L893.44,337.92L895.34,329.18L897.7,357.19L899.62,365.11L901.52,363.53L903.96,366.79L905.78,364.74L910.05,350.89L911.93,354.05L913.88,360.14L916.22,360.38L918.18,355.01L920,356.96L922.42,352.24L924.26,359.14L926.23,359.87L928.57,366.2L930.55,349.91L932.37,345.61L934.76,330.13L936.61,326.55L938.54,316.07L940.87,317.82L942.84,324.15L944.72,335.18L947.13,349.95L949.05,349.47L950.96,342.9L953.21,342.55L955.23,341.56L957.08,344.14L959.48,344.07L961.29,350.49L963.24,341.39L965.68,350.96L967.45,346.08L969.37,350.32L971.77,345.46L973.66,350.67L975.63,343.22L977.42,332.77L979.88,344.08L981.78,333.21L983.63,329.98L986.03,324.28L987.93,324.24L989.78,335.38L992.18,344.31L994.04,345.61L996.05,354.17L998.32,351.95L1000.21,347.76L1002.16,186.65L1004.5,188.67L1006.39,197.99L1008.31,96.32L1010.7,232.74L1012.56,280.1L1014.47,295.48L1018.8,373.34L1020.65,373.99L1023.09,382.25L1025,383.21" style="vector-effect: none; fill: none; stroke: rgb(244, 91, 91); stroke-opacity: 1; stroke-width: 2px; opacity: 1;"/></g><g class="points"/><g class="text"/></g><g class="trace scatter trace3b4ccd" style="stroke-miterlimit: 2; opacity: 1;"><g class="fills"/><g class="errorbars"/><g class="lines"><path class="js-line" d="M0,382L6.17,382.28L8.07,381.63L10.47,382.41L12.34,381.66L16.63,381.12L18.52,379.83L20.41,378.97L22.79,379.1L24.7,378.99L26.6,371.55L28.98,367.46L30.87,369.97L35.16,354.16L37.03,354.72L38.95,354.33L41.32,306.52L43.2,275.28L45.1,275.23L47.48,267.14L49.42,287.49L51.33,300.56L53.17,337.25L55.57,343.31L57.46,326.51L59.34,314.31L61.74,249.55L63.63,175.25L65.52,217.66L69.8,164.11L71.69,190.76L74.08,104.76L76,160.13L77.91,160.22L80.24,206.62L82.17,131.68L84.06,253.01L86.45,242.46L88.35,221.92L90.23,222.96L92.62,263.39L94.46,275.48L96.41,241.35L98.74,237.96L100.66,80.52L102.54,96.79L104.91,206.91L106.81,189.23L108.74,184.92L111.16,196.86L113,173.63L114.92,94.21L117.28,193.47L119.21,239.58L121.11,170.64L123.48,230.22L125.35,256.87L129.63,212.69L131.52,220.76L133.42,170.43L135.81,165.13L137.7,173.08L139.58,211.59L142.01,215.13L143.88,227.43L145.76,225.07L148.17,198.77L150.01,242.19L151.92,252.97L153.88,219.36L156.24,242.35L158.11,202.72L160,189.14L162.38,220.84L164.26,259.89L166.22,218.77L168.54,267.2L170.48,261.18L172.35,258.07L174.75,231.02L176.65,245.18L178.54,238.23L180.89,261.09L182.79,245.9L184.73,238.97L188.97,258.75L190.84,220.88L193.21,237.72L195.17,275.76L197.06,234.84L199.42,269.06L201.36,276.54L203.2,270.75L205.6,280.83L207.45,183.98L209.36,105.82L211.74,117.52L213.69,223.16L215.56,249.62L217.92,232.25L219.87,258.19L221.73,282.86L224.13,239.31L226.02,270.54L227.86,247.33L230.25,288.06L232.18,234.61L234.07,251.7L236.45,299.92L238.33,297.14L240.24,273.45L242.59,268.02L244.5,272L246.44,281.68L248.81,269.67L250.69,282.63L252.55,277.42L254.93,275.46L256.85,256.69L258.75,264.15L260.64,250.82L262.99,256.98L264.89,283.79L266.8,284.24L269.23,271.49L271.08,269.85L272.97,275.25L275.37,288.02L277.27,291.37L279.15,286.67L281.52,277.99L283.43,254.46L285.33,268.21L287.69,287.55L289.64,272.39L291.49,293.86L293.88,288.4L295.77,282.51L297.65,293.32L300.12,226.5L301.96,217.51L303.82,223.4L306.23,237.35L308.09,224.69L310.01,231.22L314.28,317.43L316.25,297.17L318.55,264.08L320.49,287.65L322.4,306.45L324.77,315.61L328.51,289.55L330.87,290.23L332.82,303.54L334.72,287.35L337.04,281.11L338.94,289.07L340.92,292.55L343.28,304.25L345.17,290.75L347.12,292.81L349.4,298.4L351.37,306.03L353.24,274.2L355.64,257.28L357.48,250.28L359.4,294.04L361.31,279.92L363.67,285.29L365.58,249.35L367.43,294.9L369.85,269.9L371.73,231.42L373.63,252.61L376.05,254.03L377.88,222.48L379.77,219.45L385.94,268.26L388.33,237.39L390.26,292.42L392.15,283.27L394.49,278.27L396.42,296.14L398.32,300.91L400.73,288.26L402.61,298.24L404.47,296.84L406.88,287.26L408.77,269.17L410.69,284.37L413.06,279L416.87,300.33L419.18,282.65L421.16,312.07L423.03,295.06L425.4,285.42L427.25,304.35L429.16,309.71L431.59,292.76L433.42,293.1L435.36,288.4L437.73,281.46L439.62,279.61L441.59,297.22L443.88,291.58L445.76,286.57L447.65,260.57L450.07,240.95L451.93,265.94L453.86,306.15L456.22,306.95L458.12,294.08L460.02,305.93L461.93,306.9L464.3,309.64L466.22,280.23L468.1,312.55L470.45,272.11L472.36,278.42L474.24,282.27L476.65,254.47L478.54,256.68L480.45,250.18L482.82,247.03L484.7,243.02L486.61,293.59L488.95,275.03L490.86,272.1L492.77,262.86L495.13,294.74L497.03,302.04L498.98,312.54L501.4,314.93L505.16,280.31L507.57,290.23L509.4,298.97L511.29,275.31L513.72,277.36L515.57,288.74L517.5,278.95L519.85,256.5L521.8,276.02L523.67,248.95L526.07,286.57L527.98,282.05L529.84,265.32L532.18,227.06L534.06,247.45L535.96,250.39L538.31,250.13L540.25,248.06L544.53,277.48L546.41,265.4L548.32,297.34L550.66,261.11L554.46,319.25L556.87,321.84L558.74,316.98L560.68,301.67L563.04,324.49L564.91,303.75L566.82,314.56L568.75,318.3L571.09,313.48L572.98,312.59L574.92,301.73L577.28,310.55L579.15,308.16L581.05,299.57L583.43,320.3L585.32,313.14L587.28,294.16L589.7,294.35L591.51,312.05L593.46,314.84L595.83,305.84L597.71,295.06L599.63,296.94L601.95,283.35L605.8,197.17L608.18,216.64L610.04,226.68L611.95,252.54L614.29,257.91L616.21,287.45L618.16,291.13L620.5,275.14L622.36,266.27L624.24,311.22L626.68,306.84L628.56,298.36L630.45,276.2L632.82,306.95L634.79,307.24L636.63,314.7L638.99,274.43L640.87,274.85L642.76,274.97L645.16,292.52L647.03,272.32L648.94,312.71L651.36,319.09L653.23,313.21L655.19,327.63L657.56,328.51L659.45,315.84L661.37,318.28L663.71,289.65L665.56,301.92L667.49,327.14L669.46,329.2L673.69,311.27L675.55,315.75L677.92,315.38L679.84,309.66L681.7,335.69L684.11,325.97L685.98,334.6L687.96,314.77L690.34,327.97L692.2,304.23L694.02,322.04L696.42,323.64L698.34,332.03L700.29,327.5L704.52,300.73L706.38,311.19L708.76,312.07L710.67,319.98L712.56,305.07L714.97,308L716.84,309.61L718.77,313.38L721.12,324.02L723.04,322.37L724.89,318.83L727.33,329.83L729.22,320.8L731.14,287.78L733.45,297.22L735.41,293.75L737.34,306.13L739.64,306L741.5,314.35L743.46,308.64L745.87,309.06L747.74,300.53L749.58,321.96L751.94,321.38L753.89,316.62L755.83,280.58L760.06,306.1L761.92,303.7L764.32,308.76L766.24,309.18L768.07,333.6L770.01,330.43L772.36,280.15L774.37,287.67L776.22,293.13L778.55,309.88L784.73,342.99L786.59,320L788.51,343.92L790.97,342.39L792.83,346.11L794.66,342.6L797.12,333.95L798.96,306.68L803.23,326.56L805.13,330.65L807.03,321.96L809.41,331.73L811.37,340.56L813.29,344.24L815.61,330.7L817.57,339.38L819.43,337.1L821.81,331.92L823.71,330.3L825.53,333.86L827.94,331.43L829.84,339.12L831.69,334.6L834.12,321.92L836.07,325.63L837.88,320.79L840.31,320.11L842.18,340.46L844.11,333.14L846.5,337.56L848.39,336.98L850.29,345.51L852.66,308.72L854.52,314.17L856.39,299.74L858.76,311.46L860.72,280.25L862.58,309.57L864.93,338.72L866.83,335.88L868.79,329.55L871.16,328.45L873.04,335.4L874.95,325.19L876.79,335.33L879.17,314.65L881.14,324.6L882.96,306.87L885.34,322.5L887.32,317.52L889.24,316.15L891.55,341.75L893.44,351.07L895.29,350.78L897.69,355.15L899.68,341.79L901.46,342.11L903.91,341.49L905.85,351.89L907.72,340.62L910.05,348.41L911.92,350.03L913.92,341.32L916.29,326.76L918.09,335.13L920.02,339.68L922.43,331.97L924.32,320.48L926.16,316.29L928.57,298.72L930.48,299.45L932.36,297.95L934.72,303.01L936.6,309.96L938.57,324.36L940.9,331.9L942.85,352.55L944.67,332.57L947.16,338.47L948.98,333.35L950.86,334.31L953.32,339.81L955.18,343.02L957.09,327.87L961.29,344.41L963.22,341.11L965.59,342.86L967.56,355.88L969.38,352.88L971.8,343.09L973.7,336.77L975.59,335.1L977.45,323.11L979.85,334.13L981.73,329.53L983.65,332.12L987.88,343.8L989.81,344.74L992.23,345.51L994.07,347.68L996,348.28L998.34,344.96L1000.21,323.59L1002.19,205.27L1004.51,204.42L1006.39,196.73L1008.3,81.4L1010.7,221.5L1012.55,271.58L1014.45,302.02L1018.81,374.44L1020.64,373.32L1023.04,382.3L1024.97,382.34" style="vector-effect: none; fill: none; stroke: rgb(145, 232, 225); stroke-opacity: 1; stroke-width: 2px; opacity: 1;"/></g><g class="points"/><g class="text"/></g><g class="trace scatter trace37105c" style="stroke-miterlimit: 2; opacity: 1;"><g class="fills"/><g class="errorbars"/><g class="lines"><path class="js-line" d="M0,382.72L1.9,382.16L4.28,382.56L20.44,381.11L22.79,380.56L24.72,379.63L26.58,375.29L28.98,367.34L30.89,373.54L32.79,370.28L35.13,359.23L37.03,362.02L38.97,369.09L41.32,339.24L43.23,294.16L45.17,319.26L47.53,336.34L49.37,328.42L51.28,341.53L53.19,348.96L55.56,353.02L57.44,348.65L59.36,338.04L61.74,315.54L63.61,284.25L65.55,280.21L67.96,234.32L69.8,241.65L71.71,208.75L74.1,151.26L75.98,226.38L77.92,224L80.27,225.81L82.17,226.35L84.06,275.41L86.41,205.01L88.3,217.36L90.22,302.19L92.6,301L94.52,289.23L96.39,282.94L98.8,265.89L100.68,262.82L102.55,250.31L104.99,133.84L106.81,122.5L108.76,241.37L111.14,185.16L113.07,250.69L114.89,196.96L117.25,188.02L119.18,200.03L121.06,217.18L123.46,269.25L125.35,223.61L127.24,260.98L129.61,267.02L131.51,258.45L133.45,259L135.82,242.05L137.73,237.67L139.57,195.19L141.98,224.12L143.85,242.45L145.78,246.5L148.11,261.1L150.06,249.7L151.91,262.24L153.82,264.61L156.23,257.62L158.13,290.74L160.05,258.44L162.35,274.95L164.29,245.28L166.21,263.48L168.53,236.65L170.42,260.38L172.39,281.23L174.71,283L176.62,285.97L178.5,271.7L180.89,277.49L182.77,259.3L184.69,280.58L187.06,247.91L190.86,294.2L193.25,282.31L195.11,282.88L197.1,260.6L199.39,247.17L201.29,267.35L203.18,275.21L205.6,278.65L207.45,252.45L209.37,293.57L213.67,291.9L215.55,320.18L217.9,163.15L219.84,115.1L221.69,204.77L224.08,225.46L225.99,245.43L227.89,283.13L230.27,273.09L232.14,240.5L234.03,296.61L236.43,299.4L238.34,276.44L240.23,291.1L242.65,276.2L244.51,316.09L246.42,306.37L248.82,321.29L250.68,287.55L252.61,290.15L254.97,288.61L256.93,290.54L260.65,305.39L263.03,293.12L264.97,297.54L266.87,278.16L269.2,257.33L271.06,268.99L272.96,296.48L275.35,294.72L277.26,271.37L279.19,269.33L281.61,309.9L283.44,298.28L285.37,301.92L287.68,295.14L289.62,300.89L291.47,293.49L293.87,281.71L295.78,298.13L297.75,297.1L300.02,300.51L301.91,291.12L303.91,311.14L306.18,317.48L308.08,306.58L312.42,241.65L314.26,237.7L316.18,249.06L318.53,247.43L322.36,285.39L324.77,325.82L326.64,279.97L328.57,268.81L330.92,308.73L332.83,325.55L334.72,315.06L337.05,320.87L338.94,309.21L340.88,308.75L343.27,300.04L345.13,304.15L347.15,298.57L349.4,276.47L351.32,310.63L353.22,306.01L355.55,309.21L357.48,321.06L359.43,297.28L361.27,298.05L363.65,297.61L365.58,315.41L367.43,286.69L369.8,303.39L371.78,295.17L373.67,320.99L376.02,298.41L377.91,297.31L379.77,300.6L382.16,288.33L384.04,259.98L386.01,274.57L388.31,268.15L390.24,240.44L392.14,275.97L394.53,275.61L396.41,285.23L398.33,263.15L400.7,274.17L402.56,290.62L404.5,296.93L406.89,301.36L408.72,325.48L410.66,306.12L413,319.71L414.97,296.77L416.88,303.11L419.25,299.93L423.01,280.09L425.34,288.59L427.28,297.73L429.2,300.17L431.58,310.79L433.42,306.24L435.34,305.83L437.74,324.95L439.64,310.65L441.53,313.77L443.86,290.14L445.78,305.18L447.66,303.88L450.06,308.23L453.89,293.39L456.22,307.15L458.11,290.73L460.05,294.84L464.33,322.58L466.16,314.76L468.06,323.22L470.43,309.36L474.3,298.6L476.67,319.69L478.52,309.66L480.43,325.22L482.88,287.8L484.73,300.14L486.58,305.59L488.96,284.48L490.85,273.82L492.74,276.64L495.2,292.46L497.03,283.62L498.95,285.51L501.3,313.19L503.19,299.09L505.12,317.28L507.52,318.56L509.46,316.67L513.68,312.17L515.53,321.85L517.48,325.71L519.81,308.62L521.79,306L523.7,289.62L526.03,313.18L527.97,321.91L529.8,290.53L532.16,275.77L534.08,295.91L536.05,330.15L538.38,319.84L540.22,288.92L542.14,259.87L544.51,272.56L546.38,278.54L548.31,261.29L550.69,267.4L552.57,286.14L554.47,275.17L556.84,279.39L558.75,276.35L560.65,297.44L564.91,318.32L566.81,314.32L568.79,312.86L571.11,327.19L573.07,314L574.9,324.09L577.3,311.51L579.22,293.41L581.1,330.64L583.47,310.57L585.32,322.12L587.32,307.88L591.55,321.17L593.45,306.32L595.77,289.43L597.67,292.17L599.65,288.23L601.97,318.38L603.9,310.85L605.73,312.16L608.11,302.08L610.04,312.65L611.92,296.7L614.27,262.39L616.18,238.41L618.09,239.56L622.36,255.44L624.32,276.14L626.62,258.74L628.51,229.23L630.48,244.46L632.79,289.04L634.71,276.21L636.63,305.38L638.96,300.49L640.95,288.82L642.86,285.68L645.15,305.36L647.05,330.08L648.95,284.45L651.31,276.16L653.23,298.89L655.1,258.46L657.47,299.56L659.42,315.15L661.29,321.17L665.59,328.54L667.48,340.28L669.34,326.32L671.72,328.04L673.65,327.81L675.53,311.39L677.91,295L679.82,316.36L681.77,321.34L684.14,335.71L685.98,323.84L687.93,331.12L690.27,320.35L692.24,328.16L694.05,322.56L696.46,322.09L698.38,334.29L700.23,307.92L702.65,323.11L704.56,322.85L706.39,324.68L708.8,338.64L712.56,299.47L715.02,317.25L716.83,310.91L718.75,318.73L721.19,330.13L723.06,330.24L724.94,340.38L727.32,332.45L731.14,308.3L733.46,331.94L735.43,337.69L737.3,321L741.52,293.48L743.43,304.32L745.8,326.51L747.66,313.47L749.59,337.48L751.99,334.89L753.94,310.19L755.74,317.56L758.17,317.74L760.05,312.76L761.97,325.56L764.37,310.12L766.21,317.28L768.08,313.32L769.99,316.43L772.44,333.62L774.27,335.72L776.15,313.91L778.55,319.96L780.52,319L784.7,295.46L786.63,304.72L788.52,311.63L790.92,323.88L792.83,347.7L794.68,351.8L797.18,357.66L798.98,355.56L800.93,350.31L803.29,340.58L807.07,329.59L809.38,324.17L813.21,345.08L815.56,334.89L817.53,355.46L819.4,359.74L823.64,365.97L825.53,372.23L827.94,372.33L829.89,358.98L834.07,342.44L836.02,346.22L837.91,341.41L840.26,345.62L842.19,344.69L844.09,327.54L846.48,340.01L848.34,343.32L850.21,334.38L852.64,332.56L854.51,338.68L856.49,338.74L858.81,344.6L860.75,314.18L862.62,319.68L864.98,312.43L866.89,314.56L868.76,313.4L871.13,329.6L873.09,335.68L874.91,340.38L876.79,335.98L879.3,345.72L881.14,337.58L882.97,334.73L885.34,335.25L887.28,331.42L889.14,324.32L891.51,320.61L893.44,324.55L895.41,320.72L897.67,329.94L899.61,356.41L901.47,365.31L903.84,353.56L905.82,358.83L907.69,352.22L910.06,347.76L911.92,346.6L913.83,340.56L916.32,347.22L918.14,347.21L920.08,336.64L922.37,334.16L924.26,330.2L926.2,334.73L928.57,344.46L930.42,338.74L932.43,314.14L934.8,322.77L936.69,312.51L938.6,297.79L940.98,301.28L942.85,310.12L944.69,319.46L947.08,325.94L948.97,338.91L950.85,334.32L953.29,337.33L955.13,335.78L957.04,347.52L959.51,336.66L961.35,335.17L963.2,343.33L965.57,343.46L967.56,341.72L969.36,339.65L971.76,348.91L973.65,349.63L975.62,343.53L977.44,337.99L979.86,338.37L981.81,335.83L983.59,323.4L987.93,319.16L989.82,330.22L992.13,332.16L994.09,351.29L995.99,348.18L998.38,346.57L1000.21,323.63L1002.12,226.36L1004.49,181.04L1006.41,185.67L1008.33,100.69L1010.68,234.52L1012.63,279.81L1014.49,288.39L1018.8,374.16L1020.72,365.69L1023,381.59L1024.94,382.91" style="vector-effect: none; fill: none; stroke: rgb(124, 181, 236); stroke-opacity: 1; stroke-width: 2px; opacity: 1;"/></g><g class="points"/><g class="text"/></g></g></g></g><path class="xlines-above crisp" d="M0,0" style="fill: none;"/><path class="ylines-above crisp" d="M0,0" style="fill: none;"/><g class="overlines-above"/><g class="xaxislayer-above"><g class="xtick"><text text-anchor="middle" x="0" y="451" transform="translate(60,0)" style="font-family: 'Lucida Grande', 'Open Sans', verdana, arial, sans-serif; font-size: 10px; fill: rgb(0, 0, 0); fill-opacity: 1; white-space: pre; opacity: 1;">0</text></g><g class="xtick"><text text-anchor="middle" x="0" y="451" style="font-family: 'Lucida Grande', 'Open Sans', verdana, arial, sans-serif; font-size: 10px; fill: rgb(0, 0, 0); fill-opacity: 1; white-space: pre; opacity: 1;" transform="translate(249.88,0)">2k</text></g><g class="xtick"><text text-anchor="middle" x="0" y="451" style="font-family: 'Lucida Grande', 'Open Sans', verdana, arial, sans-serif; font-size: 10px; fill: rgb(0, 0, 0); fill-opacity: 1; white-space: pre; opacity: 1;" transform="translate(439.76,0)">4k</text></g><g class="xtick"><text text-anchor="middle" x="0" y="451" style="font-family: 'Lucida Grande', 'Open Sans', verdana, arial, sans-serif; font-size: 10px; fill: rgb(0, 0, 0); fill-opacity: 1; white-space: pre; opacity: 1;" transform="translate(629.64,0)">6k</text></g><g class="xtick"><text text-anchor="middle" x="0" y="451" style="font-family: 'Lucida Grande', 'Open Sans', verdana, arial, sans-serif; font-size: 10px; fill: rgb(0, 0, 0); fill-opacity: 1; white-space: pre; opacity: 1;" transform="translate(819.53,0)">8k</text></g><g class="xtick"><text text-anchor="middle" x="0" y="451" style="font-family: 'Lucida Grande', 'Open Sans', verdana, arial, sans-serif; font-size: 10px; fill: rgb(0, 0, 0); fill-opacity: 1; white-space: pre; opacity: 1;" transform="translate(1009.41,0)">10k</text></g></g><g class="yaxislayer-above"><g class="ytick"><text text-anchor="end" x="54" y="3.5" transform="translate(0,435)" style="font-family: 'Lucida Grande', 'Open Sans', verdana, arial, sans-serif; font-size: 10px; fill: rgb(0, 0, 0); fill-opacity: 1; white-space: pre; opacity: 1;">0</text></g><g class="ytick"><text text-anchor="end" x="54" y="3.5" style="font-family: 'Lucida Grande', 'Open Sans', verdana, arial, sans-serif; font-size: 10px; fill: rgb(0, 0, 0); fill-opacity: 1; white-space: pre; opacity: 1;" transform="translate(0,389.57)">1B</text></g><g class="ytick"><text text-anchor="end" x="54" y="3.5" style="font-family: 'Lucida Grande', 'Open Sans', verdana, arial, sans-serif; font-size: 10px; fill: rgb(0, 0, 0); fill-opacity: 1; white-space: pre; opacity: 1;" transform="translate(0,344.13)">2B</text></g><g class="ytick"><text text-anchor="end" x="54" y="3.5" style="font-family: 'Lucida Grande', 'Open Sans', verdana, arial, sans-serif; font-size: 10px; fill: rgb(0, 0, 0); fill-opacity: 1; white-space: pre; opacity: 1;" transform="translate(0,298.7)">3B</text></g><g class="ytick"><text text-anchor="end" x="54" y="3.5" style="font-family: 'Lucida Grande', 'Open Sans', verdana, arial, sans-serif; font-size: 10px; fill: rgb(0, 0, 0); fill-opacity: 1; white-space: pre; opacity: 1;" transform="translate(0,253.26)">4B</text></g><g class="ytick"><text text-anchor="end" x="54" y="3.5" style="font-family: 'Lucida Grande', 'Open Sans', verdana, arial, sans-serif; font-size: 10px; fill: rgb(0, 0, 0); fill-opacity: 1; white-space: pre; opacity: 1;" transform="translate(0,207.83)">5B</text></g><g class="ytick"><text text-anchor="end" x="54" y="3.5" style="font-family: 'Lucida Grande', 'Open Sans', verdana, arial, sans-serif; font-size: 10px; fill: rgb(0, 0, 0); fill-opacity: 1; white-space: pre; opacity: 1;" transform="translate(0,162.39)">6B</text></g><g class="ytick"><text text-anchor="end" x="54" y="3.5" style="font-family: 'Lucida Grande', 'Open Sans', verdana, arial, sans-serif; font-size: 10px; fill: rgb(0, 0, 0); fill-opacity: 1; white-space: pre; opacity: 1;" transform="translate(0,116.96)">7B</text></g><g class="ytick"><text text-anchor="end" x="54" y="3.5" style="font-family: 'Lucida Grande', 'Open Sans', verdana, arial, sans-serif; font-size: 10px; fill: rgb(0, 0, 0); fill-opacity: 1; white-space: pre; opacity: 1;" transform="translate(0,71.52)">8B</text></g></g><g class="overaxes-above"/></g></g><g class="polarlayer"/><g class="smithlayer"/><g class="ternarylayer"/><g class="geolayer"/><g class="funnelarealayer"/><g class="pielayer"/><g class="iciclelayer"/><g class="treemaplayer"/><g class="sunburstlayer"/><g class="glimages"/><defs id="topdefs-e44273"><g class="clips"/></defs><g class="layer-above"><g class="imagelayer"/><g class="shapelayer"/></g><g class="infolayer"><g class="g-gtitle"><text class="gtitle" x="550" y="25" text-anchor="middle" dy="0em" style="opacity: 1; font-family: 'Lucida Grande', 'Open Sans', verdana, arial, sans-serif; font-size: 20px; fill: rgb(42, 63, 95); fill-opacity: 1; white-space: pre;"><tspan class="line" dy="0em" x="550" y="25">MS1 BPC</tspan><tspan class="line" dy="1.3em" x="550" y="25"><tspan style="font-size:70%" dy="-0.6em">11 samples</tspan><tspan dy="0.42em"></tspan></tspan></text></g><g class="g-xtitle"/><g class="g-ytitle"><text class="ytitle" transform="rotate(-90,27.365625,242.5)" x="27.365625" y="242.5" text-anchor="middle" style="opacity: 0.3; font-family: 'Lucida Grande', 'Open Sans', verdana, arial, sans-serif; font-size: 14px; fill: rgb(0, 0, 0); fill-opacity: 1; white-space: pre;">Ion Count</text></g></g></svg>