<svg class="main-svg" xmlns="http://www.w3.org/2000/svg" xmlns:xlink="http://www.w3.org/1999/xlink" width="2200" height="1000" style="" viewBox="0 0 1100 500"><rect x="0" y="0" width="1100" height="500" style="fill: rgb(255, 255, 255); fill-opacity: 1;"/><defs id="defs-ebad96"><g class="clips"><clipPath id="clipebad96xyplot" class="plotclip"><rect width="1020" height="385"/></clipPath><clipPath class="axesclip" id="clipebad96x"><rect x="65" y="0" width="1020" height="500"/></clipPath><clipPath class="axesclip" id="clipebad96y"><rect x="0" y="50" width="1100" height="385"/></clipPath><clipPath class="axesclip" id="clipebad96xy"><rect x="65" y="50" width="1020" height="385"/></clipPath></g><g class="gradients"/><g class="patterns"/></defs><g class="bglayer"/><g class="layer-below"><g class="imagelayer"/><g class="shapelayer"/></g><g class="cartesianlayer"><g class="subplot xy"><g class="layer-subplot"><g class="shapelayer"/><g class="imagelayer"/></g><g class="minor-gridlayer"><g class="x"/><g class="y"/></g><g class="gridlayer"><g class="x"><path class="xgrid crisp" transform="translate(253.95,0)" d="M0,50v385" style="stroke: rgb(0, 0, 0); stroke-opacity: 0.05; stroke-width: 1px;"/><path class="xgrid crisp" transform="translate(442.91,0)" d="M0,50v385" style="stroke: rgb(0, 0, 0); stroke-opacity: 0.05; stroke-width: 1px;"/><path class="xgrid crisp" transform="translate(631.87,0)" d="M0,50v385" style="stroke: rgb(0, 0, 0); stroke-opacity: 0.05; stroke-width: 1px;"/><path class="xgrid crisp" transform="translate(820.82,0)" d="M0,50v385" style="stroke: rgb(0, 0, 0); stroke-opacity: 0.05; stroke-width: 1px;"/><path class="xgrid crisp" transform="translate(1009.78,0)" d="M0,50v385" style="stroke: rgb(0, 0, 0); stroke-opacity: 0.05; stroke-width: 1px;"/></g><g class="y"><path class="ygrid crisp" transform="translate(0,347.19)" d="M65,0h1020" style="stroke: rgb(0, 0, 0); stroke-opacity: 0.05; stroke-width: 1px;"/><path class="ygrid crisp" transform="translate(0,259.38)" d="M65,0h1020" style="stroke: rgb(0, 0, 0); stroke-opacity: 0.05; stroke-width: 1px;"/><path class="ygrid crisp" transform="translate(0,171.56)" d="M65,0h1020" style="stroke: rgb(0, 0, 0); stroke-opacity: 0.05; stroke-width: 1px;"/><path class="ygrid crisp" transform="translate(0,83.75)" d="M65,0h1020" style="stroke: rgb(0, 0, 0); stroke-opacity: 0.05; stroke-width: 1px;"/></g></g><g class="zerolinelayer"><path class="yzl zl crisp" transform="translate(0,435)" d="M65,0h1020" style="stroke: rgb(0, 0, 0); stroke-opacity: 0.05; stroke-width: 2px;"/></g><g class="layer-between"><g class="shapelayer"/><g class="imagelayer"/></g><path class="xlines-below"/><path class="ylines-below"/><g class="overlines-below"/><g class="xaxislayer-below"/><g class="yaxislayer-below"/><g class="overaxes-below"/><g class="overplot"><g class="xy" transform="translate(65,50)" clip-path="url(#clipebad96xyplot)"><g class="scatterlayer mlayer"><g class="trace scatter trace808474" style="stroke-miterlimit: 2; opacity: 1;"><g class="fills"/><g class="errorbars"/><g class="lines"><path class="js-line" d="M0,248.85L1.91,247.76L4.27,239.52L6.17,206.65L8.03,236.77L10.39,230.36L12.32,235.69L14.18,237.14L16.56,235.24L20.33,216.14L22.7,216.43L24.57,209.62L26.46,193.7L34.96,181.53L36.85,171.66L38.76,180.11L41.14,160.2L42.99,155.71L44.89,143.92L47.28,142.38L49.14,155.15L51.04,167.89L52.94,164.96L55.29,143.49L57.2,138.97L59.09,128.1L61.41,123.67L63.3,111.98L65.23,123.72L67.6,153.25L69.49,111.98L71.37,120.8L73.74,111.33L75.61,80.56L77.51,105.12L79.84,130.27L81.78,102.4L83.64,129.17L85.98,190.03L87.89,198.42L89.75,109.52L92.12,114.52L94.04,107.1L95.94,127.26L98.27,117.83L100.18,120.96L102.06,116.82L104.4,119.46L106.33,204.43L108.2,142.16L110.58,127.32L114.39,104.65L116.71,137.16L118.59,127.61L120.46,146.94L122.85,142.11L124.76,104.08L126.69,112.16L128.96,115.4L130.88,97.79L132.76,117.23L135.12,94.69L137,99.61L138.91,112.1L141.25,195.75L143.18,204.62L145.06,151.53L147.39,107.14L149.32,98.93L151.2,126.36L153.06,102.4L155.46,107.66L157.33,121.56L159.21,130.06L161.58,135.39L163.48,105.2L165.34,108.52L167.76,129.27L169.63,130.4L171.49,135.05L173.84,150.77L177.64,111.08L179.99,111.4L181.94,102.16L183.8,86.38L186.16,96.63L188.02,110.37L189.93,127.27L192.29,113.7L194.16,136.09L196.07,122.32L198.43,115.61L200.32,88.58L202.2,114.84L204.62,114.04L208.32,132.42L210.71,110.3L212.61,105.67L214.47,111.38L216.84,131.12L218.72,138.58L220.66,110.4L222.97,136.49L224.89,127.47L226.77,257.01L229.12,255.13L231.02,223.82L232.9,196.28L235.27,145.76L237.14,115.57L239.09,132.57L243.3,104.81L245.21,104.05L247.56,125.41L249.43,114.68L251.4,103.58L253.67,96.16L255.62,94.22L257.48,80.42L259.39,96.55L261.71,87.49L263.68,108.63L265.54,112.99L267.85,111.31L269.76,108.25L271.66,116.14L274.01,109.6L275.9,77.27L277.84,126.58L280.17,133.11L282.02,92.68L283.94,87L286.27,121.41L288.19,150.59L290.13,111.05L292.47,104.38L294.32,89.4L296.24,88.14L298.63,98.28L300.5,120.05L302.36,106.31L304.73,108.62L306.61,117.3L308.48,123.27L310.86,116.14L314.62,101.12L317,104.62L323.14,233.52L325.02,221.69L326.9,246.16L329.26,152.8L331.22,99.54L333.09,185.61L335.41,98.43L337.32,140.93L341.56,97.47L343.45,82.69L345.35,82.72L347.74,113.87L349.63,120.56L351.48,106.96L353.83,114.26L355.78,112.11L359.5,105.99L361.91,110.39L363.77,100.29L365.64,78.01L368.07,86.12L369.91,119.7L371.78,108.87L374.22,119.9L376.04,110.62L377.93,119.05L380.28,119.58L382.23,114.41L384.09,107.44L386.45,121.46L388.37,178.03L390.23,200.72L392.58,195.27L394.48,217.85L396.35,235.37L398.7,238.08L400.59,224.1L402.56,178.59L404.86,148.11L406.73,180.4L408.62,132.17L411.06,117.93L412.94,101.58L414.82,76.03L420.91,111.14L423.27,96.8L425.19,87.91L427.08,85.42L431.35,96.93L433.2,88.44L435.57,114.19L437.45,98.11L439.38,102.11L441.75,122.32L443.61,98.67L445.48,84.51L447.91,97.33L449.81,114.01L451.67,114.78L454.04,112.58L455.91,89.25L457.83,112.02L459.66,133.07L462.08,87.54L463.96,106.31L465.86,136.1L468.2,114.28L470.05,131.18L474.37,74.67L476.26,73.97L478.08,78.85L480.46,78.11L482.41,85.87L484.21,97.26L486.57,87.07L488.46,86.4L490.34,141.94L492.79,128.27L496.5,206.48L498.88,215.92L502.7,205.84L505.08,160.38L506.94,112.43L508.82,139.74L511.13,144.37L513.03,114.22L517.28,77.06L519.18,106.28L521.14,103.93L523.47,65.98L525.37,108.01L527.23,78.57L529.64,131.75L531.54,133.93L533.37,145.21L535.7,96.48L537.64,135.04L539.47,147.53L541.87,137.28L543.74,116.72L545.66,66.31L548.08,160.6L549.87,219.09L551.76,231.46L554.16,245.5L556.08,235.19L557.95,243.73L560.26,218.19L562.15,210.05L564.05,178.74L565.95,166.52L568.34,145.3L570.18,145.57L572.11,125.53L574.51,94.17L576.36,94.94L578.24,85.42L580.63,84.4L582.55,63.96L584.45,81.83L586.71,93L588.62,78.78L590.56,111.55L592.98,112.04L594.77,115.31L596.72,111.2L599.04,116.58L600.99,109.71L602.89,106.9L605.13,124.94L607.04,110.25L608.98,117.26L613.25,84.02L615.06,55.56L619.32,113.27L621.28,159.89L623.57,173.3L625.45,192.28L627.39,191.85L629.71,247.21L631.59,232.27L633.5,233.2L635.88,215.77L637.8,138.56L639.65,156.16L642.05,132.76L643.96,136.56L645.8,135.44L648.18,105.14L650.04,103.01L651.95,117.91L654.31,169.36L656.17,192.16L658.12,162.84L660.45,148.81L662.35,111.45L664.21,123.21L666.08,112.99L668.45,68.14L670.35,97.24L672.33,103.52L674.62,86.19L676.55,120.82L678.4,134.18L680.83,132.23L682.69,122.27L684.53,118.65L686.87,115.8L688.85,129.42L690.73,102.86L693.02,139.16L694.92,119.34L696.91,126.33L699.18,113.63L701.1,99.39L702.95,79.81L705.29,111.51L707.23,178.43L709.08,101.02L711.54,100.31L713.43,75.99L715.24,82.71L719.55,64.27L721.43,92.45L723.8,136.08L725.6,111.55L727.49,86.89L729.86,114.61L731.76,92.06L733.64,129.15L736.01,169.54L737.88,163.58L739.81,101.02L742.21,96.01L744.03,107.03L745.94,101.28L748.3,122.27L750.24,113.57L752.08,102.63L754.45,97.36L756.35,102.51L758.19,135.09L760.66,94.28L762.46,109.62L764.35,116.82L766.25,151.65L770.51,200.95L772.51,182.9L774.79,174.25L776.7,100.49L778.59,69.27L780.87,62.77L782.82,94.74L784.71,106.94L787.05,89.95L788.92,147.63L790.82,142.34L793.19,170.83L795.07,152.88L796.93,101.82L799.33,93.2L801.17,82.62L803.07,104.66L805.44,90.34L807.39,83.73L809.3,101.25L811.62,108.22L813.54,91.12L815.39,133.02L817.73,97.75L819.7,76.72L821.54,78.54L823.97,93.01L825.82,93.02L827.71,85.5L830,94.17L831.93,72.85L833.79,64.49L836.17,111.86L838.06,102.67L839.93,93.53L842.33,92.83L844.23,100.31L846.1,67.95L848.45,114.1L850.4,107.82L852.28,71.82L854.62,77.77L856.52,84.81L858.43,77.36L862.69,107.65L864.52,86.31L866.94,125.73L868.8,113.87L870.7,140.57L872.58,112.36L874.96,117.44L876.83,67.43L881.07,81.35L882.93,78.89L884.89,74.54L887.21,94.94L889.07,88.12L891,61.41L893.36,94.43L895.24,148.13L897.13,183.09L899.48,138.7L901.42,151.45L903.22,131.29L905.58,151.8L907.55,91.12L909.4,96.71L911.71,90.97L913.61,109.14L915.52,101.59L917.88,94.1L919.87,105.71L921.68,90.21L923.99,55.09L925.97,81.11L927.82,121.52L930.19,135.23L932.07,90.43L933.97,73.09L936.32,67.6L938.25,143.03L940.11,139.65L942.5,120.58L944.35,152.4L946.29,186.72L948.6,186.46L950.47,155.89L952.36,152.36L954.75,150.45L956.63,132.94L958.52,103.39L960.85,105.76L962.75,71.51L964.74,97.02L967.05,59.39L968.98,120.2L970.89,106.46L972.71,63.78L975.06,55L976.97,80.12L978.82,68.57L981.22,87.19L983.11,100.21L985.02,81.13L987.34,89.04L989.24,77.35L991.13,97.4L993.56,80.86L995.37,83.94L997.28,80.89L999.59,59.72L1001.53,78.24L1003.36,40.63L1005.77,53.77L1007.65,58.43L1009.55,82.6L1011.87,126.52L1013.83,145.33L1015.75,241.21L1018,92.43L1019.9,72.58" style="vector-effect: none; fill: none; stroke: rgb(124, 181, 236); stroke-opacity: 1; stroke-width: 2px; opacity: 1;"/></g><g class="points"/><g class="text"/></g><g class="trace scatter trace8bc1eb" style="stroke-miterlimit: 2; opacity: 1;"><g class="fills"/><g class="errorbars"/><g class="lines"><path class="js-line" d="M0,183.59L1.92,150.69L4.25,168.41L6.15,164.35L8.04,147.19L10.42,150.81L12.31,145.83L14.18,158.24L16.53,155.01L18.43,145.04L20.32,140.41L22.69,149.73L24.59,144.73L26.48,123.34L28.81,129.12L30.71,129.21L32.62,132.02L35,123.85L36.88,111.79L38.74,104.53L41.12,88.13L43.05,53.95L44.87,102.85L47.29,54.8L49.13,63.7L55.3,120.83L57.16,123L59.07,150.53L61.42,103.26L63.37,84.33L65.22,80.45L67.57,141.58L69.47,58.84L71.4,66.68L73.72,80.7L75.59,78.44L77.51,196.96L79.85,73.18L81.76,96L83.63,77.13L86,99.92L87.9,111.99L89.79,102.52L92.13,117.23L94.02,200.3L95.9,187.33L98.29,115.2L100.16,116.56L102.11,98.38L104.46,109.13L106.29,94.79L108.22,124.37L110.57,132.34L114.4,95.98L116.73,99.71L118.58,72.17L120.47,96.42L122.85,88.31L124.71,94.65L126.65,103.5L129.01,216.42L130.89,180.36L132.75,167.03L135.14,82.69L137.01,109.87L141.27,90.61L143.16,98.03L145.08,123.27L147.4,106.06L149.32,103.71L151.22,110.73L153.07,110.36L155.43,135.16L159.2,122.07L161.57,105.66L163.48,110.32L165.34,73.4L169.64,99.99L171.55,144.04L173.9,114.47L175.75,134.7L177.64,110.37L180,65.25L181.93,94.93L183.84,107.21L186.14,146.56L188.06,111.08L189.92,101.85L192.28,145L196.07,130.67L198.42,113.13L200.33,99.74L202.2,241.94L204.57,265.38L206.45,261.98L210.7,175.73L212.58,194.2L214.5,123.92L216.87,117.3L218.77,151.86L220.64,139.78L224.9,84.51L226.75,112.61L229.17,108.74L231.01,87.03L232.89,72.27L235.27,90.8L237.16,83.98L239.07,86.64L241.39,126.21L243.32,109.82L245.3,115.84L247.58,101.63L249.47,98.8L251.32,168.96L253.69,117.63L255.56,149.17L257.5,115.31L259.37,97.68L261.71,124.04L263.68,100.39L265.54,102.66L267.88,108.7L269.81,102.48L271.68,99.28L274,85.91L275.93,110.15L277.76,125.21L280.16,130.34L283.92,116.73L286.33,99.41L288.16,120.66L290.08,115.27L292.42,88.87L294.36,115.56L296.19,189.1L298.57,227.02L300.45,260.91L302.33,232.49L304.71,247.02L306.62,235.42L308.59,100.14L310.85,120.86L312.75,156.69L314.67,123.85L317.05,93.73L318.93,101.13L320.83,88.76L323.18,103.47L325.01,103.59L326.94,118.48L329.32,125.43L331.17,116.29L333.06,103.3L335.42,104.43L337.33,108.36L339.19,95.95L341.58,115.5L343.46,106.79L345.38,88.12L347.75,104.84L349.6,134.21L351.49,117.75L355.73,99.14L357.62,107.2L359.54,108.36L361.91,101.37L363.8,106.17L365.67,144.86L368.08,217.61L369.93,243.7L371.82,254.69L374.13,246.72L376.03,240.11L377.96,190.36L380.29,173.61L382.17,150.65L384.1,106.17L386.5,117.52L388.33,156.19L390.25,119.31L392.66,80.96L394.54,65.05L396.35,80.99L398.77,94.72L400.64,93.57L402.48,105.96L404.85,94.9L406.78,90.06L408.65,94.49L411.05,106.81L412.89,113.43L414.78,98.03L417.24,121.39L419.01,112.65L420.9,89.12L423.28,77.17L425.24,92.69L427.1,87.87L429.42,95.78L431.33,113.63L435.59,78.68L437.46,130.66L439.33,79.84L441.78,136.28L443.58,152.02L445.48,144.7L447.85,128.99L449.76,102.35L451.63,101.79L453.97,106.5L455.91,87.91L457.78,104.39L459.64,115.24L462,97.99L463.92,99L465.78,151.44L468.17,114.22L470.05,171.2L471.99,194.87L474.3,183.58L478.07,191.01L480.43,173.35L482.31,116.94L484.22,148.52L486.59,116.47L488.49,134.79L490.36,142.07L492.75,104.28L494.6,97.85L496.5,88.2L498.91,95.7L500.77,106.96L502.63,101.12L505.09,164.33L506.91,126.16L508.77,106.61L511.19,123.38L513.05,193.66L514.99,157.11L517.29,208.94L519.16,160.43L521.05,149.64L523.49,227.11L525.3,253.41L527.19,248.15L529.55,256.66L533.39,234.36L535.69,237.61L537.63,182.01L539.56,169.74L541.89,178.24L543.73,161.87L545.63,127.31L548,100.38L549.95,99.19L551.77,112.5L554.2,80.12L556.05,72.63L557.94,87.67L560.32,91.53L562.16,96.63L564.08,125.32L566.01,103.34L568.33,88.59L570.23,128.69L572.17,109.14L576.34,81.13L578.26,109.75L580.68,149.31L582.52,122.22L586.79,100.05L588.69,110.24L590.56,108.15L592.89,113.56L594.78,131.14L596.65,199.7L599,204.01L600.95,221.59L602.77,217.28L605.15,157.19L607.05,200.95L608.95,210.22L611.31,185.34L613.19,137.4L615.08,189.24L617.49,110.32L619.33,105.58L621.21,124.37L623.59,190.34L625.48,164.36L627.42,115.7L629.75,110.37L633.52,218.77L635.87,234.49L637.73,207.8L639.66,205.61L642,117.88L643.93,146.85L645.78,104.47L648.17,96.71L650.1,73.93L651.96,81.83L654.29,116.86L656.22,128.68L658.09,135.26L660.42,128.12L664.26,87.04L666.12,127.48L668.55,160.55L670.34,135.72L672.23,132.92L674.62,103.12L676.56,92.23L678.36,88.51L680.73,88.9L682.7,99.65L684.55,143.56L686.94,150.01L690.65,73.79L693.09,62.69L694.9,102.24L696.85,84.68L701.05,95.64L703.01,117.52L705.29,132.17L707.23,169.42L709.08,155L711.48,166.6L713.38,154.61L715.23,102.82L717.58,89.73L719.45,97.01L721.44,90.13L723.78,91.75L725.61,86.04L727.53,123.36L729.85,100.11L731.83,126.87L736.07,109.53L737.93,106.15L739.82,126.62L742.23,112.96L744.04,73.83L745.94,164.46L748.29,199.82L750.19,183.38L752.05,161.25L754.46,149.42L756.34,147.94L758.28,108.96L760.6,75.37L762.51,104.05L764.34,157.04L766.29,151.77L768.64,159.32L770.51,185.29L774.78,77.57L776.68,76.3L778.58,121.43L780.94,113.88L782.84,93.73L784.79,98.5L787.07,98.78L788.9,121.84L790.85,118.45L793.24,132.32L795.13,106.59L796.92,97.01L799.33,89.78L801.23,123.54L803.09,103.97L805.43,96.49L807.39,113.53L809.34,103.9L813.52,70.11L815.36,76.96L817.82,96.76L819.6,90.9L821.5,96.63L823.9,94.34L825.77,61.15L827.64,96.66L830,74.22L831.93,114.67L833.79,98.29L836.23,97.06L838.04,103.76L840.03,77.19L842.32,84.59L844.22,179.24L846.18,114.01L848.49,116.16L850.43,158.18L852.2,161.13L854.56,85.74L856.55,77.48L858.34,83.56L860.72,111.03L862.59,80.69L864.55,85.42L868.83,159.76L870.69,134.43L872.58,121.12L874.9,114.75L876.82,124.29L878.73,68.79L881.01,93.76L882.98,82.31L884.79,67.09L887.15,78.36L889.07,63.61L890.95,88.28L893.31,117.49L895.19,90.79L897.14,65.06L899.55,67.24L901.35,68.57L903.3,83.57L905.67,156.69L907.57,125.6L909.35,98.16L911.81,79.5L913.64,98.21L915.58,157.65L917.93,139.48L919.75,174.18L921.67,148.64L924.06,135.35L927.88,124.44L930.18,155.85L932.04,84.86L933.97,82.58L936.31,84.16L938.18,72.08L940.07,97.85L942.51,80.99L944.35,86L946.2,112.68L948.67,64.49L950.48,104.59L952.47,88.2L954.78,104.79L956.73,62.85L958.6,61.27L960.87,78.54L962.85,76.66L964.69,98.16L967.01,109.49L968.9,112.54L970.84,123.21L972.69,104.62L975.05,119.35L976.98,97.71L978.85,101.59L981.25,94.39L983.14,102.77L984.93,102.86L987.38,101.93L989.26,81.7L991.11,83.87L993.49,76.3L995.36,65.41L997.27,49.67L999.62,48.53L1001.51,43.79L1003.42,71.34L1005.8,36.8L1007.67,49.7L1009.54,60.45L1011.92,79.59L1015.71,214.4L1018.06,117.49L1019.92,75.88" style="vector-effect: none; fill: none; stroke: rgb(67, 67, 72); stroke-opacity: 1; stroke-width: 2px; opacity: 1;"/></g><g class="points"/><g class="text"/></g><g class="trace scatter trace1fae5c" style="stroke-miterlimit: 2; opacity: 1;"><g class="fills"/><g class="errorbars"/><g class="lines"><path class="js-line" d="M0,163.22L1.89,168.21L4.26,149.69L6.14,167.4L8.03,148.29L12.3,152.74L14.2,151.03L16.56,147.19L18.43,146.87L20.32,146.56L22.7,138.26L24.6,134.96L26.48,123.83L28.84,128.56L30.72,125.35L34.98,111.35L36.85,101.29L38.75,114.89L41.11,120.88L43.04,80.97L44.92,75.42L47.28,85.68L49.14,69.14L51.02,73.2L52.91,66.07L55.27,83.47L57.17,79.14L59.05,85.62L61.43,124.6L63.33,130.89L65.25,66.79L67.61,93.61L69.47,87.93L71.38,74.29L73.73,67.53L75.59,80.58L77.51,73.65L79.86,94.96L81.74,153.64L83.64,182.51L86.01,81.94L87.89,107.62L89.76,77.68L92.15,111.18L94.04,94.81L98.28,111.08L100.16,170.13L102.06,216.53L104.43,95.94L108.21,114.36L110.58,80.67L112.48,105.64L114.33,179.52L116.71,114.44L118.6,84.83L120.5,92.12L122.86,96.22L124.72,91.18L126.63,89.76L129,76.25L130.86,84.16L132.77,95.2L135.11,225.3L137.03,218.35L138.91,177.63L141.26,75.14L143.15,122.03L145.04,93.19L147.44,96.31L149.32,121.81L151.17,112.17L153.08,80.02L155.43,135.13L159.2,126.5L161.56,179.33L165.37,96.89L167.75,100.52L169.63,111.94L171.52,71.19L177.65,123.47L179.99,129.92L181.91,125.75L183.8,107.89L186.14,72.59L188.06,104L189.92,99.49L192.27,156.73L194.21,104.67L196.11,107.25L198.45,125.4L200.33,107.71L202.19,121.45L204.55,116.91L206.48,108L208.35,269.01L210.7,281.25L212.59,254.86L214.5,218.25L216.84,204.01L220.67,106.36L223,168.28L224.93,140.66L226.77,145.59L229.21,100.96L231.05,111.88L232.9,114.47L235.31,103.18L237.19,92.33L239.06,73.82L241.45,76.22L243.32,104.23L245.24,90.71L247.6,118.93L251.37,94.66L253.72,104.7L255.56,99.46L257.47,157.59L259.36,133.15L261.7,128.46L263.65,130.97L265.58,101.82L269.8,131.49L271.66,123.32L274.02,117.7L275.89,108.72L277.8,107.21L280.23,89.78L283.96,141.23L286.29,127.94L288.16,127.23L290.11,113.29L292.42,111.12L294.31,131.3L296.21,101.54L298.58,85.53L300.54,91.46L302.37,182.31L306.62,250.06L308.5,260.74L312.73,222.55L314.69,119.4L317,147.47L318.88,181.08L320.8,120.42L323.15,109.87L325.03,93.84L326.96,93.96L329.32,109.8L331.22,109.5L333.05,133.27L335.42,122.52L337.29,123.22L339.21,106.78L341.54,109.5L343.53,119.95L345.39,116.97L347.73,94.06L349.64,110.43L351.51,100.14L353.87,112.15L355.75,91.82L357.6,114.26L359.51,126.28L361.87,112.72L363.78,116.38L365.66,121.7L368.02,105.79L369.93,117.96L371.8,154.34L376.05,230.43L377.93,261.91L380.29,252.75L382.16,248.89L384.07,231.64L386.45,177.39L388.38,177.34L390.22,144.78L392.63,104.56L394.56,140.22L396.43,99.79L398.79,78.18L400.64,88.2L402.49,89.25L404.84,102.27L406.74,90.21L408.68,105.28L411.02,75.67L412.92,84.47L414.8,89.48L417.15,126.63L419.12,96.32L425.18,127.99L427.07,74.47L429.45,82.05L431.31,107.34L433.21,104.97L435.54,98.67L437.44,107.41L439.32,83.75L441.71,88.23L443.67,102.73L445.55,135.37L447.91,144.51L449.79,143.34L451.63,137.83L454.01,108.83L455.9,75.42L457.75,84.74L459.65,101.23L462.04,106.46L463.95,107.05L465.78,91.8L468.15,79.3L470.07,110.7L471.93,125.37L474.33,107.94L476.25,186.47L478.06,189.49L480.47,212.95L482.31,214.28L484.25,192.23L488.45,109.07L490.44,126.27L492.71,141.58L494.59,131.44L496.49,134.88L498.89,90.6L500.78,118.02L502.7,90.79L504.99,87.67L506.93,90.27L511.17,182.53L513.07,124.69L514.92,127.99L517.3,176.78L519.16,163.3L521.06,155.4L523.44,153.83L525.39,139.42L527.28,140.64L529.63,217.48L531.47,228.96L533.33,250.71L535.71,258.23L537.64,258.08L541.84,207.29L543.78,193.24L545.66,168.51L548.05,168.84L551.81,130.26L554.2,142.58L556.1,103.47L557.9,94.2L560.34,64.92L562.18,83.03L564.08,101.44L566,71.6L568.29,119.35L570.21,109.45L572.13,87.32L574.51,101.37L578.22,66.2L580.63,113.8L582.58,119.5L584.38,144.04L586.73,154.23L588.7,136.04L590.52,108.7L592.86,107.69L594.74,153.67L596.69,61.94L600.99,181.8L602.8,138.77L605.14,239.09L607.09,210.2L608.94,230.49L611.31,213.22L613.21,194.42L615.06,212.76L617.52,208.57L619.36,181.83L623.56,138.14L625.51,152.19L627.45,197.4L629.73,147L631.59,125.6L633.53,117.77L635.9,201L637.73,229.87L639.64,248.77L642.01,232.21L643.91,218.96L645.78,129.86L648.13,153.7L650.12,121.32L651.94,101.72L654.27,95.29L656.24,84.11L658.14,104.31L660.44,148.79L662.3,124.83L664.24,141.82L666.14,110.82L668.47,106.64L670.43,99.35L672.23,122.62L674.57,129.32L676.47,139.59L678.4,106.86L682.64,62.76L684.55,95.85L686.9,103.65L688.78,143.69L693,105.9L695,73.14L696.79,79.94L699.17,93.96L701.04,84.18L703.02,85.91L705.33,99.13L707.2,158.41L709.11,145.45L711.44,170.91L713.37,145.93L715.27,173.32L717.64,143.22L719.55,97.01L721.47,85.03L723.74,79.55L725.67,154.19L727.51,125.52L729.88,99.92L731.76,116.12L733.72,111.51L736.06,120.47L737.88,119.08L739.88,86.22L742.22,120.33L744.04,117.07L745.93,128.28L748.29,97.06L750.16,155.2L752.04,177.29L754.49,210.43L756.35,140.67L758.2,142.02L760.58,118.18L762.46,98.42L764.34,120.38L766.24,94.66L768.6,116.25L770.58,141.89L772.43,176.11L774.79,145.24L776.66,140.77L778.53,121.48L780.96,176.36L782.8,115.66L784.68,100.8L787.01,53.14L788.89,64.13L790.85,74.85L793.19,108.04L795.05,123.78L796.94,120.05L799.35,86.83L801.27,116.73L803.15,93.95L805.44,98.38L807.34,98.47L809.21,107.16L811.64,97.81L813.51,122.09L815.39,109.01L817.82,83.86L819.65,132.94L821.49,100.56L823.85,75.02L825.76,69.71L827.66,95.18L830.02,91.01L831.89,117.7L833.82,85.91L836.2,102.77L838.06,102.42L839.94,90.74L842.29,87.67L844.21,85.03L846.09,145.54L848.44,155.77L850.3,117.57L854.56,163.85L856.5,148.81L858.34,105.51L860.71,103.04L862.68,99.03L864.52,60.93L866.86,97.11L868.77,95.79L870.67,87.71L872.51,103.21L876.87,141.28L878.72,149.38L881.09,91.18L883,88.06L887.15,74.63L889.07,63.52L893.33,108.79L895.28,72.92L897.14,90.04L899.47,94.82L901.33,88.72L903.23,78.14L905.65,83.22L907.49,71.12L909.41,155.39L911.74,103.9L913.71,115.11L915.51,69.4L918.02,74.79L919.81,86.79L924.08,175.44L925.89,152.3L927.8,157.04L930.23,150.86L932.11,192.54L933.93,171.09L936.32,85.03L938.22,74.5L940.17,86.22L942.48,79.81L944.36,90.7L946.2,77.69L948.67,62.69L950.46,77.75L952.39,58.34L954.8,65.63L956.7,84.1L958.52,78.27L960.87,85.12L962.76,72.48L964.66,92.1L967.05,91.27L968.89,106.72L970.76,105.19L972.7,120.02L975.05,118.3L976.98,87.76L978.83,87.58L981.24,123.14L983.14,98.79L984.96,135.47L987.37,74.54L989.2,93.67L991.19,62.96L993.45,72.8L995.38,76.87L999.63,56.17L1001.49,28.41L1003.36,57.08L1005.77,30.39L1007.65,51.97L1009.5,46.62L1011.89,93.05L1013.76,42.05L1015.66,197.57L1018.04,78.08L1019.9,52.3" style="vector-effect: none; fill: none; stroke: rgb(144, 237, 125); stroke-opacity: 1; stroke-width: 2px; opacity: 1;"/></g><g class="points"/><g class="text"/></g><g class="trace scatter trace0ea425" style="stroke-miterlimit: 2; opacity: 1;"><g class="fills"/><g class="errorbars"/><g class="lines"><path class="js-line" d="M0,149.84L1.92,157.92L4.25,155.18L6.17,163.54L8.07,154.01L12.3,147.5L14.17,144.61L16.57,144.38L18.44,141.54L20.33,148.6L22.7,150.26L26.47,133.47L28.85,131.03L30.72,134.72L32.61,134.98L36.88,109.4L38.76,117.85L41.12,101.41L42.99,78.79L44.88,70.81L47.29,105.17L49.15,87.21L51.07,81.1L52.91,82.11L55.31,80.53L57.16,71.1L59.08,73.2L61.41,86.59L63.33,140.43L65.26,89.34L67.61,77.88L69.45,81.13L71.34,155.68L73.72,45.23L75.65,72.89L77.54,79.38L79.85,110.38L81.75,100.39L83.61,205.41L86.03,76.9L87.9,90.8L89.79,91.62L92.19,79.97L94.01,119.01L95.96,103.14L98.29,98.91L100.2,121.99L102.11,206.78L104.44,181.61L106.29,84.66L108.21,115.94L110.58,92.62L112.46,145.4L114.34,133.15L116.71,144.04L118.59,141.74L120.47,68.78L122.88,113.66L124.76,103.8L126.62,103.47L128.97,108.49L130.87,91.94L132.78,87.09L135.13,96.86L137.02,224.75L138.93,216.75L141.26,192.5L143.14,118.83L145.06,92.18L147.39,128.4L149.33,104.38L151.2,91.21L153.11,102.98L155.42,128.59L157.31,108.97L159.21,89.89L161.57,134.91L163.45,128.06L165.38,125.11L167.74,142.95L169.6,151.18L171.48,127.49L173.87,119.59L175.75,115.04L177.68,90.41L179.99,87.79L181.88,104L186.13,129.68L188.03,134.83L189.91,155.63L192.27,120.74L194.16,84.59L196.08,102.92L198.42,101.69L200.31,160L202.21,126.16L204.57,115.86L206.51,93.84L208.37,118.69L210.69,124.04L212.61,140.79L214.48,140.02L216.89,111.65L218.74,105.38L220.62,287.19L226.82,215.46L229.13,153.96L231.07,138.69L232.91,181.3L235.29,116.91L237.16,107.51L239.08,105.13L241.44,137.79L243.3,145.87L245.22,114.98L247.62,93.77L249.47,100.24L251.32,72.18L253.72,102.24L255.64,95.57L257.53,95.63L261.71,126.17L263.6,119.54L265.55,113.94L267.87,121.45L269.77,107.94L271.71,133.53L274.05,172.02L275.91,131.05L277.78,112.05L280.14,116.35L282.03,123.85L283.92,136.79L288.22,99.01L290.13,91.95L294.32,121.94L296.19,124.2L298.58,125.45L300.49,93.99L302.4,130.47L304.72,136.67L306.62,126.7L308.49,103.89L310.92,101.61L312.75,96.87L314.67,175.83L317.01,223.43L318.86,246.51L320.75,238.55L323.14,246.14L325.02,226.41L326.98,114.93L329.28,166.03L331.15,195.47L333.15,105.54L335.48,155.59L337.33,107.78L339.26,106.6L341.61,78.18L345.35,135.51L347.69,116.14L349.57,122.5L351.49,126.01L353.86,121.04L355.75,124.32L357.64,90.08L359.54,116.89L361.88,93.22L363.74,123.47L365.73,110.5L368,101.61L369.94,99.08L371.83,109.36L374.17,113.62L376.05,136.14L380.28,88.65L382.16,151.77L384.12,151.07L386.42,219.44L388.35,204.03L390.23,206.1L394.48,251.46L396.37,241.77L400.63,179.3L402.52,200.79L404.85,209.78L406.74,139.21L408.65,148.69L411.04,117.63L412.89,85.56L414.81,109.3L417.18,90.87L419.12,109.62L420.97,76.29L423.33,94.34L425.24,119.54L427.13,99.79L429.41,121.91L431.33,110.67L433.24,105.79L435.6,130.67L437.46,149.94L439.37,110.39L441.69,101.81L443.59,76.15L445.58,113.02L447.85,128.71L449.77,77L451.68,112.5L453.98,106.06L455.86,127.92L457.8,99.44L459.64,123.04L462.1,145.49L463.94,118.98L465.82,128.98L468.18,119.63L470.13,88.46L471.98,109.13L474.31,109.34L476.23,106.33L478.06,97.82L480.46,108.66L482.42,94.3L484.23,95.97L486.62,125.78L488.53,131.55L490.38,152.58L492.74,192.05L494.6,223.73L496.51,231.72L498.88,220.89L500.8,156.81L502.63,122.93L505.02,155.84L506.91,149.93L508.82,137.31L511.2,79.9L513.07,72.04L514.91,118.16L517.31,93.17L519.16,97.24L521.06,99.39L525.35,175.53L527.2,155.49L529.62,116.73L531.52,162.31L533.33,196.5L535.69,180.51L537.64,151.84L539.47,105.05L541.9,110.57L543.78,209.59L545.64,227.09L548.02,236.3L549.87,239.8L551.76,247.79L554.11,212.68L556.02,236.2L557.94,216.78L560.29,171.24L562.17,192.47L564.07,179.19L565.93,200.79L568.3,154.88L570.28,106.72L572.15,84.55L574.47,75.73L576.35,85.18L578.24,67.52L580.66,113.09L582.5,81.98L584.35,104.77L586.79,95.62L588.63,120.6L590.61,89.83L592.86,90.83L594.76,109.52L596.67,108.54L599.02,149.03L600.95,156.38L602.8,131.5L605.26,127.32L607.13,111.38L608.95,129.78L611.33,125.52L613.18,128.94L615.06,135.64L617.41,151.07L619.33,239.11L621.22,226.06L623.65,204.34L625.45,244.75L627.4,241.79L629.75,228.74L633.54,156.06L635.93,168.49L639.63,123.28L641.98,148.63L643.87,138.01L645.85,138.6L648.15,145.41L650.02,229.55L651.94,243.84L654.29,228.72L660.43,194.37L662.35,176.22L664.2,115.56L666.11,102.53L668.43,115.5L670.4,85.21L672.27,122.57L674.67,135.53L676.5,146.78L678.44,111.95L680.76,115.66L682.62,111.99L684.62,93.86L686.99,106.9L688.78,176.92L690.68,127.71L694.89,86.83L696.8,101.33L699.17,119.56L701.06,141.67L705.41,111.59L707.18,94.34L709.15,65.5L711.46,87.56L713.42,98.73L715.21,128.34L717.65,126.17L719.55,103.87L721.37,125.78L723.76,101.37L725.69,123.32L727.5,154.49L729.91,146.43L731.75,161.96L733.65,83.98L736.04,93.02L739.76,129.6L742.13,133.82L744.05,105.58L745.97,112.21L748.29,101.44L750.27,121.83L752.11,103.21L754.43,117.83L756.36,127.8L758.26,142.61L760.59,172.38L762.48,151.14L764.36,191.51L766.23,188.58L768.7,183.63L770.54,176.89L774.76,78.14L776.64,91.29L778.57,120.16L780.96,123.45L782.81,132.42L784.67,151.67L787,174.23L788.9,171.79L790.88,179.2L793.19,124.23L795.05,71.16L797.03,78.23L799.33,104.05L801.22,66.2L803.12,64.13L805.48,89.73L807.39,107.91L809.24,134.21L811.57,97.4L813.48,90.17L815.39,99.96L817.74,80.82L819.64,91.49L821.49,78.36L823.86,111.66L825.87,81.74L827.71,45.96L830.03,128.19L831.95,100.69L833.83,109.55L836.22,70.35L838.08,98.73L839.93,93.53L842.42,70.52L844.24,110.19L846.13,121.21L850.38,82.58L852.2,104.77L854.56,88.55L856.45,101.1L858.4,138.99L860.71,134L862.6,144.66L864.47,138.86L866.85,119.98L868.74,137.02L870.74,92.28L872.54,84.12L874.95,83.23L876.8,99.22L878.7,115.59L881.06,113.27L884.9,80.94L887.25,145.19L889.1,189.92L890.99,170.67L893.31,122.62L895.24,113.88L897.12,82.18L899.48,80.64L901.41,59.16L903.23,78.84L905.63,66.07L907.53,88.77L909.39,95.01L911.8,83.8L913.64,106.15L915.59,117.13L917.92,79.77L919.77,77.96L921.69,145.31L924.04,132.28L925.93,111.9L927.89,66.24L930.21,63.92L932.11,70.9L933.94,96.19L936.3,141.85L938.21,203.26L940.11,184.2L942.43,181.13L944.31,168.54L946.25,190.72L948.64,167.62L950.49,118.34L952.38,100.91L954.83,84.64L956.7,78.23L958.56,97.5L960.92,102.38L962.84,86.73L964.62,100.8L967.02,80.95L968.98,97.59L970.79,58.34L972.75,88.66L976.96,113.57L978.79,88.83L981.2,79.68L983.14,91.88L984.95,93.67L987.4,157.04L989.28,124.9L991.12,109.41L993.49,81.13L995.36,101.65L997.31,73.3L999.62,56.71L1001.5,51.24L1003.39,48.22L1005.76,22.44L1007.68,57.87L1009.54,43.67L1011.93,67.82L1013.82,74.5L1015.67,195.85L1018.04,52.37L1019.95,59.76" style="vector-effect: none; fill: none; stroke: rgb(247, 163, 92); stroke-opacity: 1; stroke-width: 2px; opacity: 1;"/></g><g class="points"/><g class="text"/></g><g class="trace scatter trace6681a1" style="stroke-miterlimit: 2; opacity: 1;"><g class="fills"/><g class="errorbars"/><g class="lines"><path class="js-line" d="M0,188.34L1.89,173.97L4.27,176.58L6.15,176.56L8.06,152.46L12.3,171.7L14.18,162.82L16.56,157.29L18.42,157.61L20.34,148.84L22.7,151.7L24.6,149.39L26.46,136.11L28.82,144.02L30.72,141.22L32.64,136.32L34.96,144.13L36.88,122.09L38.75,120.93L41.1,109.02L43.03,117.13L44.89,77.76L47.28,92.26L49.14,149.87L51.03,94.79L52.93,99.51L55.3,93.02L57.2,92.68L59.11,85.36L61.45,57.76L63.36,101.98L65.2,157.55L67.62,72.04L69.48,86.2L71.4,68.41L73.75,84.47L75.61,56.11L77.48,79.79L79.87,91.16L81.8,87.07L83.65,89.2L86,201.14L87.89,112.4L89.77,90.5L92.12,98.21L94.05,93.07L95.99,117.9L98.26,94.36L100.19,108.26L102.07,127.98L104.41,235L106.3,130.19L108.23,85.32L110.55,96.5L112.48,70.46L116.71,189.35L118.6,136.61L120.49,113.41L122.85,69.67L124.76,100.97L126.63,104.91L128.97,112.74L130.85,102.34L132.75,84.58L135.11,111.65L138.91,221.59L141.26,218.06L143.2,172.1L145.03,95.52L147.39,129.62L149.34,103.94L151.19,92.97L153.11,101.1L155.45,129.17L157.32,107.43L159.21,99.22L161.56,134.51L163.5,133.02L165.37,165.38L167.74,165.55L169.6,162.64L171.52,112.99L173.86,109.94L175.73,118.64L177.71,79.63L181.91,101.86L183.77,129.94L186.14,134.59L188.04,169.31L189.95,98.41L192.32,80.52L194.16,99.55L196.07,101.04L198.45,159.82L200.34,146.46L202.25,115.67L204.56,103.36L206.48,114.89L208.34,120.82L210.7,138L212.63,131.4L214.51,103.47L216.89,107.36L218.75,294.09L220.62,281.12L222.99,236.76L224.91,222.3L226.79,201.3L229.16,140.61L231.07,175.99L232.9,161.39L235.27,119.78L237.16,105.63L239.1,147.73L241.41,134.16L243.3,108.85L245.22,101.72L247.53,94.46L249.5,82.66L251.38,100.23L253.68,113.53L255.57,95.16L257.5,118.02L259.38,118.38L261.78,102.22L263.63,96.2L265.48,117.2L267.9,91.76L269.75,175.06L274.01,114.28L275.89,108.82L277.79,100.01L280.14,147.59L282.02,149.06L283.95,118.93L286.29,105.08L288.16,109.93L290.09,80.12L292.43,119.38L294.32,129.49L296.21,126.42L298.63,98.03L300.45,142.6L302.36,136.76L304.75,136.49L306.59,94.49L308.47,80.06L310.88,106L312.76,173.79L314.61,211.78L317,242.87L318.88,251.54L320.77,232.38L323.15,224.15L325.05,105.23L326.93,189.53L329.31,209.81L331.2,141.03L333.09,160.77L335.48,99.82L337.3,106.31L341.55,116.09L343.46,129.27L345.41,110.03L347.75,126.04L351.5,110.64L353.89,126.72L355.73,117.25L357.65,99.22L359.54,88.37L361.89,108.37L363.75,99.12L365.67,100.93L368.03,103.51L369.95,127.97L371.77,119L374.16,152.56L376.1,123.25L377.93,112.91L380.3,134.59L382.22,140.24L384.08,224.91L386.46,190.86L390.24,254.99L392.58,253.11L394.47,253.95L396.33,218.86L398.75,153.03L400.63,206.19L402.51,129.26L404.84,140.88L406.75,150.83L408.68,106.4L411.01,98.21L412.89,99.52L414.76,86.88L417.13,112.96L419.02,93.11L420.9,100.07L423.37,98.12L425.18,100.58L427.14,122.13L429.46,117.55L431.33,105.64L433.23,110.39L435.57,153.18L437.48,107.14L439.39,93.93L441.71,95.08L443.6,122.03L445.48,118.93L447.92,91.22L449.71,117.58L451.62,96.51L453.99,116.75L455.86,138.04L457.8,148.01L459.64,144.45L462.07,143.6L463.97,125.28L465.8,87.88L468.21,82.82L470.09,105.86L472.02,109.34L474.28,107.69L476.25,92.23L478.07,103.12L480.45,81.13L482.33,107.2L484.2,144.63L486.59,153.6L488.53,161.28L490.36,193.02L492.77,225.08L494.61,234.38L498.85,171.54L500.81,102.68L502.68,150.65L504.99,168.32L506.91,135.44L508.83,119.77L511.19,106.53L513.05,110.15L514.92,102.49L517.29,110.99L519.2,105.19L521.14,138.37L523.44,172.71L525.31,138.01L527.19,117.59L529.59,193.39L531.54,199.79L533.34,172.22L535.7,140.39L537.59,132.07L539.51,85.88L541.86,192.76L543.77,246.37L545.61,229.96L547.99,247.75L549.88,242L551.81,237.85L554.16,228.62L556,221.34L557.9,204.28L560.34,171.93L562.17,175.23L564.08,179.11L565.96,167.98L570.23,82.58L572.17,72.74L574.54,91.27L576.33,93.57L578.26,117.81L580.64,97.68L582.52,91.84L584.38,91.77L586.71,104.42L588.69,99.92L590.56,100.98L592.9,107.91L594.84,113.1L596.73,154.32L599.03,163.68L600.96,144.47L605.16,110.11L607.05,137.84L609,93.82L611.29,123.57L613.23,112.19L615.07,171.76L617.47,219.32L619.33,238.48L621.23,214.64L623.56,238.58L625.45,256.13L627.38,243.6L629.71,204.57L631.63,141.76L633.48,164.37L635.91,176.93L637.77,140.79L639.64,192.52L642.03,132.1L643.92,133.62L645.78,112.52L648.15,207.64L650.03,241.05L651.95,224.48L654.3,208.2L656.15,214.56L658.06,199.61L660.44,172.14L662.34,84.86L664.23,98.53L666.12,113.22L668.48,87.32L670.34,104.42L672.23,134.17L674.64,166.14L676.52,114.57L678.4,114.33L680.77,142.24L682.64,115.21L684.57,108.96L686.88,118.23L688.76,151.28L690.73,126.26L693.04,107.55L694.94,100.95L696.78,65.98L701.03,158.51L703.01,118.71L705.38,95.79L707.23,39.68L709.17,98.12L711.47,99.08L713.39,83.72L715.25,130.56L717.67,94.69L719.47,108.77L721.35,127.4L723.76,133.72L725.59,156.86L727.61,126.42L729.9,135.15L731.76,124.67L736.07,86.53L737.95,126.53L739.81,163.67L742.17,138.74L744.07,133.37L746.01,103.24L748.3,106.6L750.25,129.55L752.13,123.85L754.43,134.12L756.41,144.26L758.26,124.24L764.41,218.16L766.25,186.5L768.65,188.37L770.57,136.14L772.41,81.48L774.78,94.08L776.62,112.26L778.56,102.81L780.96,154.62L782.86,167.45L784.66,158.62L787.08,162.05L788.92,170.56L790.9,99.44L793.16,83.41L795.03,88.83L797.01,83.01L799.4,70.37L803.06,96.7L805.48,128.11L807.31,119.1L809.2,79.13L811.66,110.28L813.54,82.05L815.39,82.84L817.81,115.07L819.61,105.58L821.55,84.29L823.91,110.41L825.84,118.14L827.67,86.3L830,82.84L831.91,89.04L833.84,70.76L836.23,76.03L838.12,87.62L839.96,99.19L842.32,105.27L844.2,57.94L846.13,92.54L848.45,96.23L850.4,84.98L852.21,115.33L854.6,91.84L856.55,176.32L858.42,163.93L860.7,151.42L862.64,162.51L864.5,143.9L866.88,88.41L868.73,74.94L870.62,94.97L872.56,94.25L874.98,111.73L878.74,77.83L881.04,69.75L882.98,101.19L884.9,168.14L887.15,171.53L889.08,111.29L890.98,105.93L893.37,91.53L895.31,96.98L897.11,69.45L899.52,84.38L901.35,55.18L903.24,120.11L905.6,97.57L907.53,86.53L909.38,116.56L913.69,62.85L915.5,96.54L917.88,120.03L919.75,154.49L921.63,112.91L924.05,80.2L925.94,103.25L927.85,91.88L930.14,130.24L932.04,190.16L933.93,172.23L936.3,176.03L938.22,179.4L940.11,197.61L942.45,172.9L944.37,169.64L946.3,101.76L948.62,98.17L950.47,98.87L952.39,59.83L954.74,67.3L956.59,70.33L958.48,63.85L960.85,92.63L962.77,102.9L964.66,77.09L967.09,63.84L968.91,81.21L970.86,62.96L972.65,89.03L975.07,100.53L976.91,89.21L978.89,84.98L981.18,105.16L983.05,147.03L984.97,121.26L987.3,102.95L989.23,72.87L991.18,112.75L993.45,118.97L995.35,82.05L997.28,59.89L999.63,61.38L1001.51,42.33L1003.38,65.29L1005.73,32.15L1011.9,80.99L1013.79,76.25L1015.64,183.69L1018.02,68.98L1019.94,124.57" style="vector-effect: none; fill: none; stroke: rgb(128, 133, 233); stroke-opacity: 1; stroke-width: 2px; opacity: 1;"/></g><g class="points"/><g class="text"/></g><g class="trace scatter tracedb92ee" style="stroke-miterlimit: 2; opacity: 1;"><g class="fills"/><g class="errorbars"/><g class="lines"><path class="js-line" d="M0,172.9L1.9,164.02L4.26,171.27L6.18,187.53L8.06,168.41L10.39,169.2L12.29,173.47L14.19,159.92L16.55,156.69L20.31,150.49L22.7,150.54L24.56,143.56L26.48,128.37L28.83,128.53L30.73,135.16L34.97,125.06L36.85,122.78L41.15,113.18L43.02,71.41L44.89,76.34L47.29,94.1L49.16,145.41L51.02,98.91L52.92,82.5L55.3,90.13L57.18,95.71L59.09,68.8L61.45,66.04L63.3,98.76L65.22,151.24L67.62,66.52L71.39,109.8L73.7,73.24L75.6,80.29L77.54,74.41L79.88,111.7L81.8,107.4L83.65,106.55L85.99,208.83L87.86,86.97L89.8,88.44L92.19,87.92L94.04,81.54L95.9,114.3L98.31,109.8L100.18,91.97L102.09,115.92L104.41,229.34L106.35,104.26L108.19,107.98L110.54,96.88L112.44,80.03L114.35,118.05L116.71,205.63L118.65,138.34L120.48,90.7L122.85,89.54L124.74,101.59L126.62,101.56L128.97,109.33L130.91,91.01L132.75,72.19L135.13,103.67L137.05,184.74L138.92,204.97L141.25,192.76L143.16,98.66L147.43,118.56L149.35,99.19L151.25,103.88L153.12,105.97L155.46,110.15L157.32,92.99L159.21,118.11L161.59,134.79L163.45,147.31L165.39,144.48L167.74,149.9L169.64,135.72L171.54,96.89L173.84,110.76L175.77,81.14L177.62,85.71L183.79,137.7L186.14,175.87L188.08,101.57L189.9,75.61L192.3,99.99L194.17,100.76L196.07,147.2L198.42,146.01L200.31,123.91L202.18,114.59L204.58,112.75L206.47,121.84L208.36,131L210.7,126.21L212.62,96.89L214.56,106.2L216.87,289.41L218.77,257.52L220.63,211.8L222.99,220.79L226.78,132.78L229.15,171.73L231.01,128.43L232.92,120.69L235.28,95.67L237.2,138.93L239.07,127.41L241.43,92.79L243.31,93.9L245.2,78.54L247.59,82.65L249.5,116.44L251.38,96.98L253.71,122.71L255.67,116.61L257.46,105.7L259.35,100.86L261.73,129.99L263.6,83.38L265.49,164.63L267.9,164.59L269.75,119.81L271.65,115.11L274.01,99.03L275.89,141.63L277.8,145.65L280.18,137.75L282.07,103.75L283.94,108.9L286.29,92.06L288.2,133.21L290.12,141.41L292.41,111.85L294.35,117.93L296.21,132.22L298.61,140.51L300.48,148.76L302.42,89.46L304.7,86.82L306.61,122.69L310.85,224.22L312.76,246.99L314.64,249.94L316.99,244.26L318.91,232.41L320.8,96.74L323.17,203.65L325.03,187.67L326.92,175.61L329.27,113.34L331.18,100.56L333.06,103.68L335.42,102.07L337.28,122.71L339.19,139.95L341.54,100.66L343.44,124.67L345.33,118.73L347.71,96.95L349.65,118.53L351.48,131.05L353.9,93.95L355.76,101.54L357.63,96.22L359.51,107.3L361.87,84.82L363.75,122.65L365.7,102.03L368.02,129.54L369.91,104.33L371.79,132.13L374.13,114.28L376.03,116.68L377.98,152.44L380.31,218.6L382.19,214.58L384.12,236.09L386.47,243.48L388.33,250.7L390.25,246.52L392.58,183.03L394.49,183.25L396.38,187.63L398.7,144.75L402.51,135.92L404.84,81.63L406.8,104.65L408.7,92.89L411.06,100.84L412.88,102.27L414.81,85.17L417.13,94.76L419.07,95.08L421,104.09L423.32,129.5L425.18,120.14L427.14,106.15L429.43,133.78L431.35,130.42L433.19,92.91L437.45,84.42L439.37,112.23L441.71,114.36L443.66,103.62L445.5,98.77L447.85,105.62L449.8,110.96L451.62,144.97L454.02,145.2L455.89,154.05L457.81,147.1L459.68,128.89L462.02,86.23L463.89,83.87L465.83,102.95L468.17,109.23L470.03,112.4L471.98,99.26L474.34,105.85L476.2,97.64L480.51,165.54L482.36,160.48L484.2,197.96L486.57,199.52L488.45,224.25L490.34,221.79L492.72,196.03L494.6,136.55L496.48,119.25L498.85,132.53L500.81,174.75L502.64,129.72L505.04,104.63L506.92,101.28L511.19,83.89L513.02,117.24L514.9,115.91L517.33,179.84L519.19,161.61L521.06,115.63L523.47,152.03L525.34,212.64L529.58,134.53L531.51,142.78L533.4,78.97L535.7,182.71L537.62,249.48L539.53,238.4L541.89,241.59L543.77,247.77L545.66,262.4L547.99,227.11L549.86,228.67L551.75,216.75L556.04,152.65L557.96,174.45L560.26,158.44L562.17,116.61L565.93,63.68L568.34,66.46L570.24,87.25L572.11,98.95L574.49,108.22L576.32,86.23L578.27,94.39L580.59,108.04L582.53,135.66L584.43,73.79L586.79,114.36L588.64,118.26L592.9,159.67L594.74,125.39L596.69,131.68L599.01,126.22L600.96,108.15L602.77,122.86L605.15,102.42L607.05,128.54L611.29,219.77L613.21,219.98L615.08,234.61L617.43,232.17L619.38,161.08L621.27,252.89L623.6,238.88L625.46,187.12L627.38,175.6L629.71,168.69L633.49,135.09L635.85,174.39L637.73,136.84L639.64,130.75L642.05,134.35L643.88,205.09L645.82,255.97L648.16,210.75L650.01,233.73L651.91,209.95L654.3,160.1L656.2,187.77L658.12,110.81L660.46,107.21L662.36,102.95L664.25,87.14L666.1,106.67L668.45,141.87L670.38,151.57L672.23,125.05L674.61,122.58L676.46,93.53L678.46,127.08L680.75,99.72L682.65,136.46L684.51,154.18L686.85,111.38L688.88,92.59L690.7,82.97L693.05,91.46L694.97,149L696.81,120.77L699.19,129.36L701.03,91.6L703,91.71L705.34,109.8L707.27,93.77L709.1,102.19L711.42,104.13L713.4,112.69L715.23,150.47L717.65,128.41L719.53,164.49L721.38,161.75L723.72,157.74L725.67,134.3L729.84,80.61L731.78,105.76L733.71,133.42L736.09,122.05L737.88,110.28L739.8,83.37L742.21,115.11L744.02,92.06L745.97,117.44L748.29,118.54L750.19,113.75L752.06,146.61L754.51,130.91L756.3,136.63L760.57,222.02L762.5,216.4L764.45,191.15L766.28,148.92L768.67,93.02L770.51,97.11L772.42,112.69L774.78,89.69L778.58,163.15L780.93,173.79L782.8,156.51L784.69,183.07L788.92,80.92L790.78,78.99L793.17,92.52L795.05,37.88L799.29,111.83L801.25,107.51L803.06,116.15L805.44,133.86L807.34,78.61L809.26,100.14L811.57,102.63L813.46,89.71L815.42,108.79L817.73,101.86L819.62,92.16L821.58,98.86L823.89,122.23L825.79,95.4L827.69,104.74L830.12,105.23L831.96,100.38L833.78,72.87L836.14,82.79L838.07,101.28L840.02,122.22L842.39,56.41L844.21,91.44L846.12,106.37L848.49,90.21L850.33,99.04L852.3,100.2L854.58,151.31L856.52,155.85L858.41,153.62L860.78,125.25L862.61,168.1L864.54,112.19L866.86,87.23L868.77,83.19L870.64,76.69L872.54,87.23L874.89,106.57L876.86,107.78L878.74,91.71L882.92,159.99L884.81,159.37L887.22,107.6L889.16,87.08L891.06,91.01L893.31,100.43L895.23,59.74L897.1,79.28L899.55,68.66L901.32,80.56L903.27,105.49L905.64,76.16L907.5,77.8L909.45,99.39L911.81,88.2L913.65,102.55L915.61,113.66L917.92,161.04L919.83,94.43L921.69,68.45L924.08,86.66L925.97,90.07L930.15,158.42L932.1,139.57L933.99,136.18L936.31,177L938.21,210.14L940.12,176.71L944.37,87.58L946.29,90.79L948.65,75.77L950.57,82.75L952.39,83.06L954.7,79.59L956.71,80L958.52,99.92L960.92,87.76L962.77,84.55L964.71,66.29L966.98,72.53L968.87,110.89L970.88,114.36L972.73,111.29L975.12,93.52L977,95.26L978.9,104.11L981.19,148.89L983.14,126.53L984.96,90L987.33,115.04L989.3,72.65L991.16,101.15L993.44,99.05L995.34,72.25L997.26,77.07L999.62,59.87L1001.51,54.01L1003.41,72.31L1005.75,34.25L1007.66,31.76L1009.53,48.27L1011.89,55.94L1013.76,55.79L1015.73,171.85L1018.04,57.9L1019.92,131.5" style="vector-effect: none; fill: none; stroke: rgb(241, 92, 128); stroke-opacity: 1; stroke-width: 2px; opacity: 1;"/></g><g class="points"/><g class="text"/></g><g class="trace scatter trace91cabe" style="stroke-miterlimit: 2; opacity: 1;"><g class="fills"/><g class="errorbars"/><g class="lines"><path class="js-line" d="M0,179.43L1.9,167.19L4.26,170.85L6.15,163.6L8.06,150.42L10.41,166.85L12.28,160.35L14.19,151.7L16.56,153.42L18.42,151.16L20.33,140.97L24.6,138.86L26.47,125.99L28.82,123.1L30.73,131.57L34.98,122.2L36.86,115.47L38.75,109.94L41.15,117.97L43,90.15L44.89,77.54L47.27,118.13L49.15,86.01L51.04,76.92L52.92,91.95L55.3,66.56L57.17,64.18L61.42,90.9L63.3,149.72L65.23,79.16L67.61,77.7L69.46,78.07L71.39,89.01L73.7,59.19L75.63,92L77.55,82.72L79.9,92.21L83.63,194.9L85.99,84.95L87.93,99.38L89.8,83.68L92.15,99.49L94.03,104.2L95.93,116.79L98.28,109.09L100.15,112.92L102.06,217.02L104.4,125.93L106.33,93.82L108.21,126.42L110.57,70.9L114.36,176.07L116.76,134.59L118.59,102.29L120.54,106.64L122.88,104.13L124.79,72.74L126.6,101.29L129.02,86.88L130.87,91.75L132.8,99.96L135.13,230.06L137.02,220.49L138.9,190.76L141.32,85.85L143.2,121.36L145.08,113.99L147.46,93.5L149.28,109.19L151.2,119.67L153.1,109.12L155.45,81.45L157.38,133.51L159.24,127.46L161.58,151.38L165.38,150.58L167.71,137.9L169.66,101.92L171.52,122.03L173.87,80.76L175.79,82.3L179.99,129.49L181.92,124.82L183.81,131.4L186.15,109.09L188.04,108.77L189.92,84.06L192.31,108.74L194.16,96.32L196.04,169L198.44,105.03L200.3,114.11L202.2,87.26L204.58,118.6L206.44,126.13L208.39,130.44L210.69,103.12L212.58,168.87L214.47,285.38L216.86,281.62L218.75,241.16L220.64,197.19L222.97,201.38L224.96,142.46L226.76,130.92L229.14,175.86L231.01,132.28L232.95,115.53L235.27,151.04L237.14,122.13L239.05,119.57L245.18,73.52L247.6,107.86L249.49,112.2L251.37,99.03L253.68,130.85L255.64,109.94L257.5,94.24L259.41,99.35L261.72,126.13L263.66,92.38L265.49,149.55L267.9,146.9L269.74,133.05L271.63,100.08L274.04,119.89L275.89,147.61L277.77,143.06L280.14,122.57L282.04,101.19L283.93,117.59L286.3,86.67L288.16,114.21L290.05,128.89L292.45,127.49L294.32,124.96L296.23,129L300.46,142.35L302.39,115.45L304.74,79.55L306.66,91.88L308.5,174.76L310.83,222.14L314.62,259.48L317.04,229.05L318.87,248.58L320.8,149.84L323.16,176.39L325.03,211.11L326.93,151.92L329.28,165.09L331.21,114.47L333.06,102.81L335.45,91.15L337.32,105.73L339.26,127.08L341.59,125.28L343.45,108.86L345.37,128.3L347.79,115.77L349.6,112.41L351.46,127.11L353.87,97.33L355.78,93.46L357.64,97.57L359.5,104.26L361.88,103.23L363.78,89.6L365.67,140.49L368.03,132.91L369.93,135.5L371.79,104.65L374.17,123.38L376.06,119.46L378,127.71L380.3,196.95L382.17,202.25L386.45,249.77L388.31,246.9L390.21,250.12L392.58,233.11L394.47,171.59L396.38,195.47L398.75,128.97L400.63,131.75L402.51,152.25L404.88,134.38L406.73,78.18L408.73,104.31L411.05,95.97L412.93,113.84L414.77,121.15L417.17,102.68L420.92,91.36L423.3,117.45L425.15,124.32L427.13,111.31L429.44,129.12L431.31,149.66L433.27,107.34L435.54,87.35L437.46,87.46L439.33,114.4L441.77,116.43L443.61,109.15L445.53,109.09L447.86,93.08L449.75,104.31L451.69,109.97L455.87,164.26L457.82,136.01L459.74,143.3L462.04,113.11L463.9,94.37L465.86,98.35L468.16,98.94L470.09,108.08L471.95,105.97L474.29,98.84L476.26,103.12L478.16,95.47L482.34,162.37L484.22,117.96L486.59,177.53L488.47,196.25L490.39,212.56L492.71,224.55L494.61,214.14L496.51,144.43L498.85,130.17L500.78,127.8L502.67,158.44L504.99,132.69L506.89,102.8L508.84,106.86L513.07,80.03L514.97,99.32L519.2,159.54L521.12,160.59L523.45,151.7L525.34,125.39L527.19,198.51L529.61,189.18L531.47,141.99L533.34,140.23L535.78,95L537.62,148.93L539.5,223.99L541.86,258.14L543.72,242.55L545.61,257.4L548.05,256.79L549.88,232.73L554.11,199.06L556.06,188.95L557.9,188.42L560.31,139.86L562.2,186.25L564.05,131.37L566.03,123.06L568.36,73.41L572.17,77.48L574.52,79.94L576.36,116.6L578.22,89.78L580.61,105.76L582.57,98.6L584.35,137.19L586.75,101.85L588.62,77.96L590.6,99.57L592.9,99.65L594.82,137.9L596.64,145.05L599.02,140.2L600.89,123.47L602.8,138.8L605.18,127.14L607.12,107.86L609.01,84.86L611.36,128.9L613.2,171.68L615.06,169.45L617.46,218.58L619.33,234.84L621.31,233.14L623.56,229.24L625.46,242.25L627.41,234.17L631.61,161.61L633.5,174.54L635.88,153.25L637.84,123.73L639.64,188.93L641.99,119.6L643.88,147.53L645.83,138.39L648.13,220.44L650.1,261.8L651.92,219.34L654.29,213.97L656.18,211.76L658.06,119.81L660.4,179.75L662.32,106.92L664.22,124.8L666.08,110.64L668.43,96.98L670.35,92.87L672.27,115.64L674.58,159.2L676.53,121.14L678.36,102.7L680.81,119.5L682.64,112.04L684.53,116.85L686.9,114.75L688.75,152.05L690.71,111.31L693,101.25L694.93,87.63L696.84,87.05L699.23,115.86L701.1,163.01L702.97,126.31L705.32,116.82L707.18,91.53L709.14,44.55L711.44,106.24L713.32,102.42L715.28,105.93L717.65,109.56L719.5,115.9L721.45,126.66L723.74,119.37L725.71,173.34L727.55,161.92L729.87,139.69L731.78,151.48L733.72,97.33L736.08,112.78L737.97,88.46L739.79,105.44L742.19,128.59L744.08,109.45L745.95,87.18L748.33,114.54L750.18,98.77L752.11,135.53L754.43,97.72L756.32,128.38L758.28,133.81L760.65,163.89L762.49,106.85L764.37,163.71L766.26,173.9L768.58,216.93L770.48,194.69L772.39,196.27L776.71,103.25L778.5,97.44L780.97,95.04L782.76,104.92L784.7,148.54L787.03,165.47L788.94,164.38L790.82,171.21L793.17,159.97L795.08,99.17L796.96,96.91L799.31,99.87L803.08,71.25L805.46,73.31L807.33,100.49L809.29,98.95L811.61,139.72L813.48,121.6L815.41,96.1L817.72,96.48L819.6,79.15L821.56,96.39L823.88,94.25L825.83,114.06L827.67,96.54L830.1,83.98L831.92,123.5L833.88,90.07L836.19,119.41L838.06,128.03L839.99,126.13L842.35,93.33L844.24,69.58L846.08,93.6L848.42,128.97L850.33,93.9L852.27,72.48L854.61,73.71L856.48,82.65L858.34,96.58L860.78,82.36L862.61,87.04L864.58,156.38L866.9,126.61L870.64,143.66L872.58,140.38L874.89,97.96L876.85,92.29L878.68,89.51L881.03,80.26L883.02,62.38L884.91,116.91L887.16,107.34L889.04,93.2L890.96,122.4L893.31,120.6L897.15,170L899.53,110.94L901.38,90.17L903.31,106.43L905.58,88.41L907.54,66.42L909.41,81.3L911.74,68.35L913.67,102.46L915.6,121.56L917.87,101.67L919.86,72.48L921.72,87.2L924.09,83.58L925.9,95.35L927.84,120.73L930.22,149.49L932.13,125.73L936.32,92.72L938.23,86.79L940.13,166.14L942.42,158.88L944.44,160.86L946.27,141.55L948.6,165.53L950.46,155.87L952.41,186.59L954.73,135.76L956.64,114.49L958.55,103.16L960.88,92.23L962.82,68.83L964.69,76.64L967.02,100.4L968.89,81.87L970.84,99.35L972.75,79.11L975.03,90.34L976.97,73.2L978.88,85.91L981.29,79.06L983.08,123.72L985.04,84.51L987.41,102.33L989.25,92.5L991.13,89.35L993.47,106.96L995.33,131.08L997.23,49.76L999.61,42.86L1001.49,67.04L1003.38,45.99L1005.77,38.08L1007.63,66.74L1009.56,37.06L1011.86,59.3L1013.85,71.8L1015.67,198.88L1018.04,57.02L1019.93,52.37" style="vector-effect: none; fill: none; stroke: rgb(228, 211, 84); stroke-opacity: 1; stroke-width: 2px; opacity: 1;"/></g><g class="points"/><g class="text"/></g><g class="trace scatter trace10499f" style="stroke-miterlimit: 2; opacity: 1;"><g class="fills"/><g class="errorbars"/><g class="lines"><path class="js-line" d="M0,170.94L1.91,151.01L4.25,151.6L6.16,157.64L8.03,146.02L10.42,148.17L12.31,146.84L14.2,143.9L16.54,137.22L18.46,135.07L20.34,136.76L22.7,128.03L24.57,128.44L26.48,113.81L28.82,124.33L30.71,113.29L32.6,122.2L34.96,113.84L36.86,103.68L38.77,113.44L41.14,88.2L43.08,39.76L44.9,107.1L47.24,64.36L49.15,52.91L52.95,76.48L55.3,135.84L59.05,164.75L61.46,105.35L63.34,71.61L65.23,75.11L67.6,142.44L69.48,62.93L71.41,69.32L73.76,89.6L75.58,84.03L77.52,185.2L79.87,73.57L81.79,92.46L83.66,74.6L85.99,106.46L87.87,115.28L89.77,101.8L92.12,116.82L94.02,201.27L95.91,203.05L98.28,122.99L102.06,99.37L104.46,139.73L106.32,72.02L108.19,135.77L110.55,130.46L112.44,156.5L114.36,129.01L116.71,82.49L118.63,83.13L120.47,92.17L122.86,86.46L124.71,70.69L126.66,95.25L128.96,226.48L130.89,231.25L132.77,190.43L135.12,115.47L137.05,110.8L138.9,122.44L141.25,99.03L143.19,88.22L145.03,104.78L147.4,110.25L149.34,83.04L151.23,118.43L153.1,118.86L155.46,117.72L157.31,163.33L159.2,145.94L161.57,140.41L163.49,97.63L165.37,116.62L167.75,72.54L169.62,100.59L171.49,111.05L173.87,118.68L175.75,130.85L177.67,128.11L179.99,117.24L181.93,74.32L183.84,93.11L186.15,99.06L188.07,125.9L189.9,126.53L192.27,114.4L194.19,110.26L196.04,113.36L198.43,121.56L200.34,121.78L202.2,111.99L204.55,253.4L206.46,263.98L208.33,285.12L210.69,241.08L212.61,223.06L214.51,192.45L216.86,183.43L218.72,122.99L223,156.69L224.9,160.65L226.77,123.62L229.13,101.67L231.05,132.1L232.93,99.87L235.27,80.47L237.14,73.99L239.04,117.76L241.46,105.87L243.32,118.86L245.21,114.04L247.55,127.53L249.46,100.52L251.39,99.49L253.7,109.22L255.57,187.17L257.48,128.8L259.35,130.7L261.74,99.81L265.49,129.95L267.88,122.4L269.74,129.31L271.66,111.03L274,106.37L275.91,97.46L277.79,94.43L280.14,119.4L282.07,161.61L283.95,140.13L286.28,126.38L288.16,120.95L290.07,116.43L292.42,138.67L294.33,93.44L296.25,101.54L298.61,139.9L300.44,187.34L302.33,234.91L304.73,260L306.64,230.05L308.48,235.65L310.91,228.73L312.73,102.92L314.61,121.88L317.03,199.5L318.89,165.02L320.76,105.81L323.16,109.33L325.01,98.94L326.9,117.82L329.31,129.36L331.16,109.55L333.04,132.01L335.41,112.49L337.29,112.26L339.27,115.77L341.64,126.69L343.45,109.02L345.42,125.6L347.73,114.33L349.62,101.16L351.53,104.84L353.84,129.2L355.73,121.74L357.63,118.33L359.52,112.34L361.92,115.03L363.77,111.49L365.63,95.45L368.07,105.85L369.92,153.51L371.77,213.55L374.17,248.69L376.08,232.67L377.92,267.27L382.19,206.04L384.14,186.16L386.43,178.31L388.31,101.64L390.2,111.97L392.57,181.19L394.45,138.67L396.33,76.25L398.79,104.79L400.65,99.74L402.53,92.23L404.86,116.12L406.74,109.86L408.67,98.03L411.03,94.34L412.89,101.13L414.77,134.79L417.17,119.56L419.04,107.66L420.91,148.89L423.36,99.44L425.18,101.84L427.07,99.36L429.44,111.17L431.35,109.55L433.26,103.56L435.56,111.11L437.43,99.73L439.36,82.22L441.79,136.93L443.61,138.53L445.54,141.9L447.84,167.52L449.76,145.22L451.63,151.36L454.06,91.22L455.94,83.92L457.77,92.01L459.71,112.56L462.01,93.26L463.92,113.77L465.78,103.3L468.2,111.95L470.14,156.82L471.92,136.63L474.28,164.15L476.17,200.95L478.11,204.13L480.45,184.33L482.33,197.26L484.2,183.82L486.62,132.35L488.48,143.49L490.45,128.13L492.79,158.59L494.7,129.47L496.5,105.51L498.88,115.9L500.83,111.07L502.68,100.75L505.04,112.17L506.97,104.66L508.8,169.05L511.14,140L513.08,124.87L514.94,191.64L517.27,197.4L519.2,168.98L521.14,167.86L523.46,163.8L525.3,152.5L527.24,212.74L529.56,249.33L531.45,253.25L533.38,259.7L535.72,240.31L537.59,231.78L539.49,228.91L541.84,186.09L543.75,178.85L545.64,166.73L548.04,162.19L549.89,116.29L551.82,114.76L554.18,91.58L556.03,87.07L557.98,72.65L560.26,70.46L562.23,113.48L564.1,107.69L566,61.94L568.34,87.46L572.07,132.14L574.48,117.52L576.43,116.73L578.2,70.41L582.51,161.36L584.42,155.37L590.57,125.11L592.85,155.55L594.82,114.23L596.66,102.38L599.02,177.31L600.92,174.63L602.78,175.48L605.14,234.74L607.12,208.03L608.98,232.43L611.29,218.19L613.26,182.21L615.14,189.25L617.42,190.94L621.27,159.15L623.57,168.31L625.54,134.34L627.38,176.74L629.7,142.08L631.62,148.26L633.5,113.09L635.87,189.27L637.78,239.82L639.64,240.75L642.07,219.42L643.9,214.17L645.79,130.43L648.17,152.53L650.04,109.87L651.99,101.67L654.27,80.61L656.18,110.76L658.14,138.95L660.47,143.45L662.32,123.5L664.28,129.54L668.43,91.18L670.37,93.53L672.24,132.52L674.65,118.46L676.47,131.75L678.39,100.58L680.79,61.63L682.61,106.11L684.52,99.05L686.96,111.2L688.82,180.47L690.74,140.18L693.11,87.19L694.97,72.78L696.81,96.76L699.23,102.6L701.04,96.38L702.98,108.22L705.28,119.31L707.2,137.24L709.16,160.95L711.49,165.38L713.37,170.21L715.22,183.71L717.58,128.54L719.49,122.16L721.36,80.03L723.7,88.37L725.67,125.6L727.53,109.76L729.84,88.02L731.78,123L733.65,107.58L736.04,126.92L737.91,136.77L739.84,106.5L742.14,102.32L744.06,129.85L745.96,110.67L748.31,96.84L752.08,196.4L754.46,195.61L756.3,182.51L758.22,181.33L762.45,110.99L764.44,96.45L766.29,91.75L768.63,151.56L770.49,153.15L772.42,180.01L774.8,166.9L776.61,136.99L778.53,115.56L780.94,132.38L782.78,174.25L784.68,127.01L787.13,91.75L788.94,89.67L790.86,87.8L793.24,144.48L795.14,115.77L796.96,153.98L799.35,94.34L801.24,115.07L803.1,117.38L805.46,100.71L807.43,112.08L809.3,97.28L811.64,99.26L813.57,106.72L815.39,83.41L817.75,113.84L819.63,125.21L821.49,112.87L823.87,114.96L825.8,97.99L827.68,103.45L830.08,106.86L831.92,111.73L833.82,129.64L836.17,90.74L838.03,90.9L839.97,84.33L842.35,107.82L846.07,87.27L848.45,154.65L850.37,120.38L852.23,137.4L854.61,161.57L856.47,150.23L860.75,78.32L862.6,102.21L864.54,97.63L866.9,67.34L868.82,96.54L870.74,109.33L872.51,126.06L874.93,174.25L876.87,105.54L878.72,149.27L881.1,120.64L882.94,107.91L887.24,76.87L889.16,70.37L891.05,74.44L893.39,89.37L895.19,87.84L897.07,118.61L899.5,83.54L901.42,83.75L903.29,93.07L905.68,66.53L907.52,67.3L909.37,140.43L911.78,154.73L913.62,111.95L915.57,78.71L917.9,104.53L919.75,106.6L921.64,172.67L924.05,127.92L925.96,191.5L927.84,175.66L930.2,168.77L932.05,193.57L933.92,181.83L938.24,59.66L940.1,100.27L942.52,83.1L944.32,109.27L946.27,82.96L948.63,76.34L950.46,102.11L952.45,63.43L954.76,84.42L956.61,86.53L958.6,84.16L960.88,74.36L962.74,83.06L964.63,76.91L967.07,105.05L968.98,69.93L970.84,78.07L972.68,144.72L975.03,134.91L976.96,112.52L978.85,115.12L981.22,93.16L983.12,114.93L984.94,110.06L987.37,91.67L989.19,94.66L991.16,80.38L993.46,85.39L995.39,56.97L997.22,62.5L999.63,42.13L1001.55,52.68L1003.42,120.07L1005.77,37.91L1007.63,69.15L1009.57,60.86L1011.87,87.63L1013.77,58.65L1015.64,186.54L1018.04,155.53L1019.91,47.98" style="vector-effect: none; fill: none; stroke: rgb(43, 144, 143); stroke-opacity: 1; stroke-width: 2px; opacity: 1;"/></g><g class="points"/><g class="text"/></g><g class="trace scatter trace252bb2" style="stroke-miterlimit: 2; opacity: 1;"><g class="fills"/><g class="errorbars"/><g class="lines"><path class="js-line" d="M0,170.88L1.93,166.72L4.28,164.18L6.16,169.67L8.04,155.57L12.28,160.38L14.17,152.22L16.56,154.41L18.45,147.36L20.33,142.8L22.71,141.48L24.6,142.67L26.46,135.34L28.83,135.61L30.73,133.74L32.63,129.79L34.97,115.9L36.87,112.46L38.74,116.2L41.11,119.19L42.99,80.09L44.9,77.04L47.31,142.21L49.16,104.65L51.03,85.67L52.92,97.44L55.28,78.01L57.19,75.16L59.06,70.08L61.43,105.28L63.31,169.9L65.19,79.79L67.63,89.31L69.47,77.04L71.36,88.81L73.74,63.78L75.59,91.11L77.49,77.76L79.83,91.82L81.74,179.05L83.63,175.79L86,76.37L87.9,98.88L89.76,77.06L92.12,114.36L94.01,106.09L95.93,118.33L98.27,123.81L100.2,180.2L102.05,216.23L104.44,88.14L106.33,114.04L108.2,126.7L110.57,76.37L112.49,127.07L114.38,167.18L116.7,138.42L118.62,56.09L120.49,120.71L122.87,94.23L124.71,116.82L126.64,94.87L128.97,87.99L130.9,95.22L132.76,122.94L135.1,229.27L137,192.89L141.32,79.36L143.19,116.8L147.44,92.66L149.29,116.02L151.18,125.3L153.1,101.44L155.49,111.8L157.34,125.86L159.24,128.22L161.56,171.4L163.5,173.46L165.38,146.3L167.78,91.6L169.65,114.4L171.53,122.86L173.86,70.6L175.74,92.19L177.68,102.07L180.02,128.89L181.9,134.25L183.77,143.78L186.13,103.37L188.03,86.41L189.92,108.19L192.35,109.09L194.2,179.41L196.09,115.15L198.45,118.03L200.34,97.3L202.2,126.33L204.54,131.34L206.46,126.83L208.34,123.4L210.7,110.07L212.6,278.12L214.47,289.83L218.77,211.9L220.64,212.67L223,188.16L224.87,142.11L226.78,167.28L229.17,141.76L231.02,124.1L232.98,138.95L235.3,128.79L237.23,109.2L239.05,97.68L241.44,96.52L243.31,72.08L245.19,70.28L247.54,128.71L249.46,90.98L251.33,108.49L253.68,121.56L255.59,113.43L257.51,92.97L259.39,116.79L261.74,103.53L263.63,160.43L265.52,154.41L267.87,135.04L269.78,107.07L271.65,105L274.01,148.94L275.94,149.77L277.76,126.06L280.13,119.83L282.03,109.39L283.94,87.54L286.34,106.05L288.22,118.03L290.1,149.31L292.41,123.29L294.33,124.16L296.2,121.84L298.58,126.83L300.45,161.13L302.38,85.39L304.78,113.59L306.66,125.29L310.86,226.59L312.73,252.93L314.62,238L316.99,247.4L320.8,137.45L323.15,197.39L325.02,200.19L326.93,172.11L329.28,115.8L331.22,102.68L333.07,104.32L335.45,92.41L337.29,127.96L339.18,128.49L341.57,106.81L343.45,108.94L345.35,110.96L347.68,121.24L349.65,121.46L351.47,111.38L353.92,103.83L355.73,104.67L359.49,90.77L361.97,117.57L363.77,135.39L365.63,115.48L368.04,135.96L369.91,82.12L371.85,123.92L374.18,121.24L376.02,117.09L377.99,151.88L384.1,251.9L386.42,247.06L388.32,261.85L390.24,232.56L392.57,176.78L394.5,191.4L396.33,174.3L398.77,125.16L400.66,159.91L402.5,136.52L404.86,97.29L406.79,104.46L408.65,100.45L411.03,106.64L412.91,107.65L414.77,87.7L417.15,76.88L419.09,79.68L420.95,107.02L423.31,108.95L425.17,103.71L427.11,116.65L429.47,146.36L431.36,131.31L435.59,72.92L437.43,113.92L441.71,114.69L443.62,107.63L445.5,111.06L447.91,109.4L449.72,111.59L451.64,148.05L455.88,135.12L457.77,134.74L459.65,108.02L462.12,103.17L463.93,100.73L465.84,102.35L468.15,114.26L470.13,106.72L472.02,88.5L474.35,93.67L476.17,87.56L478.08,143.28L480.48,139.9L482.39,182.19L484.25,174.25L486.58,202.98L488.49,217.28L490.35,199.87L492.75,175.48L494.62,125.32L496.48,120.83L498.92,164.27L500.75,139.9L502.64,136.77L505.01,95.11L506.95,122.71L508.86,97.02L511.19,89.39L513.13,95.69L514.99,92.81L517.32,174.15L519.18,146.12L521.07,126.25L523.46,181.77L525.3,209.64L527.26,153.84L529.56,166.62L531.46,151.34L533.36,116.12L535.71,191.7L537.6,237.04L539.5,234.82L541.83,233.04L543.73,250.67L545.61,248.73L548,229.07L549.86,207.14L551.78,202.5L554.14,186.54L556.05,168L557.95,159.92L560.3,136.35L562.17,120.99L564.03,86.35L565.94,81.38L568.35,87.21L570.26,42.97L572.09,110.78L574.53,92.8L576.34,67.03L580.59,148.22L582.55,89.25L584.35,85.17L586.8,123.28L588.61,92.66L590.55,141.1L592.86,157.17L594.8,134.71L596.72,130.8L599.05,104.32L600.99,141.19L602.86,90.08L608.94,194.92L611.33,239.58L613.19,229.15L615.06,244.97L617.42,213.12L619.31,245.98L621.2,231.18L623.56,224.25L625.49,175.06L627.37,190.64L629.72,173.34L631.6,112.82L633.55,138.73L635.84,147.1L639.68,138.95L642,202.5L643.87,249.84L645.77,234.29L648.2,203.7L650.05,209.58L651.97,139.02L654.28,183.06L658.06,135.31L660.46,87.76L662.31,96.84L664.22,118.4L666.16,143.08L668.49,126.44L670.34,132.63L672.25,116.78L676.49,138.29L678.37,102.67L682.62,145.67L684.5,130.8L686.95,107.28L688.82,76.69L693,94.9L694.91,161.3L696.77,155.74L699.15,111.82L701.08,91.36L703,94.82L705.29,106.86L707.23,90.3L709.13,105.54L711.45,98.07L713.31,130.61L715.23,128.97L717.66,115.94L719.52,173.07L721.39,153.49L723.78,150.28L725.61,129.78L727.58,116.51L731.81,70.98L733.72,121.43L736.03,121.07L737.88,118.33L742.15,123.43L744.14,91.65L745.98,137.02L748.3,109.09L752.09,140.78L754.41,111.94L756.34,107.95L758.21,179.67L760.56,201.71L762.45,209.35L766.28,152.09L768.61,130.03L770.55,109.01L772.38,61.15L774.79,117.35L776.73,100.66L778.55,144.61L780.96,169.3L782.8,172.29L784.68,172.23L787.06,157.81L788.95,91.11L790.85,87.62L793.18,100.75L796.98,51.09L799.29,82.66L801.2,127.89L803.09,134.84L805.47,122.13L807.33,91.44L809.32,100.58L811.64,95.66L813.49,96.93L815.38,112.39L817.74,94.13L819.66,106.28L821.57,75.67L823.9,108.96L825.75,100.88L827.68,111.29L830.09,111.73L831.9,85.63L833.81,83.87L836.22,70.02L838.05,113.44L840,85.91L842.29,80.56L844.16,80.77L848.49,113.27L850.38,115.77L852.3,77.72L854.67,135.75L856.47,136.7L858.34,124.46L862.6,161.08L864.56,138.25L868.75,97.02L870.69,88.41L872.54,80.4L874.87,121.21L878.69,62.86L881.09,153.53L883.01,178.89L884.82,172.25L887.25,157.83L889.08,108.46L893.32,76.67L895.23,71.47L899.55,100.61L901.36,64.09L905.61,96.32L907.48,70.5L909.42,73.22L911.76,72.96L913.7,65.95L915.52,120.77L917.92,159.24L919.75,143.4L921.71,103.3L924.04,75.42L926.02,87.32L927.82,107.47L930.2,154.12L932.04,166.56L933.96,167.87L936.28,192.16L938.24,216.63L940.11,174.15L942.51,168.24L944.42,103.69L946.32,105.35L948.56,95.64L950.57,99.26L952.42,80.91L954.8,85.33L956.61,93.29L958.54,64.27L960.97,102.77L962.73,102.46L964.65,86.57L967.03,37.04L968.91,84.38L970.87,117.17L972.65,108.57L975.1,110.03L976.99,72.52L978.83,86.44L981.22,120.9L983.11,159.72L984.95,128.81L987.34,88.09L989.19,110.92L991.19,106.72L993.45,113.7L995.33,88.23L997.27,82.72L999.6,66.39L1001.48,34.83L1003.39,69.51L1005.77,31.64L1007.62,44.89L1009.52,45.02L1011.89,62.88L1013.83,105.54L1015.68,155.06L1018.1,60.45L1020,63.19" style="vector-effect: none; fill: none; stroke: rgb(244, 91, 91); stroke-opacity: 1; stroke-width: 2px; opacity: 1;"/></g><g class="points"/><g class="text"/></g><g class="trace scatter trace48b8a5" style="stroke-miterlimit: 2; opacity: 1;"><g class="fills"/><g class="errorbars"/><g class="lines"><path class="js-line" d="M0,167.55L1.89,167.6L4.28,164.3L6.14,179.51L8.03,158.92L10.42,164.15L12.28,158.78L14.17,158.65L16.55,159.71L18.42,146.88L20.31,142.14L22.68,144.38L24.58,139.63L26.47,130.52L28.84,132.47L32.61,125.05L34.98,124.98L36.85,115.29L38.76,112.58L42.99,99.3L44.88,58.22L47.24,130.12L49.18,91.38L51.08,92.21L52.91,80.15L55.3,77.69L57.18,81.64L59.05,84.92L61.44,141.21L63.32,172.23L65.2,82.72L67.58,93.53L69.46,133.13L71.34,81.85L73.72,80.64L77.53,104.53L79.85,84.18L81.77,190.3L83.65,111.71L86.03,76.08L87.92,87.29L89.79,81.61L92.16,110.24L94,119.09L95.94,91.53L98.26,109.47L100.17,235.49L102.04,180.71L104.4,84.84L106.29,91.47L108.21,136.8L110.61,98.32L112.45,121.04L114.36,183.38L116.71,124.28L118.63,69.8L120.52,112.05L122.87,82.36L124.73,106.07L126.64,96.68L129,71.71L130.88,105.41L132.77,200.14L135.14,202.97L137.03,195.91L138.9,98.26L141.32,124.93L145.05,89.4L147.45,111.44L149.28,119.19L151.17,100.14L153.13,112.4L155.48,132.8L157.33,141.04L159.22,168.15L161.59,149.54L163.46,104.67L165.41,143.87L167.72,109.23L169.64,67.62L171.51,103.2L173.9,110.37L175.79,120.16L177.67,134.23L180.01,96.84L181.89,109.09L183.83,80.54L188.05,120.2L189.91,161.24L194.22,94.46L196.1,118.11L198.45,119.26L200.38,122.55L202.21,124.37L204.6,114.41L206.44,267.14L208.34,281.67L212.65,216.95L214.51,211.44L216.86,191.85L218.8,123.55L220.64,118.23L223.04,174.15L224.92,127.08L226.75,149.99L229.13,100.72L231.05,127.51L232.93,123.5L235.29,92.29L237.16,77.68L239.07,72.85L241.41,103.62L243.3,103.55L245.24,110.44L247.6,102.77L249.46,90.9L251.32,99.26L253.68,97.63L255.59,186.92L257.49,137.68L259.36,146.52L261.7,115.83L263.6,109.87L265.5,132.45L267.92,114.22L269.76,129.69L271.63,126.5L274.03,102.92L275.92,103.76L277.78,105L280.14,120.72L282.04,161.23L283.93,141.66L286.29,133.73L288.22,116.87L290.07,128.5L292.45,135.41L296.19,86.26L298.65,116.4L302.34,226.68L304.73,261.42L306.59,262.55L308.49,236.42L310.86,237.73L312.75,120.71L314.71,95.26L316.99,185.64L318.93,158.15L320.83,106.74L323.18,94.17L325.1,106.6L326.91,108.39L329.26,123.96L331.2,121.53L333.09,135.09L335.4,121.16L337.29,120.54L339.26,118.93L341.61,118.82L343.49,89.07L345.43,109.75L347.69,107.25L349.66,90.65L351.52,97.4L353.91,116.73L355.73,137.78L357.65,119.68L359.54,129.59L361.9,119.42L363.79,108.15L365.63,85.56L369.92,155.04L371.81,209.82L374.21,259.88L376.04,260.11L377.92,266.52L380.29,232.08L384.06,201.58L386.43,184.41L388.36,103.47L390.24,115.04L392.57,167.68L394.49,125.29L396.38,89.1L398.78,84.72L400.64,108.57L402.5,99.84L404.9,117.28L406.78,101.96L408.68,103.02L411.05,103.16L412.94,103.05L414.83,119.24L419.1,102.38L420.97,136.63L423.32,100.84L425.16,109.15L427.07,91.77L429.48,104.79L431.31,89.78L433.23,99.79L435.59,114.4L437.47,79.82L439.43,84.51L441.72,112.04L443.58,111.38L445.46,152.87L447.87,164.91L449.73,128.29L451.65,126.13L453.99,84.79L455.88,101.09L457.77,98.42L459.68,100.7L462.04,114.8L463.94,89.42L465.82,99.54L468.15,108.57L470.06,161.51L471.93,137.5L474.33,170.01L476.2,195.35L478.11,203.15L480.46,192.32L482.33,193.75L484.23,190.96L486.56,131.81L488.46,131.22L490.37,155.2L492.72,139.74L494.6,146.62L496.55,107.02L498.95,104.22L500.78,115.52L502.7,90.87L505.09,98.86L506.92,116.47L508.8,185.01L511.21,162.41L513.05,125.4L514.98,152.79L517.32,186.37L519.26,171.2L521.12,196.23L523.5,171.94L525.4,159.71L527.26,182.01L529.58,237.01L531.45,242.89L533.34,259.75L535.69,254.1L537.61,247.19L539.5,244.03L541.88,197.13L543.75,205.49L547.98,169.04L549.92,169.97L554.15,97.72L556.02,94.69L557.95,67.34L560.3,92.34L562.16,88.44L564.06,117.61L565.97,91.14L568.3,82.82L570.19,97.77L572.12,106.42L574.46,85.6L576.32,110.32L578.21,122.76L580.59,121.88L582.47,124.69L584.42,158.66L586.82,127.11L588.62,126.8L590.56,109.94L592.92,139.9L594.8,139.72L596.7,84.12L599.02,145.8L600.93,233.06L602.84,167.31L605.21,242.83L607.07,242.54L608.96,229.85L611.29,240.81L613.2,213.53L615.14,174.85L617.48,191.29L623.62,142.93L625.49,158.3L627.37,177.13L629.74,160.49L631.7,159.74L633.53,126.31L637.74,246.02L639.62,249.54L642.01,226.92L643.88,198.64L645.78,122.02L648.19,159.88L650.04,132.32L651.99,90.65L656.23,84.72L658.14,108.83L660.47,139.61L662.31,134L664.23,144.82L666.19,91.01L668.44,116.76L670.4,120.95L672.26,108.85L674.61,136.21L676.52,110.67L678.37,108.83L680.77,95.33L682.63,71.82L684.6,81.48L686.97,97.99L688.82,170.74L690.64,137.65L693.02,124.51L694.94,78.67L696.87,85.3L699.17,119.77L701.09,89.29L702.93,108.11L705.31,94.2L707.2,125.04L709.09,141.37L711.48,186.23L713.34,169.93L715.26,216.51L717.6,152.01L719.51,132.28L723.79,75.02L725.66,101.41L727.57,116.03L729.87,88.86L731.83,123.28L733.75,121.74L737.88,152.52L739.84,112.29L742.23,118.53L744.09,112.56L748.27,158.34L750.21,100.88L752.15,168.17L754.42,212.68L758.2,167.81L760.59,165.91L762.5,171.72L764.33,128.41L766.26,107.34L768.59,125.39L770.59,159.67L772.43,136.32L774.76,181.31L776.66,154.62L778.54,132.7L780.91,85.12L782.76,166.1L784.66,130.38L787.11,74.44L788.96,68.7L790.78,73.66L793.23,116.87L795.06,123.92L796.94,104.42L799.31,106.42L801.21,83.73L803.1,118.23L805.47,110.37L807.42,125.72L809.33,87.71L811.63,118.1L813.58,70.85L815.43,86.92L817.8,90.39L821.51,115.59L823.9,93.5L825.8,87.67L827.63,85.14L830.05,81.92L831.99,77.75L833.79,110.36L836.21,82.71L838.07,74.5L839.99,94.38L842.37,112.78L844.25,99.61L846.14,83.89L848.5,145.27L850.35,152.23L852.21,126.92L856.52,171.09L858.37,136.91L860.71,91.81L862.6,79.68L864.55,91.44L866.91,99.57L868.78,77.27L870.68,111.13L872.52,115.45L874.88,127.22L878.65,147.52L881.02,171.65L882.99,145.71L884.91,99.04L887.2,84.58L889.09,51.58L890.93,75.83L893.32,76.34L897.07,77.17L899.5,125.6L901.43,77.6L903.29,84.68L905.61,104.97L907.47,97.11L909.46,122.5L911.82,172.58L913.61,147.07L915.53,86L917.93,80.82L919.81,102.77L921.64,131.33L924.04,183.77L925.94,146.99L927.81,134.49L930.17,156.54L932.03,181.04L933.99,206.17L936.31,166.93L938.25,78.58L940.06,86.31L942.54,81.52L944.35,83.01L946.22,70.67L948.67,83.77L950.52,75.95L952.42,79.5L954.81,92.32L956.6,63.26L958.52,69.49L960.88,91.09L962.84,66.64L964.66,91.31L967.06,60.5L968.95,82L970.83,76.78L972.68,115.24L975.07,135.89L976.94,125.74L978.85,111.33L981.15,136.05L983.06,109.16L984.98,122.62L987.39,111.2L989.22,107.79L991.14,66.24L993.47,67.12L995.33,87.14L997.3,67.38L999.61,63.96L1001.48,43.46L1003.38,74.65L1005.77,37.88L1007.61,35.71L1009.5,64.18L1011.86,85.65L1013.84,95.79L1015.66,175.92L1018.05,77.13L1019.97,49.7" style="vector-effect: none; fill: none; stroke: rgb(145, 232, 225); stroke-opacity: 1; stroke-width: 2px; opacity: 1;"/></g><g class="points"/><g class="text"/></g><g class="trace scatter trace18f2c8" style="stroke-miterlimit: 2; opacity: 1;"><g class="fills"/><g class="errorbars"/><g class="lines"><path class="js-line" d="M0,181.87L1.89,161.96L4.25,175.05L6.14,181.05L8.06,166L10.4,172.16L12.3,167.28L14.17,162.84L16.53,162.61L20.34,155.34L22.68,152.64L24.6,148.52L26.45,137.55L28.84,135.57L30.73,139.87L32.63,138.31L34.96,137.98L36.85,128.49L38.78,127.48L41.12,114.8L43.02,181.39L44.95,89.51L47.3,88.75L49.13,114.46L51.03,113.28L52.93,173.01L55.29,133.83L57.16,106.83L59.07,97.43L61.44,105.03L63.3,81.02L65.23,97.8L67.63,151.22L69.46,80.29L71.36,97.03L73.74,173.5L75.61,67.73L77.54,108.14L79.88,100.66L81.77,124.37L83.65,102.77L85.99,159.32L87.86,223.91L89.78,99.28L92.14,103.25L94.06,120.19L95.92,97.5L98.32,123.74L100.19,107.57L102.05,93.99L104.47,151.89L106.29,212.78L108.23,114.01L110.6,119.28L112.52,95.31L114.33,142.14L116.68,143.79L118.6,150.74L120.47,133.66L122.86,60.3L124.74,115.86L126.62,106.72L128.98,120.69L132.8,86.67L135.16,112.81L137.06,145.62L138.89,230.42L141.28,197.85L143.15,130.12L145.07,108.19L147.39,133.77L149.32,104.91L151.17,100.64L153.07,120.22L155.47,118.81L157.36,96.27L159.27,106.23L163.49,147.58L165.4,146.78L167.71,154.54L169.59,132.86L171.55,102.95L173.86,111.9L175.76,100.81L177.63,98.73L180.01,102.33L181.87,115.53L183.79,134.99L186.14,139.67L189.93,90.6L192.3,95L194.16,105.67L196.14,128.65L198.42,151.67L200.31,116.32L202.19,107.66L204.6,115.32L206.44,126.05L208.35,132.19L210.7,127.73L212.63,111.41L214.5,110.72L216.84,291.74L218.77,289.23L220.61,241.2L222.98,224.81L224.88,201.15L226.78,137.52L229.14,175.05L231.01,158.29L232.89,131.22L235.28,114.92L237.18,142.05L239.06,134.75L241.47,114.39L243.31,94.62L245.22,85.3L247.61,78.92L249.46,97.47L251.38,122.64L253.72,103.4L255.67,116.79L257.52,112.37L259.38,101.69L261.75,108.89L263.68,112.91L265.56,97.36L267.89,170.11L269.73,140.36L271.63,100.03L274.01,118.18L275.91,118.9L277.83,144.9L280.24,130.56L282.06,126.28L283.98,99.96L286.28,98.85L288.21,93.41L290.05,124.24L292.44,126.86L294.33,121.74L296.3,116.6L298.55,127.58L300.44,137.9L302.43,136.97L304.69,86.79L306.58,87.49L308.49,104.35L310.9,180.16L312.73,228.04L314.64,248.47L316.97,255.33L318.89,238.24L320.78,244.98L323.19,106.24L325.05,192.42L326.96,195.08L329.3,175.19L331.2,127.59L333.09,107.41L335.4,117.79L337.29,99.91L339.22,114.82L341.6,134.06L343.45,103.72L345.45,124.2L347.69,117.6L349.6,111.03L351.5,118.09L353.82,123.44L355.74,91.74L357.68,106.59L359.51,103.88L361.87,109.77L363.8,96.27L365.64,119.08L368,114.23L369.97,132.1L371.85,116.29L374.18,136.98L376.07,120.44L377.92,120.01L380.3,136.35L382.17,227.77L384.13,197.08L386.42,228.58L388.34,242.29L390.22,250.93L392.61,250.69L394.48,216.65L396.39,159.24L398.74,183.91L400.59,124.1L402.53,145.12L404.91,157.51L406.73,91.61L408.66,84.72L410.98,88.37L412.94,107.25L414.85,124.65L417.21,86.53L419.03,107.65L420.95,80.34L423.26,95.72L425.2,130.23L427.1,126.01L429.47,118L431.31,140.53L433.21,124.61L435.6,106.85L437.49,100.25L439.38,97.99L441.69,111.1L443.61,123.88L445.47,96.74L447.86,95.34L449.8,135.53L451.68,103.39L453.99,133.86L455.87,178.89L457.8,141.72L459.67,141.43L462.07,132.98L463.89,94.02L465.78,92.45L468.14,110.75L470.1,107.06L471.99,112.96L474.35,113.4L476.19,102.13L478.09,85.7L480.52,125.95L482.36,142.68L484.2,137.9L486.57,184.21L488.45,190.56L490.34,225.98L492.78,224.92L494.61,210.08L496.51,153.23L498.85,122.97L500.74,123.17L502.66,132.15L505.05,145.6L506.98,112.78L508.82,110.32L511.17,89.93L513.01,88.69L514.95,93.89L517.27,106.33L519.25,125.49L521.14,151.56L523.46,147.87L525.39,106.81L527.22,176.53L529.57,181.57L531.47,148.7L533.43,134.91L535.75,102.91L537.59,125.69L539.49,193.24L541.85,230.61L543.72,230.43L545.64,225.31L548,235.04L549.87,229.66L551.76,212.71L554.12,199.37L556.02,204.24L557.91,163.71L560.31,150.48L562.16,172.97L564.05,139.9L566.02,114.33L568.32,63.65L570.28,85.34L572.1,86.29L574.48,92.83L576.4,108.04L578.27,82.75L580.62,80.69L582.46,95.66L584.45,119.5L586.71,100.73L588.66,96.23L592.86,114.08L594.76,153.25L596.72,162.48L599.03,135.51L602.78,113.06L605.14,136.73L607.06,99.54L608.94,118.86L611.28,140.81L613.18,189.3L615.07,178.76L617.43,238.79L619.33,237.51L621.28,206.82L623.56,253.18L625.44,233.82L627.4,215L629.7,164.03L631.62,178.17L633.53,168.37L635.84,127.61L637.82,176.53L639.73,141.51L642,141.85L643.89,132.45L645.78,171.21L648.14,253.5L650.04,239.34L651.91,237.06L654.26,212.21L656.2,202.55L658.07,203.33L660.49,109.58L662.34,124.62L664.22,96.2L666.08,97.11L668.44,106.02L670.36,107.78L672.23,150.81L674.61,125.72L676.5,101.45L678.45,97.59L682.64,106.46L684.58,136.35L686.9,164.24L688.86,135.44L690.66,108.92L693.07,84.89L694.97,83.54L696.82,115.15L699.22,138.91L701.12,148.13L702.94,90.89L705.34,89.32L707.24,96.58L709.08,116.37L711.53,86.39L713.34,117.52L715.24,149.14L717.67,110.82L721.4,147.8L723.77,180.25L725.6,130.87L727.58,170.17L729.89,114.36L731.84,89.89L733.7,82.75L736.08,142.99L739.8,127.71L742.16,90.04L745.93,101.24L748.32,113.45L750.26,121.18L752.05,135.93L756.34,144.43L758.25,116.08L762.47,198.86L764.33,218.95L766.24,203.93L768.67,148.17L770.49,150.3L772.37,119.7L774.75,123.88L776.71,114.85L778.56,114.33L780.87,170.84L782.8,155.25L784.67,164.91L787.06,177.38L788.96,141.85L790.8,101.28L793.29,104.76L795.09,99.79L797.02,73.21L799.37,77.96L801.23,95.13L807.39,144.67L809.24,85.47L811.58,103.05L813.54,104.97L815.4,86.04L817.75,104.66L819.62,108.18L821.5,107.48L823.9,92.45L825.84,152.01L827.72,107.46L830,119.81L831.95,121.74L833.82,95.83L836.17,74.72L838.08,78.71L839.97,113.44L842.35,106.42L844.2,100.84L846.06,77.26L848.48,79.37L850.34,94.17L852.32,116.91L854.62,97.68L856.56,180.49L858.41,138.2L860.76,138.25L862.67,148.79L864.53,187.53L866.88,111.34L868.83,89.29L870.64,88.63L872.51,95.82L875.01,84.2L876.84,113.27L878.66,57.86L881.02,78.58L882.96,85.3L884.8,144.61L887.16,171.16L889.08,149.8L891.05,88.37L893.29,81.52L895.22,102.46L897.07,58.08L899.43,68.57L901.4,58.95L903.26,77.04L905.62,110.67L907.48,46.79L909.37,114.71L911.85,107.16L913.66,89.42L915.59,88.06L917.87,114.8L919.75,152.3L921.68,132.87L924.04,81.26L925.88,89.18L927.88,60.84L930.24,92.32L932.12,169.05L934.02,167.4L936.39,180.16L938.25,189.85L940.08,194.1L942.46,153.3L944.34,176.27L946.21,129.91L948.64,109.36L950.47,103.9L952.37,72.04L954.83,77.26L956.66,90.26L958.5,69.45L960.86,55.62L964.63,77.52L967.01,83.7L968.9,73.27L970.86,89.48L972.67,88.2L975.08,89.69L977.02,93.51L978.79,81.96L984.99,145.54L987.29,127.08L989.24,95.36L991.13,92.37L993.51,104.53L995.33,91.92L997.23,47.04L999.59,71.79L1003.42,48.39L1005.75,19.25L1009.54,33.93L1011.92,52.57L1015.74,84.92L1018.01,117.35L1019.94,113.48" style="vector-effect: none; fill: none; stroke: rgb(124, 181, 236); stroke-opacity: 1; stroke-width: 2px; opacity: 1;"/></g><g class="points"/><g class="text"/></g></g></g></g><path class="xlines-above crisp" d="M0,0" style="fill: none;"/><path class="ylines-above crisp" d="M0,0" style="fill: none;"/><g class="overlines-above"/><g class="xaxislayer-above"><g class="xtick"><text text-anchor="middle" x="0" y="451" transform="translate(65,0)" style="font-family: 'Lucida Grande', 'Open Sans', verdana, arial, sans-serif; font-size: 10px; fill: rgb(0, 0, 0); fill-opacity: 1; white-space: pre; opacity: 1;">0</text></g><g class="xtick"><text text-anchor="middle" x="0" y="451" style="font-family: 'Lucida Grande', 'Open Sans', verdana, arial, sans-serif; font-size: 10px; fill: rgb(0, 0, 0); fill-opacity: 1; white-space: pre; opacity: 1;" transform="translate(253.95,0)">2k</text></g><g class="xtick"><text text-anchor="middle" x="0" y="451" style="font-family: 'Lucida Grande', 'Open Sans', verdana, arial, sans-serif; font-size: 10px; fill: rgb(0, 0, 0); fill-opacity: 1; white-space: pre; opacity: 1;" transform="translate(442.91,0)">4k</text></g><g class="xtick"><text text-anchor="middle" x="0" y="451" style="font-family: 'Lucida Grande', 'Open Sans', verdana, arial, sans-serif; font-size: 10px; fill: rgb(0, 0, 0); fill-opacity: 1; white-space: pre; opacity: 1;" transform="translate(631.87,0)">6k</text></g><g class="xtick"><text text-anchor="middle" x="0" y="451" style="font-family: 'Lucida Grande', 'Open Sans', verdana, arial, sans-serif; font-size: 10px; fill: rgb(0, 0, 0); fill-opacity: 1; white-space: pre; opacity: 1;" transform="translate(820.82,0)">8k</text></g><g class="xtick"><text text-anchor="middle" x="0" y="451" style="font-family: 'Lucida Grande', 'Open Sans', verdana, arial, sans-serif; font-size: 10px; fill: rgb(0, 0, 0); fill-opacity: 1; white-space: pre; opacity: 1;" transform="translate(1009.78,0)">10k</text></g></g><g class="yaxislayer-above"><g class="ytick"><text text-anchor="end" x="59" y="3.5" transform="translate(0,435)" style="font-family: 'Lucida Grande', 'Open Sans', verdana, arial, sans-serif; font-size: 10px; fill: rgb(0, 0, 0); fill-opacity: 1; white-space: pre; opacity: 1;">0</text></g><g class="ytick"><text text-anchor="end" x="59" y="3.5" style="font-family: 'Lucida Grande', 'Open Sans', verdana, arial, sans-serif; font-size: 10px; fill: rgb(0, 0, 0); fill-opacity: 1; white-space: pre; opacity: 1;" transform="translate(0,347.19)">500</text></g><g class="ytick"><text text-anchor="end" x="59" y="3.5" style="font-family: 'Lucida Grande', 'Open Sans', verdana, arial, sans-serif; font-size: 10px; fill: rgb(0, 0, 0); fill-opacity: 1; white-space: pre; opacity: 1;" transform="translate(0,259.38)">1000</text></g><g class="ytick"><text text-anchor="end" x="59" y="3.5" style="font-family: 'Lucida Grande', 'Open Sans', verdana, arial, sans-serif; font-size: 10px; fill: rgb(0, 0, 0); fill-opacity: 1; white-space: pre; opacity: 1;" transform="translate(0,171.56)">1500</text></g><g class="ytick"><text text-anchor="end" x="59" y="3.5" style="font-family: 'Lucida Grande', 'Open Sans', verdana, arial, sans-serif; font-size: 10px; fill: rgb(0, 0, 0); fill-opacity: 1; white-space: pre; opacity: 1;" transform="translate(0,83.75)">2000</text></g></g><g class="overaxes-above"/></g></g><g class="polarlayer"/><g class="smithlayer"/><g class="ternarylayer"/><g class="geolayer"/><g class="funnelarealayer"/><g class="pielayer"/><g class="iciclelayer"/><g class="treemaplayer"/><g class="sunburstlayer"/><g class="glimages"/><defs id="topdefs-ebad96"><g class="clips"/></defs><g class="layer-above"><g class="imagelayer"/><g class="shapelayer"/></g><g class="infolayer"><g class="g-gtitle"><text class="gtitle" x="550" y="25" text-anchor="middle" dy="0em" style="opacity: 1; font-family: 'Lucida Grande', 'Open Sans', verdana, arial, sans-serif; font-size: 20px; fill: rgb(42, 63, 95); fill-opacity: 1; white-space: pre;"><tspan class="line" dy="0em" x="550" y="25">MS1 Peaks</tspan><tspan class="line" dy="1.3em" x="550" y="25"><tspan style="font-size:70%" dy="-0.6em">11 samples</tspan><tspan dy="0.42em"></tspan></tspan></text></g><g class="g-xtitle"/><g class="g-ytitle"><text class="ytitle" transform="rotate(-90,22.35,242.5)" x="22.35" y="242.5" text-anchor="middle" style="opacity: 0.3; font-family: 'Lucida Grande', 'Open Sans', verdana, arial, sans-serif; font-size: 14px; fill: rgb(0, 0, 0); fill-opacity: 1; white-space: pre;">Peak Count</text></g></g></svg>