<svg class="main-svg" xmlns="http://www.w3.org/2000/svg" xmlns:xlink="http://www.w3.org/1999/xlink" width="2200" height="546" style="" viewBox="0 0 1100 273"><rect x="0" y="0" width="1100" height="273" style="fill: rgb(255, 255, 255); fill-opacity: 1;"/><defs id="defs-acc445"><g class="clips"><clipPath id="clipacc445xyplot" class="plotclip"><rect width="985" height="42.230769230769226"/></clipPath><clipPath id="clipacc445x2y2plot" class="plotclip"><rect width="985" height="42.230769230769226"/></clipPath><clipPath id="clipacc445x3y3plot" class="plotclip"><rect width="985" height="42.230769230769226"/></clipPath><clipPath class="axesclip" id="clipacc445x"><rect x="100" y="0" width="985" height="273"/></clipPath><clipPath class="axesclip" id="clipacc445y"><rect x="0" y="50.00000000000002" width="1100" height="42.230769230769226"/></clipPath><clipPath class="axesclip" id="clipacc445xy"><rect x="100" y="50.00000000000002" width="985" height="42.230769230769226"/></clipPath><clipPath class="axesclip" id="clipacc445y2"><rect x="0" y="120.3846153846154" width="1100" height="42.230769230769226"/></clipPath><clipPath class="axesclip" id="clipacc445xy2"><rect x="100" y="120.3846153846154" width="985" height="42.230769230769226"/></clipPath><clipPath class="axesclip" id="clipacc445y3"><rect x="0" y="190.76923076923077" width="1100" height="42.230769230769226"/></clipPath><clipPath class="axesclip" id="clipacc445xy3"><rect x="100" y="190.76923076923077" width="985" height="42.230769230769226"/></clipPath><clipPath class="axesclip" id="clipacc445x2"><rect x="100" y="0" width="985" height="273"/></clipPath><clipPath class="axesclip" id="clipacc445x2y"><rect x="100" y="50.00000000000002" width="985" height="42.230769230769226"/></clipPath><clipPath class="axesclip" id="clipacc445x2y2"><rect x="100" y="120.3846153846154" width="985" height="42.230769230769226"/></clipPath><clipPath class="axesclip" id="clipacc445x2y3"><rect x="100" y="190.76923076923077" width="985" height="42.230769230769226"/></clipPath><clipPath class="axesclip" id="clipacc445x3"><rect x="100" y="0" width="985" height="273"/></clipPath><clipPath class="axesclip" id="clipacc445x3y"><rect x="100" y="50.00000000000002" width="985" height="42.230769230769226"/></clipPath><clipPath class="axesclip" id="clipacc445x3y2"><rect x="100" y="120.3846153846154" width="985" height="42.230769230769226"/></clipPath><clipPath class="axesclip" id="clipacc445x3y3"><rect x="100" y="190.76923076923077" width="985" height="42.230769230769226"/></clipPath></g><g class="gradients"/><g class="patterns"/></defs><g class="bglayer"/><g class="layer-below"><g class="imagelayer"/><g class="shapelayer"/></g><g class="cartesianlayer"><g class="subplot xy"><g class="layer-subplot"><g class="shapelayer"/><g class="imagelayer"/></g><g class="minor-gridlayer"><g class="x"/><g class="y"/></g><g class="gridlayer"><g class="x"><path class="xgrid crisp" transform="translate(198.64,0)" d="M0,50.00000000000002v42.230769230769226" style="stroke: rgb(0, 0, 0); stroke-opacity: 0.1; stroke-width: 1px;"/><path class="xgrid crisp" transform="translate(347.48,0)" d="M0,50.00000000000002v42.230769230769226" style="stroke: rgb(0, 0, 0); stroke-opacity: 0.1; stroke-width: 1px;"/><path class="xgrid crisp" transform="translate(496.32,0)" d="M0,50.00000000000002v42.230769230769226" style="stroke: rgb(0, 0, 0); stroke-opacity: 0.1; stroke-width: 1px;"/><path class="xgrid crisp" transform="translate(645.17,0)" d="M0,50.00000000000002v42.230769230769226" style="stroke: rgb(0, 0, 0); stroke-opacity: 0.1; stroke-width: 1px;"/><path class="xgrid crisp" transform="translate(794.01,0)" d="M0,50.00000000000002v42.230769230769226" style="stroke: rgb(0, 0, 0); stroke-opacity: 0.1; stroke-width: 1px;"/><path class="xgrid crisp" transform="translate(942.85,0)" d="M0,50.00000000000002v42.230769230769226" style="stroke: rgb(0, 0, 0); stroke-opacity: 0.1; stroke-width: 1px;"/></g><g class="y"><path class="ygrid crisp" transform="translate(0,71.12000000000002)" d="M100,0h985" style="stroke: rgb(0, 0, 0); stroke-opacity: 0.1; stroke-width: 1px;"/></g></g><g class="zerolinelayer"/><g class="layer-between"><g class="shapelayer"/><g class="imagelayer"/></g><path class="xlines-below"/><path class="ylines-below"/><g class="overlines-below"/><g class="xaxislayer-below"/><g class="yaxislayer-below"/><g class="overaxes-below"/><g class="overplot"><g class="xy" transform="translate(100,50.00000000000002)" clip-path="url(#clipacc445xyplot)"><g class="violinlayer mlayer"><g class="trace violins" style="opacity: 0.5;"><path class="violin" d="M49.25,20.61Q71.98,20.33 83.35,20.12C94.71,19.91 106.08,19.66 117.44,19.35C128.81,19.04 140.17,18.68 151.54,18.28C162.9,17.88 174.27,17.41 185.63,16.93C197,16.45 208.36,15.93 219.73,15.42C231.1,14.91 242.46,14.38 253.83,13.88C265.19,13.38 276.56,12.88 287.92,12.42C299.29,11.96 310.65,11.52 322.02,11.1C333.39,10.68 344.75,10.29 356.12,9.92C367.48,9.55 378.85,9.19 390.21,8.86C401.58,8.53 412.94,8.22 424.31,7.94C435.67,7.66 447.04,7.41 458.4,7.19C469.77,6.97 481.13,6.78 492.5,6.64C503.87,6.5 515.23,6.39 526.6,6.34C537.96,6.29 549.33,6.28 560.69,6.33C572.06,6.38 583.42,6.48 594.79,6.66C606.15,6.84 617.52,7.08 628.88,7.39C640.25,7.71 651.61,8.09 662.98,8.55C674.35,9.01 685.72,9.57 697.08,10.15C708.45,10.74 719.81,11.4 731.17,12.06C742.54,12.72 753.9,13.45 765.27,14.13C776.64,14.8 788,15.5 799.37,16.11C810.73,16.72 822.09,17.31 833.46,17.81C844.82,18.31 856.19,18.74 867.56,19.11C878.92,19.48 890.29,19.77 901.65,20.01Q913.02,20.25 935.75,20.56L935.75,21.67Q913.02,21.98 901.65,22.22C890.29,22.46 878.92,22.75 867.56,23.12C856.19,23.49 844.82,23.92 833.46,24.42C822.09,24.92 810.73,25.51 799.37,26.12C788,26.73 776.64,27.43 765.27,28.1C753.9,28.78 742.54,29.5 731.17,30.17C719.81,30.83 708.45,31.5 697.08,32.09C685.72,32.67 674.35,33.22 662.98,33.68C651.61,34.14 640.25,34.52 628.88,34.84C617.52,35.15 606.15,35.39 594.79,35.57C583.42,35.75 572.06,35.85 560.69,35.9C549.33,35.95 537.96,35.94 526.6,35.89C515.23,35.84 503.87,35.73 492.5,35.59C481.13,35.45 469.77,35.26 458.4,35.04C447.04,34.82 435.67,34.57 424.31,34.29C412.94,34.01 401.58,33.7 390.21,33.37C378.85,33.04 367.48,32.68 356.12,32.31C344.75,31.94 333.39,31.55 322.02,31.13C310.65,30.71 299.29,30.27 287.92,29.81C276.56,29.35 265.19,28.85 253.83,28.35C242.46,27.85 231.1,27.32 219.73,26.81C208.36,26.3 197,25.78 185.63,25.3C174.27,24.82 162.9,24.35 151.54,23.95C140.17,23.55 128.81,23.19 117.44,22.88C106.08,22.57 94.71,22.32 83.35,22.11Q71.98,21.9 49.25,21.63Z" style="vector-effect: none; stroke-width: 2px; stroke: rgb(181, 181, 181); stroke-opacity: 1; fill: rgb(181, 181, 181); fill-opacity: 1;"/><path class="box" d="M514.04,24.81V17.42M394.76,24.81V17.42H633.37V24.81ZM394.76,21.12H253.99M633.37,21.12H731.01" style="vector-effect: non-scaling-stroke; stroke-width: 2px; stroke: rgb(181, 181, 181); stroke-opacity: 1; fill: rgb(181, 181, 181); fill-opacity: 1;"/><path class="mean" d="M506.2,24.81V17.42" style="fill: none; vector-effect: non-scaling-stroke; stroke-width: 2px; stroke-dasharray: 4px, 2px; stroke: rgb(181, 181, 181); stroke-opacity: 1;"/></g></g><g class="scatterlayer mlayer"><g class="trace scatter traceaa730c" style="stroke-miterlimit: 2; opacity: 1;"><g class="fills"/><g class="errorbars"/><g class="lines"/><g class="points"><path class="point" transform="translate(253.99,21.12)" d="M2,0A2,2 0 1,1 0,-2A2,2 0 0,1 2,0Z" style="opacity: 1; stroke-width: 0px; fill: rgb(11, 121, 230); fill-opacity: 1;"/></g><g class="text"/></g><g class="trace scatter trace5ff1b3" style="stroke-miterlimit: 2; opacity: 1;"><g class="fills"/><g class="errorbars"/><g class="lines"/><g class="points"><path class="point" transform="translate(297.26,21.12)" d="M2,0A2,2 0 1,1 0,-2A2,2 0 0,1 2,0Z" style="opacity: 1; stroke-width: 0px; fill: rgb(11, 121, 230); fill-opacity: 1;"/></g><g class="text"/></g><g class="trace scatter trace02d592" style="stroke-miterlimit: 2; opacity: 1;"><g class="fills"/><g class="errorbars"/><g class="lines"/><g class="points"><path class="point" transform="translate(383.93,21.12)" d="M2,0A2,2 0 1,1 0,-2A2,2 0 0,1 2,0Z" style="opacity: 1; stroke-width: 0px; fill: rgb(11, 121, 230); fill-opacity: 1;"/></g><g class="text"/></g><g class="trace scatter trace360300" style="stroke-miterlimit: 2; opacity: 1;"><g class="fills"/><g class="errorbars"/><g class="lines"/><g class="points"><path class="point" transform="translate(427.28,21.12)" d="M2,0A2,2 0 1,1 0,-2A2,2 0 0,1 2,0Z" style="opacity: 1; stroke-width: 0px; fill: rgb(11, 121, 230); fill-opacity: 1;"/></g><g class="text"/></g><g class="trace scatter tracecbb068" style="stroke-miterlimit: 2; opacity: 1;"><g class="fills"/><g class="errorbars"/><g class="lines"/><g class="points"><path class="point" transform="translate(470.65,21.12)" d="M2,0A2,2 0 1,1 0,-2A2,2 0 0,1 2,0Z" style="opacity: 1; stroke-width: 0px; fill: rgb(11, 121, 230); fill-opacity: 1;"/></g><g class="text"/></g><g class="trace scatter trace9665e7" style="stroke-miterlimit: 2; opacity: 1;"><g class="fills"/><g class="errorbars"/><g class="lines"/><g class="points"><path class="point" transform="translate(514.04,21.12)" d="M2,0A2,2 0 1,1 0,-2A2,2 0 0,1 2,0Z" style="opacity: 1; stroke-width: 0px; fill: rgb(11, 121, 230); fill-opacity: 1;"/></g><g class="text"/></g><g class="trace scatter trace6880a9" style="stroke-miterlimit: 2; opacity: 1;"><g class="fills"/><g class="errorbars"/><g class="lines"/><g class="points"><path class="point" transform="translate(557.42,21.12)" d="M2,0A2,2 0 1,1 0,-2A2,2 0 0,1 2,0Z" style="opacity: 1; stroke-width: 0px; fill: rgb(11, 121, 230); fill-opacity: 1;"/></g><g class="text"/></g><g class="trace scatter trace1dd43a" style="stroke-miterlimit: 2; opacity: 1;"><g class="fills"/><g class="errorbars"/><g class="lines"/><g class="points"><path class="point" transform="translate(600.82,21.12)" d="M2,0A2,2 0 1,1 0,-2A2,2 0 0,1 2,0Z" style="opacity: 1; stroke-width: 0px; fill: rgb(11, 121, 230); fill-opacity: 1;"/></g><g class="text"/></g><g class="trace scatter trace7349ad" style="stroke-miterlimit: 2; opacity: 1;"><g class="fills"/><g class="errorbars"/><g class="lines"/><g class="points"><path class="point" transform="translate(644.22,21.12)" d="M2,0A2,2 0 1,1 0,-2A2,2 0 0,1 2,0Z" style="opacity: 1; stroke-width: 0px; fill: rgb(11, 121, 230); fill-opacity: 1;"/></g><g class="text"/></g><g class="trace scatter trace210589" style="stroke-miterlimit: 2; opacity: 1;"><g class="fills"/><g class="errorbars"/><g class="lines"/><g class="points"><path class="point" transform="translate(687.61,21.12)" d="M2,0A2,2 0 1,1 0,-2A2,2 0 0,1 2,0Z" style="opacity: 1; stroke-width: 0px; fill: rgb(11, 121, 230); fill-opacity: 1;"/></g><g class="text"/></g><g class="trace scatter trace269514" style="stroke-miterlimit: 2; opacity: 1;"><g class="fills"/><g class="errorbars"/><g class="lines"/><g class="points"><path class="point" transform="translate(731.01,21.12)" d="M2,0A2,2 0 1,1 0,-2A2,2 0 0,1 2,0Z" style="opacity: 1; stroke-width: 0px; fill: rgb(11, 121, 230); fill-opacity: 1;"/></g><g class="text"/></g></g></g></g><path class="xlines-above crisp" d="M0,0" style="fill: none;"/><path class="ylines-above crisp" d="M0,0" style="fill: none;"/><g class="overlines-above"/><g class="xaxislayer-above"><g class="xtick"><text text-anchor="middle" x="0" y="102.23076923076925" transform="translate(198.64,0)" style="font-family: 'Lucida Grande', 'Open Sans', verdana, arial, sans-serif; font-size: 9px; fill: rgb(0, 0, 0); fill-opacity: 0.5; white-space: pre; opacity: 1;"><tspan class="line" dy="0em" x="0" y="102.23076923076925">00:00</tspan><tspan class="line" dy="1.3em" x="0" y="102.23076923076925">Apr 19, 2017</tspan></text></g><g class="xtick"><text text-anchor="middle" x="0" y="102.23076923076925" style="font-family: 'Lucida Grande', 'Open Sans', verdana, arial, sans-serif; font-size: 9px; fill: rgb(0, 0, 0); fill-opacity: 0.5; white-space: pre; opacity: 1;" transform="translate(347.48,0)">12:00</text></g><g class="xtick"><text text-anchor="middle" x="0" y="102.23076923076925" style="font-family: 'Lucida Grande', 'Open Sans', verdana, arial, sans-serif; font-size: 9px; fill: rgb(0, 0, 0); fill-opacity: 0.5; white-space: pre; opacity: 1;" transform="translate(496.32,0)"><tspan class="line" dy="0em" x="0" y="102.23076923076925">00:00</tspan><tspan class="line" dy="1.3em" x="0" y="102.23076923076925">Apr 20, 2017</tspan></text></g><g class="xtick"><text text-anchor="middle" x="0" y="102.23076923076925" style="font-family: 'Lucida Grande', 'Open Sans', verdana, arial, sans-serif; font-size: 9px; fill: rgb(0, 0, 0); fill-opacity: 0.5; white-space: pre; opacity: 1;" transform="translate(645.17,0)">12:00</text></g><g class="xtick"><text text-anchor="middle" x="0" y="102.23076923076925" style="font-family: 'Lucida Grande', 'Open Sans', verdana, arial, sans-serif; font-size: 9px; fill: rgb(0, 0, 0); fill-opacity: 0.5; white-space: pre; opacity: 1;" transform="translate(794.01,0)"><tspan class="line" dy="0em" x="0" y="102.23076923076925">00:00</tspan><tspan class="line" dy="1.3em" x="0" y="102.23076923076925">Apr 21, 2017</tspan></text></g><g class="xtick"><text text-anchor="middle" x="0" y="102.23076923076925" style="font-family: 'Lucida Grande', 'Open Sans', verdana, arial, sans-serif; font-size: 9px; fill: rgb(0, 0, 0); fill-opacity: 0.5; white-space: pre; opacity: 1;" transform="translate(942.85,0)">12:00</text></g></g><g class="yaxislayer-above"><g class="ytick"><text text-anchor="end" x="99" y="3.15" transform="translate(0,71.12000000000002)" style="font-family: 'Lucida Grande', 'Open Sans', verdana, arial, sans-serif; font-size: 9px; fill: rgb(0, 0, 0); fill-opacity: 0.5; white-space: pre; opacity: 1;">AcquisitionDateTime  </text></g></g><g class="overaxes-above"/></g><g class="subplot x2y2"><g class="layer-subplot"><g class="shapelayer"/><g class="imagelayer"/></g><g class="minor-gridlayer"><g class="x2"/><g class="y2"/></g><g class="gridlayer"><g class="x2"><path class="x2grid crisp" transform="translate(292.14,0)" d="M0,120.3846153846154v42.230769230769226" style="stroke: rgb(0, 0, 0); stroke-opacity: 0.1; stroke-width: 1px;"/><path class="x2grid crisp" transform="translate(479.4,0)" d="M0,120.3846153846154v42.230769230769226" style="stroke: rgb(0, 0, 0); stroke-opacity: 0.1; stroke-width: 1px;"/><path class="x2grid crisp" transform="translate(666.66,0)" d="M0,120.3846153846154v42.230769230769226" style="stroke: rgb(0, 0, 0); stroke-opacity: 0.1; stroke-width: 1px;"/><path class="x2grid crisp" transform="translate(853.93,0)" d="M0,120.3846153846154v42.230769230769226" style="stroke: rgb(0, 0, 0); stroke-opacity: 0.1; stroke-width: 1px;"/><path class="x2grid crisp" transform="translate(1041.19,0)" d="M0,120.3846153846154v42.230769230769226" style="stroke: rgb(0, 0, 0); stroke-opacity: 0.1; stroke-width: 1px;"/></g><g class="y2"><path class="y2grid crisp" transform="translate(0,141.5046153846154)" d="M100,0h985" style="stroke: rgb(0, 0, 0); stroke-opacity: 0.1; stroke-width: 1px;"/></g></g><g class="zerolinelayer"><path class="x2zl zl crisp" transform="translate(104.88,0)" d="M0,120.3846153846154v42.230769230769226" style="stroke: rgb(0, 0, 0); stroke-opacity: 0.1; stroke-width: 2px;"/></g><g class="layer-between"><g class="shapelayer"/><g class="imagelayer"/></g><path class="xlines-below"/><path class="ylines-below"/><g class="overlines-below"/><g class="xaxislayer-below"/><g class="yaxislayer-below"/><g class="overaxes-below"/><g class="overplot"><g class="x2y2" transform="translate(100,120.3846153846154)" clip-path="url(#clipacc445x2y2plot)"><g class="violinlayer mlayer"><g class="trace violins" style="opacity: 0.5;"><path class="violin" d="M605.72,20.75Q617.67,20.58 623.65,20.45C629.62,20.33 635.6,20.17 641.57,20C647.55,19.83 653.52,19.63 659.5,19.42C665.47,19.21 671.45,18.97 677.42,18.72C683.4,18.47 689.37,18.22 695.35,17.94C701.33,17.66 707.3,17.38 713.28,17.06C719.25,16.74 725.23,16.41 731.2,16.02C737.18,15.63 743.16,15.21 749.13,14.73C755.11,14.25 761.08,13.7 767.05,13.13C773.03,12.56 779,11.92 784.98,11.31C790.95,10.71 796.92,10.06 802.9,9.5C808.87,8.94 814.85,8.4 820.83,7.97C826.8,7.55 832.77,7.2 838.75,6.95C844.72,6.7 850.7,6.55 856.68,6.45C862.66,6.35 868.63,6.34 874.61,6.33C880.58,6.32 886.56,6.36 892.53,6.39C898.51,6.42 904.48,6.44 910.46,6.49C916.43,6.54 922.41,6.57 928.38,6.68C934.36,6.79 940.34,6.9 946.31,7.14C952.29,7.38 958.26,7.69 964.23,8.11C970.21,8.53 976.19,9.07 982.16,9.68C988.14,10.29 994.11,11.02 1000.08,11.75C1006.06,12.48 1012.03,13.3 1018.01,14.05C1023.99,14.8 1029.96,15.57 1035.94,16.24C1041.91,16.91 1047.88,17.53 1053.86,18.05C1059.83,18.57 1065.81,19.01 1071.79,19.37Q1077.76,19.73 1089.71,20.21L1089.71,22.02Q1077.76,22.5 1071.79,22.86C1065.81,23.22 1059.83,23.66 1053.86,24.18C1047.88,24.7 1041.91,25.32 1035.94,25.99C1029.96,26.66 1023.99,27.43 1018.01,28.18C1012.03,28.93 1006.06,29.75 1000.08,30.48C994.11,31.21 988.14,31.94 982.16,32.55C976.19,33.16 970.21,33.7 964.23,34.12C958.26,34.54 952.29,34.85 946.31,35.09C940.34,35.33 934.36,35.44 928.38,35.55C922.41,35.66 916.43,35.69 910.46,35.74C904.48,35.79 898.51,35.81 892.53,35.84C886.56,35.87 880.58,35.91 874.61,35.9C868.63,35.89 862.66,35.88 856.68,35.78C850.7,35.68 844.72,35.53 838.75,35.28C832.77,35.03 826.8,34.68 820.83,34.26C814.85,33.84 808.87,33.3 802.9,32.74C796.92,32.18 790.95,31.52 784.98,30.92C779,30.31 773.03,29.68 767.05,29.11C761.08,28.54 755.11,27.98 749.13,27.5C743.16,27.02 737.18,26.6 731.2,26.21C725.23,25.82 719.25,25.49 713.28,25.17C707.3,24.85 701.33,24.57 695.35,24.29C689.37,24.01 683.4,23.76 677.42,23.51C671.45,23.26 665.47,23.02 659.5,22.81C653.52,22.6 647.55,22.4 641.57,22.23C635.6,22.06 629.62,21.9 623.65,21.78Q617.67,21.65 605.72,21.48Z" style="vector-effect: none; stroke-width: 2px; stroke: rgb(181, 181, 181); stroke-opacity: 1; fill: rgb(181, 181, 181); fill-opacity: 1;"/><path class="box" d="M877.23,24.81V17.42M823.43,24.81V17.42H959.13V24.81ZM823.43,21.12H715.33M959.13,21.12H980.1" style="vector-effect: non-scaling-stroke; stroke-width: 2px; stroke: rgb(181, 181, 181); stroke-opacity: 1; fill: rgb(181, 181, 181); fill-opacity: 1;"/><path class="mean" d="M878.85,24.81V17.42" style="fill: none; vector-effect: non-scaling-stroke; stroke-width: 2px; stroke-dasharray: 4px, 2px; stroke: rgb(181, 181, 181); stroke-opacity: 1;"/></g></g><g class="scatterlayer mlayer"><g class="trace scatter trace72d4ed" style="stroke-miterlimit: 2; opacity: 1;"><g class="fills"/><g class="errorbars"/><g class="lines"/><g class="points"><path class="point" transform="translate(715.33,21.12)" d="M2,0A2,2 0 1,1 0,-2A2,2 0 0,1 2,0Z" style="opacity: 1; stroke-width: 0px; fill: rgb(11, 121, 230); fill-opacity: 1;"/></g><g class="text"/></g><g class="trace scatter trace94b9c1" style="stroke-miterlimit: 2; opacity: 1;"><g class="fills"/><g class="errorbars"/><g class="lines"/><g class="points"><path class="point" transform="translate(941.86,21.12)" d="M2,0A2,2 0 1,1 0,-2A2,2 0 0,1 2,0Z" style="opacity: 1; stroke-width: 0px; fill: rgb(11, 121, 230); fill-opacity: 1;"/></g><g class="text"/></g><g class="trace scatter trace44fa80" style="stroke-miterlimit: 2; opacity: 1;"><g class="fills"/><g class="errorbars"/><g class="lines"/><g class="points"><path class="point" transform="translate(964.89,21.12)" d="M2,0A2,2 0 1,1 0,-2A2,2 0 0,1 2,0Z" style="opacity: 1; stroke-width: 0px; fill: rgb(11, 121, 230); fill-opacity: 1;"/></g><g class="text"/></g><g class="trace scatter tracec8eb5e" style="stroke-miterlimit: 2; opacity: 1;"><g class="fills"/><g class="errorbars"/><g class="lines"/><g class="points"><path class="point" transform="translate(835.45,21.12)" d="M2,0A2,2 0 1,1 0,-2A2,2 0 0,1 2,0Z" style="opacity: 1; stroke-width: 0px; fill: rgb(11, 121, 230); fill-opacity: 1;"/></g><g class="text"/></g><g class="trace scatter trace071f4b" style="stroke-miterlimit: 2; opacity: 1;"><g class="fills"/><g class="errorbars"/><g class="lines"/><g class="points"><path class="point" transform="translate(877.23,21.12)" d="M2,0A2,2 0 1,1 0,-2A2,2 0 0,1 2,0Z" style="opacity: 1; stroke-width: 0px; fill: rgb(11, 121, 230); fill-opacity: 1;"/></g><g class="text"/></g><g class="trace scatter trace40c9f1" style="stroke-miterlimit: 2; opacity: 1;"><g class="fills"/><g class="errorbars"/><g class="lines"/><g class="points"><path class="point" transform="translate(846.05,21.12)" d="M2,0A2,2 0 1,1 0,-2A2,2 0 0,1 2,0Z" style="opacity: 1; stroke-width: 0px; fill: rgb(11, 121, 230); fill-opacity: 1;"/></g><g class="text"/></g><g class="trace scatter trace3c9b5d" style="stroke-miterlimit: 2; opacity: 1;"><g class="fills"/><g class="errorbars"/><g class="lines"/><g class="points"><path class="point" transform="translate(908.54,21.12)" d="M2,0A2,2 0 1,1 0,-2A2,2 0 0,1 2,0Z" style="opacity: 1; stroke-width: 0px; fill: rgb(11, 121, 230); fill-opacity: 1;"/></g><g class="text"/></g><g class="trace scatter traced68d5d" style="stroke-miterlimit: 2; opacity: 1;"><g class="fills"/><g class="errorbars"/><g class="lines"/><g class="points"><path class="point" transform="translate(972.73,21.12)" d="M2,0A2,2 0 1,1 0,-2A2,2 0 0,1 2,0Z" style="opacity: 1; stroke-width: 0px; fill: rgb(11, 121, 230); fill-opacity: 1;"/></g><g class="text"/></g><g class="trace scatter trace4f195a" style="stroke-miterlimit: 2; opacity: 1;"><g class="fills"/><g class="errorbars"/><g class="lines"/><g class="points"><path class="point" transform="translate(805.77,21.12)" d="M2,0A2,2 0 1,1 0,-2A2,2 0 0,1 2,0Z" style="opacity: 1; stroke-width: 0px; fill: rgb(11, 121, 230); fill-opacity: 1;"/></g><g class="text"/></g><g class="trace scatter trace610645" style="stroke-miterlimit: 2; opacity: 1;"><g class="fills"/><g class="errorbars"/><g class="lines"/><g class="points"><path class="point" transform="translate(980.1,21.12)" d="M2,0A2,2 0 1,1 0,-2A2,2 0 0,1 2,0Z" style="opacity: 1; stroke-width: 0px; fill: rgb(11, 121, 230); fill-opacity: 1;"/></g><g class="text"/></g><g class="trace scatter traced1f2a1" style="stroke-miterlimit: 2; opacity: 1;"><g class="fills"/><g class="errorbars"/><g class="lines"/><g class="points"><path class="point" transform="translate(819.42,21.12)" d="M2,0A2,2 0 1,1 0,-2A2,2 0 0,1 2,0Z" style="opacity: 1; stroke-width: 0px; fill: rgb(11, 121, 230); fill-opacity: 1;"/></g><g class="text"/></g></g></g></g><path class="xlines-above crisp" d="M0,0" style="fill: none;"/><path class="ylines-above crisp" d="M0,0" style="fill: none;"/><g class="overlines-above"/><g class="xaxislayer-above"><g class="x2tick"><text text-anchor="middle" x="0" y="172.61538461538464" transform="translate(104.88,0)" style="font-family: 'Lucida Grande', 'Open Sans', verdana, arial, sans-serif; font-size: 9px; fill: rgb(0, 0, 0); fill-opacity: 0.5; white-space: pre; opacity: 1;">0</text></g><g class="x2tick"><text text-anchor="middle" x="0" y="172.61538461538464" style="font-family: 'Lucida Grande', 'Open Sans', verdana, arial, sans-serif; font-size: 9px; fill: rgb(0, 0, 0); fill-opacity: 0.5; white-space: pre; opacity: 1;" transform="translate(292.14,0)">5T</text></g><g class="x2tick"><text text-anchor="middle" x="0" y="172.61538461538464" style="font-family: 'Lucida Grande', 'Open Sans', verdana, arial, sans-serif; font-size: 9px; fill: rgb(0, 0, 0); fill-opacity: 0.5; white-space: pre; opacity: 1;" transform="translate(479.4,0)">10T</text></g><g class="x2tick"><text text-anchor="middle" x="0" y="172.61538461538464" style="font-family: 'Lucida Grande', 'Open Sans', verdana, arial, sans-serif; font-size: 9px; fill: rgb(0, 0, 0); fill-opacity: 0.5; white-space: pre; opacity: 1;" transform="translate(666.66,0)">15T</text></g><g class="x2tick"><text text-anchor="middle" x="0" y="172.61538461538464" style="font-family: 'Lucida Grande', 'Open Sans', verdana, arial, sans-serif; font-size: 9px; fill: rgb(0, 0, 0); fill-opacity: 0.5; white-space: pre; opacity: 1;" transform="translate(853.93,0)">20T</text></g><g class="x2tick"><text text-anchor="middle" x="0" y="172.61538461538464" style="font-family: 'Lucida Grande', 'Open Sans', verdana, arial, sans-serif; font-size: 9px; fill: rgb(0, 0, 0); fill-opacity: 0.5; white-space: pre; opacity: 1;" transform="translate(1041.19,0)">25T</text></g></g><g class="yaxislayer-above"><g class="y2tick"><text text-anchor="end" x="99" y="3.15" transform="translate(0,141.5046153846154)" style="font-family: 'Lucida Grande', 'Open Sans', verdana, arial, sans-serif; font-size: 9px; fill: rgb(0, 0, 0); fill-opacity: 0.5; white-space: pre; opacity: 1;">TotalCurrent  </text></g></g><g class="overaxes-above"/></g><g class="subplot x3y3"><g class="layer-subplot"><g class="shapelayer"/><g class="imagelayer"/></g><g class="minor-gridlayer"><g class="x3"/><g class="y3"/></g><g class="gridlayer"><g class="x3"><path class="x3grid crisp" transform="translate(248.22,0)" d="M0,190.76923076923077v42.230769230769226" style="stroke: rgb(0, 0, 0); stroke-opacity: 0.1; stroke-width: 1px;"/><path class="x3grid crisp" transform="translate(391.56,0)" d="M0,190.76923076923077v42.230769230769226" style="stroke: rgb(0, 0, 0); stroke-opacity: 0.1; stroke-width: 1px;"/><path class="x3grid crisp" transform="translate(534.9,0)" d="M0,190.76923076923077v42.230769230769226" style="stroke: rgb(0, 0, 0); stroke-opacity: 0.1; stroke-width: 1px;"/><path class="x3grid crisp" transform="translate(678.24,0)" d="M0,190.76923076923077v42.230769230769226" style="stroke: rgb(0, 0, 0); stroke-opacity: 0.1; stroke-width: 1px;"/><path class="x3grid crisp" transform="translate(821.58,0)" d="M0,190.76923076923077v42.230769230769226" style="stroke: rgb(0, 0, 0); stroke-opacity: 0.1; stroke-width: 1px;"/><path class="x3grid crisp" transform="translate(964.92,0)" d="M0,190.76923076923077v42.230769230769226" style="stroke: rgb(0, 0, 0); stroke-opacity: 0.1; stroke-width: 1px;"/></g><g class="y3"><path class="y3grid crisp" transform="translate(0,211.88923076923078)" d="M100,0h985" style="stroke: rgb(0, 0, 0); stroke-opacity: 0.1; stroke-width: 1px;"/></g></g><g class="zerolinelayer"><path class="x3zl zl crisp" transform="translate(104.88,0)" d="M0,190.76923076923077v42.230769230769226" style="stroke: rgb(0, 0, 0); stroke-opacity: 0.1; stroke-width: 2px;"/></g><g class="layer-between"><g class="shapelayer"/><g class="imagelayer"/></g><path class="xlines-below"/><path class="ylines-below"/><g class="overlines-below"/><g class="xaxislayer-below"/><g class="yaxislayer-below"/><g class="overaxes-below"/><g class="overplot"><g class="x3y3" transform="translate(100,190.76923076923077)" clip-path="url(#clipacc445x3y3plot)"><g class="violinlayer mlayer"><g class="trace violins" style="opacity: 0.5;"><path class="violin" d="M662.03,20.8Q667.47,20.64 670.19,20.54C672.91,20.43 675.63,20.31 678.35,20.17C681.07,20.03 683.79,19.87 686.51,19.72C689.23,19.57 691.95,19.41 694.67,19.28C697.39,19.15 700.11,19.02 702.83,18.94C705.55,18.86 708.27,18.81 710.99,18.81C713.71,18.81 716.44,18.85 719.16,18.93C721.88,19 724.6,19.13 727.32,19.26C730.04,19.39 732.76,19.55 735.48,19.7C738.2,19.85 740.92,20.01 743.64,20.15C746.36,20.29 749.08,20.41 751.8,20.52C754.52,20.63 757.24,20.72 759.96,20.79C762.68,20.86 765.4,20.91 768.12,20.95C770.84,20.99 773.57,21.01 776.29,21.02C779.01,21.03 781.73,21.03 784.45,21.01C787.17,20.99 789.89,20.96 792.61,20.9C795.33,20.84 798.05,20.76 800.77,20.63C803.49,20.5 806.21,20.35 808.93,20.11C811.65,19.87 814.38,19.58 817.09,19.2C819.82,18.81 822.54,18.35 825.25,17.8C827.98,17.25 830.71,16.59 833.42,15.88C836.15,15.17 838.86,14.34 841.58,13.53C844.3,12.72 847.02,11.83 849.74,11.03C852.46,10.23 855.17,9.4 857.9,8.74C860.61,8.08 863.33,7.47 866.06,7.07C868.77,6.67 871.5,6.4 874.22,6.33C876.94,6.26 879.67,6.38 882.38,6.62C885.11,6.86 887.84,7.3 890.55,7.78C893.28,8.26 895.99,8.9 898.71,9.49C901.43,10.09 904.15,10.76 906.87,11.35C909.59,11.94 912.3,12.54 915.03,13.05C917.74,13.56 920.47,14.01 923.19,14.4C925.91,14.79 928.63,15.1 931.35,15.38C934.07,15.65 936.79,15.86 939.51,16.05C942.23,16.24 944.96,16.37 947.68,16.51C950.4,16.64 953.12,16.75 955.84,16.86C958.56,16.97 961.28,17.06 964,17.17C966.72,17.28 969.44,17.38 972.16,17.51C974.88,17.64 977.6,17.78 980.32,17.93C983.04,18.09 985.76,18.26 988.48,18.44C991.2,18.62 993.92,18.83 996.64,19.02C999.36,19.22 1002.08,19.43 1004.8,19.61C1007.52,19.79 1010.25,19.97 1012.97,20.12C1015.69,20.27 1018.41,20.41 1021.13,20.52Q1023.85,20.63 1029.29,20.8L1029.29,21.43Q1023.85,21.6 1021.13,21.71C1018.41,21.82 1015.69,21.96 1012.97,22.11C1010.25,22.26 1007.52,22.45 1004.8,22.63C1002.08,22.81 999.36,23.02 996.64,23.21C993.92,23.4 991.2,23.61 988.48,23.79C985.76,23.97 983.04,24.15 980.32,24.31C977.6,24.46 974.88,24.59 972.16,24.72C969.44,24.84 966.72,24.95 964,25.06C961.28,25.17 958.56,25.27 955.84,25.38C953.12,25.49 950.4,25.59 947.68,25.72C944.96,25.86 942.23,26 939.51,26.19C936.79,26.38 934.07,26.58 931.35,26.85C928.63,27.12 925.91,27.44 923.19,27.83C920.47,28.22 917.74,28.67 915.03,29.18C912.3,29.69 909.59,30.29 906.87,30.88C904.15,31.47 901.43,32.14 898.71,32.74C895.99,33.33 893.28,33.97 890.55,34.45C887.84,34.93 885.11,35.37 882.38,35.61C879.67,35.85 876.94,35.97 874.22,35.9C871.5,35.83 868.77,35.56 866.06,35.16C863.33,34.76 860.61,34.14 857.9,33.49C855.17,32.83 852.45,32.01 849.74,31.21C847.01,30.41 844.3,29.51 841.58,28.7C838.86,27.89 836.15,27.06 833.42,26.35C830.71,25.64 827.98,24.98 825.25,24.43C822.54,23.88 819.82,23.42 817.09,23.03C814.38,22.65 811.65,22.36 808.93,22.12C806.21,21.88 803.49,21.73 800.77,21.6C798.05,21.47 795.33,21.39 792.61,21.33C789.89,21.27 787.17,21.24 784.45,21.22C781.73,21.2 779.01,21.2 776.29,21.21C773.57,21.22 770.84,21.24 768.12,21.28C765.4,21.32 762.68,21.37 759.96,21.44C757.24,21.51 754.52,21.6 751.8,21.71C749.08,21.82 746.36,21.94 743.64,22.08C740.92,22.22 738.2,22.38 735.48,22.53C732.76,22.68 730.04,22.84 727.32,22.97C724.6,23.1 721.88,23.23 719.16,23.3C716.44,23.38 713.71,23.42 710.99,23.42C708.27,23.42 705.55,23.37 702.83,23.29C700.11,23.21 697.39,23.08 694.67,22.95C691.95,22.82 689.23,22.66 686.51,22.51C683.79,22.36 681.07,22.2 678.35,22.06C675.63,21.92 672.91,21.8 670.19,21.69Q667.47,21.59 662.03,21.43Z" style="vector-effect: none; stroke-width: 2px; stroke: rgb(181, 181, 181); stroke-opacity: 1; fill: rgb(181, 181, 181); fill-opacity: 1;"/><path class="box" d="M878.87,24.81V17.42M858.81,24.81V17.42H909.42V24.81ZM858.81,21.12H855.64M909.42,21.12H980.1" style="vector-effect: non-scaling-stroke; stroke-width: 2px; stroke: rgb(181, 181, 181); stroke-opacity: 1; fill: rgb(181, 181, 181); fill-opacity: 1;"/><path class="mean" d="M878.42,24.81V17.42" style="fill: none; vector-effect: non-scaling-stroke; stroke-width: 2px; stroke-dasharray: 4px, 2px; stroke: rgb(181, 181, 181); stroke-opacity: 1;"/></g></g><g class="scatterlayer mlayer"><g class="trace scatter trace30b9e5" style="stroke-miterlimit: 2; opacity: 1;"><g class="fills"/><g class="errorbars"/><g class="lines"/><g class="points"><path class="point" transform="translate(711.22,21.12)" d="M2,0A2,2 0 1,1 0,-2A2,2 0 0,1 2,0Z" style="opacity: 1; stroke-width: 0px; fill: rgb(11, 121, 230); fill-opacity: 1;"/></g><g class="text"/></g><g class="trace scatter trace1625b8" style="stroke-miterlimit: 2; opacity: 1;"><g class="fills"/><g class="errorbars"/><g class="lines"/><g class="points"><path class="point" transform="translate(877.03,21.12)" d="M2,0A2,2 0 1,1 0,-2A2,2 0 0,1 2,0Z" style="opacity: 1; stroke-width: 0px; fill: rgb(11, 121, 230); fill-opacity: 1;"/></g><g class="text"/></g><g class="trace scatter trace757fdd" style="stroke-miterlimit: 2; opacity: 1;"><g class="fills"/><g class="errorbars"/><g class="lines"/><g class="points"><path class="point" transform="translate(944.63,21.12)" d="M2,0A2,2 0 1,1 0,-2A2,2 0 0,1 2,0Z" style="opacity: 1; stroke-width: 0px; fill: rgb(11, 121, 230); fill-opacity: 1;"/></g><g class="text"/></g><g class="trace scatter trace2b3b6f" style="stroke-miterlimit: 2; opacity: 1;"><g class="fills"/><g class="errorbars"/><g class="lines"/><g class="points"><path class="point" transform="translate(855.89,21.12)" d="M2,0A2,2 0 1,1 0,-2A2,2 0 0,1 2,0Z" style="opacity: 1; stroke-width: 0px; fill: rgb(11, 121, 230); fill-opacity: 1;"/></g><g class="text"/></g><g class="trace scatter tracecda645" style="stroke-miterlimit: 2; opacity: 1;"><g class="fills"/><g class="errorbars"/><g class="lines"/><g class="points"><path class="point" transform="translate(878.87,21.12)" d="M2,0A2,2 0 1,1 0,-2A2,2 0 0,1 2,0Z" style="opacity: 1; stroke-width: 0px; fill: rgb(11, 121, 230); fill-opacity: 1;"/></g><g class="text"/></g><g class="trace scatter tracee5bfa4" style="stroke-miterlimit: 2; opacity: 1;"><g class="fills"/><g class="errorbars"/><g class="lines"/><g class="points"><path class="point" transform="translate(886.6,21.12)" d="M2,0A2,2 0 1,1 0,-2A2,2 0 0,1 2,0Z" style="opacity: 1; stroke-width: 0px; fill: rgb(11, 121, 230); fill-opacity: 1;"/></g><g class="text"/></g><g class="trace scatter trace5b5440" style="stroke-miterlimit: 2; opacity: 1;"><g class="fills"/><g class="errorbars"/><g class="lines"/><g class="points"><path class="point" transform="translate(888.85,21.12)" d="M2,0A2,2 0 1,1 0,-2A2,2 0 0,1 2,0Z" style="opacity: 1; stroke-width: 0px; fill: rgb(11, 121, 230); fill-opacity: 1;"/></g><g class="text"/></g><g class="trace scatter trace73ae3e" style="stroke-miterlimit: 2; opacity: 1;"><g class="fills"/><g class="errorbars"/><g class="lines"/><g class="points"><path class="point" transform="translate(916.27,21.12)" d="M2,0A2,2 0 1,1 0,-2A2,2 0 0,1 2,0Z" style="opacity: 1; stroke-width: 0px; fill: rgb(11, 121, 230); fill-opacity: 1;"/></g><g class="text"/></g><g class="trace scatter trace4bb24a" style="stroke-miterlimit: 2; opacity: 1;"><g class="fills"/><g class="errorbars"/><g class="lines"/><g class="points"><path class="point" transform="translate(855.64,21.12)" d="M2,0A2,2 0 1,1 0,-2A2,2 0 0,1 2,0Z" style="opacity: 1; stroke-width: 0px; fill: rgb(11, 121, 230); fill-opacity: 1;"/></g><g class="text"/></g><g class="trace scatter tracea7ba6f" style="stroke-miterlimit: 2; opacity: 1;"><g class="fills"/><g class="errorbars"/><g class="lines"/><g class="points"><path class="point" transform="translate(980.1,21.12)" d="M2,0A2,2 0 1,1 0,-2A2,2 0 0,1 2,0Z" style="opacity: 1; stroke-width: 0px; fill: rgb(11, 121, 230); fill-opacity: 1;"/></g><g class="text"/></g><g class="trace scatter tracecfc1a2" style="stroke-miterlimit: 2; opacity: 1;"><g class="fills"/><g class="errorbars"/><g class="lines"/><g class="points"><path class="point" transform="translate(867.55,21.12)" d="M2,0A2,2 0 1,1 0,-2A2,2 0 0,1 2,0Z" style="opacity: 1; stroke-width: 0px; fill: rgb(11, 121, 230); fill-opacity: 1;"/></g><g class="text"/></g></g></g></g><path class="xlines-above crisp" d="M0,0" style="fill: none;"/><path class="ylines-above crisp" d="M0,0" style="fill: none;"/><g class="overlines-above"/><g class="xaxislayer-above"><g class="x3tick"><text text-anchor="middle" x="0" y="243" transform="translate(104.88,0)" style="font-family: 'Lucida Grande', 'Open Sans', verdana, arial, sans-serif; font-size: 9px; fill: rgb(0, 0, 0); fill-opacity: 0.5; white-space: pre; opacity: 1;">0</text></g><g class="x3tick"><text text-anchor="middle" x="0" y="243" style="font-family: 'Lucida Grande', 'Open Sans', verdana, arial, sans-serif; font-size: 9px; fill: rgb(0, 0, 0); fill-opacity: 0.5; white-space: pre; opacity: 1;" transform="translate(248.22,0)">50B</text></g><g class="x3tick"><text text-anchor="middle" x="0" y="243" style="font-family: 'Lucida Grande', 'Open Sans', verdana, arial, sans-serif; font-size: 9px; fill: rgb(0, 0, 0); fill-opacity: 0.5; white-space: pre; opacity: 1;" transform="translate(391.56,0)">100B</text></g><g class="x3tick"><text text-anchor="middle" x="0" y="243" style="font-family: 'Lucida Grande', 'Open Sans', verdana, arial, sans-serif; font-size: 9px; fill: rgb(0, 0, 0); fill-opacity: 0.5; white-space: pre; opacity: 1;" transform="translate(534.9,0)">150B</text></g><g class="x3tick"><text text-anchor="middle" x="0" y="243" style="font-family: 'Lucida Grande', 'Open Sans', verdana, arial, sans-serif; font-size: 9px; fill: rgb(0, 0, 0); fill-opacity: 0.5; white-space: pre; opacity: 1;" transform="translate(678.24,0)">200B</text></g><g class="x3tick"><text text-anchor="middle" x="0" y="243" style="font-family: 'Lucida Grande', 'Open Sans', verdana, arial, sans-serif; font-size: 9px; fill: rgb(0, 0, 0); fill-opacity: 0.5; white-space: pre; opacity: 1;" transform="translate(821.58,0)">250B</text></g><g class="x3tick"><text text-anchor="middle" x="0" y="243" style="font-family: 'Lucida Grande', 'Open Sans', verdana, arial, sans-serif; font-size: 9px; fill: rgb(0, 0, 0); fill-opacity: 0.5; white-space: pre; opacity: 1;" transform="translate(964.92,0)">300B</text></g></g><g class="yaxislayer-above"><g class="y3tick"><text text-anchor="end" x="99" y="3.15" transform="translate(0,211.88923076923078)" style="font-family: 'Lucida Grande', 'Open Sans', verdana, arial, sans-serif; font-size: 9px; fill: rgb(0, 0, 0); fill-opacity: 0.5; white-space: pre; opacity: 1;">ScanCurrent  </text></g></g><g class="overaxes-above"/></g></g><g class="polarlayer"/><g class="smithlayer"/><g class="ternarylayer"/><g class="geolayer"/><g class="funnelarealayer"/><g class="pielayer"/><g class="iciclelayer"/><g class="treemaplayer"/><g class="sunburstlayer"/><g class="glimages"/><defs id="topdefs-acc445"><g class="clips"/></defs><g class="layer-above"><g class="imagelayer"/><g class="shapelayer"/></g><g class="infolayer"><g class="g-gtitle"><text class="gtitle" x="550" y="25" text-anchor="middle" dy="0em" style="opacity: 1; font-family: 'Lucida Grande', 'Open Sans', verdana, arial, sans-serif; font-size: 20px; fill: rgb(42, 63, 95); fill-opacity: 1; white-space: pre;"><tspan class="line" dy="0em" x="550" y="25">General Stats</tspan><tspan class="line" dy="1.3em" x="550" y="25">​<tspan style="font-size:70%" dy="-0.6em">11 samples</tspan><tspan dy="0.42em">​</tspan></tspan></text></g><g class="g-xtitle"/><g class="g-x2title"/><g class="g-x3title"/><g class="g-ytitle"/><g class="g-y2title"/><g class="g-y3title"/></g></svg>