<?xml version="1.0" encoding="utf-8" standalone="no"?>
<!DOCTYPE svg PUBLIC "-//W3C//DTD SVG 1.1//EN"
  "http://www.w3.org/Graphics/SVG/1.1/DTD/svg11.dtd">
<!-- Created with matplotlib (https://matplotlib.org/) -->
<svg height="450.888125pt" version="1.1" viewBox="0 0 853.511875 450.888125" width="853.511875pt" xmlns="http://www.w3.org/2000/svg" xmlns:xlink="http://www.w3.org/1999/xlink">
 <metadata>
  <rdf:RDF xmlns:cc="http://creativecommons.org/ns#" xmlns:dc="http://purl.org/dc/elements/1.1/" xmlns:rdf="http://www.w3.org/1999/02/22-rdf-syntax-ns#">
   <cc:Work>
    <dc:type rdf:resource="http://purl.org/dc/dcmitype/StillImage"/>
    <dc:date>2023-09-15T08:23:42.733147</dc:date>
    <dc:format>image/svg+xml</dc:format>
    <dc:creator>
     <cc:Agent>
      <dc:title>Matplotlib v3.3.4, https://matplotlib.org/</dc:title>
     </cc:Agent>
    </dc:creator>
   </cc:Work>
  </rdf:RDF>
 </metadata>
 <defs>
  <style type="text/css">*{stroke-linecap:butt;stroke-linejoin:round;}</style>
 </defs>
 <g id="figure_1">
  <g id="axes_1">
   <g id="patch_1">
    <path d="M 65.111875 364.528125 
L 846.311875 364.528125 
L 846.311875 7.2 
L 65.111875 7.2 
z
" style="fill:#ffffff;"/>
   </g>
   <g id="matplotlib.axis_1">
    <g id="xtick_1">
     <g id="line2d_1">
      <path clip-path="url(#pb529075ef0)" d="M 65.111875 364.528125 
L 65.111875 7.2 
" style="fill:none;stroke:#dedede;stroke-linecap:square;"/>
     </g>
     <g id="text_1">
      <!-- 0 -->
      <g transform="translate(62.566875 377.606875)scale(0.08 -0.08)">
       <defs>
        <path d="M 31.78125 66.40625 
Q 24.171875 66.40625 20.328125 58.90625 
Q 16.5 51.421875 16.5 36.375 
Q 16.5 21.390625 20.328125 13.890625 
Q 24.171875 6.390625 31.78125 6.390625 
Q 39.453125 6.390625 43.28125 13.890625 
Q 47.125 21.390625 47.125 36.375 
Q 47.125 51.421875 43.28125 58.90625 
Q 39.453125 66.40625 31.78125 66.40625 
z
M 31.78125 74.21875 
Q 44.046875 74.21875 50.515625 64.515625 
Q 56.984375 54.828125 56.984375 36.375 
Q 56.984375 17.96875 50.515625 8.265625 
Q 44.046875 -1.421875 31.78125 -1.421875 
Q 19.53125 -1.421875 13.0625 8.265625 
Q 6.59375 17.96875 6.59375 36.375 
Q 6.59375 54.828125 13.0625 64.515625 
Q 19.53125 74.21875 31.78125 74.21875 
z
" id="DejaVuSans-48"/>
       </defs>
       <use xlink:href="#DejaVuSans-48"/>
      </g>
     </g>
    </g>
    <g id="xtick_2">
     <g id="line2d_2">
      <path clip-path="url(#pb529075ef0)" d="M 161.035254 364.528125 
L 161.035254 7.2 
" style="fill:none;stroke:#dedede;stroke-linecap:square;"/>
     </g>
     <g id="text_2">
      <!-- 250 -->
      <g transform="translate(153.400254 377.606875)scale(0.08 -0.08)">
       <defs>
        <path d="M 19.1875 8.296875 
L 53.609375 8.296875 
L 53.609375 0 
L 7.328125 0 
L 7.328125 8.296875 
Q 12.9375 14.109375 22.625 23.890625 
Q 32.328125 33.6875 34.8125 36.53125 
Q 39.546875 41.84375 41.421875 45.53125 
Q 43.3125 49.21875 43.3125 52.78125 
Q 43.3125 58.59375 39.234375 62.25 
Q 35.15625 65.921875 28.609375 65.921875 
Q 23.96875 65.921875 18.8125 64.3125 
Q 13.671875 62.703125 7.8125 59.421875 
L 7.8125 69.390625 
Q 13.765625 71.78125 18.9375 73 
Q 24.125 74.21875 28.421875 74.21875 
Q 39.75 74.21875 46.484375 68.546875 
Q 53.21875 62.890625 53.21875 53.421875 
Q 53.21875 48.921875 51.53125 44.890625 
Q 49.859375 40.875 45.40625 35.40625 
Q 44.1875 33.984375 37.640625 27.21875 
Q 31.109375 20.453125 19.1875 8.296875 
z
" id="DejaVuSans-50"/>
        <path d="M 10.796875 72.90625 
L 49.515625 72.90625 
L 49.515625 64.59375 
L 19.828125 64.59375 
L 19.828125 46.734375 
Q 21.96875 47.46875 24.109375 47.828125 
Q 26.265625 48.1875 28.421875 48.1875 
Q 40.625 48.1875 47.75 41.5 
Q 54.890625 34.8125 54.890625 23.390625 
Q 54.890625 11.625 47.5625 5.09375 
Q 40.234375 -1.421875 26.90625 -1.421875 
Q 22.3125 -1.421875 17.546875 -0.640625 
Q 12.796875 0.140625 7.71875 1.703125 
L 7.71875 11.625 
Q 12.109375 9.234375 16.796875 8.0625 
Q 21.484375 6.890625 26.703125 6.890625 
Q 35.15625 6.890625 40.078125 11.328125 
Q 45.015625 15.765625 45.015625 23.390625 
Q 45.015625 31 40.078125 35.4375 
Q 35.15625 39.890625 26.703125 39.890625 
Q 22.75 39.890625 18.8125 39.015625 
Q 14.890625 38.140625 10.796875 36.28125 
z
" id="DejaVuSans-53"/>
       </defs>
       <use xlink:href="#DejaVuSans-50"/>
       <use x="63.623047" xlink:href="#DejaVuSans-53"/>
       <use x="127.246094" xlink:href="#DejaVuSans-48"/>
      </g>
     </g>
    </g>
    <g id="xtick_3">
     <g id="line2d_3">
      <path clip-path="url(#pb529075ef0)" d="M 256.958633 364.528125 
L 256.958633 7.2 
" style="fill:none;stroke:#dedede;stroke-linecap:square;"/>
     </g>
     <g id="text_3">
      <!-- 500 -->
      <g transform="translate(249.323633 377.606875)scale(0.08 -0.08)">
       <use xlink:href="#DejaVuSans-53"/>
       <use x="63.623047" xlink:href="#DejaVuSans-48"/>
       <use x="127.246094" xlink:href="#DejaVuSans-48"/>
      </g>
     </g>
    </g>
    <g id="xtick_4">
     <g id="line2d_4">
      <path clip-path="url(#pb529075ef0)" d="M 352.882013 364.528125 
L 352.882013 7.2 
" style="fill:none;stroke:#dedede;stroke-linecap:square;"/>
     </g>
     <g id="text_4">
      <!-- 750 -->
      <g transform="translate(345.247013 377.606875)scale(0.08 -0.08)">
       <defs>
        <path d="M 8.203125 72.90625 
L 55.078125 72.90625 
L 55.078125 68.703125 
L 28.609375 0 
L 18.3125 0 
L 43.21875 64.59375 
L 8.203125 64.59375 
z
" id="DejaVuSans-55"/>
       </defs>
       <use xlink:href="#DejaVuSans-55"/>
       <use x="63.623047" xlink:href="#DejaVuSans-53"/>
       <use x="127.246094" xlink:href="#DejaVuSans-48"/>
      </g>
     </g>
    </g>
    <g id="xtick_5">
     <g id="line2d_5">
      <path clip-path="url(#pb529075ef0)" d="M 448.805392 364.528125 
L 448.805392 7.2 
" style="fill:none;stroke:#dedede;stroke-linecap:square;"/>
     </g>
     <g id="text_5">
      <!-- 1000 -->
      <g transform="translate(438.625392 377.606875)scale(0.08 -0.08)">
       <defs>
        <path d="M 12.40625 8.296875 
L 28.515625 8.296875 
L 28.515625 63.921875 
L 10.984375 60.40625 
L 10.984375 69.390625 
L 28.421875 72.90625 
L 38.28125 72.90625 
L 38.28125 8.296875 
L 54.390625 8.296875 
L 54.390625 0 
L 12.40625 0 
z
" id="DejaVuSans-49"/>
       </defs>
       <use xlink:href="#DejaVuSans-49"/>
       <use x="63.623047" xlink:href="#DejaVuSans-48"/>
       <use x="127.246094" xlink:href="#DejaVuSans-48"/>
       <use x="190.869141" xlink:href="#DejaVuSans-48"/>
      </g>
     </g>
    </g>
    <g id="xtick_6">
     <g id="line2d_6">
      <path clip-path="url(#pb529075ef0)" d="M 544.728771 364.528125 
L 544.728771 7.2 
" style="fill:none;stroke:#dedede;stroke-linecap:square;"/>
     </g>
     <g id="text_6">
      <!-- 1250 -->
      <g transform="translate(534.548771 377.606875)scale(0.08 -0.08)">
       <use xlink:href="#DejaVuSans-49"/>
       <use x="63.623047" xlink:href="#DejaVuSans-50"/>
       <use x="127.246094" xlink:href="#DejaVuSans-53"/>
       <use x="190.869141" xlink:href="#DejaVuSans-48"/>
      </g>
     </g>
    </g>
    <g id="xtick_7">
     <g id="line2d_7">
      <path clip-path="url(#pb529075ef0)" d="M 640.65215 364.528125 
L 640.65215 7.2 
" style="fill:none;stroke:#dedede;stroke-linecap:square;"/>
     </g>
     <g id="text_7">
      <!-- 1500 -->
      <g transform="translate(630.47215 377.606875)scale(0.08 -0.08)">
       <use xlink:href="#DejaVuSans-49"/>
       <use x="63.623047" xlink:href="#DejaVuSans-53"/>
       <use x="127.246094" xlink:href="#DejaVuSans-48"/>
       <use x="190.869141" xlink:href="#DejaVuSans-48"/>
      </g>
     </g>
    </g>
    <g id="xtick_8">
     <g id="line2d_8">
      <path clip-path="url(#pb529075ef0)" d="M 736.575529 364.528125 
L 736.575529 7.2 
" style="fill:none;stroke:#dedede;stroke-linecap:square;"/>
     </g>
     <g id="text_8">
      <!-- 1750 -->
      <g transform="translate(726.395529 377.606875)scale(0.08 -0.08)">
       <use xlink:href="#DejaVuSans-49"/>
       <use x="63.623047" xlink:href="#DejaVuSans-55"/>
       <use x="127.246094" xlink:href="#DejaVuSans-53"/>
       <use x="190.869141" xlink:href="#DejaVuSans-48"/>
      </g>
     </g>
    </g>
    <g id="xtick_9">
     <g id="line2d_9">
      <path clip-path="url(#pb529075ef0)" d="M 832.498908 364.528125 
L 832.498908 7.2 
" style="fill:none;stroke:#dedede;stroke-linecap:square;"/>
     </g>
     <g id="text_9">
      <!-- 2000 -->
      <g transform="translate(822.318908 377.606875)scale(0.08 -0.08)">
       <use xlink:href="#DejaVuSans-50"/>
       <use x="63.623047" xlink:href="#DejaVuSans-48"/>
       <use x="127.246094" xlink:href="#DejaVuSans-48"/>
       <use x="190.869141" xlink:href="#DejaVuSans-48"/>
      </g>
     </g>
    </g>
   </g>
   <g id="matplotlib.axis_2">
    <g id="ytick_1">
     <g id="text_10">
      <!-- 0.0 ~ 0.1 -->
      <g transform="translate(20.878125 13.742592)scale(0.08 -0.08)">
       <defs>
        <path d="M 10.6875 12.40625 
L 21 12.40625 
L 21 0 
L 10.6875 0 
z
" id="DejaVuSans-46"/>
        <path id="DejaVuSans-32"/>
        <path d="M 73.1875 39.890625 
L 73.1875 31.203125 
Q 68.0625 27.34375 63.6875 25.6875 
Q 59.328125 24.03125 54.59375 24.03125 
Q 49.21875 24.03125 42.09375 26.90625 
Q 41.546875 27.09375 41.3125 27.203125 
Q 40.96875 27.34375 40.234375 27.59375 
Q 32.671875 30.609375 28.078125 30.609375 
Q 23.78125 30.609375 19.578125 28.734375 
Q 15.375 26.859375 10.59375 22.796875 
L 10.59375 31.5 
Q 15.71875 35.359375 20.09375 37.03125 
Q 24.46875 38.71875 29.203125 38.71875 
Q 34.578125 38.71875 41.75 35.796875 
Q 42.234375 35.59375 42.484375 35.5 
Q 42.875 35.359375 43.5625 35.109375 
Q 51.125 32.078125 55.71875 32.078125 
Q 59.90625 32.078125 64.03125 33.9375 
Q 68.171875 35.796875 73.1875 39.890625 
z
" id="DejaVuSans-126"/>
       </defs>
       <use xlink:href="#DejaVuSans-48"/>
       <use x="63.623047" xlink:href="#DejaVuSans-46"/>
       <use x="95.410156" xlink:href="#DejaVuSans-48"/>
       <use x="159.033203" xlink:href="#DejaVuSans-32"/>
       <use x="190.820312" xlink:href="#DejaVuSans-126"/>
       <use x="274.609375" xlink:href="#DejaVuSans-32"/>
       <use x="306.396484" xlink:href="#DejaVuSans-48"/>
       <use x="370.019531" xlink:href="#DejaVuSans-46"/>
       <use x="401.806641" xlink:href="#DejaVuSans-49"/>
      </g>
     </g>
    </g>
    <g id="ytick_2">
     <g id="text_11">
      <!-- 0.1 ~ 0.2 -->
      <g transform="translate(20.878125 20.749026)scale(0.08 -0.08)">
       <use xlink:href="#DejaVuSans-48"/>
       <use x="63.623047" xlink:href="#DejaVuSans-46"/>
       <use x="95.410156" xlink:href="#DejaVuSans-49"/>
       <use x="159.033203" xlink:href="#DejaVuSans-32"/>
       <use x="190.820312" xlink:href="#DejaVuSans-126"/>
       <use x="274.609375" xlink:href="#DejaVuSans-32"/>
       <use x="306.396484" xlink:href="#DejaVuSans-48"/>
       <use x="370.019531" xlink:href="#DejaVuSans-46"/>
       <use x="401.806641" xlink:href="#DejaVuSans-50"/>
      </g>
     </g>
    </g>
    <g id="ytick_3">
     <g id="text_12">
      <!-- 0.2 ~ 0.3 -->
      <g transform="translate(20.878125 27.75546)scale(0.08 -0.08)">
       <defs>
        <path d="M 40.578125 39.3125 
Q 47.65625 37.796875 51.625 33 
Q 55.609375 28.21875 55.609375 21.1875 
Q 55.609375 10.40625 48.1875 4.484375 
Q 40.765625 -1.421875 27.09375 -1.421875 
Q 22.515625 -1.421875 17.65625 -0.515625 
Q 12.796875 0.390625 7.625 2.203125 
L 7.625 11.71875 
Q 11.71875 9.328125 16.59375 8.109375 
Q 21.484375 6.890625 26.8125 6.890625 
Q 36.078125 6.890625 40.9375 10.546875 
Q 45.796875 14.203125 45.796875 21.1875 
Q 45.796875 27.640625 41.28125 31.265625 
Q 36.765625 34.90625 28.71875 34.90625 
L 20.21875 34.90625 
L 20.21875 43.015625 
L 29.109375 43.015625 
Q 36.375 43.015625 40.234375 45.921875 
Q 44.09375 48.828125 44.09375 54.296875 
Q 44.09375 59.90625 40.109375 62.90625 
Q 36.140625 65.921875 28.71875 65.921875 
Q 24.65625 65.921875 20.015625 65.03125 
Q 15.375 64.15625 9.8125 62.3125 
L 9.8125 71.09375 
Q 15.4375 72.65625 20.34375 73.4375 
Q 25.25 74.21875 29.59375 74.21875 
Q 40.828125 74.21875 47.359375 69.109375 
Q 53.90625 64.015625 53.90625 55.328125 
Q 53.90625 49.265625 50.4375 45.09375 
Q 46.96875 40.921875 40.578125 39.3125 
z
" id="DejaVuSans-51"/>
       </defs>
       <use xlink:href="#DejaVuSans-48"/>
       <use x="63.623047" xlink:href="#DejaVuSans-46"/>
       <use x="95.410156" xlink:href="#DejaVuSans-50"/>
       <use x="159.033203" xlink:href="#DejaVuSans-32"/>
       <use x="190.820312" xlink:href="#DejaVuSans-126"/>
       <use x="274.609375" xlink:href="#DejaVuSans-32"/>
       <use x="306.396484" xlink:href="#DejaVuSans-48"/>
       <use x="370.019531" xlink:href="#DejaVuSans-46"/>
       <use x="401.806641" xlink:href="#DejaVuSans-51"/>
      </g>
     </g>
    </g>
    <g id="ytick_4">
     <g id="text_13">
      <!-- 0.3 ~ 0.4 -->
      <g transform="translate(20.878125 34.761893)scale(0.08 -0.08)">
       <defs>
        <path d="M 37.796875 64.3125 
L 12.890625 25.390625 
L 37.796875 25.390625 
z
M 35.203125 72.90625 
L 47.609375 72.90625 
L 47.609375 25.390625 
L 58.015625 25.390625 
L 58.015625 17.1875 
L 47.609375 17.1875 
L 47.609375 0 
L 37.796875 0 
L 37.796875 17.1875 
L 4.890625 17.1875 
L 4.890625 26.703125 
z
" id="DejaVuSans-52"/>
       </defs>
       <use xlink:href="#DejaVuSans-48"/>
       <use x="63.623047" xlink:href="#DejaVuSans-46"/>
       <use x="95.410156" xlink:href="#DejaVuSans-51"/>
       <use x="159.033203" xlink:href="#DejaVuSans-32"/>
       <use x="190.820312" xlink:href="#DejaVuSans-126"/>
       <use x="274.609375" xlink:href="#DejaVuSans-32"/>
       <use x="306.396484" xlink:href="#DejaVuSans-48"/>
       <use x="370.019531" xlink:href="#DejaVuSans-46"/>
       <use x="401.806641" xlink:href="#DejaVuSans-52"/>
      </g>
     </g>
    </g>
    <g id="ytick_5">
     <g id="text_14">
      <!-- 0.4 ~ 0.5 -->
      <g transform="translate(20.878125 41.768327)scale(0.08 -0.08)">
       <use xlink:href="#DejaVuSans-48"/>
       <use x="63.623047" xlink:href="#DejaVuSans-46"/>
       <use x="95.410156" xlink:href="#DejaVuSans-52"/>
       <use x="159.033203" xlink:href="#DejaVuSans-32"/>
       <use x="190.820312" xlink:href="#DejaVuSans-126"/>
       <use x="274.609375" xlink:href="#DejaVuSans-32"/>
       <use x="306.396484" xlink:href="#DejaVuSans-48"/>
       <use x="370.019531" xlink:href="#DejaVuSans-46"/>
       <use x="401.806641" xlink:href="#DejaVuSans-53"/>
      </g>
     </g>
    </g>
    <g id="ytick_6">
     <g id="text_15">
      <!-- 0.5 ~ 0.6 -->
      <g transform="translate(20.878125 48.774761)scale(0.08 -0.08)">
       <defs>
        <path d="M 33.015625 40.375 
Q 26.375 40.375 22.484375 35.828125 
Q 18.609375 31.296875 18.609375 23.390625 
Q 18.609375 15.53125 22.484375 10.953125 
Q 26.375 6.390625 33.015625 6.390625 
Q 39.65625 6.390625 43.53125 10.953125 
Q 47.40625 15.53125 47.40625 23.390625 
Q 47.40625 31.296875 43.53125 35.828125 
Q 39.65625 40.375 33.015625 40.375 
z
M 52.59375 71.296875 
L 52.59375 62.3125 
Q 48.875 64.0625 45.09375 64.984375 
Q 41.3125 65.921875 37.59375 65.921875 
Q 27.828125 65.921875 22.671875 59.328125 
Q 17.53125 52.734375 16.796875 39.40625 
Q 19.671875 43.65625 24.015625 45.921875 
Q 28.375 48.1875 33.59375 48.1875 
Q 44.578125 48.1875 50.953125 41.515625 
Q 57.328125 34.859375 57.328125 23.390625 
Q 57.328125 12.15625 50.6875 5.359375 
Q 44.046875 -1.421875 33.015625 -1.421875 
Q 20.359375 -1.421875 13.671875 8.265625 
Q 6.984375 17.96875 6.984375 36.375 
Q 6.984375 53.65625 15.1875 63.9375 
Q 23.390625 74.21875 37.203125 74.21875 
Q 40.921875 74.21875 44.703125 73.484375 
Q 48.484375 72.75 52.59375 71.296875 
z
" id="DejaVuSans-54"/>
       </defs>
       <use xlink:href="#DejaVuSans-48"/>
       <use x="63.623047" xlink:href="#DejaVuSans-46"/>
       <use x="95.410156" xlink:href="#DejaVuSans-53"/>
       <use x="159.033203" xlink:href="#DejaVuSans-32"/>
       <use x="190.820312" xlink:href="#DejaVuSans-126"/>
       <use x="274.609375" xlink:href="#DejaVuSans-32"/>
       <use x="306.396484" xlink:href="#DejaVuSans-48"/>
       <use x="370.019531" xlink:href="#DejaVuSans-46"/>
       <use x="401.806641" xlink:href="#DejaVuSans-54"/>
      </g>
     </g>
    </g>
    <g id="ytick_7">
     <g id="text_16">
      <!-- 0.6 ~ 0.7 -->
      <g transform="translate(20.878125 55.781195)scale(0.08 -0.08)">
       <use xlink:href="#DejaVuSans-48"/>
       <use x="63.623047" xlink:href="#DejaVuSans-46"/>
       <use x="95.410156" xlink:href="#DejaVuSans-54"/>
       <use x="159.033203" xlink:href="#DejaVuSans-32"/>
       <use x="190.820312" xlink:href="#DejaVuSans-126"/>
       <use x="274.609375" xlink:href="#DejaVuSans-32"/>
       <use x="306.396484" xlink:href="#DejaVuSans-48"/>
       <use x="370.019531" xlink:href="#DejaVuSans-46"/>
       <use x="401.806641" xlink:href="#DejaVuSans-55"/>
      </g>
     </g>
    </g>
    <g id="ytick_8">
     <g id="text_17">
      <!-- 0.7 ~ 0.8 -->
      <g transform="translate(20.878125 62.787629)scale(0.08 -0.08)">
       <defs>
        <path d="M 31.78125 34.625 
Q 24.75 34.625 20.71875 30.859375 
Q 16.703125 27.09375 16.703125 20.515625 
Q 16.703125 13.921875 20.71875 10.15625 
Q 24.75 6.390625 31.78125 6.390625 
Q 38.8125 6.390625 42.859375 10.171875 
Q 46.921875 13.96875 46.921875 20.515625 
Q 46.921875 27.09375 42.890625 30.859375 
Q 38.875 34.625 31.78125 34.625 
z
M 21.921875 38.8125 
Q 15.578125 40.375 12.03125 44.71875 
Q 8.5 49.078125 8.5 55.328125 
Q 8.5 64.0625 14.71875 69.140625 
Q 20.953125 74.21875 31.78125 74.21875 
Q 42.671875 74.21875 48.875 69.140625 
Q 55.078125 64.0625 55.078125 55.328125 
Q 55.078125 49.078125 51.53125 44.71875 
Q 48 40.375 41.703125 38.8125 
Q 48.828125 37.15625 52.796875 32.3125 
Q 56.78125 27.484375 56.78125 20.515625 
Q 56.78125 9.90625 50.3125 4.234375 
Q 43.84375 -1.421875 31.78125 -1.421875 
Q 19.734375 -1.421875 13.25 4.234375 
Q 6.78125 9.90625 6.78125 20.515625 
Q 6.78125 27.484375 10.78125 32.3125 
Q 14.796875 37.15625 21.921875 38.8125 
z
M 18.3125 54.390625 
Q 18.3125 48.734375 21.84375 45.5625 
Q 25.390625 42.390625 31.78125 42.390625 
Q 38.140625 42.390625 41.71875 45.5625 
Q 45.3125 48.734375 45.3125 54.390625 
Q 45.3125 60.0625 41.71875 63.234375 
Q 38.140625 66.40625 31.78125 66.40625 
Q 25.390625 66.40625 21.84375 63.234375 
Q 18.3125 60.0625 18.3125 54.390625 
z
" id="DejaVuSans-56"/>
       </defs>
       <use xlink:href="#DejaVuSans-48"/>
       <use x="63.623047" xlink:href="#DejaVuSans-46"/>
       <use x="95.410156" xlink:href="#DejaVuSans-55"/>
       <use x="159.033203" xlink:href="#DejaVuSans-32"/>
       <use x="190.820312" xlink:href="#DejaVuSans-126"/>
       <use x="274.609375" xlink:href="#DejaVuSans-32"/>
       <use x="306.396484" xlink:href="#DejaVuSans-48"/>
       <use x="370.019531" xlink:href="#DejaVuSans-46"/>
       <use x="401.806641" xlink:href="#DejaVuSans-56"/>
      </g>
     </g>
    </g>
    <g id="ytick_9">
     <g id="text_18">
      <!-- 0.8 ~ 0.9 -->
      <g transform="translate(20.878125 69.794062)scale(0.08 -0.08)">
       <defs>
        <path d="M 10.984375 1.515625 
L 10.984375 10.5 
Q 14.703125 8.734375 18.5 7.8125 
Q 22.3125 6.890625 25.984375 6.890625 
Q 35.75 6.890625 40.890625 13.453125 
Q 46.046875 20.015625 46.78125 33.40625 
Q 43.953125 29.203125 39.59375 26.953125 
Q 35.25 24.703125 29.984375 24.703125 
Q 19.046875 24.703125 12.671875 31.3125 
Q 6.296875 37.9375 6.296875 49.421875 
Q 6.296875 60.640625 12.9375 67.421875 
Q 19.578125 74.21875 30.609375 74.21875 
Q 43.265625 74.21875 49.921875 64.515625 
Q 56.59375 54.828125 56.59375 36.375 
Q 56.59375 19.140625 48.40625 8.859375 
Q 40.234375 -1.421875 26.421875 -1.421875 
Q 22.703125 -1.421875 18.890625 -0.6875 
Q 15.09375 0.046875 10.984375 1.515625 
z
M 30.609375 32.421875 
Q 37.25 32.421875 41.125 36.953125 
Q 45.015625 41.5 45.015625 49.421875 
Q 45.015625 57.28125 41.125 61.84375 
Q 37.25 66.40625 30.609375 66.40625 
Q 23.96875 66.40625 20.09375 61.84375 
Q 16.21875 57.28125 16.21875 49.421875 
Q 16.21875 41.5 20.09375 36.953125 
Q 23.96875 32.421875 30.609375 32.421875 
z
" id="DejaVuSans-57"/>
       </defs>
       <use xlink:href="#DejaVuSans-48"/>
       <use x="63.623047" xlink:href="#DejaVuSans-46"/>
       <use x="95.410156" xlink:href="#DejaVuSans-56"/>
       <use x="159.033203" xlink:href="#DejaVuSans-32"/>
       <use x="190.820312" xlink:href="#DejaVuSans-126"/>
       <use x="274.609375" xlink:href="#DejaVuSans-32"/>
       <use x="306.396484" xlink:href="#DejaVuSans-48"/>
       <use x="370.019531" xlink:href="#DejaVuSans-46"/>
       <use x="401.806641" xlink:href="#DejaVuSans-57"/>
      </g>
     </g>
    </g>
    <g id="ytick_10">
     <g id="text_19">
      <!-- 0.9 ~ 1.0 -->
      <g transform="translate(20.878125 76.800496)scale(0.08 -0.08)">
       <use xlink:href="#DejaVuSans-48"/>
       <use x="63.623047" xlink:href="#DejaVuSans-46"/>
       <use x="95.410156" xlink:href="#DejaVuSans-57"/>
       <use x="159.033203" xlink:href="#DejaVuSans-32"/>
       <use x="190.820312" xlink:href="#DejaVuSans-126"/>
       <use x="274.609375" xlink:href="#DejaVuSans-32"/>
       <use x="306.396484" xlink:href="#DejaVuSans-49"/>
       <use x="370.019531" xlink:href="#DejaVuSans-46"/>
       <use x="401.806641" xlink:href="#DejaVuSans-48"/>
      </g>
     </g>
    </g>
    <g id="ytick_11">
     <g id="text_20">
      <!-- 1.0 ~ 1.1 -->
      <g transform="translate(20.878125 83.80693)scale(0.08 -0.08)">
       <use xlink:href="#DejaVuSans-49"/>
       <use x="63.623047" xlink:href="#DejaVuSans-46"/>
       <use x="95.410156" xlink:href="#DejaVuSans-48"/>
       <use x="159.033203" xlink:href="#DejaVuSans-32"/>
       <use x="190.820312" xlink:href="#DejaVuSans-126"/>
       <use x="274.609375" xlink:href="#DejaVuSans-32"/>
       <use x="306.396484" xlink:href="#DejaVuSans-49"/>
       <use x="370.019531" xlink:href="#DejaVuSans-46"/>
       <use x="401.806641" xlink:href="#DejaVuSans-49"/>
      </g>
     </g>
    </g>
    <g id="ytick_12">
     <g id="text_21">
      <!-- 1.1 ~ 1.2 -->
      <g transform="translate(20.878125 90.813364)scale(0.08 -0.08)">
       <use xlink:href="#DejaVuSans-49"/>
       <use x="63.623047" xlink:href="#DejaVuSans-46"/>
       <use x="95.410156" xlink:href="#DejaVuSans-49"/>
       <use x="159.033203" xlink:href="#DejaVuSans-32"/>
       <use x="190.820312" xlink:href="#DejaVuSans-126"/>
       <use x="274.609375" xlink:href="#DejaVuSans-32"/>
       <use x="306.396484" xlink:href="#DejaVuSans-49"/>
       <use x="370.019531" xlink:href="#DejaVuSans-46"/>
       <use x="401.806641" xlink:href="#DejaVuSans-50"/>
      </g>
     </g>
    </g>
    <g id="ytick_13">
     <g id="text_22">
      <!-- 1.2 ~ 1.3 -->
      <g transform="translate(20.878125 97.819798)scale(0.08 -0.08)">
       <use xlink:href="#DejaVuSans-49"/>
       <use x="63.623047" xlink:href="#DejaVuSans-46"/>
       <use x="95.410156" xlink:href="#DejaVuSans-50"/>
       <use x="159.033203" xlink:href="#DejaVuSans-32"/>
       <use x="190.820312" xlink:href="#DejaVuSans-126"/>
       <use x="274.609375" xlink:href="#DejaVuSans-32"/>
       <use x="306.396484" xlink:href="#DejaVuSans-49"/>
       <use x="370.019531" xlink:href="#DejaVuSans-46"/>
       <use x="401.806641" xlink:href="#DejaVuSans-51"/>
      </g>
     </g>
    </g>
    <g id="ytick_14">
     <g id="text_23">
      <!-- 1.3 ~ 1.4 -->
      <g transform="translate(20.878125 104.826232)scale(0.08 -0.08)">
       <use xlink:href="#DejaVuSans-49"/>
       <use x="63.623047" xlink:href="#DejaVuSans-46"/>
       <use x="95.410156" xlink:href="#DejaVuSans-51"/>
       <use x="159.033203" xlink:href="#DejaVuSans-32"/>
       <use x="190.820312" xlink:href="#DejaVuSans-126"/>
       <use x="274.609375" xlink:href="#DejaVuSans-32"/>
       <use x="306.396484" xlink:href="#DejaVuSans-49"/>
       <use x="370.019531" xlink:href="#DejaVuSans-46"/>
       <use x="401.806641" xlink:href="#DejaVuSans-52"/>
      </g>
     </g>
    </g>
    <g id="ytick_15">
     <g id="text_24">
      <!-- 1.4 ~ 1.5 -->
      <g transform="translate(20.878125 111.832665)scale(0.08 -0.08)">
       <use xlink:href="#DejaVuSans-49"/>
       <use x="63.623047" xlink:href="#DejaVuSans-46"/>
       <use x="95.410156" xlink:href="#DejaVuSans-52"/>
       <use x="159.033203" xlink:href="#DejaVuSans-32"/>
       <use x="190.820312" xlink:href="#DejaVuSans-126"/>
       <use x="274.609375" xlink:href="#DejaVuSans-32"/>
       <use x="306.396484" xlink:href="#DejaVuSans-49"/>
       <use x="370.019531" xlink:href="#DejaVuSans-46"/>
       <use x="401.806641" xlink:href="#DejaVuSans-53"/>
      </g>
     </g>
    </g>
    <g id="ytick_16">
     <g id="text_25">
      <!-- 1.5 ~ 1.6 -->
      <g transform="translate(20.878125 118.839099)scale(0.08 -0.08)">
       <use xlink:href="#DejaVuSans-49"/>
       <use x="63.623047" xlink:href="#DejaVuSans-46"/>
       <use x="95.410156" xlink:href="#DejaVuSans-53"/>
       <use x="159.033203" xlink:href="#DejaVuSans-32"/>
       <use x="190.820312" xlink:href="#DejaVuSans-126"/>
       <use x="274.609375" xlink:href="#DejaVuSans-32"/>
       <use x="306.396484" xlink:href="#DejaVuSans-49"/>
       <use x="370.019531" xlink:href="#DejaVuSans-46"/>
       <use x="401.806641" xlink:href="#DejaVuSans-54"/>
      </g>
     </g>
    </g>
    <g id="ytick_17">
     <g id="text_26">
      <!-- 1.6 ~ 1.7 -->
      <g transform="translate(20.878125 125.845533)scale(0.08 -0.08)">
       <use xlink:href="#DejaVuSans-49"/>
       <use x="63.623047" xlink:href="#DejaVuSans-46"/>
       <use x="95.410156" xlink:href="#DejaVuSans-54"/>
       <use x="159.033203" xlink:href="#DejaVuSans-32"/>
       <use x="190.820312" xlink:href="#DejaVuSans-126"/>
       <use x="274.609375" xlink:href="#DejaVuSans-32"/>
       <use x="306.396484" xlink:href="#DejaVuSans-49"/>
       <use x="370.019531" xlink:href="#DejaVuSans-46"/>
       <use x="401.806641" xlink:href="#DejaVuSans-55"/>
      </g>
     </g>
    </g>
    <g id="ytick_18">
     <g id="text_27">
      <!-- 1.7 ~ 1.8 -->
      <g transform="translate(20.878125 132.851967)scale(0.08 -0.08)">
       <use xlink:href="#DejaVuSans-49"/>
       <use x="63.623047" xlink:href="#DejaVuSans-46"/>
       <use x="95.410156" xlink:href="#DejaVuSans-55"/>
       <use x="159.033203" xlink:href="#DejaVuSans-32"/>
       <use x="190.820312" xlink:href="#DejaVuSans-126"/>
       <use x="274.609375" xlink:href="#DejaVuSans-32"/>
       <use x="306.396484" xlink:href="#DejaVuSans-49"/>
       <use x="370.019531" xlink:href="#DejaVuSans-46"/>
       <use x="401.806641" xlink:href="#DejaVuSans-56"/>
      </g>
     </g>
    </g>
    <g id="ytick_19">
     <g id="text_28">
      <!-- 1.8 ~ 1.9 -->
      <g transform="translate(20.878125 139.858401)scale(0.08 -0.08)">
       <use xlink:href="#DejaVuSans-49"/>
       <use x="63.623047" xlink:href="#DejaVuSans-46"/>
       <use x="95.410156" xlink:href="#DejaVuSans-56"/>
       <use x="159.033203" xlink:href="#DejaVuSans-32"/>
       <use x="190.820312" xlink:href="#DejaVuSans-126"/>
       <use x="274.609375" xlink:href="#DejaVuSans-32"/>
       <use x="306.396484" xlink:href="#DejaVuSans-49"/>
       <use x="370.019531" xlink:href="#DejaVuSans-46"/>
       <use x="401.806641" xlink:href="#DejaVuSans-57"/>
      </g>
     </g>
    </g>
    <g id="ytick_20">
     <g id="text_29">
      <!-- 1.9 ~ 2.0 -->
      <g transform="translate(20.878125 146.864835)scale(0.08 -0.08)">
       <use xlink:href="#DejaVuSans-49"/>
       <use x="63.623047" xlink:href="#DejaVuSans-46"/>
       <use x="95.410156" xlink:href="#DejaVuSans-57"/>
       <use x="159.033203" xlink:href="#DejaVuSans-32"/>
       <use x="190.820312" xlink:href="#DejaVuSans-126"/>
       <use x="274.609375" xlink:href="#DejaVuSans-32"/>
       <use x="306.396484" xlink:href="#DejaVuSans-50"/>
       <use x="370.019531" xlink:href="#DejaVuSans-46"/>
       <use x="401.806641" xlink:href="#DejaVuSans-48"/>
      </g>
     </g>
    </g>
    <g id="ytick_21">
     <g id="text_30">
      <!-- 2.0 ~ 2.1 -->
      <g transform="translate(20.878125 153.871268)scale(0.08 -0.08)">
       <use xlink:href="#DejaVuSans-50"/>
       <use x="63.623047" xlink:href="#DejaVuSans-46"/>
       <use x="95.410156" xlink:href="#DejaVuSans-48"/>
       <use x="159.033203" xlink:href="#DejaVuSans-32"/>
       <use x="190.820312" xlink:href="#DejaVuSans-126"/>
       <use x="274.609375" xlink:href="#DejaVuSans-32"/>
       <use x="306.396484" xlink:href="#DejaVuSans-50"/>
       <use x="370.019531" xlink:href="#DejaVuSans-46"/>
       <use x="401.806641" xlink:href="#DejaVuSans-49"/>
      </g>
     </g>
    </g>
    <g id="ytick_22">
     <g id="text_31">
      <!-- 2.1 ~ 2.2 -->
      <g transform="translate(20.878125 160.877702)scale(0.08 -0.08)">
       <use xlink:href="#DejaVuSans-50"/>
       <use x="63.623047" xlink:href="#DejaVuSans-46"/>
       <use x="95.410156" xlink:href="#DejaVuSans-49"/>
       <use x="159.033203" xlink:href="#DejaVuSans-32"/>
       <use x="190.820312" xlink:href="#DejaVuSans-126"/>
       <use x="274.609375" xlink:href="#DejaVuSans-32"/>
       <use x="306.396484" xlink:href="#DejaVuSans-50"/>
       <use x="370.019531" xlink:href="#DejaVuSans-46"/>
       <use x="401.806641" xlink:href="#DejaVuSans-50"/>
      </g>
     </g>
    </g>
    <g id="ytick_23">
     <g id="text_32">
      <!-- 2.2 ~ 2.3 -->
      <g transform="translate(20.878125 167.884136)scale(0.08 -0.08)">
       <use xlink:href="#DejaVuSans-50"/>
       <use x="63.623047" xlink:href="#DejaVuSans-46"/>
       <use x="95.410156" xlink:href="#DejaVuSans-50"/>
       <use x="159.033203" xlink:href="#DejaVuSans-32"/>
       <use x="190.820312" xlink:href="#DejaVuSans-126"/>
       <use x="274.609375" xlink:href="#DejaVuSans-32"/>
       <use x="306.396484" xlink:href="#DejaVuSans-50"/>
       <use x="370.019531" xlink:href="#DejaVuSans-46"/>
       <use x="401.806641" xlink:href="#DejaVuSans-51"/>
      </g>
     </g>
    </g>
    <g id="ytick_24">
     <g id="text_33">
      <!-- 2.3 ~ 2.4 -->
      <g transform="translate(20.878125 174.89057)scale(0.08 -0.08)">
       <use xlink:href="#DejaVuSans-50"/>
       <use x="63.623047" xlink:href="#DejaVuSans-46"/>
       <use x="95.410156" xlink:href="#DejaVuSans-51"/>
       <use x="159.033203" xlink:href="#DejaVuSans-32"/>
       <use x="190.820312" xlink:href="#DejaVuSans-126"/>
       <use x="274.609375" xlink:href="#DejaVuSans-32"/>
       <use x="306.396484" xlink:href="#DejaVuSans-50"/>
       <use x="370.019531" xlink:href="#DejaVuSans-46"/>
       <use x="401.806641" xlink:href="#DejaVuSans-52"/>
      </g>
     </g>
    </g>
    <g id="ytick_25">
     <g id="text_34">
      <!-- 2.4 ~ 2.5 -->
      <g transform="translate(20.878125 181.897004)scale(0.08 -0.08)">
       <use xlink:href="#DejaVuSans-50"/>
       <use x="63.623047" xlink:href="#DejaVuSans-46"/>
       <use x="95.410156" xlink:href="#DejaVuSans-52"/>
       <use x="159.033203" xlink:href="#DejaVuSans-32"/>
       <use x="190.820312" xlink:href="#DejaVuSans-126"/>
       <use x="274.609375" xlink:href="#DejaVuSans-32"/>
       <use x="306.396484" xlink:href="#DejaVuSans-50"/>
       <use x="370.019531" xlink:href="#DejaVuSans-46"/>
       <use x="401.806641" xlink:href="#DejaVuSans-53"/>
      </g>
     </g>
    </g>
    <g id="ytick_26">
     <g id="text_35">
      <!-- 2.5 ~ 2.6 -->
      <g transform="translate(20.878125 188.903437)scale(0.08 -0.08)">
       <use xlink:href="#DejaVuSans-50"/>
       <use x="63.623047" xlink:href="#DejaVuSans-46"/>
       <use x="95.410156" xlink:href="#DejaVuSans-53"/>
       <use x="159.033203" xlink:href="#DejaVuSans-32"/>
       <use x="190.820312" xlink:href="#DejaVuSans-126"/>
       <use x="274.609375" xlink:href="#DejaVuSans-32"/>
       <use x="306.396484" xlink:href="#DejaVuSans-50"/>
       <use x="370.019531" xlink:href="#DejaVuSans-46"/>
       <use x="401.806641" xlink:href="#DejaVuSans-54"/>
      </g>
     </g>
    </g>
    <g id="ytick_27">
     <g id="text_36">
      <!-- 2.6 ~ 2.7 -->
      <g transform="translate(20.878125 195.909871)scale(0.08 -0.08)">
       <use xlink:href="#DejaVuSans-50"/>
       <use x="63.623047" xlink:href="#DejaVuSans-46"/>
       <use x="95.410156" xlink:href="#DejaVuSans-54"/>
       <use x="159.033203" xlink:href="#DejaVuSans-32"/>
       <use x="190.820312" xlink:href="#DejaVuSans-126"/>
       <use x="274.609375" xlink:href="#DejaVuSans-32"/>
       <use x="306.396484" xlink:href="#DejaVuSans-50"/>
       <use x="370.019531" xlink:href="#DejaVuSans-46"/>
       <use x="401.806641" xlink:href="#DejaVuSans-55"/>
      </g>
     </g>
    </g>
    <g id="ytick_28">
     <g id="text_37">
      <!-- 2.7 ~ 2.8 -->
      <g transform="translate(20.878125 202.916305)scale(0.08 -0.08)">
       <use xlink:href="#DejaVuSans-50"/>
       <use x="63.623047" xlink:href="#DejaVuSans-46"/>
       <use x="95.410156" xlink:href="#DejaVuSans-55"/>
       <use x="159.033203" xlink:href="#DejaVuSans-32"/>
       <use x="190.820312" xlink:href="#DejaVuSans-126"/>
       <use x="274.609375" xlink:href="#DejaVuSans-32"/>
       <use x="306.396484" xlink:href="#DejaVuSans-50"/>
       <use x="370.019531" xlink:href="#DejaVuSans-46"/>
       <use x="401.806641" xlink:href="#DejaVuSans-56"/>
      </g>
     </g>
    </g>
    <g id="ytick_29">
     <g id="text_38">
      <!-- 2.8 ~ 2.9 -->
      <g transform="translate(20.878125 209.922739)scale(0.08 -0.08)">
       <use xlink:href="#DejaVuSans-50"/>
       <use x="63.623047" xlink:href="#DejaVuSans-46"/>
       <use x="95.410156" xlink:href="#DejaVuSans-56"/>
       <use x="159.033203" xlink:href="#DejaVuSans-32"/>
       <use x="190.820312" xlink:href="#DejaVuSans-126"/>
       <use x="274.609375" xlink:href="#DejaVuSans-32"/>
       <use x="306.396484" xlink:href="#DejaVuSans-50"/>
       <use x="370.019531" xlink:href="#DejaVuSans-46"/>
       <use x="401.806641" xlink:href="#DejaVuSans-57"/>
      </g>
     </g>
    </g>
    <g id="ytick_30">
     <g id="text_39">
      <!-- 2.9 ~ 3.0 -->
      <g transform="translate(20.878125 216.929173)scale(0.08 -0.08)">
       <use xlink:href="#DejaVuSans-50"/>
       <use x="63.623047" xlink:href="#DejaVuSans-46"/>
       <use x="95.410156" xlink:href="#DejaVuSans-57"/>
       <use x="159.033203" xlink:href="#DejaVuSans-32"/>
       <use x="190.820312" xlink:href="#DejaVuSans-126"/>
       <use x="274.609375" xlink:href="#DejaVuSans-32"/>
       <use x="306.396484" xlink:href="#DejaVuSans-51"/>
       <use x="370.019531" xlink:href="#DejaVuSans-46"/>
       <use x="401.806641" xlink:href="#DejaVuSans-48"/>
      </g>
     </g>
    </g>
    <g id="ytick_31">
     <g id="text_40">
      <!-- 3.0 ~ 3.1 -->
      <g transform="translate(20.878125 223.935607)scale(0.08 -0.08)">
       <use xlink:href="#DejaVuSans-51"/>
       <use x="63.623047" xlink:href="#DejaVuSans-46"/>
       <use x="95.410156" xlink:href="#DejaVuSans-48"/>
       <use x="159.033203" xlink:href="#DejaVuSans-32"/>
       <use x="190.820312" xlink:href="#DejaVuSans-126"/>
       <use x="274.609375" xlink:href="#DejaVuSans-32"/>
       <use x="306.396484" xlink:href="#DejaVuSans-51"/>
       <use x="370.019531" xlink:href="#DejaVuSans-46"/>
       <use x="401.806641" xlink:href="#DejaVuSans-49"/>
      </g>
     </g>
    </g>
    <g id="ytick_32">
     <g id="text_41">
      <!-- 3.1 ~ 3.2 -->
      <g transform="translate(20.878125 230.94204)scale(0.08 -0.08)">
       <use xlink:href="#DejaVuSans-51"/>
       <use x="63.623047" xlink:href="#DejaVuSans-46"/>
       <use x="95.410156" xlink:href="#DejaVuSans-49"/>
       <use x="159.033203" xlink:href="#DejaVuSans-32"/>
       <use x="190.820312" xlink:href="#DejaVuSans-126"/>
       <use x="274.609375" xlink:href="#DejaVuSans-32"/>
       <use x="306.396484" xlink:href="#DejaVuSans-51"/>
       <use x="370.019531" xlink:href="#DejaVuSans-46"/>
       <use x="401.806641" xlink:href="#DejaVuSans-50"/>
      </g>
     </g>
    </g>
    <g id="ytick_33">
     <g id="text_42">
      <!-- 3.2 ~ 3.3 -->
      <g transform="translate(20.878125 237.948474)scale(0.08 -0.08)">
       <use xlink:href="#DejaVuSans-51"/>
       <use x="63.623047" xlink:href="#DejaVuSans-46"/>
       <use x="95.410156" xlink:href="#DejaVuSans-50"/>
       <use x="159.033203" xlink:href="#DejaVuSans-32"/>
       <use x="190.820312" xlink:href="#DejaVuSans-126"/>
       <use x="274.609375" xlink:href="#DejaVuSans-32"/>
       <use x="306.396484" xlink:href="#DejaVuSans-51"/>
       <use x="370.019531" xlink:href="#DejaVuSans-46"/>
       <use x="401.806641" xlink:href="#DejaVuSans-51"/>
      </g>
     </g>
    </g>
    <g id="ytick_34">
     <g id="text_43">
      <!-- 3.3 ~ 3.4 -->
      <g transform="translate(20.878125 244.954908)scale(0.08 -0.08)">
       <use xlink:href="#DejaVuSans-51"/>
       <use x="63.623047" xlink:href="#DejaVuSans-46"/>
       <use x="95.410156" xlink:href="#DejaVuSans-51"/>
       <use x="159.033203" xlink:href="#DejaVuSans-32"/>
       <use x="190.820312" xlink:href="#DejaVuSans-126"/>
       <use x="274.609375" xlink:href="#DejaVuSans-32"/>
       <use x="306.396484" xlink:href="#DejaVuSans-51"/>
       <use x="370.019531" xlink:href="#DejaVuSans-46"/>
       <use x="401.806641" xlink:href="#DejaVuSans-52"/>
      </g>
     </g>
    </g>
    <g id="ytick_35">
     <g id="text_44">
      <!-- 3.4 ~ 3.5 -->
      <g transform="translate(20.878125 251.961342)scale(0.08 -0.08)">
       <use xlink:href="#DejaVuSans-51"/>
       <use x="63.623047" xlink:href="#DejaVuSans-46"/>
       <use x="95.410156" xlink:href="#DejaVuSans-52"/>
       <use x="159.033203" xlink:href="#DejaVuSans-32"/>
       <use x="190.820312" xlink:href="#DejaVuSans-126"/>
       <use x="274.609375" xlink:href="#DejaVuSans-32"/>
       <use x="306.396484" xlink:href="#DejaVuSans-51"/>
       <use x="370.019531" xlink:href="#DejaVuSans-46"/>
       <use x="401.806641" xlink:href="#DejaVuSans-53"/>
      </g>
     </g>
    </g>
    <g id="ytick_36">
     <g id="text_45">
      <!-- 3.5 ~ 3.6 -->
      <g transform="translate(20.878125 258.967776)scale(0.08 -0.08)">
       <use xlink:href="#DejaVuSans-51"/>
       <use x="63.623047" xlink:href="#DejaVuSans-46"/>
       <use x="95.410156" xlink:href="#DejaVuSans-53"/>
       <use x="159.033203" xlink:href="#DejaVuSans-32"/>
       <use x="190.820312" xlink:href="#DejaVuSans-126"/>
       <use x="274.609375" xlink:href="#DejaVuSans-32"/>
       <use x="306.396484" xlink:href="#DejaVuSans-51"/>
       <use x="370.019531" xlink:href="#DejaVuSans-46"/>
       <use x="401.806641" xlink:href="#DejaVuSans-54"/>
      </g>
     </g>
    </g>
    <g id="ytick_37">
     <g id="text_46">
      <!-- 3.6 ~ 3.7 -->
      <g transform="translate(20.878125 265.97421)scale(0.08 -0.08)">
       <use xlink:href="#DejaVuSans-51"/>
       <use x="63.623047" xlink:href="#DejaVuSans-46"/>
       <use x="95.410156" xlink:href="#DejaVuSans-54"/>
       <use x="159.033203" xlink:href="#DejaVuSans-32"/>
       <use x="190.820312" xlink:href="#DejaVuSans-126"/>
       <use x="274.609375" xlink:href="#DejaVuSans-32"/>
       <use x="306.396484" xlink:href="#DejaVuSans-51"/>
       <use x="370.019531" xlink:href="#DejaVuSans-46"/>
       <use x="401.806641" xlink:href="#DejaVuSans-55"/>
      </g>
     </g>
    </g>
    <g id="ytick_38">
     <g id="text_47">
      <!-- 3.7 ~ 3.8 -->
      <g transform="translate(20.878125 272.980643)scale(0.08 -0.08)">
       <use xlink:href="#DejaVuSans-51"/>
       <use x="63.623047" xlink:href="#DejaVuSans-46"/>
       <use x="95.410156" xlink:href="#DejaVuSans-55"/>
       <use x="159.033203" xlink:href="#DejaVuSans-32"/>
       <use x="190.820312" xlink:href="#DejaVuSans-126"/>
       <use x="274.609375" xlink:href="#DejaVuSans-32"/>
       <use x="306.396484" xlink:href="#DejaVuSans-51"/>
       <use x="370.019531" xlink:href="#DejaVuSans-46"/>
       <use x="401.806641" xlink:href="#DejaVuSans-56"/>
      </g>
     </g>
    </g>
    <g id="ytick_39">
     <g id="text_48">
      <!-- 3.8 ~ 3.9 -->
      <g transform="translate(20.878125 279.987077)scale(0.08 -0.08)">
       <use xlink:href="#DejaVuSans-51"/>
       <use x="63.623047" xlink:href="#DejaVuSans-46"/>
       <use x="95.410156" xlink:href="#DejaVuSans-56"/>
       <use x="159.033203" xlink:href="#DejaVuSans-32"/>
       <use x="190.820312" xlink:href="#DejaVuSans-126"/>
       <use x="274.609375" xlink:href="#DejaVuSans-32"/>
       <use x="306.396484" xlink:href="#DejaVuSans-51"/>
       <use x="370.019531" xlink:href="#DejaVuSans-46"/>
       <use x="401.806641" xlink:href="#DejaVuSans-57"/>
      </g>
     </g>
    </g>
    <g id="ytick_40">
     <g id="text_49">
      <!-- 3.9 ~ 4.0 -->
      <g transform="translate(20.878125 286.993511)scale(0.08 -0.08)">
       <use xlink:href="#DejaVuSans-51"/>
       <use x="63.623047" xlink:href="#DejaVuSans-46"/>
       <use x="95.410156" xlink:href="#DejaVuSans-57"/>
       <use x="159.033203" xlink:href="#DejaVuSans-32"/>
       <use x="190.820312" xlink:href="#DejaVuSans-126"/>
       <use x="274.609375" xlink:href="#DejaVuSans-32"/>
       <use x="306.396484" xlink:href="#DejaVuSans-52"/>
       <use x="370.019531" xlink:href="#DejaVuSans-46"/>
       <use x="401.806641" xlink:href="#DejaVuSans-48"/>
      </g>
     </g>
    </g>
    <g id="ytick_41">
     <g id="text_50">
      <!-- 4.0 ~ 4.1 -->
      <g transform="translate(20.878125 293.999945)scale(0.08 -0.08)">
       <use xlink:href="#DejaVuSans-52"/>
       <use x="63.623047" xlink:href="#DejaVuSans-46"/>
       <use x="95.410156" xlink:href="#DejaVuSans-48"/>
       <use x="159.033203" xlink:href="#DejaVuSans-32"/>
       <use x="190.820312" xlink:href="#DejaVuSans-126"/>
       <use x="274.609375" xlink:href="#DejaVuSans-32"/>
       <use x="306.396484" xlink:href="#DejaVuSans-52"/>
       <use x="370.019531" xlink:href="#DejaVuSans-46"/>
       <use x="401.806641" xlink:href="#DejaVuSans-49"/>
      </g>
     </g>
    </g>
    <g id="ytick_42">
     <g id="text_51">
      <!-- 4.1 ~ 4.2 -->
      <g transform="translate(20.878125 301.006379)scale(0.08 -0.08)">
       <use xlink:href="#DejaVuSans-52"/>
       <use x="63.623047" xlink:href="#DejaVuSans-46"/>
       <use x="95.410156" xlink:href="#DejaVuSans-49"/>
       <use x="159.033203" xlink:href="#DejaVuSans-32"/>
       <use x="190.820312" xlink:href="#DejaVuSans-126"/>
       <use x="274.609375" xlink:href="#DejaVuSans-32"/>
       <use x="306.396484" xlink:href="#DejaVuSans-52"/>
       <use x="370.019531" xlink:href="#DejaVuSans-46"/>
       <use x="401.806641" xlink:href="#DejaVuSans-50"/>
      </g>
     </g>
    </g>
    <g id="ytick_43">
     <g id="text_52">
      <!-- 4.2 ~ 4.3 -->
      <g transform="translate(20.878125 308.012812)scale(0.08 -0.08)">
       <use xlink:href="#DejaVuSans-52"/>
       <use x="63.623047" xlink:href="#DejaVuSans-46"/>
       <use x="95.410156" xlink:href="#DejaVuSans-50"/>
       <use x="159.033203" xlink:href="#DejaVuSans-32"/>
       <use x="190.820312" xlink:href="#DejaVuSans-126"/>
       <use x="274.609375" xlink:href="#DejaVuSans-32"/>
       <use x="306.396484" xlink:href="#DejaVuSans-52"/>
       <use x="370.019531" xlink:href="#DejaVuSans-46"/>
       <use x="401.806641" xlink:href="#DejaVuSans-51"/>
      </g>
     </g>
    </g>
    <g id="ytick_44">
     <g id="text_53">
      <!-- 4.3 ~ 4.4 -->
      <g transform="translate(20.878125 315.019246)scale(0.08 -0.08)">
       <use xlink:href="#DejaVuSans-52"/>
       <use x="63.623047" xlink:href="#DejaVuSans-46"/>
       <use x="95.410156" xlink:href="#DejaVuSans-51"/>
       <use x="159.033203" xlink:href="#DejaVuSans-32"/>
       <use x="190.820312" xlink:href="#DejaVuSans-126"/>
       <use x="274.609375" xlink:href="#DejaVuSans-32"/>
       <use x="306.396484" xlink:href="#DejaVuSans-52"/>
       <use x="370.019531" xlink:href="#DejaVuSans-46"/>
       <use x="401.806641" xlink:href="#DejaVuSans-52"/>
      </g>
     </g>
    </g>
    <g id="ytick_45">
     <g id="text_54">
      <!-- 4.4 ~ 4.5 -->
      <g transform="translate(20.878125 322.02568)scale(0.08 -0.08)">
       <use xlink:href="#DejaVuSans-52"/>
       <use x="63.623047" xlink:href="#DejaVuSans-46"/>
       <use x="95.410156" xlink:href="#DejaVuSans-52"/>
       <use x="159.033203" xlink:href="#DejaVuSans-32"/>
       <use x="190.820312" xlink:href="#DejaVuSans-126"/>
       <use x="274.609375" xlink:href="#DejaVuSans-32"/>
       <use x="306.396484" xlink:href="#DejaVuSans-52"/>
       <use x="370.019531" xlink:href="#DejaVuSans-46"/>
       <use x="401.806641" xlink:href="#DejaVuSans-53"/>
      </g>
     </g>
    </g>
    <g id="ytick_46">
     <g id="text_55">
      <!-- 4.5 ~ 4.6 -->
      <g transform="translate(20.878125 329.032114)scale(0.08 -0.08)">
       <use xlink:href="#DejaVuSans-52"/>
       <use x="63.623047" xlink:href="#DejaVuSans-46"/>
       <use x="95.410156" xlink:href="#DejaVuSans-53"/>
       <use x="159.033203" xlink:href="#DejaVuSans-32"/>
       <use x="190.820312" xlink:href="#DejaVuSans-126"/>
       <use x="274.609375" xlink:href="#DejaVuSans-32"/>
       <use x="306.396484" xlink:href="#DejaVuSans-52"/>
       <use x="370.019531" xlink:href="#DejaVuSans-46"/>
       <use x="401.806641" xlink:href="#DejaVuSans-54"/>
      </g>
     </g>
    </g>
    <g id="ytick_47">
     <g id="text_56">
      <!-- 4.6 ~ 4.7 -->
      <g transform="translate(20.878125 336.038548)scale(0.08 -0.08)">
       <use xlink:href="#DejaVuSans-52"/>
       <use x="63.623047" xlink:href="#DejaVuSans-46"/>
       <use x="95.410156" xlink:href="#DejaVuSans-54"/>
       <use x="159.033203" xlink:href="#DejaVuSans-32"/>
       <use x="190.820312" xlink:href="#DejaVuSans-126"/>
       <use x="274.609375" xlink:href="#DejaVuSans-32"/>
       <use x="306.396484" xlink:href="#DejaVuSans-52"/>
       <use x="370.019531" xlink:href="#DejaVuSans-46"/>
       <use x="401.806641" xlink:href="#DejaVuSans-55"/>
      </g>
     </g>
    </g>
    <g id="ytick_48">
     <g id="text_57">
      <!-- 4.7 ~ 4.8 -->
      <g transform="translate(20.878125 343.044982)scale(0.08 -0.08)">
       <use xlink:href="#DejaVuSans-52"/>
       <use x="63.623047" xlink:href="#DejaVuSans-46"/>
       <use x="95.410156" xlink:href="#DejaVuSans-55"/>
       <use x="159.033203" xlink:href="#DejaVuSans-32"/>
       <use x="190.820312" xlink:href="#DejaVuSans-126"/>
       <use x="274.609375" xlink:href="#DejaVuSans-32"/>
       <use x="306.396484" xlink:href="#DejaVuSans-52"/>
       <use x="370.019531" xlink:href="#DejaVuSans-46"/>
       <use x="401.806641" xlink:href="#DejaVuSans-56"/>
      </g>
     </g>
    </g>
    <g id="ytick_49">
     <g id="text_58">
      <!-- 4.8 ~ 4.9 -->
      <g transform="translate(20.878125 350.051415)scale(0.08 -0.08)">
       <use xlink:href="#DejaVuSans-52"/>
       <use x="63.623047" xlink:href="#DejaVuSans-46"/>
       <use x="95.410156" xlink:href="#DejaVuSans-56"/>
       <use x="159.033203" xlink:href="#DejaVuSans-32"/>
       <use x="190.820312" xlink:href="#DejaVuSans-126"/>
       <use x="274.609375" xlink:href="#DejaVuSans-32"/>
       <use x="306.396484" xlink:href="#DejaVuSans-52"/>
       <use x="370.019531" xlink:href="#DejaVuSans-46"/>
       <use x="401.806641" xlink:href="#DejaVuSans-57"/>
      </g>
     </g>
    </g>
    <g id="ytick_50">
     <g id="text_59">
      <!-- 4.9 ~ 5.0 -->
      <g transform="translate(20.878125 357.057849)scale(0.08 -0.08)">
       <use xlink:href="#DejaVuSans-52"/>
       <use x="63.623047" xlink:href="#DejaVuSans-46"/>
       <use x="95.410156" xlink:href="#DejaVuSans-57"/>
       <use x="159.033203" xlink:href="#DejaVuSans-32"/>
       <use x="190.820312" xlink:href="#DejaVuSans-126"/>
       <use x="274.609375" xlink:href="#DejaVuSans-32"/>
       <use x="306.396484" xlink:href="#DejaVuSans-53"/>
       <use x="370.019531" xlink:href="#DejaVuSans-46"/>
       <use x="401.806641" xlink:href="#DejaVuSans-48"/>
      </g>
     </g>
    </g>
    <g id="ytick_51">
     <g id="text_60">
      <!-- &gt;= 5.0 -->
      <g transform="translate(29.439375 364.064283)scale(0.08 -0.08)">
       <defs>
        <path d="M 10.59375 49.21875 
L 10.59375 58.109375 
L 73.1875 35.40625 
L 73.1875 27.296875 
L 10.59375 4.59375 
L 10.59375 13.484375 
L 60.890625 31.296875 
z
" id="DejaVuSans-62"/>
        <path d="M 10.59375 45.40625 
L 73.1875 45.40625 
L 73.1875 37.203125 
L 10.59375 37.203125 
z
M 10.59375 25.484375 
L 73.1875 25.484375 
L 73.1875 17.1875 
L 10.59375 17.1875 
z
" id="DejaVuSans-61"/>
       </defs>
       <use xlink:href="#DejaVuSans-62"/>
       <use x="83.789062" xlink:href="#DejaVuSans-61"/>
       <use x="167.578125" xlink:href="#DejaVuSans-32"/>
       <use x="199.365234" xlink:href="#DejaVuSans-53"/>
       <use x="262.988281" xlink:href="#DejaVuSans-46"/>
       <use x="294.775391" xlink:href="#DejaVuSans-48"/>
      </g>
     </g>
    </g>
    <g id="text_61">
     <!-- Comet xcorr ranges -->
     <g transform="translate(14.798438 235.347656)rotate(-90)scale(0.1 -0.1)">
      <defs>
       <path d="M 64.40625 67.28125 
L 64.40625 56.890625 
Q 59.421875 61.53125 53.78125 63.8125 
Q 48.140625 66.109375 41.796875 66.109375 
Q 29.296875 66.109375 22.65625 58.46875 
Q 16.015625 50.828125 16.015625 36.375 
Q 16.015625 21.96875 22.65625 14.328125 
Q 29.296875 6.6875 41.796875 6.6875 
Q 48.140625 6.6875 53.78125 8.984375 
Q 59.421875 11.28125 64.40625 15.921875 
L 64.40625 5.609375 
Q 59.234375 2.09375 53.4375 0.328125 
Q 47.65625 -1.421875 41.21875 -1.421875 
Q 24.65625 -1.421875 15.125 8.703125 
Q 5.609375 18.84375 5.609375 36.375 
Q 5.609375 53.953125 15.125 64.078125 
Q 24.65625 74.21875 41.21875 74.21875 
Q 47.75 74.21875 53.53125 72.484375 
Q 59.328125 70.75 64.40625 67.28125 
z
" id="DejaVuSans-67"/>
       <path d="M 30.609375 48.390625 
Q 23.390625 48.390625 19.1875 42.75 
Q 14.984375 37.109375 14.984375 27.296875 
Q 14.984375 17.484375 19.15625 11.84375 
Q 23.34375 6.203125 30.609375 6.203125 
Q 37.796875 6.203125 41.984375 11.859375 
Q 46.1875 17.53125 46.1875 27.296875 
Q 46.1875 37.015625 41.984375 42.703125 
Q 37.796875 48.390625 30.609375 48.390625 
z
M 30.609375 56 
Q 42.328125 56 49.015625 48.375 
Q 55.71875 40.765625 55.71875 27.296875 
Q 55.71875 13.875 49.015625 6.21875 
Q 42.328125 -1.421875 30.609375 -1.421875 
Q 18.84375 -1.421875 12.171875 6.21875 
Q 5.515625 13.875 5.515625 27.296875 
Q 5.515625 40.765625 12.171875 48.375 
Q 18.84375 56 30.609375 56 
z
" id="DejaVuSans-111"/>
       <path d="M 52 44.1875 
Q 55.375 50.25 60.0625 53.125 
Q 64.75 56 71.09375 56 
Q 79.640625 56 84.28125 50.015625 
Q 88.921875 44.046875 88.921875 33.015625 
L 88.921875 0 
L 79.890625 0 
L 79.890625 32.71875 
Q 79.890625 40.578125 77.09375 44.375 
Q 74.3125 48.1875 68.609375 48.1875 
Q 61.625 48.1875 57.5625 43.546875 
Q 53.515625 38.921875 53.515625 30.90625 
L 53.515625 0 
L 44.484375 0 
L 44.484375 32.71875 
Q 44.484375 40.625 41.703125 44.40625 
Q 38.921875 48.1875 33.109375 48.1875 
Q 26.21875 48.1875 22.15625 43.53125 
Q 18.109375 38.875 18.109375 30.90625 
L 18.109375 0 
L 9.078125 0 
L 9.078125 54.6875 
L 18.109375 54.6875 
L 18.109375 46.1875 
Q 21.1875 51.21875 25.484375 53.609375 
Q 29.78125 56 35.6875 56 
Q 41.65625 56 45.828125 52.96875 
Q 50 49.953125 52 44.1875 
z
" id="DejaVuSans-109"/>
       <path d="M 56.203125 29.59375 
L 56.203125 25.203125 
L 14.890625 25.203125 
Q 15.484375 15.921875 20.484375 11.0625 
Q 25.484375 6.203125 34.421875 6.203125 
Q 39.59375 6.203125 44.453125 7.46875 
Q 49.3125 8.734375 54.109375 11.28125 
L 54.109375 2.78125 
Q 49.265625 0.734375 44.1875 -0.34375 
Q 39.109375 -1.421875 33.890625 -1.421875 
Q 20.796875 -1.421875 13.15625 6.1875 
Q 5.515625 13.8125 5.515625 26.8125 
Q 5.515625 40.234375 12.765625 48.109375 
Q 20.015625 56 32.328125 56 
Q 43.359375 56 49.78125 48.890625 
Q 56.203125 41.796875 56.203125 29.59375 
z
M 47.21875 32.234375 
Q 47.125 39.59375 43.09375 43.984375 
Q 39.0625 48.390625 32.421875 48.390625 
Q 24.90625 48.390625 20.390625 44.140625 
Q 15.875 39.890625 15.1875 32.171875 
z
" id="DejaVuSans-101"/>
       <path d="M 18.3125 70.21875 
L 18.3125 54.6875 
L 36.8125 54.6875 
L 36.8125 47.703125 
L 18.3125 47.703125 
L 18.3125 18.015625 
Q 18.3125 11.328125 20.140625 9.421875 
Q 21.96875 7.515625 27.59375 7.515625 
L 36.8125 7.515625 
L 36.8125 0 
L 27.59375 0 
Q 17.1875 0 13.234375 3.875 
Q 9.28125 7.765625 9.28125 18.015625 
L 9.28125 47.703125 
L 2.6875 47.703125 
L 2.6875 54.6875 
L 9.28125 54.6875 
L 9.28125 70.21875 
z
" id="DejaVuSans-116"/>
       <path d="M 54.890625 54.6875 
L 35.109375 28.078125 
L 55.90625 0 
L 45.3125 0 
L 29.390625 21.484375 
L 13.484375 0 
L 2.875 0 
L 24.125 28.609375 
L 4.6875 54.6875 
L 15.28125 54.6875 
L 29.78125 35.203125 
L 44.28125 54.6875 
z
" id="DejaVuSans-120"/>
       <path d="M 48.78125 52.59375 
L 48.78125 44.1875 
Q 44.96875 46.296875 41.140625 47.34375 
Q 37.3125 48.390625 33.40625 48.390625 
Q 24.65625 48.390625 19.8125 42.84375 
Q 14.984375 37.3125 14.984375 27.296875 
Q 14.984375 17.28125 19.8125 11.734375 
Q 24.65625 6.203125 33.40625 6.203125 
Q 37.3125 6.203125 41.140625 7.25 
Q 44.96875 8.296875 48.78125 10.40625 
L 48.78125 2.09375 
Q 45.015625 0.34375 40.984375 -0.53125 
Q 36.96875 -1.421875 32.421875 -1.421875 
Q 20.0625 -1.421875 12.78125 6.34375 
Q 5.515625 14.109375 5.515625 27.296875 
Q 5.515625 40.671875 12.859375 48.328125 
Q 20.21875 56 33.015625 56 
Q 37.15625 56 41.109375 55.140625 
Q 45.0625 54.296875 48.78125 52.59375 
z
" id="DejaVuSans-99"/>
       <path d="M 41.109375 46.296875 
Q 39.59375 47.171875 37.8125 47.578125 
Q 36.03125 48 33.890625 48 
Q 26.265625 48 22.1875 43.046875 
Q 18.109375 38.09375 18.109375 28.8125 
L 18.109375 0 
L 9.078125 0 
L 9.078125 54.6875 
L 18.109375 54.6875 
L 18.109375 46.1875 
Q 20.953125 51.171875 25.484375 53.578125 
Q 30.03125 56 36.53125 56 
Q 37.453125 56 38.578125 55.875 
Q 39.703125 55.765625 41.0625 55.515625 
z
" id="DejaVuSans-114"/>
       <path d="M 34.28125 27.484375 
Q 23.390625 27.484375 19.1875 25 
Q 14.984375 22.515625 14.984375 16.5 
Q 14.984375 11.71875 18.140625 8.90625 
Q 21.296875 6.109375 26.703125 6.109375 
Q 34.1875 6.109375 38.703125 11.40625 
Q 43.21875 16.703125 43.21875 25.484375 
L 43.21875 27.484375 
z
M 52.203125 31.203125 
L 52.203125 0 
L 43.21875 0 
L 43.21875 8.296875 
Q 40.140625 3.328125 35.546875 0.953125 
Q 30.953125 -1.421875 24.3125 -1.421875 
Q 15.921875 -1.421875 10.953125 3.296875 
Q 6 8.015625 6 15.921875 
Q 6 25.140625 12.171875 29.828125 
Q 18.359375 34.515625 30.609375 34.515625 
L 43.21875 34.515625 
L 43.21875 35.40625 
Q 43.21875 41.609375 39.140625 45 
Q 35.0625 48.390625 27.6875 48.390625 
Q 23 48.390625 18.546875 47.265625 
Q 14.109375 46.140625 10.015625 43.890625 
L 10.015625 52.203125 
Q 14.9375 54.109375 19.578125 55.046875 
Q 24.21875 56 28.609375 56 
Q 40.484375 56 46.34375 49.84375 
Q 52.203125 43.703125 52.203125 31.203125 
z
" id="DejaVuSans-97"/>
       <path d="M 54.890625 33.015625 
L 54.890625 0 
L 45.90625 0 
L 45.90625 32.71875 
Q 45.90625 40.484375 42.875 44.328125 
Q 39.84375 48.1875 33.796875 48.1875 
Q 26.515625 48.1875 22.3125 43.546875 
Q 18.109375 38.921875 18.109375 30.90625 
L 18.109375 0 
L 9.078125 0 
L 9.078125 54.6875 
L 18.109375 54.6875 
L 18.109375 46.1875 
Q 21.34375 51.125 25.703125 53.5625 
Q 30.078125 56 35.796875 56 
Q 45.21875 56 50.046875 50.171875 
Q 54.890625 44.34375 54.890625 33.015625 
z
" id="DejaVuSans-110"/>
       <path d="M 45.40625 27.984375 
Q 45.40625 37.75 41.375 43.109375 
Q 37.359375 48.484375 30.078125 48.484375 
Q 22.859375 48.484375 18.828125 43.109375 
Q 14.796875 37.75 14.796875 27.984375 
Q 14.796875 18.265625 18.828125 12.890625 
Q 22.859375 7.515625 30.078125 7.515625 
Q 37.359375 7.515625 41.375 12.890625 
Q 45.40625 18.265625 45.40625 27.984375 
z
M 54.390625 6.78125 
Q 54.390625 -7.171875 48.1875 -13.984375 
Q 42 -20.796875 29.203125 -20.796875 
Q 24.46875 -20.796875 20.265625 -20.09375 
Q 16.0625 -19.390625 12.109375 -17.921875 
L 12.109375 -9.1875 
Q 16.0625 -11.328125 19.921875 -12.34375 
Q 23.78125 -13.375 27.78125 -13.375 
Q 36.625 -13.375 41.015625 -8.765625 
Q 45.40625 -4.15625 45.40625 5.171875 
L 45.40625 9.625 
Q 42.625 4.78125 38.28125 2.390625 
Q 33.9375 0 27.875 0 
Q 17.828125 0 11.671875 7.65625 
Q 5.515625 15.328125 5.515625 27.984375 
Q 5.515625 40.671875 11.671875 48.328125 
Q 17.828125 56 27.875 56 
Q 33.9375 56 38.28125 53.609375 
Q 42.625 51.21875 45.40625 46.390625 
L 45.40625 54.6875 
L 54.390625 54.6875 
z
" id="DejaVuSans-103"/>
       <path d="M 44.28125 53.078125 
L 44.28125 44.578125 
Q 40.484375 46.53125 36.375 47.5 
Q 32.28125 48.484375 27.875 48.484375 
Q 21.1875 48.484375 17.84375 46.4375 
Q 14.5 44.390625 14.5 40.28125 
Q 14.5 37.15625 16.890625 35.375 
Q 19.28125 33.59375 26.515625 31.984375 
L 29.59375 31.296875 
Q 39.15625 29.25 43.1875 25.515625 
Q 47.21875 21.78125 47.21875 15.09375 
Q 47.21875 7.46875 41.1875 3.015625 
Q 35.15625 -1.421875 24.609375 -1.421875 
Q 20.21875 -1.421875 15.453125 -0.5625 
Q 10.6875 0.296875 5.421875 2 
L 5.421875 11.28125 
Q 10.40625 8.6875 15.234375 7.390625 
Q 20.0625 6.109375 24.8125 6.109375 
Q 31.15625 6.109375 34.5625 8.28125 
Q 37.984375 10.453125 37.984375 14.40625 
Q 37.984375 18.0625 35.515625 20.015625 
Q 33.0625 21.96875 24.703125 23.78125 
L 21.578125 24.515625 
Q 13.234375 26.265625 9.515625 29.90625 
Q 5.8125 33.546875 5.8125 39.890625 
Q 5.8125 47.609375 11.28125 51.796875 
Q 16.75 56 26.8125 56 
Q 31.78125 56 36.171875 55.265625 
Q 40.578125 54.546875 44.28125 53.078125 
z
" id="DejaVuSans-115"/>
      </defs>
      <use xlink:href="#DejaVuSans-67"/>
      <use x="69.824219" xlink:href="#DejaVuSans-111"/>
      <use x="131.005859" xlink:href="#DejaVuSans-109"/>
      <use x="228.417969" xlink:href="#DejaVuSans-101"/>
      <use x="289.941406" xlink:href="#DejaVuSans-116"/>
      <use x="329.150391" xlink:href="#DejaVuSans-32"/>
      <use x="360.9375" xlink:href="#DejaVuSans-120"/>
      <use x="418.367188" xlink:href="#DejaVuSans-99"/>
      <use x="473.347656" xlink:href="#DejaVuSans-111"/>
      <use x="534.529297" xlink:href="#DejaVuSans-114"/>
      <use x="573.892578" xlink:href="#DejaVuSans-114"/>
      <use x="615.005859" xlink:href="#DejaVuSans-32"/>
      <use x="646.792969" xlink:href="#DejaVuSans-114"/>
      <use x="687.90625" xlink:href="#DejaVuSans-97"/>
      <use x="749.185547" xlink:href="#DejaVuSans-110"/>
      <use x="812.564453" xlink:href="#DejaVuSans-103"/>
      <use x="876.041016" xlink:href="#DejaVuSans-101"/>
      <use x="937.564453" xlink:href="#DejaVuSans-115"/>
     </g>
    </g>
   </g>
   <g id="patch_2">
    <path clip-path="url(#pb529075ef0)" d="M 65.111875 7.900643 
L 73.169439 7.900643 
L 73.169439 13.50579 
L 65.111875 13.50579 
z
" style="fill:#2b908f;"/>
   </g>
   <g id="patch_3">
    <path clip-path="url(#pb529075ef0)" d="M 65.111875 14.907077 
L 78.157455 14.907077 
L 78.157455 20.512224 
L 65.111875 20.512224 
z
" style="fill:#2b908f;"/>
   </g>
   <g id="patch_4">
    <path clip-path="url(#pb529075ef0)" d="M 65.111875 21.913511 
L 84.296551 21.913511 
L 84.296551 27.518658 
L 65.111875 27.518658 
z
" style="fill:#2b908f;"/>
   </g>
   <g id="patch_5">
    <path clip-path="url(#pb529075ef0)" d="M 65.111875 28.919945 
L 94.656276 28.919945 
L 94.656276 34.525092 
L 65.111875 34.525092 
z
" style="fill:#2b908f;"/>
   </g>
   <g id="patch_6">
    <path clip-path="url(#pb529075ef0)" d="M 65.111875 35.926379 
L 111.538791 35.926379 
L 111.538791 41.531526 
L 65.111875 41.531526 
z
" style="fill:#2b908f;"/>
   </g>
   <g id="patch_7">
    <path clip-path="url(#pb529075ef0)" d="M 65.111875 42.932812 
L 124.200677 42.932812 
L 124.200677 48.53796 
L 65.111875 48.53796 
z
" style="fill:#2b908f;"/>
   </g>
   <g id="patch_8">
    <path clip-path="url(#pb529075ef0)" d="M 65.111875 49.939246 
L 158.3494 49.939246 
L 158.3494 55.544393 
L 65.111875 55.544393 
z
" style="fill:#2b908f;"/>
   </g>
   <g id="patch_9">
    <path clip-path="url(#pb529075ef0)" d="M 65.111875 56.94568 
L 231.251168 56.94568 
L 231.251168 62.550827 
L 65.111875 62.550827 
z
" style="fill:#2b908f;"/>
   </g>
   <g id="patch_10">
    <path clip-path="url(#pb529075ef0)" d="M 65.111875 63.952114 
L 289.188889 63.952114 
L 289.188889 69.557261 
L 65.111875 69.557261 
z
" style="fill:#2b908f;"/>
   </g>
   <g id="patch_11">
    <path clip-path="url(#pb529075ef0)" d="M 65.111875 70.958548 
L 374.368849 70.958548 
L 374.368849 76.563695 
L 65.111875 76.563695 
z
" style="fill:#2b908f;"/>
   </g>
   <g id="patch_12">
    <path clip-path="url(#pb529075ef0)" d="M 65.111875 77.964982 
L 433.073958 77.964982 
L 433.073958 83.570129 
L 65.111875 83.570129 
z
" style="fill:#2b908f;"/>
   </g>
   <g id="patch_13">
    <path clip-path="url(#pb529075ef0)" d="M 65.111875 84.971415 
L 502.906178 84.971415 
L 502.906178 90.576563 
L 65.111875 90.576563 
z
" style="fill:#2b908f;"/>
   </g>
   <g id="patch_14">
    <path clip-path="url(#pb529075ef0)" d="M 65.111875 91.977849 
L 518.637612 91.977849 
L 518.637612 97.582996 
L 65.111875 97.582996 
z
" style="fill:#2b908f;"/>
   </g>
   <g id="patch_15">
    <path clip-path="url(#pb529075ef0)" d="M 65.111875 98.984283 
L 526.311482 98.984283 
L 526.311482 104.58943 
L 65.111875 104.58943 
z
" style="fill:#2b908f;"/>
   </g>
   <g id="patch_16">
    <path clip-path="url(#pb529075ef0)" d="M 65.111875 105.990717 
L 519.021305 105.990717 
L 519.021305 111.595864 
L 65.111875 111.595864 
z
" style="fill:#2b908f;"/>
   </g>
   <g id="patch_17">
    <path clip-path="url(#pb529075ef0)" d="M 65.111875 112.997151 
L 511.347435 112.997151 
L 511.347435 118.602298 
L 65.111875 118.602298 
z
" style="fill:#2b908f;"/>
   </g>
   <g id="patch_18">
    <path clip-path="url(#pb529075ef0)" d="M 65.111875 120.003585 
L 472.59439 120.003585 
L 472.59439 125.608732 
L 65.111875 125.608732 
z
" style="fill:#2b908f;"/>
   </g>
   <g id="patch_19">
    <path clip-path="url(#pb529075ef0)" d="M 65.111875 127.010018 
L 453.793407 127.010018 
L 453.793407 132.615165 
L 65.111875 132.615165 
z
" style="fill:#2b908f;"/>
   </g>
   <g id="patch_20">
    <path clip-path="url(#pb529075ef0)" d="M 65.111875 134.016452 
L 389.332897 134.016452 
L 389.332897 139.621599 
L 65.111875 139.621599 
z
" style="fill:#2b908f;"/>
   </g>
   <g id="patch_21">
    <path clip-path="url(#pb529075ef0)" d="M 65.111875 141.022886 
L 380.124252 141.022886 
L 380.124252 146.628033 
L 65.111875 146.628033 
z
" style="fill:#2b908f;"/>
   </g>
   <g id="patch_22">
    <path clip-path="url(#pb529075ef0)" d="M 65.111875 148.02932 
L 369.380834 148.02932 
L 369.380834 153.634467 
L 65.111875 153.634467 
z
" style="fill:#2b908f;"/>
   </g>
   <g id="patch_23">
    <path clip-path="url(#pb529075ef0)" d="M 65.111875 155.035754 
L 372.834075 155.035754 
L 372.834075 160.640901 
L 65.111875 160.640901 
z
" style="fill:#2b908f;"/>
   </g>
   <g id="patch_24">
    <path clip-path="url(#pb529075ef0)" d="M 65.111875 162.042188 
L 328.709321 162.042188 
L 328.709321 167.647335 
L 65.111875 167.647335 
z
" style="fill:#2b908f;"/>
   </g>
   <g id="patch_25">
    <path clip-path="url(#pb529075ef0)" d="M 65.111875 169.048621 
L 314.896354 169.048621 
L 314.896354 174.653768 
L 65.111875 174.653768 
z
" style="fill:#2b908f;"/>
   </g>
   <g id="patch_26">
    <path clip-path="url(#pb529075ef0)" d="M 65.111875 176.055055 
L 292.258437 176.055055 
L 292.258437 181.660202 
L 65.111875 181.660202 
z
" style="fill:#2b908f;"/>
   </g>
   <g id="patch_27">
    <path clip-path="url(#pb529075ef0)" d="M 65.111875 183.061489 
L 264.24881 183.061489 
L 264.24881 188.666636 
L 65.111875 188.666636 
z
" style="fill:#2b908f;"/>
   </g>
   <g id="patch_28">
    <path clip-path="url(#pb529075ef0)" d="M 65.111875 190.067923 
L 253.889085 190.067923 
L 253.889085 195.67307 
L 65.111875 195.67307 
z
" style="fill:#2b908f;"/>
   </g>
   <g id="patch_29">
    <path clip-path="url(#pb529075ef0)" d="M 65.111875 197.074357 
L 228.565313 197.074357 
L 228.565313 202.679504 
L 65.111875 202.679504 
z
" style="fill:#2b908f;"/>
   </g>
   <g id="patch_30">
    <path clip-path="url(#pb529075ef0)" d="M 65.111875 204.08079 
L 209.764331 204.08079 
L 209.764331 209.685937 
L 65.111875 209.685937 
z
" style="fill:#2b908f;"/>
   </g>
   <g id="patch_31">
    <path clip-path="url(#pb529075ef0)" d="M 65.111875 211.087224 
L 191.730736 211.087224 
L 191.730736 216.692371 
L 65.111875 216.692371 
z
" style="fill:#2b908f;"/>
   </g>
   <g id="patch_32">
    <path clip-path="url(#pb529075ef0)" d="M 65.111875 218.093658 
L 178.301462 218.093658 
L 178.301462 223.698805 
L 65.111875 223.698805 
z
" style="fill:#2b908f;"/>
   </g>
   <g id="patch_33">
    <path clip-path="url(#pb529075ef0)" d="M 65.111875 225.100092 
L 158.733093 225.100092 
L 158.733093 230.705239 
L 65.111875 230.705239 
z
" style="fill:#2b908f;"/>
   </g>
   <g id="patch_34">
    <path clip-path="url(#pb529075ef0)" d="M 65.111875 232.106526 
L 143.769046 232.106526 
L 143.769046 237.711673 
L 65.111875 237.711673 
z
" style="fill:#2b908f;"/>
   </g>
   <g id="patch_35">
    <path clip-path="url(#pb529075ef0)" d="M 65.111875 239.11296 
L 125.735451 239.11296 
L 125.735451 244.718107 
L 65.111875 244.718107 
z
" style="fill:#2b908f;"/>
   </g>
   <g id="patch_36">
    <path clip-path="url(#pb529075ef0)" d="M 65.111875 246.119393 
L 128.804999 246.119393 
L 128.804999 251.72454 
L 65.111875 251.72454 
z
" style="fill:#2b908f;"/>
   </g>
   <g id="patch_37">
    <path clip-path="url(#pb529075ef0)" d="M 65.111875 253.125827 
L 125.735451 253.125827 
L 125.735451 258.730974 
L 65.111875 258.730974 
z
" style="fill:#2b908f;"/>
   </g>
   <g id="patch_38">
    <path clip-path="url(#pb529075ef0)" d="M 65.111875 260.132261 
L 106.550775 260.132261 
L 106.550775 265.737408 
L 65.111875 265.737408 
z
" style="fill:#2b908f;"/>
   </g>
   <g id="patch_39">
    <path clip-path="url(#pb529075ef0)" d="M 65.111875 267.138695 
L 107.318162 267.138695 
L 107.318162 272.743842 
L 65.111875 272.743842 
z
" style="fill:#2b908f;"/>
   </g>
   <g id="patch_40">
    <path clip-path="url(#pb529075ef0)" d="M 65.111875 274.145129 
L 95.423663 274.145129 
L 95.423663 279.750276 
L 65.111875 279.750276 
z
" style="fill:#2b908f;"/>
   </g>
   <g id="patch_41">
    <path clip-path="url(#pb529075ef0)" d="M 65.111875 281.151562 
L 86.598712 281.151562 
L 86.598712 286.75671 
L 65.111875 286.75671 
z
" style="fill:#2b908f;"/>
   </g>
   <g id="patch_42">
    <path clip-path="url(#pb529075ef0)" d="M 65.111875 288.157996 
L 90.819341 288.157996 
L 90.819341 293.763143 
L 65.111875 293.763143 
z
" style="fill:#2b908f;"/>
   </g>
   <g id="patch_43">
    <path clip-path="url(#pb529075ef0)" d="M 65.111875 295.16443 
L 86.982405 295.16443 
L 86.982405 300.769577 
L 65.111875 300.769577 
z
" style="fill:#2b908f;"/>
   </g>
   <g id="patch_44">
    <path clip-path="url(#pb529075ef0)" d="M 65.111875 302.170864 
L 81.99439 302.170864 
L 81.99439 307.776011 
L 65.111875 307.776011 
z
" style="fill:#2b908f;"/>
   </g>
   <g id="patch_45">
    <path clip-path="url(#pb529075ef0)" d="M 65.111875 309.177298 
L 78.157455 309.177298 
L 78.157455 314.782445 
L 65.111875 314.782445 
z
" style="fill:#2b908f;"/>
   </g>
   <g id="patch_46">
    <path clip-path="url(#pb529075ef0)" d="M 65.111875 316.183732 
L 72.785745 316.183732 
L 72.785745 321.788879 
L 65.111875 321.788879 
z
" style="fill:#2b908f;"/>
   </g>
   <g id="patch_47">
    <path clip-path="url(#pb529075ef0)" d="M 65.111875 323.190165 
L 77.006374 323.190165 
L 77.006374 328.795312 
L 65.111875 328.795312 
z
" style="fill:#2b908f;"/>
   </g>
   <g id="patch_48">
    <path clip-path="url(#pb529075ef0)" d="M 65.111875 330.196599 
L 70.867278 330.196599 
L 70.867278 335.801746 
L 65.111875 335.801746 
z
" style="fill:#2b908f;"/>
   </g>
   <g id="patch_49">
    <path clip-path="url(#pb529075ef0)" d="M 65.111875 337.203033 
L 74.704213 337.203033 
L 74.704213 342.80818 
L 65.111875 342.80818 
z
" style="fill:#2b908f;"/>
   </g>
   <g id="patch_50">
    <path clip-path="url(#pb529075ef0)" d="M 65.111875 344.209467 
L 70.099891 344.209467 
L 70.099891 349.814614 
L 65.111875 349.814614 
z
" style="fill:#2b908f;"/>
   </g>
   <g id="patch_51">
    <path clip-path="url(#pb529075ef0)" d="M 65.111875 351.215901 
L 70.867278 351.215901 
L 70.867278 356.821048 
L 65.111875 356.821048 
z
" style="fill:#2b908f;"/>
   </g>
   <g id="patch_52">
    <path clip-path="url(#pb529075ef0)" d="M 65.111875 358.222335 
L 89.284567 358.222335 
L 89.284567 363.827482 
L 65.111875 363.827482 
z
" style="fill:#2b908f;"/>
   </g>
   <g id="patch_53">
    <path clip-path="url(#pb529075ef0)" d="M 73.169439 7.900643 
L 80.075922 7.900643 
L 80.075922 13.50579 
L 73.169439 13.50579 
z
" style="fill:#90ed7d;"/>
   </g>
   <g id="patch_54">
    <path clip-path="url(#pb529075ef0)" d="M 78.157455 14.907077 
L 88.51718 14.907077 
L 88.51718 20.512224 
L 78.157455 20.512224 
z
" style="fill:#90ed7d;"/>
   </g>
   <g id="patch_55">
    <path clip-path="url(#pb529075ef0)" d="M 84.296551 21.913511 
L 105.016001 21.913511 
L 105.016001 27.518658 
L 84.296551 27.518658 
z
" style="fill:#90ed7d;"/>
   </g>
   <g id="patch_56">
    <path clip-path="url(#pb529075ef0)" d="M 94.656276 28.919945 
L 127.270225 28.919945 
L 127.270225 34.525092 
L 94.656276 34.525092 
z
" style="fill:#90ed7d;"/>
   </g>
   <g id="patch_57">
    <path clip-path="url(#pb529075ef0)" d="M 111.538791 35.926379 
L 155.279851 35.926379 
L 155.279851 41.531526 
L 111.538791 41.531526 
z
" style="fill:#90ed7d;"/>
   </g>
   <g id="patch_58">
    <path clip-path="url(#pb529075ef0)" d="M 124.200677 42.932812 
L 179.068849 42.932812 
L 179.068849 48.53796 
L 124.200677 48.53796 
z
" style="fill:#90ed7d;"/>
   </g>
   <g id="patch_59">
    <path clip-path="url(#pb529075ef0)" d="M 158.3494 49.939246 
L 259.644488 49.939246 
L 259.644488 55.544393 
L 158.3494 55.544393 
z
" style="fill:#90ed7d;"/>
   </g>
   <g id="patch_60">
    <path clip-path="url(#pb529075ef0)" d="M 231.251168 56.94568 
L 387.798123 56.94568 
L 387.798123 62.550827 
L 231.251168 62.550827 
z
" style="fill:#90ed7d;"/>
   </g>
   <g id="patch_61">
    <path clip-path="url(#pb529075ef0)" d="M 289.188889 63.952114 
L 502.522484 63.952114 
L 502.522484 69.557261 
L 289.188889 69.557261 
z
" style="fill:#90ed7d;"/>
   </g>
   <g id="patch_62">
    <path clip-path="url(#pb529075ef0)" d="M 374.368849 70.958548 
L 657.918358 70.958548 
L 657.918358 76.563695 
L 374.368849 76.563695 
z
" style="fill:#90ed7d;"/>
   </g>
   <g id="patch_63">
    <path clip-path="url(#pb529075ef0)" d="M 433.073958 77.964982 
L 744.2494 77.964982 
L 744.2494 83.570129 
L 433.073958 83.570129 
z
" style="fill:#90ed7d;"/>
   </g>
   <g id="patch_64">
    <path clip-path="url(#pb529075ef0)" d="M 502.906178 84.971415 
L 846.311875 84.971415 
L 846.311875 90.576563 
L 502.906178 90.576563 
z
" style="fill:#90ed7d;"/>
   </g>
   <g id="patch_65">
    <path clip-path="url(#pb529075ef0)" d="M 518.637612 91.977849 
L 816.000087 91.977849 
L 816.000087 97.582996 
L 518.637612 97.582996 
z
" style="fill:#90ed7d;"/>
   </g>
   <g id="patch_66">
    <path clip-path="url(#pb529075ef0)" d="M 526.311482 98.984283 
L 790.292622 98.984283 
L 790.292622 104.58943 
L 526.311482 104.58943 
z
" style="fill:#90ed7d;"/>
   </g>
   <g id="patch_67">
    <path clip-path="url(#pb529075ef0)" d="M 519.021305 105.990717 
L 723.146256 105.990717 
L 723.146256 111.595864 
L 519.021305 111.595864 
z
" style="fill:#90ed7d;"/>
   </g>
   <g id="patch_68">
    <path clip-path="url(#pb529075ef0)" d="M 511.347435 112.997151 
L 671.731325 112.997151 
L 671.731325 118.602298 
L 511.347435 118.602298 
z
" style="fill:#90ed7d;"/>
   </g>
   <g id="patch_69">
    <path clip-path="url(#pb529075ef0)" d="M 472.59439 120.003585 
L 586.935058 120.003585 
L 586.935058 125.608732 
L 472.59439 125.608732 
z
" style="fill:#90ed7d;"/>
   </g>
   <g id="patch_70">
    <path clip-path="url(#pb529075ef0)" d="M 453.793407 127.010018 
L 532.450578 127.010018 
L 532.450578 132.615165 
L 453.793407 132.615165 
z
" style="fill:#90ed7d;"/>
   </g>
   <g id="patch_71">
    <path clip-path="url(#pb529075ef0)" d="M 389.332897 134.016452 
L 444.584763 134.016452 
L 444.584763 139.621599 
L 389.332897 139.621599 
z
" style="fill:#90ed7d;"/>
   </g>
   <g id="patch_72">
    <path clip-path="url(#pb529075ef0)" d="M 380.124252 141.022886 
L 418.10991 141.022886 
L 418.10991 146.628033 
L 380.124252 146.628033 
z
" style="fill:#90ed7d;"/>
   </g>
   <g id="patch_73">
    <path clip-path="url(#pb529075ef0)" d="M 369.380834 148.02932 
L 395.855686 148.02932 
L 395.855686 153.634467 
L 369.380834 153.634467 
z
" style="fill:#90ed7d;"/>
   </g>
   <g id="patch_74">
    <path clip-path="url(#pb529075ef0)" d="M 372.834075 155.035754 
L 386.263348 155.035754 
L 386.263348 160.640901 
L 372.834075 160.640901 
z
" style="fill:#90ed7d;"/>
   </g>
   <g id="patch_75">
    <path clip-path="url(#pb529075ef0)" d="M 328.709321 162.042188 
L 337.534272 162.042188 
L 337.534272 167.647335 
L 328.709321 167.647335 
z
" style="fill:#90ed7d;"/>
   </g>
   <g id="patch_76">
    <path clip-path="url(#pb529075ef0)" d="M 314.896354 169.048621 
L 321.802838 169.048621 
L 321.802838 174.653768 
L 314.896354 174.653768 
z
" style="fill:#90ed7d;"/>
   </g>
   <g id="patch_77">
    <path clip-path="url(#pb529075ef0)" d="M 292.258437 176.055055 
L 297.246453 176.055055 
L 297.246453 181.660202 
L 292.258437 181.660202 
z
" style="fill:#90ed7d;"/>
   </g>
   <g id="patch_78">
    <path clip-path="url(#pb529075ef0)" d="M 264.24881 183.061489 
L 269.620519 183.061489 
L 269.620519 188.666636 
L 264.24881 188.666636 
z
" style="fill:#90ed7d;"/>
   </g>
   <g id="patch_79">
    <path clip-path="url(#pb529075ef0)" d="M 253.889085 190.067923 
L 256.57494 190.067923 
L 256.57494 195.67307 
L 253.889085 195.67307 
z
" style="fill:#90ed7d;"/>
   </g>
   <g id="patch_80">
    <path clip-path="url(#pb529075ef0)" d="M 228.565313 197.074357 
L 230.867474 197.074357 
L 230.867474 202.679504 
L 228.565313 202.679504 
z
" style="fill:#90ed7d;"/>
   </g>
   <g id="patch_81">
    <path clip-path="url(#pb529075ef0)" d="M 209.764331 204.08079 
L 209.764331 204.08079 
L 209.764331 209.685937 
L 209.764331 209.685937 
z
" style="fill:#90ed7d;"/>
   </g>
   <g id="patch_82">
    <path clip-path="url(#pb529075ef0)" d="M 191.730736 211.087224 
L 192.114429 211.087224 
L 192.114429 216.692371 
L 191.730736 216.692371 
z
" style="fill:#90ed7d;"/>
   </g>
   <g id="patch_83">
    <path clip-path="url(#pb529075ef0)" d="M 178.301462 218.093658 
L 178.301462 218.093658 
L 178.301462 223.698805 
L 178.301462 223.698805 
z
" style="fill:#90ed7d;"/>
   </g>
   <g id="patch_84">
    <path clip-path="url(#pb529075ef0)" d="M 158.733093 225.100092 
L 158.733093 225.100092 
L 158.733093 230.705239 
L 158.733093 230.705239 
z
" style="fill:#90ed7d;"/>
   </g>
   <g id="patch_85">
    <path clip-path="url(#pb529075ef0)" d="M 143.769046 232.106526 
L 143.769046 232.106526 
L 143.769046 237.711673 
L 143.769046 237.711673 
z
" style="fill:#90ed7d;"/>
   </g>
   <g id="patch_86">
    <path clip-path="url(#pb529075ef0)" d="M 125.735451 239.11296 
L 125.735451 239.11296 
L 125.735451 244.718107 
L 125.735451 244.718107 
z
" style="fill:#90ed7d;"/>
   </g>
   <g id="patch_87">
    <path clip-path="url(#pb529075ef0)" d="M 128.804999 246.119393 
L 128.804999 246.119393 
L 128.804999 251.72454 
L 128.804999 251.72454 
z
" style="fill:#90ed7d;"/>
   </g>
   <g id="patch_88">
    <path clip-path="url(#pb529075ef0)" d="M 125.735451 253.125827 
L 125.735451 253.125827 
L 125.735451 258.730974 
L 125.735451 258.730974 
z
" style="fill:#90ed7d;"/>
   </g>
   <g id="patch_89">
    <path clip-path="url(#pb529075ef0)" d="M 106.550775 260.132261 
L 106.550775 260.132261 
L 106.550775 265.737408 
L 106.550775 265.737408 
z
" style="fill:#90ed7d;"/>
   </g>
   <g id="patch_90">
    <path clip-path="url(#pb529075ef0)" d="M 107.318162 267.138695 
L 107.318162 267.138695 
L 107.318162 272.743842 
L 107.318162 272.743842 
z
" style="fill:#90ed7d;"/>
   </g>
   <g id="patch_91">
    <path clip-path="url(#pb529075ef0)" d="M 95.423663 274.145129 
L 95.423663 274.145129 
L 95.423663 279.750276 
L 95.423663 279.750276 
z
" style="fill:#90ed7d;"/>
   </g>
   <g id="patch_92">
    <path clip-path="url(#pb529075ef0)" d="M 86.598712 281.151562 
L 86.598712 281.151562 
L 86.598712 286.75671 
L 86.598712 286.75671 
z
" style="fill:#90ed7d;"/>
   </g>
   <g id="patch_93">
    <path clip-path="url(#pb529075ef0)" d="M 90.819341 288.157996 
L 90.819341 288.157996 
L 90.819341 293.763143 
L 90.819341 293.763143 
z
" style="fill:#90ed7d;"/>
   </g>
   <g id="patch_94">
    <path clip-path="url(#pb529075ef0)" d="M 86.982405 295.16443 
L 86.982405 295.16443 
L 86.982405 300.769577 
L 86.982405 300.769577 
z
" style="fill:#90ed7d;"/>
   </g>
   <g id="patch_95">
    <path clip-path="url(#pb529075ef0)" d="M 81.99439 302.170864 
L 81.99439 302.170864 
L 81.99439 307.776011 
L 81.99439 307.776011 
z
" style="fill:#90ed7d;"/>
   </g>
   <g id="patch_96">
    <path clip-path="url(#pb529075ef0)" d="M 78.157455 309.177298 
L 78.157455 309.177298 
L 78.157455 314.782445 
L 78.157455 314.782445 
z
" style="fill:#90ed7d;"/>
   </g>
   <g id="patch_97">
    <path clip-path="url(#pb529075ef0)" d="M 72.785745 316.183732 
L 72.785745 316.183732 
L 72.785745 321.788879 
L 72.785745 321.788879 
z
" style="fill:#90ed7d;"/>
   </g>
   <g id="patch_98">
    <path clip-path="url(#pb529075ef0)" d="M 77.006374 323.190165 
L 77.006374 323.190165 
L 77.006374 328.795312 
L 77.006374 328.795312 
z
" style="fill:#90ed7d;"/>
   </g>
   <g id="patch_99">
    <path clip-path="url(#pb529075ef0)" d="M 70.867278 330.196599 
L 70.867278 330.196599 
L 70.867278 335.801746 
L 70.867278 335.801746 
z
" style="fill:#90ed7d;"/>
   </g>
   <g id="patch_100">
    <path clip-path="url(#pb529075ef0)" d="M 74.704213 337.203033 
L 74.704213 337.203033 
L 74.704213 342.80818 
L 74.704213 342.80818 
z
" style="fill:#90ed7d;"/>
   </g>
   <g id="patch_101">
    <path clip-path="url(#pb529075ef0)" d="M 70.099891 344.209467 
L 70.099891 344.209467 
L 70.099891 349.814614 
L 70.099891 349.814614 
z
" style="fill:#90ed7d;"/>
   </g>
   <g id="patch_102">
    <path clip-path="url(#pb529075ef0)" d="M 70.867278 351.215901 
L 70.867278 351.215901 
L 70.867278 356.821048 
L 70.867278 356.821048 
z
" style="fill:#90ed7d;"/>
   </g>
   <g id="patch_103">
    <path clip-path="url(#pb529075ef0)" d="M 89.284567 358.222335 
L 89.284567 358.222335 
L 89.284567 363.827482 
L 89.284567 363.827482 
z
" style="fill:#90ed7d;"/>
   </g>
   <g id="patch_104">
    <path clip-path="url(#pb529075ef0)" d="M 80.075922 7.900643 
L 80.075922 7.900643 
L 80.075922 13.50579 
L 80.075922 13.50579 
z
" style="fill:#434348;"/>
   </g>
   <g id="patch_105">
    <path clip-path="url(#pb529075ef0)" d="M 88.51718 14.907077 
L 88.51718 14.907077 
L 88.51718 20.512224 
L 88.51718 20.512224 
z
" style="fill:#434348;"/>
   </g>
   <g id="patch_106">
    <path clip-path="url(#pb529075ef0)" d="M 105.016001 21.913511 
L 105.016001 21.913511 
L 105.016001 27.518658 
L 105.016001 27.518658 
z
" style="fill:#434348;"/>
   </g>
   <g id="patch_107">
    <path clip-path="url(#pb529075ef0)" d="M 127.270225 28.919945 
L 127.270225 28.919945 
L 127.270225 34.525092 
L 127.270225 34.525092 
z
" style="fill:#434348;"/>
   </g>
   <g id="patch_108">
    <path clip-path="url(#pb529075ef0)" d="M 155.279851 35.926379 
L 155.663545 35.926379 
L 155.663545 41.531526 
L 155.279851 41.531526 
z
" style="fill:#434348;"/>
   </g>
   <g id="patch_109">
    <path clip-path="url(#pb529075ef0)" d="M 179.068849 42.932812 
L 179.068849 42.932812 
L 179.068849 48.53796 
L 179.068849 48.53796 
z
" style="fill:#434348;"/>
   </g>
   <g id="patch_110">
    <path clip-path="url(#pb529075ef0)" d="M 259.644488 49.939246 
L 259.644488 49.939246 
L 259.644488 55.544393 
L 259.644488 55.544393 
z
" style="fill:#434348;"/>
   </g>
   <g id="patch_111">
    <path clip-path="url(#pb529075ef0)" d="M 387.798123 56.94568 
L 388.181816 56.94568 
L 388.181816 62.550827 
L 387.798123 62.550827 
z
" style="fill:#434348;"/>
   </g>
   <g id="patch_112">
    <path clip-path="url(#pb529075ef0)" d="M 502.522484 63.952114 
L 502.906178 63.952114 
L 502.906178 69.557261 
L 502.522484 69.557261 
z
" style="fill:#434348;"/>
   </g>
   <g id="patch_113">
    <path clip-path="url(#pb529075ef0)" d="M 657.918358 70.958548 
L 658.685745 70.958548 
L 658.685745 76.563695 
L 657.918358 76.563695 
z
" style="fill:#434348;"/>
   </g>
   <g id="patch_114">
    <path clip-path="url(#pb529075ef0)" d="M 744.2494 77.964982 
L 744.2494 77.964982 
L 744.2494 83.570129 
L 744.2494 83.570129 
z
" style="fill:#434348;"/>
   </g>
   <g id="patch_115">
    <path clip-path="url(#pb529075ef0)" d="M 846.311875 84.971415 
L 846.311875 84.971415 
L 846.311875 90.576563 
L 846.311875 90.576563 
z
" style="fill:#434348;"/>
   </g>
   <g id="patch_116">
    <path clip-path="url(#pb529075ef0)" d="M 816.000087 91.977849 
L 818.302248 91.977849 
L 818.302248 97.582996 
L 816.000087 97.582996 
z
" style="fill:#434348;"/>
   </g>
   <g id="patch_117">
    <path clip-path="url(#pb529075ef0)" d="M 790.292622 98.984283 
L 791.060009 98.984283 
L 791.060009 104.58943 
L 790.292622 104.58943 
z
" style="fill:#434348;"/>
   </g>
   <g id="patch_118">
    <path clip-path="url(#pb529075ef0)" d="M 723.146256 105.990717 
L 723.52995 105.990717 
L 723.52995 111.595864 
L 723.146256 111.595864 
z
" style="fill:#434348;"/>
   </g>
   <g id="patch_119">
    <path clip-path="url(#pb529075ef0)" d="M 671.731325 112.997151 
L 673.649792 112.997151 
L 673.649792 118.602298 
L 671.731325 118.602298 
z
" style="fill:#434348;"/>
   </g>
   <g id="patch_120">
    <path clip-path="url(#pb529075ef0)" d="M 586.935058 120.003585 
L 586.935058 120.003585 
L 586.935058 125.608732 
L 586.935058 125.608732 
z
" style="fill:#434348;"/>
   </g>
   <g id="patch_121">
    <path clip-path="url(#pb529075ef0)" d="M 532.450578 127.010018 
L 532.450578 127.010018 
L 532.450578 132.615165 
L 532.450578 132.615165 
z
" style="fill:#434348;"/>
   </g>
   <g id="patch_122">
    <path clip-path="url(#pb529075ef0)" d="M 444.584763 134.016452 
L 445.35215 134.016452 
L 445.35215 139.621599 
L 444.584763 139.621599 
z
" style="fill:#434348;"/>
   </g>
   <g id="patch_123">
    <path clip-path="url(#pb529075ef0)" d="M 418.10991 141.022886 
L 419.260991 141.022886 
L 419.260991 146.628033 
L 418.10991 146.628033 
z
" style="fill:#434348;"/>
   </g>
   <g id="patch_124">
    <path clip-path="url(#pb529075ef0)" d="M 395.855686 148.02932 
L 395.855686 148.02932 
L 395.855686 153.634467 
L 395.855686 153.634467 
z
" style="fill:#434348;"/>
   </g>
   <g id="patch_125">
    <path clip-path="url(#pb529075ef0)" d="M 386.263348 155.035754 
L 386.263348 155.035754 
L 386.263348 160.640901 
L 386.263348 160.640901 
z
" style="fill:#434348;"/>
   </g>
   <g id="patch_126">
    <path clip-path="url(#pb529075ef0)" d="M 337.534272 162.042188 
L 337.534272 162.042188 
L 337.534272 167.647335 
L 337.534272 167.647335 
z
" style="fill:#434348;"/>
   </g>
   <g id="patch_127">
    <path clip-path="url(#pb529075ef0)" d="M 321.802838 169.048621 
L 321.802838 169.048621 
L 321.802838 174.653768 
L 321.802838 174.653768 
z
" style="fill:#434348;"/>
   </g>
   <g id="patch_128">
    <path clip-path="url(#pb529075ef0)" d="M 297.246453 176.055055 
L 297.246453 176.055055 
L 297.246453 181.660202 
L 297.246453 181.660202 
z
" style="fill:#434348;"/>
   </g>
   <g id="patch_129">
    <path clip-path="url(#pb529075ef0)" d="M 269.620519 183.061489 
L 269.620519 183.061489 
L 269.620519 188.666636 
L 269.620519 188.666636 
z
" style="fill:#434348;"/>
   </g>
   <g id="patch_130">
    <path clip-path="url(#pb529075ef0)" d="M 256.57494 190.067923 
L 256.57494 190.067923 
L 256.57494 195.67307 
L 256.57494 195.67307 
z
" style="fill:#434348;"/>
   </g>
   <g id="patch_131">
    <path clip-path="url(#pb529075ef0)" d="M 230.867474 197.074357 
L 230.867474 197.074357 
L 230.867474 202.679504 
L 230.867474 202.679504 
z
" style="fill:#434348;"/>
   </g>
   <g id="patch_132">
    <path clip-path="url(#pb529075ef0)" d="M 209.764331 204.08079 
L 209.764331 204.08079 
L 209.764331 209.685937 
L 209.764331 209.685937 
z
" style="fill:#434348;"/>
   </g>
   <g id="patch_133">
    <path clip-path="url(#pb529075ef0)" d="M 192.114429 211.087224 
L 192.114429 211.087224 
L 192.114429 216.692371 
L 192.114429 216.692371 
z
" style="fill:#434348;"/>
   </g>
   <g id="patch_134">
    <path clip-path="url(#pb529075ef0)" d="M 178.301462 218.093658 
L 178.301462 218.093658 
L 178.301462 223.698805 
L 178.301462 223.698805 
z
" style="fill:#434348;"/>
   </g>
   <g id="patch_135">
    <path clip-path="url(#pb529075ef0)" d="M 158.733093 225.100092 
L 158.733093 225.100092 
L 158.733093 230.705239 
L 158.733093 230.705239 
z
" style="fill:#434348;"/>
   </g>
   <g id="patch_136">
    <path clip-path="url(#pb529075ef0)" d="M 143.769046 232.106526 
L 143.769046 232.106526 
L 143.769046 237.711673 
L 143.769046 237.711673 
z
" style="fill:#434348;"/>
   </g>
   <g id="patch_137">
    <path clip-path="url(#pb529075ef0)" d="M 125.735451 239.11296 
L 125.735451 239.11296 
L 125.735451 244.718107 
L 125.735451 244.718107 
z
" style="fill:#434348;"/>
   </g>
   <g id="patch_138">
    <path clip-path="url(#pb529075ef0)" d="M 128.804999 246.119393 
L 128.804999 246.119393 
L 128.804999 251.72454 
L 128.804999 251.72454 
z
" style="fill:#434348;"/>
   </g>
   <g id="patch_139">
    <path clip-path="url(#pb529075ef0)" d="M 125.735451 253.125827 
L 125.735451 253.125827 
L 125.735451 258.730974 
L 125.735451 258.730974 
z
" style="fill:#434348;"/>
   </g>
   <g id="patch_140">
    <path clip-path="url(#pb529075ef0)" d="M 106.550775 260.132261 
L 106.550775 260.132261 
L 106.550775 265.737408 
L 106.550775 265.737408 
z
" style="fill:#434348;"/>
   </g>
   <g id="patch_141">
    <path clip-path="url(#pb529075ef0)" d="M 107.318162 267.138695 
L 107.318162 267.138695 
L 107.318162 272.743842 
L 107.318162 272.743842 
z
" style="fill:#434348;"/>
   </g>
   <g id="patch_142">
    <path clip-path="url(#pb529075ef0)" d="M 95.423663 274.145129 
L 95.423663 274.145129 
L 95.423663 279.750276 
L 95.423663 279.750276 
z
" style="fill:#434348;"/>
   </g>
   <g id="patch_143">
    <path clip-path="url(#pb529075ef0)" d="M 86.598712 281.151562 
L 86.598712 281.151562 
L 86.598712 286.75671 
L 86.598712 286.75671 
z
" style="fill:#434348;"/>
   </g>
   <g id="patch_144">
    <path clip-path="url(#pb529075ef0)" d="M 90.819341 288.157996 
L 90.819341 288.157996 
L 90.819341 293.763143 
L 90.819341 293.763143 
z
" style="fill:#434348;"/>
   </g>
   <g id="patch_145">
    <path clip-path="url(#pb529075ef0)" d="M 86.982405 295.16443 
L 86.982405 295.16443 
L 86.982405 300.769577 
L 86.982405 300.769577 
z
" style="fill:#434348;"/>
   </g>
   <g id="patch_146">
    <path clip-path="url(#pb529075ef0)" d="M 81.99439 302.170864 
L 81.99439 302.170864 
L 81.99439 307.776011 
L 81.99439 307.776011 
z
" style="fill:#434348;"/>
   </g>
   <g id="patch_147">
    <path clip-path="url(#pb529075ef0)" d="M 78.157455 309.177298 
L 78.157455 309.177298 
L 78.157455 314.782445 
L 78.157455 314.782445 
z
" style="fill:#434348;"/>
   </g>
   <g id="patch_148">
    <path clip-path="url(#pb529075ef0)" d="M 72.785745 316.183732 
L 72.785745 316.183732 
L 72.785745 321.788879 
L 72.785745 321.788879 
z
" style="fill:#434348;"/>
   </g>
   <g id="patch_149">
    <path clip-path="url(#pb529075ef0)" d="M 77.006374 323.190165 
L 77.006374 323.190165 
L 77.006374 328.795312 
L 77.006374 328.795312 
z
" style="fill:#434348;"/>
   </g>
   <g id="patch_150">
    <path clip-path="url(#pb529075ef0)" d="M 70.867278 330.196599 
L 70.867278 330.196599 
L 70.867278 335.801746 
L 70.867278 335.801746 
z
" style="fill:#434348;"/>
   </g>
   <g id="patch_151">
    <path clip-path="url(#pb529075ef0)" d="M 74.704213 337.203033 
L 74.704213 337.203033 
L 74.704213 342.80818 
L 74.704213 342.80818 
z
" style="fill:#434348;"/>
   </g>
   <g id="patch_152">
    <path clip-path="url(#pb529075ef0)" d="M 70.099891 344.209467 
L 70.099891 344.209467 
L 70.099891 349.814614 
L 70.099891 349.814614 
z
" style="fill:#434348;"/>
   </g>
   <g id="patch_153">
    <path clip-path="url(#pb529075ef0)" d="M 70.867278 351.215901 
L 70.867278 351.215901 
L 70.867278 356.821048 
L 70.867278 356.821048 
z
" style="fill:#434348;"/>
   </g>
   <g id="patch_154">
    <path clip-path="url(#pb529075ef0)" d="M 89.284567 358.222335 
L 89.284567 358.222335 
L 89.284567 363.827482 
L 89.284567 363.827482 
z
" style="fill:#434348;"/>
   </g>
   <g id="text_62">
    <!-- Summary of cross-correlation scores -->
    <g transform="translate(309.506875 -20.52)scale(0.16 -0.16)">
     <defs>
      <path d="M 53.515625 70.515625 
L 53.515625 60.890625 
Q 47.90625 63.578125 42.921875 64.890625 
Q 37.9375 66.21875 33.296875 66.21875 
Q 25.25 66.21875 20.875 63.09375 
Q 16.5 59.96875 16.5 54.203125 
Q 16.5 49.359375 19.40625 46.890625 
Q 22.3125 44.4375 30.421875 42.921875 
L 36.375 41.703125 
Q 47.40625 39.59375 52.65625 34.296875 
Q 57.90625 29 57.90625 20.125 
Q 57.90625 9.515625 50.796875 4.046875 
Q 43.703125 -1.421875 29.984375 -1.421875 
Q 24.8125 -1.421875 18.96875 -0.25 
Q 13.140625 0.921875 6.890625 3.21875 
L 6.890625 13.375 
Q 12.890625 10.015625 18.65625 8.296875 
Q 24.421875 6.59375 29.984375 6.59375 
Q 38.421875 6.59375 43.015625 9.90625 
Q 47.609375 13.234375 47.609375 19.390625 
Q 47.609375 24.75 44.3125 27.78125 
Q 41.015625 30.8125 33.5 32.328125 
L 27.484375 33.5 
Q 16.453125 35.6875 11.515625 40.375 
Q 6.59375 45.0625 6.59375 53.421875 
Q 6.59375 63.09375 13.40625 68.65625 
Q 20.21875 74.21875 32.171875 74.21875 
Q 37.3125 74.21875 42.625 73.28125 
Q 47.953125 72.359375 53.515625 70.515625 
z
" id="DejaVuSans-83"/>
      <path d="M 8.5 21.578125 
L 8.5 54.6875 
L 17.484375 54.6875 
L 17.484375 21.921875 
Q 17.484375 14.15625 20.5 10.265625 
Q 23.53125 6.390625 29.59375 6.390625 
Q 36.859375 6.390625 41.078125 11.03125 
Q 45.3125 15.671875 45.3125 23.6875 
L 45.3125 54.6875 
L 54.296875 54.6875 
L 54.296875 0 
L 45.3125 0 
L 45.3125 8.40625 
Q 42.046875 3.421875 37.71875 1 
Q 33.40625 -1.421875 27.6875 -1.421875 
Q 18.265625 -1.421875 13.375 4.4375 
Q 8.5 10.296875 8.5 21.578125 
z
M 31.109375 56 
z
" id="DejaVuSans-117"/>
      <path d="M 32.171875 -5.078125 
Q 28.375 -14.84375 24.75 -17.8125 
Q 21.140625 -20.796875 15.09375 -20.796875 
L 7.90625 -20.796875 
L 7.90625 -13.28125 
L 13.1875 -13.28125 
Q 16.890625 -13.28125 18.9375 -11.515625 
Q 21 -9.765625 23.484375 -3.21875 
L 25.09375 0.875 
L 2.984375 54.6875 
L 12.5 54.6875 
L 29.59375 11.921875 
L 46.6875 54.6875 
L 56.203125 54.6875 
z
" id="DejaVuSans-121"/>
      <path d="M 37.109375 75.984375 
L 37.109375 68.5 
L 28.515625 68.5 
Q 23.6875 68.5 21.796875 66.546875 
Q 19.921875 64.59375 19.921875 59.515625 
L 19.921875 54.6875 
L 34.71875 54.6875 
L 34.71875 47.703125 
L 19.921875 47.703125 
L 19.921875 0 
L 10.890625 0 
L 10.890625 47.703125 
L 2.296875 47.703125 
L 2.296875 54.6875 
L 10.890625 54.6875 
L 10.890625 58.5 
Q 10.890625 67.625 15.140625 71.796875 
Q 19.390625 75.984375 28.609375 75.984375 
z
" id="DejaVuSans-102"/>
      <path d="M 4.890625 31.390625 
L 31.203125 31.390625 
L 31.203125 23.390625 
L 4.890625 23.390625 
z
" id="DejaVuSans-45"/>
      <path d="M 9.421875 75.984375 
L 18.40625 75.984375 
L 18.40625 0 
L 9.421875 0 
z
" id="DejaVuSans-108"/>
      <path d="M 9.421875 54.6875 
L 18.40625 54.6875 
L 18.40625 0 
L 9.421875 0 
z
M 9.421875 75.984375 
L 18.40625 75.984375 
L 18.40625 64.59375 
L 9.421875 64.59375 
z
" id="DejaVuSans-105"/>
     </defs>
     <use xlink:href="#DejaVuSans-83"/>
     <use x="63.476562" xlink:href="#DejaVuSans-117"/>
     <use x="126.855469" xlink:href="#DejaVuSans-109"/>
     <use x="224.267578" xlink:href="#DejaVuSans-109"/>
     <use x="321.679688" xlink:href="#DejaVuSans-97"/>
     <use x="382.958984" xlink:href="#DejaVuSans-114"/>
     <use x="424.072266" xlink:href="#DejaVuSans-121"/>
     <use x="483.251953" xlink:href="#DejaVuSans-32"/>
     <use x="515.039062" xlink:href="#DejaVuSans-111"/>
     <use x="576.220703" xlink:href="#DejaVuSans-102"/>
     <use x="611.425781" xlink:href="#DejaVuSans-32"/>
     <use x="643.212891" xlink:href="#DejaVuSans-99"/>
     <use x="698.193359" xlink:href="#DejaVuSans-114"/>
     <use x="737.056641" xlink:href="#DejaVuSans-111"/>
     <use x="798.238281" xlink:href="#DejaVuSans-115"/>
     <use x="850.337891" xlink:href="#DejaVuSans-115"/>
     <use x="902.4375" xlink:href="#DejaVuSans-45"/>
     <use x="938.521484" xlink:href="#DejaVuSans-99"/>
     <use x="993.501953" xlink:href="#DejaVuSans-111"/>
     <use x="1054.683594" xlink:href="#DejaVuSans-114"/>
     <use x="1094.046875" xlink:href="#DejaVuSans-114"/>
     <use x="1132.910156" xlink:href="#DejaVuSans-101"/>
     <use x="1194.433594" xlink:href="#DejaVuSans-108"/>
     <use x="1222.216797" xlink:href="#DejaVuSans-97"/>
     <use x="1283.496094" xlink:href="#DejaVuSans-116"/>
     <use x="1322.705078" xlink:href="#DejaVuSans-105"/>
     <use x="1350.488281" xlink:href="#DejaVuSans-111"/>
     <use x="1411.669922" xlink:href="#DejaVuSans-110"/>
     <use x="1475.048828" xlink:href="#DejaVuSans-32"/>
     <use x="1506.835938" xlink:href="#DejaVuSans-115"/>
     <use x="1558.935547" xlink:href="#DejaVuSans-99"/>
     <use x="1613.916016" xlink:href="#DejaVuSans-111"/>
     <use x="1675.097656" xlink:href="#DejaVuSans-114"/>
     <use x="1713.960938" xlink:href="#DejaVuSans-101"/>
     <use x="1775.484375" xlink:href="#DejaVuSans-115"/>
    </g>
   </g>
   <g id="legend_1">
    <g id="patch_155">
     <path d="M 72.311875 438.824375 
L 88.311875 438.824375 
L 88.311875 433.224375 
L 72.311875 433.224375 
z
" style="fill:#2b908f;"/>
    </g>
    <g id="text_63">
     <!-- target -->
     <g transform="translate(94.711875 438.824375)scale(0.08 -0.08)">
      <use xlink:href="#DejaVuSans-116"/>
      <use x="39.208984" xlink:href="#DejaVuSans-97"/>
      <use x="100.488281" xlink:href="#DejaVuSans-114"/>
      <use x="139.851562" xlink:href="#DejaVuSans-103"/>
      <use x="203.328125" xlink:href="#DejaVuSans-101"/>
      <use x="264.851562" xlink:href="#DejaVuSans-116"/>
     </g>
    </g>
    <g id="patch_156">
     <path d="M 417.13 438.824375 
L 433.13 438.824375 
L 433.13 433.224375 
L 417.13 433.224375 
z
" style="fill:#90ed7d;"/>
    </g>
    <g id="text_64">
     <!-- decoy -->
     <g transform="translate(439.53 438.824375)scale(0.08 -0.08)">
      <defs>
       <path d="M 45.40625 46.390625 
L 45.40625 75.984375 
L 54.390625 75.984375 
L 54.390625 0 
L 45.40625 0 
L 45.40625 8.203125 
Q 42.578125 3.328125 38.25 0.953125 
Q 33.9375 -1.421875 27.875 -1.421875 
Q 17.96875 -1.421875 11.734375 6.484375 
Q 5.515625 14.40625 5.515625 27.296875 
Q 5.515625 40.1875 11.734375 48.09375 
Q 17.96875 56 27.875 56 
Q 33.9375 56 38.25 53.625 
Q 42.578125 51.265625 45.40625 46.390625 
z
M 14.796875 27.296875 
Q 14.796875 17.390625 18.875 11.75 
Q 22.953125 6.109375 30.078125 6.109375 
Q 37.203125 6.109375 41.296875 11.75 
Q 45.40625 17.390625 45.40625 27.296875 
Q 45.40625 37.203125 41.296875 42.84375 
Q 37.203125 48.484375 30.078125 48.484375 
Q 22.953125 48.484375 18.875 42.84375 
Q 14.796875 37.203125 14.796875 27.296875 
z
" id="DejaVuSans-100"/>
      </defs>
      <use xlink:href="#DejaVuSans-100"/>
      <use x="63.476562" xlink:href="#DejaVuSans-101"/>
      <use x="125" xlink:href="#DejaVuSans-99"/>
      <use x="179.980469" xlink:href="#DejaVuSans-111"/>
      <use x="241.162109" xlink:href="#DejaVuSans-121"/>
     </g>
    </g>
    <g id="patch_157">
     <path d="M 761.653125 438.824375 
L 777.653125 438.824375 
L 777.653125 433.224375 
L 761.653125 433.224375 
z
" style="fill:#434348;"/>
    </g>
    <g id="text_65">
     <!-- target+decoy -->
     <g transform="translate(784.053125 438.824375)scale(0.08 -0.08)">
      <defs>
       <path d="M 46 62.703125 
L 46 35.5 
L 73.1875 35.5 
L 73.1875 27.203125 
L 46 27.203125 
L 46 0 
L 37.796875 0 
L 37.796875 27.203125 
L 10.59375 27.203125 
L 10.59375 35.5 
L 37.796875 35.5 
L 37.796875 62.703125 
z
" id="DejaVuSans-43"/>
      </defs>
      <use xlink:href="#DejaVuSans-116"/>
      <use x="39.208984" xlink:href="#DejaVuSans-97"/>
      <use x="100.488281" xlink:href="#DejaVuSans-114"/>
      <use x="139.851562" xlink:href="#DejaVuSans-103"/>
      <use x="203.328125" xlink:href="#DejaVuSans-101"/>
      <use x="264.851562" xlink:href="#DejaVuSans-116"/>
      <use x="304.060547" xlink:href="#DejaVuSans-43"/>
      <use x="387.849609" xlink:href="#DejaVuSans-100"/>
      <use x="451.326172" xlink:href="#DejaVuSans-101"/>
      <use x="512.849609" xlink:href="#DejaVuSans-99"/>
      <use x="567.830078" xlink:href="#DejaVuSans-111"/>
      <use x="629.011719" xlink:href="#DejaVuSans-121"/>
     </g>
    </g>
   </g>
  </g>
 </g>
 <defs>
  <clipPath id="pb529075ef0">
   <rect height="357.328125" width="781.2" x="65.111875" y="7.2"/>
  </clipPath>
 </defs>
</svg>
